<svg xmlns="http://www.w3.org/2000/svg" xmlns:xlink="http://www.w3.org/1999/xlink" contentStyleType="text/css" data-diagram-type="DESCRIPTION" height="360px" preserveAspectRatio="none" style="width:2351px;height:360px;background:#FFFFFF;" version="1.1" viewBox="0 0 2351 360" width="2351px" zoomAndPan="magnify"><title>CMD-root - Combined CLI+Code (LOD2)</title><defs/><g><g class="title" data-source-line="8"><text fill="#000000" font-family="Arial" font-size="22" font-weight="bold" lengthAdjust="spacing" textLength="416.1309" x="962.9682" y="35.6357">CMD-root - Combined CLI+Code (LOD2)</text></g><!--cluster CLI Layer--><g class="cluster" data-entity="CLI Layer" data-source-line="20" data-uid="ent0007" id="cluster_CLI Layer"><path d="M1152.99,146.7679 L1217.7898,146.7679 A3.75,3.75 0 0 1 1220.2898,149.2679 L1227.2898,168.8665 L1669.99,168.8665 A2.5,2.5 0 0 1 1672.49,171.3665 L1672.49,351.3179 A2.5,2.5 0 0 1 1669.99,353.8179 L1152.99,353.8179 A2.5,2.5 0 0 1 1150.49,351.3179 L1150.49,149.2679 A2.5,2.5 0 0 1 1152.99,146.7679" fill="#E6F3FF" style="stroke:#000000;stroke-width:1;"/><line style="stroke:#000000;stroke-width:1;" x1="1150.49" x2="1227.2898" y1="168.8665" y2="168.8665"/><text fill="#000000" font-family="Arial" font-size="14" font-weight="bold" lengthAdjust="spacing" textLength="63.7998" x="1154.49" y="161.8997">CLI Layer</text></g><!--cluster Code Layer--><g class="cluster" data-entity="Code Layer" data-source-line="28" data-uid="ent0013" id="cluster_Code Layer"><path d="M1698.99,145.9579 L1776.238,145.9579 A3.75,3.75 0 0 1 1778.738,148.4579 L1785.738,168.0565 L2087.99,168.0565 A2.5,2.5 0 0 1 2090.49,170.5565 L2090.49,351.1479 A2.5,2.5 0 0 1 2087.99,353.6479 L1698.99,353.6479 A2.5,2.5 0 0 1 1696.49,351.1479 L1696.49,148.4579 A2.5,2.5 0 0 1 1698.99,145.9579" fill="#FFE6E6" style="stroke:#000000;stroke-width:1;"/><line style="stroke:#000000;stroke-width:1;" x1="1696.49" x2="1785.738" y1="168.0565" y2="168.0565"/><text fill="#000000" font-family="Arial" font-size="14" font-weight="bold" lengthAdjust="spacing" textLength="76.248" x="1700.49" y="161.0897">Code Layer</text></g><!--entity maestro root get--><g class="entity" data-entity="maestro root get" data-source-line="21" data-uid="ent0008" id="entity_maestro root get"><ellipse cx="1234.4931" cy="199.0065" fill="#FFFFFF" rx="67.9431" ry="15.9886" style="stroke:#000000;stroke-width:1;"/><text fill="#000000" font-family="Arial" font-size="14" lengthAdjust="spacing" textLength="101.9375" x="1183.5243" y="203.5558">maestro root get</text></g><!--entity maestro root set--><g class="entity" data-entity="maestro root set" data-source-line="22" data-uid="ent0009" id="entity_maestro root set"><ellipse cx="1405.485" cy="199.0049" fill="#FFFFFF" rx="67.635" ry="15.927" style="stroke:#000000;stroke-width:1;"/><text fill="#000000" font-family="Arial" font-size="14" lengthAdjust="spacing" textLength="101.1514" x="1354.9093" y="203.5542">maestro root set</text></g><!--entity maestro root refine--><g class="entity" data-entity="maestro root refine" data-source-line="23" data-uid="ent0010" id="entity_maestro root refine"><ellipse cx="1582.4918" cy="199.0102" fill="#FFFFFF" rx="74.2118" ry="17.2424" style="stroke:#000000;stroke-width:1;"/><text fill="#000000" font-family="Arial" font-size="14" lengthAdjust="spacing" textLength="117.4961" x="1523.7438" y="203.5595">maestro root refine</text></g><!--entity maestro root discuss--><g class="entity" data-entity="maestro root discuss" data-source-line="24" data-uid="ent0011" id="entity_maestro root discuss"><ellipse cx="1245.4937" cy="319.5966" fill="#FFFFFF" rx="79.0937" ry="18.2187" style="stroke:#000000;stroke-width:1;"/><text fill="#000000" font-family="Arial" font-size="14" lengthAdjust="spacing" textLength="129.1582" x="1180.9146" y="324.1459">maestro root discuss</text></g><!--entity maestro root show--><g class="entity" data-entity="maestro root show" data-source-line="25" data-uid="ent0012" id="entity_maestro root show"><ellipse cx="1432.4906" cy="319.598" fill="#FFFFFF" rx="73.2506" ry="17.0501" style="stroke:#000000;stroke-width:1;"/><text fill="#000000" font-family="Arial" font-size="14" lengthAdjust="spacing" textLength="115.1582" x="1374.9115" y="324.1473">maestro root show</text></g><!--entity main--><g class="entity" data-entity="main" data-source-line="29" data-uid="ent0014" id="entity_main"><rect fill="#FFFFFF" height="36.0986" rx="2.5" ry="2.5" style="stroke:#000000;stroke-width:1;" width="50.3447" x="1712.32" y="180.9579"/><text fill="#000000" font-family="Arial" font-size="14" lengthAdjust="spacing" textLength="30.3447" x="1722.32" y="204.0897">main</text></g><!--entity handle_root_set--><g class="entity" data-entity="handle_root_set" data-source-line="30" data-uid="ent0015" id="entity_handle_root_set"><rect fill="#FFFFFF" height="36.0986" rx="2.5" ry="2.5" style="stroke:#000000;stroke-width:1;" width="120.4131" x="1797.28" y="180.9579"/><text fill="#000000" font-family="Arial" font-size="14" lengthAdjust="spacing" textLength="100.4131" x="1807.28" y="204.0897">handle_root_set</text></g><!--entity handle_root_get--><g class="entity" data-entity="handle_root_get" data-source-line="31" data-uid="ent0016" id="entity_handle_root_get"><rect fill="#FFFFFF" height="36.0986" rx="2.5" ry="2.5" style="stroke:#000000;stroke-width:1;" width="121.1992" x="1952.89" y="180.9579"/><text fill="#000000" font-family="Arial" font-size="14" lengthAdjust="spacing" textLength="101.1992" x="1962.89" y="204.0897">handle_root_get</text></g><!--entity handle_root_refine--><g class="entity" data-entity="handle_root_refine" data-source-line="32" data-uid="ent0017" id="entity_handle_root_refine"><rect fill="#FFFFFF" height="36.0986" rx="2.5" ry="2.5" style="stroke:#000000;stroke-width:1;" width="136.7578" x="1712.11" y="301.5479"/><text fill="#000000" font-family="Arial" font-size="14" lengthAdjust="spacing" textLength="116.7578" x="1722.11" y="324.6797">handle_root_refine</text></g><!--entity handle_root_discuss--><g class="entity" data-entity="handle_root_discuss" data-source-line="33" data-uid="ent0018" id="entity_handle_root_discuss"><rect fill="#FFFFFF" height="36.0986" rx="2.5" ry="2.5" style="stroke:#000000;stroke-width:1;" width="148.4199" x="1884.28" y="301.5479"/><text fill="#000000" font-family="Arial" font-size="14" lengthAdjust="spacing" textLength="128.4199" x="1894.28" y="324.6797">handle_root_discuss</text></g><!--entity NOTE_ANCHOR--><g class="entity" data-entity="N1" data-source-line="17" data-uid="ent0006" id="entity_N1"><path d="M2108.91,186.5379 L2108.91,211.4866 L2344.0672,211.4866 L2344.0672,196.5379 L2334.0672,186.5379 L2108.91,186.5379" fill="#FFFFCC" style="stroke:#CCCCCC;stroke-width:1;"/><path d="M2334.0672,186.5379 L2334.0672,196.5379 L2344.0672,196.5379 L2334.0672,186.5379" fill="#FFFFCC" style="stroke:#CCCCCC;stroke-width:1;"/><text fill="#000000" font-family="Arial" font-size="13" font-weight="bold" lengthAdjust="spacing" textLength="214.1572" x="2114.91" y="203.7317">Combined CLI + Code view (LOD2)</text></g><!--link NOTE_ANCHOR to GMN3--><!--SRC=[bLJ1Zjem5BpdArxPIvlL4YqhSMXFD2HTf03LbXjQ8MC_4el4Zcm7XAhzaPxwRVsIscwWeOLLQ-MGU9wVP-QDyiOKM27K9U4Yq5ikQg981Mj2jxcIZM2nBAM2czIlJWN33MbAaqfXPiHs62bEoWu-KahksyCFVdN0cJJuKIg6ggs8_VgpuX89MnKORag4U3g-Kr8Qk8DOLcika46SJMvZoH3UPlFnu5qGD1efqGWz8cWXLG-8XjbyaQn6i_Xn_XGKt1PtDuIz61JF2mDoSuO0XE4NsIYAxyCGbaicgOxsKcqtfTphQ3U8k8fenQ8ZiJujUVz0gXB-lVJvEK31mB48Vd5nXE_zvLsLS0jUvuxZlXKRXfsZjVMEv5Qtgyt80QtqcsIOFgGfVBNTJhvK1BLH4hoJEPhULL2_1YhSM6hNSSOrRRH-fNiXzxtWfSlSwJjIJzDac0mzTONK496NlWCNlVEjWWXMuihrNBMChw3vg-XlGLSAJefUsa6LkBcOcMHdCoPyQjptXUJSHrHMbUszqetQ48ek6_wMViMWysxJyTyTwiO6yEphxunTollHSw_XnxVla27BKS4Z5qOVjSpN6jNEHhBV3jFo43jKcXWkXOxit9rzKXtisDrKkJXniRyGhC49-02x0UWQATYczbak-_t8FfFfvooP9hF5Q36PprPPClwKF3bBBWBUdEDHXRLKHaUb9xsYrXhEY47jZhTAujDcrv6V]--></g></svg>