<svg xmlns="http://www.w3.org/2000/svg" xmlns:xlink="http://www.w3.org/1999/xlink" contentStyleType="text/css" data-diagram-type="DESCRIPTION" height="368px" preserveAspectRatio="none" style="width:2473px;height:368px;background:#FFFFFF;" version="1.1" viewBox="0 0 2473 368" width="2473px" zoomAndPan="magnify"><title>CMD-understand - Combined CLI+Code (LOD2)</title><defs/><g><g class="title" data-source-line="8"><text fill="#000000" font-family="Arial" font-size="22" font-weight="bold" lengthAdjust="spacing" textLength="493.1523" x="985.6574" y="35.6357">CMD-understand - Combined CLI+Code (LOD2)</text></g><!--cluster CLI Layer--><g class="cluster" data-entity="CLI Layer" data-source-line="20" data-uid="ent0007" id="cluster_CLI Layer"><path d="M1295.39,148.0179 L1360.1898,148.0179 A3.75,3.75 0 0 1 1362.6898,150.5179 L1369.6898,170.1165 L1681.39,170.1165 A2.5,2.5 0 0 1 1683.89,172.6165 L1683.89,359.1479 A2.5,2.5 0 0 1 1681.39,361.6479 L1295.39,361.6479 A2.5,2.5 0 0 1 1292.89,359.1479 L1292.89,150.5179 A2.5,2.5 0 0 1 1295.39,148.0179" fill="#E6F3FF" style="stroke:#000000;stroke-width:1;"/><line style="stroke:#000000;stroke-width:1;" x1="1292.89" x2="1369.6898" y1="170.1165" y2="170.1165"/><text fill="#000000" font-family="Arial" font-size="14" font-weight="bold" lengthAdjust="spacing" textLength="63.7998" x="1296.89" y="163.1497">CLI Layer</text></g><!--cluster Code Layer--><g class="cluster" data-entity="Code Layer" data-source-line="27" data-uid="ent0012" id="cluster_Code Layer"><path d="M1710.39,147.7879 L1787.638,147.7879 A3.75,3.75 0 0 1 1790.138,150.2879 L1797.138,169.8865 L2209.39,169.8865 A2.5,2.5 0 0 1 2211.89,172.3865 L2211.89,355.9779 A2.5,2.5 0 0 1 2209.39,358.4779 L1710.39,358.4779 A2.5,2.5 0 0 1 1707.89,355.9779 L1707.89,150.2879 A2.5,2.5 0 0 1 1710.39,147.7879" fill="#FFE6E6" style="stroke:#000000;stroke-width:1;"/><line style="stroke:#000000;stroke-width:1;" x1="1707.89" x2="1797.138" y1="169.8865" y2="169.8865"/><text fill="#000000" font-family="Arial" font-size="14" font-weight="bold" lengthAdjust="spacing" textLength="76.248" x="1711.89" y="162.9197">Code Layer</text></g><!--entity maestro understand--><g class="entity" data-entity="maestro understand" data-source-line="21" data-uid="ent0008" id="entity_maestro understand"><ellipse cx="1402.8942" cy="200.8347" fill="#FFFFFF" rx="77.1342" ry="17.8268" style="stroke:#000000;stroke-width:1;"/><text fill="#000000" font-family="Arial" font-size="14" lengthAdjust="spacing" textLength="124.5166" x="1340.6359" y="205.384">maestro understand</text></g><!--entity maestro u--><g class="entity" data-entity="maestro u" data-source-line="22" data-uid="ent0009" id="entity_maestro u"><ellipse cx="1561.886" cy="200.8413" fill="#FFFFFF" rx="47.016" ry="14.3835" style="stroke:#000000;stroke-width:1;"/><text fill="#000000" font-family="Arial" font-size="14" lengthAdjust="spacing" textLength="62.248" x="1530.762" y="205.3906">maestro u</text></g><!--entity maestro understand dump--><g class="entity" data-entity="maestro understand dump" data-source-line="23" data-uid="ent0010" id="entity_maestro understand dump"><ellipse cx="1402.8871" cy="324.4253" fill="#FFFFFF" rx="94.0871" ry="21.2174" style="stroke:#000000;stroke-width:1;"/><text fill="#000000" font-family="Arial" font-size="14" lengthAdjust="spacing" textLength="163.4268" x="1321.1737" y="328.9746">maestro understand dump</text></g><!--entity maestro u dump--><g class="entity" data-entity="maestro u dump" data-source-line="24" data-uid="ent0011" id="entity_maestro u dump"><ellipse cx="1599.8877" cy="324.4254" fill="#FFFFFF" rx="67.6377" ry="15.9275" style="stroke:#000000;stroke-width:1;"/><text fill="#000000" font-family="Arial" font-size="14" lengthAdjust="spacing" textLength="101.1582" x="1549.3086" y="328.9747">maestro u dump</text></g><!--entity main--><g class="entity" data-entity="main" data-source-line="28" data-uid="ent0013" id="entity_main"><rect fill="#FFFFFF" height="36.0986" rx="2.5" ry="2.5" style="stroke:#000000;stroke-width:1;" width="50.3447" x="1723.72" y="182.7879"/><text fill="#000000" font-family="Arial" font-size="14" lengthAdjust="spacing" textLength="30.3447" x="1733.72" y="205.9197">main</text></g><!--entity add_understand_parser--><g class="entity" data-entity="add_understand_parser" data-source-line="29" data-uid="ent0014" id="entity_add_understand_parser"><rect fill="#FFFFFF" height="36.0986" rx="2.5" ry="2.5" style="stroke:#000000;stroke-width:1;" width="168.668" x="1809.56" y="182.7879"/><text fill="#000000" font-family="Arial" font-size="14" lengthAdjust="spacing" textLength="148.668" x="1819.56" y="205.9197">add_understand_parser</text></g><!--entity handle_understand_dump--><g class="entity" data-entity="handle_understand_dump" data-source-line="30" data-uid="ent0015" id="entity_handle_understand_dump"><rect fill="#FFFFFF" height="36.0986" rx="2.5" ry="2.5" style="stroke:#000000;stroke-width:1;" width="182.6885" x="2013.55" y="182.7879"/><text fill="#000000" font-family="Arial" font-size="14" lengthAdjust="spacing" textLength="162.6885" x="2023.55" y="205.9197">handle_understand_dump</text></g><!--entity ProjectIntrospector--><g class="entity" data-entity="ProjectIntrospector" data-source-line="31" data-uid="ent0016" id="entity_ProjectIntrospector"><rect fill="#FFFFFF" height="36.0986" rx="2.5" ry="2.5" style="stroke:#000000;stroke-width:1;" width="137.4961" x="1724.14" y="306.3779"/><text fill="#000000" font-family="Arial" font-size="14" lengthAdjust="spacing" textLength="117.4961" x="1734.14" y="329.5097">ProjectIntrospector</text></g><!--entity MarkdownRenderer--><g class="entity" data-entity="MarkdownRenderer" data-source-line="32" data-uid="ent0017" id="entity_MarkdownRenderer"><rect fill="#FFFFFF" height="36.0986" rx="2.5" ry="2.5" style="stroke:#000000;stroke-width:1;" width="142.9443" x="1896.42" y="306.3779"/><text fill="#000000" font-family="Arial" font-size="14" lengthAdjust="spacing" textLength="122.9443" x="1906.42" y="329.5097">MarkdownRenderer</text></g><!--entity NOTE_ANCHOR--><g class="entity" data-entity="N1" data-source-line="17" data-uid="ent0006" id="entity_N1"><path d="M2231.31,188.3679 L2231.31,213.3166 L2466.4672,213.3166 L2466.4672,198.3679 L2456.4672,188.3679 L2231.31,188.3679" fill="#FFFFCC" style="stroke:#CCCCCC;stroke-width:1;"/><path d="M2456.4672,188.3679 L2456.4672,198.3679 L2466.4672,198.3679 L2456.4672,188.3679" fill="#FFFFCC" style="stroke:#CCCCCC;stroke-width:1;"/><text fill="#000000" font-family="Arial" font-size="13" font-weight="bold" lengthAdjust="spacing" textLength="214.1572" x="2237.31" y="205.5617">Combined CLI + Code view (LOD2)</text></g><!--link NOTE_ANCHOR to GMN3--><!--SRC=[bLBBRjim4BphAxREfNKG2N407zgJAqkD0Jy2rpSZ46XnRR6cI86aR0H5VgIdVbk_f4lLJcJ7BL121t5tTdTsEEzSWIL29PbGWTqALJ73IbYnVBinkbOyrb8Rk4gRqq9mNBDQkbGhDsNKOM04awtym1YzFnJVDQULd6g7dxNXQ0w8k3ddY4ia21KuuIH2F1dUK0wDTKnnk85ObokXa4Cy7bt7cYEy7y-6lGz1K5lCcKNeC9KNsdI0MPZE5aascCRtitbG20At0uh6Wn6Rme5UdsG0kjslkZOvVknsORdaEhVHNfljMkgzZNQzI9WeBtbqIY_CfGYVM2dXVmiU7mEazJoZu0ylJ_ws8TBU6AwXsNadS7zOlDjjbLQa9jkG1XuxPaz8Cbmb_VGkJU4xTNlHg6HedT7mogLpCTtvTn7mkgmkOmwfvpOfJ_t8AasJVj9lM1dCgTb6DkL2TKv3ZFFiTM96rh7Ku1HJK4PY6tOarW8z6FsDRYD5_6n5V_gypOIPBTTxDKVVo4zvFZo7nFL5boGxSfLgVEBlv9NTRPJhilGSR6tMB4V_y2rgOSdXJOGCy58kb4EZc8muOdLMdFbOMDNaiRybtdhfaiUF3z1iyUl7JnWZtw21UvfkZzlCLYJrZgmtP8uTnO6AHWhh_DeWr1aFy3p0s_uJx7eaRgN1cTeLtYBKbBxbCWmZ-aQJXt4oIQQBmM8qcsRZPFWbcNjrBYOQXOwblgrnDf8DwIodmO8pXzQN7pQ9Nu9jHNu3]--></g></svg>