<svg xmlns="http://www.w3.org/2000/svg" xmlns:xlink="http://www.w3.org/1999/xlink" contentStyleType="text/css" data-diagram-type="DESCRIPTION" height="752px" preserveAspectRatio="none" style="width:2192px;height:752px;background:#FFFFFF;" version="1.1" viewBox="0 0 2192 752" width="2192px" zoomAndPan="magnify"><title>CMD-plan - plan deep internal flow (observed) (LOD2: Code Detail)</title><defs/><g><g class="title" data-source-line="8"><text fill="#000000" font-family="Arial" font-size="22" font-weight="bold" lengthAdjust="spacing" textLength="693.043" x="745.2639" y="35.6357">CMD-plan - plan deep internal flow (observed) (LOD2: Code Detail)</text></g><!--entity NOTE_ANCHOR--><!--entity main_entry--><g class="entity" data-entity="main_entry" data-source-line="16" data-uid="ent0006" id="entity_main_entry"><rect fill="#E6F3FF" height="52.1973" rx="2.5" ry="2.5" style="stroke:#000000;stroke-width:1;" width="123.4824" x="1282.91" y="179.7879"/><text fill="#000000" font-family="Arial" font-size="14" lengthAdjust="spacing" textLength="69.2549" x="1292.91" y="202.9197">main_entry</text><text fill="#000000" font-family="Arial" font-size="14" lengthAdjust="spacing" textLength="103.4824" x="1292.91" y="219.0183">maestro/main.py</text></g><!--entity plan_command_handler--><g class="entity" data-entity="plan_command_handler" data-source-line="17" data-uid="ent0007" id="entity_plan_command_handler"><rect fill="#E6F3FF" height="52.1973" rx="2.5" ry="2.5" style="stroke:#000000;stroke-width:1;" width="191.9648" x="1248.67" y="353.1079"/><text fill="#000000" font-family="Arial" font-size="14" lengthAdjust="spacing" textLength="150.2129" x="1258.67" y="376.2397">plan_command_handler</text><text fill="#000000" font-family="Arial" font-size="14" lengthAdjust="spacing" textLength="171.9648" x="1258.67" y="392.3383">maestro/commands/plan.py</text></g><!--entity plan_store--><g class="entity" data-entity="plan_store" data-source-line="18" data-uid="ent0008" id="entity_plan_store"><rect fill="#FFFFFF" height="46.0986" rx="2.5" ry="2.5" style="stroke:#000000;stroke-width:1;" width="105.3789" x="1092.96" y="468.3579"/><rect fill="#FFFFFF" height="10" style="stroke:#000000;stroke-width:1;" width="15" x="1178.3389" y="473.3579"/><rect fill="#FFFFFF" height="2" style="stroke:#000000;stroke-width:1;" width="4" x="1176.3389" y="475.3579"/><rect fill="#FFFFFF" height="2" style="stroke:#000000;stroke-width:1;" width="4" x="1176.3389" y="479.3579"/><text fill="#000000" font-family="Arial" font-size="14" lengthAdjust="spacing" textLength="65.3789" x="1107.96" y="501.4897">plan_store</text></g><!--entity plan_ops_handler--><g class="entity" data-entity="plan_ops_handler" data-source-line="19" data-uid="ent0009" id="entity_plan_ops_handler"><rect fill="#E6F3FF" height="52.1973" rx="2.5" ry="2.5" style="stroke:#000000;stroke-width:1;" width="222.3232" x="1233.49" y="465.3079"/><text fill="#000000" font-family="Arial" font-size="14" lengthAdjust="spacing" textLength="111.3164" x="1243.49" y="488.4397">plan_ops_handler</text><text fill="#000000" font-family="Arial" font-size="14" lengthAdjust="spacing" textLength="202.3232" x="1243.49" y="504.5383">maestro/plan_ops/commands.py</text></g><!--entity plan_ops_decoder--><g class="entity" data-entity="plan_ops_decoder" data-source-line="20" data-uid="ent0010" id="entity_plan_ops_decoder"><rect fill="#E6F3FF" height="52.1973" rx="2.5" ry="2.5" style="stroke:#000000;stroke-width:1;" width="204.4473" x="1240.43" y="577.4979"/><text fill="#000000" font-family="Arial" font-size="14" lengthAdjust="spacing" textLength="115.2061" x="1250.43" y="600.6297">plan_ops_decoder</text><text fill="#000000" font-family="Arial" font-size="14" lengthAdjust="spacing" textLength="184.4473" x="1250.43" y="616.7283">maestro/plan_ops/decoder.py</text></g><!--entity plan_ops_executor--><g class="entity" data-entity="plan_ops_executor" data-source-line="21" data-uid="ent0011" id="entity_plan_ops_executor"><rect fill="#FFFFFF" height="46.0986" rx="2.5" ry="2.5" style="stroke:#000000;stroke-width:1;" width="158.3096" x="1263.5" y="689.6979"/><rect fill="#FFFFFF" height="10" style="stroke:#000000;stroke-width:1;" width="15" x="1401.8096" y="694.6979"/><rect fill="#FFFFFF" height="2" style="stroke:#000000;stroke-width:1;" width="4" x="1399.8096" y="696.6979"/><rect fill="#FFFFFF" height="2" style="stroke:#000000;stroke-width:1;" width="4" x="1399.8096" y="700.6979"/><text fill="#000000" font-family="Arial" font-size="14" lengthAdjust="spacing" textLength="118.3096" x="1278.5" y="722.8297">plan_ops_executor</text></g><!--entity plan_explore_handler--><g class="entity" data-entity="plan_explore_handler" data-source-line="22" data-uid="ent0012" id="entity_plan_explore_handler"><rect fill="#E6F3FF" height="52.1973" rx="2.5" ry="2.5" style="stroke:#000000;stroke-width:1;" width="191.9648" x="1641.67" y="465.3079"/><text fill="#000000" font-family="Arial" font-size="14" lengthAdjust="spacing" textLength="134.6611" x="1651.67" y="488.4397">plan_explore_handler</text><text fill="#000000" font-family="Arial" font-size="14" lengthAdjust="spacing" textLength="171.9648" x="1651.67" y="504.5383">maestro/commands/plan.py</text></g><!--entity explore_session--><g class="entity" data-entity="explore_session" data-source-line="23" data-uid="ent0013" id="entity_explore_session"><rect fill="#FFFFFF" height="46.0986" rx="2.5" ry="2.5" style="stroke:#000000;stroke-width:1;" width="141.1719" x="1480.07" y="580.5479"/><rect fill="#FFFFFF" height="10" style="stroke:#000000;stroke-width:1;" width="15" x="1601.2419" y="585.5479"/><rect fill="#FFFFFF" height="2" style="stroke:#000000;stroke-width:1;" width="4" x="1599.2419" y="587.5479"/><rect fill="#FFFFFF" height="2" style="stroke:#000000;stroke-width:1;" width="4" x="1599.2419" y="591.5479"/><text fill="#000000" font-family="Arial" font-size="14" lengthAdjust="spacing" textLength="101.1719" x="1495.07" y="613.6797">explore_session</text></g><!--entity ai_engine_manager--><g class="entity" data-entity="ai_engine_manager" data-source-line="24" data-uid="ent0014" id="entity_ai_engine_manager"><rect fill="#FFFFFF" height="46.0986" rx="2.5" ry="2.5" style="stroke:#000000;stroke-width:1;" width="163.7646" x="1655.77" y="580.5479"/><rect fill="#FFFFFF" height="10" style="stroke:#000000;stroke-width:1;" width="15" x="1799.5346" y="585.5479"/><rect fill="#FFFFFF" height="2" style="stroke:#000000;stroke-width:1;" width="4" x="1797.5346" y="587.5479"/><rect fill="#FFFFFF" height="2" style="stroke:#000000;stroke-width:1;" width="4" x="1797.5346" y="591.5479"/><text fill="#000000" font-family="Arial" font-size="14" lengthAdjust="spacing" textLength="123.7646" x="1670.77" y="613.6797">ai_engine_manager</text></g><!--entity project_ops_executor--><g class="entity" data-entity="project_ops_executor" data-source-line="25" data-uid="ent0015" id="entity_project_ops_executor"><rect fill="#FFFFFF" height="46.0986" rx="2.5" ry="2.5" style="stroke:#000000;stroke-width:1;" width="173.8613" x="1854.72" y="580.5479"/><rect fill="#FFFFFF" height="10" style="stroke:#000000;stroke-width:1;" width="15" x="2008.5813" y="585.5479"/><rect fill="#FFFFFF" height="2" style="stroke:#000000;stroke-width:1;" width="4" x="2006.5813" y="587.5479"/><rect fill="#FFFFFF" height="2" style="stroke:#000000;stroke-width:1;" width="4" x="2006.5813" y="591.5479"/><text fill="#000000" font-family="Arial" font-size="14" lengthAdjust="spacing" textLength="133.8613" x="1869.72" y="613.6797">project_ops_executor</text></g><!--entity docs_plans_md--><g class="entity" data-entity="docs_plans_md" data-source-line="26" data-uid="ent0016" id="entity_docs_plans_md"><path d="M1086.62,591.0479 C1086.62,581.0479 1145.6508,581.0479 1145.6508,581.0479 C1145.6508,581.0479 1204.6815,581.0479 1204.6815,591.0479 L1204.6815,616.1465 C1204.6815,626.1465 1145.6508,626.1465 1145.6508,626.1465 C1145.6508,626.1465 1086.62,626.1465 1086.62,616.1465 L1086.62,591.0479" fill="#FFE6E6" style="stroke:#000000;stroke-width:1;"/><path d="M1086.62,591.0479 C1086.62,601.0479 1145.6508,601.0479 1145.6508,601.0479 C1145.6508,601.0479 1204.6815,601.0479 1204.6815,591.0479" fill="none" style="stroke:#000000;stroke-width:1;"/><text fill="#000000" font-family="Arial" font-size="14" lengthAdjust="spacing" textLength="98.0615" x="1096.62" y="618.1797">docs_plans_md</text></g><!--entity docs_todo_md--><g class="entity" data-entity="docs_todo_md" data-source-line="27" data-uid="ent0017" id="entity_docs_todo_md"><path d="M2063.73,591.0479 C2063.73,581.0479 2119.6504,581.0479 2119.6504,581.0479 C2119.6504,581.0479 2175.5708,581.0479 2175.5708,591.0479 L2175.5708,616.1465 C2175.5708,626.1465 2119.6504,626.1465 2119.6504,626.1465 C2119.6504,626.1465 2063.73,626.1465 2063.73,616.1465 L2063.73,591.0479" fill="#FFE6E6" style="stroke:#000000;stroke-width:1;"/><path d="M2063.73,591.0479 C2063.73,601.0479 2119.6504,601.0479 2119.6504,601.0479 C2119.6504,601.0479 2175.5708,601.0479 2175.5708,591.0479" fill="none" style="stroke:#000000;stroke-width:1;"/><text fill="#000000" font-family="Arial" font-size="14" lengthAdjust="spacing" textLength="91.8408" x="2073.73" y="618.1797">docs_todo_md</text></g><!--entity explore_session_json--><g class="entity" data-entity="explore_session_json" data-source-line="28" data-uid="ent0018" id="entity_explore_session_json"><path d="M1473.33,700.1979 C1473.33,690.1979 1550.6503,690.1979 1550.6503,690.1979 C1550.6503,690.1979 1627.9706,690.1979 1627.9706,700.1979 L1627.9706,725.2965 C1627.9706,735.2965 1550.6503,735.2965 1550.6503,735.2965 C1550.6503,735.2965 1473.33,735.2965 1473.33,725.2965 L1473.33,700.1979" fill="#FFE6E6" style="stroke:#000000;stroke-width:1;"/><path d="M1473.33,700.1979 C1473.33,710.1979 1550.6503,710.1979 1550.6503,710.1979 C1550.6503,710.1979 1627.9706,710.1979 1627.9706,700.1979" fill="none" style="stroke:#000000;stroke-width:1;"/><text fill="#000000" font-family="Arial" font-size="14" lengthAdjust="spacing" textLength="134.6406" x="1483.33" y="727.3297">explore_session_json</text></g><!--link NOTE_ANCHOR to GMN3--><!--link main_entry to plan_command_handler--><g class="link" data-entity-1="main_entry" data-entity-2="plan_command_handler" data-source-line="29" data-uid="lnk19" id="link_main_entry_plan_command_handler"><path d="M1344.65,232.1679 C1344.65,264.5579 1344.65,314.3879 1344.65,346.8279" fill="none" id="main_entry-to-plan_command_handler" style="stroke:#333333;stroke-width:1;"/><polygon fill="#333333" points="1344.65,352.8279,1348.65,343.8279,1344.65,347.8279,1340.65,343.8279,1344.65,352.8279" style="stroke:#333333;stroke-width:1;"/></g><!--link plan_command_handler to plan_store--><g class="link" data-entity-1="plan_command_handler" data-entity-2="plan_store" data-source-line="30" data-uid="lnk20" id="link_plan_command_handler_plan_store"><path d="M1298.5,405.7679 C1264.51,424.5879 1223.989,447.0214 1191.409,465.0614" fill="none" id="plan_command_handler-to-plan_store" style="stroke:#333333;stroke-width:1;"/><polygon fill="#333333" points="1186.16,467.9679,1195.9712,467.1075,1190.5342,465.5458,1192.0959,460.1088,1186.16,467.9679" style="stroke:#333333;stroke-width:1;"/></g><!--link plan_command_handler to plan_ops_handler--><g class="link" data-entity-1="plan_command_handler" data-entity-2="plan_ops_handler" data-source-line="31" data-uid="lnk21" id="link_plan_command_handler_plan_ops_handler"><path d="M1344.65,405.7679 C1344.65,423.5679 1344.65,441.2079 1344.65,458.9879" fill="none" id="plan_command_handler-to-plan_ops_handler" style="stroke:#333333;stroke-width:1;"/><polygon fill="#333333" points="1344.65,464.9879,1348.65,455.9879,1344.65,459.9879,1340.65,455.9879,1344.65,464.9879" style="stroke:#333333;stroke-width:1;"/></g><!--link plan_ops_handler to plan_ops_decoder--><g class="link" data-entity-1="plan_ops_handler" data-entity-2="plan_ops_decoder" data-source-line="32" data-uid="lnk22" id="link_plan_ops_handler_plan_ops_decoder"><path d="M1344.19,517.9579 C1343.87,535.7679 1343.5514,553.4089 1343.2214,571.1789" fill="none" id="plan_ops_handler-to-plan_ops_decoder" style="stroke:#333333;stroke-width:1;"/><polygon fill="#333333" points="1343.11,577.1779,1347.2764,568.2537,1343.2028,572.1787,1339.2778,568.1051,1343.11,577.1779" style="stroke:#333333;stroke-width:1;"/></g><!--link plan_ops_decoder to plan_ops_executor--><g class="link" data-entity-1="plan_ops_decoder" data-entity-2="plan_ops_executor" data-source-line="33" data-uid="lnk23" id="link_plan_ops_decoder_plan_ops_executor"><path d="M1342.65,629.9979 C1342.65,648.0679 1342.65,666.1179 1342.65,683.4479" fill="none" id="plan_ops_decoder-to-plan_ops_executor" style="stroke:#333333;stroke-width:1;"/><polygon fill="#333333" points="1342.65,689.4479,1346.65,680.4479,1342.65,684.4479,1338.65,680.4479,1342.65,689.4479" style="stroke:#333333;stroke-width:1;"/></g><!--link plan_command_handler to plan_explore_handler--><g class="link" data-entity-1="plan_command_handler" data-entity-2="plan_explore_handler" data-source-line="34" data-uid="lnk24" id="link_plan_command_handler_plan_explore_handler"><path d="M1435.8,405.7679 C1499.18,423.5379 1577.5327,445.5082 1640.8827,463.2682" fill="none" id="plan_command_handler-to-plan_explore_handler" style="stroke:#333333;stroke-width:1;"/><polygon fill="#333333" points="1646.66,464.8879,1639.0739,458.6069,1641.8456,463.5382,1636.9143,466.3099,1646.66,464.8879" style="stroke:#333333;stroke-width:1;"/></g><!--link plan_explore_handler to explore_session--><g class="link" data-entity-1="plan_explore_handler" data-entity-2="explore_session" data-source-line="35" data-uid="lnk25" id="link_plan_explore_handler_explore_session"><path d="M1694.28,517.9579 C1662.34,536.7779 1624.4991,559.0815 1593.8891,577.1215" fill="none" id="plan_explore_handler-to-explore_session" style="stroke:#333333;stroke-width:1;"/><polygon fill="#333333" points="1588.72,580.1679,1598.5046,579.0443,1593.0276,577.6292,1594.4427,572.1522,1588.72,580.1679" style="stroke:#333333;stroke-width:1;"/></g><!--link plan_explore_handler to ai_engine_manager--><g class="link" data-entity-1="plan_explore_handler" data-entity-2="ai_engine_manager" data-source-line="36" data-uid="lnk26" id="link_plan_explore_handler_ai_engine_manager"><path d="M1737.65,517.9579 C1737.65,536.7779 1737.65,556.1279 1737.65,574.1679" fill="none" id="plan_explore_handler-to-ai_engine_manager" style="stroke:#333333;stroke-width:1;"/><polygon fill="#333333" points="1737.65,580.1679,1741.65,571.1679,1737.65,575.1679,1733.65,571.1679,1737.65,580.1679" style="stroke:#333333;stroke-width:1;"/></g><!--link plan_explore_handler to project_ops_executor--><g class="link" data-entity-1="plan_explore_handler" data-entity-2="project_ops_executor" data-source-line="37" data-uid="lnk27" id="link_plan_explore_handler_project_ops_executor"><path d="M1784.97,517.9579 C1819.81,536.7779 1861.4512,559.2758 1894.8412,577.3158" fill="none" id="plan_explore_handler-to-project_ops_executor" style="stroke:#333333;stroke-width:1;"/><polygon fill="#333333" points="1900.12,580.1679,1894.1031,572.3706,1895.721,577.7911,1890.3004,579.409,1900.12,580.1679" style="stroke:#333333;stroke-width:1;"/></g><!--link plan_store to docs_plans_md--><g class="link" data-entity-1="plan_store" data-entity-2="docs_plans_md" data-source-line="38" data-uid="lnk28" id="link_plan_store_docs_plans_md"><path d="M1145.65,514.7079 C1145.65,533.9479 1145.65,555.5879 1145.65,574.7079" fill="none" id="plan_store-to-docs_plans_md" style="stroke:#333333;stroke-width:1;"/><polygon fill="#333333" points="1145.65,580.7079,1149.65,571.7079,1145.65,575.7079,1141.65,571.7079,1145.65,580.7079" style="stroke:#333333;stroke-width:1;"/></g><!--link plan_explore_handler to docs_todo_md--><g class="link" data-entity-1="plan_explore_handler" data-entity-2="docs_todo_md" data-source-line="39" data-uid="lnk29" id="link_plan_explore_handler_docs_todo_md"><path d="M1833.79,517.4479 C1894.75,533.6979 1975.13,555.8179 2045.65,577.4979 C2051.49,579.2979 2051.8557,579.3774 2057.8957,581.3474" fill="none" id="plan_explore_handler-to-docs_todo_md" style="stroke:#333333;stroke-width:1;"/><polygon fill="#333333" points="2063.6,583.2079,2056.2839,576.6143,2058.8465,581.6574,2053.8033,584.2199,2063.6,583.2079" style="stroke:#333333;stroke-width:1;"/></g><!--link explore_session to explore_session_json--><g class="link" data-entity-1="explore_session" data-entity-2="explore_session_json" data-source-line="40" data-uid="lnk30" id="link_explore_session_explore_session_json"><path d="M1550.65,627.0579 C1550.65,645.5979 1550.65,665.7279 1550.65,684.0479" fill="none" id="explore_session-to-explore_session_json" style="stroke:#333333;stroke-width:1;"/><polygon fill="#333333" points="1550.65,690.0479,1554.65,681.0479,1550.65,685.0479,1546.65,681.0479,1550.65,690.0479" style="stroke:#333333;stroke-width:1;"/></g><!--SRC=[dLRDRjD04BxxAOPoWKgDHP5w00af92ujQf8g3QU2hAqzJPRQkzRk9g6lmebduqcOtQpZtz1252NspFVDpCv-7kyBiy8SeSWO5u5-uA9WYkLmnvA7fP9haOva9XMyF7UV6YB5UxREpBaKPieemb1nbjNyGwNarfFVka_DEPK6FqgLelA8aVkq4Nr542emt6G8eyduXEeMS0BkBqKiW0k3Ih0CxZEvXLVoJgFQOFeQNbtDngVlO2HJX34QnhFNGR3Mc32DSCH4ifBg29Y6wMmHnSFfw68s3rQSq7M3eB90yUNAWBnlU02EZs_aMYNuxlWORczJcUXmAzM3BKI7czEGgp39qx0iUv1GAOD7bcVm3zXltm8KATWwWa1XOfXOKY-ESjg_68LHZrz5pb0R9KDh6nIFRbML7rv6P-TlQIzhR9iZJcIUCv76A_h9K5Lnl4E7hXGVi8-o3qtsGWfAvqDh8nLMD7VRoIyBtSrTUlP5DFBNA0UNPJ4fsWRsXVMUJbHlFxWYYy4VcAoDbqt7sYa4VnIaOloN_hOeVTMK48rQSoaSjsMhmnad5Iovm9XIiYNkYkzO6-jLyZijfMV9FOuWPORTkMVAgZgsoz1ndZf2ms8Vv-WiEcipZ4nbW-0DFVZMEkFlkhy1ph7drnw5avCFlK8EUjMzH-_q-tTCJPf1HwiDb9TQqD5U0xLlyD_JjXGJzCh8ejiQEGZiQkCWj5SGLSSSfg61mw7gEn-qQkshtsrni9lF6TxtZkTeG-DSk05jxsb8Rzw4vGiZjAyFEtHTSR6z6nHh6ivT4ytW7Rqrjmyzp-3_d-AvhfHu_Kn2UpX2xVhP_6eAGdNvR7QvrPPUktuMtszZwBVHXgWkduh0UEWrQNdLvPEPAvt-R_5s2D6DUaZbLiHqPj5b4MrJuurzyFomdqvMgBz__e8hJ6anS47wrALWP_uq0sFAFl6Pe42bkJPMsNJysUjrTnwoLR-7pIaeB2GOjJOhe5EFXiytiwaBUcsnzlcavkrSRiax3TBOtQvuie8Dbnapv9n7rxDuCV-ok8ZFP_F9S15VtiGs6ENUC3e4Kb3wtjuE1Y5zBoVNLz4acYw6YylPDBwAnf-YkGtRwt1TBwcsOcLqcBbEn0c9cgUs1altxHdjZVKs_m40]--></g></svg>