<svg xmlns="http://www.w3.org/2000/svg" xmlns:xlink="http://www.w3.org/1999/xlink" contentStyleType="text/css" data-diagram-type="DESCRIPTION" height="681px" preserveAspectRatio="none" style="width:2896px;height:681px;background:#FFFFFF;" version="1.1" viewBox="0 0 2896 681" width="2896px" zoomAndPan="magnify"><title>CMD-ai - ai deep internal flow (observed) (LOD1: Code Functions)</title><defs/><g><g class="title" data-source-line="8"><text fill="#000000" font-family="Arial" font-size="22" font-weight="bold" lengthAdjust="spacing" textLength="684.4814" x="1101.6177" y="35.6357">CMD-ai - ai deep internal flow (observed) (LOD1: Code Functions)</text></g><!--entity NOTE_ANCHOR--><!--entity main_entry--><g class="entity" data-entity="main_entry" data-source-line="16" data-uid="ent0006" id="entity_main_entry"><rect fill="#FFFFFF" height="52.1973" rx="2.5" ry="2.5" style="stroke:#000000;stroke-width:1;" width="132.8066" x="2289.46" y="176.2379"/><text fill="#000000" font-family="Arial" font-size="14" lengthAdjust="spacing" textLength="69.2549" x="2299.46" y="199.3697">main_entry</text><text fill="#000000" font-family="Arial" font-size="14" lengthAdjust="spacing" textLength="112.8066" x="2299.46" y="215.4683">(maestro/main.py)</text></g><!--entity handle_ai_sync--><g class="entity" data-entity="handle_ai_sync" data-source-line="17" data-uid="ent0007" id="entity_handle_ai_sync"><rect fill="#FFFFFF" height="52.1973" rx="2.5" ry="2.5" style="stroke:#000000;stroke-width:1;" width="185.7168" x="992" y="349.5579"/><text fill="#000000" font-family="Arial" font-size="14" lengthAdjust="spacing" textLength="97.2959" x="1002" y="372.6897">handle_ai_sync</text><text fill="#000000" font-family="Arial" font-size="14" lengthAdjust="spacing" textLength="165.7168" x="1002" y="388.7883">(maestro/commands/ai.py)</text></g><!--entity handle_ai_qwen--><g class="entity" data-entity="handle_ai_qwen" data-source-line="18" data-uid="ent0008" id="entity_handle_ai_qwen"><rect fill="#FFFFFF" height="52.1973" rx="2.5" ry="2.5" style="stroke:#000000;stroke-width:1;" width="185.7168" x="2042" y="349.5579"/><text fill="#000000" font-family="Arial" font-size="14" lengthAdjust="spacing" textLength="101.9785" x="2052" y="372.6897">handle_ai_qwen</text><text fill="#000000" font-family="Arial" font-size="14" lengthAdjust="spacing" textLength="165.7168" x="2052" y="388.7883">(maestro/commands/ai.py)</text></g><!--entity handle_ai_gemini--><g class="entity" data-entity="handle_ai_gemini" data-source-line="19" data-uid="ent0009" id="entity_handle_ai_gemini"><rect fill="#FFFFFF" height="52.1973" rx="2.5" ry="2.5" style="stroke:#000000;stroke-width:1;" width="185.7168" x="2263" y="349.5579"/><text fill="#000000" font-family="Arial" font-size="14" lengthAdjust="spacing" textLength="109.751" x="2273" y="372.6897">handle_ai_gemini</text><text fill="#000000" font-family="Arial" font-size="14" lengthAdjust="spacing" textLength="165.7168" x="2273" y="388.7883">(maestro/commands/ai.py)</text></g><!--entity handle_ai_codex--><g class="entity" data-entity="handle_ai_codex" data-source-line="20" data-uid="ent0010" id="entity_handle_ai_codex"><rect fill="#FFFFFF" height="52.1973" rx="2.5" ry="2.5" style="stroke:#000000;stroke-width:1;" width="185.7168" x="2484" y="349.5579"/><text fill="#000000" font-family="Arial" font-size="14" lengthAdjust="spacing" textLength="105.8682" x="2494" y="372.6897">handle_ai_codex</text><text fill="#000000" font-family="Arial" font-size="14" lengthAdjust="spacing" textLength="165.7168" x="2494" y="388.7883">(maestro/commands/ai.py)</text></g><!--entity handle_ai_claude--><g class="entity" data-entity="handle_ai_claude" data-source-line="21" data-uid="ent0011" id="entity_handle_ai_claude"><rect fill="#FFFFFF" height="52.1973" rx="2.5" ry="2.5" style="stroke:#000000;stroke-width:1;" width="185.7168" x="2705" y="349.5579"/><text fill="#000000" font-family="Arial" font-size="14" lengthAdjust="spacing" textLength="109.7646" x="2715" y="372.6897">handle_ai_claude</text><text fill="#000000" font-family="Arial" font-size="14" lengthAdjust="spacing" textLength="165.7168" x="2715" y="388.7883">(maestro/commands/ai.py)</text></g><!--entity ai_sync_watch--><g class="entity" data-entity="ai_sync_watch" data-source-line="22" data-uid="ent0012" id="entity_ai_sync_watch"><rect fill="#FFFFFF" height="52.1973" rx="2.5" ry="2.5" style="stroke:#000000;stroke-width:1;" width="185.7168" x="12" y="474.1979"/><text fill="#000000" font-family="Arial" font-size="14" lengthAdjust="spacing" textLength="91.8271" x="22" y="497.3297">ai_sync_watch</text><text fill="#000000" font-family="Arial" font-size="14" lengthAdjust="spacing" textLength="165.7168" x="22" y="513.4283">(maestro/commands/ai.py)</text></g><!--entity resolve_session--><g class="entity" data-entity="resolve_session" data-source-line="23" data-uid="ent0013" id="entity_resolve_session"><rect fill="#FFFFFF" height="52.1973" rx="2.5" ry="2.5" style="stroke:#000000;stroke-width:1;" width="185.7168" x="233" y="474.1979"/><text fill="#000000" font-family="Arial" font-size="14" lengthAdjust="spacing" textLength="100.3857" x="243" y="497.3297">resolve_session</text><text fill="#000000" font-family="Arial" font-size="14" lengthAdjust="spacing" textLength="165.7168" x="243" y="513.4283">(maestro/commands/ai.py)</text></g><!--entity load_sync_state--><g class="entity" data-entity="load_sync_state" data-source-line="24" data-uid="ent0014" id="entity_load_sync_state"><rect fill="#FFFFFF" height="52.1973" rx="2.5" ry="2.5" style="stroke:#000000;stroke-width:1;" width="179.4961" x="236.11" y="611.2979"/><text fill="#000000" font-family="Arial" font-size="14" lengthAdjust="spacing" textLength="101.1787" x="246.11" y="634.4297">load_sync_state</text><text fill="#000000" font-family="Arial" font-size="14" lengthAdjust="spacing" textLength="159.4961" x="246.11" y="650.5283">(maestro/ai/task_sync.py)</text></g><!--entity find_task_context--><g class="entity" data-entity="find_task_context" data-source-line="25" data-uid="ent0015" id="entity_find_task_context"><rect fill="#FFFFFF" height="52.1973" rx="2.5" ry="2.5" style="stroke:#000000;stroke-width:1;" width="179.4961" x="454.11" y="474.1979"/><text fill="#000000" font-family="Arial" font-size="14" lengthAdjust="spacing" textLength="108.958" x="464.11" y="497.3297">find_task_context</text><text fill="#000000" font-family="Arial" font-size="14" lengthAdjust="spacing" textLength="159.4961" x="464.11" y="513.4283">(maestro/ai/task_sync.py)</text></g><!--entity build_task_queue--><g class="entity" data-entity="build_task_queue" data-source-line="26" data-uid="ent0016" id="entity_build_task_queue"><rect fill="#FFFFFF" height="52.1973" rx="2.5" ry="2.5" style="stroke:#000000;stroke-width:1;" width="179.4961" x="668.11" y="474.1979"/><text fill="#000000" font-family="Arial" font-size="14" lengthAdjust="spacing" textLength="109.7578" x="678.11" y="497.3297">build_task_queue</text><text fill="#000000" font-family="Arial" font-size="14" lengthAdjust="spacing" textLength="159.4961" x="678.11" y="513.4283">(maestro/ai/task_sync.py)</text></g><!--entity select_next_task--><g class="entity" data-entity="select_next_task" data-source-line="27" data-uid="ent0017" id="entity_select_next_task"><rect fill="#FFFFFF" height="52.1973" rx="2.5" ry="2.5" style="stroke:#000000;stroke-width:1;" width="185.7168" x="883" y="474.1979"/><text fill="#000000" font-family="Arial" font-size="14" lengthAdjust="spacing" textLength="104.2822" x="893" y="497.3297">select_next_task</text><text fill="#000000" font-family="Arial" font-size="14" lengthAdjust="spacing" textLength="165.7168" x="893" y="513.4283">(maestro/commands/ai.py)</text></g><!--entity build_task_prompt--><g class="entity" data-entity="build_task_prompt" data-source-line="28" data-uid="ent0018" id="entity_build_task_prompt"><rect fill="#FFFFFF" height="52.1973" rx="2.5" ry="2.5" style="stroke:#000000;stroke-width:1;" width="179.4961" x="1104.11" y="474.1979"/><text fill="#000000" font-family="Arial" font-size="14" lengthAdjust="spacing" textLength="114.3994" x="1114.11" y="497.3297">build_task_prompt</text><text fill="#000000" font-family="Arial" font-size="14" lengthAdjust="spacing" textLength="159.4961" x="1114.11" y="513.4283">(maestro/ai/task_sync.py)</text></g><!--entity save_session--><g class="entity" data-entity="save_session" data-source-line="29" data-uid="ent0019" id="entity_save_session"><rect fill="#FFFFFF" height="52.1973" rx="2.5" ry="2.5" style="stroke:#000000;stroke-width:1;" width="187.2754" x="1318.22" y="474.1979"/><text fill="#000000" font-family="Arial" font-size="14" lengthAdjust="spacing" textLength="84.8271" x="1328.22" y="497.3297">save_session</text><text fill="#000000" font-family="Arial" font-size="14" lengthAdjust="spacing" textLength="167.2754" x="1328.22" y="513.4283">(maestro/work_session.py)</text></g><!--entity write_sync_state--><g class="entity" data-entity="write_sync_state" data-source-line="30" data-uid="ent0020" id="entity_write_sync_state"><rect fill="#FFFFFF" height="52.1973" rx="2.5" ry="2.5" style="stroke:#000000;stroke-width:1;" width="179.4961" x="1540.11" y="474.1979"/><text fill="#000000" font-family="Arial" font-size="14" lengthAdjust="spacing" textLength="104.2686" x="1550.11" y="497.3297">write_sync_state</text><text fill="#000000" font-family="Arial" font-size="14" lengthAdjust="spacing" textLength="159.4961" x="1550.11" y="513.4283">(maestro/ai/task_sync.py)</text></g><!--entity write_sync_breadcrumb--><g class="entity" data-entity="write_sync_breadcrumb" data-source-line="45" data-uid="ent0035" id="entity_write_sync_breadcrumb"><ellipse cx="1828.8601" cy="470.7479" fill="#FFFFFF" rx="8" ry="8" style="stroke:#000000;stroke-width:1;"/><path d="M1828.8601,478.7479 L1828.8601,505.7479 M1815.8601,486.7479 L1841.8601,486.7479 M1828.8601,505.7479 L1815.8601,520.7479 M1828.8601,505.7479 L1841.8601,520.7479" fill="none" style="stroke:#000000;stroke-width:1;"/><text fill="#000000" font-family="Arial" font-size="14" lengthAdjust="spacing" textLength="148.6201" x="1754.55" y="535.8797">write_sync_breadcrumb</text></g><!--entity create_breadcrumb--><g class="entity" data-entity="create_breadcrumb" data-source-line="46" data-uid="ent0037" id="entity_create_breadcrumb"><ellipse cx="1828.8597" cy="607.8479" fill="#FFFFFF" rx="8" ry="8" style="stroke:#000000;stroke-width:1;"/><path d="M1828.8597,615.8479 L1828.8597,642.8479 M1815.8597,623.8479 L1841.8597,623.8479 M1828.8597,642.8479 L1815.8597,657.8479 M1828.8597,642.8479 L1841.8597,657.8479" fill="none" style="stroke:#000000;stroke-width:1;"/><text fill="#000000" font-family="Arial" font-size="14" lengthAdjust="spacing" textLength="121.3994" x="1768.16" y="672.9797">create_breadcrumb</text></g><!--entity ai_engine_manager--><g class="entity" data-entity="ai_engine_manager" data-source-line="47" data-uid="ent0039" id="entity_ai_engine_manager"><ellipse cx="1999.8623" cy="470.7479" fill="#FFFFFF" rx="8" ry="8" style="stroke:#000000;stroke-width:1;"/><path d="M1999.8623,478.7479 L1999.8623,505.7479 M1986.8623,486.7479 L2012.8623,486.7479 M1999.8623,505.7479 L1986.8623,520.7479 M1999.8623,505.7479 L2012.8623,520.7479" fill="none" style="stroke:#000000;stroke-width:1;"/><text fill="#000000" font-family="Arial" font-size="14" lengthAdjust="spacing" textLength="123.7646" x="1937.98" y="535.8797">ai_engine_manager</text></g><!--entity get_settings--><g class="entity" data-entity="get_settings" data-source-line="48" data-uid="ent0041" id="entity_get_settings"><ellipse cx="2134.858" cy="470.7479" fill="#FFFFFF" rx="8" ry="8" style="stroke:#000000;stroke-width:1;"/><path d="M2134.858,478.7479 L2134.858,505.7479 M2121.858,486.7479 L2147.858,486.7479 M2134.858,505.7479 L2121.858,520.7479 M2134.858,505.7479 L2147.858,520.7479" fill="none" style="stroke:#000000;stroke-width:1;"/><text fill="#000000" font-family="Arial" font-size="14" lengthAdjust="spacing" textLength="75.4961" x="2097.11" y="535.8797">get_settings</text></g><!--entity run_one_shot--><g class="entity" data-entity="run_one_shot" data-source-line="49" data-uid="ent0043" id="entity_run_one_shot"><ellipse cx="2250.8535" cy="470.7479" fill="#FFFFFF" rx="8" ry="8" style="stroke:#000000;stroke-width:1;"/><path d="M2250.8535,478.7479 L2250.8535,505.7479 M2237.8535,486.7479 L2263.8535,486.7479 M2250.8535,505.7479 L2237.8535,520.7479 M2250.8535,505.7479 L2263.8535,520.7479" fill="none" style="stroke:#000000;stroke-width:1;"/><text fill="#000000" font-family="Arial" font-size="14" lengthAdjust="spacing" textLength="85.627" x="2208.04" y="535.8797">run_one_shot</text></g><!--entity run_interactive_chat--><g class="entity" data-entity="run_interactive_chat" data-source-line="50" data-uid="ent0045" id="entity_run_interactive_chat"><ellipse cx="2391.8576" cy="470.7479" fill="#FFFFFF" rx="8" ry="8" style="stroke:#000000;stroke-width:1;"/><path d="M2391.8576,478.7479 L2391.8576,505.7479 M2378.8576,486.7479 L2404.8576,486.7479 M2391.8576,505.7479 L2378.8576,520.7479 M2391.8576,505.7479 L2404.8576,520.7479" fill="none" style="stroke:#000000;stroke-width:1;"/><text fill="#000000" font-family="Arial" font-size="14" lengthAdjust="spacing" textLength="126.0752" x="2328.82" y="535.8797">run_interactive_chat</text></g><!--link NOTE_ANCHOR to GMN3--><!--link main_entry to handle_ai_sync--><g class="link" data-entity-1="main_entry" data-entity-2="handle_ai_sync" data-source-line="31" data-uid="lnk21" id="link_main_entry_handle_ai_sync"><path d="M2339.47,228.6379 C2324.73,249.0079 2301.08,276.3379 2272.86,289.5579 C2174.72,335.5079 1446.7368,363.0729 1184.0268,371.6129" fill="none" id="main_entry-to-handle_ai_sync" style="stroke:#333333;stroke-width:1;"/><polygon fill="#333333" points="1178.03,371.8079,1187.1552,375.5133,1183.0274,371.6454,1186.8953,367.5176,1178.03,371.8079" style="stroke:#333333;stroke-width:1;"/></g><!--link main_entry to handle_ai_qwen--><g class="link" data-entity-1="main_entry" data-entity-2="handle_ai_qwen" data-source-line="32" data-uid="lnk22" id="link_main_entry_handle_ai_qwen"><path d="M2334.47,228.7679 C2318.53,246.8779 2295.67,271.1679 2272.86,289.5579 C2244.81,312.1679 2215.5267,330.4737 2188.0367,346.0937" fill="none" id="main_entry-to-handle_ai_qwen" style="stroke:#333333;stroke-width:1;"/><polygon fill="#333333" points="2182.82,349.0579,2192.6211,348.0894,2187.1672,346.5877,2188.6689,341.1338,2182.82,349.0579" style="stroke:#333333;stroke-width:1;"/></g><!--link main_entry to handle_ai_gemini--><g class="link" data-entity-1="main_entry" data-entity-2="handle_ai_gemini" data-source-line="33" data-uid="lnk23" id="link_main_entry_handle_ai_gemini"><path d="M2355.86,228.6179 C2355.86,261.0079 2355.86,310.8279 2355.86,343.2679" fill="none" id="main_entry-to-handle_ai_gemini" style="stroke:#333333;stroke-width:1;"/><polygon fill="#333333" points="2355.86,349.2679,2359.86,340.2679,2355.86,344.2679,2351.86,340.2679,2355.86,349.2679" style="stroke:#333333;stroke-width:1;"/></g><!--link main_entry to handle_ai_codex--><g class="link" data-entity-1="main_entry" data-entity-2="handle_ai_codex" data-source-line="34" data-uid="lnk24" id="link_main_entry_handle_ai_codex"><path d="M2388.47,228.6179 C2430.25,261.0079 2497.5279,313.152 2539.3779,345.592" fill="none" id="main_entry-to-handle_ai_codex" style="stroke:#333333;stroke-width:1;"/><polygon fill="#333333" points="2544.12,349.2679,2539.4574,340.5926,2540.1682,346.2046,2534.5562,346.9155,2544.12,349.2679" style="stroke:#333333;stroke-width:1;"/></g><!--link main_entry to handle_ai_claude--><g class="link" data-entity-1="main_entry" data-entity-2="handle_ai_claude" data-source-line="35" data-uid="lnk25" id="link_main_entry_handle_ai_claude"><path d="M2421.55,228.7979 C2505.12,261.1879 2643.0056,314.6293 2726.5656,347.0193" fill="none" id="main_entry-to-handle_ai_claude" style="stroke:#333333;stroke-width:1;"/><polygon fill="#333333" points="2732.16,349.1879,2725.2141,342.2054,2727.498,347.3807,2722.3227,349.6647,2732.16,349.1879" style="stroke:#333333;stroke-width:1;"/></g><!--link handle_ai_sync to ai_sync_watch--><g class="link" data-entity-1="handle_ai_sync" data-entity-2="ai_sync_watch" data-source-line="36" data-uid="lnk26" id="link_handle_ai_sync_ai_sync_watch"><path d="M991.51,378.8179 C831.18,384.0879 493.92,401.9279 215.86,461.7479 C201.54,464.8279 192.1968,467.2951 177.9668,471.9151" fill="none" id="handle_ai_sync-to-ai_sync_watch" style="stroke:#333333;stroke-width:1;"/><polygon fill="#333333" points="172.26,473.7679,182.0553,474.7932,177.0156,472.2239,179.585,467.1842,172.26,473.7679" style="stroke:#333333;stroke-width:1;"/></g><!--link handle_ai_sync to resolve_session--><g class="link" data-entity-1="handle_ai_sync" data-entity-2="resolve_session" data-source-line="37" data-uid="lnk27" id="link_handle_ai_sync_resolve_session"><path d="M991.55,383.1479 C864.71,393.2679 631.37,416.5379 436.86,461.7479 C422.99,464.9779 414.1071,467.3962 400.2371,471.8962" fill="none" id="handle_ai_sync-to-resolve_session" style="stroke:#333333;stroke-width:1;"/><polygon fill="#333333" points="394.53,473.7479,404.3251,474.7752,399.286,472.2048,401.8563,467.1656,394.53,473.7479" style="stroke:#333333;stroke-width:1;"/></g><!--link resolve_session to load_sync_state--><g class="link" data-entity-1="resolve_session" data-entity-2="load_sync_state" data-source-line="38" data-uid="lnk28" id="link_resolve_session_load_sync_state"><path d="M325.86,526.7079 C325.86,550.8679 325.86,580.9879 325.86,605.0979" fill="none" id="resolve_session-to-load_sync_state" style="stroke:#333333;stroke-width:1;"/><polygon fill="#333333" points="325.86,611.0979,329.86,602.0979,325.86,606.0979,321.86,602.0979,325.86,611.0979" style="stroke:#333333;stroke-width:1;"/></g><!--link handle_ai_sync to find_task_context--><g class="link" data-entity-1="handle_ai_sync" data-entity-2="find_task_context" data-source-line="39" data-uid="lnk29" id="link_handle_ai_sync_find_task_context"><path d="M991.68,390.9279 C903.19,405.4279 766.81,430.2179 650.86,461.7479 C638.13,465.2079 630.4245,467.5179 617.5745,471.8579" fill="none" id="handle_ai_sync-to-find_task_context" style="stroke:#333333;stroke-width:1;"/><polygon fill="#333333" points="611.89,473.7779,621.6967,474.6877,616.6271,472.1779,619.1369,467.1083,611.89,473.7779" style="stroke:#333333;stroke-width:1;"/></g><!--link handle_ai_sync to build_task_queue--><g class="link" data-entity-1="handle_ai_sync" data-entity-2="build_task_queue" data-source-line="40" data-uid="lnk30" id="link_handle_ai_sync_build_task_queue"><path d="M1016.71,402.2179 C960.74,423.2079 887.4779,450.6809 831.5379,471.6609" fill="none" id="handle_ai_sync-to-build_task_queue" style="stroke:#333333;stroke-width:1;"/><polygon fill="#333333" points="825.92,473.7679,835.7515,474.3527,830.6016,472.0121,832.9422,466.8621,825.92,473.7679" style="stroke:#333333;stroke-width:1;"/></g><!--link handle_ai_sync to select_next_task--><g class="link" data-entity-1="handle_ai_sync" data-entity-2="select_next_task" data-source-line="41" data-uid="lnk31" id="link_handle_ai_sync_select_next_task"><path d="M1062.27,402.0679 C1043.57,423.1179 1021.0959,448.3932 1002.3959,469.4332" fill="none" id="handle_ai_sync-to-select_next_task" style="stroke:#333333;stroke-width:1;"/><polygon fill="#333333" points="998.41,473.9179,1007.3787,469.8481,1001.7316,470.1806,1001.3991,464.5335,998.41,473.9179" style="stroke:#333333;stroke-width:1;"/></g><!--link handle_ai_sync to build_task_prompt--><g class="link" data-entity-1="handle_ai_sync" data-entity-2="build_task_prompt" data-source-line="42" data-uid="lnk32" id="link_handle_ai_sync_build_task_prompt"><path d="M1107.44,402.0679 C1126.15,423.1179 1148.6141,448.3932 1167.3141,469.4332" fill="none" id="handle_ai_sync-to-build_task_prompt" style="stroke:#333333;stroke-width:1;"/><polygon fill="#333333" points="1171.3,473.9179,1168.3109,464.5335,1167.9784,470.1806,1162.3313,469.8481,1171.3,473.9179" style="stroke:#333333;stroke-width:1;"/></g><!--link handle_ai_sync to save_session--><g class="link" data-entity-1="handle_ai_sync" data-entity-2="save_session" data-source-line="43" data-uid="lnk33" id="link_handle_ai_sync_save_session"><path d="M1153.01,402.2179 C1208.98,423.2079 1282.2321,450.6809 1338.1721,471.6609" fill="none" id="handle_ai_sync-to-save_session" style="stroke:#333333;stroke-width:1;"/><polygon fill="#333333" points="1343.79,473.7679,1336.7678,466.8621,1339.1084,472.0121,1333.9585,474.3527,1343.79,473.7679" style="stroke:#333333;stroke-width:1;"/></g><!--link handle_ai_sync to write_sync_state--><g class="link" data-entity-1="handle_ai_sync" data-entity-2="write_sync_state" data-source-line="44" data-uid="lnk34" id="link_handle_ai_sync_write_sync_state"><path d="M1178.04,390.7179 C1267.33,405.1379 1405.48,429.9379 1522.86,461.7479 C1535.59,465.1979 1543.3073,467.4926 1556.1473,471.8426" fill="none" id="handle_ai_sync-to-write_sync_state" style="stroke:#333333;stroke-width:1;"/><polygon fill="#333333" points="1561.83,473.7679,1554.5894,467.0915,1557.0944,472.1635,1552.0224,474.6685,1561.83,473.7679" style="stroke:#333333;stroke-width:1;"/></g><!--link handle_ai_sync to write_sync_breadcrumb--><g class="link" data-entity-1="handle_ai_sync" data-entity-2="write_sync_breadcrumb" data-source-line="45" data-uid="lnk36" id="link_handle_ai_sync_write_sync_breadcrumb"><path d="M1178.09,381.2679 C1305.96,389.2879 1542.08,410.2179 1736.86,461.7479 C1742.53,463.2479 1742.6299,463.1146 1748.3999,465.0446" fill="none" id="handle_ai_sync-to-write_sync_breadcrumb" style="stroke:#333333;stroke-width:1;"/><polygon fill="#333333" points="1754.09,466.9479,1746.8237,460.2995,1749.3482,465.3618,1744.286,467.8863,1754.09,466.9479" style="stroke:#333333;stroke-width:1;"/></g><!--link write_sync_breadcrumb to create_breadcrumb--><g class="link" data-entity-1="write_sync_breadcrumb" data-entity-2="create_breadcrumb" data-source-line="46" data-uid="lnk38" id="link_write_sync_breadcrumb_create_breadcrumb"><path d="M1828.86,539.2879 C1828.86,557.8679 1828.86,574.1579 1828.86,592.6879" fill="none" id="write_sync_breadcrumb-to-create_breadcrumb" style="stroke:#333333;stroke-width:1;"/><polygon fill="#333333" points="1828.86,598.6879,1832.86,589.6879,1828.86,593.6879,1824.86,589.6879,1828.86,598.6879" style="stroke:#333333;stroke-width:1;"/></g><!--link handle_ai_qwen to ai_engine_manager--><g class="link" data-entity-1="handle_ai_qwen" data-entity-2="ai_engine_manager" data-source-line="47" data-uid="lnk40" id="link_handle_ai_qwen_ai_engine_manager"><path d="M2106.89,402.0679 C2088.04,419.1879 2067.2909,438.0332 2046.0809,457.3032" fill="none" id="handle_ai_qwen-to-ai_engine_manager" style="stroke:#333333;stroke-width:1;"/><polygon fill="#333333" points="2041.64,461.3379,2050.9911,458.2464,2045.3407,457.9756,2045.6115,452.3252,2041.64,461.3379" style="stroke:#333333;stroke-width:1;"/></g><!--link handle_ai_qwen to get_settings--><g class="link" data-entity-1="handle_ai_qwen" data-entity-2="get_settings" data-source-line="48" data-uid="lnk42" id="link_handle_ai_qwen_get_settings"><path d="M2134.86,402.0679 C2134.86,419.1879 2134.86,436.0679 2134.86,455.3379" fill="none" id="handle_ai_qwen-to-get_settings" style="stroke:#333333;stroke-width:1;"/><polygon fill="#333333" points="2134.86,461.3379,2138.86,452.3379,2134.86,456.3379,2130.86,452.3379,2134.86,461.3379" style="stroke:#333333;stroke-width:1;"/></g><!--link handle_ai_qwen to run_one_shot--><g class="link" data-entity-1="handle_ai_qwen" data-entity-2="run_one_shot" data-source-line="49" data-uid="lnk44" id="link_handle_ai_qwen_run_one_shot"><path d="M2158.89,402.0679 C2175.09,419.1879 2192.6078,437.7081 2210.8278,456.9781" fill="none" id="handle_ai_qwen-to-run_one_shot" style="stroke:#333333;stroke-width:1;"/><polygon fill="#333333" points="2214.95,461.3379,2211.6732,452.0501,2211.5148,457.7047,2205.8602,457.5463,2214.95,461.3379" style="stroke:#333333;stroke-width:1;"/></g><!--link handle_ai_qwen to run_interactive_chat--><g class="link" data-entity-1="handle_ai_qwen" data-entity-2="run_interactive_chat" data-source-line="50" data-uid="lnk46" id="link_handle_ai_qwen_run_interactive_chat"><path d="M2188.42,402.2179 C2229.17,421.6579 2279.9552,445.8932 2322.9652,466.4232" fill="none" id="handle_ai_qwen-to-run_interactive_chat" style="stroke:#333333;stroke-width:1;"/><polygon fill="#333333" points="2328.38,469.0079,2321.9809,461.5211,2323.8677,466.854,2318.5348,468.7407,2328.38,469.0079" style="stroke:#333333;stroke-width:1;"/></g><!--SRC=[bLR1Rjiu4BthAzZqaWI8XRP03rrWWQpZj04Ik-rcJzb0eAcnH8GYNPAour_fgT-sNx93IeufcOvSGR19pdkF8ywGmpUsX0h8Kb0k4_F4vP9gMf4vPK-5LhNCnqeeJTvU-oT0vB2WjR3NIjefHOLBpQa8x9TQgtLB_k2Vm3XL5lvIEWVT8iR-wIDYJY0giTmA8EExgmlAoGN1dnnWIRYqe2KLP27KcfogkG6zWloCdDxEhjvz8cEL0xck9RDSINEM9BK1HWsG4ofPgVG9eOPCP_UJx78w_ZBxdfGS2U60HA-8vaLfYLfqB8ISd_-jQitWq_avUNZ85JFfMkadvuj9L-zJhbDMvMdZzOYXBwCDhGGv6lduc83CYVCXIJGmIsM1ot1IOUWoa5Pl_fMd5GLZjKhTu6YvEVFVj4E4l9BAN416UMOsaWLSfgeARIR5sRSINN1SviSQvD4o3XoNAQ3YaXyjrC3ZKcxjdezMykW3GeBMEHolvE6XLBjmsPfQLWxeTB2XY0QZn0eo0yPW2W_8zD2Xa50qR-OmbjhmkoXFBJLFtlYYr8E7IWikyymp69u4y6o7jFO8eTgyvgAr_gYX7dIiZm-r30ZiP1Ady8Y1rUh33xYrrAfQsj_mgo5q7AFH4BeZO3kyyuh60xZMtC9lHB2FJtP70hcu-BE_lGzQ_QuzQ6stua5xiy4EcvjTq_N5Oxex8WBOp_LEtsFwMHoHsK_E26WlwIAOlMnwNQTDafXGc00H-rvWNyVCDT2SwRgQ9z5HZsVOHLE0xIR0DYGW2ouXmwr42z0nK04MdRUMoyB4xBgMcK89KofxoEwhEiMQZGl1IcgJfWeBM4IBy6I5HLlwCkpwM8fNxzBjpI1rzmHNNDqihZrQrbY2-mDOQHjghpR7pm_YVuSulMr9miuGjtSqa5v_YBuBf2DtUaTutORNKNVDuHMI2rwaszWxSj0-ObQCl0JjYRlc4C_bJSe4nyF54LzQH_5ixOFP_7NkMWTlVUv6Elau-UWJxx-VlyWjvBW-v0lcczacuAozXcB65fHjo3UNt7v8f_V_t915Uo6bWjiDtc7RR6okjCxFFyZgFHvmIqMihcs9elW-F8n6ARutTrzl9tUJwVtb_SricjrEhZvFle-gd4GDVY6sL2UfhKc5TpfZcD4ynurl7Btzal7BOBWY_mC0]--></g></svg>