<svg xmlns="http://www.w3.org/2000/svg" xmlns:xlink="http://www.w3.org/1999/xlink" contentStyleType="text/css" data-diagram-type="DESCRIPTION" height="221px" preserveAspectRatio="none" style="width:1114px;height:221px;background:#FFFFFF;" version="1.1" viewBox="0 0 1114 221" width="1114px" zoomAndPan="magnify"><title>CMD-work - work command surface (LOD1: CLI Flow)</title><defs/><g><g class="title" data-source-line="8"><text fill="#000000" font-family="Arial" font-size="22" font-weight="bold" lengthAdjust="spacing" textLength="558.6045" x="273.3699" y="35.6357">CMD-work - work command surface (LOD1: CLI Flow)</text></g><!--entity NOTE_ANCHOR--><!--entity work_cmd_start--><g class="entity" data-entity="work_cmd_start" data-source-line="16" data-uid="ent0006" id="entity_work_cmd_start"><rect fill="#FFFFFF" height="36.0986" rx="2.5" ry="2.5" style="stroke:#000000;stroke-width:1;" width="104.0205" x="672.08" y="74.1479"/><text fill="#000000" font-family="Arial" font-size="14" lengthAdjust="spacing" textLength="84.0205" x="682.08" y="97.2797">maestro work</text></g><!--entity work_any--><g class="entity" data-entity="work_any" data-source-line="17" data-uid="ent0007" id="entity_work_any"><ellipse cx="352.091" cy="201.4813" fill="#FFFFFF" rx="18.961" ry="14.3835" style="stroke:#000000;stroke-width:1;"/><text fill="#000000" font-family="Arial" font-size="14" lengthAdjust="spacing" textLength="22.5723" x="340.8049" y="206.0306">any</text></g><!--entity work_any_pick--><g class="entity" data-entity="work_any_pick" data-source-line="18" data-uid="ent0008" id="entity_work_any_pick"><ellipse cx="445.0859" cy="201.4813" fill="#FFFFFF" rx="39.3159" ry="14.3835" style="stroke:#000000;stroke-width:1;"/><text fill="#000000" font-family="Arial" font-size="14" lengthAdjust="spacing" textLength="51.3584" x="419.4067" y="206.0306">any pick</text></g><!--entity work_track--><g class="entity" data-entity="work_track" data-source-line="19" data-uid="ent0009" id="entity_work_track"><ellipse cx="544.0921" cy="201.4813" fill="#FFFFFF" rx="24.4521" ry="14.3835" style="stroke:#000000;stroke-width:1;"/><text fill="#000000" font-family="Arial" font-size="14" lengthAdjust="spacing" textLength="30.3379" x="528.9232" y="206.0306">track</text></g><!--entity work_phase--><g class="entity" data-entity="work_phase" data-source-line="20" data-uid="ent0010" id="entity_work_phase"><ellipse cx="633.0923" cy="201.4813" fill="#FFFFFF" rx="29.9723" ry="14.3835" style="stroke:#000000;stroke-width:1;"/><text fill="#000000" font-family="Arial" font-size="14" lengthAdjust="spacing" textLength="38.1445" x="614.02" y="206.0306">phase</text></g><!--entity work_issue--><g class="entity" data-entity="work_issue" data-source-line="21" data-uid="ent0011" id="entity_work_issue"><ellipse cx="724.0901" cy="201.4813" fill="#FFFFFF" rx="26.1101" ry="14.3835" style="stroke:#000000;stroke-width:1;"/><text fill="#000000" font-family="Arial" font-size="14" lengthAdjust="spacing" textLength="32.6826" x="707.7488" y="206.0306">issue</text></g><!--entity work_task--><g class="entity" data-entity="work_task" data-source-line="22" data-uid="ent0012" id="entity_work_task"><ellipse cx="806.0855" cy="201.4813" fill="#FFFFFF" rx="21.1555" ry="14.3835" style="stroke:#000000;stroke-width:1;"/><text fill="#000000" font-family="Arial" font-size="14" lengthAdjust="spacing" textLength="25.6758" x="793.2476" y="206.0306">task</text></g><!--entity work_discuss--><g class="entity" data-entity="work_discuss" data-source-line="23" data-uid="ent0013" id="entity_work_discuss"><ellipse cx="898.0896" cy="201.4813" fill="#FFFFFF" rx="36.0096" ry="14.3835" style="stroke:#000000;stroke-width:1;"/><text fill="#000000" font-family="Arial" font-size="14" lengthAdjust="spacing" textLength="46.6826" x="874.7483" y="206.0306">discuss</text></g><!--entity work_analyze--><g class="entity" data-entity="work_analyze" data-source-line="24" data-uid="ent0014" id="entity_work_analyze"><ellipse cx="1006.0914" cy="201.4813" fill="#FFFFFF" rx="37.1214" ry="14.3835" style="stroke:#000000;stroke-width:1;"/><text fill="#000000" font-family="Arial" font-size="14" lengthAdjust="spacing" textLength="48.2549" x="981.9639" y="206.0306">analyze</text></g><!--entity work_fix--><g class="entity" data-entity="work_fix" data-source-line="25" data-uid="ent0015" id="entity_work_fix"><ellipse cx="1093.0871" cy="201.4735" fill="#FFFFFF" rx="15.2571" ry="12.8057" style="stroke:#000000;stroke-width:1;"/><text fill="#000000" font-family="Arial" font-size="14" lengthAdjust="spacing" textLength="14" x="1086.0871" y="206.0229">fix</text></g><!--link work_cmd_start to work_any--><g class="link" data-entity-1="work_cmd_start" data-entity-2="work_any" data-source-line="26" data-uid="lnk16" id="link_work_cmd_start_work_any"><path d="M691.99,110.6479 C680.3,116.4879 666.83,122.6379 654.09,127.0879 C539.69,167.0979 504.26,152.5679 388.09,187.0879 C381.57,189.0279 380.1362,189.41 374.0262,191.74" fill="none" id="work_cmd_start-to-work_any" style="stroke:#333333;stroke-width:1;"/><polygon fill="#333333" points="368.42,193.8779,378.2546,194.4085,373.0918,192.0963,375.404,186.9336,368.42,193.8779" style="stroke:#333333;stroke-width:1;"/></g><!--link work_cmd_start to work_any_pick--><g class="link" data-entity-1="work_cmd_start" data-entity-2="work_any_pick" data-source-line="27" data-uid="lnk17" id="link_work_cmd_start_work_any_pick"><path d="M689.91,110.7079 C678.62,116.2279 665.93,122.1679 654.09,127.0879 C591.07,153.3179 520.6778,176.6294 479.9278,189.5894" fill="none" id="work_cmd_start-to-work_any_pick" style="stroke:#333333;stroke-width:1;"/><polygon fill="#333333" points="474.21,191.4079,483.999,192.492,478.9748,189.8925,481.5744,184.8683,474.21,191.4079" style="stroke:#333333;stroke-width:1;"/></g><!--link work_cmd_start to work_track--><g class="link" data-entity-1="work_cmd_start" data-entity-2="work_track" data-source-line="28" data-uid="lnk18" id="link_work_cmd_start_work_track"><path d="M694.77,110.6679 C656.51,133.4679 596.0341,169.5161 565.6141,187.6461" fill="none" id="work_cmd_start-to-work_track" style="stroke:#333333;stroke-width:1;"/><polygon fill="#333333" points="560.46,190.7179,570.2389,189.5462,564.755,188.158,566.1432,182.6742,560.46,190.7179" style="stroke:#333333;stroke-width:1;"/></g><!--link work_cmd_start to work_phase--><g class="link" data-entity-1="work_cmd_start" data-entity-2="work_phase" data-source-line="29" data-uid="lnk19" id="link_work_cmd_start_work_phase"><path d="M709.47,110.4279 C691.18,131.9879 664.1714,163.8324 647.8414,183.0824" fill="none" id="work_cmd_start-to-work_phase" style="stroke:#333333;stroke-width:1;"/><polygon fill="#333333" points="643.96,187.6579,652.8324,183.3823,647.1945,183.845,646.7318,178.2071,643.96,187.6579" style="stroke:#333333;stroke-width:1;"/></g><!--link work_cmd_start to work_issue--><g class="link" data-entity-1="work_cmd_start" data-entity-2="work_issue" data-source-line="30" data-uid="lnk20" id="link_work_cmd_start_work_issue"><path d="M724.09,110.4279 C724.09,131.6379 724.09,161.2079 724.09,180.6879" fill="none" id="work_cmd_start-to-work_issue" style="stroke:#333333;stroke-width:1;"/><polygon fill="#333333" points="724.09,186.6879,728.09,177.6879,724.09,181.6879,720.09,177.6879,724.09,186.6879" style="stroke:#333333;stroke-width:1;"/></g><!--link work_cmd_start to work_task--><g class="link" data-entity-1="work_cmd_start" data-entity-2="work_task" data-source-line="31" data-uid="lnk21" id="link_work_cmd_start_work_task"><path d="M737.26,110.4279 C753.92,132.2279 778.547,164.4404 793.127,183.5204" fill="none" id="work_cmd_start-to-work_task" style="stroke:#333333;stroke-width:1;"/><polygon fill="#333333" points="796.77,188.2879,794.4837,178.708,793.7341,184.315,788.1272,183.5654,796.77,188.2879" style="stroke:#333333;stroke-width:1;"/></g><!--link work_cmd_start to work_discuss--><g class="link" data-entity-1="work_cmd_start" data-entity-2="work_discuss" data-source-line="32" data-uid="lnk22" id="link_work_cmd_start_work_discuss"><path d="M752.43,110.6679 C788.25,132.7579 843.8024,167.0095 874.3024,185.8095" fill="none" id="work_cmd_start-to-work_discuss" style="stroke:#333333;stroke-width:1;"/><polygon fill="#333333" points="879.41,188.9579,873.8474,180.8303,875.1536,186.3343,869.6496,187.6405,879.41,188.9579" style="stroke:#333333;stroke-width:1;"/></g><!--link work_cmd_start to work_analyze--><g class="link" data-entity-1="work_cmd_start" data-entity-2="work_analyze" data-source-line="33" data-uid="lnk23" id="link_work_cmd_start_work_analyze"><path d="M770.02,110.6679 C829.95,133.4679 927.172,170.4546 974.832,188.5846" fill="none" id="work_cmd_start-to-work_analyze" style="stroke:#333333;stroke-width:1;"/><polygon fill="#333333" points="980.44,190.7179,973.4503,183.7793,975.7667,188.9401,970.6059,191.2566,980.44,190.7179" style="stroke:#333333;stroke-width:1;"/></g><!--link work_cmd_start to work_fix--><g class="link" data-entity-1="work_cmd_start" data-entity-2="work_fix" data-source-line="34" data-uid="lnk24" id="link_work_cmd_start_work_fix"><path d="M776.38,105.6179 C843.16,121.9679 961.96,152.6979 1061.09,187.0879 C1067.35,189.2579 1068.6196,189.6639 1074.3296,192.1239" fill="none" id="work_cmd_start-to-work_fix" style="stroke:#333333;stroke-width:1;"/><polygon fill="#333333" points="1079.84,194.4979,1073.1571,187.2633,1075.248,192.5195,1069.9918,194.6104,1079.84,194.4979" style="stroke:#333333;stroke-width:1;"/></g><!--SRC=[ZLD1Rjim4Bph5LltqXfmXBIt70guIemMI6sWxIq818PSMOGfKbXITjtNbw8Ka4gi8hn8ipDQpGwMxroD3KAhcDIPFKZTCc8DF35-s9Ffj2YCCWJlD-4a2e4LwvJR6Essp7TOasGguTT4vZH-_3cSXDmQXryD2QHHKOJpKd79X5TbJZg5KFouNPqC7M05uS5Dqp0jm7PKCOxmuNvtUtq3nVrts2Xp-fXbdKNEBCA2QLuRMW2piDtzlYlNs-BRxcTMIu6JWlOkWEI-Tc2g2GEmNFuo7N6yMIxXuK4ORlFUHkL_PVFZfrnIpXkHFxkyuafUdLcZuEtInySC_K2zYomZv8xflHzyqJ2qZamOEmpHlvI-HMaT8vVEUOwy1nC6MiaF4xhiAr7ZYAM202FRrluHsG0ZAwtj4ZR0f3EpQMEF8YUavPsraHuBgNUcpdynjHuAKL79Fv7r89i61AlLbvZ9VxWXa3d14CWSEmGonmw1p7Rk4vaZd_EOzpsaCSVtUGoRhR2wkDXtHtyHT5Zj7llrFbxdu_KgmuOs0bvWlwkNfMtdT_vL9PLBxP2ywLmWjlrDA8SvFHg_VbLARyO_]--></g></svg>