<svg xmlns="http://www.w3.org/2000/svg" xmlns:xlink="http://www.w3.org/1999/xlink" contentStyleType="text/css" data-diagram-type="DESCRIPTION" height="677px" preserveAspectRatio="none" style="width:4740px;height:677px;background:#FFFFFF;" version="1.1" viewBox="0 0 4740 677" width="4740px" zoomAndPan="magnify"><title>CMD-discuss - discuss deep internal flow (observed) (LOD2: Code Detail)</title><defs/><g><g class="title" data-source-line="8"><text fill="#000000" font-family="Arial" font-size="22" font-weight="bold" lengthAdjust="spacing" textLength="766.4551" x="1982.6154" y="35.6357">CMD-discuss - discuss deep internal flow (observed) (LOD2: Code Detail)</text></g><!--entity NOTE_ANCHOR--><!--entity main_entry--><g class="entity" data-entity="main_entry" data-source-line="16" data-uid="ent0006" id="entity_main_entry"><rect fill="#E6F3FF" height="52.1973" rx="2.5" ry="2.5" style="stroke:#000000;stroke-width:1;" width="104.8066" x="2347.63" y="149.5179"/><text fill="#000000" font-family="Arial" font-size="14" lengthAdjust="spacing" textLength="69.2549" x="2357.63" y="172.6497">main_entry</text><text fill="#000000" font-family="Arial" font-size="14" lengthAdjust="spacing" textLength="84.8066" x="2357.63" y="188.7483">maestro.main</text></g><!--entity handle_discuss_command--><g class="entity" data-entity="handle_discuss_command" data-source-line="17" data-uid="ent0007" id="entity_handle_discuss_command"><rect fill="#E6F3FF" height="52.1973" rx="2.5" ry="2.5" style="stroke:#000000;stroke-width:1;" width="193.5029" x="2303.29" y="277.9879"/><text fill="#000000" font-family="Arial" font-size="14" lengthAdjust="spacing" textLength="165.7646" x="2313.29" y="301.1197">handle_discuss_command</text><text fill="#000000" font-family="Arial" font-size="14" lengthAdjust="spacing" textLength="173.5029" x="2313.29" y="317.2183">maestro.commands.discuss</text></g><!--entity handle_track_discuss--><g class="entity" data-entity="handle_track_discuss" data-source-line="18" data-uid="ent0008" id="entity_handle_track_discuss"><rect fill="#E6F3FF" height="52.1973" rx="2.5" ry="2.5" style="stroke:#000000;stroke-width:1;" width="193.5029" x="1277.29" y="149.5179"/><text fill="#000000" font-family="Arial" font-size="14" lengthAdjust="spacing" textLength="134.6338" x="1287.29" y="172.6497">handle_track_discuss</text><text fill="#000000" font-family="Arial" font-size="14" lengthAdjust="spacing" textLength="173.5029" x="1287.29" y="188.7483">maestro.commands.discuss</text></g><!--entity handle_phase_discuss--><g class="entity" data-entity="handle_phase_discuss" data-source-line="19" data-uid="ent0009" id="entity_handle_phase_discuss"><rect fill="#E6F3FF" height="52.1973" rx="2.5" ry="2.5" style="stroke:#000000;stroke-width:1;" width="193.5029" x="1506.29" y="149.5179"/><text fill="#000000" font-family="Arial" font-size="14" lengthAdjust="spacing" textLength="142.4404" x="1516.29" y="172.6497">handle_phase_discuss</text><text fill="#000000" font-family="Arial" font-size="14" lengthAdjust="spacing" textLength="173.5029" x="1516.29" y="188.7483">maestro.commands.discuss</text></g><!--entity handle_task_discuss--><g class="entity" data-entity="handle_task_discuss" data-source-line="20" data-uid="ent0010" id="entity_handle_task_discuss"><rect fill="#E6F3FF" height="52.1973" rx="2.5" ry="2.5" style="stroke:#000000;stroke-width:1;" width="193.5029" x="1735.29" y="149.5179"/><text fill="#000000" font-family="Arial" font-size="14" lengthAdjust="spacing" textLength="129.9717" x="1745.29" y="172.6497">handle_task_discuss</text><text fill="#000000" font-family="Arial" font-size="14" lengthAdjust="spacing" textLength="173.5029" x="1745.29" y="188.7483">maestro.commands.discuss</text></g><!--entity choose_mode--><g class="entity" data-entity="choose_mode" data-source-line="21" data-uid="ent0011" id="entity_choose_mode"><rect fill="#E6F3FF" height="52.1973" rx="2.5" ry="2.5" style="stroke:#000000;stroke-width:1;" width="193.5029" x="1815.29" y="390.1879"/><text fill="#000000" font-family="Arial" font-size="14" lengthAdjust="spacing" textLength="87.9512" x="1825.29" y="413.3197">choose_mode</text><text fill="#000000" font-family="Arial" font-size="14" lengthAdjust="spacing" textLength="173.5029" x="1825.29" y="429.4183">maestro.commands.discuss</text></g><!--entity run_discussion_with_router--><g class="entity" data-entity="run_discussion_with_router" data-source-line="22" data-uid="ent0012" id="entity_run_discussion_with_router"><rect fill="#E6F3FF" height="52.1973" rx="2.5" ry="2.5" style="stroke:#000000;stroke-width:1;" width="193.5029" x="2303.29" y="390.1879"/><text fill="#000000" font-family="Arial" font-size="14" lengthAdjust="spacing" textLength="170.4268" x="2313.29" y="413.3197">run_discussion_with_router</text><text fill="#000000" font-family="Arial" font-size="14" lengthAdjust="spacing" textLength="173.5029" x="2313.29" y="429.4183">maestro.commands.discuss</text></g><!--entity apply_patch_operations--><g class="entity" data-entity="apply_patch_operations" data-source-line="23" data-uid="ent0013" id="entity_apply_patch_operations"><rect fill="#E6F3FF" height="52.1973" rx="2.5" ry="2.5" style="stroke:#000000;stroke-width:1;" width="193.5029" x="3381.29" y="390.1879"/><text fill="#000000" font-family="Arial" font-size="14" lengthAdjust="spacing" textLength="148.668" x="3391.29" y="413.3197">apply_patch_operations</text><text fill="#000000" font-family="Arial" font-size="14" lengthAdjust="spacing" textLength="173.5029" x="3391.29" y="429.4183">maestro.commands.discuss</text></g><!--entity save_discussion_artifacts--><g class="entity" data-entity="save_discussion_artifacts" data-source-line="24" data-uid="ent0014" id="entity_save_discussion_artifacts"><rect fill="#E6F3FF" height="52.1973" rx="2.5" ry="2.5" style="stroke:#000000;stroke-width:1;" width="193.5029" x="1860.29" y="502.3779"/><text fill="#000000" font-family="Arial" font-size="14" lengthAdjust="spacing" textLength="159.5234" x="1870.29" y="525.5097">save_discussion_artifacts</text><text fill="#000000" font-family="Arial" font-size="14" lengthAdjust="spacing" textLength="173.5029" x="1870.29" y="541.6083">maestro.commands.discuss</text></g><!--entity update_artifact_status--><g class="entity" data-entity="update_artifact_status" data-source-line="25" data-uid="ent0015" id="entity_update_artifact_status"><rect fill="#E6F3FF" height="52.1973" rx="2.5" ry="2.5" style="stroke:#000000;stroke-width:1;" width="193.5029" x="2089.29" y="502.3779"/><text fill="#000000" font-family="Arial" font-size="14" lengthAdjust="spacing" textLength="137.7578" x="2099.29" y="525.5097">update_artifact_status</text><text fill="#000000" font-family="Arial" font-size="14" lengthAdjust="spacing" textLength="173.5029" x="2099.29" y="541.6083">maestro.commands.discuss</text></g><!--entity ai_engine_manager--><g class="entity" data-entity="ai_engine_manager" data-source-line="26" data-uid="ent0016" id="entity_ai_engine_manager"><rect fill="#FFFFFF" height="46.0986" rx="2.5" ry="2.5" style="stroke:#000000;stroke-width:1;" width="163.7646" x="2321.16" y="614.5779"/><rect fill="#FFFFFF" height="10" style="stroke:#000000;stroke-width:1;" width="15" x="2464.9246" y="619.5779"/><rect fill="#FFFFFF" height="2" style="stroke:#000000;stroke-width:1;" width="4" x="2462.9246" y="621.5779"/><rect fill="#FFFFFF" height="2" style="stroke:#000000;stroke-width:1;" width="4" x="2462.9246" y="625.5779"/><text fill="#000000" font-family="Arial" font-size="14" lengthAdjust="spacing" textLength="123.7646" x="2336.16" y="647.7097">ai_engine_manager</text></g><!--entity discussion_router--><g class="entity" data-entity="discussion_router" data-source-line="27" data-uid="ent0017" id="entity_discussion_router"><rect fill="#FFFFFF" height="46.0986" rx="2.5" ry="2.5" style="stroke:#000000;stroke-width:1;" width="149.7236" x="2389.18" y="505.4279"/><rect fill="#FFFFFF" height="10" style="stroke:#000000;stroke-width:1;" width="15" x="2518.9036" y="510.4279"/><rect fill="#FFFFFF" height="2" style="stroke:#000000;stroke-width:1;" width="4" x="2516.9036" y="512.4279"/><rect fill="#FFFFFF" height="2" style="stroke:#000000;stroke-width:1;" width="4" x="2516.9036" y="516.4279"/><text fill="#000000" font-family="Arial" font-size="14" lengthAdjust="spacing" textLength="109.7236" x="2404.18" y="538.5597">discussion_router</text></g><!--entity run_discussion--><g class="entity" data-entity="run_discussion" data-source-line="28" data-uid="ent0018" id="entity_run_discussion"><rect fill="#E6F3FF" height="52.1973" rx="2.5" ry="2.5" style="stroke:#000000;stroke-width:1;" width="198.9717" x="2573.55" y="502.3779"/><text fill="#000000" font-family="Arial" font-size="14" lengthAdjust="spacing" textLength="93.3857" x="2583.55" y="525.5097">run_discussion</text><text fill="#000000" font-family="Arial" font-size="14" lengthAdjust="spacing" textLength="178.9717" x="2583.55" y="541.6083">maestro.ai.discussion_router</text></g><!--entity json_contract--><g class="entity" data-entity="json_contract" data-source-line="29" data-uid="ent0019" id="entity_json_contract"><rect fill="#FFFFFF" height="46.0986" rx="2.5" ry="2.5" style="stroke:#000000;stroke-width:1;" width="123.2686" x="2763.4" y="614.5779"/><rect fill="#FFFFFF" height="10" style="stroke:#000000;stroke-width:1;" width="15" x="2866.6686" y="619.5779"/><rect fill="#FFFFFF" height="2" style="stroke:#000000;stroke-width:1;" width="4" x="2864.6686" y="621.5779"/><rect fill="#FFFFFF" height="2" style="stroke:#000000;stroke-width:1;" width="4" x="2864.6686" y="625.5779"/><text fill="#000000" font-family="Arial" font-size="14" lengthAdjust="spacing" textLength="83.2686" x="2778.4" y="647.7097">json_contract</text></g><!--entity track_contract--><g class="entity" data-entity="track_contract" data-source-line="30" data-uid="ent0020" id="entity_track_contract"><rect fill="#FFFFFF" height="46.0986" rx="2.5" ry="2.5" style="stroke:#000000;stroke-width:1;" width="127.9238" x="1310.08" y="281.0379"/><rect fill="#FFFFFF" height="10" style="stroke:#000000;stroke-width:1;" width="15" x="1418.0038" y="286.0379"/><rect fill="#FFFFFF" height="2" style="stroke:#000000;stroke-width:1;" width="4" x="1416.0038" y="288.0379"/><rect fill="#FFFFFF" height="2" style="stroke:#000000;stroke-width:1;" width="4" x="1416.0038" y="292.0379"/><text fill="#000000" font-family="Arial" font-size="14" lengthAdjust="spacing" textLength="87.9238" x="1325.08" y="314.1697">track_contract</text></g><!--entity phase_contract--><g class="entity" data-entity="phase_contract" data-source-line="31" data-uid="ent0021" id="entity_phase_contract"><rect fill="#FFFFFF" height="46.0986" rx="2.5" ry="2.5" style="stroke:#000000;stroke-width:1;" width="135.7305" x="1473.17" y="281.0379"/><rect fill="#FFFFFF" height="10" style="stroke:#000000;stroke-width:1;" width="15" x="1588.9005" y="286.0379"/><rect fill="#FFFFFF" height="2" style="stroke:#000000;stroke-width:1;" width="4" x="1586.9005" y="288.0379"/><rect fill="#FFFFFF" height="2" style="stroke:#000000;stroke-width:1;" width="4" x="1586.9005" y="292.0379"/><text fill="#000000" font-family="Arial" font-size="14" lengthAdjust="spacing" textLength="95.7305" x="1488.17" y="314.1697">phase_contract</text></g><!--entity task_contract--><g class="entity" data-entity="task_contract" data-source-line="32" data-uid="ent0022" id="entity_task_contract"><rect fill="#FFFFFF" height="46.0986" rx="2.5" ry="2.5" style="stroke:#000000;stroke-width:1;" width="123.2617" x="1643.41" y="281.0379"/><rect fill="#FFFFFF" height="10" style="stroke:#000000;stroke-width:1;" width="15" x="1746.6717" y="286.0379"/><rect fill="#FFFFFF" height="2" style="stroke:#000000;stroke-width:1;" width="4" x="1744.6717" y="288.0379"/><rect fill="#FFFFFF" height="2" style="stroke:#000000;stroke-width:1;" width="4" x="1744.6717" y="292.0379"/><text fill="#000000" font-family="Arial" font-size="14" lengthAdjust="spacing" textLength="83.2617" x="1658.41" y="314.1697">task_contract</text></g><!--entity global_contract--><g class="entity" data-entity="global_contract" data-source-line="33" data-uid="ent0023" id="entity_global_contract"><rect fill="#FFFFFF" height="46.0986" rx="2.5" ry="2.5" style="stroke:#000000;stroke-width:1;" width="134.9512" x="1306.56" y="393.2379"/><rect fill="#FFFFFF" height="10" style="stroke:#000000;stroke-width:1;" width="15" x="1421.5112" y="398.2379"/><rect fill="#FFFFFF" height="2" style="stroke:#000000;stroke-width:1;" width="4" x="1419.5112" y="400.2379"/><rect fill="#FFFFFF" height="2" style="stroke:#000000;stroke-width:1;" width="4" x="1419.5112" y="404.2379"/><text fill="#000000" font-family="Arial" font-size="14" lengthAdjust="spacing" textLength="94.9512" x="1321.56" y="426.3697">global_contract</text></g><!--entity action_processor--><g class="entity" data-entity="action_processor" data-source-line="34" data-uid="ent0024" id="entity_action_processor"><rect fill="#FFFFFF" height="46.0986" rx="2.5" ry="2.5" style="stroke:#000000;stroke-width:1;" width="146.6133" x="1476.73" y="393.2379"/><rect fill="#FFFFFF" height="10" style="stroke:#000000;stroke-width:1;" width="15" x="1603.3433" y="398.2379"/><rect fill="#FFFFFF" height="2" style="stroke:#000000;stroke-width:1;" width="4" x="1601.3433" y="400.2379"/><rect fill="#FFFFFF" height="2" style="stroke:#000000;stroke-width:1;" width="4" x="1601.3433" y="404.2379"/><text fill="#000000" font-family="Arial" font-size="14" lengthAdjust="spacing" textLength="106.6133" x="1491.73" y="426.3697">action_processor</text></g><!--entity patch_operation--><g class="entity" data-entity="patch_operation" data-source-line="35" data-uid="ent0025" id="entity_patch_operation"><rect fill="#FFFFFF" height="46.0986" rx="2.5" ry="2.5" style="stroke:#000000;stroke-width:1;" width="140.4131" x="2587.83" y="614.5779"/><rect fill="#FFFFFF" height="10" style="stroke:#000000;stroke-width:1;" width="15" x="2708.2431" y="619.5779"/><rect fill="#FFFFFF" height="2" style="stroke:#000000;stroke-width:1;" width="4" x="2706.2431" y="621.5779"/><rect fill="#FFFFFF" height="2" style="stroke:#000000;stroke-width:1;" width="4" x="2706.2431" y="625.5779"/><text fill="#000000" font-family="Arial" font-size="14" lengthAdjust="spacing" textLength="100.4131" x="2602.83" y="647.7097">patch_operation</text></g><!--entity parse_config_md--><g class="entity" data-entity="parse_config_md" data-source-line="36" data-uid="ent0026" id="entity_parse_config_md"><rect fill="#E6F3FF" height="52.1973" rx="2.5" ry="2.5" style="stroke:#000000;stroke-width:1;" width="217.6475" x="1607.21" y="502.3779"/><text fill="#000000" font-family="Arial" font-size="14" lengthAdjust="spacing" textLength="107.3994" x="1617.21" y="525.5097">parse_config_md</text><text fill="#000000" font-family="Arial" font-size="14" lengthAdjust="spacing" textLength="197.6475" x="1617.21" y="541.6083">maestro.data.markdown_parser</text></g><!--entity insert_track_block--><g class="entity" data-entity="insert_track_block" data-source-line="37" data-uid="ent0027" id="entity_insert_track_block"><rect fill="#E6F3FF" height="52.1973" rx="2.5" ry="2.5" style="stroke:#000000;stroke-width:1;" width="212.1855" x="2877.95" y="502.3779"/><text fill="#000000" font-family="Arial" font-size="14" lengthAdjust="spacing" textLength="112.8271" x="2887.95" y="525.5097">insert_track_block</text><text fill="#000000" font-family="Arial" font-size="14" lengthAdjust="spacing" textLength="192.1855" x="2887.95" y="541.6083">maestro.data.markdown_writer</text></g><!--entity insert_phase_block--><g class="entity" data-entity="insert_phase_block" data-source-line="38" data-uid="ent0028" id="entity_insert_phase_block"><rect fill="#E6F3FF" height="52.1973" rx="2.5" ry="2.5" style="stroke:#000000;stroke-width:1;" width="212.1855" x="3124.95" y="502.3779"/><text fill="#000000" font-family="Arial" font-size="14" lengthAdjust="spacing" textLength="120.6338" x="3134.95" y="525.5097">insert_phase_block</text><text fill="#000000" font-family="Arial" font-size="14" lengthAdjust="spacing" textLength="192.1855" x="3134.95" y="541.6083">maestro.data.markdown_writer</text></g><!--entity insert_task_block--><g class="entity" data-entity="insert_task_block" data-source-line="39" data-uid="ent0029" id="entity_insert_task_block"><rect fill="#E6F3FF" height="52.1973" rx="2.5" ry="2.5" style="stroke:#000000;stroke-width:1;" width="212.1855" x="3865.95" y="502.3779"/><text fill="#000000" font-family="Arial" font-size="14" lengthAdjust="spacing" textLength="108.165" x="3875.95" y="525.5097">insert_task_block</text><text fill="#000000" font-family="Arial" font-size="14" lengthAdjust="spacing" textLength="192.1855" x="3875.95" y="541.6083">maestro.data.markdown_writer</text></g><!--entity update_track_metadata--><g class="entity" data-entity="update_track_metadata" data-source-line="40" data-uid="ent0030" id="entity_update_track_metadata"><rect fill="#E6F3FF" height="52.1973" rx="2.5" ry="2.5" style="stroke:#000000;stroke-width:1;" width="212.1855" x="3371.95" y="502.3779"/><text fill="#000000" font-family="Arial" font-size="14" lengthAdjust="spacing" textLength="147.1025" x="3381.95" y="525.5097">update_track_metadata</text><text fill="#000000" font-family="Arial" font-size="14" lengthAdjust="spacing" textLength="192.1855" x="3381.95" y="541.6083">maestro.data.markdown_writer</text></g><!--entity update_phase_metadata--><g class="entity" data-entity="update_phase_metadata" data-source-line="41" data-uid="ent0031" id="entity_update_phase_metadata"><rect fill="#E6F3FF" height="52.1973" rx="2.5" ry="2.5" style="stroke:#000000;stroke-width:1;" width="212.1855" x="3618.95" y="502.3779"/><text fill="#000000" font-family="Arial" font-size="14" lengthAdjust="spacing" textLength="154.9092" x="3628.95" y="525.5097">update_phase_metadata</text><text fill="#000000" font-family="Arial" font-size="14" lengthAdjust="spacing" textLength="192.1855" x="3628.95" y="541.6083">maestro.data.markdown_writer</text></g><!--entity update_task_metadata--><g class="entity" data-entity="update_task_metadata" data-source-line="42" data-uid="ent0032" id="entity_update_task_metadata"><rect fill="#E6F3FF" height="52.1973" rx="2.5" ry="2.5" style="stroke:#000000;stroke-width:1;" width="212.1855" x="4112.95" y="502.3779"/><text fill="#000000" font-family="Arial" font-size="14" lengthAdjust="spacing" textLength="142.4404" x="4122.95" y="525.5097">update_task_metadata</text><text fill="#000000" font-family="Arial" font-size="14" lengthAdjust="spacing" textLength="192.1855" x="4122.95" y="541.6083">maestro.data.markdown_writer</text></g><!--entity discussion_session--><g class="entity" data-entity="discussion_session" data-source-line="43" data-uid="ent0033" id="entity_discussion_session"><rect fill="#FFFFFF" height="46.0986" rx="2.5" ry="2.5" style="stroke:#000000;stroke-width:1;" width="160.6201" x="4456.73" y="281.0379"/><rect fill="#FFFFFF" height="10" style="stroke:#000000;stroke-width:1;" width="15" x="4597.3501" y="286.0379"/><rect fill="#FFFFFF" height="2" style="stroke:#000000;stroke-width:1;" width="4" x="4595.3501" y="288.0379"/><rect fill="#FFFFFF" height="2" style="stroke:#000000;stroke-width:1;" width="4" x="4595.3501" y="292.0379"/><text fill="#000000" font-family="Arial" font-size="14" lengthAdjust="spacing" textLength="120.6201" x="4471.73" y="314.1697">discussion_session</text></g><!--entity create_discussion_session--><g class="entity" data-entity="create_discussion_session" data-source-line="44" data-uid="ent0034" id="entity_create_discussion_session"><rect fill="#E6F3FF" height="52.1973" rx="2.5" ry="2.5" style="stroke:#000000;stroke-width:1;" width="187.3164" x="4443.38" y="149.5179"/><text fill="#000000" font-family="Arial" font-size="14" lengthAdjust="spacing" textLength="167.3164" x="4453.38" y="172.6497">create_discussion_session</text><text fill="#000000" font-family="Arial" font-size="14" lengthAdjust="spacing" textLength="119.8271" x="4453.38" y="188.7483">maestro.discussion</text></g><!--entity create_session--><g class="entity" data-entity="create_session" data-source-line="45" data-uid="ent0035" id="entity_create_session"><rect fill="#E6F3FF" height="52.1973" rx="2.5" ry="2.5" style="stroke:#000000;stroke-width:1;" width="159.2754" x="4353.4" y="390.1879"/><text fill="#000000" font-family="Arial" font-size="14" lengthAdjust="spacing" textLength="94.165" x="4363.4" y="413.3197">create_session</text><text fill="#000000" font-family="Arial" font-size="14" lengthAdjust="spacing" textLength="139.2754" x="4363.4" y="429.4183">maestro.work_session</text></g><!--entity get_breadcrumb_summary--><g class="entity" data-entity="get_breadcrumb_summary" data-source-line="46" data-uid="ent0036" id="entity_get_breadcrumb_summary"><rect fill="#E6F3FF" height="52.1973" rx="2.5" ry="2.5" style="stroke:#000000;stroke-width:1;" width="187.2959" x="4547.39" y="390.1879"/><text fill="#000000" font-family="Arial" font-size="14" lengthAdjust="spacing" textLength="167.2959" x="4557.39" y="413.3197">get_breadcrumb_summary</text><text fill="#000000" font-family="Arial" font-size="14" lengthAdjust="spacing" textLength="129.165" x="4557.39" y="429.4183">maestro.breadcrumb</text></g><!--entity docs_config_md--><g class="entity" data-entity="docs_config_md" data-source-line="47" data-uid="ent0037" id="entity_docs_config_md"><path d="M1658.06,403.7379 C1658.06,393.7379 1719.0356,393.7379 1719.0356,393.7379 C1719.0356,393.7379 1780.0112,393.7379 1780.0112,403.7379 L1780.0112,428.8365 C1780.0112,438.8365 1719.0356,438.8365 1719.0356,438.8365 C1719.0356,438.8365 1658.06,438.8365 1658.06,428.8365 L1658.06,403.7379" fill="#FFE6E6" style="stroke:#000000;stroke-width:1;"/><path d="M1658.06,403.7379 C1658.06,413.7379 1719.0356,413.7379 1719.0356,413.7379 C1719.0356,413.7379 1780.0112,413.7379 1780.0112,403.7379" fill="none" style="stroke:#000000;stroke-width:1;"/><text fill="#000000" font-family="Arial" font-size="14" lengthAdjust="spacing" textLength="101.9512" x="1668.06" y="430.8697">docs_config_md</text></g><!--entity docs_todo_md--><g class="entity" data-entity="docs_todo_md" data-source-line="48" data-uid="ent0038" id="entity_docs_todo_md"><path d="M3298.12,625.0779 C3298.12,615.0779 3354.0404,615.0779 3354.0404,615.0779 C3354.0404,615.0779 3409.9608,615.0779 3409.9608,625.0779 L3409.9608,650.1765 C3409.9608,660.1765 3354.0404,660.1765 3354.0404,660.1765 C3354.0404,660.1765 3298.12,660.1765 3298.12,650.1765 L3298.12,625.0779" fill="#FFE6E6" style="stroke:#000000;stroke-width:1;"/><path d="M3298.12,625.0779 C3298.12,635.0779 3354.0404,635.0779 3354.0404,635.0779 C3354.0404,635.0779 3409.9608,635.0779 3409.9608,625.0779" fill="none" style="stroke:#000000;stroke-width:1;"/><text fill="#000000" font-family="Arial" font-size="14" lengthAdjust="spacing" textLength="91.8408" x="3308.12" y="652.2097">docs_todo_md</text></g><!--entity docs_phases_md--><g class="entity" data-entity="docs_phases_md" data-source-line="49" data-uid="ent0039" id="entity_docs_phases_md"><path d="M4030.17,625.0779 C4030.17,615.0779 4095.0387,615.0779 4095.0387,615.0779 C4095.0387,615.0779 4159.9073,615.0779 4159.9073,625.0779 L4159.9073,650.1765 C4159.9073,660.1765 4095.0387,660.1765 4095.0387,660.1765 C4095.0387,660.1765 4030.17,660.1765 4030.17,650.1765 L4030.17,625.0779" fill="#FFE6E6" style="stroke:#000000;stroke-width:1;"/><path d="M4030.17,625.0779 C4030.17,635.0779 4095.0387,635.0779 4095.0387,635.0779 C4095.0387,635.0779 4159.9073,635.0779 4159.9073,625.0779" fill="none" style="stroke:#000000;stroke-width:1;"/><text fill="#000000" font-family="Arial" font-size="14" lengthAdjust="spacing" textLength="109.7373" x="4040.17" y="652.2097">docs_phases_md</text></g><!--entity maestro_ai_artifacts--><g class="entity" data-entity="maestro_ai_artifacts" data-source-line="50" data-uid="ent0040" id="entity_maestro_ai_artifacts"><path d="M2046.01,625.0779 C2046.01,615.0779 2119.0373,615.0779 2119.0373,615.0779 C2119.0373,615.0779 2192.0647,615.0779 2192.0647,625.0779 L2192.0647,650.1765 C2192.0647,660.1765 2119.0373,660.1765 2119.0373,660.1765 C2119.0373,660.1765 2046.01,660.1765 2046.01,650.1765 L2046.01,625.0779" fill="#FFE6E6" style="stroke:#000000;stroke-width:1;"/><path d="M2046.01,625.0779 C2046.01,635.0779 2119.0373,635.0779 2119.0373,635.0779 C2119.0373,635.0779 2192.0647,635.0779 2192.0647,625.0779" fill="none" style="stroke:#000000;stroke-width:1;"/><text fill="#000000" font-family="Arial" font-size="14" lengthAdjust="spacing" textLength="126.0547" x="2056.01" y="652.2097">maestro_ai_artifacts</text></g><!--entity work_sessions_json--><g class="entity" data-entity="work_sessions_json" data-source-line="51" data-uid="ent0041" id="entity_work_sessions_json"><path d="M4360.4,515.9279 C4360.4,505.9279 4433.0411,505.9279 4433.0411,505.9279 C4433.0411,505.9279 4505.6822,505.9279 4505.6822,515.9279 L4505.6822,541.0265 C4505.6822,551.0265 4433.0411,551.0265 4433.0411,551.0265 C4433.0411,551.0265 4360.4,551.0265 4360.4,541.0265 L4360.4,515.9279" fill="#FFE6E6" style="stroke:#000000;stroke-width:1;"/><path d="M4360.4,515.9279 C4360.4,525.9279 4433.0411,525.9279 4433.0411,525.9279 C4433.0411,525.9279 4505.6822,525.9279 4505.6822,515.9279" fill="none" style="stroke:#000000;stroke-width:1;"/><text fill="#000000" font-family="Arial" font-size="14" lengthAdjust="spacing" textLength="125.2822" x="4370.4" y="543.0597">work_sessions_json</text></g><!--link NOTE_ANCHOR to GMN3--><!--link main_entry to handle_discuss_command--><g class="link" data-entity-1="main_entry" data-entity-2="handle_discuss_command" data-source-line="52" data-uid="lnk42" id="link_main_entry_handle_discuss_command"><path d="M2400.04,202.2079 C2400.04,224.1479 2400.04,249.5979 2400.04,271.5279" fill="none" id="main_entry-to-handle_discuss_command" style="stroke:#333333;stroke-width:1;"/><polygon fill="#333333" points="2400.04,277.5279,2404.04,268.5279,2400.04,272.5279,2396.04,268.5279,2400.04,277.5279" style="stroke:#333333;stroke-width:1;"/></g><!--link handle_discuss_command to choose_mode--><g class="link" data-entity-1="handle_discuss_command" data-entity-2="choose_mode" data-source-line="53" data-uid="lnk43" id="link_handle_discuss_command_choose_mode"><path d="M2303.04,326.9879 C2217.85,346.2279 2100.3827,372.7564 2015.1227,392.0064" fill="none" id="handle_discuss_command-to-choose_mode" style="stroke:#333333;stroke-width:1;"/><polygon fill="#333333" points="2009.27,393.3279,2018.93,395.2475,2014.1472,392.2267,2017.1681,387.4439,2009.27,393.3279" style="stroke:#333333;stroke-width:1;"/></g><!--link handle_discuss_command to run_discussion_with_router--><g class="link" data-entity-1="handle_discuss_command" data-entity-2="run_discussion_with_router" data-source-line="54" data-uid="lnk44" id="link_handle_discuss_command_run_discussion_with_router"><path d="M2400.04,330.6479 C2400.04,348.4479 2400.04,366.0879 2400.04,383.8679" fill="none" id="handle_discuss_command-to-run_discussion_with_router" style="stroke:#333333;stroke-width:1;"/><polygon fill="#333333" points="2400.04,389.8679,2404.04,380.8679,2400.04,384.8679,2396.04,380.8679,2400.04,389.8679" style="stroke:#333333;stroke-width:1;"/></g><!--link handle_discuss_command to apply_patch_operations--><g class="link" data-entity-1="handle_discuss_command" data-entity-2="apply_patch_operations" data-source-line="55" data-uid="lnk45" id="link_handle_discuss_command_apply_patch_operations"><path d="M2497.13,315.0079 C2701.94,335.9479 3170.2111,383.8178 3375.0011,404.7478" fill="none" id="handle_discuss_command-to-apply_patch_operations" style="stroke:#333333;stroke-width:1;"/><polygon fill="#333333" points="3380.97,405.3579,3372.4233,400.4635,3375.9959,404.8495,3371.6099,408.4221,3380.97,405.3579" style="stroke:#333333;stroke-width:1;"/></g><!--link choose_mode to parse_config_md--><g class="link" data-entity-1="choose_mode" data-entity-2="parse_config_md" data-source-line="56" data-uid="lnk46" id="link_choose_mode_parse_config_md"><path d="M1866.58,442.8379 C1834.91,460.6479 1798.0902,481.3476 1766.4802,499.1176" fill="none" id="choose_mode-to-parse_config_md" style="stroke:#333333;stroke-width:1;"/><polygon fill="#333333" points="1761.25,502.0579,1771.0555,501.1343,1765.6085,499.6077,1767.1352,494.1607,1761.25,502.0579" style="stroke:#333333;stroke-width:1;"/></g><!--link run_discussion_with_router to ai_engine_manager--><g class="link" data-entity-1="run_discussion_with_router" data-entity-2="ai_engine_manager" data-source-line="57" data-uid="lnk47" id="link_run_discussion_with_router_ai_engine_manager"><path d="M2389.27,442.8179 C2382.85,459.4479 2375.34,481.8079 2372.04,502.3779 C2368.37,525.2879 2367.87,531.7579 2372.04,554.5779 C2375.87,575.5479 2382.3115,592.6592 2389.6015,608.8092" fill="none" id="run_discussion_with_router-to-ai_engine_manager" style="stroke:#333333;stroke-width:1;"/><polygon fill="#333333" points="2392.07,614.2779,2392.013,604.4292,2390.0129,609.7206,2384.7214,607.7205,2392.07,614.2779" style="stroke:#333333;stroke-width:1;"/></g><!--link run_discussion_with_router to discussion_router--><g class="link" data-entity-1="run_discussion_with_router" data-entity-2="discussion_router" data-source-line="58" data-uid="lnk48" id="link_run_discussion_with_router_discussion_router"><path d="M2414.88,442.8379 C2425.81,461.6579 2437.5161,481.8198 2447.9961,499.8598" fill="none" id="run_discussion_with_router-to-discussion_router" style="stroke:#333333;stroke-width:1;"/><polygon fill="#333333" points="2451.01,505.0479,2449.9478,495.2564,2448.4984,500.7244,2443.0304,499.275,2451.01,505.0479" style="stroke:#333333;stroke-width:1;"/></g><!--link run_discussion_with_router to json_contract--><g class="link" data-entity-1="run_discussion_with_router" data-entity-2="json_contract" data-source-line="59" data-uid="lnk49" id="link_run_discussion_with_router_json_contract"><path d="M2497.21,426.8879 C2598.71,438.8679 2748.81,462.7779 2790.04,502.3779 C2820.61,531.7479 2825.6519,578.188 2825.8419,608.098" fill="none" id="run_discussion_with_router-to-json_contract" style="stroke:#333333;stroke-width:1;"/><polygon fill="#333333" points="2825.88,614.0979,2829.8227,605.0726,2825.8482,609.098,2821.8229,605.1234,2825.88,614.0979" style="stroke:#333333;stroke-width:1;"/></g><!--link run_discussion_with_router to run_discussion--><g class="link" data-entity-1="run_discussion_with_router" data-entity-2="run_discussion" data-source-line="60" data-uid="lnk50" id="link_run_discussion_with_router_run_discussion"><path d="M2463.36,442.8379 C2507.46,460.6479 2560.4762,482.0419 2604.4962,499.8119" fill="none" id="run_discussion_with_router-to-run_discussion" style="stroke:#333333;stroke-width:1;"/><polygon fill="#333333" points="2610.06,502.0579,2603.2117,494.9797,2605.4235,500.1862,2600.217,502.3981,2610.06,502.0579" style="stroke:#333333;stroke-width:1;"/></g><!--link run_discussion_with_router to save_discussion_artifacts--><g class="link" data-entity-1="run_discussion_with_router" data-entity-2="save_discussion_artifacts" data-source-line="61" data-uid="lnk51" id="link_run_discussion_with_router_save_discussion_artifacts"><path d="M2302.82,441.4679 C2228.96,459.8379 2133.6626,483.5495 2059.8526,501.9095" fill="none" id="run_discussion_with_router-to-save_discussion_artifacts" style="stroke:#333333;stroke-width:1;"/><polygon fill="#333333" points="2054.03,503.3579,2063.7294,505.067,2058.8821,502.1509,2061.7983,497.3036,2054.03,503.3579" style="stroke:#333333;stroke-width:1;"/></g><!--link run_discussion_with_router to update_artifact_status--><g class="link" data-entity-1="run_discussion_with_router" data-entity-2="update_artifact_status" data-source-line="62" data-uid="lnk52" id="link_run_discussion_with_router_update_artifact_status"><path d="M2350.4,442.8379 C2315.83,460.6479 2275.2547,481.5417 2240.7347,499.3117" fill="none" id="run_discussion_with_router-to-update_artifact_status" style="stroke:#333333;stroke-width:1;"/><polygon fill="#333333" points="2235.4,502.0579,2245.2328,501.4951,2239.8456,499.7694,2241.5712,494.3822,2235.4,502.0579" style="stroke:#333333;stroke-width:1;"/></g><!--link run_discussion to ai_engine_manager--><g class="link" data-entity-1="run_discussion" data-entity-2="ai_engine_manager" data-source-line="63" data-uid="lnk53" id="link_run_discussion_ai_engine_manager"><path d="M2608.71,555.0079 C2563.32,573.0179 2508.6668,594.7145 2465.1268,611.9945" fill="none" id="run_discussion-to-ai_engine_manager" style="stroke:#333333;stroke-width:1;"/><polygon fill="#333333" points="2459.55,614.2079,2469.3908,614.6058,2464.1974,612.3634,2466.4397,607.17,2459.55,614.2079" style="stroke:#333333;stroke-width:1;"/></g><!--link run_discussion to json_contract--><g class="link" data-entity-1="run_discussion" data-entity-2="json_contract" data-source-line="64" data-uid="lnk54" id="link_run_discussion_json_contract"><path d="M2709.06,554.8779 C2734.61,572.8779 2763.676,593.3709 2788.246,610.6909" fill="none" id="run_discussion-to-json_contract" style="stroke:#333333;stroke-width:1;"/><polygon fill="#333333" points="2793.15,614.1479,2788.0986,605.6931,2789.0633,611.267,2783.4893,612.2318,2793.15,614.1479" style="stroke:#333333;stroke-width:1;"/></g><!--link run_discussion to patch_operation--><g class="link" data-entity-1="run_discussion" data-entity-2="patch_operation" data-source-line="65" data-uid="lnk55" id="link_run_discussion_patch_operation"><path d="M2669.48,554.8779 C2666.95,572.9479 2664.4232,591.056 2661.9932,608.386" fill="none" id="run_discussion-to-patch_operation" style="stroke:#333333;stroke-width:1;"/><polygon fill="#333333" points="2661.16,614.3279,2666.371,605.9705,2661.8543,609.3763,2658.4485,604.8596,2661.16,614.3279" style="stroke:#333333;stroke-width:1;"/></g><!--link apply_patch_operations to insert_track_block--><g class="link" data-entity-1="apply_patch_operations" data-entity-2="insert_track_block" data-source-line="66" data-uid="lnk56" id="link_apply_patch_operations_insert_track_block"><path d="M3381.03,438.9279 C3297.29,457.5979 3182.4061,483.2317 3096.0961,502.4817" fill="none" id="apply_patch_operations-to-insert_track_block" style="stroke:#333333;stroke-width:1;"/><polygon fill="#333333" points="3090.24,503.7879,3099.8949,505.7328,3095.1201,502.6994,3098.1534,497.9246,3090.24,503.7879" style="stroke:#333333;stroke-width:1;"/></g><!--link apply_patch_operations to insert_phase_block--><g class="link" data-entity-1="apply_patch_operations" data-entity-2="insert_phase_block" data-source-line="67" data-uid="lnk57" id="link_apply_patch_operations_insert_phase_block"><path d="M3420.75,442.8379 C3380.85,460.6479 3333.3296,481.8437 3293.4896,499.6137" fill="none" id="apply_patch_operations-to-insert_phase_block" style="stroke:#333333;stroke-width:1;"/><polygon fill="#333333" points="3288.01,502.0579,3297.8588,502.0448,3292.5764,500.0211,3294.6,494.7386,3288.01,502.0579" style="stroke:#333333;stroke-width:1;"/></g><!--link apply_patch_operations to insert_task_block--><g class="link" data-entity-1="apply_patch_operations" data-entity-2="insert_task_block" data-source-line="68" data-uid="lnk58" id="link_apply_patch_operations_insert_task_block"><path d="M3575.05,438.9279 C3658.78,457.5979 3773.6739,483.2317 3859.9839,502.4817" fill="none" id="apply_patch_operations-to-insert_task_block" style="stroke:#333333;stroke-width:1;"/><polygon fill="#333333" points="3865.84,503.7879,3857.9266,497.9246,3860.9599,502.6994,3856.1851,505.7328,3865.84,503.7879" style="stroke:#333333;stroke-width:1;"/></g><!--link apply_patch_operations to update_track_metadata--><g class="link" data-entity-1="apply_patch_operations" data-entity-2="update_track_metadata" data-source-line="69" data-uid="lnk59" id="link_apply_patch_operations_update_track_metadata"><path d="M3478.04,442.8379 C3478.04,460.6479 3478.04,478.2879 3478.04,496.0579" fill="none" id="apply_patch_operations-to-update_track_metadata" style="stroke:#333333;stroke-width:1;"/><polygon fill="#333333" points="3478.04,502.0579,3482.04,493.0579,3478.04,497.0579,3474.04,493.0579,3478.04,502.0579" style="stroke:#333333;stroke-width:1;"/></g><!--link apply_patch_operations to update_phase_metadata--><g class="link" data-entity-1="apply_patch_operations" data-entity-2="update_phase_metadata" data-source-line="70" data-uid="lnk60" id="link_apply_patch_operations_update_phase_metadata"><path d="M3535.33,442.8379 C3575.23,460.6479 3622.7506,481.8432 3662.5806,499.6132" fill="none" id="apply_patch_operations-to-update_phase_metadata" style="stroke:#333333;stroke-width:1;"/><polygon fill="#333333" points="3668.06,502.0579,3661.4706,494.738,3663.4938,500.0207,3658.2112,502.0439,3668.06,502.0579" style="stroke:#333333;stroke-width:1;"/></g><!--link apply_patch_operations to update_task_metadata--><g class="link" data-entity-1="apply_patch_operations" data-entity-2="update_task_metadata" data-source-line="71" data-uid="lnk61" id="link_apply_patch_operations_update_task_metadata"><path d="M3575.21,428.6979 C3697.19,443.4779 3912.68,471.0879 4096.04,502.3779 C4101.41,503.2979 4100.997,503.2036 4106.547,504.2136" fill="none" id="apply_patch_operations-to-update_task_metadata" style="stroke:#333333;stroke-width:1;"/><polygon fill="#333333" points="4112.45,505.2879,4104.3116,499.7411,4107.5308,504.3926,4102.8793,507.6118,4112.45,505.2879" style="stroke:#333333;stroke-width:1;"/></g><!--link save_discussion_artifacts to maestro_ai_artifacts--><g class="link" data-entity-1="save_discussion_artifacts" data-entity-2="maestro_ai_artifacts" data-source-line="72" data-uid="lnk62" id="link_save_discussion_artifacts_maestro_ai_artifacts"><path d="M1995.43,554.8779 C2022.94,573.0679 2054.6051,594.0186 2080.8451,611.3686" fill="none" id="save_discussion_artifacts-to-maestro_ai_artifacts" style="stroke:#333333;stroke-width:1;"/><polygon fill="#333333" points="2085.85,614.6779,2080.5488,606.3774,2081.6793,611.9201,2076.1365,613.0506,2085.85,614.6779" style="stroke:#333333;stroke-width:1;"/></g><!--link update_artifact_status to maestro_ai_artifacts--><g class="link" data-entity-1="update_artifact_status" data-entity-2="maestro_ai_artifacts" data-source-line="73" data-uid="lnk63" id="link_update_artifact_status_maestro_ai_artifacts"><path d="M2170.16,554.8779 C2158.78,573.0679 2146.8034,592.242 2135.9434,609.592" fill="none" id="update_artifact_status-to-maestro_ai_artifacts" style="stroke:#333333;stroke-width:1;"/><polygon fill="#333333" points="2132.76,614.6779,2140.9257,609.1714,2135.4128,610.4396,2134.1446,604.9268,2132.76,614.6779" style="stroke:#333333;stroke-width:1;"/></g><!--link insert_track_block to docs_todo_md--><g class="link" data-entity-1="insert_track_block" data-entity-2="docs_todo_md" data-source-line="74" data-uid="lnk64" id="link_insert_track_block_docs_todo_md"><path d="M3072.19,555.0079 C3142.19,575.2779 3232.1967,601.3493 3292.1267,618.6993" fill="none" id="insert_track_block-to-docs_todo_md" style="stroke:#333333;stroke-width:1;"/><polygon fill="#333333" points="3297.89,620.3679,3290.3573,614.0229,3293.0872,618.9774,3288.1327,621.7073,3297.89,620.3679" style="stroke:#333333;stroke-width:1;"/></g><!--link insert_phase_block to docs_todo_md--><g class="link" data-entity-1="insert_phase_block" data-entity-2="docs_todo_md" data-source-line="75" data-uid="lnk65" id="link_insert_phase_block_docs_todo_md"><path d="M3260.19,554.8779 C3281.07,573.0679 3304.3955,593.3871 3324.3155,610.7371" fill="none" id="insert_phase_block-to-docs_todo_md" style="stroke:#333333;stroke-width:1;"/><polygon fill="#333333" points="3328.84,614.6779,3324.6805,605.7505,3325.0696,611.3939,3319.4262,611.7831,3328.84,614.6779" style="stroke:#333333;stroke-width:1;"/></g><!--link insert_task_block to docs_phases_md--><g class="link" data-entity-1="insert_task_block" data-entity-2="docs_phases_md" data-source-line="76" data-uid="lnk66" id="link_insert_task_block_docs_phases_md"><path d="M4001.19,554.8779 C4022.07,573.0679 4045.3955,593.3871 4065.3155,610.7371" fill="none" id="insert_task_block-to-docs_phases_md" style="stroke:#333333;stroke-width:1;"/><polygon fill="#333333" points="4069.84,614.6779,4065.6805,605.7505,4066.0696,611.3939,4060.4262,611.7831,4069.84,614.6779" style="stroke:#333333;stroke-width:1;"/></g><!--link update_track_metadata to docs_todo_md--><g class="link" data-entity-1="update_track_metadata" data-entity-2="docs_todo_md" data-source-line="77" data-uid="lnk67" id="link_update_track_metadata_docs_todo_md"><path d="M3448.65,554.8779 C3427.6,573.0679 3404.06,593.4051 3383.98,610.7551" fill="none" id="update_track_metadata-to-docs_todo_md" style="stroke:#333333;stroke-width:1;"/><polygon fill="#333333" points="3379.44,614.6779,3388.8652,611.8204,3383.2234,611.4089,3383.6348,605.767,3379.44,614.6779" style="stroke:#333333;stroke-width:1;"/></g><!--link update_phase_metadata to docs_todo_md--><g class="link" data-entity-1="update_phase_metadata" data-entity-2="docs_todo_md" data-source-line="78" data-uid="lnk68" id="link_update_phase_metadata_docs_todo_md"><path d="M3636.65,555.0079 C3566.45,575.2779 3476.1945,601.3534 3416.1045,618.7034" fill="none" id="update_phase_metadata-to-docs_todo_md" style="stroke:#333333;stroke-width:1;"/><polygon fill="#333333" points="3410.34,620.3679,3420.0964,621.7143,3415.1438,618.9808,3417.8772,614.0282,3410.34,620.3679" style="stroke:#333333;stroke-width:1;"/></g><!--link update_task_metadata to docs_phases_md--><g class="link" data-entity-1="update_task_metadata" data-entity-2="docs_phases_md" data-source-line="79" data-uid="lnk69" id="link_update_task_metadata_docs_phases_md"><path d="M4189.65,554.8779 C4168.6,573.0679 4145.06,593.4051 4124.98,610.7551" fill="none" id="update_task_metadata-to-docs_phases_md" style="stroke:#333333;stroke-width:1;"/><polygon fill="#333333" points="4120.44,614.6779,4129.8652,611.8204,4124.2234,611.4089,4124.6348,605.767,4120.44,614.6779" style="stroke:#333333;stroke-width:1;"/></g><!--link create_discussion_session to discussion_session--><g class="link" data-entity-1="create_discussion_session" data-entity-2="discussion_session" data-source-line="80" data-uid="lnk70" id="link_create_discussion_session_discussion_session"><path d="M4537.04,202.2079 C4537.04,225.3079 4537.04,252.9379 4537.04,274.9079" fill="none" id="create_discussion_session-to-discussion_session" style="stroke:#333333;stroke-width:1;"/><polygon fill="#333333" points="4537.04,280.9079,4541.04,271.9079,4537.04,275.9079,4533.04,271.9079,4537.04,280.9079" style="stroke:#333333;stroke-width:1;"/></g><!--link discussion_session to create_session--><g class="link" data-entity-1="discussion_session" data-entity-2="create_session" data-source-line="81" data-uid="lnk71" id="link_discussion_session_create_session"><path d="M4515.99,327.3879 C4498.9,345.4979 4478.9096,366.6856 4461.0796,385.5656" fill="none" id="discussion_session-to-create_session" style="stroke:#333333;stroke-width:1;"/><polygon fill="#333333" points="4456.96,389.9279,4466.0475,386.1309,4460.393,386.2927,4460.2313,380.6381,4456.96,389.9279" style="stroke:#333333;stroke-width:1;"/></g><!--link discussion_session to get_breadcrumb_summary--><g class="link" data-entity-1="discussion_session" data-entity-2="get_breadcrumb_summary" data-source-line="82" data-uid="lnk72" id="link_discussion_session_get_breadcrumb_summary"><path d="M4558.08,327.3879 C4575.18,345.4979 4595.1716,366.6845 4612.9916,385.5645" fill="none" id="discussion_session-to-get_breadcrumb_summary" style="stroke:#333333;stroke-width:1;"/><polygon fill="#333333" points="4617.11,389.9279,4613.8413,380.6372,4613.678,386.2917,4608.0235,386.1284,4617.11,389.9279" style="stroke:#333333;stroke-width:1;"/></g><!--link create_session to work_sessions_json--><g class="link" data-entity-1="create_session" data-entity-2="work_sessions_json" data-source-line="83" data-uid="lnk73" id="link_create_session_work_sessions_json"><path d="M4433.04,442.8379 C4433.04,461.9179 4433.04,481.6979 4433.04,499.7779" fill="none" id="create_session-to-work_sessions_json" style="stroke:#333333;stroke-width:1;"/><polygon fill="#333333" points="4433.04,505.7779,4437.04,496.7779,4433.04,500.7779,4429.04,496.7779,4433.04,505.7779" style="stroke:#333333;stroke-width:1;"/></g><!--SRC=[dLZDRkCs4BxhATZiPJT093GBvB052gIsqzqYiOjjRcuWq19jivP8WQHiv5LwwhFrIJhKdqc9bEmQ0U8Cl-_Za4FEJFY3sfESe2B3b0NoG5c11SxH1YU7dU0bIsSyum9zUAe-1Y8bMrncweapjSIWy2WepepnHo7ugI5_hZx6u98hyWiNAH4DObPz-WYN4u0A55KPGREN-LrAPL9AYUvG-oqbf42KAI8Opj0suoVqaMya4KUIVa8VdrVp-ozenbE2vaHXcdqAWbAI14k2RZ1BzbpS82pHSlMwY1-Niw-hxy6U0jeqC70E2RhRAyItrWX2jxT_y58avCljBLglKvx8wCJ5GJiYe-DzH4MKv6baE1ycu4tuZlCCNGT_Umi8Iv7s9WW4IHHcEzYNcnnY6HEcnFkVBCT4Ai53RQiMTXv47nOFJvyXg0PrZrcQaRYPAavudeFbBDCOPDWWAaatQKHU2OXiYxzCtAACI1TxYEHrqXPbp6iihtNQOBY4uRHnc3g7W4u86aYNa2XPEm_bB3vHjO_Xui0bcD3r4rtJuAB8tkC2gsGVyu88h80qjHTkaajUuYCnlS52qIrErDGCNfvhah98iI8T9fOAgt9g1ZUfamTEmHbSAjWY2fThHnd42ZEy8tKs6LXDYk5vlVKLPM3rn_liFAQXMyqck1p_Im8ZWMmE5qrL7CjYGkkxQ65jamckRvS5jasMihumjh1fCQ6xZ6zmPeDxDYikYJvsSI5uGgHiadpVQFbj7zZQSTjcHWIgLhscBTt5kP4nuU1WoBxYaF8JJALXeX6p6AwpIXc0LPFxDXbF3ZxTaw1jg8Ua4Uaw55TA6wGnhtNahdMwuunStNfbELHlBNU1k9CtCa6zlkidi7bZAz3B_1yBC6ckEspSVKcgt_rKqfYj8YI85X-23CUwiReO-HZE6bU31vgwox6yj84kgHrHyGPGQIBAV1FB4ZArsUESn-fiu8HtmdeJDrNRfxkkyqMijymowSvpyR1uw7CKJxd5Q0m-V7L0fCNeJ0vEiwuOgaTNqfeURZZWu9jRB6ETpYlsqDnnZURmxkvdJsCNUFezpJ3wb36Ol-qOOxaxYS3iZJIibrY3aHwdKXtKvWc2epAF4-n2EW6sXwVGtjPdYkZkQ7giY_PdSebDKEpIwUaADNHOm2v06pNf4kskpeo1dNNZ0e9T1owPmKpiWR-TrHJNtGyy_QaNx-WHgfDjvB30KUnz6ADiTv0kiGNkyZlGSXTH7yokXOvP_KMgTuVRakX1scN9XtBNcg1NqpHoc7s3-ZqX8rldSyBYI5F2gWS5_JTQhuy_Hkq3HwIVE_GBGPSmjI4ioZn3JklRMoFIUsfeZadK_liJjQyDnJiwVvrYOneDigEXO1cdj7HWerutfBM69kiTnFisqnKvlQd__lqFUYOfP3Fq5VPIjfkxQbwAq1ncVsbcGd1f9PLAHm4oYBcnzNEJTlmdTBn7WXGS_XSgrHwL46Fq6uZ2pteTXX7yV7lv_NdnibY-Fhv-MotZvyNyryNt46g_Sw3Qe9QgbOMIKLOv7ISG8welWjJqPYMppcZko7y0]--></g></svg>