<svg xmlns="http://www.w3.org/2000/svg" xmlns:xlink="http://www.w3.org/1999/xlink" contentStyleType="text/css" data-diagram-type="DESCRIPTION" height="352px" preserveAspectRatio="none" style="width:2462px;height:352px;background:#FFFFFF;" version="1.1" viewBox="0 0 2462 352" width="2462px" zoomAndPan="magnify"><title>CMD-settings - Combined CLI+Code (LOD0)</title><defs/><g><g class="title" data-source-line="8"><text fill="#000000" font-family="Arial" font-size="22" font-weight="bold" lengthAdjust="spacing" textLength="457.7139" x="997.8667" y="35.6357">CMD-settings - Combined CLI+Code (LOD0)</text></g><!--cluster CLI Layer--><g class="cluster" data-entity="CLI Layer" data-source-line="20" data-uid="ent0007" id="cluster_CLI Layer"><path d="M1416.37,124.8379 L1481.1698,124.8379 A3.75,3.75 0 0 1 1483.6698,127.3379 L1490.6698,146.9365 L1742.37,146.9365 A2.5,2.5 0 0 1 1744.87,149.4365 L1744.87,339.1379 A2.5,2.5 0 0 1 1742.37,341.6379 L1416.37,341.6379 A2.5,2.5 0 0 1 1413.87,339.1379 L1413.87,127.3379 A2.5,2.5 0 0 1 1416.37,124.8379" fill="#E6F3FF" style="stroke:#000000;stroke-width:1;"/><line style="stroke:#000000;stroke-width:1;" x1="1413.87" x2="1490.6698" y1="146.9365" y2="146.9365"/><text fill="#000000" font-family="Arial" font-size="14" font-weight="bold" lengthAdjust="spacing" textLength="63.7998" x="1417.87" y="139.9697">CLI Layer</text></g><!--cluster Code Layer--><g class="cluster" data-entity="Code Layer" data-source-line="26" data-uid="ent0011" id="cluster_Code Layer"><path d="M1771.37,122.8379 L1848.618,122.8379 A3.75,3.75 0 0 1 1851.118,125.3379 L1858.118,144.9365 L2199.37,144.9365 A2.5,2.5 0 0 1 2201.87,147.4365 L2201.87,342.8079 A2.5,2.5 0 0 1 2199.37,345.3079 L1771.37,345.3079 A2.5,2.5 0 0 1 1768.87,342.8079 L1768.87,125.3379 A2.5,2.5 0 0 1 1771.37,122.8379" fill="#FFE6E6" style="stroke:#000000;stroke-width:1;"/><line style="stroke:#000000;stroke-width:1;" x1="1768.87" x2="1858.118" y1="144.9365" y2="144.9365"/><text fill="#000000" font-family="Arial" font-size="14" font-weight="bold" lengthAdjust="spacing" textLength="76.248" x="1772.87" y="137.9697">Code Layer</text></g><!--entity maestro settings--><g class="entity" data-entity="maestro settings" data-source-line="21" data-uid="ent0008" id="entity_maestro settings"><ellipse cx="1497.8666" cy="175.8872" fill="#FFFFFF" rx="68.2466" ry="16.0493" style="stroke:#000000;stroke-width:1;"/><text fill="#000000" font-family="Arial" font-size="14" lengthAdjust="spacing" textLength="102.71" x="1446.5116" y="180.4365">maestro settings</text></g><!--entity maestro config--><g class="entity" data-entity="maestro config" data-source-line="22" data-uid="ent0009" id="entity_maestro config"><ellipse cx="1664.8735" cy="175.8886" fill="#FFFFFF" rx="64.0535" ry="15.2107" style="stroke:#000000;stroke-width:1;"/><text fill="#000000" font-family="Arial" font-size="14" lengthAdjust="spacing" textLength="91.8203" x="1618.9633" y="180.4379">maestro config</text></g><!--entity maestro cfg--><g class="entity" data-entity="maestro cfg" data-source-line="23" data-uid="ent0010" id="entity_maestro cfg"><ellipse cx="1497.8662" cy="311.2613" fill="#FFFFFF" rx="54.7162" ry="14.3835" style="stroke:#000000;stroke-width:1;"/><text fill="#000000" font-family="Arial" font-size="14" lengthAdjust="spacing" textLength="73.1377" x="1461.2973" y="315.8106">maestro cfg</text></g><!--entity main--><g class="entity" data-entity="main" data-source-line="27" data-uid="ent0012" id="entity_main"><rect fill="#FFFFFF" height="36.0986" rx="2.5" ry="2.5" style="stroke:#000000;stroke-width:1;" width="50.3447" x="1784.7" y="157.8379"/><text fill="#000000" font-family="Arial" font-size="14" lengthAdjust="spacing" textLength="30.3447" x="1794.7" y="180.9697">main</text></g><!--entity handle_settings_command--><g class="entity" data-entity="handle_settings_command" data-source-line="28" data-uid="ent0013" id="entity_handle_settings_command"><rect fill="#FFFFFF" height="36.0986" rx="2.5" ry="2.5" style="stroke:#000000;stroke-width:1;" width="187.3301" x="1870.21" y="157.8379"/><text fill="#000000" font-family="Arial" font-size="14" lengthAdjust="spacing" textLength="167.3301" x="1880.21" y="180.9697">handle_settings_command</text></g><!--entity list_settings--><g class="entity" data-entity="list_settings" data-source-line="29" data-uid="ent0014" id="entity_list_settings"><rect fill="#FFFFFF" height="36.0986" rx="2.5" ry="2.5" style="stroke:#000000;stroke-width:1;" width="93.1445" x="2092.3" y="157.8379"/><text fill="#000000" font-family="Arial" font-size="14" lengthAdjust="spacing" textLength="73.1445" x="2102.3" y="180.9697">list_settings</text></g><!--entity get_setting--><g class="entity" data-entity="get_setting" data-source-line="30" data-uid="ent0015" id="entity_get_setting"><rect fill="#FFFFFF" height="36.0986" rx="2.5" ry="2.5" style="stroke:#000000;stroke-width:1;" width="88.4961" x="1784.62" y="293.2079"/><text fill="#000000" font-family="Arial" font-size="14" lengthAdjust="spacing" textLength="68.4961" x="1794.62" y="316.3397">get_setting</text></g><!--entity set_setting--><g class="entity" data-entity="set_setting" data-source-line="31" data-uid="ent0016" id="entity_set_setting"><rect fill="#FFFFFF" height="36.0986" rx="2.5" ry="2.5" style="stroke:#000000;stroke-width:1;" width="87.71" x="1908.02" y="293.2079"/><text fill="#000000" font-family="Arial" font-size="14" lengthAdjust="spacing" textLength="67.71" x="1918.02" y="316.3397">set_setting</text></g><!--entity NOTE_ANCHOR--><g class="entity" data-entity="N1" data-source-line="17" data-uid="ent0006" id="entity_N1"><path d="M2220.29,163.4179 L2220.29,188.3666 L2455.4472,188.3666 L2455.4472,173.4179 L2445.4472,163.4179 L2220.29,163.4179" fill="#FFFFCC" style="stroke:#CCCCCC;stroke-width:1;"/><path d="M2445.4472,163.4179 L2445.4472,173.4179 L2455.4472,173.4179 L2445.4472,163.4179" fill="#FFFFCC" style="stroke:#CCCCCC;stroke-width:1;"/><text fill="#000000" font-family="Arial" font-size="13" font-weight="bold" lengthAdjust="spacing" textLength="214.1572" x="2226.29" y="180.6117">Combined CLI + Code view (LOD0)</text></g><!--link NOTE_ANCHOR to GMN3--><!--SRC=[bLJDRjf04Bxp55DoQOc2cqJAeJqHOpT8W2D2JYYoDlRQh5ZlMhjh4Aho8ZtrsVeadTtOZabyoSeNvkURR-QRuOlPqe92oGaJ0xrZeYIA5F1CabskP2LINtAfu2nqhnEHqenKt8HIc2L1X8bYX7Vy4wNaeKw-Tg_ZN4f3RwLAgQeZVFVUH_IHmAY1OOPJy1VJ2qsDOIBNS06-B9wPe2duyzcvBrCAN-VHzFktmQ3ID26Qmf28P2lL48Y6PRGEuidIlujMWot3uAv1O75GBDyQaDc91s0qUf2LIkYFqGWscrGcsZj8jSkuF6XlV-KnvIL5wdN9ZHFEnaTISFXS-DFJW8eKB9l1AoTB_DAHw7OBv-3wtJDwg9iUZJgf9SwHvDY_ZPsJ8yKHd0KtuNKOmcz4Q-TJ4AgDaj0m6VOv4oaoblUxChI_T0jQMat5C0nkWXjNKT74495pbyl4yDIq9IBbD6vOn8ai2ZIzY-9CcxZBjEFBQUjwvz5TpqizLawpNgM3FMw6S5hRtn_rhXltQeRQQpKiZp0hIewt9GmnJ0gBtsvh7Oy2zyBkBnl4ji5naSA2g5qg3yAkKVK6dE5fV0BvZMA56tdFYJ2FYpcaZEJsyFhGm2P_tCQ-2sbaTlFxz-Slp6cQKmLtJ1ZTp35wrbJjSNcdn92sgv8gZPhQWGCJW6VHTe__DhHqB7x2_WhrB2KOLPcjtK4Dfw3ZPXrJPeMNweXHTXrjQwMI6UDK8mwJd1ZC3gFLxMmQhuBxA9v6wtWn2HxMgyY1FZG4DE8WDXElD_nw15QKIgCVYgO9h54Gqq5tiElLu_ek3jrQuRVPZCSUVhF5_JnO1ClrP3sBbl4ycFuALXQqr-4qRLBj29JH7dVZZHDKYQMse4slP-wtngvs_m40]--></g></svg>