<svg xmlns="http://www.w3.org/2000/svg" xmlns:xlink="http://www.w3.org/1999/xlink" contentStyleType="text/css" data-diagram-type="DESCRIPTION" height="351px" preserveAspectRatio="none" style="width:1727px;height:351px;background:#FFFFFF;" version="1.1" viewBox="0 0 1727 351" width="1727px" zoomAndPan="magnify"><title>CMD-understand - understand deep internal flow (observed) (LOD0: Code Modules)</title><defs/><g><g class="title" data-source-line="8"><text fill="#000000" font-family="Arial" font-size="22" font-weight="bold" lengthAdjust="spacing" textLength="871.4814" x="423.7043" y="35.6357">CMD-understand - understand deep internal flow (observed) (LOD0: Code Modules)</text></g><!--cluster Code Modules--><g class="cluster" data-entity="Code Modules" data-source-line="16" data-uid="ent0006" id="cluster_Code Modules"><path d="M1314.39,122.2079 L1411.0589,122.2079 A3.75,3.75 0 0 1 1413.5589,124.7079 L1420.5589,144.3065 L1718.39,144.3065 A2.5,2.5 0 0 1 1720.89,146.8065 L1720.89,342.2279 A2.5,2.5 0 0 1 1718.39,344.7279 L1314.39,344.7279 A2.5,2.5 0 0 1 1311.89,342.2279 L1311.89,124.7079 A2.5,2.5 0 0 1 1314.39,122.2079" fill="#FFFFFF" style="stroke:#000000;stroke-width:1;"/><line style="stroke:#000000;stroke-width:1;" x1="1311.89" x2="1420.5589" y1="144.3065" y2="144.3065"/><text fill="#000000" font-family="Arial" font-size="14" font-weight="bold" lengthAdjust="spacing" textLength="95.6689" x="1315.89" y="137.3397">Code Modules</text></g><!--entity understand--><g class="entity" data-entity="understand" data-source-line="17" data-uid="ent0007" id="entity_understand"><rect fill="#FFFFFF" height="46.0986" rx="2.5" ry="2.5" style="stroke:#000000;stroke-width:1;" width="110.0547" x="1327.86" y="157.2079"/><rect fill="#FFFFFF" height="10" style="stroke:#000000;stroke-width:1;" width="15" x="1417.9147" y="162.2079"/><rect fill="#FFFFFF" height="2" style="stroke:#000000;stroke-width:1;" width="4" x="1415.9147" y="164.2079"/><rect fill="#FFFFFF" height="2" style="stroke:#000000;stroke-width:1;" width="4" x="1415.9147" y="168.2079"/><text fill="#000000" font-family="Arial" font-size="14" lengthAdjust="spacing" textLength="70.0547" x="1342.86" y="190.3397">understand</text></g><!--entity main--><g class="entity" data-entity="main" data-source-line="18" data-uid="ent0008" id="entity_main"><rect fill="#FFFFFF" height="46.0986" rx="2.5" ry="2.5" style="stroke:#000000;stroke-width:1;" width="70.3447" x="1472.72" y="157.2079"/><rect fill="#FFFFFF" height="10" style="stroke:#000000;stroke-width:1;" width="15" x="1523.0647" y="162.2079"/><rect fill="#FFFFFF" height="2" style="stroke:#000000;stroke-width:1;" width="4" x="1521.0647" y="164.2079"/><rect fill="#FFFFFF" height="2" style="stroke:#000000;stroke-width:1;" width="4" x="1521.0647" y="168.2079"/><text fill="#000000" font-family="Arial" font-size="14" lengthAdjust="spacing" textLength="30.3447" x="1487.72" y="190.3397">main</text></g><!--entity utils--><g class="entity" data-entity="utils" data-source-line="19" data-uid="ent0009" id="entity_utils"><rect fill="#FFFFFF" height="46.0986" rx="2.5" ry="2.5" style="stroke:#000000;stroke-width:1;" width="64.8965" x="1578.44" y="157.2079"/><rect fill="#FFFFFF" height="10" style="stroke:#000000;stroke-width:1;" width="15" x="1623.3365" y="162.2079"/><rect fill="#FFFFFF" height="2" style="stroke:#000000;stroke-width:1;" width="4" x="1621.3365" y="164.2079"/><rect fill="#FFFFFF" height="2" style="stroke:#000000;stroke-width:1;" width="4" x="1621.3365" y="168.2079"/><text fill="#000000" font-family="Arial" font-size="14" lengthAdjust="spacing" textLength="24.8965" x="1593.44" y="190.3397">utils</text></g><!--entity command--><g class="entity" data-entity="command" data-source-line="20" data-uid="ent0010" id="entity_command"><rect fill="#FFFFFF" height="46.0986" rx="2.5" ry="2.5" style="stroke:#000000;stroke-width:1;" width="101.4688" x="1328.16" y="282.6279"/><rect fill="#FFFFFF" height="10" style="stroke:#000000;stroke-width:1;" width="15" x="1409.6288" y="287.6279"/><rect fill="#FFFFFF" height="2" style="stroke:#000000;stroke-width:1;" width="4" x="1407.6288" y="289.6279"/><rect fill="#FFFFFF" height="2" style="stroke:#000000;stroke-width:1;" width="4" x="1407.6288" y="293.6279"/><text fill="#000000" font-family="Arial" font-size="14" lengthAdjust="spacing" textLength="61.4688" x="1343.16" y="315.7597">command</text></g><!--entity introspector--><g class="entity" data-entity="introspector" data-source-line="21" data-uid="ent0011" id="entity_introspector"><rect fill="#FFFFFF" height="46.0986" rx="2.5" ry="2.5" style="stroke:#000000;stroke-width:1;" width="113.1445" x="1464.32" y="282.6279"/><rect fill="#FFFFFF" height="10" style="stroke:#000000;stroke-width:1;" width="15" x="1557.4645" y="287.6279"/><rect fill="#FFFFFF" height="2" style="stroke:#000000;stroke-width:1;" width="4" x="1555.4645" y="289.6279"/><rect fill="#FFFFFF" height="2" style="stroke:#000000;stroke-width:1;" width="4" x="1555.4645" y="293.6279"/><text fill="#000000" font-family="Arial" font-size="14" lengthAdjust="spacing" textLength="73.1445" x="1479.32" y="315.7597">introspector</text></g><!--entity renderer--><g class="entity" data-entity="renderer" data-source-line="22" data-uid="ent0012" id="entity_renderer"><rect fill="#FFFFFF" height="46.0986" rx="2.5" ry="2.5" style="stroke:#000000;stroke-width:1;" width="92.917" x="1612.43" y="282.6279"/><rect fill="#FFFFFF" height="10" style="stroke:#000000;stroke-width:1;" width="15" x="1685.347" y="287.6279"/><rect fill="#FFFFFF" height="2" style="stroke:#000000;stroke-width:1;" width="4" x="1683.347" y="289.6279"/><rect fill="#FFFFFF" height="2" style="stroke:#000000;stroke-width:1;" width="4" x="1683.347" y="293.6279"/><text fill="#000000" font-family="Arial" font-size="14" lengthAdjust="spacing" textLength="52.917" x="1627.43" y="315.7597">renderer</text></g><!--entity NOTE_ANCHOR--><!--link NOTE_ANCHOR to GMN3--><!--SRC=[bLF1Rjim3BtxAxZiqWPel7L03-qfTTorGE8CNMv14QWMamYH9OEI4mp3VcIdVTk-P9JZB7QG7Yhe896F5DyZzS6liK0ejL0cSXjbIa6YW5UHRrPaAoCJgot1nuTwjH0IbwBI_i4QdmdEC2GbTCi_9BAx9lXBlLhEp7gyjoIH6aHIhrF4kI8O5NdbDK8o6Lsn3ybvOIHSGUiY4KjGnYCPeM6fxGukxAj3sgAyX8lnTFJf5X8h4IPMLXhTPHHL3dFX47h2v6jBFH0EikaiNGopv77w7AqLmzi6mpK2gTNQWrrsF03z_dTRKOwt_JxCvzBcBjvPseHANBozZXN5UI7ZBeT1pXKDVeX2mxiZNbuYPEAXfYWgMJcnOYfjYZtuoONbjYYjGUEXTqnJSprUkx22HwC6XCD91g-qsmU7KzV9n-AGkpbt0TmVigx4t3TgjmrTA64e3lUmmoNw5Urxe75vjWNfbbjcwYQ4EpTY-pa-J4KSPYH8kZWINmJRe91mtimQloDDMN4Vtt9qslNc88MHJs_IcvhDtzz_O8noXGIF_Bexi9esSmqZuSL4q4RQdO6IdrJE1_giwqaT-_yHHkiEjjSiQ6d1K-NNm9-0a_AUpmU3cFVJvDiudQJPR3XxccQBSJhwcZu7YSuwQeKEeI4jUHVhkkX5pWyhAJow4DumIVuRsuhy0m00]--></g></svg>