<svg xmlns="http://www.w3.org/2000/svg" xmlns:xlink="http://www.w3.org/1999/xlink" contentStyleType="text/css" data-diagram-type="DESCRIPTION" height="716px" preserveAspectRatio="none" style="width:2593px;height:716px;background:#FFFFFF;" version="1.1" viewBox="0 0 2593 716" width="2593px" zoomAndPan="magnify"><title>CMD-solutions - solutions deep internal flow (observed) (LOD2: Code Detail)</title><defs/><g><g class="title" data-source-line="8"><text fill="#000000" font-family="Arial" font-size="22" font-weight="bold" lengthAdjust="spacing" textLength="798.1445" x="893.2856" y="35.6357">CMD-solutions - solutions deep internal flow (observed) (LOD2: Code Detail)</text></g><!--entity NOTE_ANCHOR--><!--entity main_entry--><g class="entity" data-entity="main_entry" data-source-line="16" data-uid="ent0006" id="entity_main_entry"><rect fill="#E6F3FF" height="52.1973" rx="2.5" ry="2.5" style="stroke:#000000;stroke-width:1;" width="123.4824" x="1304.28" y="161.0879"/><text fill="#000000" font-family="Arial" font-size="14" lengthAdjust="spacing" textLength="69.2549" x="1314.28" y="184.2197">main_entry</text><text fill="#000000" font-family="Arial" font-size="14" lengthAdjust="spacing" textLength="103.4824" x="1314.28" y="200.3183">maestro/main.py</text></g><!--entity handle_solutions_command--><g class="entity" data-entity="handle_solutions_command" data-source-line="17" data-uid="ent0007" id="entity_handle_solutions_command"><rect fill="#E6F3FF" height="52.1973" rx="2.5" ry="2.5" style="stroke:#000000;stroke-width:1;" width="220.751" x="1255.64" y="297.0379"/><text fill="#000000" font-family="Arial" font-size="14" lengthAdjust="spacing" textLength="174.3369" x="1265.64" y="320.1697">handle_solutions_command</text><text fill="#000000" font-family="Arial" font-size="14" lengthAdjust="spacing" textLength="200.751" x="1265.64" y="336.2683">maestro/commands/solutions.py</text></g><!--entity _find_repo_root--><g class="entity" data-entity="_find_repo_root" data-source-line="18" data-uid="ent0008" id="entity__find_repo_root"><rect fill="#E6F3FF" height="52.1973" rx="2.5" ry="2.5" style="stroke:#000000;stroke-width:1;" width="220.751" x="504.64" y="409.2379"/><text fill="#000000" font-family="Arial" font-size="14" lengthAdjust="spacing" textLength="98.0752" x="514.64" y="432.3697">_find_repo_root</text><text fill="#000000" font-family="Arial" font-size="14" lengthAdjust="spacing" textLength="200.751" x="514.64" y="448.4683">maestro/commands/solutions.py</text></g><!--entity _handle_list--><g class="entity" data-entity="_handle_list" data-source-line="19" data-uid="ent0009" id="entity__handle_list"><rect fill="#E6F3FF" height="52.1973" rx="2.5" ry="2.5" style="stroke:#000000;stroke-width:1;" width="220.751" x="855.64" y="409.2379"/><text fill="#000000" font-family="Arial" font-size="14" lengthAdjust="spacing" textLength="74.7236" x="865.64" y="432.3697">_handle_list</text><text fill="#000000" font-family="Arial" font-size="14" lengthAdjust="spacing" textLength="200.751" x="865.64" y="448.4683">maestro/commands/solutions.py</text></g><!--entity _handle_show--><g class="entity" data-entity="_handle_show" data-source-line="20" data-uid="ent0010" id="entity__handle_show"><rect fill="#E6F3FF" height="52.1973" rx="2.5" ry="2.5" style="stroke:#000000;stroke-width:1;" width="220.751" x="1127.64" y="409.2379"/><text fill="#000000" font-family="Arial" font-size="14" lengthAdjust="spacing" textLength="90.2959" x="1137.64" y="432.3697">_handle_show</text><text fill="#000000" font-family="Arial" font-size="14" lengthAdjust="spacing" textLength="200.751" x="1137.64" y="448.4683">maestro/commands/solutions.py</text></g><!--entity _handle_add--><g class="entity" data-entity="_handle_add" data-source-line="21" data-uid="ent0011" id="entity__handle_add"><rect fill="#E6F3FF" height="52.1973" rx="2.5" ry="2.5" style="stroke:#000000;stroke-width:1;" width="220.751" x="2065.64" y="409.2379"/><text fill="#000000" font-family="Arial" font-size="14" lengthAdjust="spacing" textLength="80.9717" x="2075.64" y="432.3697">_handle_add</text><text fill="#000000" font-family="Arial" font-size="14" lengthAdjust="spacing" textLength="200.751" x="2075.64" y="448.4683">maestro/commands/solutions.py</text></g><!--entity _handle_remove--><g class="entity" data-entity="_handle_remove" data-source-line="22" data-uid="ent0012" id="entity__handle_remove"><rect fill="#E6F3FF" height="52.1973" rx="2.5" ry="2.5" style="stroke:#000000;stroke-width:1;" width="220.751" x="1646.64" y="409.2379"/><text fill="#000000" font-family="Arial" font-size="14" lengthAdjust="spacing" textLength="104.2959" x="1656.64" y="432.3697">_handle_remove</text><text fill="#000000" font-family="Arial" font-size="14" lengthAdjust="spacing" textLength="200.751" x="1656.64" y="448.4683">maestro/commands/solutions.py</text></g><!--entity _handle_edit--><g class="entity" data-entity="_handle_edit" data-source-line="23" data-uid="ent0013" id="entity__handle_edit"><rect fill="#E6F3FF" height="52.1973" rx="2.5" ry="2.5" style="stroke:#000000;stroke-width:1;" width="220.751" x="1383.64" y="409.2379"/><text fill="#000000" font-family="Arial" font-size="14" lengthAdjust="spacing" textLength="80.1855" x="1393.64" y="432.3697">_handle_edit</text><text fill="#000000" font-family="Arial" font-size="14" lengthAdjust="spacing" textLength="200.751" x="1393.64" y="448.4683">maestro/commands/solutions.py</text></g><!--entity _find_solution_path--><g class="entity" data-entity="_find_solution_path" data-source-line="24" data-uid="ent0014" id="entity__find_solution_path"><rect fill="#E6F3FF" height="52.1973" rx="2.5" ry="2.5" style="stroke:#000000;stroke-width:1;" width="220.751" x="1120.64" y="521.4279"/><text fill="#000000" font-family="Arial" font-size="14" lengthAdjust="spacing" textLength="121.4336" x="1130.64" y="544.5597">_find_solution_path</text><text fill="#000000" font-family="Arial" font-size="14" lengthAdjust="spacing" textLength="200.751" x="1130.64" y="560.6583">maestro/commands/solutions.py</text></g><!--entity _open_editor--><g class="entity" data-entity="_open_editor" data-source-line="25" data-uid="ent0015" id="entity__open_editor"><rect fill="#E6F3FF" height="52.1973" rx="2.5" ry="2.5" style="stroke:#000000;stroke-width:1;" width="220.751" x="2198.64" y="521.4279"/><text fill="#000000" font-family="Arial" font-size="14" lengthAdjust="spacing" textLength="81.7373" x="2208.64" y="544.5597">_open_editor</text><text fill="#000000" font-family="Arial" font-size="14" lengthAdjust="spacing" textLength="200.751" x="2208.64" y="560.6583">maestro/commands/solutions.py</text></g><!--entity list_solutions--><g class="entity" data-entity="list_solutions" data-source-line="26" data-uid="ent0016" id="entity_list_solutions"><rect fill="#E6F3FF" height="52.1973" rx="2.5" ry="2.5" style="stroke:#000000;stroke-width:1;" width="239.4473" x="846.29" y="521.4279"/><text fill="#000000" font-family="Arial" font-size="14" lengthAdjust="spacing" textLength="80.1514" x="856.29" y="544.5597">list_solutions</text><text fill="#000000" font-family="Arial" font-size="14" lengthAdjust="spacing" textLength="219.4473" x="856.29" y="560.6583">maestro/solutions/solution_store.py</text></g><!--entity list_external_solutions--><g class="entity" data-entity="list_external_solutions" data-source-line="27" data-uid="ent0017" id="entity_list_external_solutions"><rect fill="#E6F3FF" height="52.1973" rx="2.5" ry="2.5" style="stroke:#000000;stroke-width:1;" width="239.4473" x="572.29" y="521.4279"/><text fill="#000000" font-family="Arial" font-size="14" lengthAdjust="spacing" textLength="137.7441" x="582.29" y="544.5597">list_external_solutions</text><text fill="#000000" font-family="Arial" font-size="14" lengthAdjust="spacing" textLength="219.4473" x="582.29" y="560.6583">maestro/solutions/solution_store.py</text></g><!--entity load_solution--><g class="entity" data-entity="load_solution" data-source-line="28" data-uid="ent0018" id="entity_load_solution"><rect fill="#E6F3FF" height="52.1973" rx="2.5" ry="2.5" style="stroke:#000000;stroke-width:1;" width="239.4473" x="1376.29" y="521.4279"/><text fill="#000000" font-family="Arial" font-size="14" lengthAdjust="spacing" textLength="82.5098" x="1386.29" y="544.5597">load_solution</text><text fill="#000000" font-family="Arial" font-size="14" lengthAdjust="spacing" textLength="219.4473" x="1386.29" y="560.6583">maestro/solutions/solution_store.py</text></g><!--entity write_solution--><g class="entity" data-entity="write_solution" data-source-line="29" data-uid="ent0019" id="entity_write_solution"><rect fill="#E6F3FF" height="52.1973" rx="2.5" ry="2.5" style="stroke:#000000;stroke-width:1;" width="239.4473" x="1924.29" y="521.4279"/><text fill="#000000" font-family="Arial" font-size="14" lengthAdjust="spacing" textLength="85.5996" x="1934.29" y="544.5597">write_solution</text><text fill="#000000" font-family="Arial" font-size="14" lengthAdjust="spacing" textLength="219.4473" x="1934.29" y="560.6583">maestro/solutions/solution_store.py</text></g><!--entity delete_solution--><g class="entity" data-entity="delete_solution" data-source-line="30" data-uid="ent0020" id="entity_delete_solution"><rect fill="#E6F3FF" height="52.1973" rx="2.5" ry="2.5" style="stroke:#000000;stroke-width:1;" width="239.4473" x="1650.29" y="521.4279"/><text fill="#000000" font-family="Arial" font-size="14" lengthAdjust="spacing" textLength="94.1855" x="1660.29" y="544.5597">delete_solution</text><text fill="#000000" font-family="Arial" font-size="14" lengthAdjust="spacing" textLength="219.4473" x="1660.29" y="560.6583">maestro/solutions/solution_store.py</text></g><!--entity SolutionDetails--><g class="entity" data-entity="SolutionDetails" data-source-line="31" data-uid="ent0021" id="entity_SolutionDetails"><rect fill="#FFFFFF" height="46.0986" rx="2.5" ry="2.5" style="stroke:#000000;stroke-width:1;" width="133.3857" x="2454.33" y="524.4779"/><rect fill="#FFFFFF" height="10" style="stroke:#000000;stroke-width:1;" width="15" x="2567.7157" y="529.4779"/><rect fill="#FFFFFF" height="2" style="stroke:#000000;stroke-width:1;" width="4" x="2565.7157" y="531.4779"/><rect fill="#FFFFFF" height="2" style="stroke:#000000;stroke-width:1;" width="4" x="2565.7157" y="535.4779"/><text fill="#000000" font-family="Arial" font-size="14" lengthAdjust="spacing" textLength="93.3857" x="2469.33" y="557.6097">SolutionDetails</text></g><!--entity SolutionRecord--><g class="entity" data-entity="SolutionRecord" data-source-line="32" data-uid="ent0022" id="entity_SolutionRecord"><rect fill="#FFFFFF" height="46.0986" rx="2.5" ry="2.5" style="stroke:#000000;stroke-width:1;" width="135.7236" x="1463.16" y="164.1379"/><rect fill="#FFFFFF" height="10" style="stroke:#000000;stroke-width:1;" width="15" x="1578.8836" y="169.1379"/><rect fill="#FFFFFF" height="2" style="stroke:#000000;stroke-width:1;" width="4" x="1576.8836" y="171.1379"/><rect fill="#FFFFFF" height="2" style="stroke:#000000;stroke-width:1;" width="4" x="1576.8836" y="175.1379"/><text fill="#000000" font-family="Arial" font-size="14" lengthAdjust="spacing" textLength="95.7236" x="1478.16" y="197.2697">SolutionRecord</text></g><!--entity docs_solutions_md--><g class="entity" data-entity="docs_solutions_md" data-source-line="33" data-uid="ent0023" id="entity_docs_solutions_md"><path d="M1426.09,659.6279 C1426.09,649.6279 1496.0138,649.6279 1496.0138,649.6279 C1496.0138,649.6279 1565.9377,649.6279 1565.9377,659.6279 L1565.9377,684.7265 C1565.9377,694.7265 1496.0138,694.7265 1496.0138,694.7265 C1496.0138,694.7265 1426.09,694.7265 1426.09,684.7265 L1426.09,659.6279" fill="#FFE6E6" style="stroke:#000000;stroke-width:1;"/><path d="M1426.09,659.6279 C1426.09,669.6279 1496.0138,669.6279 1496.0138,669.6279 C1496.0138,669.6279 1565.9377,669.6279 1565.9377,659.6279" fill="none" style="stroke:#000000;stroke-width:1;"/><text fill="#000000" font-family="Arial" font-size="14" lengthAdjust="spacing" textLength="119.8477" x="1436.09" y="686.7597">docs_solutions_md</text></g><!--entity filesystem--><g class="entity" data-entity="filesystem" data-source-line="34" data-uid="ent0024" id="entity_filesystem"><ellipse cx="875.022" cy="642.6279" fill="#FFFFFF" rx="8" ry="8" style="stroke:#000000;stroke-width:1;"/><path d="M875.022,650.6279 L875.022,677.6279 M862.022,658.6279 L888.022,658.6279 M875.022,677.6279 L862.022,692.6279 M875.022,677.6279 L888.022,692.6279" fill="none" style="stroke:#000000;stroke-width:1;"/><text fill="#000000" font-family="Arial" font-size="14" lengthAdjust="spacing" textLength="73.124" x="838.46" y="707.7597">File System</text></g><!--entity editor--><g class="entity" data-entity="editor" data-source-line="35" data-uid="ent0025" id="entity_editor"><ellipse cx="2235.0184" cy="642.6279" fill="#FFFFFF" rx="8" ry="8" style="stroke:#000000;stroke-width:1;"/><path d="M2235.0184,650.6279 L2235.0184,677.6279 M2222.0184,658.6279 L2248.0184,658.6279 M2235.0184,677.6279 L2222.0184,692.6279 M2235.0184,677.6279 L2248.0184,692.6279" fill="none" style="stroke:#000000;stroke-width:1;"/><text fill="#000000" font-family="Arial" font-size="14" lengthAdjust="spacing" textLength="103.7969" x="2183.12" y="707.7597">User's $EDITOR</text></g><!--entity subprocess--><g class="entity" data-entity="subprocess" data-source-line="36" data-uid="ent0026" id="entity_subprocess"><ellipse cx="2383.0197" cy="642.6279" fill="#FFFFFF" rx="8" ry="8" style="stroke:#000000;stroke-width:1;"/><path d="M2383.0197,650.6279 L2383.0197,677.6279 M2370.0197,658.6279 L2396.0197,658.6279 M2383.0197,677.6279 L2370.0197,692.6279 M2383.0197,677.6279 L2396.0197,692.6279" fill="none" style="stroke:#000000;stroke-width:1;"/><text fill="#000000" font-family="Arial" font-size="14" lengthAdjust="spacing" textLength="121.3994" x="2322.32" y="707.7597">subprocess module</text></g><!--link NOTE_ANCHOR to GMN3--><!--link main_entry to handle_solutions_command--><g class="link" data-entity-1="main_entry" data-entity-2="handle_solutions_command" data-source-line="37" data-uid="lnk27" id="link_main_entry_handle_solutions_command"><path d="M1366.02,213.6979 C1366.02,237.5379 1366.02,266.9179 1366.02,290.7179" fill="none" id="main_entry-to-handle_solutions_command" style="stroke:#333333;stroke-width:1;"/><polygon fill="#333333" points="1366.02,296.7179,1370.02,287.7179,1366.02,291.7179,1362.02,287.7179,1366.02,296.7179" style="stroke:#333333;stroke-width:1;"/></g><!--link handle_solutions_command to _find_repo_root--><g class="link" data-entity-1="handle_solutions_command" data-entity-2="_find_repo_root" data-source-line="38" data-uid="lnk28" id="link_handle_solutions_command__find_repo_root"><path d="M1255.21,340.3979 C1113.01,361.2579 873.7265,396.3769 731.6065,417.2269" fill="none" id="handle_solutions_command-to-_find_repo_root" style="stroke:#333333;stroke-width:1;"/><polygon fill="#333333" points="725.67,418.0979,735.1553,420.7491,730.617,417.3721,733.9941,412.8338,725.67,418.0979" style="stroke:#333333;stroke-width:1;"/></g><!--link handle_solutions_command to _handle_list--><g class="link" data-entity-1="handle_solutions_command" data-entity-2="_handle_list" data-source-line="39" data-uid="lnk29" id="link_handle_solutions_command__handle_list"><path d="M1273.24,349.6979 C1208.74,367.4679 1128.8946,389.4646 1064.4146,407.2246" fill="none" id="handle_solutions_command-to-_handle_list" style="stroke:#333333;stroke-width:1;"/><polygon fill="#333333" points="1058.63,408.8179,1068.3691,410.2843,1063.4505,407.4901,1066.2447,402.5715,1058.63,408.8179" style="stroke:#333333;stroke-width:1;"/></g><!--link handle_solutions_command to _handle_show--><g class="link" data-entity-1="handle_solutions_command" data-entity-2="_handle_show" data-source-line="40" data-uid="lnk30" id="link_handle_solutions_command__handle_show"><path d="M1336.33,349.6979 C1315.65,367.4979 1292.7368,387.223 1272.0868,405.003" fill="none" id="handle_solutions_command-to-_handle_show" style="stroke:#333333;stroke-width:1;"/><polygon fill="#333333" points="1267.54,408.9179,1276.9702,406.0767,1271.329,405.6554,1271.7503,400.0143,1267.54,408.9179" style="stroke:#333333;stroke-width:1;"/></g><!--link handle_solutions_command to _handle_add--><g class="link" data-entity-1="handle_solutions_command" data-entity-2="_handle_add" data-source-line="41" data-uid="lnk31" id="link_handle_solutions_command__handle_add"><path d="M1476.52,339.1679 C1631.18,360.2079 1904.6248,397.4088 2059.3848,418.4688" fill="none" id="handle_solutions_command-to-_handle_add" style="stroke:#333333;stroke-width:1;"/><polygon fill="#333333" points="2065.33,419.2779,2056.9515,414.1008,2060.3757,418.6037,2055.8728,422.0278,2065.33,419.2779" style="stroke:#333333;stroke-width:1;"/></g><!--link handle_solutions_command to _handle_remove--><g class="link" data-entity-1="handle_solutions_command" data-entity-2="_handle_remove" data-source-line="42" data-uid="lnk32" id="link_handle_solutions_command__handle_remove"><path d="M1456.7,349.6979 C1519.76,367.4679 1597.6949,389.4304 1660.7149,407.1904" fill="none" id="handle_solutions_command-to-_handle_remove" style="stroke:#333333;stroke-width:1;"/><polygon fill="#333333" points="1666.49,408.8179,1658.9124,402.5266,1661.6775,407.4616,1656.7424,410.2266,1666.49,408.8179" style="stroke:#333333;stroke-width:1;"/></g><!--link handle_solutions_command to _handle_edit--><g class="link" data-entity-1="handle_solutions_command" data-entity-2="_handle_edit" data-source-line="43" data-uid="lnk33" id="link_handle_solutions_command__handle_edit"><path d="M1395.71,349.6979 C1416.38,367.4979 1439.3041,387.2219 1459.9441,405.0019" fill="none" id="handle_solutions_command-to-_handle_edit" style="stroke:#333333;stroke-width:1;"/><polygon fill="#333333" points="1464.49,408.9179,1460.2818,400.0133,1460.7018,405.6545,1455.0605,406.0745,1464.49,408.9179" style="stroke:#333333;stroke-width:1;"/></g><!--link _handle_list to list_solutions--><g class="link" data-entity-1="_handle_list" data-entity-2="list_solutions" data-source-line="44" data-uid="lnk34" id="link__handle_list_list_solutions"><path d="M966.02,461.8879 C966.02,479.6979 966.02,497.3379 966.02,515.1079" fill="none" id="_handle_list-to-list_solutions" style="stroke:#333333;stroke-width:1;"/><polygon fill="#333333" points="966.02,521.1079,970.02,512.1079,966.02,516.1079,962.02,512.1079,966.02,521.1079" style="stroke:#333333;stroke-width:1;"/></g><!--link list_solutions to docs_solutions_md--><g class="link" data-entity-1="list_solutions" data-entity-2="docs_solutions_md" data-source-line="45" data-uid="lnk35" id="link_list_solutions_docs_solutions_md"><path d="M1076.48,574.0879 C1181.6,598.4179 1330.7444,632.9354 1419.9544,653.5754" fill="none" id="list_solutions-to-docs_solutions_md" style="stroke:#333333;stroke-width:1;"/><polygon fill="#333333" points="1425.8,654.9279,1417.9333,649.0021,1420.9287,653.8008,1416.13,656.7962,1425.8,654.9279" style="stroke:#333333;stroke-width:1;"/></g><!--link _handle_list to list_external_solutions--><g class="link" data-entity-1="_handle_list" data-entity-2="list_external_solutions" data-source-line="46" data-uid="lnk36" id="link__handle_list_list_external_solutions"><path d="M902.47,461.8879 C858.2,479.6979 804.9768,501.0993 760.7868,518.8693" fill="none" id="_handle_list-to-list_external_solutions" style="stroke:#333333;stroke-width:1;"/><polygon fill="#333333" points="755.22,521.1079,765.0625,521.4612,759.859,519.2424,762.0778,514.0389,755.22,521.1079" style="stroke:#333333;stroke-width:1;"/></g><!--link _handle_show to _find_solution_path--><g class="link" data-entity-1="_handle_show" data-entity-2="_find_solution_path" data-source-line="47" data-uid="lnk37" id="link__handle_show__find_solution_path"><path d="M1236.39,461.8879 C1235.26,479.6979 1234.1408,497.3499 1233.0108,515.1199" fill="none" id="_handle_show-to-_find_solution_path" style="stroke:#333333;stroke-width:1;"/><polygon fill="#333333" points="1232.63,521.1079,1237.1931,512.3798,1232.9473,516.1179,1229.2092,511.8721,1232.63,521.1079" style="stroke:#333333;stroke-width:1;"/></g><!--link _find_solution_path to docs_solutions_md--><g class="link" data-entity-1="_find_solution_path" data-entity-2="docs_solutions_md" data-source-line="48" data-uid="lnk38" id="link__find_solution_path_docs_solutions_md"><path d="M1286.25,574.0879 C1334.18,596.2779 1397.4048,625.5379 1442.9548,646.6179" fill="none" id="_find_solution_path-to-docs_solutions_md" style="stroke:#333333;stroke-width:1;"/><polygon fill="#333333" points="1448.4,649.1379,1441.9122,641.7278,1443.8624,647.0379,1438.5523,648.988,1448.4,649.1379" style="stroke:#333333;stroke-width:1;"/></g><!--link _handle_show to load_solution--><g class="link" data-entity-1="_handle_show" data-entity-2="load_solution" data-source-line="49" data-uid="lnk39" id="link__handle_show_load_solution"><path d="M1297.86,461.8879 C1339.54,479.6979 1389.3721,500.9814 1430.9821,518.7514" fill="none" id="_handle_show-to-load_solution" style="stroke:#333333;stroke-width:1;"/><polygon fill="#333333" points="1436.5,521.1079,1429.7942,513.8946,1431.9018,519.1441,1426.6522,521.2517,1436.5,521.1079" style="stroke:#333333;stroke-width:1;"/></g><!--link load_solution to docs_solutions_md--><g class="link" data-entity-1="load_solution" data-entity-2="docs_solutions_md" data-source-line="50" data-uid="lnk40" id="link_load_solution_docs_solutions_md"><path d="M1496.02,573.9479 C1496.02,596.2579 1496.02,622.3579 1496.02,643.4879" fill="none" id="load_solution-to-docs_solutions_md" style="stroke:#333333;stroke-width:1;"/><polygon fill="#333333" points="1496.02,649.4879,1500.02,640.4879,1496.02,644.4879,1492.02,640.4879,1496.02,649.4879" style="stroke:#333333;stroke-width:1;"/></g><!--link _handle_add to SolutionDetails--><g class="link" data-entity-1="_handle_add" data-entity-2="SolutionDetails" data-source-line="51" data-uid="lnk41" id="link__handle_add_SolutionDetails"><path d="M2256.04,461.8879 C2316.05,481.0579 2391.5544,505.1824 2448.1944,523.2724" fill="none" id="_handle_add-to-SolutionDetails" style="stroke:#333333;stroke-width:1;"/><polygon fill="#333333" points="2453.91,525.0979,2446.5536,518.5493,2449.147,523.5766,2444.1197,526.17,2453.91,525.0979" style="stroke:#333333;stroke-width:1;"/></g><!--link _handle_add to write_solution--><g class="link" data-entity-1="_handle_add" data-entity-2="write_solution" data-source-line="52" data-uid="lnk42" id="link__handle_add_write_solution"><path d="M2145.4,461.8879 C2124.08,479.6979 2100.3663,499.4931 2079.0763,517.2631" fill="none" id="_handle_add-to-write_solution" style="stroke:#333333;stroke-width:1;"/><polygon fill="#333333" points="2074.47,521.1079,2083.9426,518.4116,2078.3086,517.9039,2078.8163,512.2699,2074.47,521.1079" style="stroke:#333333;stroke-width:1;"/></g><!--link write_solution to docs_solutions_md--><g class="link" data-entity-1="write_solution" data-entity-2="docs_solutions_md" data-source-line="53" data-uid="lnk43" id="link_write_solution_docs_solutions_md"><path d="M1929.81,574.0879 C1820.18,598.6279 1663.9452,633.5978 1572.0952,654.1478" fill="none" id="write_solution-to-docs_solutions_md" style="stroke:#333333;stroke-width:1;"/><polygon fill="#333333" points="1566.24,655.4579,1575.8962,657.3963,1571.1194,654.3662,1574.1495,649.5893,1566.24,655.4579" style="stroke:#333333;stroke-width:1;"/></g><!--link _handle_add to _open_editor--><g class="link" data-entity-1="_handle_add" data-entity-2="_open_editor" data-source-line="54" data-uid="lnk44" id="link__handle_add__open_editor"><path d="M2206.87,461.8879 C2228.35,479.6979 2252.2696,499.5101 2273.7196,517.2801" fill="none" id="_handle_add-to-_open_editor" style="stroke:#333333;stroke-width:1;"/><polygon fill="#333333" points="2278.34,521.1079,2273.9612,512.286,2274.4896,517.9181,2268.8575,518.4465,2278.34,521.1079" style="stroke:#333333;stroke-width:1;"/></g><!--link _open_editor to subprocess--><g class="link" data-entity-1="_open_editor" data-entity-2="subprocess" data-source-line="55" data-uid="lnk45" id="link__open_editor_subprocess"><path d="M2324.35,573.9479 C2334.68,591.0679 2345.3917,608.8097 2357.0117,628.0797" fill="none" id="_open_editor-to-subprocess" style="stroke:#333333;stroke-width:1;"/><polygon fill="#333333" points="2360.11,633.2179,2358.8879,623.4451,2357.5281,628.9361,2352.0371,627.5762,2360.11,633.2179" style="stroke:#333333;stroke-width:1;"/></g><!--link _open_editor to editor--><g class="link" data-entity-1="_open_editor" data-entity-2="editor" data-source-line="56" data-uid="lnk46" id="link__open_editor_editor"><path d="M2293.69,573.9479 C2283.36,591.0679 2272.6503,608.8109 2261.0203,628.0809" fill="none" id="_open_editor-to-editor" style="stroke:#333333;stroke-width:1;"/><polygon fill="#333333" points="2257.92,633.2179,2265.9951,627.5793,2260.5036,628.9371,2259.1458,623.4456,2257.92,633.2179" style="stroke:#333333;stroke-width:1;"/></g><!--link _handle_remove to delete_solution--><g class="link" data-entity-1="_handle_remove" data-entity-2="delete_solution" data-source-line="57" data-uid="lnk47" id="link__handle_remove_delete_solution"><path d="M1760.03,461.8879 C1762.13,479.6979 1764.2158,497.3793 1766.3158,515.1493" fill="none" id="_handle_remove-to-delete_solution" style="stroke:#333333;stroke-width:1;"/><polygon fill="#333333" points="1767.02,521.1079,1769.9361,511.7006,1766.4332,516.1424,1761.9914,512.6395,1767.02,521.1079" style="stroke:#333333;stroke-width:1;"/></g><!--link delete_solution to docs_solutions_md--><g class="link" data-entity-1="delete_solution" data-entity-2="docs_solutions_md" data-source-line="58" data-uid="lnk48" id="link_delete_solution_docs_solutions_md"><path d="M1712.91,574.0879 C1663.35,596.2779 1597.8265,625.6068 1550.7265,646.6868" fill="none" id="delete_solution-to-docs_solutions_md" style="stroke:#333333;stroke-width:1;"/><polygon fill="#333333" points="1545.25,649.1379,1555.0988,649.1123,1549.8138,647.0953,1551.8307,641.8102,1545.25,649.1379" style="stroke:#333333;stroke-width:1;"/></g><!--link _handle_edit to _find_solution_path--><g class="link" data-entity-1="_handle_edit" data-entity-2="_find_solution_path" data-source-line="59" data-uid="lnk49" id="link__handle_edit__find_solution_path"><path d="M1433.02,461.8879 C1390.53,479.6979 1339.6339,501.0191 1297.2239,518.7891" fill="none" id="_handle_edit-to-_find_solution_path" style="stroke:#333333;stroke-width:1;"/><polygon fill="#333333" points="1291.69,521.1079,1301.5366,521.319,1296.3015,519.1756,1298.445,513.9405,1291.69,521.1079" style="stroke:#333333;stroke-width:1;"/></g><!--link _handle_edit to _open_editor--><g class="link" data-entity-1="_handle_edit" data-entity-2="_open_editor" data-source-line="60" data-uid="lnk50" id="link__handle_edit__open_editor"><path d="M1604.78,457.6179 C1612.97,458.9779 1621.12,460.2679 1629.02,461.4279 C1873.17,497.3479 1937.05,484.3179 2181.02,521.4279 C2186.73,522.2979 2186.653,522.2533 2192.543,523.2433" fill="none" id="_handle_edit-to-_open_editor" style="stroke:#333333;stroke-width:1;"/><polygon fill="#333333" points="2198.46,524.2379,2190.2475,518.8014,2193.5292,523.4091,2188.9215,526.6907,2198.46,524.2379" style="stroke:#333333;stroke-width:1;"/></g><!--link _find_repo_root to filesystem--><g class="link" data-entity-1="_find_repo_root" data-entity-2="filesystem" data-source-line="61" data-uid="lnk51" id="link__find_repo_root_filesystem"><path d="M588.93,461.9179 C562.57,490.9279 529.16,538.7179 555.02,573.6279 C589.2,619.7779 755.5902,651.8601 832.2402,664.5201" fill="none" id="_find_repo_root-to-filesystem" style="stroke:#333333;stroke-width:1;"/><polygon fill="#333333" points="838.16,665.4979,829.9321,660.0847,833.2268,664.6831,828.6285,667.9778,838.16,665.4979" style="stroke:#333333;stroke-width:1;"/></g><!--link _find_solution_path to filesystem--><g class="link" data-entity-1="_find_solution_path" data-entity-2="filesystem" data-source-line="62" data-uid="lnk52" id="link__find_solution_path_filesystem"><path d="M1156.82,574.0879 C1082.04,599.8579 975.3427,636.6133 917.7027,656.4733" fill="none" id="_find_solution_path-to-filesystem" style="stroke:#333333;stroke-width:1;"/><polygon fill="#333333" points="912.03,658.4279,921.8421,659.2778,916.7573,656.7991,919.236,651.7142,912.03,658.4279" style="stroke:#333333;stroke-width:1;"/></g><!--SRC=[dLV1Rjiu4BtpArXtWRO18g4fa4CNM22rvMsAn2eSzvGj14OSsqGaKY0fU_ChUzflsoyfAScMA4jQEO8Fvl3D6sf8lXczqLj80MS9OHofPyOp8acAdqZyl94YvtGg4Y7nstdnD10KrYHFz5nmlI26uKOoaZJcRwGK-yhvK_4q9XT2mnSXASWACIsUDg9h4GQ5DDC9uEdzx5A99DTCS8KlSVsV0cIOSGsIamIl4x77xyMJ0ha3-W6_lmjdLv_nL530Cz249HyGoXN4H06U41vlXPnWel0YN0NHpMBwDLoYBJFefe6R1MB9DbkDnTgPmVZYua7aCeRF5nVuyP6AMFbx8P_jGfI_k_APzEEK-iuBUB5PZ_T2qWIVw_3p9m9EiLqHGX9YJVZ6v6UIcZsDW6lvyXTF2IWjXMzjNlPIl5yzZzy6r_DFPdyRtbl2QGBHCLuKYpGrjfghCYY_NbF5tEVR5ITQCquZ2Pc8f11w37tBfPErMaB2r3ZA1dw8Jst5_Xm-Yn_Y8vIUGsVWGsmIKh63SmXBZo5EeEoi35fy_puVtAACwEtulNRSEjb51ho8BUGesWQ-Yy-UW_hyren7q_5Vf0m577XTlrvc-BiKfrU7E2NeZ2L8dRip8ZJTkdZtacbu1R7hryLC8O5NKRSSZzpc26I26vN3auTghXHzLRYrR5tm9SIcL3deqeGeqUIfg1fMiXjobvRm4wijOS5rS8r8RC_TPCxCEp-yA0rfuR0sOrKC3uWVfcgzK_YtO7Qx2fS5g3oq1u3Adp8fOb16pmND4oWmjHKrLFxoyezUQKQzccszMehxF-26bev3MfKSXpG2E0vO2jiuhCqeSYg0dNMlCchTR8iusTyUajFBYfpwK6VOqJdKfNt3SOzqpXL6xeKUfh0bnYBQDwCzxzvbrBhQus8qLHWvacnd6uVuPExWuvQn8geh1AWj3CChAwfNxtwSW9prjxeI2sXSwBxDR43AfZA1TMTF6UnC3ygBhjAEJplBmQg7cmFJCGuo38WjFh7qaUq- -eSUtBSTkMrX6qct9Y_BJR_ROtVQsjvs-oYfDaN__VCllWEw0Oc_cjZgaAgmQlvDookVgTXpd85KvchQV9el1NS9vVU3VOdVyUuAsnt5MkPclynNWiBV7aANrFEzAd6OCblBXD7QN95DGTqw5eQIYOHeGpGFbrzkPz4o-1v6it1bICtlyT4pV9v_U__zBhWF5gkRrMsuYEw2sP_1qZCbf7EYs8E3guqbjVAJ8XDHRCu2epQYTQ_ICpqQcsd-1G00]--></g></svg>