<svg xmlns="http://www.w3.org/2000/svg" xmlns:xlink="http://www.w3.org/1999/xlink" contentStyleType="text/css" data-diagram-type="DESCRIPTION" height="741px" preserveAspectRatio="none" style="width:2159px;height:741px;background:#FFFFFF;" version="1.1" viewBox="0 0 2159 741" width="2159px" zoomAndPan="magnify"><title>CMD-solutions - solutions deep internal flow (observed) (LOD1: Code Functions)</title><defs/><g><g class="title" data-source-line="8"><text fill="#000000" font-family="Arial" font-size="22" font-weight="bold" lengthAdjust="spacing" textLength="843.3369" x="653.3591" y="35.6357">CMD-solutions - solutions deep internal flow (observed) (LOD1: Code Functions)</text></g><!--entity NOTE_ANCHOR--><!--entity main_entry--><g class="entity" data-entity="main_entry" data-source-line="16" data-uid="ent0006" id="entity_main_entry"><rect fill="#FFFFFF" height="52.1973" rx="2.5" ry="2.5" style="stroke:#000000;stroke-width:1;" width="132.8066" x="1304.61" y="161.0879"/><text fill="#000000" font-family="Arial" font-size="14" lengthAdjust="spacing" textLength="69.2549" x="1314.61" y="184.2197">main_entry</text><text fill="#000000" font-family="Arial" font-size="14" lengthAdjust="spacing" textLength="112.8066" x="1314.61" y="200.3183">(maestro/main.py)</text></g><!--entity handle_solutions_command--><g class="entity" data-entity="handle_solutions_command" data-source-line="17" data-uid="ent0007" id="entity_handle_solutions_command"><rect fill="#FFFFFF" height="52.1973" rx="2.5" ry="2.5" style="stroke:#000000;stroke-width:1;" width="230.0752" x="1255.98" y="297.0379"/><text fill="#000000" font-family="Arial" font-size="14" lengthAdjust="spacing" textLength="174.3369" x="1265.98" y="320.1697">handle_solutions_command</text><text fill="#000000" font-family="Arial" font-size="14" lengthAdjust="spacing" textLength="210.0752" x="1265.98" y="336.2683">(maestro/commands/solutions.py)</text></g><!--entity _find_repo_root--><g class="entity" data-entity="_find_repo_root" data-source-line="18" data-uid="ent0008" id="entity__find_repo_root"><rect fill="#FFFFFF" height="52.1973" rx="2.5" ry="2.5" style="stroke:#000000;stroke-width:1;" width="230.0752" x="447.98" y="409.2379"/><text fill="#000000" font-family="Arial" font-size="14" lengthAdjust="spacing" textLength="98.0752" x="457.98" y="432.3697">_find_repo_root</text><text fill="#000000" font-family="Arial" font-size="14" lengthAdjust="spacing" textLength="210.0752" x="457.98" y="448.4683">(maestro/commands/solutions.py)</text></g><!--entity _handle_list--><g class="entity" data-entity="_handle_list" data-source-line="19" data-uid="ent0009" id="entity__handle_list"><rect fill="#FFFFFF" height="52.1973" rx="2.5" ry="2.5" style="stroke:#000000;stroke-width:1;" width="230.0752" x="712.98" y="409.2379"/><text fill="#000000" font-family="Arial" font-size="14" lengthAdjust="spacing" textLength="74.7236" x="722.98" y="432.3697">_handle_list</text><text fill="#000000" font-family="Arial" font-size="14" lengthAdjust="spacing" textLength="210.0752" x="722.98" y="448.4683">(maestro/commands/solutions.py)</text></g><!--entity _handle_show--><g class="entity" data-entity="_handle_show" data-source-line="20" data-uid="ent0010" id="entity__handle_show"><rect fill="#FFFFFF" height="52.1973" rx="2.5" ry="2.5" style="stroke:#000000;stroke-width:1;" width="230.0752" x="1118.98" y="409.2379"/><text fill="#000000" font-family="Arial" font-size="14" lengthAdjust="spacing" textLength="90.2959" x="1128.98" y="432.3697">_handle_show</text><text fill="#000000" font-family="Arial" font-size="14" lengthAdjust="spacing" textLength="210.0752" x="1128.98" y="448.4683">(maestro/commands/solutions.py)</text></g><!--entity _handle_add--><g class="entity" data-entity="_handle_add" data-source-line="21" data-uid="ent0011" id="entity__handle_add"><rect fill="#FFFFFF" height="52.1973" rx="2.5" ry="2.5" style="stroke:#000000;stroke-width:1;" width="230.0752" x="1392.98" y="409.2379"/><text fill="#000000" font-family="Arial" font-size="14" lengthAdjust="spacing" textLength="80.9717" x="1402.98" y="432.3697">_handle_add</text><text fill="#000000" font-family="Arial" font-size="14" lengthAdjust="spacing" textLength="210.0752" x="1402.98" y="448.4683">(maestro/commands/solutions.py)</text></g><!--entity _handle_remove--><g class="entity" data-entity="_handle_remove" data-source-line="22" data-uid="ent0012" id="entity__handle_remove"><rect fill="#FFFFFF" height="52.1973" rx="2.5" ry="2.5" style="stroke:#000000;stroke-width:1;" width="230.0752" x="1657.98" y="409.2379"/><text fill="#000000" font-family="Arial" font-size="14" lengthAdjust="spacing" textLength="104.2959" x="1667.98" y="432.3697">_handle_remove</text><text fill="#000000" font-family="Arial" font-size="14" lengthAdjust="spacing" textLength="210.0752" x="1667.98" y="448.4683">(maestro/commands/solutions.py)</text></g><!--entity _handle_edit--><g class="entity" data-entity="_handle_edit" data-source-line="23" data-uid="ent0013" id="entity__handle_edit"><rect fill="#FFFFFF" height="52.1973" rx="2.5" ry="2.5" style="stroke:#000000;stroke-width:1;" width="230.0752" x="1922.98" y="409.2379"/><text fill="#000000" font-family="Arial" font-size="14" lengthAdjust="spacing" textLength="80.1855" x="1932.98" y="432.3697">_handle_edit</text><text fill="#000000" font-family="Arial" font-size="14" lengthAdjust="spacing" textLength="210.0752" x="1932.98" y="448.4683">(maestro/commands/solutions.py)</text></g><!--entity _find_solution_path--><g class="entity" data-entity="_find_solution_path" data-source-line="24" data-uid="ent0014" id="entity__find_solution_path"><rect fill="#FFFFFF" height="52.1973" rx="2.5" ry="2.5" style="stroke:#000000;stroke-width:1;" width="230.0752" x="844.98" y="533.8779"/><text fill="#000000" font-family="Arial" font-size="14" lengthAdjust="spacing" textLength="121.4336" x="854.98" y="557.0097">_find_solution_path</text><text fill="#000000" font-family="Arial" font-size="14" lengthAdjust="spacing" textLength="210.0752" x="854.98" y="573.1083">(maestro/commands/solutions.py)</text></g><!--entity _open_editor--><g class="entity" data-entity="_open_editor" data-source-line="25" data-uid="ent0015" id="entity__open_editor"><rect fill="#FFFFFF" height="52.1973" rx="2.5" ry="2.5" style="stroke:#000000;stroke-width:1;" width="230.0752" x="1676.98" y="533.8779"/><text fill="#000000" font-family="Arial" font-size="14" lengthAdjust="spacing" textLength="81.7373" x="1686.98" y="557.0097">_open_editor</text><text fill="#000000" font-family="Arial" font-size="14" lengthAdjust="spacing" textLength="210.0752" x="1686.98" y="573.1083">(maestro/commands/solutions.py)</text></g><!--entity list_solutions--><g class="entity" data-entity="list_solutions" data-source-line="26" data-uid="ent0016" id="entity_list_solutions"><rect fill="#FFFFFF" height="52.1973" rx="2.5" ry="2.5" style="stroke:#000000;stroke-width:1;" width="248.7715" x="277.63" y="533.8779"/><text fill="#000000" font-family="Arial" font-size="14" lengthAdjust="spacing" textLength="80.1514" x="287.63" y="557.0097">list_solutions</text><text fill="#000000" font-family="Arial" font-size="14" lengthAdjust="spacing" textLength="228.7715" x="287.63" y="573.1083">(maestro/solutions/solution_store.py)</text></g><!--entity list_external_solutions--><g class="entity" data-entity="list_external_solutions" data-source-line="27" data-uid="ent0017" id="entity_list_external_solutions"><rect fill="#FFFFFF" height="52.1973" rx="2.5" ry="2.5" style="stroke:#000000;stroke-width:1;" width="248.7715" x="561.63" y="533.8779"/><text fill="#000000" font-family="Arial" font-size="14" lengthAdjust="spacing" textLength="137.7441" x="571.63" y="557.0097">list_external_solutions</text><text fill="#000000" font-family="Arial" font-size="14" lengthAdjust="spacing" textLength="228.7715" x="571.63" y="573.1083">(maestro/solutions/solution_store.py)</text></g><!--entity load_solution--><g class="entity" data-entity="load_solution" data-source-line="28" data-uid="ent0018" id="entity_load_solution"><rect fill="#FFFFFF" height="52.1973" rx="2.5" ry="2.5" style="stroke:#000000;stroke-width:1;" width="248.7715" x="1109.63" y="533.8779"/><text fill="#000000" font-family="Arial" font-size="14" lengthAdjust="spacing" textLength="82.5098" x="1119.63" y="557.0097">load_solution</text><text fill="#000000" font-family="Arial" font-size="14" lengthAdjust="spacing" textLength="228.7715" x="1119.63" y="573.1083">(maestro/solutions/solution_store.py)</text></g><!--entity write_solution--><g class="entity" data-entity="write_solution" data-source-line="29" data-uid="ent0019" id="entity_write_solution"><rect fill="#FFFFFF" height="52.1973" rx="2.5" ry="2.5" style="stroke:#000000;stroke-width:1;" width="248.7715" x="1393.63" y="533.8779"/><text fill="#000000" font-family="Arial" font-size="14" lengthAdjust="spacing" textLength="85.5996" x="1403.63" y="557.0097">write_solution</text><text fill="#000000" font-family="Arial" font-size="14" lengthAdjust="spacing" textLength="228.7715" x="1403.63" y="573.1083">(maestro/solutions/solution_store.py)</text></g><!--entity delete_solution--><g class="entity" data-entity="delete_solution" data-source-line="30" data-uid="ent0020" id="entity_delete_solution"><rect fill="#FFFFFF" height="52.1973" rx="2.5" ry="2.5" style="stroke:#000000;stroke-width:1;" width="248.7715" x="1472.63" y="161.0879"/><text fill="#000000" font-family="Arial" font-size="14" lengthAdjust="spacing" textLength="94.1855" x="1482.63" y="184.2197">delete_solution</text><text fill="#000000" font-family="Arial" font-size="14" lengthAdjust="spacing" textLength="228.7715" x="1482.63" y="200.3183">(maestro/solutions/solution_store.py)</text></g><!--entity docs_solutions_md--><g class="entity" data-entity="docs_solutions_md" data-source-line="39" data-uid="ent0029" id="entity_docs_solutions_md"><ellipse cx="1097.0138" cy="667.5279" fill="#FFFFFF" rx="8" ry="8" style="stroke:#000000;stroke-width:1;"/><path d="M1097.0138,675.5279 L1097.0138,702.5279 M1084.0138,683.5279 L1110.0138,683.5279 M1097.0138,702.5279 L1084.0138,717.5279 M1097.0138,702.5279 L1110.0138,717.5279" fill="none" style="stroke:#000000;stroke-width:1;"/><text fill="#000000" font-family="Arial" font-size="14" lengthAdjust="spacing" textLength="119.8477" x="1037.09" y="732.6597">docs_solutions_md</text></g><!--entity SolutionDetails--><g class="entity" data-entity="SolutionDetails" data-source-line="45" data-uid="ent0036" id="entity_SolutionDetails"><ellipse cx="1989.0229" cy="530.4279" fill="#FFFFFF" rx="8" ry="8" style="stroke:#000000;stroke-width:1;"/><path d="M1989.0229,538.4279 L1989.0229,565.4279 M1976.0229,546.4279 L2002.0229,546.4279 M1989.0229,565.4279 L1976.0229,580.4279 M1989.0229,565.4279 L2002.0229,580.4279" fill="none" style="stroke:#000000;stroke-width:1;"/><text fill="#000000" font-family="Arial" font-size="14" lengthAdjust="spacing" textLength="93.3857" x="1942.33" y="595.5597">SolutionDetails</text></g><!--entity subprocess--><g class="entity" data-entity="subprocess" data-source-line="49" data-uid="ent0041" id="entity_subprocess"><ellipse cx="1748.0164" cy="667.5279" fill="#FFFFFF" rx="8" ry="8" style="stroke:#000000;stroke-width:1;"/><path d="M1748.0164,675.5279 L1748.0164,702.5279 M1735.0164,683.5279 L1761.0164,683.5279 M1748.0164,702.5279 L1735.0164,717.5279 M1748.0164,702.5279 L1761.0164,717.5279" fill="none" style="stroke:#000000;stroke-width:1;"/><text fill="#000000" font-family="Arial" font-size="14" lengthAdjust="spacing" textLength="71.5928" x="1712.22" y="732.6597">subprocess</text></g><!--entity editor--><g class="entity" data-entity="editor" data-source-line="50" data-uid="ent0043" id="entity_editor"><ellipse cx="1836.0203" cy="667.5279" fill="#FFFFFF" rx="8" ry="8" style="stroke:#000000;stroke-width:1;"/><path d="M1836.0203,675.5279 L1836.0203,702.5279 M1823.0203,683.5279 L1849.0203,683.5279 M1836.0203,702.5279 L1823.0203,717.5279 M1836.0203,702.5279 L1849.0203,717.5279" fill="none" style="stroke:#000000;stroke-width:1;"/><text fill="#000000" font-family="Arial" font-size="14" lengthAdjust="spacing" textLength="35.0205" x="1818.51" y="732.6597">editor</text></g><!--link NOTE_ANCHOR to GMN3--><!--link main_entry to handle_solutions_command--><g class="link" data-entity-1="main_entry" data-entity-2="handle_solutions_command" data-source-line="31" data-uid="lnk21" id="link_main_entry_handle_solutions_command"><path d="M1371.02,213.6979 C1371.02,237.5379 1371.02,266.9179 1371.02,290.7179" fill="none" id="main_entry-to-handle_solutions_command" style="stroke:#333333;stroke-width:1;"/><polygon fill="#333333" points="1371.02,296.7179,1375.02,287.7179,1371.02,291.7179,1367.02,287.7179,1371.02,296.7179" style="stroke:#333333;stroke-width:1;"/></g><!--link handle_solutions_command to _find_repo_root--><g class="link" data-entity-1="handle_solutions_command" data-entity-2="_find_repo_root" data-source-line="32" data-uid="lnk22" id="link_handle_solutions_command__find_repo_root"><path d="M1255.58,336.4379 C1120.76,351.3179 891.16,378.2679 695.02,409.2379 C689.6,410.0879 689.9849,409.9908 684.4049,410.9408" fill="none" id="handle_solutions_command-to-_find_repo_root" style="stroke:#333333;stroke-width:1;"/><polygon fill="#333333" points="678.49,411.9479,688.0337,414.3806,683.4191,411.1087,686.691,406.4941,678.49,411.9479" style="stroke:#333333;stroke-width:1;"/></g><!--link handle_solutions_command to _handle_list--><g class="link" data-entity-1="handle_solutions_command" data-entity-2="_handle_list" data-source-line="33" data-uid="lnk23" id="link_handle_solutions_command__handle_list"><path d="M1255.53,347.5679 C1163.51,366.2479 1041.1902,391.0749 949.2102,409.7349" fill="none" id="handle_solutions_command-to-_handle_list" style="stroke:#333333;stroke-width:1;"/><polygon fill="#333333" points="943.33,410.9279,952.9456,413.0586,948.2302,409.9338,951.355,405.2183,943.33,410.9279" style="stroke:#333333;stroke-width:1;"/></g><!--link handle_solutions_command to _handle_show--><g class="link" data-entity-1="handle_solutions_command" data-entity-2="_handle_show" data-source-line="34" data-uid="lnk24" id="link_handle_solutions_command__handle_show"><path d="M1339.24,349.6979 C1317.11,367.4979 1292.3959,387.3781 1270.2959,405.1481" fill="none" id="handle_solutions_command-to-_handle_show" style="stroke:#333333;stroke-width:1;"/><polygon fill="#333333" points="1265.62,408.9079,1275.1404,406.3855,1269.5166,405.7747,1270.1274,400.1509,1265.62,408.9079" style="stroke:#333333;stroke-width:1;"/></g><!--link handle_solutions_command to _handle_add--><g class="link" data-entity-1="handle_solutions_command" data-entity-2="_handle_add" data-source-line="35" data-uid="lnk25" id="link_handle_solutions_command__handle_add"><path d="M1402.79,349.6979 C1424.93,367.4979 1449.6441,387.3781 1471.7441,405.1481" fill="none" id="handle_solutions_command-to-_handle_add" style="stroke:#333333;stroke-width:1;"/><polygon fill="#333333" points="1476.42,408.9079,1471.9126,400.1509,1472.5234,405.7747,1466.8996,406.3855,1476.42,408.9079" style="stroke:#333333;stroke-width:1;"/></g><!--link handle_solutions_command to _handle_remove--><g class="link" data-entity-1="handle_solutions_command" data-entity-2="_handle_remove" data-source-line="36" data-uid="lnk26" id="link_handle_solutions_command__handle_remove"><path d="M1464.26,349.6979 C1529.08,367.4679 1609.3635,389.4717 1674.1535,407.2317" fill="none" id="handle_solutions_command-to-_handle_remove" style="stroke:#333333;stroke-width:1;"/><polygon fill="#333333" points="1679.94,408.8179,1672.3177,402.5809,1675.1179,407.496,1670.2027,410.2963,1679.94,408.8179" style="stroke:#333333;stroke-width:1;"/></g><!--link handle_solutions_command to _handle_edit--><g class="link" data-entity-1="handle_solutions_command" data-entity-2="_handle_edit" data-source-line="37" data-uid="lnk27" id="link_handle_solutions_command__handle_edit"><path d="M1486.51,341.4779 C1594.97,358.0079 1761.72,384.0479 1906.02,409.2379 C1911.42,410.1779 1911.0344,410.0976 1916.6044,411.0976" fill="none" id="handle_solutions_command-to-_handle_edit" style="stroke:#333333;stroke-width:1;"/><polygon fill="#333333" points="1922.51,412.1579,1914.3585,406.6304,1917.5887,411.2743,1912.9448,414.5045,1922.51,412.1579" style="stroke:#333333;stroke-width:1;"/></g><!--link _handle_list to list_solutions--><g class="link" data-entity-1="_handle_list" data-entity-2="list_solutions" data-source-line="38" data-uid="lnk28" id="link__handle_list_list_solutions"><path d="M739.23,461.8979 C666.32,482.8879 569.3358,510.808 496.4558,531.788" fill="none" id="_handle_list-to-list_solutions" style="stroke:#333333;stroke-width:1;"/><polygon fill="#333333" points="490.69,533.4479,500.4453,534.802,495.4949,532.0647,498.2322,527.1142,490.69,533.4479" style="stroke:#333333;stroke-width:1;"/></g><!--link list_solutions to docs_solutions_md--><g class="link" data-entity-1="list_solutions" data-entity-2="docs_solutions_md" data-source-line="39" data-uid="lnk30" id="link_list_solutions_docs_solutions_md"><path d="M494.17,586.5479 C510.71,590.7979 527.83,594.9679 544.02,598.5279 C722.06,637.6979 929.1381,670.7966 1031.0281,686.2766" fill="none" id="list_solutions-to-docs_solutions_md" style="stroke:#333333;stroke-width:1;"/><polygon fill="#333333" points="1036.96,687.1779,1028.6629,681.8714,1032.0167,686.4268,1027.4613,689.7806,1036.96,687.1779" style="stroke:#333333;stroke-width:1;"/></g><!--link _handle_list to list_external_solutions--><g class="link" data-entity-1="_handle_list" data-entity-2="list_external_solutions" data-source-line="40" data-uid="lnk31" id="link__handle_list_list_external_solutions"><path d="M798.6,461.7479 C774.22,482.7979 744.3008,508.6359 719.9408,529.6759" fill="none" id="_handle_list-to-list_external_solutions" style="stroke:#333333;stroke-width:1;"/><polygon fill="#333333" points="715.4,533.5979,724.8258,530.7422,719.184,530.3296,719.5965,524.6878,715.4,533.5979" style="stroke:#333333;stroke-width:1;"/></g><!--link _handle_show to _find_solution_path--><g class="link" data-entity-1="_handle_show" data-entity-2="_find_solution_path" data-source-line="41" data-uid="lnk32" id="link__handle_show__find_solution_path"><path d="M1176.91,461.8979 C1130.02,482.8879 1069.4066,510.0169 1022.5266,530.9969" fill="none" id="_handle_show-to-_find_solution_path" style="stroke:#333333;stroke-width:1;"/><polygon fill="#333333" points="1017.05,533.4479,1026.8988,533.4225,1021.6138,531.4054,1023.6309,526.1204,1017.05,533.4479" style="stroke:#333333;stroke-width:1;"/></g><!--link _find_solution_path to docs_solutions_md--><g class="link" data-entity-1="_find_solution_path" data-entity-2="docs_solutions_md" data-source-line="42" data-uid="lnk33" id="link__find_solution_path_docs_solutions_md"><path d="M985.79,586.3879 C1006.33,606.6479 1031.1272,631.1056 1054.4072,654.0556" fill="none" id="_find_solution_path-to-docs_solutions_md" style="stroke:#333333;stroke-width:1;"/><polygon fill="#333333" points="1058.68,658.2679,1055.0789,649.1009,1055.1193,654.7576,1049.4626,654.798,1058.68,658.2679" style="stroke:#333333;stroke-width:1;"/></g><!--link _handle_show to load_solution--><g class="link" data-entity-1="_handle_show" data-entity-2="load_solution" data-source-line="43" data-uid="lnk34" id="link__handle_show_load_solution"><path d="M1234.02,461.7479 C1234.02,482.7979 1234.02,506.5579 1234.02,527.5979" fill="none" id="_handle_show-to-load_solution" style="stroke:#333333;stroke-width:1;"/><polygon fill="#333333" points="1234.02,533.5979,1238.02,524.5979,1234.02,528.5979,1230.02,524.5979,1234.02,533.5979" style="stroke:#333333;stroke-width:1;"/></g><!--link load_solution to docs_solutions_md--><g class="link" data-entity-1="load_solution" data-entity-2="docs_solutions_md" data-source-line="44" data-uid="lnk35" id="link_load_solution_docs_solutions_md"><path d="M1208.25,586.3879 C1187.71,606.6479 1162.9019,631.1047 1139.6319,654.0547" fill="none" id="load_solution-to-docs_solutions_md" style="stroke:#333333;stroke-width:1;"/><polygon fill="#333333" points="1135.36,658.2679,1144.5766,654.796,1138.9199,654.7569,1138.9591,649.1002,1135.36,658.2679" style="stroke:#333333;stroke-width:1;"/></g><!--link _handle_add to SolutionDetails--><g class="link" data-entity-1="_handle_add" data-entity-2="SolutionDetails" data-source-line="45" data-uid="lnk37" id="link__handle_add_SolutionDetails"><path d="M1623.51,458.9279 C1741.93,482.2579 1910.8,515.9779 1925.02,521.4279 C1930.67,523.5979 1931.0685,523.505 1936.6585,526.365" fill="none" id="_handle_add-to-SolutionDetails" style="stroke:#333333;stroke-width:1;"/><polygon fill="#333333" points="1942,529.0979,1935.8097,521.4376,1937.5488,526.8205,1932.1659,528.5596,1942,529.0979" style="stroke:#333333;stroke-width:1;"/></g><!--link _handle_add to write_solution--><g class="link" data-entity-1="_handle_add" data-entity-2="write_solution" data-source-line="46" data-uid="lnk38" id="link__handle_add_write_solution"><path d="M1510.09,461.7479 C1511.81,482.7979 1513.7411,506.5778 1515.4611,527.6178" fill="none" id="_handle_add-to-write_solution" style="stroke:#333333;stroke-width:1;"/><polygon fill="#333333" points="1515.95,533.5979,1519.2034,524.3019,1515.5426,528.6145,1511.23,524.9537,1515.95,533.5979" style="stroke:#333333;stroke-width:1;"/></g><!--link write_solution to docs_solutions_md--><g class="link" data-entity-1="write_solution" data-entity-2="docs_solutions_md" data-source-line="47" data-uid="lnk39" id="link_write_solution_docs_solutions_md"><path d="M1438.34,586.5479 C1356.57,612.7879 1236.8932,651.1951 1163.0132,674.8951" fill="none" id="write_solution-to-docs_solutions_md" style="stroke:#333333;stroke-width:1;"/><polygon fill="#333333" points="1157.3,676.7279,1167.0917,677.7875,1162.061,675.2006,1164.648,670.1699,1157.3,676.7279" style="stroke:#333333;stroke-width:1;"/></g><!--link _handle_add to _open_editor--><g class="link" data-entity-1="_handle_add" data-entity-2="_open_editor" data-source-line="48" data-uid="lnk40" id="link__handle_add__open_editor"><path d="M1567.21,461.8979 C1615.81,482.8879 1678.8117,510.089 1727.3917,531.069" fill="none" id="_handle_add-to-_open_editor" style="stroke:#333333;stroke-width:1;"/><polygon fill="#333333" points="1732.9,533.4479,1726.2235,526.2074,1728.3098,531.4655,1723.0517,533.5518,1732.9,533.4479" style="stroke:#333333;stroke-width:1;"/></g><!--link _open_editor to subprocess--><g class="link" data-entity-1="_open_editor" data-entity-2="subprocess" data-source-line="49" data-uid="lnk42" id="link__open_editor_subprocess"><path d="M1783.74,586.3879 C1777.15,606.6479 1769.6693,629.6132 1762.1893,652.5632" fill="none" id="_open_editor-to-subprocess" style="stroke:#333333;stroke-width:1;"/><polygon fill="#333333" points="1760.33,658.2679,1766.922,650.9504,1761.8794,653.514,1759.3158,648.4713,1760.33,658.2679" style="stroke:#333333;stroke-width:1;"/></g><!--link _open_editor to editor--><g class="link" data-entity-1="_open_editor" data-entity-2="editor" data-source-line="50" data-uid="lnk44" id="link__open_editor_editor"><path d="M1800.29,586.3879 C1806.89,606.6479 1814.373,629.6125 1821.843,652.5625" fill="none" id="_open_editor-to-editor" style="stroke:#333333;stroke-width:1;"/><polygon fill="#333333" points="1823.7,658.2679,1824.718,648.4717,1822.1525,653.5134,1817.1108,650.9478,1823.7,658.2679" style="stroke:#333333;stroke-width:1;"/></g><!--SRC=[fPPHJzim4CVVyobkx0MGI0IJU63I96Z3O8860MyCHIQ-jXQ97TbEExxAdlRPzabccxIrsnHQ5l5Gtzt_Tyx5FkwJ7cE5K9U4yKWzCruJIIfu8iNpI8g6qvueXOJFv-xn8YWEILFgSy7rW1Z2gMIazFodKeffA_xY7iyv41hFXAGesuYUUvOZkZPXeYBDT8dGk-uVA54scWcku00MlobY3Onhb9oKC2p557R5aq8vGRe7krTP__04Ue8Yd3UyS9gzA6eK5aGXx11UZ8NS0Q9WaDsd-UcWTv7THcDc1Bw1cps2PAEn1Z4CF03x-tUYaGMUxE_3mmCLXKgcGZxRlQXaSfGmcHGLJO9tY0kpfVY5L2LiAtXyZ91Ji3kA8ec59dnaIhHJcS-Q8zVovIVVhGWgBKLYZN7zikVUS17XwyQ4qnBpUQQy45LbR1wbjQXaiPqPSvtQpv0F6QUvn5haKWYz6NX95F3Qf2LJcy8yHHT9ZSLqEv9LT948fTk1ZA2B8x4I4zmEzQhfeY5bMrRAAbQ_uIm-huaUR_CT0s705JLobqt83O6UmYVPRxiuXnvhRfl_ofNHufmOAbUO-Ekrk_m7V1KHP15aKQ6jsBxG9qubq_WXPAZqcHHB_21qIHej6X4S77nRtqFMEPngkK6y7UmtW8qYtGNVADBUu8q2s_kvKQoxV_wkdNVff8PB5s7_ctZeYgw1T9n8_ysz2eTNjyFsJjuvBZojmUeTXAcmYxXhdNtKX9LgnRzqUCFbXZc2zk8ld5SrJxKK1IgrwcirhxD2YSFEKI6TcD62ks71hbS7XZSx8FWBCmYyINZZMiAAPHriSfZCfgl4pbfsCl4AQ4rntPWnPeqzc5RMJb5stakFqsDNeh-__y0LqX5Ak32vrQnKMJlMcJb6FbCnvL2ZLEOmstgQ6J3SmkjaQ5_YAqoEmFO9qB8nnzKCVmf-t6KXD4xYjd10cMrxmdIdHf6HGoyr6uDaeYJQWCwpsxFBVdwRtcHvFxitKFFty10RNfnSNjzSfTVfuFxq_Z8Rv5Tf_tjw6rSKEXtk6yoaDfVKAYbT9VB2d0L6RKOhRylJcnlzCly3]--></g></svg>