<svg xmlns="http://www.w3.org/2000/svg" xmlns:xlink="http://www.w3.org/1999/xlink" contentStyleType="text/css" data-diagram-type="DESCRIPTION" height="765px" preserveAspectRatio="none" style="width:813px;height:765px;background:#FFFFFF;" version="1.1" viewBox="0 0 813 765" width="813px" zoomAndPan="magnify"><title>CMD-task - task command surface (LOD1: CLI Flow)</title><defs/><g><g class="title" data-source-line="8"><text fill="#000000" font-family="Arial" font-size="22" font-weight="bold" lengthAdjust="spacing" textLength="543.9736" x="130.3175" y="35.6357">CMD-task - task command surface (LOD1: CLI Flow)</text></g><!--entity NOTE_ANCHOR--><!--entity start--><g class="entity" data-entity="start" data-source-line="16" data-uid="ent0006" id="entity_start"><rect fill="#FFFFFF" height="36.0986" rx="2.5" ry="2.5" style="stroke:#000000;stroke-width:1;" width="100.1377" x="661.4" y="66.6679"/><text fill="#000000" font-family="Arial" font-size="14" lengthAdjust="spacing" textLength="80.1377" x="671.4" y="89.7997">maestro task</text></g><!--entity parse_subcommand--><g class="entity" data-entity="parse_subcommand" data-source-line="17" data-uid="ent0007" id="entity_parse_subcommand"><ellipse cx="711.4685" cy="189.9635" fill="#FFFFFF" rx="77.1285" ry="17.8257" style="stroke:#000000;stroke-width:1;"/><text fill="#000000" font-family="Arial" font-size="14" lengthAdjust="spacing" textLength="124.5029" x="649.217" y="194.5129">Parse subcommand</text></g><!--entity check_session--><g class="entity" data-entity="check_session" data-source-line="18" data-uid="ent0008" id="entity_check_session"><rect fill="#FFFFFF" height="46.0986" rx="2.5" ry="2.5" style="stroke:#000000;stroke-width:1;" width="131.041" x="645.95" y="267.7979"/><rect fill="#FFFFFF" height="10" style="stroke:#000000;stroke-width:1;" width="15" x="756.991" y="272.7979"/><rect fill="#FFFFFF" height="2" style="stroke:#000000;stroke-width:1;" width="4" x="754.991" y="274.7979"/><rect fill="#FFFFFF" height="2" style="stroke:#000000;stroke-width:1;" width="4" x="754.991" y="278.7979"/><text fill="#000000" font-family="Arial" font-size="14" lengthAdjust="spacing" textLength="91.041" x="660.95" y="300.9297">Check session</text></g><!--entity load_session--><g class="entity" data-entity="load_session" data-source-line="19" data-uid="ent0009" id="entity_load_session"><rect fill="#FFFFFF" height="46.0986" rx="2.5" ry="2.5" style="stroke:#000000;stroke-width:1;" width="122.5029" x="587.22" y="389.3979"/><rect fill="#FFFFFF" height="10" style="stroke:#000000;stroke-width:1;" width="15" x="689.7229" y="394.3979"/><rect fill="#FFFFFF" height="2" style="stroke:#000000;stroke-width:1;" width="4" x="687.7229" y="396.3979"/><rect fill="#FFFFFF" height="2" style="stroke:#000000;stroke-width:1;" width="4" x="687.7229" y="400.3979"/><text fill="#000000" font-family="Arial" font-size="14" lengthAdjust="spacing" textLength="82.5029" x="602.22" y="422.5297">Load session</text></g><!--entity route_subcommand--><g class="entity" data-entity="route_subcommand" data-source-line="20" data-uid="ent0010" id="entity_route_subcommand"><rect fill="#FFFFFF" height="46.0986" rx="2.5" ry="2.5" style="stroke:#000000;stroke-width:1;" width="231.4473" x="532.75" y="510.9879"/><rect fill="#FFFFFF" height="10" style="stroke:#000000;stroke-width:1;" width="15" x="744.1973" y="515.9879"/><rect fill="#FFFFFF" height="2" style="stroke:#000000;stroke-width:1;" width="4" x="742.1973" y="517.9879"/><rect fill="#FFFFFF" height="2" style="stroke:#000000;stroke-width:1;" width="4" x="742.1973" y="521.9879"/><text fill="#000000" font-family="Arial" font-size="14" lengthAdjust="spacing" textLength="191.4473" x="547.75" y="544.1197">Route to subcommand handler</text></g><!--entity execute_task_op--><g class="entity" data-entity="execute_task_op" data-source-line="21" data-uid="ent0011" id="entity_execute_task_op"><rect fill="#FFFFFF" height="46.0986" rx="2.5" ry="2.5" style="stroke:#000000;stroke-width:1;" width="182.4199" x="557.26" y="617.0879"/><rect fill="#FFFFFF" height="10" style="stroke:#000000;stroke-width:1;" width="15" x="719.6799" y="622.0879"/><rect fill="#FFFFFF" height="2" style="stroke:#000000;stroke-width:1;" width="4" x="717.6799" y="624.0879"/><rect fill="#FFFFFF" height="2" style="stroke:#000000;stroke-width:1;" width="4" x="717.6799" y="628.0879"/><text fill="#000000" font-family="Arial" font-size="14" lengthAdjust="spacing" textLength="142.4199" x="572.26" y="650.2197">Execute task operation</text></g><!--entity output_result--><g class="entity" data-entity="output_result" data-source-line="22" data-uid="ent0012" id="entity_output_result"><rect fill="#FFFFFF" height="36.0986" rx="2.5" ry="2.5" style="stroke:#000000;stroke-width:1;" width="100.1514" x="598.39" y="723.1879"/><text fill="#000000" font-family="Arial" font-size="14" lengthAdjust="spacing" textLength="80.1514" x="608.39" y="746.3197">Output result</text></g><!--entity hard_stop--><g class="entity" data-entity="hard_stop" data-source-line="26" data-uid="ent0016" id="entity_hard_stop"><ellipse cx="775.4743" cy="382.8979" fill="#FFFFFF" rx="8" ry="8" style="stroke:#000000;stroke-width:1;"/><path d="M775.4743,390.8979 L775.4743,417.8979 M762.4743,398.8979 L788.4743,398.8979 M775.4743,417.8979 L762.4743,432.8979 M775.4743,417.8979 L788.4743,432.8979" fill="none" style="stroke:#000000;stroke-width:1;"/><text fill="#000000" font-family="Arial" font-size="14" lengthAdjust="spacing" textLength="62.2686" x="744.34" y="448.0297">hard_stop</text></g><!--link start to parse_subcommand--><g class="link" data-entity-1="start" data-entity-2="parse_subcommand" data-source-line="23" data-uid="lnk13" id="link_start_parse_subcommand"><path d="M711.47,103.2379 C711.47,122.3379 711.47,146.7179 711.47,165.7179" fill="none" id="start-to-parse_subcommand" style="stroke:#333333;stroke-width:1;"/><polygon fill="#333333" points="711.47,171.7179,715.47,162.7179,711.47,166.7179,707.47,162.7179,711.47,171.7179" style="stroke:#333333;stroke-width:1;"/></g><!--link parse_subcommand to check_session--><g class="link" data-entity-1="parse_subcommand" data-entity-2="check_session" data-source-line="24" data-uid="lnk14" id="link_parse_subcommand_check_session"><path d="M711.47,208.1879 C711.47,224.6779 711.47,243.6379 711.47,261.6179" fill="none" id="parse_subcommand-to-check_session" style="stroke:#333333;stroke-width:1;"/><polygon fill="#333333" points="711.47,267.6179,715.47,258.6179,711.47,262.6179,707.47,258.6179,711.47,267.6179" style="stroke:#333333;stroke-width:1;"/></g><!--link check_session to load_session--><g class="link" data-entity-1="check_session" data-entity-2="load_session" data-source-line="25" data-uid="lnk15" id="link_check_session_load_session"><path d="M699.62,314.3379 C688.36,335.7179 674.3051,362.3887 663.0651,383.7387" fill="none" id="check_session-to-load_session" style="stroke:#333333;stroke-width:1;"/><polygon fill="#333333" points="660.27,389.0479,668.0021,382.9475,662.5992,384.6235,660.9232,379.2207,660.27,389.0479" style="stroke:#333333;stroke-width:1;"/></g><!--link check_session to hard_stop--><g class="link" data-entity-1="check_session" data-entity-2="hard_stop" data-source-line="26" data-uid="lnk17" id="link_check_session_hard_stop"><path d="M723.51,314.3379 C732.41,330.9879 741.93,348.7572 752.35,368.2372" fill="none" id="check_session-to-hard_stop" style="stroke:#333333;stroke-width:1;"/><polygon fill="#333333" points="755.18,373.5279,754.4621,363.7052,752.8217,369.119,747.4079,367.4785,755.18,373.5279" style="stroke:#333333;stroke-width:1;"/></g><!--link load_session to route_subcommand--><g class="link" data-entity-1="load_session" data-entity-2="route_subcommand" data-source-line="27" data-uid="lnk18" id="link_load_session_route_subcommand"><path d="M648.47,435.9379 C648.47,457.3179 648.47,483.2979 648.47,504.6479" fill="none" id="load_session-to-route_subcommand" style="stroke:#333333;stroke-width:1;"/><polygon fill="#333333" points="648.47,510.6479,652.47,501.6479,648.47,505.6479,644.47,501.6479,648.47,510.6479" style="stroke:#333333;stroke-width:1;"/></g><!--link route_subcommand to execute_task_op--><g class="link" data-entity-1="route_subcommand" data-entity-2="execute_task_op" data-source-line="28" data-uid="lnk19" id="link_route_subcommand_execute_task_op"><path d="M648.47,557.3779 C648.47,574.9379 648.47,593.2879 648.47,610.8479" fill="none" id="route_subcommand-to-execute_task_op" style="stroke:#333333;stroke-width:1;"/><polygon fill="#333333" points="648.47,616.8479,652.47,607.8479,648.47,611.8479,644.47,607.8479,648.47,616.8479" style="stroke:#333333;stroke-width:1;"/></g><!--link execute_task_op to output_result--><g class="link" data-entity-1="execute_task_op" data-entity-2="output_result" data-source-line="29" data-uid="lnk20" id="link_execute_task_op_output_result"><path d="M648.47,663.6279 C648.47,681.5579 648.47,700.3079 648.47,716.7779" fill="none" id="execute_task_op-to-output_result" style="stroke:#333333;stroke-width:1;"/><polygon fill="#333333" points="648.47,722.7779,652.47,713.7779,648.47,717.7779,644.47,713.7779,648.47,722.7779" style="stroke:#333333;stroke-width:1;"/></g><!--SRC=[ZLB1Rjim3BtxAxZiiWL8Z6wt7WQaRe8Do9AXwwqe35QcOyEoQ51oiltzPCL5RIS3geC5llSayT7lWoke9cWqbYQoLMaQ5ApX1LLr46vDbh1cWO-Ri0QAZ79ijTkmSJlqDwoaH3tWLo9ywWz_3Mj0xjZH7Kj6qYkIiAQAQqruLUHAfmcId_SBXxQ21OHDSLsZoS2sagCY-BJTtz_SGhBz0HlDfyzHr5fIQ0bcQ5J1CWEqiDi_hjFLBlc-VuYACgCHO7mN8EMXSC3vY06OptzpAufkvtDuUifOsVZ4KkN-AHiVlyIbnAhEujSkbqgNoxzOQtY_zFav8c-ewoAAX9H3S_36PpMITSB1TZ1X7Ofxi_SBnM-sVUb74ZHD1wPlOEJtXWqP1xEa85M19MjBDa6jEYJjaQ5qovYDbDe3ruGFtFhXEHxq0ON_Q3eFNZh-F_si_v0Afxl_oWq9kjVdw4ob7PLoCnpBldLDwq38-c06CGSaFIDHc18i5jykPp45WceoWs4L-B7p2xf0yRJpFGw5WRhmFWM2QcfrKWVDsE4vi9hogtbT7ts-JKXiL_lK7c_Y_i5mwRBEO5Bx25wNDgsFyWKoJEm_]--></g></svg>