<svg xmlns="http://www.w3.org/2000/svg" xmlns:xlink="http://www.w3.org/1999/xlink" contentStyleType="text/css" data-diagram-type="DESCRIPTION" height="368px" preserveAspectRatio="none" style="width:2608px;height:368px;background:#FFFFFF;" version="1.1" viewBox="0 0 2608 368" width="2608px" zoomAndPan="magnify"><title>CMD-session - Combined CLI+Code (LOD2)</title><defs/><g><g class="title" data-source-line="8"><text fill="#000000" font-family="Arial" font-size="22" font-weight="bold" lengthAdjust="spacing" textLength="455.2969" x="1071.9352" y="35.6357">CMD-session - Combined CLI+Code (LOD2)</text></g><!--cluster CLI Layer--><g class="cluster" data-entity="CLI Layer" data-source-line="20" data-uid="ent0007" id="cluster_CLI Layer"><path d="M1237.09,146.3079 L1301.8898,146.3079 A3.75,3.75 0 0 1 1304.3898,148.8079 L1311.3898,168.4065 L1783.09,168.4065 A2.5,2.5 0 0 1 1785.59,170.9065 L1785.59,359.0079 A2.5,2.5 0 0 1 1783.09,361.5079 L1237.09,361.5079 A2.5,2.5 0 0 1 1234.59,359.0079 L1234.59,148.8079 A2.5,2.5 0 0 1 1237.09,146.3079" fill="#E6F3FF" style="stroke:#000000;stroke-width:1;"/><line style="stroke:#000000;stroke-width:1;" x1="1234.59" x2="1311.3898" y1="168.4065" y2="168.4065"/><text fill="#000000" font-family="Arial" font-size="14" font-weight="bold" lengthAdjust="spacing" textLength="63.7998" x="1238.59" y="161.4397">CLI Layer</text></g><!--cluster Code Layer--><g class="cluster" data-entity="Code Layer" data-source-line="28" data-uid="ent0013" id="cluster_Code Layer"><path d="M1812.09,146.6779 L1889.338,146.6779 A3.75,3.75 0 0 1 1891.838,149.1779 L1898.838,168.7765 L2345.09,168.7765 A2.5,2.5 0 0 1 2347.59,171.2765 L2347.59,359.1679 A2.5,2.5 0 0 1 2345.09,361.6679 L1812.09,361.6679 A2.5,2.5 0 0 1 1809.59,359.1679 L1809.59,149.1779 A2.5,2.5 0 0 1 1812.09,146.6779" fill="#FFE6E6" style="stroke:#000000;stroke-width:1;"/><line style="stroke:#000000;stroke-width:1;" x1="1809.59" x2="1898.838" y1="168.7765" y2="168.7765"/><text fill="#000000" font-family="Arial" font-size="14" font-weight="bold" lengthAdjust="spacing" textLength="76.248" x="1813.59" y="161.8097">Code Layer</text></g><!--entity maestro session--><g class="entity" data-entity="maestro session" data-source-line="21" data-uid="ent0008" id="entity_maestro session"><ellipse cx="1318.5904" cy="199.7259" fill="#FFFFFF" rx="67.9404" ry="15.9881" style="stroke:#000000;stroke-width:1;"/><text fill="#000000" font-family="Arial" font-size="14" lengthAdjust="spacing" textLength="101.9307" x="1267.625" y="204.2752">maestro session</text></g><!--entity maestro session new--><g class="entity" data-entity="maestro session new" data-source-line="22" data-uid="ent0009" id="entity_maestro session new"><ellipse cx="1501.5911" cy="199.7261" fill="#FFFFFF" rx="80.0911" ry="18.4182" style="stroke:#000000;stroke-width:1;"/><text fill="#000000" font-family="Arial" font-size="14" lengthAdjust="spacing" textLength="131.5029" x="1435.8397" y="204.2754">maestro session new</text></g><!--entity maestro session list--><g class="entity" data-entity="maestro session list" data-source-line="23" data-uid="ent0010" id="entity_maestro session list"><ellipse cx="1693.5895" cy="199.7318" fill="#FFFFFF" rx="76.4695" ry="17.6939" style="stroke:#000000;stroke-width:1;"/><text fill="#000000" font-family="Arial" font-size="14" lengthAdjust="spacing" textLength="122.9307" x="1632.1242" y="204.2811">maestro session list</text></g><!--entity maestro session set--><g class="entity" data-entity="maestro session set" data-source-line="24" data-uid="ent0011" id="entity_maestro session set"><ellipse cx="1327.5856" cy="327.613" fill="#FFFFFF" rx="77.1256" ry="17.8251" style="stroke:#000000;stroke-width:1;"/><text fill="#000000" font-family="Arial" font-size="14" lengthAdjust="spacing" textLength="124.4961" x="1265.3376" y="332.1623">maestro session set</text></g><!--entity maestro session get--><g class="entity" data-entity="maestro session get" data-source-line="25" data-uid="ent0012" id="entity_maestro session get"><ellipse cx="1517.586" cy="327.6191" fill="#FFFFFF" rx="77.456" ry="17.8912" style="stroke:#000000;stroke-width:1;"/><text fill="#000000" font-family="Arial" font-size="14" lengthAdjust="spacing" textLength="125.2822" x="1454.9449" y="332.1684">maestro session get</text></g><!--entity handle_session_new--><g class="entity" data-entity="handle_session_new" data-source-line="29" data-uid="ent0014" id="entity_handle_session_new"><rect fill="#FFFFFF" height="36.0986" rx="2.5" ry="2.5" style="stroke:#000000;stroke-width:1;" width="150.7646" x="1825.21" y="181.6779"/><text fill="#000000" font-family="Arial" font-size="14" lengthAdjust="spacing" textLength="130.7646" x="1835.21" y="204.8097">handle_session_new</text></g><!--entity handle_session_list--><g class="entity" data-entity="handle_session_list" data-source-line="30" data-uid="ent0015" id="entity_handle_session_list"><rect fill="#FFFFFF" height="36.0986" rx="2.5" ry="2.5" style="stroke:#000000;stroke-width:1;" width="142.1924" x="2010.49" y="181.6779"/><text fill="#000000" font-family="Arial" font-size="14" lengthAdjust="spacing" textLength="122.1924" x="2020.49" y="204.8097">handle_session_list</text></g><!--entity handle_session_set--><g class="entity" data-entity="handle_session_set" data-source-line="31" data-uid="ent0016" id="entity_handle_session_set"><rect fill="#FFFFFF" height="36.0986" rx="2.5" ry="2.5" style="stroke:#000000;stroke-width:1;" width="143.7578" x="2187.71" y="181.6779"/><text fill="#000000" font-family="Arial" font-size="14" lengthAdjust="spacing" textLength="123.7578" x="2197.71" y="204.8097">handle_session_set</text></g><!--entity handle_session_get--><g class="entity" data-entity="handle_session_get" data-source-line="32" data-uid="ent0017" id="entity_handle_session_get"><rect fill="#FFFFFF" height="36.0986" rx="2.5" ry="2.5" style="stroke:#000000;stroke-width:1;" width="144.5439" x="1828.32" y="309.5679"/><text fill="#000000" font-family="Arial" font-size="14" lengthAdjust="spacing" textLength="124.5439" x="1838.32" y="332.6997">handle_session_get</text></g><!--entity handle_session_remove--><g class="entity" data-entity="handle_session_remove" data-source-line="33" data-uid="ent0018" id="entity_handle_session_remove"><rect fill="#FFFFFF" height="36.0986" rx="2.5" ry="2.5" style="stroke:#000000;stroke-width:1;" width="171.7646" x="2007.71" y="309.5679"/><text fill="#000000" font-family="Arial" font-size="14" lengthAdjust="spacing" textLength="151.7646" x="2017.71" y="332.6997">handle_session_remove</text></g><!--entity NOTE_ANCHOR--><g class="entity" data-entity="N1" data-source-line="17" data-uid="ent0006" id="entity_N1"><path d="M2366.01,187.2479 L2366.01,212.1966 L2601.1672,212.1966 L2601.1672,197.2479 L2591.1672,187.2479 L2366.01,187.2479" fill="#FFFFCC" style="stroke:#CCCCCC;stroke-width:1;"/><path d="M2591.1672,187.2479 L2591.1672,197.2479 L2601.1672,197.2479 L2591.1672,187.2479" fill="#FFFFCC" style="stroke:#CCCCCC;stroke-width:1;"/><text fill="#000000" font-family="Arial" font-size="13" font-weight="bold" lengthAdjust="spacing" textLength="214.1572" x="2372.01" y="204.4417">Combined CLI + Code view (LOD2)</text></g><!--link NOTE_ANCHOR to GMN3--><!--SRC=[bLF1Rfj04Btp5LFdqZeAA8daGtjo2DIfC5H9Uh8Yj841RxFiMhjhMr7LVaXF_RP-IOSDHAInNNMr5sRUFDuy7c_i4Xk4bM1SUkQ1onNJh85xLZpKMgrb6IgXD1p5xWmG9LPiBMoif4qPCKmrPsBGdsgjjjtmkJk3PgeiNYXTekuGeJj_8tQ989HdkHK8uVponA0nN4auWL0rzrnY2M5oTHog4k5jabsUlVEyjS626OGHayLIwH4m0sbs6-NJD9nbrzwI4tXOaFHkqBnUMb3LYmx0U7oZrhh0z-CnB1QbAaomLVgX4cfhWirPm7LGD6KmqEONWlkFh17mN-YxEmzb2QqMxqbHA_lKIHZk2iVWjjrmt7OhZyU3qHMPo6hQliKcx179WADe4f_7CNmZjcTt6eR6QWMTaD617aZS7kmBRkn1WC73_RhjVn-gRtVivSTnD8acJhx6mZ9PKnn6IoPBWNb7aNSQzmDwaViHdShzWFfV08sDsg1RnNr3WTNEK4KR2g5qiMgVALgRqw1GJKDqFPdVbF2wH3dPEx1QK-fs5L-7QrVSUwETmjy_Vq62POqQPbnQqolDxWtg3MMn_tGbimoCLPfgNCAdcoo5Ikc6MQ0_cSRTRz2XJV01cE2rDB3bTWdNqKjI2eW-CIiiUCKBMaLMl6vPVmH-5vdWgUX_DKg-v9fbyoYVVRd8fmcHqbqiV3-WUpN_d4JpABsTtbvbQPv4bn-ZwzRTdGrdS3-gSQMqDO5mJkG56SjfOJJjU6TF-5mSslm7]--></g></svg>