<svg xmlns="http://www.w3.org/2000/svg" xmlns:xlink="http://www.w3.org/1999/xlink" contentStyleType="text/css" data-diagram-type="DESCRIPTION" height="645px" preserveAspectRatio="none" style="width:1720px;height:645px;background:#FFFFFF;" version="1.1" viewBox="0 0 1720 645" width="1720px" zoomAndPan="magnify"><title>CMD-settings - settings deep internal flow (observed) (LOD1: Code Functions)</title><defs/><g><g class="title" data-source-line="8"><text fill="#000000" font-family="Arial" font-size="22" font-weight="bold" lengthAdjust="spacing" textLength="816.4814" x="447.3565" y="35.6357">CMD-settings - settings deep internal flow (observed) (LOD1: Code Functions)</text></g><!--entity NOTE_ANCHOR--><!--entity main_entry--><g class="entity" data-entity="main_entry" data-source-line="16" data-uid="ent0006" id="entity_main_entry"><rect fill="#FFFFFF" height="52.1973" rx="2.5" ry="2.5" style="stroke:#000000;stroke-width:1;" width="114.1309" x="1312.7" y="145.4979"/><text fill="#000000" font-family="Arial" font-size="14" lengthAdjust="spacing" textLength="69.2549" x="1322.7" y="168.6297">main_entry</text><text fill="#000000" font-family="Arial" font-size="14" lengthAdjust="spacing" textLength="94.1309" x="1322.7" y="184.7283">(maestro.main)</text></g><!--entity handle_settings_command--><g class="entity" data-entity="handle_settings_command" data-source-line="17" data-uid="ent0007" id="entity_handle_settings_command"><rect fill="#FFFFFF" height="52.1973" rx="2.5" ry="2.5" style="stroke:#000000;stroke-width:1;" width="204.3926" x="1267.57" y="301.3679"/><text fill="#000000" font-family="Arial" font-size="14" lengthAdjust="spacing" textLength="167.3301" x="1277.57" y="324.4997">handle_settings_command</text><text fill="#000000" font-family="Arial" font-size="14" lengthAdjust="spacing" textLength="184.3926" x="1277.57" y="340.5983">(maestro.commands.settings)</text></g><!--entity settings_class--><g class="entity" data-entity="settings_class" data-source-line="19" data-uid="ent0009" id="entity_settings_class"><ellipse cx="1290.7653" cy="435.0179" fill="#FFFFFF" rx="8" ry="8" style="stroke:#000000;stroke-width:1;"/><path d="M1290.7653,443.0179 L1290.7653,470.0179 M1277.7653,451.0179 L1303.7653,451.0179 M1290.7653,470.0179 L1277.7653,485.0179 M1290.7653,470.0179 L1303.7653,485.0179" fill="none" style="stroke:#000000;stroke-width:1;"/><text fill="#000000" font-family="Arial" font-size="14" lengthAdjust="spacing" textLength="87.9307" x="1246.8" y="500.1497">settings_class</text></g><!--entity settings_profile_manager--><g class="entity" data-entity="settings_profile_manager" data-source-line="20" data-uid="ent0011" id="entity_settings_profile_manager"><ellipse cx="1474.763" cy="435.0179" fill="#FFFFFF" rx="8" ry="8" style="stroke:#000000;stroke-width:1;"/><path d="M1474.763,443.0179 L1474.763,470.0179 M1461.763,451.0179 L1487.763,451.0179 M1474.763,470.0179 L1461.763,485.0179 M1474.763,470.0179 L1487.763,485.0179" fill="none" style="stroke:#000000;stroke-width:1;"/><text fill="#000000" font-family="Arial" font-size="14" lengthAdjust="spacing" textLength="157.2061" x="1396.16" y="500.1497">settings_profile_manager</text></g><!--entity docs_config_md--><g class="entity" data-entity="docs_config_md" data-source-line="21" data-uid="ent0013" id="entity_docs_config_md"><ellipse cx="1238.7656" cy="572.1179" fill="#FFFFFF" rx="8" ry="8" style="stroke:#000000;stroke-width:1;"/><path d="M1238.7656,580.1179 L1238.7656,607.1179 M1225.7656,588.1179 L1251.7656,588.1179 M1238.7656,607.1179 L1225.7656,622.1179 M1238.7656,607.1179 L1251.7656,622.1179" fill="none" style="stroke:#000000;stroke-width:1;"/><text fill="#000000" font-family="Arial" font-size="14" lengthAdjust="spacing" textLength="101.9512" x="1187.79" y="637.2497">docs_config_md</text></g><!--entity profiles_json--><g class="entity" data-entity="profiles_json" data-source-line="22" data-uid="ent0015" id="entity_profiles_json"><ellipse cx="1363.7698" cy="572.1179" fill="#FFFFFF" rx="8" ry="8" style="stroke:#000000;stroke-width:1;"/><path d="M1363.7698,580.1179 L1363.7698,607.1179 M1350.7698,588.1179 L1376.7698,588.1179 M1363.7698,607.1179 L1350.7698,622.1179 M1363.7698,607.1179 L1376.7698,622.1179" fill="none" style="stroke:#000000;stroke-width:1;"/><text fill="#000000" font-family="Arial" font-size="14" lengthAdjust="spacing" textLength="78.5996" x="1324.47" y="637.2497">profiles_json</text></g><!--entity profile_settings_json--><g class="entity" data-entity="profile_settings_json" data-source-line="23" data-uid="ent0017" id="entity_profile_settings_json"><ellipse cx="1501.7669" cy="572.1179" fill="#FFFFFF" rx="8" ry="8" style="stroke:#000000;stroke-width:1;"/><path d="M1501.7669,580.1179 L1501.7669,607.1179 M1488.7669,588.1179 L1514.7669,588.1179 M1501.7669,607.1179 L1488.7669,622.1179 M1501.7669,607.1179 L1514.7669,622.1179" fill="none" style="stroke:#000000;stroke-width:1;"/><text fill="#000000" font-family="Arial" font-size="14" lengthAdjust="spacing" textLength="127.6338" x="1437.95" y="637.2497">profile_settings_json</text></g><!--entity profile_audit_jsonl--><g class="entity" data-entity="profile_audit_jsonl" data-source-line="24" data-uid="ent0019" id="entity_profile_audit_jsonl"><ellipse cx="1656.7672" cy="572.1179" fill="#FFFFFF" rx="8" ry="8" style="stroke:#000000;stroke-width:1;"/><path d="M1656.7672,580.1179 L1656.7672,607.1179 M1643.7672,588.1179 L1669.7672,588.1179 M1656.7672,607.1179 L1643.7672,622.1179 M1656.7672,607.1179 L1669.7672,622.1179" fill="none" style="stroke:#000000;stroke-width:1;"/><text fill="#000000" font-family="Arial" font-size="14" lengthAdjust="spacing" textLength="112.8545" x="1600.34" y="637.2497">profile_audit_jsonl</text></g><!--entity edit_settings--><g class="entity" data-entity="edit_settings" data-source-line="25" data-uid="ent0021" id="entity_edit_settings"><ellipse cx="1543.7632" cy="142.0479" fill="#FFFFFF" rx="8" ry="8" style="stroke:#000000;stroke-width:1;"/><path d="M1543.7632,150.0479 L1543.7632,177.0479 M1530.7632,158.0479 L1556.7632,158.0479 M1543.7632,177.0479 L1530.7632,192.0479 M1543.7632,177.0479 L1556.7632,192.0479" fill="none" style="stroke:#000000;stroke-width:1;"/><text fill="#000000" font-family="Arial" font-size="14" lengthAdjust="spacing" textLength="78.6064" x="1504.46" y="207.1797">edit_settings</text></g><!--entity editor_actor--><g class="entity" data-entity="editor_actor" data-source-line="25" data-uid="ent0022" id="entity_editor_actor"><ellipse cx="1543.7653" cy="297.9179" fill="#FFFFFF" rx="8" ry="8" style="stroke:#000000;stroke-width:1;"/><path d="M1543.7653,305.9179 L1543.7653,332.9179 M1530.7653,313.9179 L1556.7653,313.9179 M1543.7653,332.9179 L1530.7653,347.9179 M1543.7653,332.9179 L1556.7653,347.9179" fill="none" style="stroke:#000000;stroke-width:1;"/><text fill="#000000" font-family="Arial" font-size="14" lengthAdjust="spacing" textLength="73.9307" x="1506.8" y="363.0497">editor_actor</text></g><!--link NOTE_ANCHOR to GMN3--><!--link main_entry to handle_settings_command--><g class="link" data-entity-1="main_entry" data-entity-2="handle_settings_command" data-source-line="18" data-uid="lnk8" id="link_main_entry_handle_settings_command"><path d="M1369.76,198.0079 C1369.76,226.5179 1369.76,266.4979 1369.76,295.0279" fill="none" id="main_entry-to-handle_settings_command" style="stroke:#333333;stroke-width:1;"/><polygon fill="#333333" points="1369.76,301.0279,1373.76,292.0279,1369.76,296.0279,1365.76,292.0279,1369.76,301.0279" style="stroke:#333333;stroke-width:1;"/></g><!--link handle_settings_command to settings_class--><g class="link" data-entity-1="handle_settings_command" data-entity-2="settings_class" data-source-line="19" data-uid="lnk10" id="link_handle_settings_command_settings_class"><path d="M1354.91,353.8779 C1343.06,374.1379 1329.3287,397.6284 1315.9087,420.5784" fill="none" id="handle_settings_command-to-settings_class" style="stroke:#333333;stroke-width:1;"/><polygon fill="#333333" points="1312.88,425.7579,1320.876,420.0078,1315.4039,421.4416,1313.9701,415.9695,1312.88,425.7579" style="stroke:#333333;stroke-width:1;"/></g><!--link handle_settings_command to settings_profile_manager--><g class="link" data-entity-1="handle_settings_command" data-entity-2="settings_profile_manager" data-source-line="20" data-uid="lnk12" id="link_handle_settings_command_settings_profile_manager"><path d="M1389.51,353.8779 C1405.26,374.1379 1423.8576,398.0707 1441.6976,421.0207" fill="none" id="handle_settings_command-to-settings_profile_manager" style="stroke:#333333;stroke-width:1;"/><polygon fill="#333333" points="1445.38,425.7579,1443.0145,416.1973,1442.3114,421.8103,1436.6984,421.1071,1445.38,425.7579" style="stroke:#333333;stroke-width:1;"/></g><!--link settings_class to docs_config_md--><g class="link" data-entity-1="settings_class" data-entity-2="docs_config_md" data-source-line="21" data-uid="lnk14" id="link_settings_class_docs_config_md"><path d="M1276.14,503.5579 C1268.99,522.1379 1262.5647,538.8281 1255.4347,557.3581" fill="none" id="settings_class-to-docs_config_md" style="stroke:#333333;stroke-width:1;"/><polygon fill="#333333" points="1253.28,562.9579,1260.2452,555.9947,1255.0756,558.2914,1252.7789,553.1218,1253.28,562.9579" style="stroke:#333333;stroke-width:1;"/></g><!--link settings_profile_manager to profiles_json--><g class="link" data-entity-1="settings_profile_manager" data-entity-2="profiles_json" data-source-line="22" data-uid="lnk16" id="link_settings_profile_manager_profiles_json"><path d="M1443.55,503.5579 C1428.29,522.1379 1413.7898,539.7926 1398.5598,558.3226" fill="none" id="settings_profile_manager-to-profiles_json" style="stroke:#333333;stroke-width:1;"/><polygon fill="#333333" points="1394.75,562.9579,1403.5548,558.5448,1397.9248,559.0951,1397.3745,553.4651,1394.75,562.9579" style="stroke:#333333;stroke-width:1;"/></g><!--link settings_profile_manager to profile_settings_json--><g class="link" data-entity-1="settings_profile_manager" data-entity-2="profile_settings_json" data-source-line="23" data-uid="lnk18" id="link_settings_profile_manager_profile_settings_json"><path d="M1482.36,503.5579 C1486.07,522.1379 1489.3421,538.5446 1493.0521,557.0746" fill="none" id="settings_profile_manager-to-profile_settings_json" style="stroke:#333333;stroke-width:1;"/><polygon fill="#333333" points="1494.23,562.9579,1496.3853,553.3477,1493.2484,558.0552,1488.541,554.9183,1494.23,562.9579" style="stroke:#333333;stroke-width:1;"/></g><!--link settings_profile_manager to profile_audit_jsonl--><g class="link" data-entity-1="settings_profile_manager" data-entity-2="profile_audit_jsonl" data-source-line="24" data-uid="lnk20" id="link_settings_profile_manager_profile_audit_jsonl"><path d="M1525.95,503.5579 C1550.86,522.0579 1575.9222,540.6617 1600.8322,559.1517" fill="none" id="settings_profile_manager-to-profile_audit_jsonl" style="stroke:#333333;stroke-width:1;"/><polygon fill="#333333" points="1605.65,562.7279,1600.8074,554.1518,1601.6352,559.7477,1596.0392,560.5755,1605.65,562.7279" style="stroke:#333333;stroke-width:1;"/></g><!--link edit_settings to editor_actor--><g class="link" data-entity-1="edit_settings" data-entity-2="editor_actor" data-source-line="25" data-uid="lnk23" id="link_edit_settings_editor_actor"><path d="M1543.76,210.6379 C1543.76,234.3979 1543.76,258.8779 1543.76,282.6079" fill="none" id="edit_settings-to-editor_actor" style="stroke:#333333;stroke-width:1;"/><polygon fill="#333333" points="1543.76,288.6079,1547.76,279.6079,1543.76,283.6079,1539.76,279.6079,1543.76,288.6079" style="stroke:#333333;stroke-width:1;"/></g><!--SRC=[hLHHRzem47xFhxXrBoqIYTf9VUYaIHJ2MWb8HRCdLbbkRC0ZiIFR0VMlx6c_RRzaPvD0w43jf4LHvDnzz_byz_a-s2KlE9Gv5J8mAo5Bgca1ppHRBRIg9EkhN6duEFHF2y7ud5Qv7Iff9nGPUbhGlENlQQqsTV0d_xIS4sNvhTACwnhHzyzhnB4a41LOONCE_V6WQxYrGYuCT66tP9oN8AJbMj8SvhdQmBbwDbolERk0yr4okBo1lc8SXfNCh53IN0H1PNX63OSpAhEbqcT03KoID2QzIVykcGPBWG5jWyGCGOl5qeAQ7tW0Efr7LUcCttGwC9inbPbee_JAvMAYzLKaT9GLB6gV8Cmme_255Zdy8_xfAU2IWSid23JFB9KBBCzPWIqbN5hzybsU5vGRgrNeZ1V-S7jtEsX99SivQNOXcIeADBKOQei96yoMxaHWiDy6kjql9s4dx3vcRyofCU-3bbhD1QBGGnTS1uSS7klAZC5oBXQaOC6fK8-jRORyC4g-2xhFx_qXj6B2UdmUSBVSonjHpg8qeHb-WwtySZu_ghvuZMgLNd_k7pMuleoQAn6v2-Bqj4_HMSAoGkqTDwF4jZIlf5bh8ceq4UtKMRv0Q_rslEl2VufkIdn0qpQ-nSUefVYZLqnj9C5vXBF3SVrjEhXw9mU26rpnTNpjM_FxvoyOSUPQVuSTCKsBadf2mG1t7zSxGScr4SQwNk98E-ZETiwvp3_3-WeqBnLONTabu2WpS4WQrcS39jnbLtWRAuFwWpdErQOqo2DKJYr63vFfxVs0JEE7X0oIb8nxyMCwJJpfOvE0GHxanhny8RTj20k6rEZVbSljKL3ROlUqwVHRUaU6Nh7upcPX6E5xFtuOnUDualRI-sH2Hl7WQpnrf4STlfLDg2k1jYRAVNb9XeeKp6temkkQztV6Tk_-0000]--></g></svg>