<svg xmlns="http://www.w3.org/2000/svg" xmlns:xlink="http://www.w3.org/1999/xlink" contentStyleType="text/css" data-diagram-type="DESCRIPTION" height="541px" preserveAspectRatio="none" style="width:1760px;height:541px;background:#FFFFFF;" version="1.1" viewBox="0 0 1760 541" width="1760px" zoomAndPan="magnify"><title>CMD-work - work deep internal flow (observed) (LOD0: Code Modules)</title><defs/><g><g class="title" data-source-line="8"><text fill="#000000" font-family="Arial" font-size="22" font-weight="bold" lengthAdjust="spacing" textLength="734.6045" x="508.2428" y="35.6357">CMD-work - work deep internal flow (observed) (LOD0: Code Modules)</text></g><!--cluster Code Modules--><g class="cluster" data-entity="Code Modules" data-source-line="16" data-uid="ent0006" id="cluster_Code Modules"><path d="M1245.59,153.5479 L1342.2589,153.5479 A3.75,3.75 0 0 1 1344.7589,156.0479 L1351.7589,175.6465 L1750.59,175.6465 A2.5,2.5 0 0 1 1753.09,178.1465 L1753.09,531.9879 A2.5,2.5 0 0 1 1750.59,534.4879 L1245.59,534.4879 A2.5,2.5 0 0 1 1243.09,531.9879 L1243.09,156.0479 A2.5,2.5 0 0 1 1245.59,153.5479" fill="#FFFFFF" style="stroke:#000000;stroke-width:1;"/><line style="stroke:#000000;stroke-width:1;" x1="1243.09" x2="1351.7589" y1="175.6465" y2="175.6465"/><text fill="#000000" font-family="Arial" font-size="14" font-weight="bold" lengthAdjust="spacing" textLength="95.6689" x="1247.09" y="168.6797">Code Modules</text></g><!--entity task_sync--><g class="entity" data-entity="task_sync" data-source-line="17" data-uid="ent0007" id="entity_task_sync"><rect fill="#FFFFFF" height="46.0986" rx="2.5" ry="2.5" style="stroke:#000000;stroke-width:1;" width="102.248" x="1258.96" y="188.5479"/><rect fill="#FFFFFF" height="10" style="stroke:#000000;stroke-width:1;" width="15" x="1341.208" y="193.5479"/><rect fill="#FFFFFF" height="2" style="stroke:#000000;stroke-width:1;" width="4" x="1339.208" y="195.5479"/><rect fill="#FFFFFF" height="2" style="stroke:#000000;stroke-width:1;" width="4" x="1339.208" y="199.5479"/><text fill="#000000" font-family="Arial" font-size="14" lengthAdjust="spacing" textLength="62.248" x="1273.96" y="221.6797">task_sync</text></g><!--entity breadcrumb--><g class="entity" data-entity="breadcrumb" data-source-line="18" data-uid="ent0008" id="entity_breadcrumb"><rect fill="#FFFFFF" height="46.0986" rx="2.5" ry="2.5" style="stroke:#000000;stroke-width:1;" width="114.7031" x="1395.74" y="188.5479"/><rect fill="#FFFFFF" height="10" style="stroke:#000000;stroke-width:1;" width="15" x="1490.4431" y="193.5479"/><rect fill="#FFFFFF" height="2" style="stroke:#000000;stroke-width:1;" width="4" x="1488.4431" y="195.5479"/><rect fill="#FFFFFF" height="2" style="stroke:#000000;stroke-width:1;" width="4" x="1488.4431" y="199.5479"/><text fill="#000000" font-family="Arial" font-size="14" lengthAdjust="spacing" textLength="74.7031" x="1410.74" y="221.6797">breadcrumb</text></g><!--entity discuss--><g class="entity" data-entity="discuss" data-source-line="19" data-uid="ent0009" id="entity_discuss"><rect fill="#FFFFFF" height="46.0986" rx="2.5" ry="2.5" style="stroke:#000000;stroke-width:1;" width="86.6826" x="1545.75" y="188.5479"/><rect fill="#FFFFFF" height="10" style="stroke:#000000;stroke-width:1;" width="15" x="1612.4326" y="193.5479"/><rect fill="#FFFFFF" height="2" style="stroke:#000000;stroke-width:1;" width="4" x="1610.4326" y="195.5479"/><rect fill="#FFFFFF" height="2" style="stroke:#000000;stroke-width:1;" width="4" x="1610.4326" y="199.5479"/><text fill="#000000" font-family="Arial" font-size="14" lengthAdjust="spacing" textLength="46.6826" x="1560.75" y="221.6797">discuss</text></g><!--entity work--><g class="entity" data-entity="work" data-source-line="20" data-uid="ent0010" id="entity_work"><rect fill="#FFFFFF" height="46.0986" rx="2.5" ry="2.5" style="stroke:#000000;stroke-width:1;" width="69.5586" x="1667.31" y="188.5479"/><rect fill="#FFFFFF" height="10" style="stroke:#000000;stroke-width:1;" width="15" x="1716.8686" y="193.5479"/><rect fill="#FFFFFF" height="2" style="stroke:#000000;stroke-width:1;" width="4" x="1714.8686" y="195.5479"/><rect fill="#FFFFFF" height="2" style="stroke:#000000;stroke-width:1;" width="4" x="1714.8686" y="199.5479"/><text fill="#000000" font-family="Arial" font-size="14" lengthAdjust="spacing" textLength="29.5586" x="1682.31" y="221.6797">work</text></g><!--entity data--><g class="entity" data-entity="data" data-source-line="21" data-uid="ent0011" id="entity_data"><rect fill="#FFFFFF" height="46.0986" rx="2.5" ry="2.5" style="stroke:#000000;stroke-width:1;" width="67.248" x="1278.46" y="366.2879"/><rect fill="#FFFFFF" height="10" style="stroke:#000000;stroke-width:1;" width="15" x="1325.708" y="371.2879"/><rect fill="#FFFFFF" height="2" style="stroke:#000000;stroke-width:1;" width="4" x="1323.708" y="373.2879"/><rect fill="#FFFFFF" height="2" style="stroke:#000000;stroke-width:1;" width="4" x="1323.708" y="377.2879"/><text fill="#000000" font-family="Arial" font-size="14" lengthAdjust="spacing" textLength="27.248" x="1293.46" y="399.4197">data</text></g><!--entity engines--><g class="entity" data-entity="engines" data-source-line="22" data-uid="ent0012" id="entity_engines"><rect fill="#FFFFFF" height="46.0986" rx="2.5" ry="2.5" style="stroke:#000000;stroke-width:1;" width="89.041" x="1380.57" y="366.2879"/><rect fill="#FFFFFF" height="10" style="stroke:#000000;stroke-width:1;" width="15" x="1449.611" y="371.2879"/><rect fill="#FFFFFF" height="2" style="stroke:#000000;stroke-width:1;" width="4" x="1447.611" y="373.2879"/><rect fill="#FFFFFF" height="2" style="stroke:#000000;stroke-width:1;" width="4" x="1447.611" y="377.2879"/><text fill="#000000" font-family="Arial" font-size="14" lengthAdjust="spacing" textLength="49.041" x="1395.57" y="399.4197">engines</text></g><!--entity main--><g class="entity" data-entity="main" data-source-line="23" data-uid="ent0013" id="entity_main"><rect fill="#FFFFFF" height="46.0986" rx="2.5" ry="2.5" style="stroke:#000000;stroke-width:1;" width="70.3447" x="1504.92" y="366.2879"/><rect fill="#FFFFFF" height="10" style="stroke:#000000;stroke-width:1;" width="15" x="1555.2647" y="371.2879"/><rect fill="#FFFFFF" height="2" style="stroke:#000000;stroke-width:1;" width="4" x="1553.2647" y="373.2879"/><rect fill="#FFFFFF" height="2" style="stroke:#000000;stroke-width:1;" width="4" x="1553.2647" y="377.2879"/><text fill="#000000" font-family="Arial" font-size="14" lengthAdjust="spacing" textLength="30.3447" x="1519.92" y="399.4197">main</text></g><!--entity work_session--><g class="entity" data-entity="work_session" data-source-line="24" data-uid="ent0014" id="entity_work_session"><rect fill="#FFFFFF" height="46.0986" rx="2.5" ry="2.5" style="stroke:#000000;stroke-width:1;" width="124.8135" x="1610.68" y="366.2879"/><rect fill="#FFFFFF" height="10" style="stroke:#000000;stroke-width:1;" width="15" x="1715.4935" y="371.2879"/><rect fill="#FFFFFF" height="2" style="stroke:#000000;stroke-width:1;" width="4" x="1713.4935" y="373.2879"/><rect fill="#FFFFFF" height="2" style="stroke:#000000;stroke-width:1;" width="4" x="1713.4935" y="377.2879"/><text fill="#000000" font-family="Arial" font-size="14" lengthAdjust="spacing" textLength="84.8135" x="1625.68" y="399.4197">work_session</text></g><!--entity issue_worker--><g class="entity" data-entity="issue_worker" data-source-line="25" data-uid="ent0015" id="entity_issue_worker"><rect fill="#FFFFFF" height="46.0986" rx="2.5" ry="2.5" style="stroke:#000000;stroke-width:1;" width="122.4756" x="1258.85" y="472.3879"/><rect fill="#FFFFFF" height="10" style="stroke:#000000;stroke-width:1;" width="15" x="1361.3256" y="477.3879"/><rect fill="#FFFFFF" height="2" style="stroke:#000000;stroke-width:1;" width="4" x="1359.3256" y="479.3879"/><rect fill="#FFFFFF" height="2" style="stroke:#000000;stroke-width:1;" width="4" x="1359.3256" y="483.3879"/><text fill="#000000" font-family="Arial" font-size="14" lengthAdjust="spacing" textLength="82.4756" x="1273.85" y="505.5197">issue_worker</text></g><!--entity phase_worker--><g class="entity" data-entity="phase_worker" data-source-line="26" data-uid="ent0016" id="entity_phase_worker"><rect fill="#FFFFFF" height="46.0986" rx="2.5" ry="2.5" style="stroke:#000000;stroke-width:1;" width="127.9375" x="1416.12" y="472.3879"/><rect fill="#FFFFFF" height="10" style="stroke:#000000;stroke-width:1;" width="15" x="1524.0575" y="477.3879"/><rect fill="#FFFFFF" height="2" style="stroke:#000000;stroke-width:1;" width="4" x="1522.0575" y="479.3879"/><rect fill="#FFFFFF" height="2" style="stroke:#000000;stroke-width:1;" width="4" x="1522.0575" y="483.3879"/><text fill="#000000" font-family="Arial" font-size="14" lengthAdjust="spacing" textLength="87.9375" x="1431.12" y="505.5197">phase_worker</text></g><!--entity NOTE_ANCHOR--><!--link NOTE_ANCHOR to GMN3--><!--SRC=[bLJDRjim3BxxARZiqWQelNL03zqfIzorGtw6DhUWC1IBIOJOaY792OfXBxBJdcrFCafs4ZljaCmmO5ByFfgYFl6TNM6EK6HCoC2iXIoOPZdCMRfUQbLAtbUPql3-pZyD1CS5ApDxfwGTCyhGqu9bZNXFQxMjoP_yqmYEbSKlIdFKDQBldsF4MqKGAh32PWZzqU1gg_GQhi1_E681GbhKacMmoDGMBjJSeDuWluIBuMJmuHRwYYEC52ypD9T1K1fCcK7eC9ckbEu0Cp2UJEEaD-xVJnw3bI1uSq5INQ35ScL1BLeHW6xtIPKwnTjk5sOphb8JkS9S9IRQN4T2HsdEertTOKgrX2yip-0_iC_F0KeEheuWAAX3R4dbDxVLWHzKJAhoGacK5ZgMcNLYNcJgjxVtsg2vHiPJNUPpZpguRHWN9YsDyPZQRWDSjJxgZ2CkiwmYaj4EeLmAYLNQscu3SjAdZphZzHyJWyO89VT_tYsqeSAO4XCNn-gicmjjQB4YNJIXpONWPr0f8SF5cqA8DoGSwQNWV9B3vcEqqsRabEgErsTBd1SM9SdWzHATTaK_KaZEq5Yj8YeuPv9NeR1uWVfxYjTiqOxMy4_H3-fmv9PtYif4j5UW8pUTKznQ6OvsC4-HdDZ8qMkkjZAXwK8JmMLulNHsislXkom7yvoMepQHrNHfQntv1hJzSzCqvUZI7FddfcbU09Vco6zDct_EFZUPuvlunal_pw_VC4I-H0ttf7YpkmAJUXJ3W0vaL3SV2Yf26Elk2itk_GseXhah-JDiha5ZeQXHfLq1JMm3tvucOqfAxsmMXX6z3wFlmtWKZwUzwSDad0pZmTVuCSmvl1dmtTbHNN9jJPJvefEKZbYGQ4XSHAztqjylDZlo5m00]--></g></svg>