<svg xmlns="http://www.w3.org/2000/svg" xmlns:xlink="http://www.w3.org/1999/xlink" contentStyleType="text/css" data-diagram-type="DESCRIPTION" height="561px" preserveAspectRatio="none" style="width:3368px;height:561px;background:#FFFFFF;" version="1.1" viewBox="0 0 3368 561" width="3368px" zoomAndPan="magnify"><title>CMD-work - work deep internal flow (observed) (LOD1: Code Functions)</title><defs/><g><g class="title" data-source-line="8"><text fill="#000000" font-family="Arial" font-size="22" font-weight="bold" lengthAdjust="spacing" textLength="750.4814" x="1304.6129" y="35.6357">CMD-work - work deep internal flow (observed) (LOD1: Code Functions)</text></g><!--entity NOTE_ANCHOR--><!--entity main_entry--><g class="entity" data-entity="main_entry" data-source-line="16" data-uid="ent0006" id="entity_main_entry"><rect fill="#FFFFFF" height="52.1973" rx="2.5" ry="2.5" style="stroke:#000000;stroke-width:1;" width="139.041" x="2008.57" y="185.4979"/><text fill="#000000" font-family="Arial" font-size="14" lengthAdjust="spacing" textLength="119.041" x="2018.57" y="208.6297">maestro.main.main</text><text fill="#000000" font-family="Arial" font-size="14" lengthAdjust="spacing" textLength="112.8066" x="2018.57" y="224.7283">(maestro/main.py)</text></g><!--entity add_work_parser--><g class="entity" data-entity="add_work_parser" data-source-line="17" data-uid="ent0007" id="entity_add_work_parser"><rect fill="#FFFFFF" height="52.1973" rx="2.5" ry="2.5" style="stroke:#000000;stroke-width:1;" width="204.3789" x="1975.9" y="378.7379"/><text fill="#000000" font-family="Arial" font-size="14" lengthAdjust="spacing" textLength="108.1719" x="1985.9" y="401.8697">add_work_parser</text><text fill="#000000" font-family="Arial" font-size="14" lengthAdjust="spacing" textLength="184.3789" x="1985.9" y="417.9683">(maestro/commands/work.py)</text></g><!--entity handle_work_any--><g class="entity" data-entity="handle_work_any" data-source-line="18" data-uid="ent0008" id="entity_handle_work_any"><rect fill="#FFFFFF" height="52.1973" rx="2.5" ry="2.5" style="stroke:#000000;stroke-width:1;" width="204.3789" x="2660.9" y="185.4979"/><text fill="#000000" font-family="Arial" font-size="14" lengthAdjust="spacing" textLength="109.7441" x="2670.9" y="208.6297">handle_work_any</text><text fill="#000000" font-family="Arial" font-size="14" lengthAdjust="spacing" textLength="184.3789" x="2670.9" y="224.7283">(maestro/commands/work.py)</text></g><!--entity handle_work_any_pick--><g class="entity" data-entity="handle_work_any_pick" data-source-line="19" data-uid="ent0009" id="entity_handle_work_any_pick"><rect fill="#FFFFFF" height="52.1973" rx="2.5" ry="2.5" style="stroke:#000000;stroke-width:1;" width="204.3789" x="2899.9" y="185.4979"/><text fill="#000000" font-family="Arial" font-size="14" lengthAdjust="spacing" textLength="142.4268" x="2909.9" y="208.6297">handle_work_any_pick</text><text fill="#000000" font-family="Arial" font-size="14" lengthAdjust="spacing" textLength="184.3789" x="2909.9" y="224.7283">(maestro/commands/work.py)</text></g><!--entity handle_work_track--><g class="entity" data-entity="handle_work_track" data-source-line="20" data-uid="ent0010" id="entity_handle_work_track"><rect fill="#FFFFFF" height="52.1973" rx="2.5" ry="2.5" style="stroke:#000000;stroke-width:1;" width="204.3789" x="2182.9" y="185.4979"/><text fill="#000000" font-family="Arial" font-size="14" lengthAdjust="spacing" textLength="117.5098" x="2192.9" y="208.6297">handle_work_track</text><text fill="#000000" font-family="Arial" font-size="14" lengthAdjust="spacing" textLength="184.3789" x="2192.9" y="224.7283">(maestro/commands/work.py)</text></g><!--entity handle_work_phase--><g class="entity" data-entity="handle_work_phase" data-source-line="21" data-uid="ent0011" id="entity_handle_work_phase"><rect fill="#FFFFFF" height="52.1973" rx="2.5" ry="2.5" style="stroke:#000000;stroke-width:1;" width="204.3789" x="2421.9" y="185.4979"/><text fill="#000000" font-family="Arial" font-size="14" lengthAdjust="spacing" textLength="125.3164" x="2431.9" y="208.6297">handle_work_phase</text><text fill="#000000" font-family="Arial" font-size="14" lengthAdjust="spacing" textLength="184.3789" x="2431.9" y="224.7283">(maestro/commands/work.py)</text></g><!--entity handle_work_issue--><g class="entity" data-entity="handle_work_issue" data-source-line="22" data-uid="ent0012" id="entity_handle_work_issue"><rect fill="#FFFFFF" height="52.1973" rx="2.5" ry="2.5" style="stroke:#000000;stroke-width:1;" width="204.3789" x="1258.9" y="185.4979"/><text fill="#000000" font-family="Arial" font-size="14" lengthAdjust="spacing" textLength="119.8545" x="1268.9" y="208.6297">handle_work_issue</text><text fill="#000000" font-family="Arial" font-size="14" lengthAdjust="spacing" textLength="184.3789" x="1268.9" y="224.7283">(maestro/commands/work.py)</text></g><!--entity handle_work_task--><g class="entity" data-entity="handle_work_task" data-source-line="23" data-uid="ent0013" id="entity_handle_work_task"><rect fill="#FFFFFF" height="52.1973" rx="2.5" ry="2.5" style="stroke:#000000;stroke-width:1;" width="204.3789" x="1497.9" y="185.4979"/><text fill="#000000" font-family="Arial" font-size="14" lengthAdjust="spacing" textLength="112.8477" x="1507.9" y="208.6297">handle_work_task</text><text fill="#000000" font-family="Arial" font-size="14" lengthAdjust="spacing" textLength="184.3789" x="1507.9" y="224.7283">(maestro/commands/work.py)</text></g><!--entity handle_work_discuss--><g class="entity" data-entity="handle_work_discuss" data-source-line="24" data-uid="ent0014" id="entity_handle_work_discuss"><rect fill="#FFFFFF" height="52.1973" rx="2.5" ry="2.5" style="stroke:#000000;stroke-width:1;" width="204.3789" x="1736.9" y="185.4979"/><text fill="#000000" font-family="Arial" font-size="14" lengthAdjust="spacing" textLength="133.8545" x="1746.9" y="208.6297">handle_work_discuss</text><text fill="#000000" font-family="Arial" font-size="14" lengthAdjust="spacing" textLength="184.3789" x="1746.9" y="224.7283">(maestro/commands/work.py)</text></g><!--entity handle_work_analyze--><g class="entity" data-entity="handle_work_analyze" data-source-line="25" data-uid="ent0015" id="entity_handle_work_analyze"><rect fill="#FFFFFF" height="52.1973" rx="2.5" ry="2.5" style="stroke:#000000;stroke-width:1;" width="204.3789" x="1258.9" y="378.7379"/><text fill="#000000" font-family="Arial" font-size="14" lengthAdjust="spacing" textLength="135.4268" x="1268.9" y="401.8697">handle_work_analyze</text><text fill="#000000" font-family="Arial" font-size="14" lengthAdjust="spacing" textLength="184.3789" x="1268.9" y="417.9683">(maestro/commands/work.py)</text></g><!--entity handle_work_fix--><g class="entity" data-entity="handle_work_fix" data-source-line="26" data-uid="ent0016" id="entity_handle_work_fix"><rect fill="#FFFFFF" height="52.1973" rx="2.5" ry="2.5" style="stroke:#000000;stroke-width:1;" width="204.3789" x="1497.9" y="378.7379"/><text fill="#000000" font-family="Arial" font-size="14" lengthAdjust="spacing" textLength="101.1719" x="1507.9" y="401.8697">handle_work_fix</text><text fill="#000000" font-family="Arial" font-size="14" lengthAdjust="spacing" textLength="184.3789" x="1507.9" y="417.9683">(maestro/commands/work.py)</text></g><!--entity load_available_work--><g class="entity" data-entity="load_available_work" data-source-line="27" data-uid="ent0017" id="entity_load_available_work"><rect fill="#FFFFFF" height="52.1973" rx="2.5" ry="2.5" style="stroke:#000000;stroke-width:1;" width="204.3789" x="2237.9" y="378.7379"/><text fill="#000000" font-family="Arial" font-size="14" lengthAdjust="spacing" textLength="126.8613" x="2247.9" y="401.8697">load_available_work</text><text fill="#000000" font-family="Arial" font-size="14" lengthAdjust="spacing" textLength="184.3789" x="2247.9" y="417.9683">(maestro/commands/work.py)</text></g><!--entity ai_select_work_items--><g class="entity" data-entity="ai_select_work_items" data-source-line="28" data-uid="ent0018" id="entity_ai_select_work_items"><rect fill="#FFFFFF" height="52.1973" rx="2.5" ry="2.5" style="stroke:#000000;stroke-width:1;" width="204.3789" x="3094.9" y="378.7379"/><text fill="#000000" font-family="Arial" font-size="14" lengthAdjust="spacing" textLength="133.834" x="3104.9" y="401.8697">ai_select_work_items</text><text fill="#000000" font-family="Arial" font-size="14" lengthAdjust="spacing" textLength="184.3789" x="3104.9" y="417.9683">(maestro/commands/work.py)</text></g><!--entity simple_priority_sort--><g class="entity" data-entity="simple_priority_sort" data-source-line="29" data-uid="ent0019" id="entity_simple_priority_sort"><rect fill="#FFFFFF" height="52.1973" rx="2.5" ry="2.5" style="stroke:#000000;stroke-width:1;" width="204.3789" x="1736.9" y="378.7379"/><text fill="#000000" font-family="Arial" font-size="14" lengthAdjust="spacing" textLength="121.3721" x="1746.9" y="401.8697">simple_priority_sort</text><text fill="#000000" font-family="Arial" font-size="14" lengthAdjust="spacing" textLength="184.3789" x="1746.9" y="417.9683">(maestro/commands/work.py)</text></g><!--entity _run_ai_interaction_with_breadcrumb--><g class="entity" data-entity="_run_ai_interaction_with_breadcrumb" data-source-line="30" data-uid="ent0020" id="entity__run_ai_interaction_with_breadcrumb"><rect fill="#FFFFFF" height="52.1973" rx="2.5" ry="2.5" style="stroke:#000000;stroke-width:1;" width="254.2539" x="1233.96" y="503.3879"/><text fill="#000000" font-family="Arial" font-size="14" lengthAdjust="spacing" textLength="234.2539" x="1243.96" y="526.5197">_run_ai_interaction_with_breadcrumb</text><text fill="#000000" font-family="Arial" font-size="14" lengthAdjust="spacing" textLength="184.3789" x="1243.96" y="542.6183">(maestro/commands/work.py)</text></g><!--entity create_session--><g class="entity" data-entity="create_session" data-source-line="34" data-uid="ent0024" id="entity_create_session"><ellipse cx="2524.0925" cy="375.2879" fill="#FFFFFF" rx="8" ry="8" style="stroke:#000000;stroke-width:1;"/><path d="M2524.0925,383.2879 L2524.0925,410.2879 M2511.0925,391.2879 L2537.0925,391.2879 M2524.0925,410.2879 L2511.0925,425.2879 M2524.0925,410.2879 L2537.0925,425.2879" fill="none" style="stroke:#000000;stroke-width:1;"/><text fill="#000000" font-family="Arial" font-size="14" lengthAdjust="spacing" textLength="94.165" x="2477.01" y="440.4197">create_session</text></g><!--entity execute_track_work--><g class="entity" data-entity="execute_track_work" data-source-line="35" data-uid="ent0026" id="entity_execute_track_work"><ellipse cx="2668.0915" cy="375.2879" fill="#FFFFFF" rx="8" ry="8" style="stroke:#000000;stroke-width:1;"/><path d="M2668.0915,383.2879 L2668.0915,410.2879 M2655.0915,391.2879 L2681.0915,391.2879 M2668.0915,410.2879 L2655.0915,425.2879 M2668.0915,410.2879 L2681.0915,425.2879" fill="none" style="stroke:#000000;stroke-width:1;"/><text fill="#000000" font-family="Arial" font-size="14" lengthAdjust="spacing" textLength="124.5029" x="2605.84" y="440.4197">execute_track_work</text></g><!--entity execute_phase_work--><g class="entity" data-entity="execute_phase_work" data-source-line="36" data-uid="ent0028" id="entity_execute_phase_work"><ellipse cx="2831.0848" cy="375.2879" fill="#FFFFFF" rx="8" ry="8" style="stroke:#000000;stroke-width:1;"/><path d="M2831.0848,383.2879 L2831.0848,410.2879 M2818.0848,391.2879 L2844.0848,391.2879 M2831.0848,410.2879 L2818.0848,425.2879 M2831.0848,410.2879 L2844.0848,425.2879" fill="none" style="stroke:#000000;stroke-width:1;"/><text fill="#000000" font-family="Arial" font-size="14" lengthAdjust="spacing" textLength="132.3096" x="2764.93" y="440.4197">execute_phase_work</text></g><!--entity execute_issue_work--><g class="entity" data-entity="execute_issue_work" data-source-line="37" data-uid="ent0030" id="entity_execute_issue_work"><ellipse cx="2996.0838" cy="375.2879" fill="#FFFFFF" rx="8" ry="8" style="stroke:#000000;stroke-width:1;"/><path d="M2996.0838,383.2879 L2996.0838,410.2879 M2983.0838,391.2879 L3009.0838,391.2879 M2996.0838,410.2879 L2983.0838,425.2879 M2996.0838,410.2879 L3009.0838,425.2879" fill="none" style="stroke:#000000;stroke-width:1;"/><text fill="#000000" font-family="Arial" font-size="14" lengthAdjust="spacing" textLength="126.8477" x="2932.66" y="440.4197">execute_issue_work</text></g><!--entity user--><g class="entity" data-entity="user" data-source-line="40" data-uid="ent0034" id="entity_user"><ellipse cx="3348.09" cy="375.2879" fill="#FFFFFF" rx="8" ry="8" style="stroke:#000000;stroke-width:1;"/><path d="M3348.09,383.2879 L3348.09,410.2879 M3335.09,391.2879 L3361.09,391.2879 M3348.09,410.2879 L3335.09,425.2879 M3348.09,410.2879 L3361.09,425.2879" fill="none" style="stroke:#000000;stroke-width:1;"/><text fill="#000000" font-family="Arial" font-size="14" lengthAdjust="spacing" textLength="27.2344" x="3334.4728" y="440.4197">user</text></g><!--link NOTE_ANCHOR to GMN3--><!--link main_entry to add_work_parser--><g class="link" data-entity-1="main_entry" data-entity-2="add_work_parser" data-source-line="31" data-uid="lnk21" id="link_main_entry_add_work_parser"><path d="M2078.09,237.9979 C2078.09,274.5679 2078.09,335.7079 2078.09,372.3379" fill="none" id="main_entry-to-add_work_parser" style="stroke:#333333;stroke-width:1;"/><polygon fill="#333333" points="2078.09,378.3379,2082.09,369.3379,2078.09,373.3379,2074.09,369.3379,2078.09,378.3379" style="stroke:#333333;stroke-width:1;"/></g><!--link handle_work_any to load_available_work--><g class="link" data-entity-1="handle_work_any" data-entity-2="load_available_work" data-source-line="32" data-uid="lnk22" id="link_handle_work_any_load_available_work"><path d="M2736.69,237.9579 C2713.78,258.7879 2678.91,287.7779 2644.09,306.2879 C2638.94,309.0279 2514.97,348.4962 2426.66,376.4662" fill="none" id="handle_work_any-to-load_available_work" style="stroke:#333333;stroke-width:1;"/><polygon fill="#333333" points="2420.94,378.2779,2430.7277,379.3737,2425.7066,376.7681,2428.3122,371.7471,2420.94,378.2779" style="stroke:#333333;stroke-width:1;"/></g><!--link handle_work_any to ai_select_work_items--><g class="link" data-entity-1="handle_work_any" data-entity-2="ai_select_work_items" data-source-line="33" data-uid="lnk23" id="link_handle_work_any_ai_select_work_items"><path d="M2789.43,238.0679 C2812.3,258.9679 2847.15,287.9879 2882.09,306.2879 C2962.4,348.3879 2990.48,339.4179 3077.09,366.2879 C3089.6,370.1779 3097.1026,372.5097 3110.0426,376.5497" fill="none" id="handle_work_any-to-ai_select_work_items" style="stroke:#333333;stroke-width:1;"/><polygon fill="#333333" points="3115.77,378.3379,3108.3711,371.8374,3110.9972,376.8477,3105.9869,379.4739,3115.77,378.3379" style="stroke:#333333;stroke-width:1;"/></g><!--link handle_work_any to create_session--><g class="link" data-entity-1="handle_work_any" data-entity-2="create_session" data-source-line="34" data-uid="lnk25" id="link_handle_work_any_create_session"><path d="M2731.35,237.9979 C2690.34,270.8179 2623.2644,324.4787 2575.8844,362.3987" fill="none" id="handle_work_any-to-create_session" style="stroke:#333333;stroke-width:1;"/><polygon fill="#333333" points="2571.2,366.1479,2580.7261,363.6471,2575.1037,363.0236,2575.7272,357.4012,2571.2,366.1479" style="stroke:#333333;stroke-width:1;"/></g><!--link handle_work_any to execute_track_work--><g class="link" data-entity-1="handle_work_any" data-entity-2="execute_track_work" data-source-line="35" data-uid="lnk27" id="link_handle_work_any_execute_track_work"><path d="M2750.47,237.9979 C2734.17,270.8179 2708.3197,322.8545 2689.4797,360.7745" fill="none" id="handle_work_any-to-execute_track_work" style="stroke:#333333;stroke-width:1;"/><polygon fill="#333333" points="2686.81,366.1479,2694.3967,359.8676,2689.0347,361.6701,2687.2323,356.3081,2686.81,366.1479" style="stroke:#333333;stroke-width:1;"/></g><!--link handle_work_any to execute_phase_work--><g class="link" data-entity-1="handle_work_any" data-entity-2="execute_phase_work" data-source-line="36" data-uid="lnk29" id="link_handle_work_any_execute_phase_work"><path d="M2772.12,237.9979 C2783.79,270.8179 2802.1903,322.5744 2815.6703,360.4944" fill="none" id="handle_work_any-to-execute_phase_work" style="stroke:#333333;stroke-width:1;"/><polygon fill="#333333" points="2817.68,366.1479,2818.4344,356.3279,2816.0052,361.4367,2810.8965,359.0075,2817.68,366.1479" style="stroke:#333333;stroke-width:1;"/></g><!--link handle_work_any to execute_issue_work--><g class="link" data-entity-1="handle_work_any" data-entity-2="execute_issue_work" data-source-line="37" data-uid="lnk31" id="link_handle_work_any_execute_issue_work"><path d="M2794.03,237.9979 C2834.01,270.8179 2899.3222,324.4212 2945.5222,362.3412" fill="none" id="handle_work_any-to-execute_issue_work" style="stroke:#333333;stroke-width:1;"/><polygon fill="#333333" points="2950.16,366.1479,2945.741,357.346,2946.2951,362.9757,2940.6655,363.5298,2950.16,366.1479" style="stroke:#333333;stroke-width:1;"/></g><!--link handle_work_any_pick to load_available_work--><g class="link" data-entity-1="handle_work_any_pick" data-entity-2="load_available_work" data-source-line="38" data-uid="lnk32" id="link_handle_work_any_pick_load_available_work"><path d="M2978.2,237.7879 C2955.82,259.7079 2920.33,290.3779 2883.09,306.2879 C2708.07,381.0679 2644.69,324.1779 2459.09,366.2879 C2444.51,369.5979 2434.8917,372.1062 2420.2217,376.5562" fill="none" id="handle_work_any_pick-to-load_available_work" style="stroke:#333333;stroke-width:1;"/><polygon fill="#333333" points="2414.48,378.2979,2424.2536,379.5131,2419.2647,376.8465,2421.9314,371.8576,2414.48,378.2979" style="stroke:#333333;stroke-width:1;"/></g><!--link handle_work_any_pick to ai_select_work_items--><g class="link" data-entity-1="handle_work_any_pick" data-entity-2="ai_select_work_items" data-source-line="39" data-uid="lnk33" id="link_handle_work_any_pick_ai_select_work_items"><path d="M3027.98,237.9979 C3065.28,274.5679 3129.4457,337.5073 3166.8057,374.1373" fill="none" id="handle_work_any_pick-to-ai_select_work_items" style="stroke:#333333;stroke-width:1;"/><polygon fill="#333333" points="3171.09,378.3379,3167.4639,369.1808,3167.5198,374.8374,3161.8632,374.8932,3171.09,378.3379" style="stroke:#333333;stroke-width:1;"/></g><!--link handle_work_any_pick to user--><g class="link" data-entity-1="handle_work_any_pick" data-entity-2="user" data-source-line="40" data-uid="lnk35" id="link_handle_work_any_pick_user"><path d="M3075.57,238.1079 C3142.83,263.7479 3242.88,307.8279 3317.09,366.2879 C3323.2,371.1079 3325.1509,372.6395 3329.9709,378.6095" fill="none" id="handle_work_any_pick-to-user" style="stroke:#333333;stroke-width:1;"/><polygon fill="#333333" points="3333.74,383.2779,3331.1986,373.7625,3330.5991,379.3875,3324.9741,378.788,3333.74,383.2779" style="stroke:#333333;stroke-width:1;"/></g><!--link handle_work_any_pick to create_session--><g class="link" data-entity-1="handle_work_any_pick" data-entity-2="create_session" data-source-line="41" data-uid="lnk36" id="link_handle_work_any_pick_create_session"><path d="M2977.08,238.1079 C2954.51,259.6079 2919.35,289.4879 2883.09,306.2879 C2761.69,362.5279 2713.04,318.4579 2588.09,366.2879 C2582.55,368.4079 2582.2869,368.2556 2576.8069,371.0456" fill="none" id="handle_work_any_pick-to-create_session" style="stroke:#333333;stroke-width:1;"/><polygon fill="#333333" points="2571.46,373.7679,2581.2952,373.2491,2575.9158,371.4993,2577.6655,366.1199,2571.46,373.7679" style="stroke:#333333;stroke-width:1;"/></g><!--link handle_work_any_pick to execute_track_work--><g class="link" data-entity-1="handle_work_any_pick" data-entity-2="execute_track_work" data-source-line="42" data-uid="lnk37" id="link_handle_work_any_pick_execute_track_work"><path d="M2974.23,237.8479 C2951,258.0579 2916.44,286.2379 2883.09,306.2879 C2826.46,340.3279 2807.15,338.7779 2747.09,366.2879 C2741.7,368.7579 2741.5666,368.8095 2735.9766,371.4195" fill="none" id="handle_work_any_pick-to-execute_track_work" style="stroke:#333333;stroke-width:1;"/><polygon fill="#333333" points="2730.54,373.9579,2740.3872,373.7747,2735.0705,371.8425,2737.0027,366.5259,2730.54,373.9579" style="stroke:#333333;stroke-width:1;"/></g><!--link handle_work_any_pick to execute_phase_work--><g class="link" data-entity-1="handle_work_any_pick" data-entity-2="execute_phase_work" data-source-line="43" data-uid="lnk38" id="link_handle_work_any_pick_execute_phase_work"><path d="M2979.38,237.9979 C2950.04,270.8179 2902.6996,323.7553 2868.7896,361.6753" fill="none" id="handle_work_any_pick-to-execute_phase_work" style="stroke:#333333;stroke-width:1;"/><polygon fill="#333333" points="2864.79,366.1479,2873.771,362.1054,2868.123,362.4207,2867.8077,356.7727,2864.79,366.1479" style="stroke:#333333;stroke-width:1;"/></g><!--link handle_work_any_pick to execute_issue_work--><g class="link" data-entity-1="handle_work_any_pick" data-entity-2="execute_issue_work" data-source-line="44" data-uid="lnk39" id="link_handle_work_any_pick_execute_issue_work"><path d="M3001.29,237.9979 C3000.26,270.8179 2998.6482,322.2308 2997.4582,360.1508" fill="none" id="handle_work_any_pick-to-execute_issue_work" style="stroke:#333333;stroke-width:1;"/><polygon fill="#333333" points="2997.27,366.1479,3001.5503,357.2777,2997.4268,361.1503,2993.5543,357.0268,2997.27,366.1479" style="stroke:#333333;stroke-width:1;"/></g><!--link handle_work_track to load_available_work--><g class="link" data-entity-1="handle_work_track" data-entity-2="load_available_work" data-source-line="45" data-uid="lnk40" id="link_handle_work_track_load_available_work"><path d="M2292.39,237.9979 C2302.91,274.5679 2320.5623,335.9414 2331.0923,372.5714" fill="none" id="handle_work_track-to-load_available_work" style="stroke:#333333;stroke-width:1;"/><polygon fill="#333333" points="2332.75,378.3379,2334.1078,368.583,2331.3686,373.5325,2326.4192,370.7933,2332.75,378.3379" style="stroke:#333333;stroke-width:1;"/></g><!--link handle_work_track to create_session--><g class="link" data-entity-1="handle_work_track" data-entity-2="create_session" data-source-line="46" data-uid="lnk41" id="link_handle_work_track_create_session"><path d="M2316.83,237.9979 C2357.84,270.8179 2424.9052,324.4792 2472.2952,362.3992" fill="none" id="handle_work_track-to-create_session" style="stroke:#333333;stroke-width:1;"/><polygon fill="#333333" points="2476.98,366.1479,2472.4519,357.4017,2473.076,363.024,2467.4537,363.6481,2476.98,366.1479" style="stroke:#333333;stroke-width:1;"/></g><!--link handle_work_track to execute_track_work--><g class="link" data-entity-1="handle_work_track" data-entity-2="execute_track_work" data-source-line="47" data-uid="lnk42" id="link_handle_work_track_execute_track_work"><path d="M2311.5,237.9379 C2334.42,258.7479 2369.29,287.7179 2404.09,306.2879 C2480.34,346.9979 2508.77,334.3379 2589.09,366.2879 C2594.45,368.4279 2594.4681,368.3314 2599.9681,370.7514" fill="none" id="handle_work_track-to-execute_track_work" style="stroke:#333333;stroke-width:1;"/><polygon fill="#333333" points="2605.46,373.1679,2598.8331,365.8819,2600.8834,371.1542,2595.6112,373.2045,2605.46,373.1679" style="stroke:#333333;stroke-width:1;"/></g><!--link handle_work_phase to load_available_work--><g class="link" data-entity-1="handle_work_phase" data-entity-2="load_available_work" data-source-line="48" data-uid="lnk43" id="link_handle_work_phase_load_available_work"><path d="M2499.65,237.9979 C2464.46,274.5679 2404.0304,337.3846 2368.7804,374.0146" fill="none" id="handle_work_phase-to-load_available_work" style="stroke:#333333;stroke-width:1;"/><polygon fill="#333333" points="2364.62,378.3379,2373.7428,374.6265,2368.087,374.7351,2367.9784,369.0793,2364.62,378.3379" style="stroke:#333333;stroke-width:1;"/></g><!--link handle_work_phase to create_session--><g class="link" data-entity-1="handle_work_phase" data-entity-2="create_session" data-source-line="49" data-uid="lnk44" id="link_handle_work_phase_create_session"><path d="M2524.09,237.9979 C2524.09,270.8179 2524.09,322.2279 2524.09,360.1479" fill="none" id="handle_work_phase-to-create_session" style="stroke:#333333;stroke-width:1;"/><polygon fill="#333333" points="2524.09,366.1479,2528.09,357.1479,2524.09,361.1479,2520.09,357.1479,2524.09,366.1479" style="stroke:#333333;stroke-width:1;"/></g><!--link handle_work_phase to execute_phase_work--><g class="link" data-entity-1="handle_work_phase" data-entity-2="execute_phase_work" data-source-line="50" data-uid="lnk45" id="link_handle_work_phase_execute_phase_work"><path d="M2553.25,238.1079 C2576.66,257.9379 2610.83,285.4879 2643.09,306.2879 C2681.87,331.3079 2722.4156,352.6111 2759.1756,370.5111" fill="none" id="handle_work_phase-to-execute_phase_work" style="stroke:#333333;stroke-width:1;"/><polygon fill="#333333" points="2764.57,373.1379,2758.2295,365.6014,2760.0746,370.9489,2754.7271,372.794,2764.57,373.1379" style="stroke:#333333;stroke-width:1;"/></g><!--SRC=[bLVHJjim57tFLtZi1P1e19FsmAH9NIc32Te9U6CeSktRrcfYHxRJqdtAdlPj-v9Tkob9suGaKTNaskSSNr_RDpSVx1mI86bCXGpCGiYKQfgG2MMBcLQPv0CLAqq-NlkhXE0mfLbihvMq8ueAVIreNEhlQwrMEVcJlqgT8sNXcz8ST8uO-6iVKUK4eW8hR0naS7zrjb9wGSw8lt60b0XfGKiQasciLkHOJGpe9V0JSdmtlZg_90F5WLndabcXf3a9Wim0emR84PLihlGHeOQCna_3g3yQt8mVWhb0Ghb1ecT4YzdS4ZNTwI7azFHHPPh1vUafUNxcYfdGkUPyCU7o8XGwP0aFjvxt67hJMzCa9XsmBoy1I4wS7q6WWLagPnYEeuI2iLhr4bnA__TB7kTjeMzBroT-Uiw8G5gzBjCfvv4RAC85mA2Lo4mb2PLyuz-RoXw-B3L7T0oRNYhNZL9x-7UaebImHLSzJweJjPfsLFICEhbqZfkfavndrCa9Ox9kSfvHErbgEiuL2NLYN1YM6TD9B-VKhp2Drx-Xum9xJftaLBnsaaDyMIfMb4TqIKLC9pcaKQw2itFGH6GWHZjVC0j9Sn2hI6LH8v8KnqgrK5hOTMIKjesYLQIoQAGp6U78FgbIdpAZbR3pQAA1SgQpPD8uHWkDe4X8vEpiwq5csJlE7bCLuofSPTogW0pTiO1WOz35IWYy0iiGunD0_P1Rc3_OpJ1_O2jXFc-rdMq1RZFb0frLHBZeVJyg1QuvD8VO-lWSOck2v8Th5Q42-SwK2b33VBphhSOjaE-CMu0gOhCfE6AOLjORmoNM9z9N7Cx6gcDv7cwBeD2LHAwAo9ClMhqqmshZi0cBYWrzhn2fEzmalpVn_2ZvdBUqajr4BvA48-zOJLGgGlVsYinQCaSk6qrSa3CXmJXQyTX4ujHIDFI2gvNCSvTJE6ng7UpyTUbKYiSs8GTjmcBlRlpOizlA55jn8xDdjvKfJl16Pi_UAMfhIspt2J3yFFpij_w_Ft_97V0PQ7A3EzviZy0uh_d95Ix8VHvyag8JmbXtLl0ZuUq4RBuQdCjVoFA2Q4WL1YgpSvSO3VdnE1wXAFwUdtkz47-tzp_lXlV3qLF_wNOyYkw6Lz-73xs4ayeE7vqjrObhQyBOEnqnN6A1cmOt5zBpcGpU6iiH-Gy0]--></g></svg>