<svg xmlns="http://www.w3.org/2000/svg" xmlns:xlink="http://www.w3.org/1999/xlink" contentStyleType="text/css" data-diagram-type="DESCRIPTION" height="550px" preserveAspectRatio="none" style="width:1991px;height:550px;background:#FFFFFF;" version="1.1" viewBox="0 0 1991 550" width="1991px" zoomAndPan="magnify"><title>CMD-log - log deep internal flow (observed) (LOD1: Code Functions)</title><defs/><g><g class="title" data-source-line="8"><text fill="#000000" font-family="Arial" font-size="22" font-weight="bold" lengthAdjust="spacing" textLength="713.7646" x="634.3767" y="35.6357">CMD-log - log deep internal flow (observed) (LOD1: Code Functions)</text></g><!--entity NOTE_ANCHOR--><!--entity main_entry--><g class="entity" data-entity="main_entry" data-source-line="16" data-uid="ent0006" id="entity_main_entry"><rect fill="#FFFFFF" height="52.1973" rx="2.5" ry="2.5" style="stroke:#000000;stroke-width:1;" width="132.8066" x="667.63" y="68.7479"/><text fill="#000000" font-family="Arial" font-size="14" lengthAdjust="spacing" textLength="69.2549" x="677.63" y="91.8797">main_entry</text><text fill="#000000" font-family="Arial" font-size="14" lengthAdjust="spacing" textLength="112.8066" x="677.63" y="107.9783">(maestro/main.py)</text></g><!--entity handle_log_list--><g class="entity" data-entity="handle_log_list" data-source-line="17" data-uid="ent0007" id="entity_handle_log_list"><rect fill="#FFFFFF" height="52.1973" rx="2.5" ry="2.5" style="stroke:#000000;stroke-width:1;" width="282.2266" x="275.92" y="205.8379"/><text fill="#000000" font-family="Arial" font-size="14" lengthAdjust="spacing" textLength="93.4063" x="285.92" y="228.9697">handle_log_list</text><text fill="#000000" font-family="Arial" font-size="14" lengthAdjust="spacing" textLength="262.2266" x="285.92" y="245.0683">(maestro/modules/command_handlers.py)</text></g><!--entity handle_log_list_work--><g class="entity" data-entity="handle_log_list_work" data-source-line="18" data-uid="ent0008" id="entity_handle_log_list_work"><rect fill="#FFFFFF" height="52.1973" rx="2.5" ry="2.5" style="stroke:#000000;stroke-width:1;" width="282.2266" x="1226.92" y="205.8379"/><text fill="#000000" font-family="Arial" font-size="14" lengthAdjust="spacing" textLength="130.751" x="1236.92" y="228.9697">handle_log_list_work</text><text fill="#000000" font-family="Arial" font-size="14" lengthAdjust="spacing" textLength="262.2266" x="1236.92" y="245.0683">(maestro/modules/command_handlers.py)</text></g><!--entity handle_log_list_plan--><g class="entity" data-entity="handle_log_list_plan" data-source-line="19" data-uid="ent0009" id="entity_handle_log_list_plan"><rect fill="#FFFFFF" height="52.1973" rx="2.5" ry="2.5" style="stroke:#000000;stroke-width:1;" width="282.2266" x="592.92" y="205.8379"/><text fill="#000000" font-family="Arial" font-size="14" lengthAdjust="spacing" textLength="127.6611" x="602.92" y="228.9697">handle_log_list_plan</text><text fill="#000000" font-family="Arial" font-size="14" lengthAdjust="spacing" textLength="262.2266" x="602.92" y="245.0683">(maestro/modules/command_handlers.py)</text></g><!--entity load_session--><g class="entity" data-entity="load_session" data-source-line="20" data-uid="ent0010" id="entity_load_session"><rect fill="#FFFFFF" height="52.1973" rx="2.5" ry="2.5" style="stroke:#000000;stroke-width:1;" width="282.2266" x="1543.92" y="205.8379"/><text fill="#000000" font-family="Arial" font-size="14" lengthAdjust="spacing" textLength="81.7236" x="1553.92" y="228.9697">load_session</text><text fill="#000000" font-family="Arial" font-size="14" lengthAdjust="spacing" textLength="262.2266" x="1553.92" y="245.0683">(maestro/modules/command_handlers.py)</text></g><!--entity get_maestro_dir--><g class="entity" data-entity="get_maestro_dir" data-source-line="21" data-uid="ent0011" id="entity_get_maestro_dir"><rect fill="#FFFFFF" height="52.1973" rx="2.5" ry="2.5" style="stroke:#000000;stroke-width:1;" width="282.2266" x="909.92" y="205.8379"/><text fill="#000000" font-family="Arial" font-size="14" lengthAdjust="spacing" textLength="101.165" x="919.92" y="228.9697">get_maestro_dir</text><text fill="#000000" font-family="Arial" font-size="14" lengthAdjust="spacing" textLength="262.2266" x="919.92" y="245.0683">(maestro/modules/command_handlers.py)</text></g><!--entity docs_sessions_dir--><g class="entity" data-entity="docs_sessions_dir" data-source-line="25" data-uid="ent0015" id="entity_docs_sessions_dir"><ellipse cx="1051.0359" cy="339.4879" fill="#FFFFFF" rx="8" ry="8" style="stroke:#000000;stroke-width:1;"/><path d="M1051.0359,347.4879 L1051.0359,374.4879 M1038.0359,355.4879 L1064.0359,355.4879 M1051.0359,374.4879 L1038.0359,389.4879 M1051.0359,374.4879 L1064.0359,389.4879" fill="none" style="stroke:#000000;stroke-width:1;"/><text fill="#000000" font-family="Arial" font-size="14" lengthAdjust="spacing" textLength="115.1719" x="993.45" y="404.6197">docs_sessions_dir</text></g><!--entity maestro_utils--><g class="entity" data-entity="maestro_utils" data-source-line="26" data-uid="ent0017" id="entity_maestro_utils"><ellipse cx="734.0374" cy="339.4879" fill="#FFFFFF" rx="8" ry="8" style="stroke:#000000;stroke-width:1;"/><path d="M734.0374,347.4879 L734.0374,374.4879 M721.0374,355.4879 L747.0374,355.4879 M734.0374,374.4879 L721.0374,389.4879 M734.0374,374.4879 L747.0374,389.4879" fill="none" style="stroke:#000000;stroke-width:1;"/><text fill="#000000" font-family="Arial" font-size="14" lengthAdjust="spacing" textLength="83.2549" x="692.41" y="404.6197">maestro_utils</text></g><!--entity session_class--><g class="entity" data-entity="session_class" data-source-line="28" data-uid="ent0020" id="entity_session_class"><ellipse cx="1526.0357" cy="339.4879" fill="#FFFFFF" rx="8" ry="8" style="stroke:#000000;stroke-width:1;"/><path d="M1526.0357,347.4879 L1526.0357,374.4879 M1513.0357,355.4879 L1539.0357,355.4879 M1526.0357,374.4879 L1513.0357,389.4879 M1526.0357,374.4879 L1539.0357,389.4879" fill="none" style="stroke:#000000;stroke-width:1;"/><text fill="#000000" font-family="Arial" font-size="14" lengthAdjust="spacing" textLength="87.1514" x="1482.46" y="404.6197">session_class</text></g><!--entity subtask_class--><g class="entity" data-entity="subtask_class" data-source-line="35" data-uid="ent0028" id="entity_subtask_class"><ellipse cx="1526.0353" cy="476.5879" fill="#FFFFFF" rx="8" ry="8" style="stroke:#000000;stroke-width:1;"/><path d="M1526.0353,484.5879 L1526.0353,511.5879 M1513.0353,492.5879 L1539.0353,492.5879 M1526.0353,511.5879 L1513.0353,526.5879 M1526.0353,511.5879 L1539.0353,526.5879" fill="none" style="stroke:#000000;stroke-width:1;"/><text fill="#000000" font-family="Arial" font-size="14" lengthAdjust="spacing" textLength="87.9307" x="1482.07" y="541.7197">subtask_class</text></g><!--entity file_system--><g class="entity" data-entity="file_system" data-source-line="36" data-uid="ent0030" id="entity_file_system"><ellipse cx="1051.0403" cy="476.5879" fill="#FFFFFF" rx="8" ry="8" style="stroke:#000000;stroke-width:1;"/><path d="M1051.0403,484.5879 L1051.0403,511.5879 M1038.0403,492.5879 L1064.0403,492.5879 M1051.0403,511.5879 L1038.0403,526.5879 M1051.0403,511.5879 L1064.0403,526.5879" fill="none" style="stroke:#000000;stroke-width:1;"/><text fill="#000000" font-family="Arial" font-size="14" lengthAdjust="spacing" textLength="70.0205" x="1016.03" y="541.7197">file_system</text></g><!--entity pathlib--><g class="entity" data-entity="pathlib" data-source-line="37" data-uid="ent0032" id="entity_pathlib"><ellipse cx="1888.0374" cy="65.2979" fill="#FFFFFF" rx="8" ry="8" style="stroke:#000000;stroke-width:1;"/><path d="M1888.0374,73.2979 L1888.0374,100.2979 M1875.0374,81.2979 L1901.0374,81.2979 M1888.0374,100.2979 L1875.0374,115.2979 M1888.0374,100.2979 L1901.0374,115.2979" fill="none" style="stroke:#000000;stroke-width:1;"/><text fill="#000000" font-family="Arial" font-size="14" lengthAdjust="spacing" textLength="41.2549" x="1867.41" y="130.4297">pathlib</text></g><!--entity command_handlers--><g class="entity" data-entity="command_handlers" data-source-line="37" data-uid="ent0033" id="entity_command_handlers"><ellipse cx="1923.039" cy="202.3879" fill="#FFFFFF" rx="8" ry="8" style="stroke:#000000;stroke-width:1;"/><path d="M1923.039,210.3879 L1923.039,237.3879 M1910.039,218.3879 L1936.039,218.3879 M1923.039,237.3879 L1910.039,252.3879 M1923.039,237.3879 L1936.039,252.3879" fill="none" style="stroke:#000000;stroke-width:1;"/><text fill="#000000" font-family="Arial" font-size="14" lengthAdjust="spacing" textLength="122.958" x="1861.56" y="267.5197">command_handlers</text></g><!--entity os--><g class="entity" data-entity="os" data-source-line="38" data-uid="ent0035" id="entity_os"><ellipse cx="1958.04" cy="65.2979" fill="#FFFFFF" rx="8" ry="8" style="stroke:#000000;stroke-width:1;"/><path d="M1958.04,73.2979 L1958.04,100.2979 M1945.04,81.2979 L1971.04,81.2979 M1958.04,100.2979 L1945.04,115.2979 M1958.04,100.2979 L1971.04,115.2979" fill="none" style="stroke:#000000;stroke-width:1;"/><text fill="#000000" font-family="Arial" font-size="14" lengthAdjust="spacing" textLength="14.7861" x="1950.6469" y="130.4297">os</text></g><!--link main_entry to handle_log_list--><g class="link" data-entity-1="main_entry" data-entity-2="handle_log_list" data-source-line="22" data-uid="lnk12" id="link_main_entry_handle_log_list"><path d="M677.64,121.2779 C668.43,125.3679 658.98,129.5179 650.04,133.3879 C592.28,158.3879 531.6145,183.7146 484.5645,203.1746" fill="none" id="main_entry-to-handle_log_list" style="stroke:#333333;stroke-width:1;"/><polygon fill="#333333" points="479.02,205.4679,488.8655,205.7244,483.6404,203.5568,485.8079,198.3317,479.02,205.4679" style="stroke:#333333;stroke-width:1;"/></g><!--link main_entry to handle_log_list_work--><g class="link" data-entity-1="main_entry" data-entity-2="handle_log_list_work" data-source-line="23" data-uid="lnk13" id="link_main_entry_handle_log_list_work"><path d="M800.79,108.8379 C893,126.9479 1064.46,161.1879 1210.04,193.3879 C1227.11,197.1679 1239.3281,199.9495 1256.9181,204.0695" fill="none" id="main_entry-to-handle_log_list_work" style="stroke:#333333;stroke-width:1;"/><polygon fill="#333333" points="1262.76,205.4379,1254.9094,199.4908,1257.8918,204.2976,1253.085,207.28,1262.76,205.4379" style="stroke:#333333;stroke-width:1;"/></g><!--link main_entry to handle_log_list_plan--><g class="link" data-entity-1="main_entry" data-entity-2="handle_log_list_plan" data-source-line="24" data-uid="lnk14" id="link_main_entry_handle_log_list_plan"><path d="M734.04,121.2579 C734.04,145.4079 734.04,175.5279 734.04,199.6479" fill="none" id="main_entry-to-handle_log_list_plan" style="stroke:#333333;stroke-width:1;"/><polygon fill="#333333" points="734.04,205.6479,738.04,196.6479,734.04,200.6479,730.04,196.6479,734.04,205.6479" style="stroke:#333333;stroke-width:1;"/></g><!--link handle_log_list to docs_sessions_dir--><g class="link" data-entity-1="handle_log_list" data-entity-2="docs_sessions_dir" data-source-line="25" data-uid="lnk16" id="link_handle_log_list_docs_sessions_dir"><path d="M522.32,258.4479 C539.9,262.5679 557.97,266.7179 575.04,270.4879 C725.35,303.7479 897.3721,338.0035 987.1421,355.6035" fill="none" id="handle_log_list-to-docs_sessions_dir" style="stroke:#333333;stroke-width:1;"/><polygon fill="#333333" points="993.03,356.7579,984.9677,351.101,988.1234,355.7959,983.4286,358.9516,993.03,356.7579" style="stroke:#333333;stroke-width:1;"/></g><!--link handle_log_list to maestro_utils--><g class="link" data-entity-1="handle_log_list" data-entity-2="maestro_utils" data-source-line="26" data-uid="lnk18" id="link_handle_log_list_maestro_utils"><path d="M477.04,258.5079 C539.86,285.2879 631.3705,324.2852 686.4805,347.7752" fill="none" id="handle_log_list-to-maestro_utils" style="stroke:#333333;stroke-width:1;"/><polygon fill="#333333" points="692,350.1279,685.2891,342.9192,687.4004,348.1673,682.1523,350.2786,692,350.1279" style="stroke:#333333;stroke-width:1;"/></g><!--link handle_log_list_work to docs_sessions_dir--><g class="link" data-entity-1="handle_log_list_work" data-entity-2="docs_sessions_dir" data-source-line="27" data-uid="lnk19" id="link_handle_log_list_work_docs_sessions_dir"><path d="M1308.04,258.5079 C1250.87,282.8779 1170.8997,316.9557 1114.4397,341.0157" fill="none" id="handle_log_list_work-to-docs_sessions_dir" style="stroke:#333333;stroke-width:1;"/><polygon fill="#333333" points="1108.92,343.3679,1118.7677,343.5194,1113.5198,341.4077,1115.6314,336.1598,1108.92,343.3679" style="stroke:#333333;stroke-width:1;"/></g><!--link handle_log_list_work to session_class--><g class="link" data-entity-1="handle_log_list_work" data-entity-2="session_class" data-source-line="28" data-uid="lnk21" id="link_handle_log_list_work_session_class"><path d="M1397.76,258.3479 C1421.53,278.6879 1450.6696,303.5988 1477.5596,326.5888" fill="none" id="handle_log_list_work-to-session_class" style="stroke:#333333;stroke-width:1;"/><polygon fill="#333333" points="1482.12,330.4879,1477.8787,321.599,1478.3196,327.2387,1472.68,327.6796,1482.12,330.4879" style="stroke:#333333;stroke-width:1;"/></g><!--link handle_log_list_work to maestro_utils--><g class="link" data-entity-1="handle_log_list_work" data-entity-2="maestro_utils" data-source-line="29" data-uid="lnk22" id="link_handle_log_list_work_maestro_utils"><path d="M1262.76,258.4479 C1245.17,262.5679 1227.11,266.7179 1210.04,270.4879 C1050.25,305.8379 865.1688,342.488 782.0488,358.718" fill="none" id="handle_log_list_work-to-maestro_utils" style="stroke:#333333;stroke-width:1;"/><polygon fill="#333333" points="776.16,359.8679,785.7597,362.0689,781.0673,358.9096,784.2266,354.2172,776.16,359.8679" style="stroke:#333333;stroke-width:1;"/></g><!--link handle_log_list_plan to docs_sessions_dir--><g class="link" data-entity-1="handle_log_list_plan" data-entity-2="docs_sessions_dir" data-source-line="30" data-uid="lnk23" id="link_handle_log_list_plan_docs_sessions_dir"><path d="M794.04,258.5079 C851.21,282.8779 931.1803,316.9557 987.6403,341.0157" fill="none" id="handle_log_list_plan-to-docs_sessions_dir" style="stroke:#333333;stroke-width:1;"/><polygon fill="#333333" points="993.16,343.3679,986.4486,336.1598,988.5602,341.4077,983.3123,343.5194,993.16,343.3679" style="stroke:#333333;stroke-width:1;"/></g><!--link handle_log_list_plan to maestro_utils--><g class="link" data-entity-1="handle_log_list_plan" data-entity-2="maestro_utils" data-source-line="31" data-uid="lnk24" id="link_handle_log_list_plan_maestro_utils"><path d="M734.04,258.3479 C734.04,278.6079 734.04,301.2779 734.04,324.2279" fill="none" id="handle_log_list_plan-to-maestro_utils" style="stroke:#333333;stroke-width:1;"/><polygon fill="#333333" points="734.04,330.2279,738.04,321.2279,734.04,325.2279,730.04,321.2279,734.04,330.2279" style="stroke:#333333;stroke-width:1;"/></g><!--link load_session to docs_sessions_dir--><g class="link" data-entity-1="load_session" data-entity-2="docs_sessions_dir" data-source-line="32" data-uid="lnk25" id="link_load_session_docs_sessions_dir"><path d="M1579.76,258.4479 C1562.17,262.5679 1544.11,266.7179 1527.04,270.4879 C1376.72,303.7479 1204.6979,338.0034 1114.9379,355.6034" fill="none" id="load_session-to-docs_sessions_dir" style="stroke:#333333;stroke-width:1;"/><polygon fill="#333333" points="1109.05,356.7579,1118.6515,358.9514,1113.9566,355.7958,1117.1122,351.1009,1109.05,356.7579" style="stroke:#333333;stroke-width:1;"/></g><!--link get_maestro_dir to docs_sessions_dir--><g class="link" data-entity-1="get_maestro_dir" data-entity-2="docs_sessions_dir" data-source-line="33" data-uid="lnk26" id="link_get_maestro_dir_docs_sessions_dir"><path d="M1051.04,258.3479 C1051.04,278.6079 1051.04,301.2779 1051.04,324.2279" fill="none" id="get_maestro_dir-to-docs_sessions_dir" style="stroke:#333333;stroke-width:1;"/><polygon fill="#333333" points="1051.04,330.2279,1055.04,321.2279,1051.04,325.2279,1047.04,321.2279,1051.04,330.2279" style="stroke:#333333;stroke-width:1;"/></g><!--link load_session to session_class--><g class="link" data-entity-1="load_session" data-entity-2="session_class" data-source-line="34" data-uid="lnk27" id="link_load_session_session_class"><path d="M1655.13,258.3479 C1631.11,278.7579 1601.6119,303.8223 1574.5019,326.8623" fill="none" id="load_session-to-session_class" style="stroke:#333333;stroke-width:1;"/><polygon fill="#333333" points="1569.93,330.7479,1579.3783,327.9675,1573.7399,327.5099,1574.1975,321.8716,1569.93,330.7479" style="stroke:#333333;stroke-width:1;"/></g><!--link session_class to subtask_class--><g class="link" data-entity-1="session_class" data-entity-2="subtask_class" data-source-line="35" data-uid="lnk29" id="link_session_class_subtask_class"><path d="M1526.04,408.0279 C1526.04,426.6079 1526.04,442.8979 1526.04,461.4279" fill="none" id="session_class-to-subtask_class" style="stroke:#333333;stroke-width:1;"/><polygon fill="#333333" points="1526.04,467.4279,1530.04,458.4279,1526.04,462.4279,1522.04,458.4279,1526.04,467.4279" style="stroke:#333333;stroke-width:1;"/></g><!--link docs_sessions_dir to file_system--><g class="link" data-entity-1="docs_sessions_dir" data-entity-2="file_system" data-source-line="36" data-uid="lnk31" id="link_docs_sessions_dir_file_system"><path d="M1051.04,408.0279 C1051.04,426.6079 1051.04,442.8979 1051.04,461.4279" fill="none" id="docs_sessions_dir-to-file_system" style="stroke:#333333;stroke-width:1;"/><polygon fill="#333333" points="1051.04,467.4279,1055.04,458.4279,1051.04,462.4279,1047.04,458.4279,1051.04,467.4279" style="stroke:#333333;stroke-width:1;"/></g><!--link pathlib to command_handlers--><g class="link" data-entity-1="pathlib" data-entity-2="command_handlers" data-source-line="37" data-uid="lnk34" id="link_pathlib_command_handlers"><path d="M1897.88,133.8379 C1902.69,152.4079 1906.9662,168.8894 1911.7662,187.4294" fill="none" id="pathlib-to-command_handlers" style="stroke:#333333;stroke-width:1;"/><polygon fill="#333333" points="1913.27,193.2379,1914.8866,183.5226,1912.0168,188.3974,1907.142,185.5277,1913.27,193.2379" style="stroke:#333333;stroke-width:1;"/></g><!--link os to command_handlers--><g class="link" data-entity-1="os" data-entity-2="command_handlers" data-source-line="38" data-uid="lnk36" id="link_os_command_handlers"><path d="M1948.2,133.8379 C1943.38,152.4079 1939.1138,168.8894 1934.3138,187.4294" fill="none" id="os-to-command_handlers" style="stroke:#333333;stroke-width:1;"/><polygon fill="#333333" points="1932.81,193.2379,1938.938,185.5277,1934.0632,188.3974,1931.1934,183.5226,1932.81,193.2379" style="stroke:#333333;stroke-width:1;"/></g><!--SRC=[fLJ1RXen4BtxAwRq0aYmIdlBeH8bGJsq8BMz9T7As0DhuRLNjXV4tzSsIp3BXXB51qkUUUzvncEzJwx04g6IL2XYDq9LrD0IbfHjraRNYa-rr0O-p-9A41nNj9PkffMRKwymCOBA93ynHkyQyjUuakHSE_ok3KVJ8APnjH5THNWKSS99XEclXv7KQnX1s3bY1K8vD8fAM4czWxvUMZHRv0Fe_rmytDt3L7E4MQsO4rhP0I6rHKOjGeygLcZJ0sfXllZxc4_cqn-BtwGGdf06bAyBZ5WN3lJgB0Cm7FxHjM5uFnp2qnFNp6OxRJQX5fjjlsJ2PApaMLFtcFbYndjQIhWT-l92K748LH1Ya3cgrlufUgKVNuxAcVspwfSKhJCw2y5njH_4haw8b5TGnINc_evS2kjIikQrH9inNPOUb1-GnhuAjgXNLFFGsWUa8_-Qll-zwYFwWP_gIqrvRj5Q_qlUevloKhqrkhmHoRamxv5iKSbfZ30QVRiOmlNquI7_WucFqGf6OFYbn-viBAOBTIosTa9QqbN0RM8dQ8FAcQJsYkBrYqDNDrxy2ZrNJ8VxXb9hM6-WBeJE6pmx7VBrqb6xQV8NWX6p4hu5kxSEIr9HLqYnZF7snoBQTiSFpYPnrMbiZrjlX2fQMpXxUzlUPKUtpOBt1h-ARnWEuwhsjdOHyUvr2xdaq3gdjlSF]--></g></svg>