<svg xmlns="http://www.w3.org/2000/svg" xmlns:xlink="http://www.w3.org/1999/xlink" contentStyleType="text/css" data-diagram-type="DESCRIPTION" height="563px" preserveAspectRatio="none" style="width:2293px;height:563px;background:#FFFFFF;" version="1.1" viewBox="0 0 2293 563" width="2293px" zoomAndPan="magnify"><title>CMD-convert - convert deep internal flow (observed) (LOD2: Code Detail)</title><defs/><g><g class="title" data-source-line="8"><text fill="#000000" font-family="Arial" font-size="22" font-weight="bold" lengthAdjust="spacing" textLength="761.5352" x="761.5155" y="35.6357">CMD-convert - convert deep internal flow (observed) (LOD2: Code Detail)</text></g><!--entity NOTE_ANCHOR--><!--entity main_entry--><g class="entity" data-entity="main_entry" data-source-line="16" data-uid="ent0006" id="entity_main_entry"><rect fill="#E6F3FF" height="52.1973" rx="2.5" ry="2.5" style="stroke:#000000;stroke-width:1;" width="123.4824" x="1259.12" y="148.2879"/><text fill="#000000" font-family="Arial" font-size="14" lengthAdjust="spacing" textLength="69.2549" x="1269.12" y="171.4197">main_entry</text><text fill="#000000" font-family="Arial" font-size="14" lengthAdjust="spacing" textLength="103.4824" x="1269.12" y="187.5183">maestro/main.py</text></g><!--entity add_convert_parser--><g class="entity" data-entity="add_convert_parser" data-source-line="17" data-uid="ent0007" id="entity_add_convert_parser"><rect fill="#E6F3FF" height="52.1973" rx="2.5" ry="2.5" style="stroke:#000000;stroke-width:1;" width="211.4063" x="354.16" y="276.7579"/><text fill="#000000" font-family="Arial" font-size="14" lengthAdjust="spacing" textLength="124.5234" x="364.16" y="299.8897">add_convert_parser</text><text fill="#000000" font-family="Arial" font-size="14" lengthAdjust="spacing" textLength="191.4063" x="364.16" y="315.9883">maestro/commands/convert.py</text></g><!--entity handle_convert_new--><g class="entity" data-entity="handle_convert_new" data-source-line="18" data-uid="ent0008" id="entity_handle_convert_new"><rect fill="#E6F3FF" height="52.1973" rx="2.5" ry="2.5" style="stroke:#000000;stroke-width:1;" width="211.4063" x="1092.16" y="276.7579"/><text fill="#000000" font-family="Arial" font-size="14" lengthAdjust="spacing" textLength="129.2061" x="1102.16" y="299.8897">handle_convert_new</text><text fill="#000000" font-family="Arial" font-size="14" lengthAdjust="spacing" textLength="191.4063" x="1102.16" y="315.9883">maestro/commands/convert.py</text></g><!--entity handle_convert_plan--><g class="entity" data-entity="handle_convert_plan" data-source-line="19" data-uid="ent0009" id="entity_handle_convert_plan"><rect fill="#E6F3FF" height="52.1973" rx="2.5" ry="2.5" style="stroke:#000000;stroke-width:1;" width="211.4063" x="600.16" y="276.7579"/><text fill="#000000" font-family="Arial" font-size="14" lengthAdjust="spacing" textLength="129.9922" x="610.16" y="299.8897">handle_convert_plan</text><text fill="#000000" font-family="Arial" font-size="14" lengthAdjust="spacing" textLength="191.4063" x="610.16" y="315.9883">maestro/commands/convert.py</text></g><!--entity handle_convert_run--><g class="entity" data-entity="handle_convert_run" data-source-line="20" data-uid="ent0010" id="entity_handle_convert_run"><rect fill="#E6F3FF" height="52.1973" rx="2.5" ry="2.5" style="stroke:#000000;stroke-width:1;" width="211.4063" x="846.16" y="276.7579"/><text fill="#000000" font-family="Arial" font-size="14" lengthAdjust="spacing" textLength="123.7578" x="856.16" y="299.8897">handle_convert_run</text><text fill="#000000" font-family="Arial" font-size="14" lengthAdjust="spacing" textLength="191.4063" x="856.16" y="315.9883">maestro/commands/convert.py</text></g><!--entity handle_convert_status--><g class="entity" data-entity="handle_convert_status" data-source-line="21" data-uid="ent0011" id="entity_handle_convert_status"><rect fill="#E6F3FF" height="52.1973" rx="2.5" ry="2.5" style="stroke:#000000;stroke-width:1;" width="211.4063" x="1584.16" y="276.7579"/><text fill="#000000" font-family="Arial" font-size="14" lengthAdjust="spacing" textLength="140.875" x="1594.16" y="299.8897">handle_convert_status</text><text fill="#000000" font-family="Arial" font-size="14" lengthAdjust="spacing" textLength="191.4063" x="1594.16" y="315.9883">maestro/commands/convert.py</text></g><!--entity handle_convert_show--><g class="entity" data-entity="handle_convert_show" data-source-line="22" data-uid="ent0012" id="entity_handle_convert_show"><rect fill="#E6F3FF" height="52.1973" rx="2.5" ry="2.5" style="stroke:#000000;stroke-width:1;" width="211.4063" x="1830.16" y="276.7579"/><text fill="#000000" font-family="Arial" font-size="14" lengthAdjust="spacing" textLength="136.2061" x="1840.16" y="299.8897">handle_convert_show</text><text fill="#000000" font-family="Arial" font-size="14" lengthAdjust="spacing" textLength="191.4063" x="1840.16" y="315.9883">maestro/commands/convert.py</text></g><!--entity handle_convert_reset--><g class="entity" data-entity="handle_convert_reset" data-source-line="23" data-uid="ent0013" id="entity_handle_convert_reset"><rect fill="#E6F3FF" height="52.1973" rx="2.5" ry="2.5" style="stroke:#000000;stroke-width:1;" width="211.4063" x="1338.16" y="276.7579"/><text fill="#000000" font-family="Arial" font-size="14" lengthAdjust="spacing" textLength="134.6475" x="1348.16" y="299.8897">handle_convert_reset</text><text fill="#000000" font-family="Arial" font-size="14" lengthAdjust="spacing" textLength="191.4063" x="1348.16" y="315.9883">maestro/commands/convert.py</text></g><!--entity handle_convert_batch--><g class="entity" data-entity="handle_convert_batch" data-source-line="24" data-uid="ent0014" id="entity_handle_convert_batch"><rect fill="#E6F3FF" height="52.1973" rx="2.5" ry="2.5" style="stroke:#000000;stroke-width:1;" width="211.4063" x="2076.16" y="276.7579"/><text fill="#000000" font-family="Arial" font-size="14" lengthAdjust="spacing" textLength="137.7715" x="2086.16" y="299.8897">handle_convert_batch</text><text fill="#000000" font-family="Arial" font-size="14" lengthAdjust="spacing" textLength="191.4063" x="2086.16" y="315.9883">maestro/commands/convert.py</text></g><!--entity create_new_pipeline--><g class="entity" data-entity="create_new_pipeline" data-source-line="25" data-uid="ent0015" id="entity_create_new_pipeline"><rect fill="#E6F3FF" height="52.1973" rx="2.5" ry="2.5" style="stroke:#000000;stroke-width:1;" width="271.3301" x="1087.2" y="388.9479"/><text fill="#000000" font-family="Arial" font-size="14" lengthAdjust="spacing" textLength="128.4268" x="1097.2" y="412.0797">create_new_pipeline</text><text fill="#000000" font-family="Arial" font-size="14" lengthAdjust="spacing" textLength="251.3301" x="1097.2" y="428.1783">maestro/convert/convert_orchestrator.py</text></g><!--entity reset_pipeline--><g class="entity" data-entity="reset_pipeline" data-source-line="26" data-uid="ent0016" id="entity_reset_pipeline"><rect fill="#E6F3FF" height="52.1973" rx="2.5" ry="2.5" style="stroke:#000000;stroke-width:1;" width="271.3301" x="1393.2" y="388.9479"/><text fill="#000000" font-family="Arial" font-size="14" lengthAdjust="spacing" textLength="87.1719" x="1403.2" y="412.0797">reset_pipeline</text><text fill="#000000" font-family="Arial" font-size="14" lengthAdjust="spacing" textLength="251.3301" x="1403.2" y="428.1783">maestro/convert/convert_orchestrator.py</text></g><!--entity plan_conversion--><g class="entity" data-entity="plan_conversion" data-source-line="27" data-uid="ent0017" id="entity_plan_conversion"><rect fill="#E6F3FF" height="52.1973" rx="2.5" ry="2.5" style="stroke:#000000;stroke-width:1;" width="189.6406" x="575.04" y="388.9479"/><text fill="#000000" font-family="Arial" font-size="14" lengthAdjust="spacing" textLength="101.958" x="585.04" y="412.0797">plan_conversion</text><text fill="#000000" font-family="Arial" font-size="14" lengthAdjust="spacing" textLength="169.6406" x="585.04" y="428.1783">maestro/convert/planner.py</text></g><!--entity run_conversion_pipeline--><g class="entity" data-entity="run_conversion_pipeline" data-source-line="28" data-uid="ent0018" id="entity_run_conversion_pipeline"><rect fill="#E6F3FF" height="52.1973" rx="2.5" ry="2.5" style="stroke:#000000;stroke-width:1;" width="252.6953" x="799.52" y="388.9479"/><text fill="#000000" font-family="Arial" font-size="14" lengthAdjust="spacing" textLength="151.7715" x="809.52" y="412.0797">run_conversion_pipeline</text><text fill="#000000" font-family="Arial" font-size="14" lengthAdjust="spacing" textLength="232.6953" x="809.52" y="428.1783">maestro/convert/execution_engine.py</text></g><!--entity get_pipeline_status--><g class="entity" data-entity="get_pipeline_status" data-source-line="29" data-uid="ent0019" id="entity_get_pipeline_status"><rect fill="#E6F3FF" height="52.1973" rx="2.5" ry="2.5" style="stroke:#000000;stroke-width:1;" width="203.6543" x="1699.04" y="388.9479"/><text fill="#000000" font-family="Arial" font-size="14" lengthAdjust="spacing" textLength="120.6475" x="1709.04" y="412.0797">get_pipeline_status</text><text fill="#000000" font-family="Arial" font-size="14" lengthAdjust="spacing" textLength="183.6543" x="1709.04" y="428.1783">maestro/ui_facade/convert.py</text></g><!--entity pipeline_status_class--><g class="entity" data-entity="pipeline_status_class" data-source-line="30" data-uid="ent0020" id="entity_pipeline_status_class"><rect fill="#FFFFFF" height="46.0986" rx="2.5" ry="2.5" style="stroke:#000000;stroke-width:1;" width="173.082" x="1817.32" y="501.1479"/><rect fill="#FFFFFF" height="10" style="stroke:#000000;stroke-width:1;" width="15" x="1970.402" y="506.1479"/><rect fill="#FFFFFF" height="2" style="stroke:#000000;stroke-width:1;" width="4" x="1968.402" y="508.1479"/><rect fill="#FFFFFF" height="2" style="stroke:#000000;stroke-width:1;" width="4" x="1968.402" y="512.1479"/><text fill="#000000" font-family="Arial" font-size="14" lengthAdjust="spacing" textLength="133.082" x="1832.32" y="534.2797">pipeline_status_class</text></g><!--entity pipeline_stage_class--><g class="entity" data-entity="pipeline_stage_class" data-source-line="31" data-uid="ent0021" id="entity_pipeline_stage_class"><rect fill="#FFFFFF" height="46.0986" rx="2.5" ry="2.5" style="stroke:#000000;stroke-width:1;" width="169.9785" x="1611.87" y="501.1479"/><rect fill="#FFFFFF" height="10" style="stroke:#000000;stroke-width:1;" width="15" x="1761.8485" y="506.1479"/><rect fill="#FFFFFF" height="2" style="stroke:#000000;stroke-width:1;" width="4" x="1759.8485" y="508.1479"/><rect fill="#FFFFFF" height="2" style="stroke:#000000;stroke-width:1;" width="4" x="1759.8485" y="512.1479"/><text fill="#000000" font-family="Arial" font-size="14" lengthAdjust="spacing" textLength="129.9785" x="1626.87" y="534.2797">pipeline_stage_class</text></g><!--entity maestro_convert_dir--><g class="entity" data-entity="maestro_convert_dir" data-source-line="32" data-uid="ent0022" id="entity_maestro_convert_dir"><path d="M1149.06,511.6479 C1149.06,501.6479 1222.8666,501.6479 1222.8666,501.6479 C1222.8666,501.6479 1296.6733,501.6479 1296.6733,511.6479 L1296.6733,536.7465 C1296.6733,546.7465 1222.8666,546.7465 1222.8666,546.7465 C1222.8666,546.7465 1149.06,546.7465 1149.06,536.7465 L1149.06,511.6479" fill="#FFE6E6" style="stroke:#000000;stroke-width:1;"/><path d="M1149.06,511.6479 C1149.06,521.6479 1222.8666,521.6479 1222.8666,521.6479 C1222.8666,521.6479 1296.6733,521.6479 1296.6733,511.6479" fill="none" style="stroke:#000000;stroke-width:1;"/><text fill="#000000" font-family="Arial" font-size="14" lengthAdjust="spacing" textLength="127.6133" x="1159.06" y="538.7797">maestro_convert_dir</text></g><!--link NOTE_ANCHOR to GMN3--><!--link main_entry to add_convert_parser--><g class="link" data-entity-1="main_entry" data-entity-2="add_convert_parser" data-source-line="33" data-uid="lnk23" id="link_main_entry_add_convert_parser"><path d="M1279.52,200.9079 C1267.74,207.0879 1254.64,212.9879 1241.86,216.7579 C959.76,299.8979 873.83,233.9579 582.86,276.7579 C577.26,277.5779 577.4356,277.4949 571.6556,278.4749" fill="none" id="main_entry-to-add_convert_parser" style="stroke:#333333;stroke-width:1;"/><polygon fill="#333333" points="565.74,279.4779,575.282,281.9171,570.6696,278.642,573.9447,274.0297,565.74,279.4779" style="stroke:#333333;stroke-width:1;"/></g><!--link main_entry to handle_convert_new--><g class="link" data-entity-1="main_entry" data-entity-2="handle_convert_new" data-source-line="34" data-uid="lnk24" id="link_main_entry_handle_convert_new"><path d="M1295.97,200.9779 C1274.63,222.9179 1248.2334,250.0668 1226.9034,271.9968" fill="none" id="main_entry-to-handle_convert_new" style="stroke:#333333;stroke-width:1;"/><polygon fill="#333333" points="1222.72,276.2979,1231.8625,272.6352,1226.2062,272.7136,1226.1277,267.0573,1222.72,276.2979" style="stroke:#333333;stroke-width:1;"/></g><!--link main_entry to handle_convert_plan--><g class="link" data-entity-1="main_entry" data-entity-2="handle_convert_plan" data-source-line="35" data-uid="lnk25" id="link_main_entry_handle_convert_plan"><path d="M1278.55,200.8879 C1266.99,206.9179 1254.24,212.7479 1241.86,216.7579 C1065.41,273.9279 1011.58,244.8679 828.86,276.7579 C823.28,277.7279 823.4591,277.672 817.6991,278.742" fill="none" id="main_entry-to-handle_convert_plan" style="stroke:#333333;stroke-width:1;"/><polygon fill="#333333" points="811.8,279.8379,821.3792,282.1268,816.7159,278.9247,819.9181,274.2614,811.8,279.8379" style="stroke:#333333;stroke-width:1;"/></g><!--link main_entry to handle_convert_run--><g class="link" data-entity-1="main_entry" data-entity-2="handle_convert_run" data-source-line="36" data-uid="lnk26" id="link_main_entry_handle_convert_run"><path d="M1276.05,200.7979 C1265.07,206.4779 1253.2,212.1779 1241.86,216.7579 C1182.15,240.8779 1118.8178,259.8933 1063.0378,274.7533" fill="none" id="main_entry-to-handle_convert_run" style="stroke:#333333;stroke-width:1;"/><polygon fill="#333333" points="1057.24,276.2979,1066.9664,277.8462,1062.0715,275.0107,1064.907,270.1158,1057.24,276.2979" style="stroke:#333333;stroke-width:1;"/></g><!--link main_entry to handle_convert_status--><g class="link" data-entity-1="main_entry" data-entity-2="handle_convert_status" data-source-line="37" data-uid="lnk27" id="link_main_entry_handle_convert_status"><path d="M1383.04,196.6979 C1447.13,218.6579 1541.3643,250.9519 1609.6443,274.3619" fill="none" id="main_entry-to-handle_convert_status" style="stroke:#333333;stroke-width:1;"/><polygon fill="#333333" points="1615.32,276.3079,1608.1038,269.6052,1610.5903,274.6862,1605.5092,277.1728,1615.32,276.3079" style="stroke:#333333;stroke-width:1;"/></g><!--link main_entry to handle_convert_show--><g class="link" data-entity-1="main_entry" data-entity-2="handle_convert_show" data-source-line="38" data-uid="lnk28" id="link_main_entry_handle_convert_show"><path d="M1382.93,188.1479 C1487.7,209.6879 1694.893,252.2991 1823.783,278.8091" fill="none" id="main_entry-to-handle_convert_show" style="stroke:#333333;stroke-width:1;"/><polygon fill="#333333" points="1829.66,280.0179,1821.6504,274.2867,1824.7625,279.0105,1820.0387,282.1227,1829.66,280.0179" style="stroke:#333333;stroke-width:1;"/></g><!--link main_entry to handle_convert_reset--><g class="link" data-entity-1="main_entry" data-entity-2="handle_convert_reset" data-source-line="39" data-uid="lnk29" id="link_main_entry_handle_convert_reset"><path d="M1345.75,200.9779 C1367.09,222.9179 1393.4966,250.0668 1414.8266,271.9968" fill="none" id="main_entry-to-handle_convert_reset" style="stroke:#333333;stroke-width:1;"/><polygon fill="#333333" points="1419.01,276.2979,1415.6023,267.0573,1415.5238,272.7136,1409.8675,272.6352,1419.01,276.2979" style="stroke:#333333;stroke-width:1;"/></g><!--link main_entry to handle_convert_batch--><g class="link" data-entity-1="main_entry" data-entity-2="handle_convert_batch" data-source-line="40" data-uid="lnk30" id="link_main_entry_handle_convert_batch"><path d="M1382.79,182.5179 C1509.9,197.4579 1809.31,234.1979 2058.86,276.7579 C2064.45,277.7079 2064.2688,277.6437 2070.0388,278.7037" fill="none" id="main_entry-to-handle_convert_batch" style="stroke:#333333;stroke-width:1;"/><polygon fill="#333333" points="2075.94,279.7879,2067.8109,274.2275,2071.0223,278.8844,2066.3654,282.0958,2075.94,279.7879" style="stroke:#333333;stroke-width:1;"/></g><!--link handle_convert_new to create_new_pipeline--><g class="link" data-entity-1="handle_convert_new" data-entity-2="create_new_pipeline" data-source-line="41" data-uid="lnk31" id="link_handle_convert_new_create_new_pipeline"><path d="M1203.66,329.4079 C1207.7,347.2179 1211.743,365.0064 1215.773,382.7764" fill="none" id="handle_convert_new-to-create_new_pipeline" style="stroke:#333333;stroke-width:1;"/><polygon fill="#333333" points="1217.1,388.6279,1219.0104,378.9661,1215.9941,383.7517,1211.2085,380.7354,1217.1,388.6279" style="stroke:#333333;stroke-width:1;"/></g><!--link create_new_pipeline to maestro_convert_dir--><g class="link" data-entity-1="create_new_pipeline" data-entity-2="maestro_convert_dir" data-source-line="42" data-uid="lnk32" id="link_create_new_pipeline_maestro_convert_dir"><path d="M1222.86,441.4479 C1222.86,459.6379 1222.86,477.8979 1222.86,495.2479" fill="none" id="create_new_pipeline-to-maestro_convert_dir" style="stroke:#333333;stroke-width:1;"/><polygon fill="#333333" points="1222.86,501.2479,1226.86,492.2479,1222.86,496.2479,1218.86,492.2479,1222.86,501.2479" style="stroke:#333333;stroke-width:1;"/></g><!--link handle_convert_plan to plan_conversion--><g class="link" data-entity-1="handle_convert_plan" data-entity-2="plan_conversion" data-source-line="43" data-uid="lnk33" id="link_handle_convert_plan_plan_conversion"><path d="M697.51,329.4079 C691.7,347.2179 685.8317,365.154 680.0317,382.924" fill="none" id="handle_convert_plan-to-plan_conversion" style="stroke:#333333;stroke-width:1;"/><polygon fill="#333333" points="678.17,388.6279,684.7651,381.3132,679.7214,383.8746,677.16,378.8309,678.17,388.6279" style="stroke:#333333;stroke-width:1;"/></g><!--link plan_conversion to maestro_convert_dir--><g class="link" data-entity-1="plan_conversion" data-entity-2="maestro_convert_dir" data-source-line="44" data-uid="lnk34" id="link_plan_conversion_maestro_convert_dir"><path d="M765.13,437.6479 C770.79,438.8579 776.4,440.0279 781.86,441.1479 C910.41,467.4979 1054.8816,493.6633 1142.6716,509.1833" fill="none" id="plan_conversion-to-maestro_convert_dir" style="stroke:#333333;stroke-width:1;"/><polygon fill="#333333" points="1148.58,510.2279,1140.4138,504.7222,1143.6563,509.3574,1139.0211,512.6,1148.58,510.2279" style="stroke:#333333;stroke-width:1;"/></g><!--link handle_convert_run to run_conversion_pipeline--><g class="link" data-entity-1="handle_convert_run" data-entity-2="run_conversion_pipeline" data-source-line="45" data-uid="lnk35" id="link_handle_convert_run_run_conversion_pipeline"><path d="M945.83,329.4079 C941.63,347.2179 937.427,365.018 933.237,382.788" fill="none" id="handle_convert_run-to-run_conversion_pipeline" style="stroke:#333333;stroke-width:1;"/><polygon fill="#333333" points="931.86,388.6279,937.8187,380.7861,933.0075,383.7613,930.0322,378.9501,931.86,388.6279" style="stroke:#333333;stroke-width:1;"/></g><!--link run_conversion_pipeline to maestro_convert_dir--><g class="link" data-entity-1="run_conversion_pipeline" data-entity-2="maestro_convert_dir" data-source-line="46" data-uid="lnk36" id="link_run_conversion_pipeline_maestro_convert_dir"><path d="M996.63,441.5779 C1047.07,459.7779 1108.5362,481.9514 1156.5362,499.2714" fill="none" id="run_conversion_pipeline-to-maestro_convert_dir" style="stroke:#333333;stroke-width:1;"/><polygon fill="#333333" points="1162.18,501.3079,1155.0719,494.4906,1157.4768,499.6108,1152.3566,502.0157,1162.18,501.3079" style="stroke:#333333;stroke-width:1;"/></g><!--link handle_convert_status to get_pipeline_status--><g class="link" data-entity-1="handle_convert_status" data-entity-2="get_pipeline_status" data-source-line="47" data-uid="lnk37" id="link_handle_convert_status_get_pipeline_status"><path d="M1715.61,329.4079 C1733.54,347.2179 1753.1019,366.6307 1771.0019,384.4007" fill="none" id="handle_convert_status-to-get_pipeline_status" style="stroke:#333333;stroke-width:1;"/><polygon fill="#333333" points="1775.26,388.6279,1771.691,379.4484,1771.7116,385.1052,1766.0548,385.1258,1775.26,388.6279" style="stroke:#333333;stroke-width:1;"/></g><!--link handle_convert_show to get_pipeline_status--><g class="link" data-entity-1="handle_convert_show" data-entity-2="get_pipeline_status" data-source-line="48" data-uid="lnk38" id="link_handle_convert_show_get_pipeline_status"><path d="M1904.55,329.4079 C1882.74,347.2179 1858.4281,367.0638 1836.6581,384.8338" fill="none" id="handle_convert_show-to-get_pipeline_status" style="stroke:#333333;stroke-width:1;"/><polygon fill="#333333" points="1832.01,388.6279,1841.5116,386.0355,1835.8834,385.4661,1836.4528,379.838,1832.01,388.6279" style="stroke:#333333;stroke-width:1;"/></g><!--link get_pipeline_status to maestro_convert_dir--><g class="link" data-entity-1="get_pipeline_status" data-entity-2="maestro_convert_dir" data-source-line="49" data-uid="lnk39" id="link_get_pipeline_status_maestro_convert_dir"><path d="M1698.67,437.8179 C1692.99,438.9579 1687.36,440.0779 1681.86,441.1479 C1546.39,467.5379 1393.6843,494.1574 1302.8443,509.6774" fill="none" id="get_pipeline_status-to-maestro_convert_dir" style="stroke:#333333;stroke-width:1;"/><polygon fill="#333333" points="1296.93,510.6879,1306.4751,513.115,1301.8586,509.8458,1305.1278,505.2293,1296.93,510.6879" style="stroke:#333333;stroke-width:1;"/></g><!--link get_pipeline_status to pipeline_status_class--><g class="link" data-entity-1="get_pipeline_status" data-entity-2="pipeline_status_class" data-source-line="50" data-uid="lnk40" id="link_get_pipeline_status_pipeline_status_class"><path d="M1825.27,441.4479 C1842.64,459.5179 1861.6018,479.2424 1878.2618,496.5724" fill="none" id="get_pipeline_status-to-pipeline_status_class" style="stroke:#333333;stroke-width:1;"/><polygon fill="#333333" points="1882.42,500.8979,1879.0663,491.6376,1878.9548,497.2933,1873.2991,497.1818,1882.42,500.8979" style="stroke:#333333;stroke-width:1;"/></g><!--link get_pipeline_status to pipeline_stage_class--><g class="link" data-entity-1="get_pipeline_status" data-entity-2="pipeline_stage_class" data-source-line="51" data-uid="lnk41" id="link_get_pipeline_status_pipeline_stage_class"><path d="M1776.22,441.4479 C1758.68,459.5179 1739.5088,479.2623 1722.6888,496.5923" fill="none" id="get_pipeline_status-to-pipeline_stage_class" style="stroke:#333333;stroke-width:1;"/><polygon fill="#333333" points="1718.51,500.8979,1727.6486,497.2254,1721.9923,497.3099,1721.9079,491.6537,1718.51,500.8979" style="stroke:#333333;stroke-width:1;"/></g><!--link handle_convert_reset to reset_pipeline--><g class="link" data-entity-1="handle_convert_reset" data-entity-2="reset_pipeline" data-source-line="52" data-uid="lnk42" id="link_handle_convert_reset_reset_pipeline"><path d="M1463.58,329.4079 C1477.31,347.2179 1491.8849,366.1074 1505.5949,383.8774" fill="none" id="handle_convert_reset-to-reset_pipeline" style="stroke:#333333;stroke-width:1;"/><polygon fill="#333333" points="1509.26,388.6279,1506.9293,379.0587,1506.2057,384.6691,1500.5954,383.9455,1509.26,388.6279" style="stroke:#333333;stroke-width:1;"/></g><!--link reset_pipeline to maestro_convert_dir--><g class="link" data-entity-1="reset_pipeline" data-entity-2="maestro_convert_dir" data-source-line="53" data-uid="lnk43" id="link_reset_pipeline_maestro_convert_dir"><path d="M1455.96,441.5779 C1404.07,459.7479 1340.7429,481.9251 1291.3029,499.2351" fill="none" id="reset_pipeline-to-maestro_convert_dir" style="stroke:#333333;stroke-width:1;"/><polygon fill="#333333" points="1285.64,501.2179,1295.4562,502.0191,1290.3591,499.5656,1292.8126,494.4685,1285.64,501.2179" style="stroke:#333333;stroke-width:1;"/></g><!--SRC=[dLPHRzem47xth_3QbnO9ehLI7pff4eEmLg8mTNrZLMJi0w8cTcGxTFqhUzflso_PEIGqW3F28YJ0ztsVp-UxotsmAqY1PWcB9J4liSoOPYcTC_wor2gNOg0IfUdvg7Xg204BbYTsfAITC5JewvWbDNjVQ_LQag-BfsQSA0jVb1QWIyIWUFOHFYSGHMni4w23Xs6NAxa6RMcNLhy4G4PZQK5Bbj15ebxfXPeRq6iGb_HYF1rUtTA14a27O5cSN1AI6-3C03rZag-KFgFCqCdqAOpway7Tz96iOaJN5oGwHtMyN5cg5ZiMIZkTxohN76ux7JgR2SLDyAhqYtF41Ekh8DO1JqLGSxx7qPlU6qiJUXhy-Pc05DHvGuW6RfbSObpEKhpB2AJLRpzaoi1OhGAtrilUYhEzs-bvU3EwndkjiPaGKRbLX7U1aNjNuIfDcHGcg7mf5GyvFkKLKXFO0YMy7bS-vBHGncoM9qixKWjjdPykZPmMoiOocvkJnJUqDlehTNh07QbDLC20FJqkZjL2VSuiNvsiNh1ywbm3i-1oAShY399OGbsyO5VVaT9yvIpCAbrjv17mxLCSxp-tsENwr5s-bcSriPA7yWuWOQkuX_SwdDSH__0SVWBFhSE0N29YwxLVmBVNidQyWzJFusZ1E1EmVyKUrbOSqo9J4liQncON4l646RE9Wi_IH5r20xCo4C4icnVlZjBrRVQ9M9VDzc3TlSZ2c_26r1fnj_lPqqNt4OVTy0Z2NVeH2DxP4SGcLCT0s2YExUHo-WYcA5hYwVeEwwaxugj5X_N4dVWwliFkbGRPBvMMUgxDEsX35P2cwcWfNwQxGtlAWFWQTnFMLqPDNZHX_PNK1hsj7k_he8ZWJlSZUysmoTFDN9R0mZkMXMiSusGncBd_E9ojFrQlaagcbmfwk8HpLYCXot5iyotk36UD0-Es5JWF__pwJSSWbZWztU44QofFf-NuIdlxVPZYiR6bAgobt61SSV2bE2v6EyEmcoK_qNMi4YmKGqTJ5CNFRDRh1VYvV_Ws3X_2oLF_wNuwYSRXy6luw0BXDHIngAWQCgMj2PB2wOXZ36BXDd7qyYI3xM8z8dy1]--></g></svg>