<svg xmlns="http://www.w3.org/2000/svg" xmlns:xlink="http://www.w3.org/1999/xlink" contentStyleType="text/css" data-diagram-type="DESCRIPTION" height="526px" preserveAspectRatio="none" style="width:1851px;height:526px;background:#FFFFFF;" version="1.1" viewBox="0 0 1851 526" width="1851px" zoomAndPan="magnify"><title>CMD-track - track deep internal flow (observed) (LOD0: Code Modules)</title><defs/><g><g class="title" data-source-line="8"><text fill="#000000" font-family="Arial" font-size="22" font-weight="bold" lengthAdjust="spacing" textLength="737.0967" x="552.6767" y="35.6357">CMD-track - track deep internal flow (observed) (LOD0: Code Modules)</text></g><!--cluster Code Modules--><g class="cluster" data-entity="Code Modules" data-source-line="16" data-uid="ent0006" id="cluster_Code Modules"><path d="M1235.95,145.6179 L1332.6189,145.6179 A3.75,3.75 0 0 1 1335.1189,148.1179 L1342.1189,167.7165 L1841.95,167.7165 A2.5,2.5 0 0 1 1844.45,170.2165 L1844.45,516.5779 A2.5,2.5 0 0 1 1841.95,519.0779 L1235.95,519.0779 A2.5,2.5 0 0 1 1233.45,516.5779 L1233.45,148.1179 A2.5,2.5 0 0 1 1235.95,145.6179" fill="#FFFFFF" style="stroke:#000000;stroke-width:1;"/><line style="stroke:#000000;stroke-width:1;" x1="1233.45" x2="1342.1189" y1="167.7165" y2="167.7165"/><text fill="#000000" font-family="Arial" font-size="14" font-weight="bold" lengthAdjust="spacing" textLength="95.6689" x="1237.45" y="160.7497">Code Modules</text></g><!--entity discuss--><g class="entity" data-entity="discuss" data-source-line="17" data-uid="ent0007" id="entity_discuss"><rect fill="#FFFFFF" height="46.0986" rx="2.5" ry="2.5" style="stroke:#000000;stroke-width:1;" width="86.6826" x="1269.11" y="180.6179"/><rect fill="#FFFFFF" height="10" style="stroke:#000000;stroke-width:1;" width="15" x="1335.7926" y="185.6179"/><rect fill="#FFFFFF" height="2" style="stroke:#000000;stroke-width:1;" width="4" x="1333.7926" y="187.6179"/><rect fill="#FFFFFF" height="2" style="stroke:#000000;stroke-width:1;" width="4" x="1333.7926" y="191.6179"/><text fill="#000000" font-family="Arial" font-size="14" lengthAdjust="spacing" textLength="46.6826" x="1284.11" y="213.7497">discuss</text></g><!--entity status_utils--><g class="entity" data-entity="status_utils" data-source-line="18" data-uid="ent0008" id="entity_status_utils"><rect fill="#FFFFFF" height="46.0986" rx="2.5" ry="2.5" style="stroke:#000000;stroke-width:1;" width="110.0342" x="1390.43" y="180.6179"/><rect fill="#FFFFFF" height="10" style="stroke:#000000;stroke-width:1;" width="15" x="1480.4642" y="185.6179"/><rect fill="#FFFFFF" height="2" style="stroke:#000000;stroke-width:1;" width="4" x="1478.4642" y="187.6179"/><rect fill="#FFFFFF" height="2" style="stroke:#000000;stroke-width:1;" width="4" x="1478.4642" y="191.6179"/><text fill="#000000" font-family="Arial" font-size="14" lengthAdjust="spacing" textLength="70.0342" x="1405.43" y="213.7497">status_utils</text></g><!--entity track--><g class="entity" data-entity="track" data-source-line="19" data-uid="ent0009" id="entity_track"><rect fill="#FFFFFF" height="46.0986" rx="2.5" ry="2.5" style="stroke:#000000;stroke-width:1;" width="70.3379" x="1535.28" y="180.6179"/><rect fill="#FFFFFF" height="10" style="stroke:#000000;stroke-width:1;" width="15" x="1585.6179" y="185.6179"/><rect fill="#FFFFFF" height="2" style="stroke:#000000;stroke-width:1;" width="4" x="1583.6179" y="187.6179"/><rect fill="#FFFFFF" height="2" style="stroke:#000000;stroke-width:1;" width="4" x="1583.6179" y="191.6179"/><text fill="#000000" font-family="Arial" font-size="14" lengthAdjust="spacing" textLength="30.3379" x="1550.28" y="213.7497">track</text></g><!--entity settings--><g class="entity" data-entity="settings" data-source-line="20" data-uid="ent0010" id="entity_settings"><rect fill="#FFFFFF" height="46.0986" rx="2.5" ry="2.5" style="stroke:#000000;stroke-width:1;" width="88.248" x="1640.33" y="180.6179"/><rect fill="#FFFFFF" height="10" style="stroke:#000000;stroke-width:1;" width="15" x="1708.578" y="185.6179"/><rect fill="#FFFFFF" height="2" style="stroke:#000000;stroke-width:1;" width="4" x="1706.578" y="187.6179"/><rect fill="#FFFFFF" height="2" style="stroke:#000000;stroke-width:1;" width="4" x="1706.578" y="191.6179"/><text fill="#000000" font-family="Arial" font-size="14" lengthAdjust="spacing" textLength="48.248" x="1655.33" y="213.7497">settings</text></g><!--entity common_utils--><g class="entity" data-entity="common_utils" data-source-line="21" data-uid="ent0011" id="entity_common_utils"><rect fill="#FFFFFF" height="46.0986" rx="2.5" ry="2.5" style="stroke:#000000;stroke-width:1;" width="126.3652" x="1249.27" y="350.8779"/><rect fill="#FFFFFF" height="10" style="stroke:#000000;stroke-width:1;" width="15" x="1355.6352" y="355.8779"/><rect fill="#FFFFFF" height="2" style="stroke:#000000;stroke-width:1;" width="4" x="1353.6352" y="357.8779"/><rect fill="#FFFFFF" height="2" style="stroke:#000000;stroke-width:1;" width="4" x="1353.6352" y="361.8779"/><text fill="#000000" font-family="Arial" font-size="14" lengthAdjust="spacing" textLength="86.3652" x="1264.27" y="384.0097">common_utils</text></g><!--entity markdown_writer--><g class="entity" data-entity="markdown_writer" data-source-line="22" data-uid="ent0012" id="entity_markdown_writer"><rect fill="#FFFFFF" height="46.0986" rx="2.5" ry="2.5" style="stroke:#000000;stroke-width:1;" width="146.5859" x="1410.16" y="350.8779"/><rect fill="#FFFFFF" height="10" style="stroke:#000000;stroke-width:1;" width="15" x="1536.7459" y="355.8779"/><rect fill="#FFFFFF" height="2" style="stroke:#000000;stroke-width:1;" width="4" x="1534.7459" y="357.8779"/><rect fill="#FFFFFF" height="2" style="stroke:#000000;stroke-width:1;" width="4" x="1534.7459" y="361.8779"/><text fill="#000000" font-family="Arial" font-size="14" lengthAdjust="spacing" textLength="106.5859" x="1425.16" y="384.0097">markdown_writer</text></g><!--entity table_renderer--><g class="entity" data-entity="table_renderer" data-source-line="23" data-uid="ent0013" id="entity_table_renderer"><rect fill="#FFFFFF" height="46.0986" rx="2.5" ry="2.5" style="stroke:#000000;stroke-width:1;" width="131.0615" x="1591.92" y="350.8779"/><rect fill="#FFFFFF" height="10" style="stroke:#000000;stroke-width:1;" width="15" x="1702.9815" y="355.8779"/><rect fill="#FFFFFF" height="2" style="stroke:#000000;stroke-width:1;" width="4" x="1700.9815" y="357.8779"/><rect fill="#FFFFFF" height="2" style="stroke:#000000;stroke-width:1;" width="4" x="1700.9815" y="361.8779"/><text fill="#000000" font-family="Arial" font-size="14" lengthAdjust="spacing" textLength="91.0615" x="1606.92" y="384.0097">table_renderer</text></g><!--entity main--><g class="entity" data-entity="main" data-source-line="24" data-uid="ent0014" id="entity_main"><rect fill="#FFFFFF" height="46.0986" rx="2.5" ry="2.5" style="stroke:#000000;stroke-width:1;" width="70.3447" x="1758.28" y="350.8779"/><rect fill="#FFFFFF" height="10" style="stroke:#000000;stroke-width:1;" width="15" x="1808.6247" y="355.8779"/><rect fill="#FFFFFF" height="2" style="stroke:#000000;stroke-width:1;" width="4" x="1806.6247" y="357.8779"/><rect fill="#FFFFFF" height="2" style="stroke:#000000;stroke-width:1;" width="4" x="1806.6247" y="361.8779"/><text fill="#000000" font-family="Arial" font-size="14" lengthAdjust="spacing" textLength="30.3447" x="1773.28" y="384.0097">main</text></g><!--entity json_store--><g class="entity" data-entity="json_store" data-source-line="25" data-uid="ent0015" id="entity_json_store"><rect fill="#FFFFFF" height="46.0986" rx="2.5" ry="2.5" style="stroke:#000000;stroke-width:1;" width="104.5928" x="1260.15" y="456.9779"/><rect fill="#FFFFFF" height="10" style="stroke:#000000;stroke-width:1;" width="15" x="1344.7428" y="461.9779"/><rect fill="#FFFFFF" height="2" style="stroke:#000000;stroke-width:1;" width="4" x="1342.7428" y="463.9779"/><rect fill="#FFFFFF" height="2" style="stroke:#000000;stroke-width:1;" width="4" x="1342.7428" y="467.9779"/><text fill="#000000" font-family="Arial" font-size="14" lengthAdjust="spacing" textLength="64.5928" x="1275.15" y="490.1097">json_store</text></g><!--entity models--><g class="entity" data-entity="models" data-source-line="26" data-uid="ent0016" id="entity_models"><rect fill="#FFFFFF" height="46.0986" rx="2.5" ry="2.5" style="stroke:#000000;stroke-width:1;" width="85.1309" x="1399.88" y="456.9779"/><rect fill="#FFFFFF" height="10" style="stroke:#000000;stroke-width:1;" width="15" x="1465.0109" y="461.9779"/><rect fill="#FFFFFF" height="2" style="stroke:#000000;stroke-width:1;" width="4" x="1463.0109" y="463.9779"/><rect fill="#FFFFFF" height="2" style="stroke:#000000;stroke-width:1;" width="4" x="1463.0109" y="467.9779"/><text fill="#000000" font-family="Arial" font-size="14" lengthAdjust="spacing" textLength="45.1309" x="1414.88" y="490.1097">models</text></g><!--entity NOTE_ANCHOR--><!--link NOTE_ANCHOR to GMN3--><!--SRC=[bLJRZjem47tFLqpfooxIubwaVTW-KSXsL-9IRVSDhI8J3-2Is97jG5TLVwHF_RP-ISScB4bA1OqGp8oF3tCvcLTkXJb2aN6f8hkMgk26vp3dwNffTAd4G6VQmElRyDGG0XUypDojLcx2YQ5l9CzgvtrZzBQw_3uyjSE9TlXH6u6cGWp2qqOSIu9GaPCkGnYCXrVE40QkOFSh40kGog5HF8D5fhTmeUSMpGR59LoCfiCtDp3G0c6iHPcXlOoYqcBABKA7gtIbJGUuXSdqCKxway7Tz25QIOBN0ueo0oENAmTwqJW1w7Q_wDAaUDFjmcmcT6hPLfkrpyIopJic3KjpmLuoxwMKJE-Pvndy3_ZfAK8bm6SIHGKTyIKLK2-i0zyfdLJdXLQe77I4j6bfRIYlifi0wxWhRL8wcUrGzK0J6h89c62rUD0vgPOLH-Kq8MJcMjN-gXveGdDkra9lLR8raiOQqArOApS-pp0nr1uq5RuPQlDBLP6I_Xj7NosbP9qs6007jyL0NQ_As9dHZsYdaGmNHoKIRqXIAeZ4-oIKpLksLotp6lPpJq9l4-_sYf84SYH6EjWHjCIJSxJEQERxofMmRAUVuXdsngcRWZlEwcFnbrl-MHojONcQlqEdc4BMbXr6u6aQtfaCkmc59FRMoIgafUNup9eg2hriHqwFGotaakrV2izHiyyUPlt531nD_soUQWruYeFPM2t_N7L-5SVNyNNGy- -Vls24Oea6xaZ6Tg_hQRLv8PVVwBj0OwLrNlcqemzotcrjd-C7e6LiOQxT2eOadd4b5BW8fH0fVMQpNe_HvtxyUHIFuybZ__5-Eab6yV1J_D3B1Hmz24tPNpLOQECioqBIIKhTa2HMjFvwLSdW9LZlo1y0]--></g></svg>