<svg xmlns="http://www.w3.org/2000/svg" xmlns:xlink="http://www.w3.org/1999/xlink" contentStyleType="text/css" data-diagram-type="DESCRIPTION" height="1236px" preserveAspectRatio="none" style="width:1112px;height:1236px;background:#FFFFFF;" version="1.1" viewBox="0 0 1112 1236" width="1112px" zoomAndPan="magnify"><title>CMD-track - track command surface (LOD1: CLI Flow)</title><defs/><g><g class="title" data-source-line="8"><text fill="#000000" font-family="Arial" font-size="22" font-weight="bold" lengthAdjust="spacing" textLength="561.0967" x="271.1699" y="35.6357">CMD-track - track command surface (LOD1: CLI Flow)</text></g><!--entity NOTE_ANCHOR--><!--entity cli_invocation--><g class="entity" data-entity="cli_invocation" data-source-line="16" data-uid="ent0006" id="entity_cli_invocation"><rect fill="#FFFFFF" height="36.0986" rx="2.5" ry="2.5" style="stroke:#000000;stroke-width:1;" width="163.958" x="669.66" y="66.6679"/><text fill="#000000" font-family="Arial" font-size="14" lengthAdjust="spacing" textLength="143.958" x="679.66" y="89.7997">Maestro CLI Invocation</text></g><!--entity parse_args--><g class="entity" data-entity="parse_args" data-source-line="17" data-uid="ent0007" id="entity_parse_args"><rect fill="#FFFFFF" height="36.0986" rx="2.5" ry="2.5" style="stroke:#000000;stroke-width:1;" width="152.2822" x="675.49" y="172.1379"/><text fill="#000000" font-family="Arial" font-size="14" lengthAdjust="spacing" textLength="132.2822" x="685.49" y="195.2697">Parse CLI arguments</text></g><!--entity determine_track_command--><g class="entity" data-entity="determine_track_command" data-source-line="18" data-uid="ent0008" id="entity_determine_track_command"><rect fill="#FFFFFF" height="36.0986" rx="2.5" ry="2.5" style="stroke:#000000;stroke-width:1;" width="203.5107" x="649.88" y="268.2379"/><text fill="#000000" font-family="Arial" font-size="14" lengthAdjust="spacing" textLength="183.5107" x="659.88" y="291.3697">Determine command is 'track'</text></g><!--entity parse_subcommands--><g class="entity" data-entity="parse_subcommands" data-source-line="19" data-uid="ent0009" id="entity_parse_subcommands"><ellipse cx="751.6318" cy="385.7722" fill="#FFFFFF" rx="95.1218" ry="21.4244" style="stroke:#000000;stroke-width:1;"/><text fill="#000000" font-family="Arial" font-size="14" lengthAdjust="spacing" textLength="165.7305" x="668.7666" y="390.3215">Parse track subcommands</text></g><!--entity session_check--><g class="entity" data-entity="session_check" data-source-line="20" data-uid="ent0010" id="entity_session_check"><rect fill="#FFFFFF" height="46.0986" rx="2.5" ry="2.5" style="stroke:#000000;stroke-width:1;" width="213.5234" x="644.87" y="467.1879"/><rect fill="#FFFFFF" height="10" style="stroke:#000000;stroke-width:1;" width="15" x="838.3934" y="472.1879"/><rect fill="#FFFFFF" height="2" style="stroke:#000000;stroke-width:1;" width="4" x="836.3934" y="474.1879"/><rect fill="#FFFFFF" height="2" style="stroke:#000000;stroke-width:1;" width="4" x="836.3934" y="478.1879"/><text fill="#000000" font-family="Arial" font-size="14" lengthAdjust="spacing" textLength="173.5234" x="659.87" y="500.3197">Check if session is provided</text></g><!--entity load_session--><g class="entity" data-entity="load_session" data-source-line="21" data-uid="ent0011" id="entity_load_session"><rect fill="#FFFFFF" height="46.0986" rx="2.5" ry="2.5" style="stroke:#000000;stroke-width:1;" width="122.5029" x="597.38" y="573.2879"/><rect fill="#FFFFFF" height="10" style="stroke:#000000;stroke-width:1;" width="15" x="699.8829" y="578.2879"/><rect fill="#FFFFFF" height="2" style="stroke:#000000;stroke-width:1;" width="4" x="697.8829" y="580.2879"/><rect fill="#FFFFFF" height="2" style="stroke:#000000;stroke-width:1;" width="4" x="697.8829" y="584.2879"/><text fill="#000000" font-family="Arial" font-size="14" lengthAdjust="spacing" textLength="82.5029" x="612.38" y="606.4197">Load session</text></g><!--entity validate_session--><g class="entity" data-entity="validate_session" data-source-line="22" data-uid="ent0012" id="entity_validate_session"><rect fill="#FFFFFF" height="46.0986" rx="2.5" ry="2.5" style="stroke:#000000;stroke-width:1;" width="194.8613" x="561.2" y="679.3879"/><rect fill="#FFFFFF" height="10" style="stroke:#000000;stroke-width:1;" width="15" x="736.0613" y="684.3879"/><rect fill="#FFFFFF" height="2" style="stroke:#000000;stroke-width:1;" width="4" x="734.0613" y="686.3879"/><rect fill="#FFFFFF" height="2" style="stroke:#000000;stroke-width:1;" width="4" x="734.0613" y="690.3879"/><text fill="#000000" font-family="Arial" font-size="14" lengthAdjust="spacing" textLength="154.8613" x="576.2" y="712.5197">Validate session schema</text></g><!--entity subcommand_check--><g class="entity" data-entity="subcommand_check" data-source-line="23" data-uid="ent0013" id="entity_subcommand_check"><rect fill="#FFFFFF" height="46.0986" rx="2.5" ry="2.5" style="stroke:#000000;stroke-width:1;" width="250.0957" x="533.59" y="785.4879"/><rect fill="#FFFFFF" height="10" style="stroke:#000000;stroke-width:1;" width="15" x="763.6857" y="790.4879"/><rect fill="#FFFFFF" height="2" style="stroke:#000000;stroke-width:1;" width="4" x="761.6857" y="792.4879"/><rect fill="#FFFFFF" height="2" style="stroke:#000000;stroke-width:1;" width="4" x="761.6857" y="796.4879"/><text fill="#000000" font-family="Arial" font-size="14" lengthAdjust="spacing" textLength="210.0957" x="548.59" y="818.6197">Check if subcommand is provided</text></g><!--entity route_list--><g class="entity" data-entity="route_list" data-source-line="24" data-uid="ent0014" id="entity_route_list"><ellipse cx="261.6342" cy="911.9647" fill="#FFFFFF" rx="77.1342" ry="17.8268" style="stroke:#000000;stroke-width:1;"/><text fill="#000000" font-family="Arial" font-size="14" lengthAdjust="spacing" textLength="124.5166" x="199.3759" y="916.514">Route to list handler</text></g><!--entity route_add--><g class="entity" data-entity="route_add" data-source-line="25" data-uid="ent0015" id="entity_route_add"><ellipse cx="453.6265" cy="911.9632" fill="#FFFFFF" rx="79.7765" ry="18.3553" style="stroke:#000000;stroke-width:1;"/><text fill="#000000" font-family="Arial" font-size="14" lengthAdjust="spacing" textLength="130.7646" x="388.2442" y="916.5125">Route to add handler</text></g><!--entity route_remove--><g class="entity" data-entity="route_remove" data-source-line="26" data-uid="ent0016" id="entity_route_remove"><ellipse cx="658.6331" cy="911.9725" fill="#FFFFFF" rx="89.9231" ry="20.3846" style="stroke:#000000;stroke-width:1;"/><text fill="#000000" font-family="Arial" font-size="14" lengthAdjust="spacing" textLength="154.0889" x="581.5887" y="916.5218">Route to remove handler</text></g><!--entity route_show--><g class="entity" data-entity="route_show" data-source-line="27" data-uid="ent0017" id="entity_route_show"><ellipse cx="867.6337" cy="911.9646" fill="#FFFFFF" rx="83.7837" ry="19.1567" style="stroke:#000000;stroke-width:1;"/><text fill="#000000" font-family="Arial" font-size="14" lengthAdjust="spacing" textLength="140.0889" x="797.5893" y="916.5139">Route to show handler</text></g><!--entity show_help--><g class="entity" data-entity="show_help" data-source-line="28" data-uid="ent0018" id="entity_show_help"><rect fill="#FFFFFF" height="36.0986" rx="2.5" ry="2.5" style="stroke:#000000;stroke-width:1;" width="119.6064" x="986.83" y="893.9179"/><text fill="#000000" font-family="Arial" font-size="14" lengthAdjust="spacing" textLength="99.6064" x="996.83" y="917.0497">Show track help</text></g><!--entity execute_operation--><g class="entity" data-entity="execute_operation" data-source-line="29" data-uid="ent0019" id="entity_execute_operation"><rect fill="#FFFFFF" height="46.0986" rx="2.5" ry="2.5" style="stroke:#000000;stroke-width:1;" width="187.082" x="463.09" y="992.3479"/><rect fill="#FFFFFF" height="10" style="stroke:#000000;stroke-width:1;" width="15" x="630.172" y="997.3479"/><rect fill="#FFFFFF" height="2" style="stroke:#000000;stroke-width:1;" width="4" x="628.172" y="999.3479"/><rect fill="#FFFFFF" height="2" style="stroke:#000000;stroke-width:1;" width="4" x="628.172" y="1003.3479"/><text fill="#000000" font-family="Arial" font-size="14" lengthAdjust="spacing" textLength="147.082" x="478.09" y="1025.4797">Execute track operation</text></g><!--entity output_results--><g class="entity" data-entity="output_results" data-source-line="30" data-uid="ent0020" id="entity_output_results"><rect fill="#FFFFFF" height="36.0986" rx="2.5" ry="2.5" style="stroke:#000000;stroke-width:1;" width="164.7441" x="474.26" y="1098.4479"/><text fill="#000000" font-family="Arial" font-size="14" lengthAdjust="spacing" textLength="144.7441" x="484.26" y="1121.5797">Output results to stdout</text></g><!--entity exit_success--><g class="entity" data-entity="exit_success" data-source-line="31" data-uid="ent0021" id="entity_exit_success"><rect fill="#FFFFFF" height="36.0986" rx="2.5" ry="2.5" style="stroke:#000000;stroke-width:1;" width="126.5859" x="493.34" y="1194.5479"/><text fill="#000000" font-family="Arial" font-size="14" lengthAdjust="spacing" textLength="106.5859" x="503.34" y="1217.6797">Exit with success</text></g><!--entity exit_failure--><g class="entity" data-entity="exit_failure" data-source-line="32" data-uid="ent0022" id="entity_exit_failure"><rect fill="#FFFFFF" height="36.0986" rx="2.5" ry="2.5" style="stroke:#000000;stroke-width:1;" width="114.1445" x="989.56" y="997.3479"/><text fill="#000000" font-family="Arial" font-size="14" lengthAdjust="spacing" textLength="94.1445" x="999.56" y="1020.4797">Exit with failure</text></g><!--entity hard_stop_no_session--><g class="entity" data-entity="hard_stop_no_session" data-source-line="33" data-uid="ent0023" id="entity_hard_stop_no_session"><rect fill="#FFFFFF" height="46.0986" rx="2.5" ry="2.5" style="stroke:#000000;stroke-width:1;" width="182.4063" x="754.43" y="573.2879"/><rect fill="#FFFFFF" height="10" style="stroke:#000000;stroke-width:1;" width="15" x="916.8363" y="578.2879"/><rect fill="#FFFFFF" height="2" style="stroke:#000000;stroke-width:1;" width="4" x="914.8363" y="580.2879"/><rect fill="#FFFFFF" height="2" style="stroke:#000000;stroke-width:1;" width="4" x="914.8363" y="584.2879"/><text fill="#000000" font-family="Arial" font-size="14" lengthAdjust="spacing" textLength="142.4063" x="769.43" y="606.4197">Hard stop if no session</text></g><!--link cli_invocation to parse_args--><g class="link" data-entity-1="cli_invocation" data-entity-2="parse_args" data-source-line="34" data-uid="lnk24" id="link_cli_invocation_parse_args"><path d="M751.63,102.8079 C751.63,121.8579 751.63,146.5279 751.63,165.7379" fill="none" id="cli_invocation-to-parse_args" style="stroke:#333333;stroke-width:1;"/><polygon fill="#333333" points="751.63,171.7379,755.63,162.7379,751.63,166.7379,747.63,162.7379,751.63,171.7379" style="stroke:#333333;stroke-width:1;"/></g><!--link parse_args to determine_track_command--><g class="link" data-entity-1="parse_args" data-entity-2="determine_track_command" data-source-line="35" data-uid="lnk25" id="link_parse_args_determine_track_command"><path d="M751.63,208.4479 C751.63,225.3179 751.63,244.8779 751.63,261.8179" fill="none" id="parse_args-to-determine_track_command" style="stroke:#333333;stroke-width:1;"/><polygon fill="#333333" points="751.63,267.8179,755.63,258.8179,751.63,262.8179,747.63,258.8179,751.63,267.8179" style="stroke:#333333;stroke-width:1;"/></g><!--link determine_track_command to parse_subcommands--><g class="link" data-entity-1="determine_track_command" data-entity-2="parse_subcommands" data-source-line="36" data-uid="lnk26" id="link_determine_track_command_parse_subcommands"><path d="M751.63,304.7179 C751.63,321.3679 751.63,340.4579 751.63,358.1079" fill="none" id="determine_track_command-to-parse_subcommands" style="stroke:#333333;stroke-width:1;"/><polygon fill="#333333" points="751.63,364.1079,755.63,355.1079,751.63,359.1079,747.63,355.1079,751.63,364.1079" style="stroke:#333333;stroke-width:1;"/></g><!--link parse_subcommands to session_check--><g class="link" data-entity-1="parse_subcommands" data-entity-2="session_check" data-source-line="37" data-uid="lnk27" id="link_parse_subcommands_session_check"><path d="M751.63,407.4979 C751.63,424.6979 751.63,443.0979 751.63,460.7579" fill="none" id="parse_subcommands-to-session_check" style="stroke:#333333;stroke-width:1;"/><polygon fill="#333333" points="751.63,466.7579,755.63,457.7579,751.63,461.7579,747.63,457.7579,751.63,466.7579" style="stroke:#333333;stroke-width:1;"/></g><!--link session_check to load_session--><g class="link" data-entity-1="session_check" data-entity-2="load_session" data-source-line="38" data-uid="lnk28" id="link_session_check_load_session"><path d="M731.68,513.5679 C715.99,531.1379 698.2276,551.0135 682.5476,568.5635" fill="none" id="session_check-to-load_session" style="stroke:#333333;stroke-width:1;"/><polygon fill="#333333" points="678.55,573.0379,687.5292,568.9914,681.8813,569.3093,681.5635,563.6613,678.55,573.0379" style="stroke:#333333;stroke-width:1;"/></g><!--link session_check to hard_stop_no_session--><g class="link" data-entity-1="session_check" data-entity-2="hard_stop_no_session" data-source-line="39" data-uid="lnk29" id="link_session_check_hard_stop_no_session"><path d="M771.8,513.5679 C787.66,531.1379 805.6285,551.035 821.4785,568.585" fill="none" id="session_check-to-hard_stop_no_session" style="stroke:#333333;stroke-width:1;"/><polygon fill="#333333" points="825.5,573.0379,822.4363,563.6776,822.1488,569.3272,816.4992,569.0396,825.5,573.0379" style="stroke:#333333;stroke-width:1;"/></g><!--link load_session to validate_session--><g class="link" data-entity-1="load_session" data-entity-2="validate_session" data-source-line="40" data-uid="lnk30" id="link_load_session_validate_session"><path d="M658.63,619.6679 C658.63,637.2279 658.63,655.5879 658.63,673.1379" fill="none" id="load_session-to-validate_session" style="stroke:#333333;stroke-width:1;"/><polygon fill="#333333" points="658.63,679.1379,662.63,670.1379,658.63,674.1379,654.63,670.1379,658.63,679.1379" style="stroke:#333333;stroke-width:1;"/></g><!--link validate_session to subcommand_check--><g class="link" data-entity-1="validate_session" data-entity-2="subcommand_check" data-source-line="41" data-uid="lnk31" id="link_validate_session_subcommand_check"><path d="M658.63,725.7679 C658.63,743.3279 658.63,761.6879 658.63,779.2379" fill="none" id="validate_session-to-subcommand_check" style="stroke:#333333;stroke-width:1;"/><polygon fill="#333333" points="658.63,785.2379,662.63,776.2379,658.63,780.2379,654.63,776.2379,658.63,785.2379" style="stroke:#333333;stroke-width:1;"/></g><!--link subcommand_check to route_list--><g class="link" data-entity-1="subcommand_check" data-entity-2="route_list" data-source-line="42" data-uid="lnk32" id="link_subcommand_check_route_list"><path d="M570.53,832.0479 C491.03,852.3579 382.7132,880.0323 317.7532,896.6323" fill="none" id="subcommand_check-to-route_list" style="stroke:#333333;stroke-width:1;"/><polygon fill="#333333" points="311.94,898.1179,321.6501,899.765,316.7843,896.8799,319.6695,892.0141,311.94,898.1179" style="stroke:#333333;stroke-width:1;"/></g><!--link subcommand_check to route_add--><g class="link" data-entity-1="subcommand_check" data-entity-2="route_add" data-source-line="43" data-uid="lnk33" id="link_subcommand_check_route_add"><path d="M613.14,832.0479 C574.68,851.0679 525.9078,875.2072 491.6478,892.1572" fill="none" id="subcommand_check-to-route_add" style="stroke:#333333;stroke-width:1;"/><polygon fill="#333333" points="486.27,894.8179,496.1105,894.4121,490.7515,892.6006,492.563,887.2417,486.27,894.8179" style="stroke:#333333;stroke-width:1;"/></g><!--link subcommand_check to route_remove--><g class="link" data-entity-1="subcommand_check" data-entity-2="route_remove" data-source-line="44" data-uid="lnk34" id="link_subcommand_check_route_remove"><path d="M658.63,832.0479 C658.63,849.7879 658.63,868.2879 658.63,885.2579" fill="none" id="subcommand_check-to-route_remove" style="stroke:#333333;stroke-width:1;"/><polygon fill="#333333" points="658.63,891.2579,662.63,882.2579,658.63,886.2579,654.63,882.2579,658.63,891.2579" style="stroke:#333333;stroke-width:1;"/></g><!--link subcommand_check to route_show--><g class="link" data-entity-1="subcommand_check" data-entity-2="route_show" data-source-line="45" data-uid="lnk35" id="link_subcommand_check_route_show"><path d="M705.02,832.0479 C743.74,850.8379 792.682,874.5883 827.672,891.5683" fill="none" id="subcommand_check-to-route_show" style="stroke:#333333;stroke-width:1;"/><polygon fill="#333333" points="833.07,894.1879,826.7194,886.6599,828.5717,892.0049,823.2267,893.8572,833.07,894.1879" style="stroke:#333333;stroke-width:1;"/></g><!--link subcommand_check to show_help--><g class="link" data-entity-1="subcommand_check" data-entity-2="show_help" data-source-line="46" data-uid="lnk36" id="link_subcommand_check_show_help"><path d="M744.74,832.0479 C818.08,851.2179 915.785,876.7605 980.555,893.6905" fill="none" id="subcommand_check-to-show_help" style="stroke:#333333;stroke-width:1;"/><polygon fill="#333333" points="986.36,895.2079,978.6641,889.0619,981.5225,893.9434,976.641,896.8018,986.36,895.2079" style="stroke:#333333;stroke-width:1;"/></g><!--link route_list to execute_operation--><g class="link" data-entity-1="route_list" data-entity-2="execute_operation" data-source-line="47" data-uid="lnk37" id="link_route_list_execute_operation"><path d="M303.27,927.2879 C352.19,944.1079 428.2661,970.2669 485.6461,989.9969" fill="none" id="route_list-to-execute_operation" style="stroke:#333333;stroke-width:1;"/><polygon fill="#333333" points="491.32,991.9479,484.1097,985.2388,486.5917,990.322,481.5084,992.804,491.32,991.9479" style="stroke:#333333;stroke-width:1;"/></g><!--link route_add to execute_operation--><g class="link" data-entity-1="route_add" data-entity-2="execute_operation" data-source-line="48" data-uid="lnk38" id="link_route_add_execute_operation"><path d="M471.11,930.1779 C488.44,947.2479 510.8048,969.2681 529.7448,987.9181" fill="none" id="route_add-to-execute_operation" style="stroke:#333333;stroke-width:1;"/><polygon fill="#333333" points="534.02,992.1279,530.4137,982.963,530.4573,988.6197,524.8006,988.6633,534.02,992.1279" style="stroke:#333333;stroke-width:1;"/></g><!--link route_remove to execute_operation--><g class="link" data-entity-1="route_remove" data-entity-2="execute_operation" data-source-line="49" data-uid="lnk39" id="link_route_remove_execute_operation"><path d="M639.45,932.0479 C622.37,949.0379 601.6156,969.6782 583.5456,987.6382" fill="none" id="route_remove-to-execute_operation" style="stroke:#333333;stroke-width:1;"/><polygon fill="#333333" points="579.29,991.8679,588.4931,988.3604,582.8363,988.3431,582.8536,982.6863,579.29,991.8679" style="stroke:#333333;stroke-width:1;"/></g><!--link route_show to execute_operation--><g class="link" data-entity-1="route_show" data-entity-2="execute_operation" data-source-line="50" data-uid="lnk40" id="link_route_show_execute_operation"><path d="M820.74,928.2579 C768.9,945.1679 690.5943,970.7074 631.2643,990.0574" fill="none" id="route_show-to-execute_operation" style="stroke:#333333;stroke-width:1;"/><polygon fill="#333333" points="625.56,991.9179,635.3567,992.9301,630.3136,990.3675,632.8762,985.3244,625.56,991.9179" style="stroke:#333333;stroke-width:1;"/></g><!--link execute_operation to output_results--><g class="link" data-entity-1="execute_operation" data-entity-2="output_results" data-source-line="51" data-uid="lnk41" id="link_execute_operation_output_results"><path d="M556.63,1038.8879 C556.63,1056.8179 556.63,1075.5679 556.63,1092.0379" fill="none" id="execute_operation-to-output_results" style="stroke:#333333;stroke-width:1;"/><polygon fill="#333333" points="556.63,1098.0379,560.63,1089.0379,556.63,1093.0379,552.63,1089.0379,556.63,1098.0379" style="stroke:#333333;stroke-width:1;"/></g><!--link output_results to exit_success--><g class="link" data-entity-1="output_results" data-entity-2="exit_success" data-source-line="52" data-uid="lnk42" id="link_output_results_exit_success"><path d="M556.63,1134.7579 C556.63,1151.6279 556.63,1171.1879 556.63,1188.1279" fill="none" id="output_results-to-exit_success" style="stroke:#333333;stroke-width:1;"/><polygon fill="#333333" points="556.63,1194.1279,560.63,1185.1279,556.63,1189.1279,552.63,1185.1279,556.63,1194.1279" style="stroke:#333333;stroke-width:1;"/></g><!--link show_help to exit_failure--><g class="link" data-entity-1="show_help" data-entity-2="exit_failure" data-source-line="53" data-uid="lnk43" id="link_show_help_exit_failure"><path d="M1046.63,930.1779 C1046.63,948.8279 1046.63,972.4279 1046.63,991.1079" fill="none" id="show_help-to-exit_failure" style="stroke:#333333;stroke-width:1;"/><polygon fill="#333333" points="1046.63,997.1079,1050.63,988.1079,1046.63,992.1079,1042.63,988.1079,1046.63,997.1079" style="stroke:#333333;stroke-width:1;"/></g><!--SRC=[bLN1Rjim3BtxAxJiq2r06dIxzJ2WIrEqG9iCxR1BKHYgHCT2PScGvAJx-r6oOik96s2-s7hlKIGbqlpaIgY0r98AbTateMfgQ4LUANlR6Dqelj1I6_Bv9Zo9WaD16-bkj78hYZjS6K5bmbyPetVH-7ju4dAb7VpKXeE9YaLu3XLZGQ0gSy9988k7wvapg24pqhwPhYggEB6DAIW3ykL-VNrnIHRtT-H6wjtNB6iiC6g1JAXYfJOJGYrPhNylywlLudRzc9M2mm1G60SnObCweei1GyXq-gGRm-1oEYNFprmpEzzfyrQWAplVVfiBCsSLdtTndZCfpl_IIfB_qBwyP80f-JYop01pL6qm-Sa31UkC3idTgQrcr0cjGa9eceiEIer-KOF9UnDgDaq5ojbWKNiyHyocwcjmO2gXe3jOOSbP2EyicF6z80zW7cNzARV-siknpMlaKvy9ck57hHK6HIQB4j145CI2jPY4zrmRlSNhuS4wuZdpmjJoNbE-PuDI8f1781N-eL9mYhUxTs5nhue6cstankpwqBhGZwFhg1XWToAFka6NJXCfh2CbAYIqPMWyatjuH4qv7n4ZEg8rKEajZCXROiJ2bdetelTmMWzFNjPUPWcoRZD5BFUhz8YMxy32ra6hQp1zSKBBvHsQUbWthcuSPc3nrs93Q8vZBC5I1pAFP6gsV1UEx8GhyU0PmokBdeJB8p2kBgYGZO5U7O4qbrjgi9wShlsLApqehHAvt7Evqdsf3BgFp6O_qlRgFmFpKGTzW2UxfOrpX0JTi4K6gy0F6kEO7aqkjGcgequv1DfG3llX40Ygf0DEyBxeJz2no4yeGbcFydqnzw44OgHezx6Sv6ChdfA4tXiN7251Tz06msNSAIdyBgUUsbTvEzma5AEpRUb_PofCDx_62RUzcE_Fh9rH5IU708wh3yHrWuFl64hdspy0]--></g></svg>