<svg xmlns="http://www.w3.org/2000/svg" xmlns:xlink="http://www.w3.org/1999/xlink" contentStyleType="text/css" data-diagram-type="DESCRIPTION" height="373px" preserveAspectRatio="none" style="width:904px;height:373px;background:#FFFFFF;" version="1.1" viewBox="0 0 904 373" width="904px" zoomAndPan="magnify"><title>CMD-ops - ops deep internal flow (observed) (LOD0: Code Modules)</title><defs/><g><g class="title" data-source-line="8"><text fill="#000000" font-family="Arial" font-size="22" font-weight="bold" lengthAdjust="spacing" textLength="710.1338" x="92.5681" y="35.6357">CMD-ops - ops deep internal flow (observed) (LOD0: Code Modules)</text></g><!--cluster Code Modules--><g class="cluster" data-entity="Code Modules" data-source-line="16" data-uid="ent0006" id="cluster_Code Modules"><path d="M473.77,57.2979 L570.4389,57.2979 A3.75,3.75 0 0 1 572.9389,59.7979 L579.9389,79.3965 L894.77,79.3965 A2.5,2.5 0 0 1 897.27,81.8965 L897.27,364.0979 A2.5,2.5 0 0 1 894.77,366.5979 L473.77,366.5979 A2.5,2.5 0 0 1 471.27,364.0979 L471.27,59.7979 A2.5,2.5 0 0 1 473.77,57.2979" fill="#FFFFFF" style="stroke:#000000;stroke-width:1;"/><line style="stroke:#000000;stroke-width:1;" x1="471.27" x2="579.9389" y1="79.3965" y2="79.3965"/><text fill="#000000" font-family="Arial" font-size="14" font-weight="bold" lengthAdjust="spacing" textLength="95.6689" x="475.27" y="72.4297">Code Modules</text></g><!--entity markdown_writer--><g class="entity" data-entity="markdown_writer" data-source-line="17" data-uid="ent0007" id="entity_markdown_writer"><rect fill="#FFFFFF" height="46.0986" rx="2.5" ry="2.5" style="stroke:#000000;stroke-width:1;" width="146.5859" x="486.98" y="92.2979"/><rect fill="#FFFFFF" height="10" style="stroke:#000000;stroke-width:1;" width="15" x="613.5659" y="97.2979"/><rect fill="#FFFFFF" height="2" style="stroke:#000000;stroke-width:1;" width="4" x="611.5659" y="99.2979"/><rect fill="#FFFFFF" height="2" style="stroke:#000000;stroke-width:1;" width="4" x="611.5659" y="103.2979"/><text fill="#000000" font-family="Arial" font-size="14" lengthAdjust="spacing" textLength="106.5859" x="501.98" y="125.4297">markdown_writer</text></g><!--entity main--><g class="entity" data-entity="main" data-source-line="18" data-uid="ent0008" id="entity_main"><rect fill="#FFFFFF" height="46.0986" rx="2.5" ry="2.5" style="stroke:#000000;stroke-width:1;" width="70.3447" x="668.1" y="92.2979"/><rect fill="#FFFFFF" height="10" style="stroke:#000000;stroke-width:1;" width="15" x="718.4447" y="97.2979"/><rect fill="#FFFFFF" height="2" style="stroke:#000000;stroke-width:1;" width="4" x="716.4447" y="99.2979"/><rect fill="#FFFFFF" height="2" style="stroke:#000000;stroke-width:1;" width="4" x="716.4447" y="103.2979"/><text fill="#000000" font-family="Arial" font-size="14" lengthAdjust="spacing" textLength="30.3447" x="683.1" y="125.4297">main</text></g><!--entity commands--><g class="entity" data-entity="commands" data-source-line="19" data-uid="ent0009" id="entity_commands"><rect fill="#FFFFFF" height="46.0986" rx="2.5" ry="2.5" style="stroke:#000000;stroke-width:1;" width="108.4688" x="773.03" y="92.2979"/><rect fill="#FFFFFF" height="10" style="stroke:#000000;stroke-width:1;" width="15" x="861.4988" y="97.2979"/><rect fill="#FFFFFF" height="2" style="stroke:#000000;stroke-width:1;" width="4" x="859.4988" y="99.2979"/><rect fill="#FFFFFF" height="2" style="stroke:#000000;stroke-width:1;" width="4" x="859.4988" y="103.2979"/><text fill="#000000" font-family="Arial" font-size="14" lengthAdjust="spacing" textLength="68.4688" x="788.03" y="125.4297">commands</text></g><!--entity decoder--><g class="entity" data-entity="decoder" data-source-line="20" data-uid="ent0010" id="entity_decoder"><rect fill="#FFFFFF" height="46.0986" rx="2.5" ry="2.5" style="stroke:#000000;stroke-width:1;" width="90.5928" x="514.97" y="198.3979"/><rect fill="#FFFFFF" height="10" style="stroke:#000000;stroke-width:1;" width="15" x="585.5628" y="203.3979"/><rect fill="#FFFFFF" height="2" style="stroke:#000000;stroke-width:1;" width="4" x="583.5628" y="205.3979"/><rect fill="#FFFFFF" height="2" style="stroke:#000000;stroke-width:1;" width="4" x="583.5628" y="209.3979"/><text fill="#000000" font-family="Arial" font-size="14" lengthAdjust="spacing" textLength="50.5928" x="529.97" y="231.5297">decoder</text></g><!--entity executor--><g class="entity" data-entity="executor" data-source-line="21" data-uid="ent0011" id="entity_executor"><rect fill="#FFFFFF" height="46.0986" rx="2.5" ry="2.5" style="stroke:#000000;stroke-width:1;" width="93.6963" x="640.42" y="198.3979"/><rect fill="#FFFFFF" height="10" style="stroke:#000000;stroke-width:1;" width="15" x="714.1163" y="203.3979"/><rect fill="#FFFFFF" height="2" style="stroke:#000000;stroke-width:1;" width="4" x="712.1163" y="205.3979"/><rect fill="#FFFFFF" height="2" style="stroke:#000000;stroke-width:1;" width="4" x="712.1163" y="209.3979"/><text fill="#000000" font-family="Arial" font-size="14" lengthAdjust="spacing" textLength="53.6963" x="655.42" y="231.5297">executor</text></g><!--entity schemas--><g class="entity" data-entity="schemas" data-source-line="22" data-uid="ent0012" id="entity_schemas"><rect fill="#FFFFFF" height="46.0986" rx="2.5" ry="2.5" style="stroke:#000000;stroke-width:1;" width="96.0205" x="769.26" y="198.3979"/><rect fill="#FFFFFF" height="10" style="stroke:#000000;stroke-width:1;" width="15" x="845.2805" y="203.3979"/><rect fill="#FFFFFF" height="2" style="stroke:#000000;stroke-width:1;" width="4" x="843.2805" y="205.3979"/><rect fill="#FFFFFF" height="2" style="stroke:#000000;stroke-width:1;" width="4" x="843.2805" y="209.3979"/><text fill="#000000" font-family="Arial" font-size="14" lengthAdjust="spacing" textLength="56.0205" x="784.26" y="231.5297">schemas</text></g><!--entity translator--><g class="entity" data-entity="translator" data-source-line="23" data-uid="ent0013" id="entity_translator"><rect fill="#FFFFFF" height="46.0986" rx="2.5" ry="2.5" style="stroke:#000000;stroke-width:1;" width="98.3584" x="511.09" y="304.4979"/><rect fill="#FFFFFF" height="10" style="stroke:#000000;stroke-width:1;" width="15" x="589.4484" y="309.4979"/><rect fill="#FFFFFF" height="2" style="stroke:#000000;stroke-width:1;" width="4" x="587.4484" y="311.4979"/><rect fill="#FFFFFF" height="2" style="stroke:#000000;stroke-width:1;" width="4" x="587.4484" y="315.4979"/><text fill="#000000" font-family="Arial" font-size="14" lengthAdjust="spacing" textLength="58.3584" x="526.09" y="337.6297">translator</text></g><!--entity json_store--><g class="entity" data-entity="json_store" data-source-line="24" data-uid="ent0014" id="entity_json_store"><rect fill="#FFFFFF" height="46.0986" rx="2.5" ry="2.5" style="stroke:#000000;stroke-width:1;" width="104.5928" x="643.97" y="304.4979"/><rect fill="#FFFFFF" height="10" style="stroke:#000000;stroke-width:1;" width="15" x="728.5628" y="309.4979"/><rect fill="#FFFFFF" height="2" style="stroke:#000000;stroke-width:1;" width="4" x="726.5628" y="311.4979"/><rect fill="#FFFFFF" height="2" style="stroke:#000000;stroke-width:1;" width="4" x="726.5628" y="315.4979"/><text fill="#000000" font-family="Arial" font-size="14" lengthAdjust="spacing" textLength="64.5928" x="658.97" y="337.6297">json_store</text></g><!--entity models--><g class="entity" data-entity="models" data-source-line="25" data-uid="ent0015" id="entity_models"><rect fill="#FFFFFF" height="46.0986" rx="2.5" ry="2.5" style="stroke:#000000;stroke-width:1;" width="85.1309" x="783.7" y="304.4979"/><rect fill="#FFFFFF" height="10" style="stroke:#000000;stroke-width:1;" width="15" x="848.8309" y="309.4979"/><rect fill="#FFFFFF" height="2" style="stroke:#000000;stroke-width:1;" width="4" x="846.8309" y="311.4979"/><rect fill="#FFFFFF" height="2" style="stroke:#000000;stroke-width:1;" width="4" x="846.8309" y="315.4979"/><text fill="#000000" font-family="Arial" font-size="14" lengthAdjust="spacing" textLength="45.1309" x="798.7" y="337.6297">models</text></g><!--entity NOTE_ANCHOR--><!--SRC=[ZP9DJyCm38Rl-HLcN63IA88Rjr6OEC0c0JU49fDuMrWQLqvAGOZ_JjPrMZjnm8V87q_YrrQEueeAWjAXzIgihIzHi80trEkbSELDpeu5ZYUDTGX32wnSdB2FKqmlZCMYwzJ78botboyRwnId7EcQnP2qHDxO8V6NY4IfQACZo1zkHbm66C7cD4GbM1z9F3fOEAxXXDy2oGUPKpYvdzsSNq7EXk21JUKed2fL1T8O20RezOfb01XWEdk-dO-d-TtiKQrimhi9drI1sEKg0Yzw5O3Xy8ahqNGr7CBBYs4TiffblL4Iie-Bp4gc2vErgizqadBsXOM3_wElhugyWOqAfSgq7LmcyTsX1l2Tf6WkIlRa8mmAbBNXsizhiMatpOW7kSCBrhTK-X6zKd8Bz2OqvLtGHmnjn6xRj7uVe4_ILMntlGlwID3fI-AsI-ltWIZeWyFTA_kmZxq7zlEGqjHW-_1Wu2JIRRjjNVMZVW40]--></g></svg>