<svg xmlns="http://www.w3.org/2000/svg" xmlns:xlink="http://www.w3.org/1999/xlink" contentStyleType="text/css" data-diagram-type="DESCRIPTION" height="359px" preserveAspectRatio="none" style="width:2280px;height:359px;background:#FFFFFF;" version="1.1" viewBox="0 0 2280 359" width="2280px" zoomAndPan="magnify"><title>CMD-ai - Combined CLI+Code (LOD1)</title><defs/><g><g class="title" data-source-line="8"><text fill="#000000" font-family="Arial" font-size="22" font-weight="bold" lengthAdjust="spacing" textLength="391.7139" x="940.1067" y="35.6357">CMD-ai - Combined CLI+Code (LOD1)</text></g><!--cluster CLI Layer--><g class="cluster" data-entity="CLI Layer" data-source-line="20" data-uid="ent0007" id="cluster_CLI Layer"><path d="M1126.85,146.5879 L1191.6498,146.5879 A3.75,3.75 0 0 1 1194.1498,149.0879 L1201.1498,168.6865 L1600.85,168.6865 A2.5,2.5 0 0 1 1603.35,171.1865 L1603.35,348.8479 A2.5,2.5 0 0 1 1600.85,351.3479 L1126.85,351.3479 A2.5,2.5 0 0 1 1124.35,348.8479 L1124.35,149.0879 A2.5,2.5 0 0 1 1126.85,146.5879" fill="#E6F3FF" style="stroke:#000000;stroke-width:1;"/><line style="stroke:#000000;stroke-width:1;" x1="1124.35" x2="1201.1498" y1="168.6865" y2="168.6865"/><text fill="#000000" font-family="Arial" font-size="14" font-weight="bold" lengthAdjust="spacing" textLength="63.7998" x="1128.35" y="161.7197">CLI Layer</text></g><!--cluster Code Layer--><g class="cluster" data-entity="Code Layer" data-source-line="28" data-uid="ent0013" id="cluster_Code Layer"><path d="M1629.85,145.2079 L1707.098,145.2079 A3.75,3.75 0 0 1 1709.598,147.7079 L1716.598,167.3065 L2016.85,167.3065 A2.5,2.5 0 0 1 2019.35,169.8065 L2019.35,350.2279 A2.5,2.5 0 0 1 2016.85,352.7279 L1629.85,352.7279 A2.5,2.5 0 0 1 1627.35,350.2279 L1627.35,147.7079 A2.5,2.5 0 0 1 1629.85,145.2079" fill="#FFE6E6" style="stroke:#000000;stroke-width:1;"/><line style="stroke:#000000;stroke-width:1;" x1="1627.35" x2="1716.598" y1="167.3065" y2="167.3065"/><text fill="#000000" font-family="Arial" font-size="14" font-weight="bold" lengthAdjust="spacing" textLength="76.248" x="1631.35" y="160.3397">Code Layer</text></g><!--entity maestro ai--><g class="entity" data-entity="maestro ai" data-source-line="21" data-uid="ent0008" id="entity_maestro ai"><ellipse cx="1189.3454" cy="198.2613" fill="#FFFFFF" rx="49.2154" ry="14.3835" style="stroke:#000000;stroke-width:1;"/><text fill="#000000" font-family="Arial" font-size="14" lengthAdjust="spacing" textLength="65.3584" x="1156.6662" y="202.8106">maestro ai</text></g><!--entity maestro ai qwen--><g class="entity" data-entity="maestro ai qwen" data-source-line="22" data-uid="ent0009" id="entity_maestro ai qwen"><ellipse cx="1341.3493" cy="198.2577" fill="#FFFFFF" rx="68.2493" ry="16.0499" style="stroke:#000000;stroke-width:1;"/><text fill="#000000" font-family="Arial" font-size="14" lengthAdjust="spacing" textLength="102.7168" x="1289.9909" y="202.807">maestro ai qwen</text></g><!--entity maestro ai gemini--><g class="entity" data-entity="maestro ai gemini" data-source-line="23" data-uid="ent0010" id="entity_maestro ai gemini"><ellipse cx="1516.3502" cy="198.2579" fill="#FFFFFF" rx="71.3502" ry="16.67" style="stroke:#000000;stroke-width:1;"/><text fill="#000000" font-family="Arial" font-size="14" lengthAdjust="spacing" textLength="110.4893" x="1461.1056" y="202.8072">maestro ai gemini</text></g><!--entity maestro ai codex--><g class="entity" data-entity="maestro ai codex" data-source-line="24" data-uid="ent0011" id="entity_maestro ai codex"><ellipse cx="1210.3509" cy="318.676" fill="#FFFFFF" rx="69.7909" ry="16.3582" style="stroke:#000000;stroke-width:1;"/><text fill="#000000" font-family="Arial" font-size="14" lengthAdjust="spacing" textLength="106.6064" x="1157.0477" y="323.2253">maestro ai codex</text></g><!--entity maestro ai claude--><g class="entity" data-entity="maestro ai claude" data-source-line="25" data-uid="ent0012" id="entity_maestro ai claude"><ellipse cx="1386.3458" cy="318.679" fill="#FFFFFF" rx="71.3558" ry="16.6712" style="stroke:#000000;stroke-width:1;"/><text fill="#000000" font-family="Arial" font-size="14" lengthAdjust="spacing" textLength="110.5029" x="1331.0943" y="323.2283">maestro ai claude</text></g><!--entity main--><g class="entity" data-entity="main" data-source-line="29" data-uid="ent0014" id="entity_main"><rect fill="#FFFFFF" height="36.0986" rx="2.5" ry="2.5" style="stroke:#000000;stroke-width:1;" width="50.3447" x="1643.18" y="180.2079"/><text fill="#000000" font-family="Arial" font-size="14" lengthAdjust="spacing" textLength="30.3447" x="1653.18" y="203.3397">main</text></g><!--entity handle_ai_sync--><g class="entity" data-entity="handle_ai_sync" data-source-line="30" data-uid="ent0015" id="entity_handle_ai_sync"><rect fill="#FFFFFF" height="36.0986" rx="2.5" ry="2.5" style="stroke:#000000;stroke-width:1;" width="117.2959" x="1728.7" y="180.2079"/><text fill="#000000" font-family="Arial" font-size="14" lengthAdjust="spacing" textLength="97.2959" x="1738.7" y="203.3397">handle_ai_sync</text></g><!--entity handle_ai_qwen--><g class="entity" data-entity="handle_ai_qwen" data-source-line="31" data-uid="ent0016" id="entity_handle_ai_qwen"><rect fill="#FFFFFF" height="36.0986" rx="2.5" ry="2.5" style="stroke:#000000;stroke-width:1;" width="121.9785" x="1881.36" y="180.2079"/><text fill="#000000" font-family="Arial" font-size="14" lengthAdjust="spacing" textLength="101.9785" x="1891.36" y="203.3397">handle_ai_qwen</text></g><!--entity handle_ai_gemini--><g class="entity" data-entity="handle_ai_gemini" data-source-line="32" data-uid="ent0017" id="entity_handle_ai_gemini"><rect fill="#FFFFFF" height="36.0986" rx="2.5" ry="2.5" style="stroke:#000000;stroke-width:1;" width="129.751" x="1643.47" y="300.6279"/><text fill="#000000" font-family="Arial" font-size="14" lengthAdjust="spacing" textLength="109.751" x="1653.47" y="323.7597">handle_ai_gemini</text></g><!--entity handle_ai_codex--><g class="entity" data-entity="handle_ai_codex" data-source-line="33" data-uid="ent0018" id="entity_handle_ai_codex"><rect fill="#FFFFFF" height="36.0986" rx="2.5" ry="2.5" style="stroke:#000000;stroke-width:1;" width="125.8682" x="1808.41" y="300.6279"/><text fill="#000000" font-family="Arial" font-size="14" lengthAdjust="spacing" textLength="105.8682" x="1818.41" y="323.7597">handle_ai_codex</text></g><!--entity NOTE_ANCHOR--><g class="entity" data-entity="N1" data-source-line="17" data-uid="ent0006" id="entity_N1"><path d="M2038.77,185.7879 L2038.77,210.7366 L2273.9272,210.7366 L2273.9272,195.7879 L2263.9272,185.7879 L2038.77,185.7879" fill="#FFFFCC" style="stroke:#CCCCCC;stroke-width:1;"/><path d="M2263.9272,185.7879 L2263.9272,195.7879 L2273.9272,195.7879 L2263.9272,185.7879" fill="#FFFFCC" style="stroke:#CCCCCC;stroke-width:1;"/><text fill="#000000" font-family="Arial" font-size="13" font-weight="bold" lengthAdjust="spacing" textLength="214.1572" x="2044.77" y="202.9817">Combined CLI + Code view (LOD1)</text></g><!--link NOTE_ANCHOR to GMN3--><!--SRC=[ZLDDZzCm4BtdLmpT2sIrZRehzG2daYPifNx0KaxLAdBjQMBLiOljj5He_mWdVXk_1CURbW2fmFB1cJSpVc_yyi8MM2Bi1E4oC5ikTqIJ4jQ4RdEjAibY9PI6gzIlLWR33Qc4JPMqS-8wZ3GdeeMFj5Q7flZEhnOuLnRVAirGDncnNtzcT95mMO7bLY34i_4DuN03iIhNN2A3U3gvZXL3U3bTZ0UlWg0oI8b1w1592wLxG0pC5yia6ytZ-yL3K72Nt0v8ToredXSMrEOt120CFwfAKtmTXh1QCKLDT51wkn7gOABzRSHrH4iMFTFgKy7xHr8A-D_4nyS09OEQGV3CeoOxy1Ut5S8rU8rxZeT6Q1YsIdTkQYHtcklSAJcYatsL3DExD8Mlhjjv9YL1OxK2mdlTOVXyG7a9ox7ayc8bTGo_N0G5gHZsWgSssLhIYMsQ9iDawDbgf9R8NFWEtBDfXGeYcS2CyCmS9Rq8ddHqWh-4TCADagVcJGHkEgsHx9sLf3T7_UqCiXz4L9MbQvIPIcy8nVhLNSj-oU1ySg_-h_HTvLpKElzjb2x3dgResVtuzXsco7BKSC-bDIUMYxL1lNU-4fWJUeGFRb3WGpfQVfh0ffBKSYM9uFO8N3OqtC-FEwZz_0RsjsvkEmLMLxPmJTrUhVhzoEt9xFqqcINpvMWvMSopQJ9-bppKwZi1FubJQTrIMnC9JpgZRYoS4OkcBc-KnETWUo8_0G00]--></g></svg>