<svg xmlns="http://www.w3.org/2000/svg" xmlns:xlink="http://www.w3.org/1999/xlink" contentStyleType="text/css" data-diagram-type="DESCRIPTION" height="745px" preserveAspectRatio="none" style="width:2098px;height:745px;background:#FFFFFF;" version="1.1" viewBox="0 0 2098 745" width="2098px" zoomAndPan="magnify"><title>CMD-root - root deep internal flow (observed) (LOD1: Code Functions)</title><defs/><g><g class="title" data-source-line="8"><text fill="#000000" font-family="Arial" font-size="22" font-weight="bold" lengthAdjust="spacing" textLength="733.3154" x="678.0096" y="35.6357">CMD-root - root deep internal flow (observed) (LOD1: Code Functions)</text></g><!--entity NOTE_ANCHOR--><!--entity main_entry--><g class="entity" data-entity="main_entry" data-source-line="16" data-uid="ent0006" id="entity_main_entry"><rect fill="#FFFFFF" height="52.1973" rx="2.5" ry="2.5" style="stroke:#000000;stroke-width:1;" width="114.1309" x="1228.19" y="148.4979"/><text fill="#000000" font-family="Arial" font-size="14" lengthAdjust="spacing" textLength="69.2549" x="1238.19" y="171.6297">main_entry</text><text fill="#000000" font-family="Arial" font-size="14" lengthAdjust="spacing" textLength="94.1309" x="1238.19" y="187.7283">(maestro.main)</text></g><!--entity handle_root_set--><g class="entity" data-entity="handle_root_set" data-source-line="17" data-uid="ent0007" id="entity_handle_root_set"><rect fill="#FFFFFF" height="52.1973" rx="2.5" ry="2.5" style="stroke:#000000;stroke-width:1;" width="263.5508" x="555.48" y="276.9679"/><text fill="#000000" font-family="Arial" font-size="14" lengthAdjust="spacing" textLength="100.4131" x="565.48" y="300.0997">handle_root_set</text><text fill="#000000" font-family="Arial" font-size="14" lengthAdjust="spacing" textLength="243.5508" x="565.48" y="316.1983">(maestro.modules.command_handlers)</text></g><!--entity handle_root_get--><g class="entity" data-entity="handle_root_get" data-source-line="18" data-uid="ent0008" id="entity_handle_root_get"><rect fill="#FFFFFF" height="52.1973" rx="2.5" ry="2.5" style="stroke:#000000;stroke-width:1;" width="263.5508" x="1153.48" y="276.9679"/><text fill="#000000" font-family="Arial" font-size="14" lengthAdjust="spacing" textLength="101.1992" x="1163.48" y="300.0997">handle_root_get</text><text fill="#000000" font-family="Arial" font-size="14" lengthAdjust="spacing" textLength="243.5508" x="1163.48" y="316.1983">(maestro.modules.command_handlers)</text></g><!--entity handle_root_refine--><g class="entity" data-entity="handle_root_refine" data-source-line="19" data-uid="ent0009" id="entity_handle_root_refine"><rect fill="#FFFFFF" height="52.1973" rx="2.5" ry="2.5" style="stroke:#000000;stroke-width:1;" width="263.5508" x="1452.48" y="276.9679"/><text fill="#000000" font-family="Arial" font-size="14" lengthAdjust="spacing" textLength="116.7578" x="1462.48" y="300.0997">handle_root_refine</text><text fill="#000000" font-family="Arial" font-size="14" lengthAdjust="spacing" textLength="243.5508" x="1462.48" y="316.1983">(maestro.modules.command_handlers)</text></g><!--entity handle_root_discuss--><g class="entity" data-entity="handle_root_discuss" data-source-line="20" data-uid="ent0010" id="entity_handle_root_discuss"><rect fill="#FFFFFF" height="52.1973" rx="2.5" ry="2.5" style="stroke:#000000;stroke-width:1;" width="263.5508" x="1751.48" y="276.9679"/><text fill="#000000" font-family="Arial" font-size="14" lengthAdjust="spacing" textLength="128.4199" x="1761.48" y="300.0997">handle_root_discuss</text><text fill="#000000" font-family="Arial" font-size="14" lengthAdjust="spacing" textLength="243.5508" x="1761.48" y="316.1983">(maestro.modules.command_handlers)</text></g><!--entity handle_root_show--><g class="entity" data-entity="handle_root_show" data-source-line="21" data-uid="ent0011" id="entity_handle_root_show"><rect fill="#FFFFFF" height="52.1973" rx="2.5" ry="2.5" style="stroke:#000000;stroke-width:1;" width="263.5508" x="854.48" y="276.9679"/><text fill="#000000" font-family="Arial" font-size="14" lengthAdjust="spacing" textLength="114.4199" x="864.48" y="300.0997">handle_root_show</text><text fill="#000000" font-family="Arial" font-size="14" lengthAdjust="spacing" textLength="243.5508" x="864.48" y="316.1983">(maestro.modules.command_handlers)</text></g><!--entity load_session--><g class="entity" data-entity="load_session" data-source-line="22" data-uid="ent0012" id="entity_load_session"><rect fill="#FFFFFF" height="52.1973" rx="2.5" ry="2.5" style="stroke:#000000;stroke-width:1;" width="177.1719" x="1064.67" y="401.6079"/><text fill="#000000" font-family="Arial" font-size="14" lengthAdjust="spacing" textLength="81.7236" x="1074.67" y="424.7397">load_session</text><text fill="#000000" font-family="Arial" font-size="14" lengthAdjust="spacing" textLength="157.1719" x="1074.67" y="440.8383">(maestro.session_model)</text></g><!--entity save_session--><g class="entity" data-entity="save_session" data-source-line="23" data-uid="ent0013" id="entity_save_session"><rect fill="#FFFFFF" height="52.1973" rx="2.5" ry="2.5" style="stroke:#000000;stroke-width:1;" width="177.1719" x="598.67" y="401.6079"/><text fill="#000000" font-family="Arial" font-size="14" lengthAdjust="spacing" textLength="84.8271" x="608.67" y="424.7397">save_session</text><text fill="#000000" font-family="Arial" font-size="14" lengthAdjust="spacing" textLength="157.1719" x="608.67" y="440.8383">(maestro.session_model)</text></g><!--entity handle_refine_root--><g class="entity" data-entity="handle_refine_root" data-source-line="24" data-uid="ent0014" id="entity_handle_refine_root"><rect fill="#FFFFFF" height="52.1973" rx="2.5" ry="2.5" style="stroke:#000000;stroke-width:1;" width="165.4893" x="1501.51" y="401.6079"/><text fill="#000000" font-family="Arial" font-size="14" lengthAdjust="spacing" textLength="116.7578" x="1511.51" y="424.7397">handle_refine_root</text><text fill="#000000" font-family="Arial" font-size="14" lengthAdjust="spacing" textLength="145.4893" x="1511.51" y="440.8383">(maestro.modules.utils)</text></g><!--entity get_engine--><g class="entity" data-entity="get_engine" data-source-line="25" data-uid="ent0015" id="entity_get_engine"><rect fill="#FFFFFF" height="52.1973" rx="2.5" ry="2.5" style="stroke:#000000;stroke-width:1;" width="132.8271" x="1517.84" y="538.7079"/><text fill="#000000" font-family="Arial" font-size="14" lengthAdjust="spacing" textLength="69.2891" x="1527.84" y="561.8397">get_engine</text><text fill="#000000" font-family="Arial" font-size="14" lengthAdjust="spacing" textLength="112.8271" x="1527.84" y="577.9383">(maestro.engines)</text></g><!--entity get_maestro_dir--><g class="entity" data-entity="get_maestro_dir" data-source-line="26" data-uid="ent0016" id="entity_get_maestro_dir"><rect fill="#FFFFFF" height="52.1973" rx="2.5" ry="2.5" style="stroke:#000000;stroke-width:1;" width="263.5508" x="1726.48" y="401.6079"/><text fill="#000000" font-family="Arial" font-size="14" lengthAdjust="spacing" textLength="101.165" x="1736.48" y="424.7397">get_maestro_dir</text><text fill="#000000" font-family="Arial" font-size="14" lengthAdjust="spacing" textLength="243.5508" x="1736.48" y="440.8383">(maestro.modules.command_handlers)</text></g><!--entity docs_sessions_dir--><g class="entity" data-entity="docs_sessions_dir" data-source-line="37" data-uid="ent0027" id="entity_docs_sessions_dir"><ellipse cx="854.2559" cy="535.2579" fill="#FFFFFF" rx="8" ry="8" style="stroke:#000000;stroke-width:1;"/><path d="M854.2559,543.2579 L854.2559,570.2579 M841.2559,551.2579 L867.2559,551.2579 M854.2559,570.2579 L841.2559,585.2579 M854.2559,570.2579 L867.2559,585.2579" fill="none" style="stroke:#000000;stroke-width:1;"/><text fill="#000000" font-family="Arial" font-size="14" lengthAdjust="spacing" textLength="115.1719" x="796.67" y="600.3897">docs_sessions_dir</text></g><!--entity session_class--><g class="entity" data-entity="session_class" data-source-line="38" data-uid="ent0029" id="entity_session_class"><ellipse cx="854.2557" cy="398.1579" fill="#FFFFFF" rx="8" ry="8" style="stroke:#000000;stroke-width:1;"/><path d="M854.2557,406.1579 L854.2557,433.1579 M841.2557,414.1579 L867.2557,414.1579 M854.2557,433.1579 L841.2557,448.1579 M854.2557,433.1579 L867.2557,448.1579" fill="none" style="stroke:#000000;stroke-width:1;"/><text fill="#000000" font-family="Arial" font-size="14" lengthAdjust="spacing" textLength="87.1514" x="810.68" y="463.2897">session_class</text></g><!--entity external_ai--><g class="entity" data-entity="external_ai" data-source-line="43" data-uid="ent0035" id="entity_external_ai"><ellipse cx="1584.2546" cy="672.3579" fill="#FFFFFF" rx="8" ry="8" style="stroke:#000000;stroke-width:1;"/><path d="M1584.2546,680.3579 L1584.2546,707.3579 M1571.2546,688.3579 L1597.2546,688.3579 M1584.2546,707.3579 L1571.2546,722.3579 M1584.2546,707.3579 L1597.2546,722.3579" fill="none" style="stroke:#000000;stroke-width:1;"/><text fill="#000000" font-family="Arial" font-size="14" lengthAdjust="spacing" textLength="68.4893" x="1550.01" y="737.4897">external_ai</text></g><!--entity conversations_dir--><g class="entity" data-entity="conversations_dir" data-source-line="45" data-uid="ent0038" id="entity_conversations_dir"><ellipse cx="1858.2618" cy="535.2579" fill="#FFFFFF" rx="8" ry="8" style="stroke:#000000;stroke-width:1;"/><path d="M1858.2618,543.2579 L1858.2618,570.2579 M1845.2618,551.2579 L1871.2618,551.2579 M1858.2618,570.2579 L1845.2618,585.2579 M1858.2618,570.2579 L1871.2618,585.2579" fill="none" style="stroke:#000000;stroke-width:1;"/><text fill="#000000" font-family="Arial" font-size="14" lengthAdjust="spacing" textLength="109.7236" x="1803.4" y="600.3897">conversations_dir</text></g><!--entity user_actor--><g class="entity" data-entity="user_actor" data-source-line="46" data-uid="ent0040" id="entity_user_actor"><ellipse cx="2058.2623" cy="398.1579" fill="#FFFFFF" rx="8" ry="8" style="stroke:#000000;stroke-width:1;"/><path d="M2058.2623,406.1579 L2058.2623,433.1579 M2045.2623,414.1579 L2071.2623,414.1579 M2058.2623,433.1579 L2045.2623,448.1579 M2058.2623,433.1579 L2071.2623,448.1579" fill="none" style="stroke:#000000;stroke-width:1;"/><text fill="#000000" font-family="Arial" font-size="14" lengthAdjust="spacing" textLength="66.1445" x="2025.19" y="463.2897">user_actor</text></g><!--link NOTE_ANCHOR to GMN3--><!--link main_entry to handle_root_set--><g class="link" data-entity-1="main_entry" data-entity-2="handle_root_set" data-source-line="27" data-uid="lnk17" id="link_main_entry_handle_root_set"><path d="M1245.75,201.0279 C1234.92,207.0579 1222.94,212.9079 1211.26,216.9679 C1052.24,272.2179 1003.39,249.7379 837.26,276.9679 C831.4,277.9279 831.3299,277.931 825.2699,278.931" fill="none" id="main_entry-to-handle_root_set" style="stroke:#333333;stroke-width:1;"/><polygon fill="#333333" points="819.35,279.9079,828.8812,282.3891,824.2833,279.0938,827.5787,274.4959,819.35,279.9079" style="stroke:#333333;stroke-width:1;"/></g><!--link main_entry to handle_root_get--><g class="link" data-entity-1="main_entry" data-entity-2="handle_root_get" data-source-line="28" data-uid="lnk18" id="link_main_entry_handle_root_get"><path d="M1285.26,201.1879 C1285.26,223.1279 1285.26,248.5779 1285.26,270.5079" fill="none" id="main_entry-to-handle_root_get" style="stroke:#333333;stroke-width:1;"/><polygon fill="#333333" points="1285.26,276.5079,1289.26,267.5079,1285.26,271.5079,1281.26,267.5079,1285.26,276.5079" style="stroke:#333333;stroke-width:1;"/></g><!--link main_entry to handle_root_refine--><g class="link" data-entity-1="main_entry" data-entity-2="handle_root_refine" data-source-line="29" data-uid="lnk19" id="link_main_entry_handle_root_refine"><path d="M1342.55,199.8279 C1394.53,221.8079 1465.3641,251.7703 1518.2941,274.1603" fill="none" id="main_entry-to-handle_root_refine" style="stroke:#333333;stroke-width:1;"/><polygon fill="#333333" points="1523.82,276.4979,1517.0895,269.3076,1519.2151,274.5499,1513.9727,276.6755,1523.82,276.4979" style="stroke:#333333;stroke-width:1;"/></g><!--link main_entry to handle_root_discuss--><g class="link" data-entity-1="main_entry" data-entity-2="handle_root_discuss" data-source-line="30" data-uid="lnk20" id="link_main_entry_handle_root_discuss"><path d="M1342.6,187.7179 C1438.77,208.0579 1628.7198,248.2366 1756.4098,275.2366" fill="none" id="main_entry-to-handle_root_discuss" style="stroke:#333333;stroke-width:1;"/><polygon fill="#333333" points="1762.28,276.4779,1754.3022,270.7025,1757.3882,275.4435,1752.6472,278.5294,1762.28,276.4779" style="stroke:#333333;stroke-width:1;"/></g><!--link main_entry to handle_root_show--><g class="link" data-entity-1="main_entry" data-entity-2="handle_root_show" data-source-line="31" data-uid="lnk21" id="link_main_entry_handle_root_show"><path d="M1241.99,201.1879 C1232.04,206.6779 1221.4,212.2479 1211.26,216.9679 C1162.7,239.5679 1111.986,258.8856 1067.806,274.5256" fill="none" id="main_entry-to-handle_root_show" style="stroke:#333333;stroke-width:1;"/><polygon fill="#333333" points="1062.15,276.5279,1071.9689,277.2951,1066.8634,274.8593,1069.2992,269.7537,1062.15,276.5279" style="stroke:#333333;stroke-width:1;"/></g><!--link handle_root_set to load_session--><g class="link" data-entity-1="handle_root_set" data-entity-2="load_session" data-source-line="32" data-uid="lnk22" id="link_handle_root_set_load_session"><path d="M784.38,329.6279 C866.94,351.3579 978.6776,380.7608 1058.7376,401.8308" fill="none" id="handle_root_set-to-load_session" style="stroke:#333333;stroke-width:1;"/><polygon fill="#333333" points="1064.54,403.3579,1056.8544,397.199,1059.7047,402.0853,1054.8183,404.9355,1064.54,403.3579" style="stroke:#333333;stroke-width:1;"/></g><!--link handle_root_get to load_session--><g class="link" data-entity-1="handle_root_get" data-entity-2="load_session" data-source-line="33" data-uid="lnk23" id="link_handle_root_get_load_session"><path d="M1257.91,329.4779 C1235.25,350.5279 1207.616,376.2043 1184.966,397.2443" fill="none" id="handle_root_get-to-load_session" style="stroke:#333333;stroke-width:1;"/><polygon fill="#333333" points="1180.57,401.3279,1189.8864,398.1332,1184.2333,397.9249,1184.4417,392.2719,1180.57,401.3279" style="stroke:#333333;stroke-width:1;"/></g><!--link handle_root_refine to load_session--><g class="link" data-entity-1="handle_root_refine" data-entity-2="load_session" data-source-line="34" data-uid="lnk24" id="link_handle_root_refine_load_session"><path d="M1494.43,329.6279 C1420.42,350.6879 1321.781,378.756 1248.001,399.746" fill="none" id="handle_root_refine-to-load_session" style="stroke:#333333;stroke-width:1;"/><polygon fill="#333333" points="1242.23,401.3879,1251.981,402.7725,1247.0392,400.0197,1249.792,395.0778,1242.23,401.3879" style="stroke:#333333;stroke-width:1;"/></g><!--link handle_root_discuss to load_session--><g class="link" data-entity-1="handle_root_discuss" data-entity-2="load_session" data-source-line="35" data-uid="lnk25" id="link_handle_root_discuss_load_session"><path d="M1751.06,326.2779 C1603.66,351.0379 1375.2471,389.4138 1248.1671,410.7638" fill="none" id="handle_root_discuss-to-load_session" style="stroke:#333333;stroke-width:1;"/><polygon fill="#333333" points="1242.25,411.7579,1251.7883,414.2114,1247.1809,410.9294,1250.4629,406.322,1242.25,411.7579" style="stroke:#333333;stroke-width:1;"/></g><!--link handle_root_show to load_session--><g class="link" data-entity-1="handle_root_show" data-entity-2="load_session" data-source-line="36" data-uid="lnk26" id="link_handle_root_show_load_session"><path d="M1020.86,329.4779 C1049.43,350.4579 1084.9444,376.5359 1113.5744,397.5659" fill="none" id="handle_root_show-to-load_session" style="stroke:#333333;stroke-width:1;"/><polygon fill="#333333" points="1118.41,401.1179,1113.5245,392.5661,1114.3803,398.1579,1108.7886,399.0136,1118.41,401.1179" style="stroke:#333333;stroke-width:1;"/></g><!--link load_session to docs_sessions_dir--><g class="link" data-entity-1="load_session" data-entity-2="docs_sessions_dir" data-source-line="37" data-uid="lnk28" id="link_load_session_docs_sessions_dir"><path d="M1096.67,454.2779 C1043.84,478.1479 970.8474,511.1266 917.6174,535.1866" fill="none" id="load_session-to-docs_sessions_dir" style="stroke:#333333;stroke-width:1;"/><polygon fill="#333333" points="912.15,537.6579,921.9987,537.5959,916.7062,535.5985,918.7036,530.306,912.15,537.6579" style="stroke:#333333;stroke-width:1;"/></g><!--link handle_root_set to session_class--><g class="link" data-entity-1="handle_root_set" data-entity-2="session_class" data-source-line="38" data-uid="lnk30" id="link_handle_root_set_session_class"><path d="M721.86,329.4779 C747.56,348.3479 777.9646,370.6756 805.6246,390.9956" fill="none" id="handle_root_set-to-session_class" style="stroke:#333333;stroke-width:1;"/><polygon fill="#333333" points="810.46,394.5479,805.575,385.9958,806.4305,391.5876,800.8387,392.4431,810.46,394.5479" style="stroke:#333333;stroke-width:1;"/></g><!--link handle_root_set to save_session--><g class="link" data-entity-1="handle_root_set" data-entity-2="save_session" data-source-line="39" data-uid="lnk31" id="link_handle_root_set_save_session"><path d="M687.26,329.4779 C687.26,350.5279 687.26,374.2879 687.26,395.3279" fill="none" id="handle_root_set-to-save_session" style="stroke:#333333;stroke-width:1;"/><polygon fill="#333333" points="687.26,401.3279,691.26,392.3279,687.26,396.3279,683.26,392.3279,687.26,401.3279" style="stroke:#333333;stroke-width:1;"/></g><!--link save_session to docs_sessions_dir--><g class="link" data-entity-1="save_session" data-entity-2="docs_sessions_dir" data-source-line="40" data-uid="lnk32" id="link_save_session_docs_sessions_dir"><path d="M718.67,454.1179 C743.71,474.3779 774.4852,499.2743 802.8552,522.2243" fill="none" id="save_session-to-docs_sessions_dir" style="stroke:#333333;stroke-width:1;"/><polygon fill="#333333" points="807.52,525.9979,803.0386,517.2276,803.6327,522.8532,798.0071,523.4473,807.52,525.9979" style="stroke:#333333;stroke-width:1;"/></g><!--link handle_root_refine to handle_refine_root--><g class="link" data-entity-1="handle_root_refine" data-entity-2="handle_refine_root" data-source-line="41" data-uid="lnk33" id="link_handle_root_refine_handle_refine_root"><path d="M1584.26,329.4779 C1584.26,350.5279 1584.26,374.2879 1584.26,395.3279" fill="none" id="handle_root_refine-to-handle_refine_root" style="stroke:#333333;stroke-width:1;"/><polygon fill="#333333" points="1584.26,401.3279,1588.26,392.3279,1584.26,396.3279,1580.26,392.3279,1584.26,401.3279" style="stroke:#333333;stroke-width:1;"/></g><!--link handle_refine_root to get_engine--><g class="link" data-entity-1="handle_refine_root" data-entity-2="get_engine" data-source-line="42" data-uid="lnk34" id="link_handle_refine_root_get_engine"><path d="M1584.26,454.1179 C1584.26,478.2779 1584.26,508.3979 1584.26,532.5179" fill="none" id="handle_refine_root-to-get_engine" style="stroke:#333333;stroke-width:1;"/><polygon fill="#333333" points="1584.26,538.5179,1588.26,529.5179,1584.26,533.5179,1580.26,529.5179,1584.26,538.5179" style="stroke:#333333;stroke-width:1;"/></g><!--link get_engine to external_ai--><g class="link" data-entity-1="get_engine" data-entity-2="external_ai" data-source-line="43" data-uid="lnk36" id="link_get_engine_external_ai"><path d="M1584.26,591.2179 C1584.26,611.4779 1584.26,634.1479 1584.26,657.0979" fill="none" id="get_engine-to-external_ai" style="stroke:#333333;stroke-width:1;"/><polygon fill="#333333" points="1584.26,663.0979,1588.26,654.0979,1584.26,658.0979,1580.26,654.0979,1584.26,663.0979" style="stroke:#333333;stroke-width:1;"/></g><!--link handle_root_discuss to get_maestro_dir--><g class="link" data-entity-1="handle_root_discuss" data-entity-2="get_maestro_dir" data-source-line="44" data-uid="lnk37" id="link_handle_root_discuss_get_maestro_dir"><path d="M1878.08,329.4779 C1873.79,350.5279 1868.9187,374.4088 1864.6287,395.4488" fill="none" id="handle_root_discuss-to-get_maestro_dir" style="stroke:#333333;stroke-width:1;"/><polygon fill="#333333" points="1863.43,401.3279,1869.1474,393.3084,1864.4289,396.4287,1861.3087,391.7102,1863.43,401.3279" style="stroke:#333333;stroke-width:1;"/></g><!--link get_maestro_dir to conversations_dir--><g class="link" data-entity-1="get_maestro_dir" data-entity-2="conversations_dir" data-source-line="45" data-uid="lnk39" id="link_get_maestro_dir_conversations_dir"><path d="M1858.26,454.1179 C1858.26,474.3779 1858.26,497.0479 1858.26,519.9979" fill="none" id="get_maestro_dir-to-conversations_dir" style="stroke:#333333;stroke-width:1;"/><polygon fill="#333333" points="1858.26,525.9979,1862.26,516.9979,1858.26,520.9979,1854.26,516.9979,1858.26,525.9979" style="stroke:#333333;stroke-width:1;"/></g><!--link handle_root_discuss to user_actor--><g class="link" data-entity-1="handle_root_discuss" data-entity-2="user_actor" data-source-line="46" data-uid="lnk41" id="link_handle_root_discuss_user_actor"><path d="M1921.2,329.6279 C1945.86,346.3579 1978.64,368.8179 2007.26,389.1579 C2012.99,393.2379 2014.2047,394.089 2020.0647,398.369" fill="none" id="handle_root_discuss-to-user_actor" style="stroke:#333333;stroke-width:1;"/><polygon fill="#333333" points="2024.91,401.9079,2020.0014,393.3694,2020.8723,398.9588,2015.2829,399.8297,2024.91,401.9079" style="stroke:#333333;stroke-width:1;"/></g><!--SRC=[dLR1Rjim3BtxAxZkqWQ8ZNR03Xqm84lTjK2Q35rlMM6e5kCObQL0afFrLtRQj-rBHijEepXEriKma8XyV2AVQDFlx1mBX8LWkGpCSouNJBC2dbZwd6bLIZvKGcbuV-qk3y5nnafXhvMqOqOC0vqpuVa7MgjL4_p1NPvph2n-KPgZRX13TxKHNKaGAh2v5GZ3kwk-Lif27zmFHrn0BYrgoGJCX5h1gNeog9V8p-1qDBawluIXuWZNfKnjhgGv2uBIOCeCmWcJwLpf4s06nfE7E1cCXpUJ-s2UKu1la9GPw3oRMr2pBGz0h_TTbJh5oruFfbEkKXEjb7wkSZ7HyYBATPGMF5fd7gQKJVZ22W7_WNry351ogF880esfPJ8ZEKuAEi84fTKlF-HfmT1OhSBAUEQAshZze3cJN61IxP0Oj7waugL0G_iM1O6I6gbDpTQAsqUP7KcPxQVKECib7iLQX-uZvhb9IsEEOcvYzoexLwlZfAL0drGenablOwXxFSB6aX0nYfh5H_eCXYtnRGm-igim9wPBiwEqqkQYLSy6xxFHILDNPjj7MXkQ-0sY7TV0INtzPdLRSS7ciO1-__DENnzmPuVTJRCTGAoRvb0ArVctSdAWhUDjPNKOKETr6DDaTXXKvRQBy1VEMxtPrWRZ9E-gPzr_gM2aI2V2RqT_yOPTl9exkd7Nv91Utst-EW_-h8TCmlAzihNxhBLsc5J99JKcivr9-smqfNJ2KgjqK0yWWRFE-HClQLv9Du6gDKsXvNcq7efHDIAhgT9iGAjmKTBqsJNHaAd3MuEfAI5g7hAe_P25YnVeiFsBRklrKt6q3Lj3R-y8hZuHue_nHoV5dr-_OOGyGmqtf81PIp9flWaWNE- -TGuHq45W9VKBoSuof6-ALu7gZumgzq-ml02pm1I8bExfD0mZkc_lletYktZyC7YudOoJKNprDRuF2mwT3gVBEbJZGcbh8k6IJbAIB-VCqgkCmfjAXgz6Nv6_]--></g></svg>