<svg xmlns="http://www.w3.org/2000/svg" xmlns:xlink="http://www.w3.org/1999/xlink" contentStyleType="text/css" data-diagram-type="DESCRIPTION" height="348px" preserveAspectRatio="none" style="width:2386px;height:348px;background:#FFFFFF;" version="1.1" viewBox="0 0 2386 348" width="2386px" zoomAndPan="magnify"><title>CMD-solutions - Combined CLI+Code (LOD2)</title><defs/><g><g class="title" data-source-line="8"><text fill="#000000" font-family="Arial" font-size="22" font-weight="bold" lengthAdjust="spacing" textLength="471.1416" x="953.1628" y="35.6357">CMD-solutions - Combined CLI+Code (LOD2)</text></g><!--cluster CLI Layer--><g class="cluster" data-entity="CLI Layer" data-source-line="20" data-uid="ent0007" id="cluster_CLI Layer"><path d="M1226.38,122.1379 L1291.1798,122.1379 A3.75,3.75 0 0 1 1293.6798,124.6379 L1300.6798,144.2365 L1634.38,144.2365 A2.5,2.5 0 0 1 1636.88,146.7365 L1636.88,338.9079 A2.5,2.5 0 0 1 1634.38,341.4079 L1226.38,341.4079 A2.5,2.5 0 0 1 1223.88,338.9079 L1223.88,124.6379 A2.5,2.5 0 0 1 1226.38,122.1379" fill="#E6F3FF" style="stroke:#000000;stroke-width:1;"/><line style="stroke:#000000;stroke-width:1;" x1="1223.88" x2="1300.6798" y1="144.2365" y2="144.2365"/><text fill="#000000" font-family="Arial" font-size="14" font-weight="bold" lengthAdjust="spacing" textLength="63.7998" x="1227.88" y="137.2697">CLI Layer</text></g><!--cluster Code Layer--><g class="cluster" data-entity="Code Layer" data-source-line="27" data-uid="ent0012" id="cluster_Code Layer"><path d="M1663.38,122.9779 L1740.628,122.9779 A3.75,3.75 0 0 1 1743.128,125.4779 L1750.128,145.0765 L2122.38,145.0765 A2.5,2.5 0 0 1 2124.88,147.5765 L2124.88,337.1879 A2.5,2.5 0 0 1 2122.38,339.6879 L1663.38,339.6879 A2.5,2.5 0 0 1 1660.88,337.1879 L1660.88,125.4779 A2.5,2.5 0 0 1 1663.38,122.9779" fill="#FFE6E6" style="stroke:#000000;stroke-width:1;"/><line style="stroke:#000000;stroke-width:1;" x1="1660.88" x2="1750.128" y1="145.0765" y2="145.0765"/><text fill="#000000" font-family="Arial" font-size="14" font-weight="bold" lengthAdjust="spacing" textLength="76.248" x="1664.88" y="138.1097">Code Layer</text></g><!--entity maestro solutions list--><g class="entity" data-entity="maestro solutions list" data-source-line="21" data-uid="ent0008" id="entity_maestro solutions list"><ellipse cx="1326.8762" cy="176.0291" fill="#FFFFFF" rx="79.7562" ry="18.3512" style="stroke:#000000;stroke-width:1;"/><text fill="#000000" font-family="Arial" font-size="14" lengthAdjust="spacing" textLength="130.7168" x="1261.5178" y="180.5784">maestro solutions list</text></g><!--entity maestro solutions add--><g class="entity" data-entity="maestro solutions add" data-source-line="22" data-uid="ent0009" id="entity_maestro solutions add"><ellipse cx="1523.8832" cy="176.0245" fill="#FFFFFF" rx="82.4332" ry="18.8866" style="stroke:#000000;stroke-width:1;"/><text fill="#000000" font-family="Arial" font-size="14" lengthAdjust="spacing" textLength="136.9648" x="1455.4008" y="180.5738">maestro solutions add</text></g><!--entity maestro solutions apply--><g class="entity" data-entity="maestro solutions apply" data-source-line="23" data-uid="ent0010" id="entity_maestro solutions apply"><ellipse cx="1326.8806" cy="305.634" fill="#FFFFFF" rx="86.8306" ry="19.7661" style="stroke:#000000;stroke-width:1;"/><text fill="#000000" font-family="Arial" font-size="14" lengthAdjust="spacing" textLength="147.0752" x="1253.343" y="310.1833">maestro solutions apply</text></g><!--entity maestro solutions show--><g class="entity" data-entity="maestro solutions show" data-source-line="24" data-uid="ent0011" id="entity_maestro solutions show"><ellipse cx="1534.876" cy="305.635" fill="#FFFFFF" rx="86.486" ry="19.6972" style="stroke:#000000;stroke-width:1;"/><text fill="#000000" font-family="Arial" font-size="14" lengthAdjust="spacing" textLength="146.2891" x="1461.7315" y="310.1844">maestro solutions show</text></g><!--entity main--><g class="entity" data-entity="main" data-source-line="28" data-uid="ent0013" id="entity_main"><rect fill="#FFFFFF" height="36.0986" rx="2.5" ry="2.5" style="stroke:#000000;stroke-width:1;" width="50.3447" x="1676.71" y="157.9779"/><text fill="#000000" font-family="Arial" font-size="14" lengthAdjust="spacing" textLength="30.3447" x="1686.71" y="181.1097">main</text></g><!--entity handle_solutions_command--><g class="entity" data-entity="handle_solutions_command" data-source-line="29" data-uid="ent0014" id="entity_handle_solutions_command"><rect fill="#FFFFFF" height="36.0986" rx="2.5" ry="2.5" style="stroke:#000000;stroke-width:1;" width="194.3369" x="1761.72" y="157.9779"/><text fill="#000000" font-family="Arial" font-size="14" lengthAdjust="spacing" textLength="174.3369" x="1771.72" y="181.1097">handle_solutions_command</text></g><!--entity _find_repo_root--><g class="entity" data-entity="_find_repo_root" data-source-line="30" data-uid="ent0015" id="entity__find_repo_root"><rect fill="#FFFFFF" height="36.0986" rx="2.5" ry="2.5" style="stroke:#000000;stroke-width:1;" width="118.0752" x="1990.85" y="157.9779"/><text fill="#000000" font-family="Arial" font-size="14" lengthAdjust="spacing" textLength="98.0752" x="2000.85" y="181.1097">_find_repo_root</text></g><!--entity _handle_list--><g class="entity" data-entity="_handle_list" data-source-line="31" data-uid="ent0016" id="entity__handle_list"><rect fill="#FFFFFF" height="36.0986" rx="2.5" ry="2.5" style="stroke:#000000;stroke-width:1;" width="94.7236" x="1676.52" y="287.5879"/><text fill="#000000" font-family="Arial" font-size="14" lengthAdjust="spacing" textLength="74.7236" x="1686.52" y="310.7197">_handle_list</text></g><!--entity _handle_show--><g class="entity" data-entity="_handle_show" data-source-line="32" data-uid="ent0017" id="entity__handle_show"><rect fill="#FFFFFF" height="36.0986" rx="2.5" ry="2.5" style="stroke:#000000;stroke-width:1;" width="110.2959" x="1806.74" y="287.5879"/><text fill="#000000" font-family="Arial" font-size="14" lengthAdjust="spacing" textLength="90.2959" x="1816.74" y="310.7197">_handle_show</text></g><!--entity NOTE_ANCHOR--><g class="entity" data-entity="N1" data-source-line="17" data-uid="ent0006" id="entity_N1"><path d="M2144.31,163.5579 L2144.31,188.5066 L2379.4672,188.5066 L2379.4672,173.5579 L2369.4672,163.5579 L2144.31,163.5579" fill="#FFFFCC" style="stroke:#CCCCCC;stroke-width:1;"/><path d="M2369.4672,163.5579 L2369.4672,173.5579 L2379.4672,173.5579 L2369.4672,163.5579" fill="#FFFFCC" style="stroke:#CCCCCC;stroke-width:1;"/><text fill="#000000" font-family="Arial" font-size="13" font-weight="bold" lengthAdjust="spacing" textLength="214.1572" x="2150.31" y="180.7517">Combined CLI + Code view (LOD2)</text></g><!--link NOTE_ANCHOR to GMN3--><!--SRC=[bLF1Rjf04BtxAwRaqXB5Lb8fX_P4ZDrG4HmHRYYoDju5hrZlMBDh4Ahw8ptrs_ebtNM168eQTUKBCs_Vl7dxU6TBKGce5PCwC2kfQqQiWXTMh9Q4ZUOnAYIuIDlJGN2nO8soAMexOOvXG9AfJdz0X9lTvO_jwJGdQCKT4XUqGyJjEKMS4-5GWPLM2OWVXbS6LMCbQWDN46Fr8hNW48z7bp5o0U_7sV3cGn0qHXJC2EWnNPH8FM069jaioGUJ-3wR1gLqu6v1k-b0SbbQmCLH1w3VVyA62l6ftuVvd6DXeWtIQg5mOwBrJIGfAYeU7QaB2oN3BQiK_2V- -JaGceFN4_nHvQLVjpAw-y8bj1klfTZirkxtErThPoLREWSyTiosmfbmaToc7zCKlZcsWqCL4yOImgknIXhR-pU4SVuMegxLzWsCAN7J2xvtnVgLzchJDBbDRbkr90hBz5ArD5BtZaibqro9_42S5rXLhdO2onTIyvn4ZJaXsjFkZcM__PdMGM_xBaeipeObMRjmwJOk_hUBpFewsYdAJKCBLWWVW5UzOSNXjF1t3iwbSszIE_ZNZvym5dmf2EwbjcOl87inWjOkDXMZ5SUDXbgGSMjwbI3ryMptFnSr-B1-XlKDUBl0KcDB_v86lZvbnwHX5EvVbajl6jBMGVrpEkeJpnsbHCMi8qgpwTrec4-JnomVPZD7whxvF7HyOJHwU1md3ybaDfYDiaa-JePVagctwMp3UVLwrSyYQoBLEf4NpdN9_KH_VMTFV2XsRVuD]--></g></svg>