<svg xmlns="http://www.w3.org/2000/svg" xmlns:xlink="http://www.w3.org/1999/xlink" contentStyleType="text/css" data-diagram-type="DESCRIPTION" height="632px" preserveAspectRatio="none" style="width:3863px;height:632px;background:#FFFFFF;" version="1.1" viewBox="0 0 3863 632" width="3863px" zoomAndPan="magnify"><title>CMD-ai - ai deep internal flow (observed) (LOD2: Code Detail)</title><defs/><g><g class="title" data-source-line="8"><text fill="#000000" font-family="Arial" font-size="22" font-weight="bold" lengthAdjust="spacing" textLength="639.2891" x="1607.6668" y="35.6357">CMD-ai - ai deep internal flow (observed) (LOD2: Code Detail)</text></g><!--entity NOTE_ANCHOR--><!--entity main_entry--><g class="entity" data-entity="main_entry" data-source-line="16" data-uid="ent0006" id="entity_main_entry"><rect fill="#E6F3FF" height="52.1973" rx="2.5" ry="2.5" style="stroke:#000000;stroke-width:1;" width="123.4824" x="3200.68" y="176.2279"/><text fill="#000000" font-family="Arial" font-size="14" lengthAdjust="spacing" textLength="69.2549" x="3210.68" y="199.3597">main_entry</text><text fill="#000000" font-family="Arial" font-size="14" lengthAdjust="spacing" textLength="103.4824" x="3210.68" y="215.4583">maestro/main.py</text></g><!--entity handle_ai_sync--><g class="entity" data-entity="handle_ai_sync" data-source-line="17" data-uid="ent0007" id="entity_handle_ai_sync"><rect fill="#E6F3FF" height="52.1973" rx="2.5" ry="2.5" style="stroke:#000000;stroke-width:1;" width="176.3926" x="1521.23" y="349.5479"/><text fill="#000000" font-family="Arial" font-size="14" lengthAdjust="spacing" textLength="97.2959" x="1531.23" y="372.6797">handle_ai_sync</text><text fill="#000000" font-family="Arial" font-size="14" lengthAdjust="spacing" textLength="156.3926" x="1531.23" y="388.7783">maestro/commands/ai.py</text></g><!--entity handle_ai_qwen--><g class="entity" data-entity="handle_ai_qwen" data-source-line="18" data-uid="ent0008" id="entity_handle_ai_qwen"><rect fill="#E6F3FF" height="52.1973" rx="2.5" ry="2.5" style="stroke:#000000;stroke-width:1;" width="176.3926" x="2963.23" y="349.5479"/><text fill="#000000" font-family="Arial" font-size="14" lengthAdjust="spacing" textLength="101.9785" x="2973.23" y="372.6797">handle_ai_qwen</text><text fill="#000000" font-family="Arial" font-size="14" lengthAdjust="spacing" textLength="156.3926" x="2973.23" y="388.7783">maestro/commands/ai.py</text></g><!--entity handle_ai_gemini--><g class="entity" data-entity="handle_ai_gemini" data-source-line="19" data-uid="ent0009" id="entity_handle_ai_gemini"><rect fill="#E6F3FF" height="52.1973" rx="2.5" ry="2.5" style="stroke:#000000;stroke-width:1;" width="176.3926" x="3174.23" y="349.5479"/><text fill="#000000" font-family="Arial" font-size="14" lengthAdjust="spacing" textLength="109.751" x="3184.23" y="372.6797">handle_ai_gemini</text><text fill="#000000" font-family="Arial" font-size="14" lengthAdjust="spacing" textLength="156.3926" x="3184.23" y="388.7783">maestro/commands/ai.py</text></g><!--entity handle_ai_codex--><g class="entity" data-entity="handle_ai_codex" data-source-line="20" data-uid="ent0010" id="entity_handle_ai_codex"><rect fill="#E6F3FF" height="52.1973" rx="2.5" ry="2.5" style="stroke:#000000;stroke-width:1;" width="176.3926" x="3385.23" y="349.5479"/><text fill="#000000" font-family="Arial" font-size="14" lengthAdjust="spacing" textLength="105.8682" x="3395.23" y="372.6797">handle_ai_codex</text><text fill="#000000" font-family="Arial" font-size="14" lengthAdjust="spacing" textLength="156.3926" x="3395.23" y="388.7783">maestro/commands/ai.py</text></g><!--entity handle_ai_claude--><g class="entity" data-entity="handle_ai_claude" data-source-line="21" data-uid="ent0011" id="entity_handle_ai_claude"><rect fill="#E6F3FF" height="52.1973" rx="2.5" ry="2.5" style="stroke:#000000;stroke-width:1;" width="176.3926" x="3596.23" y="349.5479"/><text fill="#000000" font-family="Arial" font-size="14" lengthAdjust="spacing" textLength="109.7646" x="3606.23" y="372.6797">handle_ai_claude</text><text fill="#000000" font-family="Arial" font-size="14" lengthAdjust="spacing" textLength="156.3926" x="3606.23" y="388.7783">maestro/commands/ai.py</text></g><!--entity ai_sync_watch--><g class="entity" data-entity="ai_sync_watch" data-source-line="22" data-uid="ent0012" id="entity_ai_sync_watch"><rect fill="#E6F3FF" height="52.1973" rx="2.5" ry="2.5" style="stroke:#000000;stroke-width:1;" width="176.3926" x="585.23" y="461.7479"/><text fill="#000000" font-family="Arial" font-size="14" lengthAdjust="spacing" textLength="91.8271" x="595.23" y="484.8797">ai_sync_watch</text><text fill="#000000" font-family="Arial" font-size="14" lengthAdjust="spacing" textLength="156.3926" x="595.23" y="500.9783">maestro/commands/ai.py</text></g><!--entity resolve_session--><g class="entity" data-entity="resolve_session" data-source-line="23" data-uid="ent0013" id="entity_resolve_session"><rect fill="#E6F3FF" height="52.1973" rx="2.5" ry="2.5" style="stroke:#000000;stroke-width:1;" width="176.3926" x="796.23" y="461.7479"/><text fill="#000000" font-family="Arial" font-size="14" lengthAdjust="spacing" textLength="100.3857" x="806.23" y="484.8797">resolve_session</text><text fill="#000000" font-family="Arial" font-size="14" lengthAdjust="spacing" textLength="156.3926" x="806.23" y="500.9783">maestro/commands/ai.py</text></g><!--entity load_sync_state--><g class="entity" data-entity="load_sync_state" data-source-line="24" data-uid="ent0014" id="entity_load_sync_state"><rect fill="#E6F3FF" height="52.1973" rx="2.5" ry="2.5" style="stroke:#000000;stroke-width:1;" width="170.1719" x="799.34" y="573.9379"/><text fill="#000000" font-family="Arial" font-size="14" lengthAdjust="spacing" textLength="101.1787" x="809.34" y="597.0697">load_sync_state</text><text fill="#000000" font-family="Arial" font-size="14" lengthAdjust="spacing" textLength="150.1719" x="809.34" y="613.1683">maestro/ai/task_sync.py</text></g><!--entity find_task_context--><g class="entity" data-entity="find_task_context" data-source-line="25" data-uid="ent0015" id="entity_find_task_context"><rect fill="#E6F3FF" height="52.1973" rx="2.5" ry="2.5" style="stroke:#000000;stroke-width:1;" width="170.1719" x="1007.34" y="461.7479"/><text fill="#000000" font-family="Arial" font-size="14" lengthAdjust="spacing" textLength="108.958" x="1017.34" y="484.8797">find_task_context</text><text fill="#000000" font-family="Arial" font-size="14" lengthAdjust="spacing" textLength="150.1719" x="1017.34" y="500.9783">maestro/ai/task_sync.py</text></g><!--entity build_task_queue--><g class="entity" data-entity="build_task_queue" data-source-line="26" data-uid="ent0016" id="entity_build_task_queue"><rect fill="#E6F3FF" height="52.1973" rx="2.5" ry="2.5" style="stroke:#000000;stroke-width:1;" width="170.1719" x="1212.34" y="461.7479"/><text fill="#000000" font-family="Arial" font-size="14" lengthAdjust="spacing" textLength="109.7578" x="1222.34" y="484.8797">build_task_queue</text><text fill="#000000" font-family="Arial" font-size="14" lengthAdjust="spacing" textLength="150.1719" x="1222.34" y="500.9783">maestro/ai/task_sync.py</text></g><!--entity select_next_task--><g class="entity" data-entity="select_next_task" data-source-line="27" data-uid="ent0017" id="entity_select_next_task"><rect fill="#E6F3FF" height="52.1973" rx="2.5" ry="2.5" style="stroke:#000000;stroke-width:1;" width="176.3926" x="1417.23" y="461.7479"/><text fill="#000000" font-family="Arial" font-size="14" lengthAdjust="spacing" textLength="104.2822" x="1427.23" y="484.8797">select_next_task</text><text fill="#000000" font-family="Arial" font-size="14" lengthAdjust="spacing" textLength="156.3926" x="1427.23" y="500.9783">maestro/commands/ai.py</text></g><!--entity build_task_prompt--><g class="entity" data-entity="build_task_prompt" data-source-line="28" data-uid="ent0018" id="entity_build_task_prompt"><rect fill="#E6F3FF" height="52.1973" rx="2.5" ry="2.5" style="stroke:#000000;stroke-width:1;" width="170.1719" x="1628.34" y="461.7479"/><text fill="#000000" font-family="Arial" font-size="14" lengthAdjust="spacing" textLength="114.3994" x="1638.34" y="484.8797">build_task_prompt</text><text fill="#000000" font-family="Arial" font-size="14" lengthAdjust="spacing" textLength="150.1719" x="1638.34" y="500.9783">maestro/ai/task_sync.py</text></g><!--entity save_session--><g class="entity" data-entity="save_session" data-source-line="29" data-uid="ent0019" id="entity_save_session"><rect fill="#E6F3FF" height="52.1973" rx="2.5" ry="2.5" style="stroke:#000000;stroke-width:1;" width="177.9512" x="1833.45" y="461.7479"/><text fill="#000000" font-family="Arial" font-size="14" lengthAdjust="spacing" textLength="84.8271" x="1843.45" y="484.8797">save_session</text><text fill="#000000" font-family="Arial" font-size="14" lengthAdjust="spacing" textLength="157.9512" x="1843.45" y="500.9783">maestro/work_session.py</text></g><!--entity write_sync_state--><g class="entity" data-entity="write_sync_state" data-source-line="30" data-uid="ent0020" id="entity_write_sync_state"><rect fill="#E6F3FF" height="52.1973" rx="2.5" ry="2.5" style="stroke:#000000;stroke-width:1;" width="170.1719" x="2046.34" y="461.7479"/><text fill="#000000" font-family="Arial" font-size="14" lengthAdjust="spacing" textLength="104.2686" x="2056.34" y="484.8797">write_sync_state</text><text fill="#000000" font-family="Arial" font-size="14" lengthAdjust="spacing" textLength="150.1719" x="2056.34" y="500.9783">maestro/ai/task_sync.py</text></g><!--entity write_sync_breadcrumb--><g class="entity" data-entity="write_sync_breadcrumb" data-source-line="31" data-uid="ent0021" id="entity_write_sync_breadcrumb"><rect fill="#E6F3FF" height="52.1973" rx="2.5" ry="2.5" style="stroke:#000000;stroke-width:1;" width="176.3926" x="2251.23" y="461.7479"/><text fill="#000000" font-family="Arial" font-size="14" lengthAdjust="spacing" textLength="148.6201" x="2261.23" y="484.8797">write_sync_breadcrumb</text><text fill="#000000" font-family="Arial" font-size="14" lengthAdjust="spacing" textLength="156.3926" x="2261.23" y="500.9783">maestro/commands/ai.py</text></g><!--entity create_breadcrumb--><g class="entity" data-entity="create_breadcrumb" data-source-line="32" data-uid="ent0022" id="entity_create_breadcrumb"><rect fill="#E6F3FF" height="52.1973" rx="2.5" ry="2.5" style="stroke:#000000;stroke-width:1;" width="167.8408" x="2255.5" y="573.9379"/><text fill="#000000" font-family="Arial" font-size="14" lengthAdjust="spacing" textLength="121.3994" x="2265.5" y="597.0697">create_breadcrumb</text><text fill="#000000" font-family="Arial" font-size="14" lengthAdjust="spacing" textLength="147.8408" x="2265.5" y="613.1683">maestro/breadcrumb.py</text></g><!--entity ai_engine_manager--><g class="entity" data-entity="ai_engine_manager" data-source-line="33" data-uid="ent0023" id="entity_ai_engine_manager"><rect fill="#FFFFFF" height="46.0986" rx="2.5" ry="2.5" style="stroke:#000000;stroke-width:1;" width="163.7646" x="2462.54" y="464.7879"/><rect fill="#FFFFFF" height="10" style="stroke:#000000;stroke-width:1;" width="15" x="2606.3046" y="469.7879"/><rect fill="#FFFFFF" height="2" style="stroke:#000000;stroke-width:1;" width="4" x="2604.3046" y="471.7879"/><rect fill="#FFFFFF" height="2" style="stroke:#000000;stroke-width:1;" width="4" x="2604.3046" y="475.7879"/><text fill="#000000" font-family="Arial" font-size="14" lengthAdjust="spacing" textLength="123.7646" x="2477.54" y="497.9197">ai_engine_manager</text></g><!--entity get_settings--><g class="entity" data-entity="get_settings" data-source-line="34" data-uid="ent0024" id="entity_get_settings"><rect fill="#E6F3FF" height="52.1973" rx="2.5" ry="2.5" style="stroke:#000000;stroke-width:1;" width="182.6338" x="2661.11" y="461.7479"/><text fill="#000000" font-family="Arial" font-size="14" lengthAdjust="spacing" textLength="75.4961" x="2671.11" y="484.8797">get_settings</text><text fill="#000000" font-family="Arial" font-size="14" lengthAdjust="spacing" textLength="162.6338" x="2671.11" y="500.9783">maestro/config/settings.py</text></g><!--entity run_one_shot--><g class="entity" data-entity="run_one_shot" data-source-line="35" data-uid="ent0025" id="entity_run_one_shot"><rect fill="#E6F3FF" height="52.1973" rx="2.5" ry="2.5" style="stroke:#000000;stroke-width:1;" width="155.3926" x="2878.73" y="461.7479"/><text fill="#000000" font-family="Arial" font-size="14" lengthAdjust="spacing" textLength="85.627" x="2888.73" y="484.8797">run_one_shot</text><text fill="#000000" font-family="Arial" font-size="14" lengthAdjust="spacing" textLength="135.3926" x="2888.73" y="500.9783">maestro/ai/runners.py</text></g><!--entity run_interactive_chat--><g class="entity" data-entity="run_interactive_chat" data-source-line="36" data-uid="ent0026" id="entity_run_interactive_chat"><rect fill="#E6F3FF" height="52.1973" rx="2.5" ry="2.5" style="stroke:#000000;stroke-width:1;" width="155.3926" x="3068.73" y="461.7479"/><text fill="#000000" font-family="Arial" font-size="14" lengthAdjust="spacing" textLength="126.0752" x="3078.73" y="484.8797">run_interactive_chat</text><text fill="#000000" font-family="Arial" font-size="14" lengthAdjust="spacing" textLength="135.3926" x="3078.73" y="500.9783">maestro/ai/runners.py</text></g><!--entity qwen_stdin_chat--><g class="entity" data-entity="qwen_stdin_chat" data-source-line="37" data-uid="ent0027" id="entity_qwen_stdin_chat"><rect fill="#E6F3FF" height="52.1973" rx="2.5" ry="2.5" style="stroke:#000000;stroke-width:1;" width="176.3926" x="3259.23" y="461.7479"/><text fill="#000000" font-family="Arial" font-size="14" lengthAdjust="spacing" textLength="105.0752" x="3269.23" y="484.8797">qwen_stdin_chat</text><text fill="#000000" font-family="Arial" font-size="14" lengthAdjust="spacing" textLength="156.3926" x="3269.23" y="500.9783">maestro/commands/ai.py</text></g><!--entity qwen_server--><g class="entity" data-entity="qwen_server" data-source-line="38" data-uid="ent0028" id="entity_qwen_server"><rect fill="#E6F3FF" height="52.1973" rx="2.5" ry="2.5" style="stroke:#000000;stroke-width:1;" width="176.3926" x="3470.23" y="461.7479"/><text fill="#000000" font-family="Arial" font-size="14" lengthAdjust="spacing" textLength="80.1514" x="3480.23" y="484.8797">qwen_server</text><text fill="#000000" font-family="Arial" font-size="14" lengthAdjust="spacing" textLength="156.3926" x="3480.23" y="500.9783">maestro/commands/ai.py</text></g><!--entity qwen_tui--><g class="entity" data-entity="qwen_tui" data-source-line="39" data-uid="ent0029" id="entity_qwen_tui"><rect fill="#E6F3FF" height="52.1973" rx="2.5" ry="2.5" style="stroke:#000000;stroke-width:1;" width="176.3926" x="3681.23" y="461.7479"/><text fill="#000000" font-family="Arial" font-size="14" lengthAdjust="spacing" textLength="56.041" x="3691.23" y="484.8797">qwen_tui</text><text fill="#000000" font-family="Arial" font-size="14" lengthAdjust="spacing" textLength="156.3926" x="3691.23" y="500.9783">maestro/commands/ai.py</text></g><!--entity qwen_client--><g class="entity" data-entity="qwen_client" data-source-line="40" data-uid="ent0030" id="entity_qwen_client"><rect fill="#FFFFFF" height="46.0986" rx="2.5" ry="2.5" style="stroke:#000000;stroke-width:1;" width="113.9375" x="3290.45" y="576.9879"/><rect fill="#FFFFFF" height="10" style="stroke:#000000;stroke-width:1;" width="15" x="3384.3875" y="581.9879"/><rect fill="#FFFFFF" height="2" style="stroke:#000000;stroke-width:1;" width="4" x="3382.3875" y="583.9879"/><rect fill="#FFFFFF" height="2" style="stroke:#000000;stroke-width:1;" width="4" x="3382.3875" y="587.9879"/><text fill="#000000" font-family="Arial" font-size="14" lengthAdjust="spacing" textLength="73.9375" x="3305.45" y="610.1197">qwen_client</text></g><!--entity qwen_tui_runner--><g class="entity" data-entity="qwen_tui_runner" data-source-line="41" data-uid="ent0031" id="entity_qwen_tui_runner"><rect fill="#E6F3FF" height="52.1973" rx="2.5" ry="2.5" style="stroke:#000000;stroke-width:1;" width="145.2822" x="3696.78" y="573.9379"/><text fill="#000000" font-family="Arial" font-size="14" lengthAdjust="spacing" textLength="104.2959" x="3706.78" y="597.0697">qwen_tui_runner</text><text fill="#000000" font-family="Arial" font-size="14" lengthAdjust="spacing" textLength="125.2822" x="3706.78" y="613.1683">maestro/qwen/tui.py</text></g><!--entity docs_ai_sync_json--><g class="entity" data-entity="docs_ai_sync_json" data-source-line="42" data-uid="ent0032" id="entity_docs_ai_sync_json"><path d="M1192.28,189.7779 C1192.28,179.7779 1261.4279,179.7779 1261.4279,179.7779 C1261.4279,179.7779 1330.5759,179.7779 1330.5759,189.7779 L1330.5759,214.8765 C1330.5759,224.8765 1261.4279,224.8765 1261.4279,224.8765 C1261.4279,224.8765 1192.28,224.8765 1192.28,214.8765 L1192.28,189.7779" fill="#FFE6E6" style="stroke:#000000;stroke-width:1;"/><path d="M1192.28,189.7779 C1192.28,199.7779 1261.4279,199.7779 1261.4279,199.7779 C1261.4279,199.7779 1330.5759,199.7779 1330.5759,189.7779" fill="none" style="stroke:#000000;stroke-width:1;"/><text fill="#000000" font-family="Arial" font-size="14" lengthAdjust="spacing" textLength="118.2959" x="1202.28" y="216.9097">docs_ai_sync_json</text></g><!--entity docs_sessions_json--><g class="entity" data-entity="docs_sessions_json" data-source-line="43" data-uid="ent0033" id="entity_docs_sessions_json"><path d="M1365.78,189.7779 C1365.78,179.7779 1438.4279,179.7779 1438.4279,179.7779 C1438.4279,179.7779 1511.0759,179.7779 1511.0759,189.7779 L1511.0759,214.8765 C1511.0759,224.8765 1438.4279,224.8765 1438.4279,224.8765 C1438.4279,224.8765 1365.78,224.8765 1365.78,214.8765 L1365.78,189.7779" fill="#FFE6E6" style="stroke:#000000;stroke-width:1;"/><path d="M1365.78,189.7779 C1365.78,199.7779 1438.4279,199.7779 1438.4279,199.7779 C1438.4279,199.7779 1511.0759,199.7779 1511.0759,189.7779" fill="none" style="stroke:#000000;stroke-width:1;"/><text fill="#000000" font-family="Arial" font-size="14" lengthAdjust="spacing" textLength="125.2959" x="1375.78" y="216.9097">docs_sessions_json</text></g><!--entity docs_breadcrumbs_jsonl--><g class="entity" data-entity="docs_breadcrumbs_jsonl" data-source-line="44" data-uid="ent0034" id="entity_docs_breadcrumbs_jsonl"><path d="M1173.6,363.0979 C1173.6,353.0979 1261.4203,353.0979 1261.4203,353.0979 C1261.4203,353.0979 1349.2406,353.0979 1349.2406,363.0979 L1349.2406,388.1965 C1349.2406,398.1965 1261.4203,398.1965 1261.4203,398.1965 C1261.4203,398.1965 1173.6,398.1965 1173.6,388.1965 L1173.6,363.0979" fill="#FFE6E6" style="stroke:#000000;stroke-width:1;"/><path d="M1173.6,363.0979 C1173.6,373.0979 1261.4203,373.0979 1261.4203,373.0979 C1261.4203,373.0979 1349.2406,373.0979 1349.2406,363.0979" fill="none" style="stroke:#000000;stroke-width:1;"/><text fill="#000000" font-family="Arial" font-size="14" lengthAdjust="spacing" textLength="155.6406" x="1183.6" y="390.2297">docs_breadcrumbs_jsonl</text></g><!--entity settings_json--><g class="entity" data-entity="settings_json" data-source-line="45" data-uid="ent0035" id="entity_settings_json"><path d="M1384.56,363.0979 C1384.56,353.0979 1435.4184,353.0979 1435.4184,353.0979 C1435.4184,353.0979 1486.2768,353.0979 1486.2768,363.0979 L1486.2768,388.1965 C1486.2768,398.1965 1435.4184,398.1965 1435.4184,398.1965 C1435.4184,398.1965 1384.56,398.1965 1384.56,388.1965 L1384.56,363.0979" fill="#FFE6E6" style="stroke:#000000;stroke-width:1;"/><path d="M1384.56,363.0979 C1384.56,373.0979 1435.4184,373.0979 1435.4184,373.0979 C1435.4184,373.0979 1486.2768,373.0979 1486.2768,363.0979" fill="none" style="stroke:#000000;stroke-width:1;"/><text fill="#000000" font-family="Arial" font-size="14" lengthAdjust="spacing" textLength="81.7168" x="1394.56" y="390.2297">settings_json</text></g><!--link NOTE_ANCHOR to GMN3--><!--link main_entry to handle_ai_sync--><g class="link" data-entity-1="main_entry" data-entity-2="handle_ai_sync" data-source-line="46" data-uid="lnk36" id="link_main_entry_handle_ai_sync"><path d="M3200.64,209.7279 C2948.25,235.8879 2000.768,334.0893 1704.068,364.8393" fill="none" id="main_entry-to-handle_ai_sync" style="stroke:#333333;stroke-width:1;"/><polygon fill="#333333" points="1698.1,365.4579,1707.4644,368.5087,1703.0734,364.9424,1706.6397,360.5514,1698.1,365.4579" style="stroke:#333333;stroke-width:1;"/></g><!--link main_entry to handle_ai_qwen--><g class="link" data-entity-1="main_entry" data-entity-2="handle_ai_qwen" data-source-line="47" data-uid="lnk37" id="link_main_entry_handle_ai_qwen"><path d="M3231.29,228.6079 C3191.4,260.9979 3127.2983,313.0362 3087.3383,345.4762" fill="none" id="main_entry-to-handle_ai_qwen" style="stroke:#333333;stroke-width:1;"/><polygon fill="#333333" points="3082.68,349.2579,3092.1885,346.6909,3086.5619,346.1065,3087.1463,340.4799,3082.68,349.2579" style="stroke:#333333;stroke-width:1;"/></g><!--link main_entry to handle_ai_gemini--><g class="link" data-entity-1="main_entry" data-entity-2="handle_ai_gemini" data-source-line="48" data-uid="lnk38" id="link_main_entry_handle_ai_gemini"><path d="M3262.42,228.6079 C3262.42,260.9979 3262.42,310.8179 3262.42,343.2579" fill="none" id="main_entry-to-handle_ai_gemini" style="stroke:#333333;stroke-width:1;"/><polygon fill="#333333" points="3262.42,349.2579,3266.42,340.2579,3262.42,344.2579,3258.42,340.2579,3262.42,349.2579" style="stroke:#333333;stroke-width:1;"/></g><!--link main_entry to handle_ai_codex--><g class="link" data-entity-1="main_entry" data-entity-2="handle_ai_codex" data-source-line="49" data-uid="lnk39" id="link_main_entry_handle_ai_codex"><path d="M3293.56,228.6079 C3333.45,260.9979 3397.5522,313.0357 3437.5022,345.4757" fill="none" id="main_entry-to-handle_ai_codex" style="stroke:#333333;stroke-width:1;"/><polygon fill="#333333" points="3442.16,349.2579,3437.6948,340.4794,3438.2785,346.106,3432.6519,346.6898,3442.16,349.2579" style="stroke:#333333;stroke-width:1;"/></g><!--link main_entry to handle_ai_claude--><g class="link" data-entity-1="main_entry" data-entity-2="handle_ai_claude" data-source-line="50" data-uid="lnk40" id="link_main_entry_handle_ai_claude"><path d="M3324.24,228.4179 C3403.79,260.7179 3535.7209,314.2704 3615.8509,346.8104" fill="none" id="main_entry-to-handle_ai_claude" style="stroke:#333333;stroke-width:1;"/><polygon fill="#333333" points="3621.41,349.0679,3614.5763,341.9755,3616.7774,347.1866,3611.5663,349.3877,3621.41,349.0679" style="stroke:#333333;stroke-width:1;"/></g><!--link handle_ai_sync to ai_sync_watch--><g class="link" data-entity-1="handle_ai_sync" data-entity-2="ai_sync_watch" data-source-line="51" data-uid="lnk41" id="link_handle_ai_sync_ai_sync_watch"><path d="M1520.84,398.6579 C1514.96,399.7979 1509.12,400.8379 1503.42,401.7479 C1184.1,452.4679 1097.69,410.6779 778.42,461.7479 C773.06,462.5979 773.4507,462.4481 767.9207,463.5181" fill="none" id="handle_ai_sync-to-ai_sync_watch" style="stroke:#333333;stroke-width:1;"/><polygon fill="#333333" points="762.03,464.6579,771.626,466.8753,766.939,463.708,770.1062,459.021,762.03,464.6579" style="stroke:#333333;stroke-width:1;"/></g><!--link handle_ai_sync to resolve_session--><g class="link" data-entity-1="handle_ai_sync" data-entity-2="resolve_session" data-source-line="52" data-uid="lnk42" id="link_handle_ai_sync_resolve_session"><path d="M1520.8,398.4279 C1514.94,399.6279 1509.1,400.7379 1503.42,401.7479 C1276.91,441.6379 1215.89,421.6079 989.42,461.7479 C984.07,462.6879 984.4581,462.5445 978.9381,463.6745" fill="none" id="handle_ai_sync-to-resolve_session" style="stroke:#333333;stroke-width:1;"/><polygon fill="#333333" points="973.06,464.8779,982.6794,466.9916,977.9584,463.8751,981.0749,459.1542,973.06,464.8779" style="stroke:#333333;stroke-width:1;"/></g><!--link resolve_session to load_sync_state--><g class="link" data-entity-1="resolve_session" data-entity-2="load_sync_state" data-source-line="53" data-uid="lnk43" id="link_resolve_session_load_sync_state"><path d="M884.42,514.3979 C884.42,532.2079 884.42,549.8479 884.42,567.6179" fill="none" id="resolve_session-to-load_sync_state" style="stroke:#333333;stroke-width:1;"/><polygon fill="#333333" points="884.42,573.6179,888.42,564.6179,884.42,568.6179,880.42,564.6179,884.42,573.6179" style="stroke:#333333;stroke-width:1;"/></g><!--link handle_ai_sync to find_task_context--><g class="link" data-entity-1="handle_ai_sync" data-entity-2="find_task_context" data-source-line="54" data-uid="lnk44" id="link_handle_ai_sync_find_task_context"><path d="M1520.99,397.8679 C1515.05,399.2079 1509.15,400.5079 1503.42,401.7479 C1366.66,431.1979 1331.05,431.6879 1194.42,461.7479 C1188.99,462.9379 1189.2562,462.8579 1183.6262,464.1579" fill="none" id="handle_ai_sync-to-find_task_context" style="stroke:#333333;stroke-width:1;"/><polygon fill="#333333" points="1177.78,465.5079,1187.4492,467.3804,1182.6518,464.3829,1185.6493,459.5855,1177.78,465.5079" style="stroke:#333333;stroke-width:1;"/></g><!--link handle_ai_sync to build_task_queue--><g class="link" data-entity-1="handle_ai_sync" data-entity-2="build_task_queue" data-source-line="55" data-uid="lnk45" id="link_handle_ai_sync_build_task_queue"><path d="M1537.06,402.2079 C1486.75,419.9779 1425.6076,441.5699 1375.3176,459.3299" fill="none" id="handle_ai_sync-to-build_task_queue" style="stroke:#333333;stroke-width:1;"/><polygon fill="#333333" points="1369.66,461.3279,1379.4783,462.1026,1374.3746,459.6629,1376.8144,454.5592,1369.66,461.3279" style="stroke:#333333;stroke-width:1;"/></g><!--link handle_ai_sync to select_next_task--><g class="link" data-entity-1="handle_ai_sync" data-entity-2="select_next_task" data-source-line="56" data-uid="lnk46" id="link_handle_ai_sync_select_next_task"><path d="M1585.3,402.2079 C1568.5,420.0079 1550.3094,439.2854 1533.5294,457.0554" fill="none" id="handle_ai_sync-to-select_next_task" style="stroke:#333333;stroke-width:1;"/><polygon fill="#333333" points="1529.41,461.4179,1538.4974,457.6205,1532.8428,457.7825,1532.6808,452.128,1529.41,461.4179" style="stroke:#333333;stroke-width:1;"/></g><!--link handle_ai_sync to build_task_prompt--><g class="link" data-entity-1="handle_ai_sync" data-entity-2="build_task_prompt" data-source-line="57" data-uid="lnk47" id="link_handle_ai_sync_build_task_prompt"><path d="M1633.54,402.2079 C1650.35,420.0079 1668.5419,439.2842 1685.3119,457.0542" fill="none" id="handle_ai_sync-to-build_task_prompt" style="stroke:#333333;stroke-width:1;"/><polygon fill="#333333" points="1689.43,461.4179,1686.162,452.127,1685.9983,457.7815,1680.3438,457.6178,1689.43,461.4179" style="stroke:#333333;stroke-width:1;"/></g><!--link handle_ai_sync to save_session--><g class="link" data-entity-1="handle_ai_sync" data-entity-2="save_session" data-source-line="58" data-uid="lnk48" id="link_handle_ai_sync_save_session"><path d="M1682.02,402.2079 C1732.49,419.9779 1793.8404,441.5755 1844.2904,459.3355" fill="none" id="handle_ai_sync-to-save_session" style="stroke:#333333;stroke-width:1;"/><polygon fill="#333333" points="1849.95,461.3279,1842.7889,454.5663,1845.2337,459.6676,1840.1324,462.1124,1849.95,461.3279" style="stroke:#333333;stroke-width:1;"/></g><!--link handle_ai_sync to write_sync_state--><g class="link" data-entity-1="handle_ai_sync" data-entity-2="write_sync_state" data-source-line="59" data-uid="lnk49" id="link_handle_ai_sync_write_sync_state"><path d="M1697.92,393.5879 C1782.86,410.0979 1914.69,436.3479 2028.42,461.7479 C2034.17,463.0279 2034.2468,463.0151 2040.2068,464.4051" fill="none" id="handle_ai_sync-to-write_sync_state" style="stroke:#333333;stroke-width:1;"/><polygon fill="#333333" points="2046.05,465.7679,2038.1937,459.8283,2041.1807,464.6322,2036.3767,467.6192,2046.05,465.7679" style="stroke:#333333;stroke-width:1;"/></g><!--link handle_ai_sync to write_sync_breadcrumb--><g class="link" data-entity-1="handle_ai_sync" data-entity-2="write_sync_breadcrumb" data-source-line="60" data-uid="lnk50" id="link_handle_ai_sync_write_sync_breadcrumb"><path d="M1698.1,385.9079 C1819.65,399.2479 2044.57,426.2179 2234.42,461.7479 C2239.77,462.7479 2239.3787,462.6018 2244.8887,463.7618" fill="none" id="handle_ai_sync-to-write_sync_breadcrumb" style="stroke:#333333;stroke-width:1;"/><polygon fill="#333333" points="2250.76,464.9979,2242.7771,459.2296,2245.8673,463.9678,2241.129,467.058,2250.76,464.9979" style="stroke:#333333;stroke-width:1;"/></g><!--link write_sync_breadcrumb to create_breadcrumb--><g class="link" data-entity-1="write_sync_breadcrumb" data-entity-2="create_breadcrumb" data-source-line="61" data-uid="lnk51" id="link_write_sync_breadcrumb_create_breadcrumb"><path d="M2339.42,514.3979 C2339.42,532.2079 2339.42,549.8479 2339.42,567.6179" fill="none" id="write_sync_breadcrumb-to-create_breadcrumb" style="stroke:#333333;stroke-width:1;"/><polygon fill="#333333" points="2339.42,573.6179,2343.42,564.6179,2339.42,568.6179,2335.42,564.6179,2339.42,573.6179" style="stroke:#333333;stroke-width:1;"/></g><!--link handle_ai_qwen to ai_engine_manager--><g class="link" data-entity-1="handle_ai_qwen" data-entity-2="ai_engine_manager" data-source-line="62" data-uid="lnk52" id="link_handle_ai_qwen_ai_engine_manager"><path d="M2962.84,393.9879 C2880.04,410.4679 2753.05,436.4279 2643.42,461.7479 C2637.98,462.9979 2638.2128,462.9214 2632.5728,464.2814" fill="none" id="handle_ai_qwen-to-ai_engine_manager" style="stroke:#333333;stroke-width:1;"/><polygon fill="#333333" points="2626.74,465.6879,2636.4269,467.4667,2631.6007,464.5158,2634.5516,459.6896,2626.74,465.6879" style="stroke:#333333;stroke-width:1;"/></g><!--link handle_ai_qwen to get_settings--><g class="link" data-entity-1="handle_ai_qwen" data-entity-2="get_settings" data-source-line="63" data-uid="lnk53" id="link_handle_ai_qwen_get_settings"><path d="M2982.07,402.2079 C2933.86,419.9779 2875.48,441.4934 2827.28,459.2534" fill="none" id="handle_ai_qwen-to-get_settings" style="stroke:#333333;stroke-width:1;"/><polygon fill="#333333" points="2821.65,461.3279,2831.4779,461.9695,2826.3416,459.5991,2828.712,454.4629,2821.65,461.3279" style="stroke:#333333;stroke-width:1;"/></g><!--link handle_ai_qwen to run_one_shot--><g class="link" data-entity-1="handle_ai_qwen" data-entity-2="run_one_shot" data-source-line="64" data-uid="lnk54" id="link_handle_ai_qwen_run_one_shot"><path d="M3029.39,402.2079 C3014.04,420.0079 2997.5778,439.1035 2982.2578,456.8735" fill="none" id="handle_ai_qwen-to-run_one_shot" style="stroke:#333333;stroke-width:1;"/><polygon fill="#333333" points="2978.34,461.4179,2987.2462,457.2132,2981.6048,457.6309,2981.1871,451.9895,2978.34,461.4179" style="stroke:#333333;stroke-width:1;"/></g><!--link handle_ai_qwen to run_interactive_chat--><g class="link" data-entity-1="handle_ai_qwen" data-entity-2="run_interactive_chat" data-source-line="65" data-uid="lnk55" id="link_handle_ai_qwen_run_interactive_chat"><path d="M3073.46,402.2079 C3088.8,420.0079 3105.2722,439.1035 3120.5922,456.8735" fill="none" id="handle_ai_qwen-to-run_interactive_chat" style="stroke:#333333;stroke-width:1;"/><polygon fill="#333333" points="3124.51,461.4179,3121.6629,451.9895,3121.2452,457.6309,3115.6038,457.2132,3124.51,461.4179" style="stroke:#333333;stroke-width:1;"/></g><!--link handle_ai_qwen to qwen_stdin_chat--><g class="link" data-entity-1="handle_ai_qwen" data-entity-2="qwen_stdin_chat" data-source-line="66" data-uid="lnk56" id="link_handle_ai_qwen_qwen_stdin_chat"><path d="M3120.08,402.2079 C3167.81,419.9779 3225.557,441.4747 3273.267,459.2347" fill="none" id="handle_ai_qwen-to-qwen_stdin_chat" style="stroke:#333333;stroke-width:1;"/><polygon fill="#333333" points="3278.89,461.3279,3271.8509,454.4394,3274.2041,459.5835,3269.06,461.9368,3278.89,461.3279" style="stroke:#333333;stroke-width:1;"/></g><!--link handle_ai_qwen to qwen_server--><g class="link" data-entity-1="handle_ai_qwen" data-entity-2="qwen_server" data-source-line="67" data-uid="lnk57" id="link_handle_ai_qwen_qwen_server"><path d="M3139.88,398.0279 C3145.47,399.3079 3151.02,400.5579 3156.42,401.7479 C3287.93,430.7379 3321.91,432.7479 3453.42,461.7479 C3458.82,462.9379 3458.5191,462.8586 3464.1091,464.1286" fill="none" id="handle_ai_qwen-to-qwen_server" style="stroke:#333333;stroke-width:1;"/><polygon fill="#333333" points="3469.96,465.4579,3462.0698,459.5633,3465.0843,464.3501,3460.2975,467.3645,3469.96,465.4579" style="stroke:#333333;stroke-width:1;"/></g><!--link handle_ai_qwen to qwen_tui--><g class="link" data-entity-1="handle_ai_qwen" data-entity-2="qwen_tui" data-source-line="68" data-uid="lnk58" id="link_handle_ai_qwen_qwen_tui"><path d="M3140.06,398.6079 C3145.59,399.7279 3151.07,400.7879 3156.42,401.7479 C3380.25,441.5679 3440.59,421.9179 3664.42,461.7479 C3669.77,462.6979 3669.3798,462.5648 3674.8998,463.6848" fill="none" id="handle_ai_qwen-to-qwen_tui" style="stroke:#333333;stroke-width:1;"/><polygon fill="#333333" points="3680.78,464.8779,3672.7551,459.1681,3675.8798,463.8836,3671.1643,467.0084,3680.78,464.8779" style="stroke:#333333;stroke-width:1;"/></g><!--link qwen_stdin_chat to qwen_client--><g class="link" data-entity-1="qwen_stdin_chat" data-entity-2="qwen_client" data-source-line="69" data-uid="lnk59" id="link_qwen_stdin_chat_qwen_client"><path d="M3347.42,514.3979 C3347.42,533.2179 3347.42,552.5679 3347.42,570.6079" fill="none" id="qwen_stdin_chat-to-qwen_client" style="stroke:#333333;stroke-width:1;"/><polygon fill="#333333" points="3347.42,576.6079,3351.42,567.6079,3347.42,571.6079,3343.42,567.6079,3347.42,576.6079" style="stroke:#333333;stroke-width:1;"/></g><!--link qwen_tui to qwen_tui_runner--><g class="link" data-entity-1="qwen_tui" data-entity-2="qwen_tui_runner" data-source-line="70" data-uid="lnk60" id="link_qwen_tui_qwen_tui_runner"><path d="M3769.42,514.3979 C3769.42,532.2079 3769.42,549.8479 3769.42,567.6179" fill="none" id="qwen_tui-to-qwen_tui_runner" style="stroke:#333333;stroke-width:1;"/><polygon fill="#333333" points="3769.42,573.6179,3773.42,564.6179,3769.42,568.6179,3765.42,564.6179,3769.42,573.6179" style="stroke:#333333;stroke-width:1;"/></g><!--SRC=[ZLVDRkCs4BxhATZiPJT0B3GBvB052gIEqmsGEEqsFQKBWPR6CXk9z9AKlNwLdlfiVP8EgN-Q-Z4CM-Hyyt4q7CvmVj0xo87iCyfueDuOtrD9SxAXyLigHS6JfSY49E_kxQU3I61BYqpV2wxN51bk9QDPHtuhfJXMoX_jfoDS2ms_29c0h11B-t4HFYCG5MYcCo3BfxihoiWLmPy4O4yOro0vpSWs4qVoNcmKo0Ca7yZxn-UxwqzaAH8WTw0fopu4GQ4WfWh81UNnJiWBGXLPFx-iejlrylFpbs374DsTu6WIaIpTQIAsFGaXbvT_Y4B6yEdoaho-9Y9MuL78DsE82W_N8PDXd2TXQV8YHaCM9vfdP3RowzS0U4AC3K4W8TQKf-Y3YnptBGAkvUaldbDGMehGp2ts9_j6hPoyMztSVyGzx6ZlA4yoY2YBr8d7BKCiyXn5AaGJAg8-T9pisn7uJ3837ITB8MUSpQGhmUE4ngVVP_9Px0HTHei4vl9Pi8-mScnqf3hUZRBra3ug2Kfa1uWKACN4-4uuM1zT9cXIhgWqrPqtfIpKLBrPMStdW7ryMyQJo2h6c3pWknvdF8FxE3S5oohKjmAA2IDTj8zHGOQ3YEE25ZdgHHSyOU9UYdolPzjOmhr6KjysctnIppOMql5DFagcOVOkk-W9neq4ciIoo3UZNlHg-AXZb2BIHzlErQndu8OHJTWBZidHdZxWAUCGeL4q1LcVjFviruWKD3fKQyPJrNqjlcLfM0jg8xfWxv4jU8IcH6ed-d610WwouUdYXdXi6QInPhZZyOvEyhbu7wz9qxZL2HQJFgLd6ntiC9sfpd86bSKDqkY2JNCWoBVjLXPd30SjjXpxrebAxxNB6K680dUj2jWicL1DD_QoOGf-NKIZlvNWLkzirjnrLZUh6rUpEi7AKUrD3-cs9w34PQt-cSZ3KOTlktHlfj7et3YkhdvsxWt3KkEwOMbPruVbjawFY6tP3PmxZC7qYgaFu1J8m2sO1kCKFH_DMHNpWTowvCEufMQ2fwmTNg9EHV39tHm_WMb3AF3dSOC_oyM1SnEijiJ9kXvGDw7wvDr4EIHt4vyFvoIpOOXDKeDYp0c1cnSROPLmcaJLrQeoIL1s7nbilSt7we3D2hVjXnbZ2tBuCQpReT0qHwQfC6QPvyM-mDR3dS0EerHrUX9_QYNsTqh7kJkGxc1Arxd546SyfTwx293UQ8RLLUGPrVPnsaDkxIUTvnchjiMPj8zJUhO6bI5a59kdMNfbxIBbNw_77EnscqHl0k-_V_ubZv2WVyXdZ3TL1-1prNjZnAOqFf7VpMaepqZuykS3sHOSpvt0w6JwX8rx5Orb7s_i_8aShZ7txWNHij0x9CNlw-jY4UBtuUctnzNJQlro-_Bml8uULtU_hhuiyeHu1TOHjQgXb5g5cJKwYZ6Y6TOuK4QzUfDbCzdroFy0]--></g></svg>