<svg xmlns="http://www.w3.org/2000/svg" xmlns:xlink="http://www.w3.org/1999/xlink" contentStyleType="text/css" data-diagram-type="DESCRIPTION" height="720px" preserveAspectRatio="none" style="width:2224px;height:720px;background:#FFFFFF;" version="1.1" viewBox="0 0 2224 720" width="2224px" zoomAndPan="magnify"><title>CMD-task - task deep internal flow (observed) (LOD2: Code Detail)</title><defs/><g><g class="title" data-source-line="8"><text fill="#000000" font-family="Arial" font-size="22" font-weight="bold" lengthAdjust="spacing" textLength="690.6582" x="762.3603" y="35.6357">CMD-task - task deep internal flow (observed) (LOD2: Code Detail)</text></g><!--entity NOTE_ANCHOR--><!--entity main_entry--><g class="entity" data-entity="main_entry" data-source-line="16" data-uid="ent0006" id="entity_main_entry"><rect fill="#E6F3FF" height="52.1973" rx="2.5" ry="2.5" style="stroke:#000000;stroke-width:1;" width="123.4824" x="1248.54" y="160.8979"/><text fill="#000000" font-family="Arial" font-size="14" lengthAdjust="spacing" textLength="69.2549" x="1258.54" y="184.0297">main_entry</text><text fill="#000000" font-family="Arial" font-size="14" lengthAdjust="spacing" textLength="103.4824" x="1258.54" y="200.1283">maestro/main.py</text></g><!--entity handle_task_command--><g class="entity" data-entity="handle_task_command" data-source-line="17" data-uid="ent0007" id="entity_handle_task_command"><rect fill="#E6F3FF" height="52.1973" rx="2.5" ry="2.5" style="stroke:#000000;stroke-width:1;" width="191.1719" x="1214.7" y="296.8479"/><text fill="#000000" font-family="Arial" font-size="14" lengthAdjust="spacing" textLength="144.7578" x="1224.7" y="319.9797">handle_task_command</text><text fill="#000000" font-family="Arial" font-size="14" lengthAdjust="spacing" textLength="171.1719" x="1224.7" y="336.0783">maestro/commands/task.py</text></g><!--entity list_tasks--><g class="entity" data-entity="list_tasks" data-source-line="18" data-uid="ent0008" id="entity_list_tasks"><rect fill="#E6F3FF" height="52.1973" rx="2.5" ry="2.5" style="stroke:#000000;stroke-width:1;" width="191.1719" x="423.7" y="409.0479"/><text fill="#000000" font-family="Arial" font-size="14" lengthAdjust="spacing" textLength="57.5723" x="433.7" y="432.1797">list_tasks</text><text fill="#000000" font-family="Arial" font-size="14" lengthAdjust="spacing" textLength="171.1719" x="433.7" y="448.2783">maestro/commands/task.py</text></g><!--entity show_task--><g class="entity" data-entity="show_task" data-source-line="19" data-uid="ent0009" id="entity_show_task"><rect fill="#E6F3FF" height="52.1973" rx="2.5" ry="2.5" style="stroke:#000000;stroke-width:1;" width="191.1719" x="649.7" y="409.0479"/><text fill="#000000" font-family="Arial" font-size="14" lengthAdjust="spacing" textLength="66.1445" x="659.7" y="432.1797">show_task</text><text fill="#000000" font-family="Arial" font-size="14" lengthAdjust="spacing" textLength="171.1719" x="659.7" y="448.2783">maestro/commands/task.py</text></g><!--entity add_task--><g class="entity" data-entity="add_task" data-source-line="20" data-uid="ent0010" id="entity_add_task"><rect fill="#E6F3FF" height="52.1973" rx="2.5" ry="2.5" style="stroke:#000000;stroke-width:1;" width="191.1719" x="875.7" y="409.0479"/><text fill="#000000" font-family="Arial" font-size="14" lengthAdjust="spacing" textLength="56.8203" x="885.7" y="432.1797">add_task</text><text fill="#000000" font-family="Arial" font-size="14" lengthAdjust="spacing" textLength="171.1719" x="885.7" y="448.2783">maestro/commands/task.py</text></g><!--entity remove_task--><g class="entity" data-entity="remove_task" data-source-line="21" data-uid="ent0011" id="entity_remove_task"><rect fill="#E6F3FF" height="52.1973" rx="2.5" ry="2.5" style="stroke:#000000;stroke-width:1;" width="191.1719" x="1101.7" y="409.0479"/><text fill="#000000" font-family="Arial" font-size="14" lengthAdjust="spacing" textLength="80.1445" x="1111.7" y="432.1797">remove_task</text><text fill="#000000" font-family="Arial" font-size="14" lengthAdjust="spacing" textLength="171.1719" x="1111.7" y="448.2783">maestro/commands/task.py</text></g><!--entity edit_task--><g class="entity" data-entity="edit_task" data-source-line="22" data-uid="ent0012" id="entity_edit_task"><rect fill="#E6F3FF" height="52.1973" rx="2.5" ry="2.5" style="stroke:#000000;stroke-width:1;" width="191.1719" x="1553.7" y="409.0479"/><text fill="#000000" font-family="Arial" font-size="14" lengthAdjust="spacing" textLength="56.0342" x="1563.7" y="432.1797">edit_task</text><text fill="#000000" font-family="Arial" font-size="14" lengthAdjust="spacing" textLength="171.1719" x="1563.7" y="448.2783">maestro/commands/task.py</text></g><!--entity set_task_status--><g class="entity" data-entity="set_task_status" data-source-line="23" data-uid="ent0013" id="entity_set_task_status"><rect fill="#E6F3FF" height="52.1973" rx="2.5" ry="2.5" style="stroke:#000000;stroke-width:1;" width="191.1719" x="1327.7" y="409.0479"/><text fill="#000000" font-family="Arial" font-size="14" lengthAdjust="spacing" textLength="97.2754" x="1337.7" y="432.1797">set_task_status</text><text fill="#000000" font-family="Arial" font-size="14" lengthAdjust="spacing" textLength="171.1719" x="1337.7" y="448.2783">maestro/commands/task.py</text></g><!--entity set_task_context--><g class="entity" data-entity="set_task_context" data-source-line="24" data-uid="ent0014" id="entity_set_task_context"><rect fill="#E6F3FF" height="52.1973" rx="2.5" ry="2.5" style="stroke:#000000;stroke-width:1;" width="191.1719" x="1779.7" y="409.0479"/><text fill="#000000" font-family="Arial" font-size="14" lengthAdjust="spacing" textLength="105.0615" x="1789.7" y="432.1797">set_task_context</text><text fill="#000000" font-family="Arial" font-size="14" lengthAdjust="spacing" textLength="171.1719" x="1789.7" y="448.2783">maestro/commands/task.py</text></g><!--entity handle_task_discuss--><g class="entity" data-entity="handle_task_discuss" data-source-line="25" data-uid="ent0015" id="entity_handle_task_discuss"><rect fill="#E6F3FF" height="52.1973" rx="2.5" ry="2.5" style="stroke:#000000;stroke-width:1;" width="212.1787" x="2006.2" y="409.0479"/><text fill="#000000" font-family="Arial" font-size="14" lengthAdjust="spacing" textLength="129.9717" x="2016.2" y="432.1797">handle_task_discuss</text><text fill="#000000" font-family="Arial" font-size="14" lengthAdjust="spacing" textLength="192.1787" x="2016.2" y="448.2783">maestro/commands/discuss.py</text></g><!--entity json_store--><g class="entity" data-entity="json_store" data-source-line="26" data-uid="ent0016" id="entity_json_store"><rect fill="#FFFFFF" height="46.0986" rx="2.5" ry="2.5" style="stroke:#000000;stroke-width:1;" width="104.5928" x="1144.99" y="536.7379"/><rect fill="#FFFFFF" height="10" style="stroke:#000000;stroke-width:1;" width="15" x="1229.5828" y="541.7379"/><rect fill="#FFFFFF" height="2" style="stroke:#000000;stroke-width:1;" width="4" x="1227.5828" y="543.7379"/><rect fill="#FFFFFF" height="2" style="stroke:#000000;stroke-width:1;" width="4" x="1227.5828" y="547.7379"/><text fill="#000000" font-family="Arial" font-size="14" lengthAdjust="spacing" textLength="64.5928" x="1159.99" y="569.8697">json_store</text></g><!--entity markdown_parser--><g class="entity" data-entity="markdown_parser" data-source-line="27" data-uid="ent0017" id="entity_markdown_parser"><rect fill="#FFFFFF" height="46.0986" rx="2.5" ry="2.5" style="stroke:#000000;stroke-width:1;" width="152.0479" x="1407.26" y="163.9479"/><rect fill="#FFFFFF" height="10" style="stroke:#000000;stroke-width:1;" width="15" x="1539.3079" y="168.9479"/><rect fill="#FFFFFF" height="2" style="stroke:#000000;stroke-width:1;" width="4" x="1537.3079" y="170.9479"/><rect fill="#FFFFFF" height="2" style="stroke:#000000;stroke-width:1;" width="4" x="1537.3079" y="174.9479"/><text fill="#000000" font-family="Arial" font-size="14" lengthAdjust="spacing" textLength="112.0479" x="1422.26" y="197.0797">markdown_parser</text></g><!--entity markdown_writer--><g class="entity" data-entity="markdown_writer" data-source-line="28" data-uid="ent0018" id="entity_markdown_writer"><rect fill="#FFFFFF" height="46.0986" rx="2.5" ry="2.5" style="stroke:#000000;stroke-width:1;" width="146.5859" x="1485.99" y="536.7379"/><rect fill="#FFFFFF" height="10" style="stroke:#000000;stroke-width:1;" width="15" x="1612.5759" y="541.7379"/><rect fill="#FFFFFF" height="2" style="stroke:#000000;stroke-width:1;" width="4" x="1610.5759" y="543.7379"/><rect fill="#FFFFFF" height="2" style="stroke:#000000;stroke-width:1;" width="4" x="1610.5759" y="547.7379"/><text fill="#000000" font-family="Arial" font-size="14" lengthAdjust="spacing" textLength="106.5859" x="1500.99" y="569.8697">markdown_writer</text></g><!--entity settings--><g class="entity" data-entity="settings" data-source-line="29" data-uid="ent0019" id="entity_settings"><rect fill="#FFFFFF" height="46.0986" rx="2.5" ry="2.5" style="stroke:#000000;stroke-width:1;" width="88.248" x="1831.16" y="536.7379"/><rect fill="#FFFFFF" height="10" style="stroke:#000000;stroke-width:1;" width="15" x="1899.408" y="541.7379"/><rect fill="#FFFFFF" height="2" style="stroke:#000000;stroke-width:1;" width="4" x="1897.408" y="543.7379"/><rect fill="#FFFFFF" height="2" style="stroke:#000000;stroke-width:1;" width="4" x="1897.408" y="547.7379"/><text fill="#000000" font-family="Arial" font-size="14" lengthAdjust="spacing" textLength="48.248" x="1846.16" y="569.8697">settings</text></g><!--entity render_task_table--><g class="entity" data-entity="render_task_table" data-source-line="30" data-uid="ent0020" id="entity_render_task_table"><rect fill="#E6F3FF" height="52.1973" rx="2.5" ry="2.5" style="stroke:#000000;stroke-width:1;" width="231.668" x="403.45" y="533.6879"/><text fill="#000000" font-family="Arial" font-size="14" lengthAdjust="spacing" textLength="112.0752" x="413.45" y="556.8197">render_task_table</text><text fill="#000000" font-family="Arial" font-size="14" lengthAdjust="spacing" textLength="211.668" x="413.45" y="572.9183">maestro/display/table_renderer.py</text></g><!--entity docs_phases_md--><g class="entity" data-entity="docs_phases_md" data-source-line="31" data-uid="ent0021" id="entity_docs_phases_md"><path d="M1494.42,668.3379 C1494.42,658.3379 1559.2887,658.3379 1559.2887,658.3379 C1559.2887,658.3379 1624.1573,658.3379 1624.1573,668.3379 L1624.1573,693.4365 C1624.1573,703.4365 1559.2887,703.4365 1559.2887,703.4365 C1559.2887,703.4365 1494.42,703.4365 1494.42,693.4365 L1494.42,668.3379" fill="#FFE6E6" style="stroke:#000000;stroke-width:1;"/><path d="M1494.42,668.3379 C1494.42,678.3379 1559.2887,678.3379 1559.2887,678.3379 C1559.2887,678.3379 1624.1573,678.3379 1624.1573,668.3379" fill="none" style="stroke:#000000;stroke-width:1;"/><text fill="#000000" font-family="Arial" font-size="14" lengthAdjust="spacing" textLength="109.7373" x="1504.42" y="695.4697">docs_phases_md</text></g><!--entity maestro_tasks_json--><g class="entity" data-entity="maestro_tasks_json" data-source-line="32" data-uid="ent0022" id="entity_maestro_tasks_json"><path d="M1031.03,668.3379 C1031.03,658.3379 1103.2815,658.3379 1103.2815,658.3379 C1103.2815,658.3379 1175.5329,658.3379 1175.5329,668.3379 L1175.5329,693.4365 C1175.5329,703.4365 1103.2815,703.4365 1103.2815,703.4365 C1103.2815,703.4365 1031.03,703.4365 1031.03,693.4365 L1031.03,668.3379" fill="#FFE6E6" style="stroke:#000000;stroke-width:1;"/><path d="M1031.03,668.3379 C1031.03,678.3379 1103.2815,678.3379 1103.2815,678.3379 C1103.2815,678.3379 1175.5329,678.3379 1175.5329,668.3379" fill="none" style="stroke:#000000;stroke-width:1;"/><text fill="#000000" font-family="Arial" font-size="14" lengthAdjust="spacing" textLength="124.5029" x="1041.03" y="695.4697">maestro_tasks_json</text></g><!--entity maestro_phases_json--><g class="entity" data-entity="maestro_phases_json" data-source-line="33" data-uid="ent0023" id="entity_maestro_phases_json"><path d="M1210.8,668.3379 C1210.8,658.3379 1289.2858,658.3379 1289.2858,658.3379 C1289.2858,658.3379 1367.7717,658.3379 1367.7717,668.3379 L1367.7717,693.4365 C1367.7717,703.4365 1289.2858,703.4365 1289.2858,703.4365 C1289.2858,703.4365 1210.8,703.4365 1210.8,693.4365 L1210.8,668.3379" fill="#FFE6E6" style="stroke:#000000;stroke-width:1;"/><path d="M1210.8,668.3379 C1210.8,678.3379 1289.2858,678.3379 1289.2858,678.3379 C1289.2858,678.3379 1367.7717,678.3379 1367.7717,668.3379" fill="none" style="stroke:#000000;stroke-width:1;"/><text fill="#000000" font-family="Arial" font-size="14" lengthAdjust="spacing" textLength="136.9717" x="1220.8" y="695.4697">maestro_phases_json</text></g><!--entity settings_json--><g class="entity" data-entity="settings_json" data-source-line="34" data-uid="ent0024" id="entity_settings_json"><path d="M1824.43,668.3379 C1824.43,658.3379 1875.2884,658.3379 1875.2884,658.3379 C1875.2884,658.3379 1926.1468,658.3379 1926.1468,668.3379 L1926.1468,693.4365 C1926.1468,703.4365 1875.2884,703.4365 1875.2884,703.4365 C1875.2884,703.4365 1824.43,703.4365 1824.43,693.4365 L1824.43,668.3379" fill="#FFE6E6" style="stroke:#000000;stroke-width:1;"/><path d="M1824.43,668.3379 C1824.43,678.3379 1875.2884,678.3379 1875.2884,678.3379 C1875.2884,678.3379 1926.1468,678.3379 1926.1468,668.3379" fill="none" style="stroke:#000000;stroke-width:1;"/><text fill="#000000" font-family="Arial" font-size="14" lengthAdjust="spacing" textLength="81.7168" x="1834.43" y="695.4697">settings_json</text></g><!--entity editor_actor--><g class="entity" data-entity="editor_actor" data-source-line="35" data-uid="ent0025" id="entity_editor_actor"><ellipse cx="1704.2853" cy="530.2379" fill="#FFFFFF" rx="8" ry="8" style="stroke:#000000;stroke-width:1;"/><path d="M1704.2853,538.2379 L1704.2853,565.2379 M1691.2853,546.2379 L1717.2853,546.2379 M1704.2853,565.2379 L1691.2853,580.2379 M1704.2853,565.2379 L1717.2853,580.2379" fill="none" style="stroke:#000000;stroke-width:1;"/><text fill="#000000" font-family="Arial" font-size="14" lengthAdjust="spacing" textLength="73.9307" x="1667.32" y="595.3697">editor_actor</text></g><!--link NOTE_ANCHOR to GMN3--><!--link main_entry to handle_task_command--><g class="link" data-entity-1="main_entry" data-entity-2="handle_task_command" data-source-line="36" data-uid="lnk26" id="link_main_entry_handle_task_command"><path d="M1310.28,213.5079 C1310.28,237.3479 1310.28,266.7279 1310.28,290.5279" fill="none" id="main_entry-to-handle_task_command" style="stroke:#333333;stroke-width:1;"/><polygon fill="#333333" points="1310.28,296.5279,1314.28,287.5279,1310.28,291.5279,1306.28,287.5279,1310.28,296.5279" style="stroke:#333333;stroke-width:1;"/></g><!--link handle_task_command to list_tasks--><g class="link" data-entity-1="handle_task_command" data-entity-2="list_tasks" data-source-line="37" data-uid="lnk27" id="link_handle_task_command_list_tasks"><path d="M1214.43,333.1179 C1082.7,346.3679 838.59,373.2679 632.28,409.0479 C626.74,410.0079 626.9505,409.9168 621.2205,411.0268" fill="none" id="handle_task_command-to-list_tasks" style="stroke:#333333;stroke-width:1;"/><polygon fill="#333333" points="615.33,412.1679,624.9265,414.3832,620.2387,411.2169,623.405,406.5292,615.33,412.1679" style="stroke:#333333;stroke-width:1;"/></g><!--link handle_task_command to show_task--><g class="link" data-entity-1="handle_task_command" data-entity-2="show_task" data-source-line="38" data-uid="lnk28" id="link_handle_task_command_show_task"><path d="M1214.44,341.0579 C1122.82,357.6379 980.9,383.8879 858.28,409.0479 C852.67,410.1979 852.7778,410.1455 846.9678,411.3855" fill="none" id="handle_task_command-to-show_task" style="stroke:#333333;stroke-width:1;"/><polygon fill="#333333" points="841.1,412.6379,850.7367,414.6712,845.9899,411.5942,849.0669,406.8474,841.1,412.6379" style="stroke:#333333;stroke-width:1;"/></g><!--link handle_task_command to add_task--><g class="link" data-entity-1="handle_task_command" data-entity-2="add_task" data-source-line="39" data-uid="lnk29" id="link_handle_task_command_add_task"><path d="M1231.66,349.5079 C1176.99,367.2779 1110.1261,389.0131 1055.4861,406.7731" fill="none" id="handle_task_command-to-add_task" style="stroke:#333333;stroke-width:1;"/><polygon fill="#333333" points="1049.78,408.6279,1059.5757,409.6499,1054.5351,407.0823,1057.1027,402.0417,1049.78,408.6279" style="stroke:#333333;stroke-width:1;"/></g><!--link handle_task_command to remove_task--><g class="link" data-entity-1="handle_task_command" data-entity-2="remove_task" data-source-line="40" data-uid="lnk30" id="link_handle_task_command_remove_task"><path d="M1284.08,349.5079 C1265.82,367.3079 1245.8765,386.7598 1227.6465,404.5298" fill="none" id="handle_task_command-to-remove_task" style="stroke:#333333;stroke-width:1;"/><polygon fill="#333333" points="1223.35,408.7179,1232.5868,405.3001,1226.9304,405.2278,1227.0027,399.5714,1223.35,408.7179" style="stroke:#333333;stroke-width:1;"/></g><!--link handle_task_command to edit_task--><g class="link" data-entity-1="handle_task_command" data-entity-2="edit_task" data-source-line="41" data-uid="lnk31" id="link_handle_task_command_edit_task"><path d="M1388.91,349.5079 C1443.58,367.2779 1510.4439,389.0131 1565.0839,406.7731" fill="none" id="handle_task_command-to-edit_task" style="stroke:#333333;stroke-width:1;"/><polygon fill="#333333" points="1570.79,408.6279,1563.4673,402.0417,1566.0349,407.0823,1560.9943,409.6499,1570.79,408.6279" style="stroke:#333333;stroke-width:1;"/></g><!--link handle_task_command to set_task_status--><g class="link" data-entity-1="handle_task_command" data-entity-2="set_task_status" data-source-line="42" data-uid="lnk32" id="link_handle_task_command_set_task_status"><path d="M1336.49,349.5079 C1354.75,367.3079 1374.6935,386.7598 1392.9235,404.5298" fill="none" id="handle_task_command-to-set_task_status" style="stroke:#333333;stroke-width:1;"/><polygon fill="#333333" points="1397.22,408.7179,1393.5673,399.5714,1393.6396,405.2278,1387.9832,405.3001,1397.22,408.7179" style="stroke:#333333;stroke-width:1;"/></g><!--link handle_task_command to set_task_context--><g class="link" data-entity-1="handle_task_command" data-entity-2="set_task_context" data-source-line="43" data-uid="lnk33" id="link_handle_task_command_set_task_context"><path d="M1406.13,341.0579 C1497.75,357.6379 1639.67,383.8879 1762.28,409.0479 C1767.9,410.1979 1767.7922,410.1455 1773.6022,411.3855" fill="none" id="handle_task_command-to-set_task_context" style="stroke:#333333;stroke-width:1;"/><polygon fill="#333333" points="1779.47,412.6379,1771.5031,406.8474,1774.5801,411.5942,1769.8333,414.6712,1779.47,412.6379" style="stroke:#333333;stroke-width:1;"/></g><!--link handle_task_command to handle_task_discuss--><g class="link" data-entity-1="handle_task_command" data-entity-2="handle_task_discuss" data-source-line="44" data-uid="lnk34" id="link_handle_task_command_handle_task_discuss"><path d="M1406.33,333.7079 C1538.01,347.6179 1781.8,375.2379 1988.28,409.0479 C1994.03,409.9879 1994.0033,409.9438 1999.9433,411.0038" fill="none" id="handle_task_command-to-handle_task_discuss" style="stroke:#333333;stroke-width:1;"/><polygon fill="#333333" points="2005.85,412.0579,1997.6927,406.539,2000.9278,411.1795,1996.2873,414.4146,2005.85,412.0579" style="stroke:#333333;stroke-width:1;"/></g><!--link list_tasks to render_task_table--><g class="link" data-entity-1="list_tasks" data-entity-2="render_task_table" data-source-line="45" data-uid="lnk35" id="link_list_tasks_render_task_table"><path d="M519.28,461.5579 C519.28,482.6079 519.28,506.3679 519.28,527.4079" fill="none" id="list_tasks-to-render_task_table" style="stroke:#333333;stroke-width:1;"/><polygon fill="#333333" points="519.28,533.4079,523.28,524.4079,519.28,528.4079,515.28,524.4079,519.28,533.4079" style="stroke:#333333;stroke-width:1;"/></g><!--link add_task to json_store--><g class="link" data-entity-1="add_task" data-entity-2="json_store" data-source-line="46" data-uid="lnk36" id="link_add_task_json_store"><path d="M1018.39,461.7079 C1059.01,483.7479 1111.8163,512.4063 1150.6663,533.4863" fill="none" id="add_task-to-json_store" style="stroke:#333333;stroke-width:1;"/><polygon fill="#333333" points="1155.94,536.3479,1149.9371,528.5398,1151.5453,533.9633,1146.1218,535.5714,1155.94,536.3479" style="stroke:#333333;stroke-width:1;"/></g><!--link remove_task to json_store--><g class="link" data-entity-1="remove_task" data-entity-2="json_store" data-source-line="47" data-uid="lnk37" id="link_remove_task_json_store"><path d="M1197.28,461.5579 C1197.28,483.5879 1197.28,509.1679 1197.28,530.2979" fill="none" id="remove_task-to-json_store" style="stroke:#333333;stroke-width:1;"/><polygon fill="#333333" points="1197.28,536.2979,1201.28,527.2979,1197.28,531.2979,1193.28,527.2979,1197.28,536.2979" style="stroke:#333333;stroke-width:1;"/></g><!--link set_task_status to json_store--><g class="link" data-entity-1="set_task_status" data-entity-2="json_store" data-source-line="48" data-uid="lnk38" id="link_set_task_status_json_store"><path d="M1376.18,461.7079 C1335.56,483.7479 1282.7537,512.4063 1243.9037,533.4863" fill="none" id="set_task_status-to-json_store" style="stroke:#333333;stroke-width:1;"/><polygon fill="#333333" points="1238.63,536.3479,1248.4482,535.5714,1243.0247,533.9633,1244.6329,528.5398,1238.63,536.3479" style="stroke:#333333;stroke-width:1;"/></g><!--link edit_task to markdown_writer--><g class="link" data-entity-1="edit_task" data-entity-2="markdown_writer" data-source-line="49" data-uid="lnk39" id="link_edit_task_markdown_writer"><path d="M1630.64,461.5579 C1614.47,483.5879 1594.8504,510.331 1579.3404,531.461" fill="none" id="edit_task-to-markdown_writer" style="stroke:#333333;stroke-width:1;"/><polygon fill="#333333" points="1575.79,536.2979,1584.3401,531.4095,1578.7486,532.2672,1577.891,526.6757,1575.79,536.2979" style="stroke:#333333;stroke-width:1;"/></g><!--link edit_task to editor_actor--><g class="link" data-entity-1="edit_task" data-entity-2="editor_actor" data-source-line="50" data-uid="lnk40" id="link_edit_task_editor_actor"><path d="M1660.68,461.5579 C1668.36,478.6779 1676.1653,496.083 1684.8053,515.353" fill="none" id="edit_task-to-editor_actor" style="stroke:#333333;stroke-width:1;"/><polygon fill="#333333" points="1687.26,520.8279,1687.2278,510.979,1685.2144,516.2655,1679.928,514.252,1687.26,520.8279" style="stroke:#333333;stroke-width:1;"/></g><!--link set_task_context to settings--><g class="link" data-entity-1="set_task_context" data-entity-2="settings" data-source-line="51" data-uid="lnk41" id="link_set_task_context_settings"><path d="M1875.28,461.5579 C1875.28,483.5879 1875.28,509.1679 1875.28,530.2979" fill="none" id="set_task_context-to-settings" style="stroke:#333333;stroke-width:1;"/><polygon fill="#333333" points="1875.28,536.2979,1879.28,527.2979,1875.28,531.2979,1871.28,527.2979,1875.28,536.2979" style="stroke:#333333;stroke-width:1;"/></g><!--link json_store to maestro_tasks_json--><g class="link" data-entity-1="json_store" data-entity-2="maestro_tasks_json" data-source-line="52" data-uid="lnk42" id="link_json_store_maestro_tasks_json"><path d="M1179.6,583.1879 C1162.69,604.6179 1141.0673,632.0181 1124.2873,653.2781" fill="none" id="json_store-to-maestro_tasks_json" style="stroke:#333333;stroke-width:1;"/><polygon fill="#333333" points="1120.57,657.9879,1129.2858,653.4014,1123.6677,654.0631,1123.0061,648.445,1120.57,657.9879" style="stroke:#333333;stroke-width:1;"/></g><!--link json_store to maestro_phases_json--><g class="link" data-entity-1="json_store" data-entity-2="maestro_phases_json" data-source-line="53" data-uid="lnk43" id="link_json_store_maestro_phases_json"><path d="M1214.59,583.1879 C1231.14,604.6179 1252.2825,631.9793 1268.7025,653.2393" fill="none" id="json_store-to-maestro_phases_json" style="stroke:#333333;stroke-width:1;"/><polygon fill="#333333" points="1272.37,657.9879,1270.0344,648.4199,1269.3137,654.0307,1263.703,653.31,1272.37,657.9879" style="stroke:#333333;stroke-width:1;"/></g><!--link markdown_writer to docs_phases_md--><g class="link" data-entity-1="markdown_writer" data-entity-2="docs_phases_md" data-source-line="54" data-uid="lnk44" id="link_markdown_writer_docs_phases_md"><path d="M1559.28,583.1879 C1559.28,604.6179 1559.28,630.7279 1559.28,651.9879" fill="none" id="markdown_writer-to-docs_phases_md" style="stroke:#333333;stroke-width:1;"/><polygon fill="#333333" points="1559.28,657.9879,1563.28,648.9879,1559.28,652.9879,1555.28,648.9879,1559.28,657.9879" style="stroke:#333333;stroke-width:1;"/></g><!--link settings to settings_json--><g class="link" data-entity-1="settings" data-entity-2="settings_json" data-source-line="55" data-uid="lnk45" id="link_settings_settings_json"><path d="M1875.28,583.1879 C1875.28,604.6179 1875.28,630.7279 1875.28,651.9879" fill="none" id="settings-to-settings_json" style="stroke:#333333;stroke-width:1;"/><polygon fill="#333333" points="1875.28,657.9879,1879.28,648.9879,1875.28,652.9879,1871.28,648.9879,1875.28,657.9879" style="stroke:#333333;stroke-width:1;"/></g><!--SRC=[bLR1Rjiu4BthAsRJIniW5ZO5ScY10gcjRBj8x4MJMre8Z4ZRN4kabgJiv5TwwhVjbtH8KHAbI7Lg174uy-PnEEIyp1zcome6PKwuYFIEYv8eKi03oNOR9Ij1vpAN2bvTkK-0e6nDgjnSIM6M11ak5ITvuBzKIXvyy5lt2PnBQTX7gIXJ7Z5tdo5YB0b4HOQRdC7yPd5cYDx16RWlobW9N1Yc1CbXdSi3l9OFcgazes_WzVLgSVuEvf8oM313UFucYYhDCg8Pd12HRQKw0Q9XkRfBqilb_DFgIxJbY0uD0jC2nJTR0tBTym2SdjxAIcNitUaftDzJcUdu8DNE9gBZ_NdCLPmLD6xIdcMOoko953dy1lRRjuW92ZQFA58iCqHii1Od1TvVoeHHJrz5GPWsIiRMDYkVtAawFxnABgxUubq6qLiYQCvIkrMQoQB0PKVZ3JfscNY-aOWnufnhuq3w25y77AFHMtbmtYCiBMwCX53w4eu6DaQXM27tx2Ki0NACY55kNaBJuaQhmcfVgWqnrR4A3z2_9ComgzcZUIcZXnzxMPJhhD9ZUNhFsEFohfOROqefy2N3oRzQ2ZoDLCn5TSiGL12re_8WKjGLr0BV33tRAFoWk1d2Qri8nn8OBZQwgOTRz5-CG9MhZsB8Gywwq-F9K7QVOcTEQo1JtGCQ1BOLe0JNJhMiRgJb5l_MQK5TMDza9JEvI2w26BzxtMkfhPa_uz3yYrZF_omui8z4D-NfudgMDe9aU8TrYqYLkbNR2uqX2lJixEp3c1n5On9biPtKJ49Q7Pb4D2en2GW4O1BJTlTq8lscFOxphJW976cjAD3UElF1oujQIRJkeCr2aHkuXcepS7UwPXt31kjxU_V-J7FywUl6wtRmlCD7FOK8NcuqoCRX-cqLDHlsTg-Zwn4XP-lH2I7PuqGXt8nWrpWdxF-CcvabjXEC_R_lhmTNixB2-U2v2SU0EdmmEapfDVZlOt6sM-D10MpuSzCn9gDmUjDnLszBqrlrHfd9mQgL1Lk-_x__W6j6DtWhdx1gkYdZoezviC3yRtokK3AbyMdRUkDSs5Qn7XHjjkzXVuxFlPHWL6MsWEEWXhzlLqj7UeiYWDh67v4tf2fm5ilXm37WGU8l6m2slzgDrpndsf7hacMumtyLnqSFW3_tzxDPZ3-VR_wvJcwIvTtbtUVLChrE5dybNsOesQCEL-qcr6QiZ8vpLuaqmxqvNXpJDjoNPzuQmpB_1000]--></g></svg>