<svg xmlns="http://www.w3.org/2000/svg" xmlns:xlink="http://www.w3.org/1999/xlink" contentStyleType="text/css" data-diagram-type="DESCRIPTION" height="206px" preserveAspectRatio="none" style="width:1198px;height:206px;background:#FFFFFF;" version="1.1" viewBox="0 0 1198 206" width="1198px" zoomAndPan="magnify"><title>CMD-plan - plan command surface (LOD1: CLI Flow)</title><defs/><g><g class="title" data-source-line="8"><text fill="#000000" font-family="Arial" font-size="22" font-weight="bold" lengthAdjust="spacing" textLength="546.3584" x="321.474" y="35.6357">CMD-plan - plan command surface (LOD1: CLI Flow)</text></g><!--entity NOTE_ANCHOR--><!--entity cmd_plan_entry--><g class="entity" data-entity="cmd_plan_entry" data-source-line="16" data-uid="ent0006" id="entity_cmd_plan_entry"><rect fill="#FFFFFF" height="36.0986" rx="2.5" ry="2.5" style="stroke:#000000;stroke-width:1;" width="100.9307" x="663.37" y="66.6679"/><text fill="#000000" font-family="Arial" font-size="14" lengthAdjust="spacing" textLength="80.9307" x="673.37" y="89.7997">maestro plan</text></g><!--entity subcmd_add--><g class="entity" data-entity="subcmd_add" data-source-line="17" data-uid="ent0007" id="entity_subcmd_add"><ellipse cx="355.8369" cy="186.5313" fill="#FFFFFF" rx="19.5169" ry="14.3835" style="stroke:#000000;stroke-width:1;"/><text fill="#000000" font-family="Arial" font-size="14" lengthAdjust="spacing" textLength="23.3584" x="344.1577" y="191.0806">add</text></g><!--entity subcmd_list--><g class="entity" data-entity="subcmd_list" data-source-line="18" data-uid="ent0008" id="entity_subcmd_list"><ellipse cx="426.8371" cy="186.5235" fill="#FFFFFF" rx="16.2071" ry="13.5657" style="stroke:#000000;stroke-width:1;"/><text fill="#000000" font-family="Arial" font-size="14" lengthAdjust="spacing" textLength="17.1104" x="418.2819" y="191.0729">list</text></g><!--entity subcmd_remove--><g class="entity" data-entity="subcmd_remove" data-source-line="19" data-uid="ent0009" id="entity_subcmd_remove"><ellipse cx="513.8396" cy="186.5313" fill="#FFFFFF" rx="36.0096" ry="14.3835" style="stroke:#000000;stroke-width:1;"/><text fill="#000000" font-family="Arial" font-size="14" lengthAdjust="spacing" textLength="46.6826" x="490.4983" y="191.0806">remove</text></g><!--entity subcmd_show--><g class="entity" data-entity="subcmd_show" data-source-line="20" data-uid="ent0010" id="entity_subcmd_show"><ellipse cx="610.8401" cy="186.5313" fill="#FFFFFF" rx="26.1101" ry="14.3835" style="stroke:#000000;stroke-width:1;"/><text fill="#000000" font-family="Arial" font-size="14" lengthAdjust="spacing" textLength="32.6826" x="594.4988" y="191.0806">show</text></g><!--entity subcmd_add_item--><g class="entity" data-entity="subcmd_add_item" data-source-line="21" data-uid="ent0011" id="entity_subcmd_add_item"><ellipse cx="713.8352" cy="186.5313" fill="#FFFFFF" rx="41.5152" ry="14.3835" style="stroke:#000000;stroke-width:1;"/><text fill="#000000" font-family="Arial" font-size="14" lengthAdjust="spacing" textLength="54.4688" x="686.6008" y="191.0806">add-item</text></g><!--entity subcmd_remove_item--><g class="entity" data-entity="subcmd_remove_item" data-source-line="22" data-uid="ent0012" id="entity_subcmd_remove_item"><ellipse cx="848.8379" cy="186.5313" fill="#FFFFFF" rx="58.0079" ry="14.3835" style="stroke:#000000;stroke-width:1;"/><text fill="#000000" font-family="Arial" font-size="14" lengthAdjust="spacing" textLength="77.793" x="809.9415" y="191.0806">remove-item</text></g><!--entity subcmd_ops--><g class="entity" data-entity="subcmd_ops" data-source-line="23" data-uid="ent0013" id="entity_subcmd_ops"><ellipse cx="960.841" cy="186.5313" fill="#FFFFFF" rx="18.961" ry="14.3835" style="stroke:#000000;stroke-width:1;"/><text fill="#000000" font-family="Arial" font-size="14" lengthAdjust="spacing" textLength="22.5723" x="949.5549" y="191.0806">ops</text></g><!--entity subcmd_discuss--><g class="entity" data-entity="subcmd_discuss" data-source-line="24" data-uid="ent0014" id="entity_subcmd_discuss"><ellipse cx="1050.8396" cy="186.5313" fill="#FFFFFF" rx="36.0096" ry="14.3835" style="stroke:#000000;stroke-width:1;"/><text fill="#000000" font-family="Arial" font-size="14" lengthAdjust="spacing" textLength="46.6826" x="1027.4983" y="191.0806">discuss</text></g><!--entity subcmd_explore--><g class="entity" data-entity="subcmd_explore" data-source-line="25" data-uid="ent0015" id="entity_subcmd_explore"><ellipse cx="1156.8382" cy="186.5313" fill="#FFFFFF" rx="35.4682" ry="14.3835" style="stroke:#000000;stroke-width:1;"/><text fill="#000000" font-family="Arial" font-size="14" lengthAdjust="spacing" textLength="45.917" x="1133.8797" y="191.0806">explore</text></g><!--link cmd_plan_entry to subcmd_add--><g class="link" data-entity-1="cmd_plan_entry" data-entity-2="subcmd_add" data-source-line="26" data-uid="lnk16" id="link_cmd_plan_entry_subcmd_add"><path d="M671.35,103.2579 C662.97,106.4279 654.18,109.5479 645.84,112.1379 C535.5,146.4879 503.58,139.0979 392.84,172.1379 C386.16,174.1379 384.5553,174.5708 378.2753,176.9008" fill="none" id="cmd_plan_entry-to-subcmd_add" style="stroke:#333333;stroke-width:1;"/><polygon fill="#333333" points="372.65,178.9879,382.4794,179.6074,377.3378,177.2486,379.6966,172.107,372.65,178.9879" style="stroke:#333333;stroke-width:1;"/></g><!--link cmd_plan_entry to subcmd_list--><g class="link" data-entity-1="cmd_plan_entry" data-entity-2="subcmd_list" data-source-line="27" data-uid="lnk17" id="link_cmd_plan_entry_subcmd_list"><path d="M670.08,103.1579 C662.05,106.2279 653.71,109.3379 645.84,112.1379 C563.99,141.2179 541.47,142.4679 459.84,172.1379 C453.68,174.3779 452.5073,174.7714 446.7573,177.1414" fill="none" id="cmd_plan_entry-to-subcmd_list" style="stroke:#333333;stroke-width:1;"/><polygon fill="#333333" points="441.21,179.4279,451.0552,179.6964,445.8327,177.5225,448.0066,172.3,441.21,179.4279" style="stroke:#333333;stroke-width:1;"/></g><!--link cmd_plan_entry to subcmd_remove--><g class="link" data-entity-1="cmd_plan_entry" data-entity-2="subcmd_remove" data-source-line="28" data-uid="lnk18" id="link_cmd_plan_entry_subcmd_remove"><path d="M679,103.0979 C637.7,123.7079 575.5087,154.7489 540.9987,171.9689" fill="none" id="cmd_plan_entry-to-subcmd_remove" style="stroke:#333333;stroke-width:1;"/><polygon fill="#333333" points="535.63,174.6479,545.4691,174.2086,540.1039,172.4154,541.8972,167.0503,535.63,174.6479" style="stroke:#333333;stroke-width:1;"/></g><!--link cmd_plan_entry to subcmd_show--><g class="link" data-entity-1="cmd_plan_entry" data-entity-2="subcmd_show" data-source-line="29" data-uid="lnk19" id="link_cmd_plan_entry_subcmd_show"><path d="M695.9,103.0979 C675.03,123.3179 645.4589,151.9725 627.3989,169.4725" fill="none" id="cmd_plan_entry-to-subcmd_show" style="stroke:#333333;stroke-width:1;"/><polygon fill="#333333" points="623.09,173.6479,632.3369,170.2575,626.6808,170.1684,626.7698,164.5123,623.09,173.6479" style="stroke:#333333;stroke-width:1;"/></g><!--link cmd_plan_entry to subcmd_add_item--><g class="link" data-entity-1="cmd_plan_entry" data-entity-2="subcmd_add_item" data-source-line="30" data-uid="lnk20" id="link_cmd_plan_entry_subcmd_add_item"><path d="M713.84,103.0979 C713.84,122.6479 713.84,147.9879 713.84,165.8579" fill="none" id="cmd_plan_entry-to-subcmd_add_item" style="stroke:#333333;stroke-width:1;"/><polygon fill="#333333" points="713.84,171.8579,717.84,162.8579,713.84,166.8579,709.84,162.8579,713.84,171.8579" style="stroke:#333333;stroke-width:1;"/></g><!--link cmd_plan_entry to subcmd_remove_item--><g class="link" data-entity-1="cmd_plan_entry" data-entity-2="subcmd_remove_item" data-source-line="31" data-uid="lnk21" id="link_cmd_plan_entry_subcmd_remove_item"><path d="M737.35,103.0979 C764.1,122.8779 802.3248,151.1417 826.3548,168.9017" fill="none" id="cmd_plan_entry-to-subcmd_remove_item" style="stroke:#333333;stroke-width:1;"/><polygon fill="#333333" points="831.18,172.4679,826.3197,163.9018,827.159,169.496,821.5648,170.3354,831.18,172.4679" style="stroke:#333333;stroke-width:1;"/></g><!--link cmd_plan_entry to subcmd_ops--><g class="link" data-entity-1="cmd_plan_entry" data-entity-2="subcmd_ops" data-source-line="32" data-uid="lnk22" id="link_cmd_plan_entry_subcmd_ops"><path d="M757.14,103.2179 C812.76,125.6879 901.0466,161.371 938.8066,176.621" fill="none" id="cmd_plan_entry-to-subcmd_ops" style="stroke:#333333;stroke-width:1;"/><polygon fill="#333333" points="944.37,178.8679,937.5228,171.7886,939.7338,176.9955,934.527,179.2065,944.37,178.8679" style="stroke:#333333;stroke-width:1;"/></g><!--link cmd_plan_entry to subcmd_discuss--><g class="link" data-entity-1="cmd_plan_entry" data-entity-2="subcmd_discuss" data-source-line="33" data-uid="lnk23" id="link_cmd_plan_entry_subcmd_discuss"><path d="M764.65,100.7679 C836.73,122.1179 960.447,158.7539 1017.167,175.5539" fill="none" id="cmd_plan_entry-to-subcmd_discuss" style="stroke:#333333;stroke-width:1;"/><polygon fill="#333333" points="1022.92,177.2579,1015.4266,170.8666,1018.1259,175.8379,1013.1546,178.5372,1022.92,177.2579" style="stroke:#333333;stroke-width:1;"/></g><!--link cmd_plan_entry to subcmd_explore--><g class="link" data-entity-1="cmd_plan_entry" data-entity-2="subcmd_explore" data-source-line="34" data-uid="lnk24" id="link_cmd_plan_entry_subcmd_explore"><path d="M764.58,96.3479 C839.27,112.1379 983.13,143.0379 1104.84,172.1379 C1112.27,173.9179 1114.4698,174.4305 1121.9198,176.3505" fill="none" id="cmd_plan_entry-to-subcmd_explore" style="stroke:#333333;stroke-width:1;"/><polygon fill="#333333" points="1127.73,177.8479,1120.013,171.7283,1122.8882,176.6,1118.0165,179.4752,1127.73,177.8479" style="stroke:#333333;stroke-width:1;"/></g><!--SRC=[ZLFBRjim4BppAxRk9JKW2qblEHHmbHWDaDX0sriG60oviWZp8P2KtVnzALg6ACLgoekmCoFkxe3poLUe46f9XIPkBtHDBLNmIjb-PqsZUM6aiV1v5K-Yu5ZIHlgLqNvDmmrBAwXC-AMrvjZz_3MUX5mRZz-DvMWxHH7FM75fYA0YNdY9K3pTPM5k3Hd43pDAKSt1DRQa3E7gSNDtVGl5umEif3b-8QHnoAX3c57DAcDdG1siDx_ljyjryMFparI2um3GOGgmObTvCEM00PZFVvd6ChoTp-7vcHlcygEn-pAqSldX9XSsPuhdvoaNJ8h56rKI_b_wya8mBDHEGOX5vgdUXSLdYgBpriIrunBXxsrRR55x-vRioNdaNVFQIaBPSr8udv9jtRCMbJbWof-GNk4gSqpvjXvqpeH7DMg_RR5nbtV24ppIcjgbcb3s71UEDMx0Tr2lmJzrU4I3bJg83Es3BFkMEZRDHikcwSwnQK6qx9_DJnvyrE8ZLUlLD7jsQbfnzkcK1udbnJZS7q9yT0n4MuTG7AxpBfJnueNYCAh32xyihPkGb7T86eY_]--></g></svg>