<svg xmlns="http://www.w3.org/2000/svg" xmlns:xlink="http://www.w3.org/1999/xlink" contentStyleType="text/css" data-diagram-type="DESCRIPTION" height="722px" preserveAspectRatio="none" style="width:1711px;height:722px;background:#FFFFFF;" version="1.1" viewBox="0 0 1711 722" width="1711px" zoomAndPan="magnify"><title>CMD-init - init deep internal flow (observed) (LOD1: Code Functions)</title><defs/><g><g class="title" data-source-line="8"><text fill="#000000" font-family="Arial" font-size="22" font-weight="bold" lengthAdjust="spacing" textLength="713.7646" x="494.1762" y="35.6357">CMD-init - init deep internal flow (observed) (LOD1: Code Functions)</text></g><!--entity NOTE_ANCHOR--><!--entity main_entry--><g class="entity" data-entity="main_entry" data-source-line="16" data-uid="ent0006" id="entity_main_entry"><rect fill="#FFFFFF" height="52.1973" rx="2.5" ry="2.5" style="stroke:#000000;stroke-width:1;" width="139.041" x="1184.83" y="149.6979"/><text fill="#000000" font-family="Arial" font-size="14" lengthAdjust="spacing" textLength="119.041" x="1194.83" y="172.8297">maestro.main.main</text><text fill="#000000" font-family="Arial" font-size="14" lengthAdjust="spacing" textLength="94.1309" x="1194.83" y="188.9283">(maestro.main)</text></g><!--entity create_parser--><g class="entity" data-entity="create_parser" data-source-line="17" data-uid="ent0007" id="entity_create_parser"><rect fill="#FFFFFF" height="52.1973" rx="2.5" ry="2.5" style="stroke:#000000;stroke-width:1;" width="201.2822" x="1041.71" y="278.1679"/><text fill="#000000" font-family="Arial" font-size="14" lengthAdjust="spacing" textLength="124.5098" x="1051.71" y="301.2997">create_main_parser</text><text fill="#000000" font-family="Arial" font-size="14" lengthAdjust="spacing" textLength="181.2822" x="1051.71" y="317.3983">(maestro.modules.cli_parser)</text></g><!--entity add_init_parser--><g class="entity" data-entity="add_init_parser" data-source-line="18" data-uid="ent0008" id="entity_add_init_parser"><rect fill="#FFFFFF" height="52.1973" rx="2.5" ry="2.5" style="stroke:#000000;stroke-width:1;" width="174.041" x="1055.33" y="402.8179"/><text fill="#000000" font-family="Arial" font-size="14" lengthAdjust="spacing" textLength="96.5098" x="1065.33" y="425.9497">add_init_parser</text><text fill="#000000" font-family="Arial" font-size="14" lengthAdjust="spacing" textLength="154.041" x="1065.33" y="442.0483">(maestro.commands.init)</text></g><!--entity handle_init_command--><g class="entity" data-entity="handle_init_command" data-source-line="19" data-uid="ent0009" id="entity_handle_init_command"><rect fill="#FFFFFF" height="52.1973" rx="2.5" ry="2.5" style="stroke:#000000;stroke-width:1;" width="174.041" x="1278.33" y="278.1679"/><text fill="#000000" font-family="Arial" font-size="14" lengthAdjust="spacing" textLength="136.9785" x="1288.33" y="301.2997">handle_init_command</text><text fill="#000000" font-family="Arial" font-size="14" lengthAdjust="spacing" textLength="154.041" x="1288.33" y="317.3983">(maestro.commands.init)</text></g><!--entity mkdir--><g class="entity" data-entity="mkdir" data-source-line="20" data-uid="ent0010" id="entity_mkdir"><rect fill="#FFFFFF" height="52.1973" rx="2.5" ry="2.5" style="stroke:#000000;stroke-width:1;" width="132.0547" x="1175.32" y="527.4579"/><text fill="#000000" font-family="Arial" font-size="14" lengthAdjust="spacing" textLength="112.0547" x="1185.32" y="550.5897">pathlib.Path.mkdir</text><text fill="#000000" font-family="Arial" font-size="14" lengthAdjust="spacing" textLength="50.5791" x="1185.32" y="566.6883">(pathlib)</text></g><!--entity check_exists--><g class="entity" data-entity="check_exists" data-source-line="21" data-uid="ent0011" id="entity_check_exists"><rect fill="#FFFFFF" height="52.1973" rx="2.5" ry="2.5" style="stroke:#000000;stroke-width:1;" width="133.6201" x="1342.54" y="527.4579"/><text fill="#000000" font-family="Arial" font-size="14" lengthAdjust="spacing" textLength="113.6201" x="1352.54" y="550.5897">pathlib.Path.exists</text><text fill="#000000" font-family="Arial" font-size="14" lengthAdjust="spacing" textLength="50.5791" x="1352.54" y="566.6883">(pathlib)</text></g><!--entity open_file--><g class="entity" data-entity="open_file" data-source-line="22" data-uid="ent0012" id="entity_open_file"><rect fill="#FFFFFF" height="52.1973" rx="2.5" ry="2.5" style="stroke:#000000;stroke-width:1;" width="98.6133" x="1511.04" y="527.4579"/><text fill="#000000" font-family="Arial" font-size="14" lengthAdjust="spacing" textLength="78.6133" x="1521.04" y="550.5897">builtins.open</text><text fill="#000000" font-family="Arial" font-size="14" lengthAdjust="spacing" textLength="52.9033" x="1521.04" y="566.6883">(builtins)</text></g><!--entity local_filesystem--><g class="entity" data-entity="local_filesystem" data-source-line="27" data-uid="ent0017" id="entity_local_filesystem"><ellipse cx="1409.3467" cy="648.6579" fill="#FFFFFF" rx="8" ry="8" style="stroke:#000000;stroke-width:1;"/><path d="M1409.3467,656.6579 L1409.3467,683.6579 M1396.3467,664.6579 L1422.3467,664.6579 M1409.3467,683.6579 L1396.3467,698.6579 M1409.3467,683.6579 L1422.3467,698.6579" fill="none" style="stroke:#000000;stroke-width:1;"/><text fill="#000000" font-family="Arial" font-size="14" lengthAdjust="spacing" textLength="98.8135" x="1359.94" y="713.7897">local_filesystem</text></g><!--entity force_gate_settings--><g class="entity" data-entity="force_gate_settings" data-source-line="30" data-uid="ent0021" id="entity_force_gate_settings"><ellipse cx="1476.3462" cy="399.3679" fill="#FFFFFF" rx="8" ry="8" style="stroke:#000000;stroke-width:1;"/><path d="M1476.3462,407.3679 L1476.3462,434.3679 M1463.3462,415.3679 L1489.3462,415.3679 M1476.3462,434.3679 L1463.3462,449.3679 M1476.3462,434.3679 L1489.3462,449.3679" fill="none" style="stroke:#000000;stroke-width:1;"/><text fill="#000000" font-family="Arial" font-size="14" lengthAdjust="spacing" textLength="122.1924" x="1415.25" y="464.4997">force_gate_settings</text></g><!--entity force_gate_repofules--><g class="entity" data-entity="force_gate_repofules" data-source-line="33" data-uid="ent0025" id="entity_force_gate_repofules"><ellipse cx="1638.3486" cy="399.3679" fill="#FFFFFF" rx="8" ry="8" style="stroke:#000000;stroke-width:1;"/><path d="M1638.3486,407.3679 L1638.3486,434.3679 M1625.3486,415.3679 L1651.3486,415.3679 M1638.3486,434.3679 L1625.3486,449.3679 M1638.3486,434.3679 L1651.3486,449.3679" fill="none" style="stroke:#000000;stroke-width:1;"/><text fill="#000000" font-family="Arial" font-size="14" lengthAdjust="spacing" textLength="131.5371" x="1572.58" y="464.4997">force_gate_repofules</text></g><!--link NOTE_ANCHOR to GMN3--><!--link main_entry to create_parser--><g class="link" data-entity-1="main_entry" data-entity-2="create_parser" data-source-line="23" data-uid="lnk13" id="link_main_entry_create_parser"><path d="M1231.68,202.3879 C1212.25,224.3279 1188.3778,251.2859 1168.9578,273.2159" fill="none" id="main_entry-to-create_parser" style="stroke:#333333;stroke-width:1;"/><polygon fill="#333333" points="1164.98,277.7079,1173.9413,273.6218,1168.2948,273.9646,1167.9521,268.3181,1164.98,277.7079" style="stroke:#333333;stroke-width:1;"/></g><!--link create_parser to add_init_parser--><g class="link" data-entity-1="create_parser" data-entity-2="add_init_parser" data-source-line="24" data-uid="lnk14" id="link_create_parser_add_init_parser"><path d="M1142.35,330.6779 C1142.35,351.7279 1142.35,375.4879 1142.35,396.5279" fill="none" id="create_parser-to-add_init_parser" style="stroke:#333333;stroke-width:1;"/><polygon fill="#333333" points="1142.35,402.5279,1146.35,393.5279,1142.35,397.5279,1138.35,393.5279,1142.35,402.5279" style="stroke:#333333;stroke-width:1;"/></g><!--link main_entry to handle_init_command--><g class="link" data-entity-1="main_entry" data-entity-2="handle_init_command" data-source-line="25" data-uid="lnk15" id="link_main_entry_handle_init_command"><path d="M1276.81,202.3879 C1296.07,224.3279 1319.7118,251.2686 1338.9618,273.1986" fill="none" id="main_entry-to-handle_init_command" style="stroke:#333333;stroke-width:1;"/><polygon fill="#333333" points="1342.92,277.7079,1339.9889,268.3053,1339.6215,273.9502,1333.9766,273.5828,1342.92,277.7079" style="stroke:#333333;stroke-width:1;"/></g><!--link handle_init_command to mkdir--><g class="link" data-entity-1="handle_init_command" data-entity-2="mkdir" data-source-line="26" data-uid="lnk16" id="link_handle_init_command_mkdir"><path d="M1352.55,330.7979 C1328.72,378.3079 1280.5392,474.3942 1256.7692,521.8042" fill="none" id="handle_init_command-to-mkdir" style="stroke:#333333;stroke-width:1;"/><polygon fill="#333333" points="1254.08,527.1679,1261.6895,520.9152,1256.321,522.6982,1254.538,517.3296,1254.08,527.1679" style="stroke:#333333;stroke-width:1;"/></g><!--link mkdir to local_filesystem--><g class="link" data-entity-1="mkdir" data-entity-2="local_filesystem" data-source-line="27" data-uid="lnk18" id="link_mkdir_local_filesystem"><path d="M1276.16,579.9779 C1300.28,597.5879 1327.9138,617.7602 1354.7638,637.3602" fill="none" id="mkdir-to-local_filesystem" style="stroke:#333333;stroke-width:1;"/><polygon fill="#333333" points="1359.61,640.8979,1354.6992,632.3607,1355.5715,637.9498,1349.9823,638.8222,1359.61,640.8979" style="stroke:#333333;stroke-width:1;"/></g><!--link handle_init_command to check_exists--><g class="link" data-entity-1="handle_init_command" data-entity-2="check_exists" data-source-line="28" data-uid="lnk19" id="link_handle_init_command_check_exists"><path d="M1369.89,330.7979 C1378.34,378.3079 1395.3496,473.8505 1403.7796,521.2605" fill="none" id="handle_init_command-to-check_exists" style="stroke:#333333;stroke-width:1;"/><polygon fill="#333333" points="1404.83,527.1679,1407.1926,517.6066,1403.9547,522.2451,1399.3162,519.0071,1404.83,527.1679" style="stroke:#333333;stroke-width:1;"/></g><!--link check_exists to local_filesystem--><g class="link" data-entity-1="check_exists" data-entity-2="local_filesystem" data-source-line="29" data-uid="lnk20" id="link_check_exists_local_filesystem"><path d="M1409.35,579.9779 C1409.35,597.0979 1409.35,613.9779 1409.35,633.2479" fill="none" id="check_exists-to-local_filesystem" style="stroke:#333333;stroke-width:1;"/><polygon fill="#333333" points="1409.35,639.2479,1413.35,630.2479,1409.35,634.2479,1405.35,630.2479,1409.35,639.2479" style="stroke:#333333;stroke-width:1;"/></g><!--link handle_init_command to force_gate_settings--><g class="link" data-entity-1="handle_init_command" data-entity-2="force_gate_settings" data-source-line="30" data-uid="lnk22" id="link_handle_init_command_force_gate_settings"><path d="M1388.35,330.6779 C1403.84,347.7979 1420.5227,366.2403 1437.9627,385.5003" fill="none" id="handle_init_command-to-force_gate_settings" style="stroke:#333333;stroke-width:1;"/><polygon fill="#333333" points="1441.99,389.9479,1438.9141,380.5916,1438.6339,386.2415,1432.984,385.9614,1441.99,389.9479" style="stroke:#333333;stroke-width:1;"/></g><!--link force_gate_settings to open_file--><g class="link" data-entity-1="force_gate_settings" data-entity-2="open_file" data-source-line="31" data-uid="lnk23" id="link_force_gate_settings_open_file"><path d="M1502.24,467.7079 C1515.44,486.9979 1527.7715,504.9863 1539.5215,522.1563" fill="none" id="force_gate_settings-to-open_file" style="stroke:#333333;stroke-width:1;"/><polygon fill="#333333" points="1542.91,527.1079,1541.1283,517.4215,1540.0862,522.9816,1534.5262,521.9395,1542.91,527.1079" style="stroke:#333333;stroke-width:1;"/></g><!--link open_file to local_filesystem--><g class="link" data-entity-1="open_file" data-entity-2="local_filesystem" data-source-line="32" data-uid="lnk24" id="link_open_file_local_filesystem"><path d="M1529.06,579.9779 C1507.98,597.0979 1484.4677,616.1956 1460.7377,635.4656" fill="none" id="open_file-to-local_filesystem" style="stroke:#333333;stroke-width:1;"/><polygon fill="#333333" points="1456.08,639.2479,1465.5881,636.6795,1459.9614,636.0959,1460.545,630.4693,1456.08,639.2479" style="stroke:#333333;stroke-width:1;"/></g><!--link handle_init_command to force_gate_repofules--><g class="link" data-entity-1="handle_init_command" data-entity-2="force_gate_repofules" data-source-line="33" data-uid="lnk26" id="link_handle_init_command_force_gate_repofules"><path d="M1422.32,330.7179 C1460.08,347.5979 1510.69,370.2579 1555.35,390.3679 C1560.83,392.8279 1561.0439,392.9137 1566.7439,395.4937" fill="none" id="handle_init_command-to-force_gate_repofules" style="stroke:#333333;stroke-width:1;"/><polygon fill="#333333" points="1572.21,397.9679,1565.6602,390.6125,1567.6549,395.9061,1562.3614,397.9007,1572.21,397.9679" style="stroke:#333333;stroke-width:1;"/></g><!--link force_gate_repofules to open_file--><g class="link" data-entity-1="force_gate_repofules" data-entity-2="open_file" data-source-line="34" data-uid="lnk27" id="link_force_gate_repofules_open_file"><path d="M1614.31,467.7079 C1602.04,486.9979 1590.6678,504.8737 1579.7578,522.0437" fill="none" id="force_gate_repofules-to-open_file" style="stroke:#333333;stroke-width:1;"/><polygon fill="#333333" points="1576.54,527.1079,1584.7428,521.6568,1579.2215,522.8877,1577.9906,517.3664,1576.54,527.1079" style="stroke:#333333;stroke-width:1;"/></g><!--SRC=[dLHBRjim4Dth5DDqanYmXAP05YbGmBML9eK_GPAT6mWqERO8KwH0KdPzbQvwjfwa92KdigCKI0H196VcFGqVEVF1vbWWb89m6ParboNHf805eUkLLfLaGoMKXezNuMb5C5oIIjWh9UsKE8Q1vaIq_0EjrRO1VmvFopbL5hyfpL0t4SFm74Tq9U6Y8ikjG1XEHdqkkOK-X84XbcvcKKiYO2dK5axLmg3U83k3q_5izEaIXeeXN5MIMgwaEOkYoY0b1k64I9ehVGB4m7Jsa6Q3wV1wTXVbt07Q1kao0yrNkGMrFF00z7htgj8KBtizcC-PeYRPAhtskPXaSvvmdT229VlCO-goYNUa4F26sCV722K3dqSKQQIMo9MJuwGWQAnMSU6ECdn-ojEsxIpipSyob5RlsbYgaLZCWjCTW1Ej3LQi4cXYAdZZhAaQK6rgin76Cf_pIoggYe98PcBlhbcEWjiykGiLM7iRvF-vEW1jlfBONF15VEl6k5WpxbDhZ8qwtlWg17znOyqnXkP8rrdjQqCN5HUMInEh4lrPxDSroXkp9HSOFPy8zFjVZrGzM0N_iLv7y2u9EcmXjjvj-8QrK9I8a9JP6Ol5gy23BRSNRwDPAbShsSflqA1rsgnCr64BiSzwFStU_JEDfLhwAnrr6Oz-LnUym6LdlQSRrnzag7Y_VbdrIQuAJCn2g6I4csHINzwakSJ9_X8deSRB7JIZA_Btq8NQTopD-5wMkk2JvuBtd0UhWoRqQalqBJkzI2-2L7z__u4nifMxnzUkJPkzPBEcHyE8M38XUitKLaA9shWRvRLrce1hXTbpb_Ux-0ARS_271bPNDWVNo0tyk9zD7Qbxv_CuJjnxCxaTfvDq-Z1uk9bDit4w-fxUnGM3JaSGR0_rvDgQH8IaC-hEYJDtLOo7DpiPFXdRYlm3]--></g></svg>