<svg xmlns="http://www.w3.org/2000/svg" xmlns:xlink="http://www.w3.org/1999/xlink" contentStyleType="text/css" data-diagram-type="DESCRIPTION" height="722px" preserveAspectRatio="none" style="width:3709px;height:722px;background:#FFFFFF;" version="1.1" viewBox="0 0 3709 722" width="3709px" zoomAndPan="magnify"><title>CMD-understand - understand deep internal flow (observed) (LOD2: Code Detail)</title><defs/><g><g class="title" data-source-line="8"><text fill="#000000" font-family="Arial" font-size="22" font-weight="bold" lengthAdjust="spacing" textLength="842.166" x="1428.9203" y="35.6357">CMD-understand - understand deep internal flow (observed) (LOD2: Code Detail)</text></g><!--entity NOTE_ANCHOR--><!--entity main_entry--><g class="entity" data-entity="main_entry" data-source-line="16" data-uid="ent0006" id="entity_main_entry"><rect fill="#E6F3FF" height="52.1973" rx="2.5" ry="2.5" style="stroke:#000000;stroke-width:1;" width="123.4824" x="1327.15" y="150.0479"/><text fill="#000000" font-family="Arial" font-size="14" lengthAdjust="spacing" textLength="69.2549" x="1337.15" y="173.1797">main_entry</text><text fill="#000000" font-family="Arial" font-size="14" lengthAdjust="spacing" textLength="103.4824" x="1337.15" y="189.2783">maestro/main.py</text></g><!--entity add_understand_parser--><g class="entity" data-entity="add_understand_parser" data-source-line="17" data-uid="ent0007" id="entity_add_understand_parser"><rect fill="#E6F3FF" height="52.1973" rx="2.5" ry="2.5" style="stroke:#000000;stroke-width:1;" width="257.3369" x="1169.22" y="278.5179"/><text fill="#000000" font-family="Arial" font-size="14" lengthAdjust="spacing" textLength="148.668" x="1179.22" y="301.6497">add_understand_parser</text><text fill="#000000" font-family="Arial" font-size="14" lengthAdjust="spacing" textLength="200.7646" x="1179.22" y="317.7483">maestro/commands/understand/</text><text fill="#000000" font-family="Arial" font-size="14" lengthAdjust="spacing" text-decoration="underline" textLength="17.8965" x="1379.9846" y="317.7483">init</text><text fill="#000000" font-family="Arial" font-size="14" lengthAdjust="spacing" textLength="18.6758" x="1397.8811" y="317.7483">.py</text></g><!--entity handle_understand_dump--><g class="entity" data-entity="handle_understand_dump" data-source-line="18" data-uid="ent0008" id="entity_handle_understand_dump"><rect fill="#E6F3FF" height="52.1973" rx="2.5" ry="2.5" style="stroke:#000000;stroke-width:1;" width="228.5508" x="1274.61" y="390.7179"/><text fill="#000000" font-family="Arial" font-size="14" lengthAdjust="spacing" textLength="162.6885" x="1284.61" y="413.8497">handle_understand_dump</text><text fill="#000000" font-family="Arial" font-size="14" lengthAdjust="spacing" textLength="208.5508" x="1284.61" y="429.9483">maestro/understand/command.py</text></g><!--entity project_introspector_class--><g class="entity" data-entity="project_introspector_class" data-source-line="19" data-uid="ent0009" id="entity_project_introspector_class"><rect fill="#FFFFFF" height="46.0986" rx="2.5" ry="2.5" style="stroke:#000000;stroke-width:1;" width="202.6338" x="969.57" y="518.4079"/><rect fill="#FFFFFF" height="10" style="stroke:#000000;stroke-width:1;" width="15" x="1152.2038" y="523.4079"/><rect fill="#FFFFFF" height="2" style="stroke:#000000;stroke-width:1;" width="4" x="1150.2038" y="525.4079"/><rect fill="#FFFFFF" height="2" style="stroke:#000000;stroke-width:1;" width="4" x="1150.2038" y="529.4079"/><text fill="#000000" font-family="Arial" font-size="14" lengthAdjust="spacing" textLength="162.6338" x="984.57" y="551.5397">project_introspector_class</text></g><!--entity gather_all--><g class="entity" data-entity="gather_all" data-source-line="20" data-uid="ent0010" id="entity_gather_all"><rect fill="#E6F3FF" height="52.1973" rx="2.5" ry="2.5" style="stroke:#000000;stroke-width:1;" width="240.2266" x="2499.78" y="278.5179"/><text fill="#000000" font-family="Arial" font-size="14" lengthAdjust="spacing" textLength="61.4893" x="2509.78" y="301.6497">gather_all</text><text fill="#000000" font-family="Arial" font-size="14" lengthAdjust="spacing" textLength="220.2266" x="2509.78" y="317.7483">maestro/understand/introspector.py</text></g><!--entity gather_identity--><g class="entity" data-entity="gather_identity" data-source-line="21" data-uid="ent0011" id="entity_gather_identity"><rect fill="#E6F3FF" height="52.1973" rx="2.5" ry="2.5" style="stroke:#000000;stroke-width:1;" width="240.2266" x="1537.78" y="390.7179"/><text fill="#000000" font-family="Arial" font-size="14" lengthAdjust="spacing" textLength="91.8408" x="1547.78" y="413.8497">gather_identity</text><text fill="#000000" font-family="Arial" font-size="14" lengthAdjust="spacing" textLength="220.2266" x="1547.78" y="429.9483">maestro/understand/introspector.py</text></g><!--entity gather_authority_model--><g class="entity" data-entity="gather_authority_model" data-source-line="22" data-uid="ent0012" id="entity_gather_authority_model"><rect fill="#E6F3FF" height="52.1973" rx="2.5" ry="2.5" style="stroke:#000000;stroke-width:1;" width="240.2266" x="1812.78" y="390.7179"/><text fill="#000000" font-family="Arial" font-size="14" lengthAdjust="spacing" textLength="147.0957" x="1822.78" y="413.8497">gather_authority_model</text><text fill="#000000" font-family="Arial" font-size="14" lengthAdjust="spacing" textLength="220.2266" x="1822.78" y="429.9483">maestro/understand/introspector.py</text></g><!--entity gather_rule_gates--><g class="entity" data-entity="gather_rule_gates" data-source-line="23" data-uid="ent0013" id="entity_gather_rule_gates"><rect fill="#E6F3FF" height="52.1973" rx="2.5" ry="2.5" style="stroke:#000000;stroke-width:1;" width="240.2266" x="2087.78" y="390.7179"/><text fill="#000000" font-family="Arial" font-size="14" lengthAdjust="spacing" textLength="112.8613" x="2097.78" y="413.8497">gather_rule_gates</text><text fill="#000000" font-family="Arial" font-size="14" lengthAdjust="spacing" textLength="220.2266" x="2097.78" y="429.9483">maestro/understand/introspector.py</text></g><!--entity gather_mutation_boundaries--><g class="entity" data-entity="gather_mutation_boundaries" data-source-line="24" data-uid="ent0014" id="entity_gather_mutation_boundaries"><rect fill="#E6F3FF" height="52.1973" rx="2.5" ry="2.5" style="stroke:#000000;stroke-width:1;" width="240.2266" x="2362.78" y="390.7179"/><text fill="#000000" font-family="Arial" font-size="14" lengthAdjust="spacing" textLength="178.2402" x="2372.78" y="413.8497">gather_mutation_boundaries</text><text fill="#000000" font-family="Arial" font-size="14" lengthAdjust="spacing" textLength="220.2266" x="2372.78" y="429.9483">maestro/understand/introspector.py</text></g><!--entity gather_automation_long_run--><g class="entity" data-entity="gather_automation_long_run" data-source-line="25" data-uid="ent0015" id="entity_gather_automation_long_run"><rect fill="#E6F3FF" height="52.1973" rx="2.5" ry="2.5" style="stroke:#000000;stroke-width:1;" width="240.2266" x="2637.78" y="390.7179"/><text fill="#000000" font-family="Arial" font-size="14" lengthAdjust="spacing" textLength="179.0264" x="2647.78" y="413.8497">gather_automation_long_run</text><text fill="#000000" font-family="Arial" font-size="14" lengthAdjust="spacing" textLength="220.2266" x="2647.78" y="429.9483">maestro/understand/introspector.py</text></g><!--entity gather_directory_semantics--><g class="entity" data-entity="gather_directory_semantics" data-source-line="26" data-uid="ent0016" id="entity_gather_directory_semantics"><rect fill="#E6F3FF" height="52.1973" rx="2.5" ry="2.5" style="stroke:#000000;stroke-width:1;" width="240.2266" x="2912.78" y="390.7179"/><text fill="#000000" font-family="Arial" font-size="14" lengthAdjust="spacing" textLength="171.9717" x="2922.78" y="413.8497">gather_directory_semantics</text><text fill="#000000" font-family="Arial" font-size="14" lengthAdjust="spacing" textLength="220.2266" x="2922.78" y="429.9483">maestro/understand/introspector.py</text></g><!--entity gather_contracts--><g class="entity" data-entity="gather_contracts" data-source-line="27" data-uid="ent0017" id="entity_gather_contracts"><rect fill="#E6F3FF" height="52.1973" rx="2.5" ry="2.5" style="stroke:#000000;stroke-width:1;" width="240.2266" x="3187.78" y="390.7179"/><text fill="#000000" font-family="Arial" font-size="14" lengthAdjust="spacing" textLength="104.2822" x="3197.78" y="413.8497">gather_contracts</text><text fill="#000000" font-family="Arial" font-size="14" lengthAdjust="spacing" textLength="220.2266" x="3197.78" y="429.9483">maestro/understand/introspector.py</text></g><!--entity gather_evidence_index--><g class="entity" data-entity="gather_evidence_index" data-source-line="28" data-uid="ent0018" id="entity_gather_evidence_index"><rect fill="#E6F3FF" height="52.1973" rx="2.5" ry="2.5" style="stroke:#000000;stroke-width:1;" width="240.2266" x="3462.78" y="390.7179"/><text fill="#000000" font-family="Arial" font-size="14" lengthAdjust="spacing" textLength="144.7783" x="3472.78" y="413.8497">gather_evidence_index</text><text fill="#000000" font-family="Arial" font-size="14" lengthAdjust="spacing" textLength="220.2266" x="3472.78" y="429.9483">maestro/understand/introspector.py</text></g><!--entity markdown_renderer_class--><g class="entity" data-entity="markdown_renderer_class" data-source-line="29" data-uid="ent0019" id="entity_markdown_renderer_class"><rect fill="#FFFFFF" height="46.0986" rx="2.5" ry="2.5" style="stroke:#000000;stroke-width:1;" width="204.9648" x="1207.41" y="518.4079"/><rect fill="#FFFFFF" height="10" style="stroke:#000000;stroke-width:1;" width="15" x="1392.3748" y="523.4079"/><rect fill="#FFFFFF" height="2" style="stroke:#000000;stroke-width:1;" width="4" x="1390.3748" y="525.4079"/><rect fill="#FFFFFF" height="2" style="stroke:#000000;stroke-width:1;" width="4" x="1390.3748" y="529.4079"/><text fill="#000000" font-family="Arial" font-size="14" lengthAdjust="spacing" textLength="164.9648" x="1222.41" y="551.5397">markdown_renderer_class</text></g><!--entity render--><g class="entity" data-entity="render" data-source-line="30" data-uid="ent0020" id="entity_render"><rect fill="#E6F3FF" height="52.1973" rx="2.5" ry="2.5" style="stroke:#000000;stroke-width:1;" width="219.999" x="2902.89" y="150.0479"/><text fill="#000000" font-family="Arial" font-size="14" lengthAdjust="spacing" textLength="40.4688" x="2912.89" y="173.1797">render</text><text fill="#000000" font-family="Arial" font-size="14" lengthAdjust="spacing" textLength="199.999" x="2912.89" y="189.2783">maestro/understand/renderer.py</text></g><!--entity _render_identity--><g class="entity" data-entity="_render_identity" data-source-line="31" data-uid="ent0021" id="entity__render_identity"><rect fill="#E6F3FF" height="52.1973" rx="2.5" ry="2.5" style="stroke:#000000;stroke-width:1;" width="219.999" x="2774.89" y="278.5179"/><text fill="#000000" font-family="Arial" font-size="14" lengthAdjust="spacing" textLength="100.3994" x="2784.89" y="301.6497">_render_identity</text><text fill="#000000" font-family="Arial" font-size="14" lengthAdjust="spacing" textLength="199.999" x="2784.89" y="317.7483">maestro/understand/renderer.py</text></g><!--entity _render_authority_model--><g class="entity" data-entity="_render_authority_model" data-source-line="32" data-uid="ent0022" id="entity__render_authority_model"><rect fill="#E6F3FF" height="52.1973" rx="2.5" ry="2.5" style="stroke:#000000;stroke-width:1;" width="219.999" x="3029.89" y="278.5179"/><text fill="#000000" font-family="Arial" font-size="14" lengthAdjust="spacing" textLength="155.6543" x="3039.89" y="301.6497">_render_authority_model</text><text fill="#000000" font-family="Arial" font-size="14" lengthAdjust="spacing" textLength="199.999" x="3039.89" y="317.7483">maestro/understand/renderer.py</text></g><!--entity _render_rule_gates--><g class="entity" data-entity="_render_rule_gates" data-source-line="33" data-uid="ent0023" id="entity__render_rule_gates"><rect fill="#E6F3FF" height="52.1973" rx="2.5" ry="2.5" style="stroke:#000000;stroke-width:1;" width="219.999" x="3284.89" y="278.5179"/><text fill="#000000" font-family="Arial" font-size="14" lengthAdjust="spacing" textLength="121.4199" x="3294.89" y="301.6497">_render_rule_gates</text><text fill="#000000" font-family="Arial" font-size="14" lengthAdjust="spacing" textLength="199.999" x="3294.89" y="317.7483">maestro/understand/renderer.py</text></g><!--entity filesystem--><g class="entity" data-entity="filesystem" data-source-line="34" data-uid="ent0024" id="entity_filesystem"><ellipse cx="1467.892" cy="649.0079" fill="#FFFFFF" rx="8" ry="8" style="stroke:#000000;stroke-width:1;"/><path d="M1467.892,657.0079 L1467.892,684.0079 M1454.892,665.0079 L1480.892,665.0079 M1467.892,684.0079 L1454.892,699.0079 M1467.892,684.0079 L1480.892,699.0079" fill="none" style="stroke:#000000;stroke-width:1;"/><text fill="#000000" font-family="Arial" font-size="14" lengthAdjust="spacing" textLength="73.124" x="1431.33" y="714.1397">File System</text></g><!--entity pathlib--><g class="entity" data-entity="pathlib" data-source-line="35" data-uid="ent0025" id="entity_pathlib"><ellipse cx="1467.8874" cy="511.9079" fill="#FFFFFF" rx="8" ry="8" style="stroke:#000000;stroke-width:1;"/><path d="M1467.8874,519.9079 L1467.8874,546.9079 M1454.8874,527.9079 L1480.8874,527.9079 M1467.8874,546.9079 L1454.8874,561.9079 M1467.8874,546.9079 L1480.8874,561.9079" fill="none" style="stroke:#000000;stroke-width:1;"/><text fill="#000000" font-family="Arial" font-size="14" lengthAdjust="spacing" textLength="41.2549" x="1447.26" y="577.0397">pathlib</text></g><!--entity docs_understanding_snapshot_md--><g class="entity" data-entity="docs_understanding_snapshot_md" data-source-line="36" data-uid="ent0026" id="entity_docs_understanding_snapshot_md"><path d="M1523.03,528.9079 C1523.03,518.9079 1664.8884,518.9079 1664.8884,518.9079 C1664.8884,518.9079 1806.7468,518.9079 1806.7468,528.9079 L1806.7468,554.0065 C1806.7468,564.0065 1664.8884,564.0065 1664.8884,564.0065 C1664.8884,564.0065 1523.03,564.0065 1523.03,554.0065 L1523.03,528.9079" fill="#FFE6E6" style="stroke:#000000;stroke-width:1;"/><path d="M1523.03,528.9079 C1523.03,538.9079 1664.8884,538.9079 1664.8884,538.9079 C1664.8884,538.9079 1806.7468,538.9079 1806.7468,528.9079" fill="none" style="stroke:#000000;stroke-width:1;"/><text fill="#000000" font-family="Arial" font-size="14" lengthAdjust="spacing" textLength="263.7168" x="1533.03" y="556.0397">docs/UNDERSTANDING_SNAPSHOT.md</text></g><!--link NOTE_ANCHOR to GMN3--><!--link main_entry to add_understand_parser--><g class="link" data-entity-1="main_entry" data-entity-2="add_understand_parser" data-source-line="37" data-uid="lnk27" id="link_main_entry_add_understand_parser"><path d="M1370.47,202.7379 C1354.69,224.6779 1335.5644,251.2576 1319.7844,273.1876" fill="none" id="main_entry-to-add_understand_parser" style="stroke:#333333;stroke-width:1;"/><polygon fill="#333333" points="1316.28,278.0579,1324.7834,273.0888,1319.2004,273.9993,1318.2898,268.4162,1316.28,278.0579" style="stroke:#333333;stroke-width:1;"/></g><!--link add_understand_parser to handle_understand_dump--><g class="link" data-entity-1="add_understand_parser" data-entity-2="handle_understand_dump" data-source-line="38" data-uid="lnk28" id="link_add_understand_parser_handle_understand_dump"><path d="M1319,331.1779 C1333.7,348.9779 1349.3986,367.9921 1364.0786,385.7621" fill="none" id="add_understand_parser-to-handle_understand_dump" style="stroke:#333333;stroke-width:1;"/><polygon fill="#333333" points="1367.9,390.3879,1365.2518,380.9017,1364.7155,386.5331,1359.0842,385.9968,1367.9,390.3879" style="stroke:#333333;stroke-width:1;"/></g><!--link main_entry to handle_understand_dump--><g class="link" data-entity-1="main_entry" data-entity-2="handle_understand_dump" data-source-line="39" data-uid="lnk29" id="link_main_entry_handle_understand_dump"><path d="M1408.51,202.6579 C1429.29,232.8979 1457.39,284.9479 1443.89,330.7179 C1437.37,352.8179 1426.7894,369.8307 1414.4294,385.8207" fill="none" id="main_entry-to-handle_understand_dump" style="stroke:#333333;stroke-width:1;"/><polygon fill="#333333" points="1410.76,390.5679,1419.4289,385.8935,1413.8179,386.6119,1413.0994,381.0009,1410.76,390.5679" style="stroke:#333333;stroke-width:1;"/></g><!--link handle_understand_dump to project_introspector_class--><g class="link" data-entity-1="handle_understand_dump" data-entity-2="project_introspector_class" data-source-line="40" data-uid="lnk30" id="link_handle_understand_dump_project_introspector_class"><path d="M1322.61,443.3779 C1265.55,465.3779 1189.5881,494.6789 1134.9281,515.7589" fill="none" id="handle_understand_dump-to-project_introspector_class" style="stroke:#333333;stroke-width:1;"/><polygon fill="#333333" points="1129.33,517.9179,1139.1665,518.4115,1133.9951,516.1187,1136.2879,510.9473,1129.33,517.9179" style="stroke:#333333;stroke-width:1;"/></g><!--link handle_understand_dump to markdown_renderer_class--><g class="link" data-entity-1="handle_understand_dump" data-entity-2="markdown_renderer_class" data-source-line="41" data-uid="lnk31" id="link_handle_understand_dump_markdown_renderer_class"><path d="M1372.52,443.2279 C1358.33,465.2579 1341.239,491.7937 1327.629,512.9237" fill="none" id="handle_understand_dump-to-markdown_renderer_class" style="stroke:#333333;stroke-width:1;"/><polygon fill="#333333" points="1324.38,517.9679,1332.6163,512.5676,1327.0875,513.7644,1325.8907,508.2355,1324.38,517.9679" style="stroke:#333333;stroke-width:1;"/></g><!--link render to gather_all--><g class="link" data-entity-1="render" data-entity-2="gather_all" data-source-line="42" data-uid="lnk32" id="link_render_gather_all"><path d="M2933.36,202.7379 C2865.18,224.6779 2773.1616,254.2899 2705.0116,276.2199" fill="none" id="render-to-gather_all" style="stroke:#333333;stroke-width:1;"/><polygon fill="#333333" points="2699.3,278.0579,2709.0926,279.1087,2704.0596,276.5262,2706.6421,271.4932,2699.3,278.0579" style="stroke:#333333;stroke-width:1;"/></g><!--link gather_all to gather_identity--><g class="link" data-entity-1="gather_all" data-entity-2="gather_identity" data-source-line="43" data-uid="lnk33" id="link_gather_all_gather_identity"><path d="M2499.29,315.0679 C2338.26,328.3779 2044.33,355.0579 1794.89,390.7179 C1789.5,391.4879 1789.9376,391.3787 1784.3876,392.2487" fill="none" id="gather_all-to-gather_identity" style="stroke:#333333;stroke-width:1;"/><polygon fill="#333333" points="1778.46,393.1779,1787.9709,395.7358,1783.3997,392.4035,1786.732,387.8323,1778.46,393.1779" style="stroke:#333333;stroke-width:1;"/></g><!--link gather_all to gather_authority_model--><g class="link" data-entity-1="gather_all" data-entity-2="gather_authority_model" data-source-line="44" data-uid="lnk34" id="link_gather_all_gather_authority_model"><path d="M2499.3,323.2879 C2387.76,339.8779 2217.44,365.7879 2069.89,390.7179 C2064.41,391.6379 2064.7103,391.5641 2059.0503,392.5541" fill="none" id="gather_all-to-gather_authority_model" style="stroke:#333333;stroke-width:1;"/><polygon fill="#333333" points="2053.14,393.5879,2062.6946,395.9774,2058.0652,392.7264,2061.3162,388.097,2053.14,393.5879" style="stroke:#333333;stroke-width:1;"/></g><!--link gather_all to gather_rule_gates--><g class="link" data-entity-1="gather_all" data-entity-2="gather_rule_gates" data-source-line="45" data-uid="lnk35" id="link_gather_all_gather_rule_gates"><path d="M2524.33,331.1779 C2457.89,348.9479 2375.4863,370.9877 2309.0763,388.7477" fill="none" id="gather_all-to-gather_rule_gates" style="stroke:#333333;stroke-width:1;"/><polygon fill="#333333" points="2303.28,390.2979,2313.0079,391.8369,2308.1103,389.0061,2310.9411,384.1085,2303.28,390.2979" style="stroke:#333333;stroke-width:1;"/></g><!--link gather_all to gather_mutation_boundaries--><g class="link" data-entity-1="gather_all" data-entity-2="gather_mutation_boundaries" data-source-line="46" data-uid="lnk36" id="link_gather_all_gather_mutation_boundaries"><path d="M2588.11,331.1779 C2565.98,348.9779 2541.2659,368.8581 2519.1659,386.6281" fill="none" id="gather_all-to-gather_mutation_boundaries" style="stroke:#333333;stroke-width:1;"/><polygon fill="#333333" points="2514.49,390.3879,2524.0104,387.8655,2518.3866,387.2547,2518.9974,381.6309,2514.49,390.3879" style="stroke:#333333;stroke-width:1;"/></g><!--link gather_all to gather_automation_long_run--><g class="link" data-entity-1="gather_all" data-entity-2="gather_automation_long_run" data-source-line="47" data-uid="lnk37" id="link_gather_all_gather_automation_long_run"><path d="M2651.9,331.1779 C2674.19,348.9779 2699.1109,368.8746 2721.3709,386.6446" fill="none" id="gather_all-to-gather_automation_long_run" style="stroke:#333333;stroke-width:1;"/><polygon fill="#333333" points="2726.06,390.3879,2721.5219,381.6468,2722.1524,387.2684,2716.5308,387.899,2726.06,390.3879" style="stroke:#333333;stroke-width:1;"/></g><!--link gather_all to gather_directory_semantics--><g class="link" data-entity-1="gather_all" data-entity-2="gather_directory_semantics" data-source-line="48" data-uid="lnk38" id="link_gather_all_gather_directory_semantics"><path d="M2715.68,331.1779 C2782.28,348.9479 2864.9028,370.991 2931.4628,388.751" fill="none" id="gather_all-to-gather_directory_semantics" style="stroke:#333333;stroke-width:1;"/><polygon fill="#333333" points="2937.26,390.2979,2929.5955,384.1128,2932.429,389.0088,2927.533,391.8424,2937.26,390.2979" style="stroke:#333333;stroke-width:1;"/></g><!--link gather_all to gather_contracts--><g class="link" data-entity-1="gather_all" data-entity-2="gather_contracts" data-source-line="49" data-uid="lnk39" id="link_gather_all_gather_contracts"><path d="M2740.27,327.7679 C2746.22,328.7879 2752.12,329.7679 2757.89,330.7179 C2940.94,360.6479 2987.86,360.6579 3170.89,390.7179 C3176.26,391.5979 3175.8245,391.5141 3181.3645,392.4541" fill="none" id="gather_all-to-gather_contracts" style="stroke:#333333;stroke-width:1;"/><polygon fill="#333333" points="3187.28,393.4579,3179.076,388.0087,3182.3505,392.6214,3177.7377,395.8959,3187.28,393.4579" style="stroke:#333333;stroke-width:1;"/></g><!--link gather_all to gather_evidence_index--><g class="link" data-entity-1="gather_all" data-entity-2="gather_evidence_index" data-source-line="50" data-uid="lnk40" id="link_gather_all_gather_evidence_index"><path d="M2740.21,328.1779 C2746.18,329.0879 2752.1,329.9379 2757.89,330.7179 C3062.1,371.5479 3141.71,349.6779 3445.89,390.7179 C3451.28,391.4379 3450.8473,391.3415 3456.4073,392.1815" fill="none" id="gather_all-to-gather_evidence_index" style="stroke:#333333;stroke-width:1;"/><polygon fill="#333333" points="3462.34,393.0779,3454.0385,387.7783,3457.3961,392.3309,3452.8435,395.6885,3462.34,393.0779" style="stroke:#333333;stroke-width:1;"/></g><!--link render to _render_identity--><g class="link" data-entity-1="render" data-entity-2="_render_identity" data-source-line="51" data-uid="lnk41" id="link_render__render_identity"><path d="M2986.99,202.7379 C2964.78,224.6779 2937.2185,251.9112 2915.0185,273.8412" fill="none" id="render-to-_render_identity" style="stroke:#333333;stroke-width:1;"/><polygon fill="#333333" points="2910.75,278.0579,2919.9638,274.5786,2914.3071,274.544,2914.3417,268.8873,2910.75,278.0579" style="stroke:#333333;stroke-width:1;"/></g><!--link render to _render_authority_model--><g class="link" data-entity-1="render" data-entity-2="_render_authority_model" data-source-line="52" data-uid="lnk42" id="link_render__render_authority_model"><path d="M3038.59,202.7379 C3060.62,224.6779 3087.9477,251.8949 3109.9777,273.8249" fill="none" id="render-to-_render_authority_model" style="stroke:#333333;stroke-width:1;"/><polygon fill="#333333" points="3114.23,278.0579,3110.6736,268.8735,3110.6864,274.5304,3105.0296,274.5432,3114.23,278.0579" style="stroke:#333333;stroke-width:1;"/></g><!--link render to _render_rule_gates--><g class="link" data-entity-1="render" data-entity-2="_render_rule_gates" data-source-line="53" data-uid="lnk43" id="link_render__render_rule_gates"><path d="M3090.19,202.7379 C3156.47,224.6779 3245.764,254.2421 3312.004,276.1721" fill="none" id="render-to-_render_rule_gates" style="stroke:#333333;stroke-width:1;"/><polygon fill="#333333" points="3317.7,278.0579,3310.4132,271.4319,3312.9534,276.4864,3307.8989,279.0265,3317.7,278.0579" style="stroke:#333333;stroke-width:1;"/></g><!--link handle_understand_dump to pathlib--><g class="link" data-entity-1="handle_understand_dump" data-entity-2="pathlib" data-source-line="54" data-uid="lnk44" id="link_handle_understand_dump_pathlib"><path d="M1405.26,443.2279 C1417.37,462.0279 1430.7097,482.7445 1443.7797,503.0245" fill="none" id="handle_understand_dump-to-pathlib" style="stroke:#333333;stroke-width:1;"/><polygon fill="#333333" points="1447.03,508.0679,1445.5167,498.3359,1444.3214,503.8651,1438.7923,502.6697,1447.03,508.0679" style="stroke:#333333;stroke-width:1;"/></g><!--link pathlib to filesystem--><g class="link" data-entity-1="pathlib" data-entity-2="filesystem" data-source-line="55" data-uid="lnk45" id="link_pathlib_filesystem"><path d="M1467.89,580.4479 C1467.89,599.0279 1467.89,615.3179 1467.89,633.8479" fill="none" id="pathlib-to-filesystem" style="stroke:#333333;stroke-width:1;"/><polygon fill="#333333" points="1467.89,639.8479,1471.89,630.8479,1467.89,634.8479,1463.89,630.8479,1467.89,639.8479" style="stroke:#333333;stroke-width:1;"/></g><!--link handle_understand_dump to docs_understanding_snapshot_md--><g class="link" data-entity-1="handle_understand_dump" data-entity-2="docs_understanding_snapshot_md" data-source-line="56" data-uid="lnk46" id="link_handle_understand_dump_docs_understanding_snapshot_md"><path d="M1446.41,443.3779 C1496.33,465.5579 1562.3774,494.9005 1609.8174,515.9905" fill="none" id="handle_understand_dump-to-docs_understanding_snapshot_md" style="stroke:#333333;stroke-width:1;"/><polygon fill="#333333" points="1615.3,518.4279,1608.701,511.1167,1610.7311,516.3967,1605.4511,518.4269,1615.3,518.4279" style="stroke:#333333;stroke-width:1;"/></g><!--SRC=[dLTVRzis47_Nf-3SbpP0B2m5yj011JnRQG8aSX6xJrb1q29jSw58WQIS-QlqQPzjdsH7MR9eWTAg2GOiykv-zuTtnzClTizoXWf1k8pCAvS5qIH76vAzxhGg9PqheJHwTrSz7WTbMr8AUwUaJGaWp3GdmgFFj5PljV37wl68gRBiTwKfqpN7l7gw724ZW2kot0g6va-BQw0nRIoH55qZRq4PAn2Nbcb91DeAzORUgurX-i3e1_J-SRcu-OJcYZAqO9PmyI6AIiCoOXYQ49djbPuWOb2wN2Tubixlby_HdWEtlo71HAJvRc-HsbvG4BgwMgbIP-pJrHLwUQ4gC_6Rqg_E41CVRcAkuoodyQKBqmmCcXv9Bj1eYU_V8mP-EvkYIBCCg3k8qII7SyLCMdtyG-Q46QjLxFQcnR7oiAMZTydjtKSuOq-QK8fRRHYE1aBO0cKgps7Vn2rFZ36Nt6BSA0X2X7JjWIoOpqlBl6YLUJfglOsAiEHP1t0NIeAFQ59ezITe11C1qHJmgZJE136c0ked-uRk2DICnaI8e76-S6DXAnBolAP2Vad8xEDOr4Pk09gK5b8QU70E2JFUxaln0KMwX8E0TsR6wcWb1-3pqXBBbSGRrnM8vkFr12260wVo4xzGSWTMolyHl2x4W4BATGLon8P1ZbkUZVOm036WC8C6habcHwiv2mw0iuDBpen1HL7srrWDbzAXUiw9VgNgJMBD72BpYxc7vbjveWJDQeGQaqxhaAir_d3vTk6wGaF0FrEyVVW_KRaDwt-KRf-6GDqITvPeSiS1VdKqbkMLn1RMfbes70MSi-2RK-yzlKUKMBAfxk7g3loMBfBdrNgMBXxIBtYLphwkxfVhQKuh8SVYzNqEvMKaASnUMPnJDp0ajybjv5rorzUVmrTI5Bwe77_uVkcYzd3rN4vEOk2w6P3gp-igGnrBUzr4titZKPgqwo5tigQ7gptv7eP0g-rNsEsHFPo1vjR3UUvFFVJBxkA7hrkS8LetH04MBpv3IL3dVVrVxNcLCY0vdFpHQJuLR1iSJvFQUnXGtHg6rCElSJCmnsvyTkFcXLxOWxf3uMsOFqV052NCk7s4Yr6sTyW-5xVpvfyVVwD7HdTm0lUWtJHUBUkH7osWgppLXOCAKCaXkk0-V2Dqx3XzEhYn-pTqk86-NoXaDPmsWWy408NVoyjq6iFluUdhO_AKfElP-c6PuiTayILvTY4A4ge8DQ8ELbiJYyfedBdpeovLd7ZjoVoywKVaNm00]--></g></svg>