<svg xmlns="http://www.w3.org/2000/svg" xmlns:xlink="http://www.w3.org/1999/xlink" contentStyleType="text/css" data-diagram-type="DESCRIPTION" height="1253px" preserveAspectRatio="none" style="width:915px;height:1253px;background:#FFFFFF;" version="1.1" viewBox="0 0 915 1253" width="915px" zoomAndPan="magnify"><title>CMD-phase - phase command surface (LOD1: CLI Flow)</title><defs/><g><g class="title" data-source-line="8"><text fill="#000000" font-family="Arial" font-size="22" font-weight="bold" lengthAdjust="spacing" textLength="583.0752" x="161.5355" y="35.6357">CMD-phase - phase command surface (LOD1: CLI Flow)</text></g><!--entity NOTE_ANCHOR--><!--entity cli_invocation--><g class="entity" data-entity="cli_invocation" data-source-line="16" data-uid="ent0006" id="entity_cli_invocation"><rect fill="#FFFFFF" height="36.0986" rx="2.5" ry="2.5" style="stroke:#000000;stroke-width:1;" width="163.958" x="641.96" y="66.6679"/><text fill="#000000" font-family="Arial" font-size="14" lengthAdjust="spacing" textLength="143.958" x="651.96" y="89.7997">Maestro CLI Invocation</text></g><!--entity determine_phase_command--><g class="entity" data-entity="determine_phase_command" data-source-line="17" data-uid="ent0007" id="entity_determine_phase_command"><rect fill="#FFFFFF" height="36.0986" rx="2.5" ry="2.5" style="stroke:#000000;stroke-width:1;" width="211.3174" x="618.28" y="172.1379"/><text fill="#000000" font-family="Arial" font-size="14" lengthAdjust="spacing" textLength="191.3174" x="628.28" y="195.2697">Determine command is 'phase'</text></g><!--entity parse_phase_subcommands--><g class="entity" data-entity="parse_phase_subcommands" data-source-line="18" data-uid="ent0008" id="entity_parse_phase_subcommands"><ellipse cx="723.9382" cy="290.3675" fill="#FFFFFF" rx="98.6482" ry="22.1296" style="stroke:#000000;stroke-width:1;"/><text fill="#000000" font-family="Arial" font-size="14" lengthAdjust="spacing" textLength="173.5371" x="637.1696" y="294.9168">Parse phase subcommands</text></g><!--entity validate_session--><g class="entity" data-entity="validate_session" data-source-line="19" data-uid="ent0009" id="entity_validate_session"><rect fill="#FFFFFF" height="46.0986" rx="2.5" ry="2.5" style="stroke:#000000;stroke-width:1;" width="141.9512" x="652.96" y="372.4979"/><rect fill="#FFFFFF" height="10" style="stroke:#000000;stroke-width:1;" width="15" x="774.9112" y="377.4979"/><rect fill="#FFFFFF" height="2" style="stroke:#000000;stroke-width:1;" width="4" x="772.9112" y="379.4979"/><rect fill="#FFFFFF" height="2" style="stroke:#000000;stroke-width:1;" width="4" x="772.9112" y="383.4979"/><text fill="#000000" font-family="Arial" font-size="14" lengthAdjust="spacing" textLength="101.9512" x="667.96" y="405.6297">Validate session</text></g><!--entity load_session--><g class="entity" data-entity="load_session" data-source-line="20" data-uid="ent0010" id="entity_load_session"><rect fill="#FFFFFF" height="46.0986" rx="2.5" ry="2.5" style="stroke:#000000;stroke-width:1;" width="122.5029" x="569.69" y="478.5979"/><rect fill="#FFFFFF" height="10" style="stroke:#000000;stroke-width:1;" width="15" x="672.1929" y="483.5979"/><rect fill="#FFFFFF" height="2" style="stroke:#000000;stroke-width:1;" width="4" x="670.1929" y="485.5979"/><rect fill="#FFFFFF" height="2" style="stroke:#000000;stroke-width:1;" width="4" x="670.1929" y="489.5979"/><text fill="#000000" font-family="Arial" font-size="14" lengthAdjust="spacing" textLength="82.5029" x="584.69" y="511.7297">Load session</text></g><!--entity hard_stop_no_session--><g class="entity" data-entity="hard_stop_no_session" data-source-line="21" data-uid="ent0011" id="entity_hard_stop_no_session"><rect fill="#FFFFFF" height="46.0986" rx="2.5" ry="2.5" style="stroke:#000000;stroke-width:1;" width="182.4063" x="726.74" y="478.5979"/><rect fill="#FFFFFF" height="10" style="stroke:#000000;stroke-width:1;" width="15" x="889.1463" y="483.5979"/><rect fill="#FFFFFF" height="2" style="stroke:#000000;stroke-width:1;" width="4" x="887.1463" y="485.5979"/><rect fill="#FFFFFF" height="2" style="stroke:#000000;stroke-width:1;" width="4" x="887.1463" y="489.5979"/><text fill="#000000" font-family="Arial" font-size="14" lengthAdjust="spacing" textLength="142.4063" x="741.74" y="511.7297">Hard stop if no session</text></g><!--entity validate_session_schema--><g class="entity" data-entity="validate_session_schema" data-source-line="22" data-uid="ent0012" id="entity_validate_session_schema"><rect fill="#FFFFFF" height="46.0986" rx="2.5" ry="2.5" style="stroke:#000000;stroke-width:1;" width="194.8613" x="533.51" y="584.6979"/><rect fill="#FFFFFF" height="10" style="stroke:#000000;stroke-width:1;" width="15" x="708.3713" y="589.6979"/><rect fill="#FFFFFF" height="2" style="stroke:#000000;stroke-width:1;" width="4" x="706.3713" y="591.6979"/><rect fill="#FFFFFF" height="2" style="stroke:#000000;stroke-width:1;" width="4" x="706.3713" y="595.6979"/><text fill="#000000" font-family="Arial" font-size="14" lengthAdjust="spacing" textLength="154.8613" x="548.51" y="617.8297">Validate session schema</text></g><!--entity route_phase_subcommand--><g class="entity" data-entity="route_phase_subcommand" data-source-line="23" data-uid="ent0013" id="entity_route_phase_subcommand"><rect fill="#FFFFFF" height="46.0986" rx="2.5" ry="2.5" style="stroke:#000000;stroke-width:1;" width="273.4814" x="494.2" y="690.7979"/><rect fill="#FFFFFF" height="10" style="stroke:#000000;stroke-width:1;" width="15" x="747.6814" y="695.7979"/><rect fill="#FFFFFF" height="2" style="stroke:#000000;stroke-width:1;" width="4" x="745.6814" y="697.7979"/><rect fill="#FFFFFF" height="2" style="stroke:#000000;stroke-width:1;" width="4" x="745.6814" y="701.7979"/><text fill="#000000" font-family="Arial" font-size="14" lengthAdjust="spacing" textLength="233.4814" x="509.2" y="723.9297">Route to phase subcommand handler</text></g><!--entity handle_phase_command--><g class="entity" data-entity="handle_phase_command" data-source-line="24" data-uid="ent0014" id="entity_handle_phase_command"><rect fill="#FFFFFF" height="46.0986" rx="2.5" ry="2.5" style="stroke:#000000;stroke-width:1;" width="194.8887" x="446.5" y="796.8979"/><rect fill="#FFFFFF" height="10" style="stroke:#000000;stroke-width:1;" width="15" x="621.3887" y="801.8979"/><rect fill="#FFFFFF" height="2" style="stroke:#000000;stroke-width:1;" width="4" x="619.3887" y="803.8979"/><rect fill="#FFFFFF" height="2" style="stroke:#000000;stroke-width:1;" width="4" x="619.3887" y="807.8979"/><text fill="#000000" font-family="Arial" font-size="14" lengthAdjust="spacing" textLength="154.8887" x="461.5" y="830.0297">Execute phase operation</text></g><!--entity read_docs_truth--><g class="entity" data-entity="read_docs_truth" data-source-line="25" data-uid="ent0015" id="entity_read_docs_truth"><rect fill="#FFFFFF" height="46.0986" rx="2.5" ry="2.5" style="stroke:#000000;stroke-width:1;" width="138.834" x="474.52" y="902.9979"/><rect fill="#FFFFFF" height="10" style="stroke:#000000;stroke-width:1;" width="15" x="593.354" y="907.9979"/><rect fill="#FFFFFF" height="2" style="stroke:#000000;stroke-width:1;" width="4" x="591.354" y="909.9979"/><rect fill="#FFFFFF" height="2" style="stroke:#000000;stroke-width:1;" width="4" x="591.354" y="913.9979"/><text fill="#000000" font-family="Arial" font-size="14" lengthAdjust="spacing" textLength="98.834" x="489.52" y="936.1297">Read docs truth</text></g><!--entity write_docs_truth--><g class="entity" data-entity="write_docs_truth" data-source-line="26" data-uid="ent0016" id="entity_write_docs_truth"><rect fill="#FFFFFF" height="46.0986" rx="2.5" ry="2.5" style="stroke:#000000;stroke-width:1;" width="138.0273" x="474.93" y="1009.0879"/><rect fill="#FFFFFF" height="10" style="stroke:#000000;stroke-width:1;" width="15" x="592.9573" y="1014.0879"/><rect fill="#FFFFFF" height="2" style="stroke:#000000;stroke-width:1;" width="4" x="590.9573" y="1016.0879"/><rect fill="#FFFFFF" height="2" style="stroke:#000000;stroke-width:1;" width="4" x="590.9573" y="1020.0879"/><text fill="#000000" font-family="Arial" font-size="14" lengthAdjust="spacing" textLength="98.0273" x="489.93" y="1042.2197">Write docs truth</text></g><!--entity output_results--><g class="entity" data-entity="output_results" data-source-line="27" data-uid="ent0017" id="entity_output_results"><rect fill="#FFFFFF" height="36.0986" rx="2.5" ry="2.5" style="stroke:#000000;stroke-width:1;" width="164.7441" x="461.57" y="1115.1879"/><text fill="#000000" font-family="Arial" font-size="14" lengthAdjust="spacing" textLength="144.7441" x="471.57" y="1138.3197">Output results to stdout</text></g><!--entity exit_success--><g class="entity" data-entity="exit_success" data-source-line="28" data-uid="ent0018" id="entity_exit_success"><rect fill="#FFFFFF" height="36.0986" rx="2.5" ry="2.5" style="stroke:#000000;stroke-width:1;" width="97.7998" x="495.04" y="1211.2879"/><text fill="#000000" font-family="Arial" font-size="14" lengthAdjust="spacing" textLength="77.7998" x="505.04" y="1234.4197">Exit success</text></g><!--entity exit_failure--><g class="entity" data-entity="exit_failure" data-source-line="29" data-uid="ent0019" id="entity_exit_failure"><rect fill="#FFFFFF" height="36.0986" rx="2.5" ry="2.5" style="stroke:#000000;stroke-width:1;" width="85.3584" x="676.26" y="801.8979"/><text fill="#000000" font-family="Arial" font-size="14" lengthAdjust="spacing" textLength="65.3584" x="686.26" y="825.0297">Exit failure</text></g><!--link cli_invocation to determine_phase_command--><g class="link" data-entity-1="cli_invocation" data-entity-2="determine_phase_command" data-source-line="30" data-uid="lnk20" id="link_cli_invocation_determine_phase_command"><path d="M723.94,102.8079 C723.94,121.8579 723.94,146.5279 723.94,165.7379" fill="none" id="cli_invocation-to-determine_phase_command" style="stroke:#333333;stroke-width:1;"/><polygon fill="#333333" points="723.94,171.7379,727.94,162.7379,723.94,166.7379,719.94,162.7379,723.94,171.7379" style="stroke:#333333;stroke-width:1;"/></g><!--link determine_phase_command to parse_phase_subcommands--><g class="link" data-entity-1="determine_phase_command" data-entity-2="parse_phase_subcommands" data-source-line="31" data-uid="lnk21" id="link_determine_phase_command_parse_phase_subcommands"><path d="M723.94,208.2979 C723.94,224.8879 723.94,244.1079 723.94,262.0179" fill="none" id="determine_phase_command-to-parse_phase_subcommands" style="stroke:#333333;stroke-width:1;"/><polygon fill="#333333" points="723.94,268.0179,727.94,259.0179,723.94,263.0179,719.94,259.0179,723.94,268.0179" style="stroke:#333333;stroke-width:1;"/></g><!--link parse_phase_subcommands to validate_session--><g class="link" data-entity-1="parse_phase_subcommands" data-entity-2="validate_session" data-source-line="32" data-uid="lnk22" id="link_parse_phase_subcommands_validate_session"><path d="M723.94,312.7479 C723.94,330.1079 723.94,348.4979 723.94,366.1279" fill="none" id="parse_phase_subcommands-to-validate_session" style="stroke:#333333;stroke-width:1;"/><polygon fill="#333333" points="723.94,372.1279,727.94,363.1279,723.94,367.1279,719.94,363.1279,723.94,372.1279" style="stroke:#333333;stroke-width:1;"/></g><!--link validate_session to load_session--><g class="link" data-entity-1="validate_session" data-entity-2="load_session" data-source-line="33" data-uid="lnk23" id="link_validate_session_load_session"><path d="M703.99,418.8779 C688.3,436.4479 670.5363,456.3224 654.8563,473.8824" fill="none" id="validate_session-to-load_session" style="stroke:#333333;stroke-width:1;"/><polygon fill="#333333" points="650.86,478.3579,659.8381,474.3089,654.1902,474.6283,653.8708,468.9805,650.86,478.3579" style="stroke:#333333;stroke-width:1;"/></g><!--link validate_session to hard_stop_no_session--><g class="link" data-entity-1="validate_session" data-entity-2="hard_stop_no_session" data-source-line="34" data-uid="lnk24" id="link_validate_session_hard_stop_no_session"><path d="M744.11,418.8779 C759.97,436.4479 777.9398,456.3439 793.7898,473.9039" fill="none" id="validate_session-to-hard_stop_no_session" style="stroke:#333333;stroke-width:1;"/><polygon fill="#333333" points="797.81,478.3579,794.749,468.9968,794.4598,474.6462,788.8103,474.3571,797.81,478.3579" style="stroke:#333333;stroke-width:1;"/></g><!--link load_session to validate_session_schema--><g class="link" data-entity-1="load_session" data-entity-2="validate_session_schema" data-source-line="35" data-uid="lnk25" id="link_load_session_validate_session_schema"><path d="M630.94,524.9779 C630.94,542.5479 630.94,560.8979 630.94,578.4479" fill="none" id="load_session-to-validate_session_schema" style="stroke:#333333;stroke-width:1;"/><polygon fill="#333333" points="630.94,584.4479,634.94,575.4479,630.94,579.4479,626.94,575.4479,630.94,584.4479" style="stroke:#333333;stroke-width:1;"/></g><!--link validate_session_schema to route_phase_subcommand--><g class="link" data-entity-1="validate_session_schema" data-entity-2="route_phase_subcommand" data-source-line="36" data-uid="lnk26" id="link_validate_session_schema_route_phase_subcommand"><path d="M630.94,631.0779 C630.94,648.6379 630.94,666.9979 630.94,684.5479" fill="none" id="validate_session_schema-to-route_phase_subcommand" style="stroke:#333333;stroke-width:1;"/><polygon fill="#333333" points="630.94,690.5479,634.94,681.5479,630.94,685.5479,626.94,681.5479,630.94,690.5479" style="stroke:#333333;stroke-width:1;"/></g><!--link route_phase_subcommand to handle_phase_command--><g class="link" data-entity-1="route_phase_subcommand" data-entity-2="handle_phase_command" data-source-line="37" data-uid="lnk27" id="link_route_phase_subcommand_handle_phase_command"><path d="M612.28,737.1779 C597.6,754.7379 581.0881,774.4943 566.4181,792.0443" fill="none" id="route_phase_subcommand-to-handle_phase_command" style="stroke:#333333;stroke-width:1;"/><polygon fill="#333333" points="562.57,796.6479,571.4111,792.308,565.7767,792.8116,565.2731,787.1772,562.57,796.6479" style="stroke:#333333;stroke-width:1;"/></g><!--link handle_phase_command to read_docs_truth--><g class="link" data-entity-1="handle_phase_command" data-entity-2="read_docs_truth" data-source-line="38" data-uid="lnk28" id="link_handle_phase_command_read_docs_truth"><path d="M543.94,843.2779 C543.94,860.8379 543.94,879.1979 543.94,896.7479" fill="none" id="handle_phase_command-to-read_docs_truth" style="stroke:#333333;stroke-width:1;"/><polygon fill="#333333" points="543.94,902.7479,547.94,893.7479,543.94,897.7479,539.94,893.7479,543.94,902.7479" style="stroke:#333333;stroke-width:1;"/></g><!--link read_docs_truth to write_docs_truth--><g class="link" data-entity-1="read_docs_truth" data-entity-2="write_docs_truth" data-source-line="39" data-uid="lnk29" id="link_read_docs_truth_write_docs_truth"><path d="M543.94,949.3779 C543.94,966.9379 543.94,985.2879 543.94,1002.8479" fill="none" id="read_docs_truth-to-write_docs_truth" style="stroke:#333333;stroke-width:1;"/><polygon fill="#333333" points="543.94,1008.8479,547.94,999.8479,543.94,1003.8479,539.94,999.8479,543.94,1008.8479" style="stroke:#333333;stroke-width:1;"/></g><!--link write_docs_truth to output_results--><g class="link" data-entity-1="write_docs_truth" data-entity-2="output_results" data-source-line="40" data-uid="lnk30" id="link_write_docs_truth_output_results"><path d="M543.94,1055.6279 C543.94,1073.5579 543.94,1092.3079 543.94,1108.7779" fill="none" id="write_docs_truth-to-output_results" style="stroke:#333333;stroke-width:1;"/><polygon fill="#333333" points="543.94,1114.7779,547.94,1105.7779,543.94,1109.7779,539.94,1105.7779,543.94,1114.7779" style="stroke:#333333;stroke-width:1;"/></g><!--link output_results to exit_success--><g class="link" data-entity-1="output_results" data-entity-2="exit_success" data-source-line="41" data-uid="lnk31" id="link_output_results_exit_success"><path d="M543.94,1151.4979 C543.94,1168.3679 543.94,1187.9279 543.94,1204.8679" fill="none" id="output_results-to-exit_success" style="stroke:#333333;stroke-width:1;"/><polygon fill="#333333" points="543.94,1210.8679,547.94,1201.8679,543.94,1205.8679,539.94,1201.8679,543.94,1210.8679" style="stroke:#333333;stroke-width:1;"/></g><!--link route_phase_subcommand to exit_failure--><g class="link" data-entity-1="route_phase_subcommand" data-entity-2="exit_failure" data-source-line="42" data-uid="lnk32" id="link_route_phase_subcommand_exit_failure"><path d="M649.82,737.1779 C666.08,756.4179 685.3561,779.2161 700.2961,796.8861" fill="none" id="route_phase_subcommand-to-exit_failure" style="stroke:#333333;stroke-width:1;"/><polygon fill="#333333" points="704.17,801.4679,701.4137,792.0126,700.9417,797.6497,695.3046,797.1778,704.17,801.4679" style="stroke:#333333;stroke-width:1;"/></g><!--SRC=[bLN1Jjmm4BtdAwRR0-rAIqHxur29Bej0WjqAglQ0a6KSXrWuTcGxk_3tdTXUriacX-QI-Crxu_7aPVB9LRpcq4WgL6PVXMgeeJKyK_RwOdIhYgMMsi3dAtybZ8ANj9NkIYktffZXmWWga_Y5CNeNnT_zbGJNsl6VsXJSHCRINqF6M178ofnmaiFoxdBHLDHoM42uCrtNL1LWMrDInk7BxURox1oMjpTm9VNkQvQrbhEEEQEALThCW5fORtwloCLwURsvpofHy1wWi0umugLoeCjU160-Vz2jOVnyFeV7nq8pc- -qUIrnAvjll-N2vAmkyeywJvaKf- -qbl0VtAUdZEEHkZgop73cg7h1my_kABVEQ7-u6xNLZ3gXbJyGIeduW5BH9NVSr48TMYKidFWDJxoqs1E81qca7VhsYngyXNRRzZd6hHStNImAarY63urMN3cO_Q5I51HRQhcr-tgt4IGHJ0MtcXOziaHWZ7XD3HATRa2KsAsUfi8OwM94wJ7ji2gm3ByAEbeS2R5KVgzRr3fzr1RSM1MI1vkPZdNKdJJFwespBbD8enjk3kyqP1gybRG6ZdtgR0NEjAuAEo96EenuBAN_DG8t6l1t7PWA4kTiMjUq3bDQ_EXjTrZh2ZoH5seV936OobPlmc536CFcUIf7W4JWY5XI8Ll33yG8P7r7msBnOzAf4xZNJ1bq0lUQ8tCE0S_gkNAKCUh1L3Qwszvj4xZNJ1Xh78wrZ9Xf30pv1pOQh3tdo3f3mBC6FkalFQDlZ-aJzDmHXhJavUYCNcrnfYi_fRirJkhjMHvpaVYdw6PlsEYqBY1TuFWDei78hiFutIUoUH0qxx1_I0VtFm00]--></g></svg>