<svg xmlns="http://www.w3.org/2000/svg" xmlns:xlink="http://www.w3.org/1999/xlink" contentStyleType="text/css" data-diagram-type="DESCRIPTION" height="351px" preserveAspectRatio="none" style="width:2341px;height:351px;background:#FFFFFF;" version="1.1" viewBox="0 0 2341 351" width="2341px" zoomAndPan="magnify"><title>CMD-phase - Combined CLI+Code (LOD1)</title><defs/><g><g class="title" data-source-line="8"><text fill="#000000" font-family="Arial" font-size="22" font-weight="bold" lengthAdjust="spacing" textLength="436.9492" x="947.784" y="35.6357">CMD-phase - Combined CLI+Code (LOD1)</text></g><!--cluster CLI Layer--><g class="cluster" data-entity="CLI Layer" data-source-line="20" data-uid="ent0007" id="cluster_CLI Layer"><path d="M1208.44,125.1179 L1273.2398,125.1179 A3.75,3.75 0 0 1 1275.7398,127.6179 L1282.7398,147.2165 L1633.44,147.2165 A2.5,2.5 0 0 1 1635.94,149.7165 L1635.94,341.6979 A2.5,2.5 0 0 1 1633.44,344.1979 L1208.44,344.1979 A2.5,2.5 0 0 1 1205.94,341.6979 L1205.94,127.6179 A2.5,2.5 0 0 1 1208.44,125.1179" fill="#E6F3FF" style="stroke:#000000;stroke-width:1;"/><line style="stroke:#000000;stroke-width:1;" x1="1205.94" x2="1282.7398" y1="147.2165" y2="147.2165"/><text fill="#000000" font-family="Arial" font-size="14" font-weight="bold" lengthAdjust="spacing" textLength="63.7998" x="1209.94" y="140.2497">CLI Layer</text></g><!--cluster Code Layer--><g class="cluster" data-entity="Code Layer" data-source-line="28" data-uid="ent0013" id="cluster_Code Layer"><path d="M1662.44,122.3379 L1739.688,122.3379 A3.75,3.75 0 0 1 1742.188,124.8379 L1749.188,144.4365 L2077.44,144.4365 A2.5,2.5 0 0 1 2079.94,146.9365 L2079.94,342.3079 A2.5,2.5 0 0 1 2077.44,344.8079 L1662.44,344.8079 A2.5,2.5 0 0 1 1659.94,342.3079 L1659.94,124.8379 A2.5,2.5 0 0 1 1662.44,122.3379" fill="#FFE6E6" style="stroke:#000000;stroke-width:1;"/><line style="stroke:#000000;stroke-width:1;" x1="1659.94" x2="1749.188" y1="144.4365" y2="144.4365"/><text fill="#000000" font-family="Arial" font-size="14" font-weight="bold" lengthAdjust="spacing" textLength="76.248" x="1663.94" y="137.4697">Code Layer</text></g><!--entity maestro phase--><g class="entity" data-entity="maestro phase" data-source-line="21" data-uid="ent0008" id="entity_maestro phase"><ellipse cx="1285.9396" cy="175.3878" fill="#FFFFFF" rx="64.3496" ry="15.2699" style="stroke:#000000;stroke-width:1;"/><text fill="#000000" font-family="Arial" font-size="14" lengthAdjust="spacing" textLength="92.6064" x="1239.6364" y="179.9371">maestro phase</text></g><!--entity maestro ph--><g class="entity" data-entity="maestro ph" data-source-line="22" data-uid="ent0009" id="entity_maestro ph"><ellipse cx="1437.9416" cy="175.3913" fill="#FFFFFF" rx="52.5216" ry="14.3835" style="stroke:#000000;stroke-width:1;"/><text fill="#000000" font-family="Arial" font-size="14" lengthAdjust="spacing" textLength="70.0342" x="1402.9246" y="179.9406">maestro ph</text></g><!--entity maestro p--><g class="entity" data-entity="maestro p" data-source-line="23" data-uid="ent0010" id="entity_maestro p"><ellipse cx="1572.936" cy="175.3913" fill="#FFFFFF" rx="47.016" ry="14.3835" style="stroke:#000000;stroke-width:1;"/><text fill="#000000" font-family="Arial" font-size="14" lengthAdjust="spacing" textLength="62.248" x="1541.812" y="179.9406">maestro p</text></g><!--entity maestro phase list--><g class="entity" data-entity="maestro phase list" data-source-line="24" data-uid="ent0011" id="entity_maestro phase list"><ellipse cx="1294.936" cy="310.7611" fill="#FFFFFF" rx="72.616" ry="16.9232" style="stroke:#000000;stroke-width:1;"/><text fill="#000000" font-family="Arial" font-size="14" lengthAdjust="spacing" textLength="113.6064" x="1238.1328" y="315.3104">maestro phase list</text></g><!--entity maestro phase add--><g class="entity" data-entity="maestro phase add" data-source-line="25" data-uid="ent0012" id="entity_maestro phase add"><ellipse cx="1477.9377" cy="310.7554" fill="#FFFFFF" rx="75.1877" ry="17.4375" style="stroke:#000000;stroke-width:1;"/><text fill="#000000" font-family="Arial" font-size="14" lengthAdjust="spacing" textLength="119.8545" x="1418.0104" y="315.3047">maestro phase add</text></g><!--entity main--><g class="entity" data-entity="main" data-source-line="29" data-uid="ent0014" id="entity_main"><rect fill="#FFFFFF" height="36.0986" rx="2.5" ry="2.5" style="stroke:#000000;stroke-width:1;" width="50.3447" x="1675.77" y="157.3379"/><text fill="#000000" font-family="Arial" font-size="14" lengthAdjust="spacing" textLength="30.3447" x="1685.77" y="180.4697">main</text></g><!--entity handle_phase_command--><g class="entity" data-entity="handle_phase_command" data-source-line="30" data-uid="ent0015" id="entity_handle_phase_command"><rect fill="#FFFFFF" height="36.0986" rx="2.5" ry="2.5" style="stroke:#000000;stroke-width:1;" width="177.2266" x="1761.33" y="157.3379"/><text fill="#000000" font-family="Arial" font-size="14" lengthAdjust="spacing" textLength="157.2266" x="1771.33" y="180.4697">handle_phase_command</text></g><!--entity list_phases--><g class="entity" data-entity="list_phases" data-source-line="31" data-uid="ent0016" id="entity_list_phases"><rect fill="#FFFFFF" height="36.0986" rx="2.5" ry="2.5" style="stroke:#000000;stroke-width:1;" width="90.041" x="1973.92" y="157.3379"/><text fill="#000000" font-family="Arial" font-size="14" lengthAdjust="spacing" textLength="70.041" x="1983.92" y="180.4697">list_phases</text></g><!--entity show_phase--><g class="entity" data-entity="show_phase" data-source-line="32" data-uid="ent0017" id="entity_show_phase"><rect fill="#FFFFFF" height="36.0986" rx="2.5" ry="2.5" style="stroke:#000000;stroke-width:1;" width="98.6133" x="1675.63" y="292.7079"/><text fill="#000000" font-family="Arial" font-size="14" lengthAdjust="spacing" textLength="78.6133" x="1685.63" y="315.8397">show_phase</text></g><!--entity add_phase--><g class="entity" data-entity="add_phase" data-source-line="33" data-uid="ent0018" id="entity_add_phase"><rect fill="#FFFFFF" height="36.0986" rx="2.5" ry="2.5" style="stroke:#000000;stroke-width:1;" width="89.2891" x="1809.3" y="292.7079"/><text fill="#000000" font-family="Arial" font-size="14" lengthAdjust="spacing" textLength="69.2891" x="1819.3" y="315.8397">add_phase</text></g><!--entity NOTE_ANCHOR--><g class="entity" data-entity="N1" data-source-line="17" data-uid="ent0006" id="entity_N1"><path d="M2099.36,162.9179 L2099.36,187.8666 L2334.5172,187.8666 L2334.5172,172.9179 L2324.5172,162.9179 L2099.36,162.9179" fill="#FFFFCC" style="stroke:#CCCCCC;stroke-width:1;"/><path d="M2324.5172,162.9179 L2324.5172,172.9179 L2334.5172,172.9179 L2324.5172,162.9179" fill="#FFFFCC" style="stroke:#CCCCCC;stroke-width:1;"/><text fill="#000000" font-family="Arial" font-size="13" font-weight="bold" lengthAdjust="spacing" textLength="214.1572" x="2105.36" y="180.1117">Combined CLI + Code view (LOD1)</text></g><!--link NOTE_ANCHOR to GMN3--><!--SRC=[bLH1Rjim4Bph5LldqZg8XQH03kt9aQN6XMq5Jcv6830YPH6cI86aRHX5Fj9JtzQNT4bBhkmw0Khe879dXxCxAtsm9QiOr89m6PWLbpNHf88Nag-MMgqbZPHG6YuIlpe8oWgo5ZPHqiu8CWmr9w8J7sgjjatoPxywmPcox4vfodI3YFmwHPmJWQZ0SYiOHDFHLLqIm-0A8bMzSCaeH9FnPQGeWu-JT7JzAGZMXkKEqoCoBvNk0J4mIv_YR3YBxjDvK784TmyatWoQBqiBgZYA0FJxZsgjS_QbtuV5WghSX5kbLuLGMnDkRaAkmxoYuK7P81Tyi2ELWF_0FZy7J59mEeAz6YVvsb_VhHCkmLUwuMpRbDllTr9hR1zPOkKEEo4xXiLVnBV9voI17yXsw4n5cB5QWPVHEnyvVznxamO4D_QTCA6q5xnsHRfIMfL94j_6jrwbPhabSYay0vUzuwEII2fOvZcpN5KLxayWJiWUO4uYfbJRx51q9u3YslFNnWB1YhFp46zmVgIV2BV7gTXSXusGpAnrGNBcVDxp3IeAtGrQlKyw6O-cLosH2VS9zGxQbt-7vDp8jftqKd___0KJHfTCmpsNrhIIqnV3z0PdQaGicHAzeceheMRQOETSRS3bNzNuuRCQdColiBd1hjKAh5xRqZbjuFjZUamwQ7sdt7LOwHq2dUDlad8bY4Mg99tVZKVPF7v8iz4nQTMgB3ZwrPLQu7-Ye-dzIv0KdyLYC0Zn6KyV9l4qdZqDdyRfB9l4es_nt3bsDk2jQrFTZTgQKFZsPZbwngahmgKtFOyEXrtl_W00]--></g></svg>