<svg xmlns="http://www.w3.org/2000/svg" xmlns:xlink="http://www.w3.org/1999/xlink" contentStyleType="text/css" data-diagram-type="DESCRIPTION" height="337px" preserveAspectRatio="none" style="width:2455px;height:337px;background:#FFFFFF;" version="1.1" viewBox="0 0 2455 337" width="2455px" zoomAndPan="magnify"><title>CMD-work - Combined CLI+Code (LOD1)</title><defs/><g><g class="title" data-source-line="8"><text fill="#000000" font-family="Arial" font-size="22" font-weight="bold" lengthAdjust="spacing" textLength="424.7139" x="1010.9767" y="35.6357">CMD-work - Combined CLI+Code (LOD1)</text></g><!--cluster CLI Layer--><g class="cluster" data-entity="CLI Layer" data-source-line="20" data-uid="ent0007" id="cluster_CLI Layer"><path d="M1229.59,121.9879 L1294.3898,121.9879 A3.75,3.75 0 0 1 1296.8898,124.4879 L1303.8898,144.0865 L1758.59,144.0865 A2.5,2.5 0 0 1 1761.09,146.5865 L1761.09,327.9579 A2.5,2.5 0 0 1 1758.59,330.4579 L1229.59,330.4579 A2.5,2.5 0 0 1 1227.09,327.9579 L1227.09,124.4879 A2.5,2.5 0 0 1 1229.59,121.9879" fill="#E6F3FF" style="stroke:#000000;stroke-width:1;"/><line style="stroke:#000000;stroke-width:1;" x1="1227.09" x2="1303.8898" y1="144.0865" y2="144.0865"/><text fill="#000000" font-family="Arial" font-size="14" font-weight="bold" lengthAdjust="spacing" textLength="63.7998" x="1231.09" y="137.1197">CLI Layer</text></g><!--cluster Code Layer--><g class="cluster" data-entity="Code Layer" data-source-line="28" data-uid="ent0013" id="cluster_Code Layer"><path d="M1787.59,123.0279 L1864.838,123.0279 A3.75,3.75 0 0 1 1867.338,125.5279 L1874.338,145.1265 L2192.59,145.1265 A2.5,2.5 0 0 1 2195.09,147.6265 L2195.09,328.0479 A2.5,2.5 0 0 1 2192.59,330.5479 L1787.59,330.5479 A2.5,2.5 0 0 1 1785.09,328.0479 L1785.09,125.5279 A2.5,2.5 0 0 1 1787.59,123.0279" fill="#FFE6E6" style="stroke:#000000;stroke-width:1;"/><line style="stroke:#000000;stroke-width:1;" x1="1785.09" x2="1874.338" y1="145.1265" y2="145.1265"/><text fill="#000000" font-family="Arial" font-size="14" font-weight="bold" lengthAdjust="spacing" textLength="76.248" x="1789.09" y="138.1597">Code Layer</text></g><!--entity maestro work--><g class="entity" data-entity="maestro work" data-source-line="21" data-uid="ent0008" id="entity_maestro work"><ellipse cx="1304.0877" cy="176.0734" fill="#FFFFFF" rx="61.1777" ry="14.6355" style="stroke:#000000;stroke-width:1;"/><text fill="#000000" font-family="Arial" font-size="14" lengthAdjust="spacing" textLength="84.0205" x="1262.0775" y="180.6227">maestro work</text></g><!--entity maestro work any--><g class="entity" data-entity="maestro work any" data-source-line="22" data-uid="ent0009" id="entity_maestro work any"><ellipse cx="1472.0875" cy="176.0773" fill="#FFFFFF" rx="71.3475" ry="16.6695" style="stroke:#000000;stroke-width:1;"/><text fill="#000000" font-family="Arial" font-size="14" lengthAdjust="spacing" textLength="110.4824" x="1416.8463" y="180.6267">maestro work any</text></g><!--entity maestro work any pick--><g class="entity" data-entity="maestro work any pick" data-source-line="23" data-uid="ent0010" id="entity_maestro work any pick"><ellipse cx="1662.0884" cy="176.0735" fill="#FFFFFF" rx="83.4284" ry="19.0857" style="stroke:#000000;stroke-width:1;"/><text fill="#000000" font-family="Arial" font-size="14" lengthAdjust="spacing" textLength="139.2686" x="1592.4541" y="180.6228">maestro work any pick</text></g><!--entity maestro work track--><g class="entity" data-entity="maestro work track" data-source-line="24" data-uid="ent0011" id="entity_maestro work track"><ellipse cx="1318.0923" cy="296.5023" fill="#FFFFFF" rx="74.5223" ry="17.3045" style="stroke:#000000;stroke-width:1;"/><text fill="#000000" font-family="Arial" font-size="14" lengthAdjust="spacing" textLength="118.248" x="1258.9683" y="301.0516">maestro work track</text></g><!--entity maestro work phase--><g class="entity" data-entity="maestro work phase" data-source-line="25" data-uid="ent0012" id="entity_maestro work phase"><ellipse cx="1505.0912" cy="296.4941" fill="#FFFFFF" rx="77.7812" ry="17.9562" style="stroke:#000000;stroke-width:1;"/><text fill="#000000" font-family="Arial" font-size="14" lengthAdjust="spacing" textLength="126.0547" x="1442.0639" y="301.0434">maestro work phase</text></g><!--entity main--><g class="entity" data-entity="main" data-source-line="29" data-uid="ent0014" id="entity_main"><rect fill="#FFFFFF" height="36.0986" rx="2.5" ry="2.5" style="stroke:#000000;stroke-width:1;" width="50.3447" x="1800.92" y="158.0279"/><text fill="#000000" font-family="Arial" font-size="14" lengthAdjust="spacing" textLength="30.3447" x="1810.92" y="181.1597">main</text></g><!--entity add_work_parser--><g class="entity" data-entity="add_work_parser" data-source-line="30" data-uid="ent0015" id="entity_add_work_parser"><rect fill="#FFFFFF" height="36.0986" rx="2.5" ry="2.5" style="stroke:#000000;stroke-width:1;" width="128.1719" x="1886" y="158.0279"/><text fill="#000000" font-family="Arial" font-size="14" lengthAdjust="spacing" textLength="108.1719" x="1896" y="181.1597">add_work_parser</text></g><!--entity handle_work_any--><g class="entity" data-entity="handle_work_any" data-source-line="31" data-uid="ent0016" id="entity_handle_work_any"><rect fill="#FFFFFF" height="36.0986" rx="2.5" ry="2.5" style="stroke:#000000;stroke-width:1;" width="129.7441" x="2049.22" y="158.0279"/><text fill="#000000" font-family="Arial" font-size="14" lengthAdjust="spacing" textLength="109.7441" x="2059.22" y="181.1597">handle_work_any</text></g><!--entity handle_work_any_pick--><g class="entity" data-entity="handle_work_any_pick" data-source-line="32" data-uid="ent0017" id="entity_handle_work_any_pick"><rect fill="#FFFFFF" height="36.0986" rx="2.5" ry="2.5" style="stroke:#000000;stroke-width:1;" width="162.4268" x="1800.87" y="278.4479"/><text fill="#000000" font-family="Arial" font-size="14" lengthAdjust="spacing" textLength="142.4268" x="1810.87" y="301.5797">handle_work_any_pick</text></g><!--entity handle_work_track--><g class="entity" data-entity="handle_work_track" data-source-line="33" data-uid="ent0018" id="entity_handle_work_track"><rect fill="#FFFFFF" height="36.0986" rx="2.5" ry="2.5" style="stroke:#000000;stroke-width:1;" width="137.5098" x="1998.33" y="278.4479"/><text fill="#000000" font-family="Arial" font-size="14" lengthAdjust="spacing" textLength="117.5098" x="2008.33" y="301.5797">handle_work_track</text></g><!--entity NOTE_ANCHOR--><g class="entity" data-entity="N1" data-source-line="17" data-uid="ent0006" id="entity_N1"><path d="M2213.51,163.6079 L2213.51,188.5566 L2448.6672,188.5566 L2448.6672,173.6079 L2438.6672,163.6079 L2213.51,163.6079" fill="#FFFFCC" style="stroke:#CCCCCC;stroke-width:1;"/><path d="M2438.6672,163.6079 L2438.6672,173.6079 L2448.6672,173.6079 L2438.6672,163.6079" fill="#FFFFCC" style="stroke:#CCCCCC;stroke-width:1;"/><text fill="#000000" font-family="Arial" font-size="13" font-weight="bold" lengthAdjust="spacing" textLength="214.1572" x="2219.51" y="180.8017">Combined CLI + Code view (LOD1)</text></g><!--link NOTE_ANCHOR to GMN3--><!--SRC=[ZLD1Rjim4Bph5LldqZg8XII03-t9bQN6XIqLIMv6833YsY9CaG99sp2AV2IdlgqlwLAH3JbnWXAwQ6TsERCQVN8bLWYrP485TYLKpGohu94LgwNHQyKZBRM1iwGv7GR71LjBbsZbKaOJHaOmsS57nkXjstpTd0wOQeVVjU5eMaRKdDUCKoA85JZX948q6rzijLd11KIwUXGAEKJJoNcaESBdQJQ-_184Qui5imWzfefIcnum2sbs7-UZDBh9ReDI4BbRK7Gn6B4i7UZ54GBGxz_fjIdmQxyFypdNXGszW8NKMnjkha9XmgBYuLxOe91Yi6ELXF-dFZm4g3Xu5S6B5Y_uihcywnBEeV6v4RXjpVRxdTQQTiUMvDjpfso7PFqi7YRNIGA_QTfXBnL3wum6hwBt7W1CxJu4eHR51-tEi8_WkgHQBtZgolRczhgJ91x6mqQtmS8njPJD2A5wnoN6UUudvXGYIwt7QCaKb_X2Q0szZ-PxH-zGMajFxLUIk3WPc7X30LDDPFmxnMPp6HQwgcXKCsXGSNZrJXauJQtNbAKtbIvTA8T6CHbonDedx4MiVskxtvJU9kvK-lSVeJ7rz_aFJ94lqS0DtMZtvh97Mlg60ZfcZisOMN6zLL2ZiS8wlmKGwg00l0BmFyGts5pHccjDELcxqeV4mi-xBAMXzCpdWq58psJsQnhFulH-T3_9qdmQZt_4jtvz9u5cA_jMFzmu6yf6T5xG_WHd3grlRvr4Xs9t8_y0]--></g></svg>