<svg xmlns="http://www.w3.org/2000/svg" xmlns:xlink="http://www.w3.org/1999/xlink" contentStyleType="text/css" data-diagram-type="DESCRIPTION" height="485px" preserveAspectRatio="none" style="width:3976px;height:485px;background:#FFFFFF;" version="1.1" viewBox="0 0 3976 485" width="3976px" zoomAndPan="magnify"><title>CMD-ops - ops deep internal flow (observed) (LOD2: Code Detail)</title><defs/><g><g class="title" data-source-line="8"><text fill="#000000" font-family="Arial" font-size="22" font-weight="bold" lengthAdjust="spacing" textLength="680.8184" x="1643.4648" y="35.6357">CMD-ops - ops deep internal flow (observed) (LOD2: Code Detail)</text></g><!--entity NOTE_ANCHOR--><!--entity main_entry--><g class="entity" data-entity="main_entry" data-source-line="16" data-uid="ent0006" id="entity_main_entry"><rect fill="#E6F3FF" height="52.1973" rx="2.5" ry="2.5" style="stroke:#000000;stroke-width:1;" width="123.4824" x="1823.53" y="58.2979"/><text fill="#000000" font-family="Arial" font-size="14" lengthAdjust="spacing" textLength="69.2549" x="1833.53" y="81.4297">main_entry</text><text fill="#000000" font-family="Arial" font-size="14" lengthAdjust="spacing" textLength="103.4824" x="1833.53" y="97.5283">maestro/main.py</text></g><!--entity add_project_ops_parser--><g class="entity" data-entity="add_project_ops_parser" data-source-line="17" data-uid="ent0007" id="entity_add_project_ops_parser"><rect fill="#E6F3FF" height="52.1973" rx="2.5" ry="2.5" style="stroke:#000000;stroke-width:1;" width="237.875" x="1356.33" y="170.4979"/><text fill="#000000" font-family="Arial" font-size="14" lengthAdjust="spacing" textLength="150.9922" x="1366.33" y="193.6297">add_project_ops_parser</text><text fill="#000000" font-family="Arial" font-size="14" lengthAdjust="spacing" textLength="217.875" x="1366.33" y="209.7283">maestro/project_ops/commands.py</text></g><!--entity handle_project_ops_validate--><g class="entity" data-entity="handle_project_ops_validate" data-source-line="18" data-uid="ent0008" id="entity_handle_project_ops_validate"><rect fill="#E6F3FF" height="52.1973" rx="2.5" ry="2.5" style="stroke:#000000;stroke-width:1;" width="237.875" x="1629.33" y="170.4979"/><text fill="#000000" font-family="Arial" font-size="14" lengthAdjust="spacing" textLength="178.2471" x="1639.33" y="193.6297">handle_project_ops_validate</text><text fill="#000000" font-family="Arial" font-size="14" lengthAdjust="spacing" textLength="217.875" x="1639.33" y="209.7283">maestro/project_ops/commands.py</text></g><!--entity handle_project_ops_preview--><g class="entity" data-entity="handle_project_ops_preview" data-source-line="19" data-uid="ent0009" id="entity_handle_project_ops_preview"><rect fill="#E6F3FF" height="52.1973" rx="2.5" ry="2.5" style="stroke:#000000;stroke-width:1;" width="237.875" x="1902.33" y="170.4979"/><text fill="#000000" font-family="Arial" font-size="14" lengthAdjust="spacing" textLength="178.2334" x="1912.33" y="193.6297">handle_project_ops_preview</text><text fill="#000000" font-family="Arial" font-size="14" lengthAdjust="spacing" textLength="217.875" x="1912.33" y="209.7283">maestro/project_ops/commands.py</text></g><!--entity handle_project_ops_apply--><g class="entity" data-entity="handle_project_ops_apply" data-source-line="20" data-uid="ent0010" id="entity_handle_project_ops_apply"><rect fill="#E6F3FF" height="52.1973" rx="2.5" ry="2.5" style="stroke:#000000;stroke-width:1;" width="237.875" x="2175.33" y="170.4979"/><text fill="#000000" font-family="Arial" font-size="14" lengthAdjust="spacing" textLength="163.4609" x="2185.33" y="193.6297">handle_project_ops_apply</text><text fill="#000000" font-family="Arial" font-size="14" lengthAdjust="spacing" textLength="217.875" x="2185.33" y="209.7283">maestro/project_ops/commands.py</text></g><!--entity decode_project_ops_json--><g class="entity" data-entity="decode_project_ops_json" data-source-line="21" data-uid="ent0011" id="entity_decode_project_ops_json"><rect fill="#E6F3FF" height="52.1973" rx="2.5" ry="2.5" style="stroke:#000000;stroke-width:1;" width="219.999" x="1654.27" y="295.1379"/><text fill="#000000" font-family="Arial" font-size="14" lengthAdjust="spacing" textLength="159.5645" x="1664.27" y="318.2697">decode_project_ops_json</text><text fill="#000000" font-family="Arial" font-size="14" lengthAdjust="spacing" textLength="199.999" x="1664.27" y="334.3683">maestro/project_ops/decoder.py</text></g><!--entity validate_project_ops_result--><g class="entity" data-entity="validate_project_ops_result" data-source-line="22" data-uid="ent0012" id="entity_validate_project_ops_result"><rect fill="#E6F3FF" height="52.1973" rx="2.5" ry="2.5" style="stroke:#000000;stroke-width:1;" width="225.4268" x="1651.56" y="419.7879"/><text fill="#000000" font-family="Arial" font-size="14" lengthAdjust="spacing" textLength="170.4404" x="1661.56" y="442.9197">validate_project_ops_result</text><text fill="#000000" font-family="Arial" font-size="14" lengthAdjust="spacing" textLength="205.4268" x="1661.56" y="459.0183">maestro/project_ops/schemas.py</text></g><!--entity actions_to_ops--><g class="entity" data-entity="actions_to_ops" data-source-line="23" data-uid="ent0013" id="entity_actions_to_ops"><rect fill="#E6F3FF" height="52.1973" rx="2.5" ry="2.5" style="stroke:#000000;stroke-width:1;" width="227.7646" x="2174.39" y="295.1379"/><text fill="#000000" font-family="Arial" font-size="14" lengthAdjust="spacing" textLength="94.1787" x="2184.39" y="318.2697">actions_to_ops</text><text fill="#000000" font-family="Arial" font-size="14" lengthAdjust="spacing" textLength="207.7646" x="2184.39" y="334.3683">maestro/project_ops/translator.py</text></g><!--entity project_ops_executor--><g class="entity" data-entity="project_ops_executor" data-source-line="24" data-uid="ent0014" id="entity_project_ops_executor"><rect fill="#FFFFFF" height="46.0986" rx="2.5" ry="2.5" style="stroke:#000000;stroke-width:1;" width="173.8613" x="1923.34" y="422.8379"/><rect fill="#FFFFFF" height="10" style="stroke:#000000;stroke-width:1;" width="15" x="2077.2013" y="427.8379"/><rect fill="#FFFFFF" height="2" style="stroke:#000000;stroke-width:1;" width="4" x="2075.2013" y="429.8379"/><rect fill="#FFFFFF" height="2" style="stroke:#000000;stroke-width:1;" width="4" x="2075.2013" y="433.8379"/><text fill="#000000" font-family="Arial" font-size="14" lengthAdjust="spacing" textLength="133.8613" x="1938.34" y="455.9697">project_ops_executor</text></g><!--entity preview_ops--><g class="entity" data-entity="preview_ops" data-source-line="25" data-uid="ent0015" id="entity_preview_ops"><rect fill="#E6F3FF" height="52.1973" rx="2.5" ry="2.5" style="stroke:#000000;stroke-width:1;" width="223.1025" x="1909.72" y="295.1379"/><text fill="#000000" font-family="Arial" font-size="14" lengthAdjust="spacing" textLength="78.5996" x="1919.72" y="318.2697">preview_ops</text><text fill="#000000" font-family="Arial" font-size="14" lengthAdjust="spacing" textLength="203.1025" x="1919.72" y="334.3683">maestro/project_ops/executor.py</text></g><!--entity apply_ops--><g class="entity" data-entity="apply_ops" data-source-line="26" data-uid="ent0016" id="entity_apply_ops"><rect fill="#E6F3FF" height="52.1973" rx="2.5" ry="2.5" style="stroke:#000000;stroke-width:1;" width="223.1025" x="2736.72" y="295.1379"/><text fill="#000000" font-family="Arial" font-size="14" lengthAdjust="spacing" textLength="63.8271" x="2746.72" y="318.2697">apply_ops</text><text fill="#000000" font-family="Arial" font-size="14" lengthAdjust="spacing" textLength="203.1025" x="2746.72" y="334.3683">maestro/project_ops/executor.py</text></g><!--entity insert_track_block--><g class="entity" data-entity="insert_track_block" data-source-line="27" data-uid="ent0017" id="entity_insert_track_block"><rect fill="#E6F3FF" height="52.1973" rx="2.5" ry="2.5" style="stroke:#000000;stroke-width:1;" width="230.8613" x="2599.84" y="419.7879"/><text fill="#000000" font-family="Arial" font-size="14" lengthAdjust="spacing" textLength="112.8271" x="2609.84" y="442.9197">insert_track_block</text><text fill="#000000" font-family="Arial" font-size="14" lengthAdjust="spacing" textLength="210.8613" x="2609.84" y="459.0183">maestro/data/markdown_writer.py</text></g><!--entity insert_phase_block--><g class="entity" data-entity="insert_phase_block" data-source-line="28" data-uid="ent0018" id="entity_insert_phase_block"><rect fill="#E6F3FF" height="52.1973" rx="2.5" ry="2.5" style="stroke:#000000;stroke-width:1;" width="230.8613" x="2865.84" y="419.7879"/><text fill="#000000" font-family="Arial" font-size="14" lengthAdjust="spacing" textLength="120.6338" x="2875.84" y="442.9197">insert_phase_block</text><text fill="#000000" font-family="Arial" font-size="14" lengthAdjust="spacing" textLength="210.8613" x="2875.84" y="459.0183">maestro/data/markdown_writer.py</text></g><!--entity insert_task_block--><g class="entity" data-entity="insert_task_block" data-source-line="29" data-uid="ent0019" id="entity_insert_task_block"><rect fill="#E6F3FF" height="52.1973" rx="2.5" ry="2.5" style="stroke:#000000;stroke-width:1;" width="230.8613" x="3131.84" y="419.7879"/><text fill="#000000" font-family="Arial" font-size="14" lengthAdjust="spacing" textLength="108.165" x="3141.84" y="442.9197">insert_task_block</text><text fill="#000000" font-family="Arial" font-size="14" lengthAdjust="spacing" textLength="210.8613" x="3141.84" y="459.0183">maestro/data/markdown_writer.py</text></g><!--entity update_task_metadata--><g class="entity" data-entity="update_task_metadata" data-source-line="30" data-uid="ent0020" id="entity_update_task_metadata"><rect fill="#E6F3FF" height="52.1973" rx="2.5" ry="2.5" style="stroke:#000000;stroke-width:1;" width="230.8613" x="486.84" y="58.2979"/><text fill="#000000" font-family="Arial" font-size="14" lengthAdjust="spacing" textLength="142.4404" x="496.84" y="81.4297">update_task_metadata</text><text fill="#000000" font-family="Arial" font-size="14" lengthAdjust="spacing" textLength="210.8613" x="496.84" y="97.5283">maestro/data/markdown_writer.py</text></g><!--entity update_phase_metadata--><g class="entity" data-entity="update_phase_metadata" data-source-line="31" data-uid="ent0021" id="entity_update_phase_metadata"><rect fill="#E6F3FF" height="52.1973" rx="2.5" ry="2.5" style="stroke:#000000;stroke-width:1;" width="230.8613" x="752.84" y="58.2979"/><text fill="#000000" font-family="Arial" font-size="14" lengthAdjust="spacing" textLength="154.9092" x="762.84" y="81.4297">update_phase_metadata</text><text fill="#000000" font-family="Arial" font-size="14" lengthAdjust="spacing" textLength="210.8613" x="762.84" y="97.5283">maestro/data/markdown_writer.py</text></g><!--entity update_track_metadata--><g class="entity" data-entity="update_track_metadata" data-source-line="32" data-uid="ent0022" id="entity_update_track_metadata"><rect fill="#E6F3FF" height="52.1973" rx="2.5" ry="2.5" style="stroke:#000000;stroke-width:1;" width="230.8613" x="1018.84" y="58.2979"/><text fill="#000000" font-family="Arial" font-size="14" lengthAdjust="spacing" textLength="147.1025" x="1028.84" y="81.4297">update_track_metadata</text><text fill="#000000" font-family="Arial" font-size="14" lengthAdjust="spacing" textLength="210.8613" x="1028.84" y="97.5283">maestro/data/markdown_writer.py</text></g><!--entity json_store--><g class="entity" data-entity="json_store" data-source-line="33" data-uid="ent0023" id="entity_json_store"><rect fill="#FFFFFF" height="46.0986" rx="2.5" ry="2.5" style="stroke:#000000;stroke-width:1;" width="104.5928" x="3397.97" y="422.8379"/><rect fill="#FFFFFF" height="10" style="stroke:#000000;stroke-width:1;" width="15" x="3482.5628" y="427.8379"/><rect fill="#FFFFFF" height="2" style="stroke:#000000;stroke-width:1;" width="4" x="3480.5628" y="429.8379"/><rect fill="#FFFFFF" height="2" style="stroke:#000000;stroke-width:1;" width="4" x="3480.5628" y="433.8379"/><text fill="#000000" font-family="Arial" font-size="14" lengthAdjust="spacing" textLength="64.5928" x="3412.97" y="455.9697">json_store</text></g><!--entity save_track--><g class="entity" data-entity="save_track" data-source-line="34" data-uid="ent0024" id="entity_save_track"><rect fill="#E6F3FF" height="52.1973" rx="2.5" ry="2.5" style="stroke:#000000;stroke-width:1;" width="198.958" x="3537.79" y="419.7879"/><text fill="#000000" font-family="Arial" font-size="14" lengthAdjust="spacing" textLength="67.6963" x="3547.79" y="442.9197">save_track</text><text fill="#000000" font-family="Arial" font-size="14" lengthAdjust="spacing" textLength="178.958" x="3547.79" y="459.0183">maestro/tracks/json_store.py</text></g><!--entity save_phase--><g class="entity" data-entity="save_phase" data-source-line="35" data-uid="ent0025" id="entity_save_phase"><rect fill="#E6F3FF" height="52.1973" rx="2.5" ry="2.5" style="stroke:#000000;stroke-width:1;" width="198.958" x="3771.79" y="419.7879"/><text fill="#000000" font-family="Arial" font-size="14" lengthAdjust="spacing" textLength="75.5029" x="3781.79" y="442.9197">save_phase</text><text fill="#000000" font-family="Arial" font-size="14" lengthAdjust="spacing" textLength="178.958" x="3781.79" y="459.0183">maestro/tracks/json_store.py</text></g><!--entity save_task--><g class="entity" data-entity="save_task" data-source-line="36" data-uid="ent0026" id="entity_save_task"><rect fill="#E6F3FF" height="52.1973" rx="2.5" ry="2.5" style="stroke:#000000;stroke-width:1;" width="198.958" x="1284.79" y="58.2979"/><text fill="#000000" font-family="Arial" font-size="14" lengthAdjust="spacing" textLength="63.0342" x="1294.79" y="81.4297">save_task</text><text fill="#000000" font-family="Arial" font-size="14" lengthAdjust="spacing" textLength="178.958" x="1294.79" y="97.5283">maestro/tracks/json_store.py</text></g><!--entity load_track--><g class="entity" data-entity="load_track" data-source-line="37" data-uid="ent0027" id="entity_load_track"><rect fill="#E6F3FF" height="52.1973" rx="2.5" ry="2.5" style="stroke:#000000;stroke-width:1;" width="198.958" x="2131.79" y="419.7879"/><text fill="#000000" font-family="Arial" font-size="14" lengthAdjust="spacing" textLength="64.5928" x="2141.79" y="442.9197">load_track</text><text fill="#000000" font-family="Arial" font-size="14" lengthAdjust="spacing" textLength="178.958" x="2141.79" y="459.0183">maestro/tracks/json_store.py</text></g><!--entity load_phase--><g class="entity" data-entity="load_phase" data-source-line="38" data-uid="ent0028" id="entity_load_phase"><rect fill="#E6F3FF" height="52.1973" rx="2.5" ry="2.5" style="stroke:#000000;stroke-width:1;" width="198.958" x="502.79" y="170.4979"/><text fill="#000000" font-family="Arial" font-size="14" lengthAdjust="spacing" textLength="72.3994" x="512.79" y="193.6297">load_phase</text><text fill="#000000" font-family="Arial" font-size="14" lengthAdjust="spacing" textLength="178.958" x="512.79" y="209.7283">maestro/tracks/json_store.py</text></g><!--entity load_task--><g class="entity" data-entity="load_task" data-source-line="39" data-uid="ent0029" id="entity_load_task"><rect fill="#E6F3FF" height="52.1973" rx="2.5" ry="2.5" style="stroke:#000000;stroke-width:1;" width="198.958" x="736.79" y="170.4979"/><text fill="#000000" font-family="Arial" font-size="14" lengthAdjust="spacing" textLength="59.9307" x="746.79" y="193.6297">load_task</text><text fill="#000000" font-family="Arial" font-size="14" lengthAdjust="spacing" textLength="178.958" x="746.79" y="209.7283">maestro/tracks/json_store.py</text></g><!--entity load_index--><g class="entity" data-entity="load_index" data-source-line="40" data-uid="ent0030" id="entity_load_index"><rect fill="#E6F3FF" height="52.1973" rx="2.5" ry="2.5" style="stroke:#000000;stroke-width:1;" width="198.958" x="970.79" y="170.4979"/><text fill="#000000" font-family="Arial" font-size="14" lengthAdjust="spacing" textLength="67.7236" x="980.79" y="193.6297">load_index</text><text fill="#000000" font-family="Arial" font-size="14" lengthAdjust="spacing" textLength="178.958" x="980.79" y="209.7283">maestro/tracks/json_store.py</text></g><!--entity save_index--><g class="entity" data-entity="save_index" data-source-line="41" data-uid="ent0031" id="entity_save_index"><rect fill="#E6F3FF" height="52.1973" rx="2.5" ry="2.5" style="stroke:#000000;stroke-width:1;" width="198.958" x="2365.79" y="419.7879"/><text fill="#000000" font-family="Arial" font-size="14" lengthAdjust="spacing" textLength="70.8271" x="2375.79" y="442.9197">save_index</text><text fill="#000000" font-family="Arial" font-size="14" lengthAdjust="spacing" textLength="178.958" x="2375.79" y="459.0183">maestro/tracks/json_store.py</text></g><!--entity track_model--><g class="entity" data-entity="track_model" data-source-line="42" data-uid="ent0032" id="entity_track_model"><rect fill="#FFFFFF" height="46.0986" rx="2.5" ry="2.5" style="stroke:#000000;stroke-width:1;" width="116.2549" x="1205.14" y="173.5479"/><rect fill="#FFFFFF" height="10" style="stroke:#000000;stroke-width:1;" width="15" x="1301.3949" y="178.5479"/><rect fill="#FFFFFF" height="2" style="stroke:#000000;stroke-width:1;" width="4" x="1299.3949" y="180.5479"/><rect fill="#FFFFFF" height="2" style="stroke:#000000;stroke-width:1;" width="4" x="1299.3949" y="184.5479"/><text fill="#000000" font-family="Arial" font-size="14" lengthAdjust="spacing" textLength="76.2549" x="1220.14" y="206.6797">track_model</text></g><!--entity phase_model--><g class="entity" data-entity="phase_model" data-source-line="43" data-uid="ent0033" id="entity_phase_model"><rect fill="#FFFFFF" height="46.0986" rx="2.5" ry="2.5" style="stroke:#000000;stroke-width:1;" width="124.0615" x="540.24" y="298.1879"/><rect fill="#FFFFFF" height="10" style="stroke:#000000;stroke-width:1;" width="15" x="644.3015" y="303.1879"/><rect fill="#FFFFFF" height="2" style="stroke:#000000;stroke-width:1;" width="4" x="642.3015" y="305.1879"/><rect fill="#FFFFFF" height="2" style="stroke:#000000;stroke-width:1;" width="4" x="642.3015" y="309.1879"/><text fill="#000000" font-family="Arial" font-size="14" lengthAdjust="spacing" textLength="84.0615" x="555.24" y="331.3197">phase_model</text></g><!--entity task_model--><g class="entity" data-entity="task_model" data-source-line="44" data-uid="ent0034" id="entity_task_model"><rect fill="#FFFFFF" height="46.0986" rx="2.5" ry="2.5" style="stroke:#000000;stroke-width:1;" width="111.5928" x="699.47" y="298.1879"/><rect fill="#FFFFFF" height="10" style="stroke:#000000;stroke-width:1;" width="15" x="791.0628" y="303.1879"/><rect fill="#FFFFFF" height="2" style="stroke:#000000;stroke-width:1;" width="4" x="789.0628" y="305.1879"/><rect fill="#FFFFFF" height="2" style="stroke:#000000;stroke-width:1;" width="4" x="789.0628" y="309.1879"/><text fill="#000000" font-family="Arial" font-size="14" lengthAdjust="spacing" textLength="71.5928" x="714.47" y="331.3197">task_model</text></g><!--entity file_system--><g class="entity" data-entity="file_system" data-source-line="45" data-uid="ent0035" id="entity_file_system"><ellipse cx="882.272" cy="291.6879" fill="#FFFFFF" rx="8" ry="8" style="stroke:#000000;stroke-width:1;"/><path d="M882.272,299.6879 L882.272,326.6879 M869.272,307.6879 L895.272,307.6879 M882.272,326.6879 L869.272,341.6879 M882.272,326.6879 L895.272,341.6879" fill="none" style="stroke:#000000;stroke-width:1;"/><text fill="#000000" font-family="Arial" font-size="14" lengthAdjust="spacing" textLength="73.124" x="845.71" y="356.8197">File System</text></g><!--entity docs_todo_md--><g class="entity" data-entity="docs_todo_md" data-source-line="46" data-uid="ent0036" id="entity_docs_todo_md"><path d="M953.35,308.6879 C953.35,298.6879 1009.2704,298.6879 1009.2704,298.6879 C1009.2704,298.6879 1065.1908,298.6879 1065.1908,308.6879 L1065.1908,333.7865 C1065.1908,343.7865 1009.2704,343.7865 1009.2704,343.7865 C1009.2704,343.7865 953.35,343.7865 953.35,333.7865 L953.35,308.6879" fill="#FFE6E6" style="stroke:#000000;stroke-width:1;"/><path d="M953.35,308.6879 C953.35,318.6879 1009.2704,318.6879 1009.2704,318.6879 C1009.2704,318.6879 1065.1908,318.6879 1065.1908,308.6879" fill="none" style="stroke:#000000;stroke-width:1;"/><text fill="#000000" font-family="Arial" font-size="14" lengthAdjust="spacing" textLength="91.8408" x="963.35" y="335.8197">docs_todo_md</text></g><!--entity maestro_tracks_json--><g class="entity" data-entity="maestro_tracks_json" data-source-line="47" data-uid="ent0037" id="entity_maestro_tracks_json"><path d="M527.69,433.3379 C527.69,423.3379 602.2725,423.3379 602.2725,423.3379 C602.2725,423.3379 676.855,423.3379 676.855,433.3379 L676.855,458.4365 C676.855,468.4365 602.2725,468.4365 602.2725,468.4365 C602.2725,468.4365 527.69,468.4365 527.69,458.4365 L527.69,433.3379" fill="#FFE6E6" style="stroke:#000000;stroke-width:1;"/><path d="M527.69,433.3379 C527.69,443.3379 602.2725,443.3379 602.2725,443.3379 C602.2725,443.3379 676.855,443.3379 676.855,433.3379" fill="none" style="stroke:#000000;stroke-width:1;"/><text fill="#000000" font-family="Arial" font-size="14" lengthAdjust="spacing" textLength="129.165" x="537.69" y="460.4697">maestro_tracks_json</text></g><!--link main_entry to add_project_ops_parser--><g class="link" data-entity-1="main_entry" data-entity-2="add_project_ops_parser" data-source-line="48" data-uid="lnk38" id="link_main_entry_add_project_ops_parser"><path d="M1823.44,102.0179 C1756.33,120.0479 1654.1243,147.5202 1576.1943,168.4702" fill="none" id="main_entry-to-add_project_ops_parser" style="stroke:#333333;stroke-width:1;"/><polygon fill="#333333" points="1570.4,170.0279,1580.1299,171.5542,1575.2286,168.7298,1578.053,163.8285,1570.4,170.0279" style="stroke:#333333;stroke-width:1;"/></g><!--link main_entry to handle_project_ops_validate--><g class="link" data-entity-1="main_entry" data-entity-2="handle_project_ops_validate" data-source-line="49" data-uid="lnk39" id="link_main_entry_handle_project_ops_validate"><path d="M1853.49,110.9579 C1831.36,128.7579 1806.6449,148.6368 1784.5449,166.4168" fill="none" id="main_entry-to-handle_project_ops_validate" style="stroke:#333333;stroke-width:1;"/><polygon fill="#333333" points="1779.87,170.1779,1789.3897,167.6529,1783.7657,167.0436,1784.3749,161.4197,1779.87,170.1779" style="stroke:#333333;stroke-width:1;"/></g><!--link main_entry to handle_project_ops_preview--><g class="link" data-entity-1="main_entry" data-entity-2="handle_project_ops_preview" data-source-line="50" data-uid="lnk40" id="link_main_entry_handle_project_ops_preview"><path d="M1916.81,110.9579 C1938.78,128.7579 1963.2985,148.6202 1985.2385,166.4002" fill="none" id="main_entry-to-handle_project_ops_preview" style="stroke:#333333;stroke-width:1;"/><polygon fill="#333333" points="1989.9,170.1779,1985.4262,161.4037,1986.0154,167.0298,1980.3893,167.6191,1989.9,170.1779" style="stroke:#333333;stroke-width:1;"/></g><!--link main_entry to handle_project_ops_apply--><g class="link" data-entity-1="main_entry" data-entity-2="handle_project_ops_apply" data-source-line="51" data-uid="lnk41" id="link_main_entry_handle_project_ops_apply"><path d="M1947.39,102.1279 C2014.43,120.1979 2116.2066,147.6171 2193.7866,168.5171" fill="none" id="main_entry-to-handle_project_ops_apply" style="stroke:#333333;stroke-width:1;"/><polygon fill="#333333" points="2199.58,170.0779,2191.9303,163.8744,2194.7521,168.7772,2189.8493,171.599,2199.58,170.0779" style="stroke:#333333;stroke-width:1;"/></g><!--link handle_project_ops_validate to decode_project_ops_json--><g class="link" data-entity-1="handle_project_ops_validate" data-entity-2="decode_project_ops_json" data-source-line="52" data-uid="lnk42" id="link_handle_project_ops_validate_decode_project_ops_json"><path d="M1751.58,223.0079 C1754.33,244.0579 1757.4324,267.8685 1760.1824,288.9085" fill="none" id="handle_project_ops_validate-to-decode_project_ops_json" style="stroke:#333333;stroke-width:1;"/><polygon fill="#333333" points="1760.96,294.8579,1763.7599,285.4154,1760.312,289.9,1755.8273,286.4522,1760.96,294.8579" style="stroke:#333333;stroke-width:1;"/></g><!--link decode_project_ops_json to validate_project_ops_result--><g class="link" data-entity-1="decode_project_ops_json" data-entity-2="validate_project_ops_result" data-source-line="53" data-uid="lnk43" id="link_decode_project_ops_json_validate_project_ops_result"><path d="M1764.27,347.6579 C1764.27,368.7079 1764.27,392.4679 1764.27,413.5079" fill="none" id="decode_project_ops_json-to-validate_project_ops_result" style="stroke:#333333;stroke-width:1;"/><polygon fill="#333333" points="1764.27,419.5079,1768.27,410.5079,1764.27,414.5079,1760.27,410.5079,1764.27,419.5079" style="stroke:#333333;stroke-width:1;"/></g><!--link handle_project_ops_preview to decode_project_ops_json--><g class="link" data-entity-1="handle_project_ops_preview" data-entity-2="decode_project_ops_json" data-source-line="54" data-uid="lnk44" id="link_handle_project_ops_preview_decode_project_ops_json"><path d="M1967.71,223.1579 C1923.72,244.1479 1867.1452,271.144 1823.1752,292.124" fill="none" id="handle_project_ops_preview-to-decode_project_ops_json" style="stroke:#333333;stroke-width:1;"/><polygon fill="#333333" points="1817.76,294.7079,1827.6053,294.4422,1822.2726,292.5547,1824.1602,287.222,1817.76,294.7079" style="stroke:#333333;stroke-width:1;"/></g><!--link handle_project_ops_preview to actions_to_ops--><g class="link" data-entity-1="handle_project_ops_preview" data-entity-2="actions_to_ops" data-source-line="55" data-uid="lnk45" id="link_handle_project_ops_preview_actions_to_ops"><path d="M2076.92,223.1579 C2122.61,244.1479 2181.5678,271.2232 2227.2378,292.2032" fill="none" id="handle_project_ops_preview-to-actions_to_ops" style="stroke:#333333;stroke-width:1;"/><polygon fill="#333333" points="2232.69,294.7079,2226.1814,287.3161,2228.1465,292.6206,2222.8419,294.5857,2232.69,294.7079" style="stroke:#333333;stroke-width:1;"/></g><!--link handle_project_ops_preview to preview_ops--><g class="link" data-entity-1="handle_project_ops_preview" data-entity-2="preview_ops" data-source-line="56" data-uid="lnk46" id="link_handle_project_ops_preview_preview_ops"><path d="M2021.27,223.0079 C2021.27,244.0579 2021.27,267.8179 2021.27,288.8579" fill="none" id="handle_project_ops_preview-to-preview_ops" style="stroke:#333333;stroke-width:1;"/><polygon fill="#333333" points="2021.27,294.8579,2025.27,285.8579,2021.27,289.8579,2017.27,285.8579,2021.27,294.8579" style="stroke:#333333;stroke-width:1;"/></g><!--link preview_ops to project_ops_executor--><g class="link" data-entity-1="preview_ops" data-entity-2="project_ops_executor" data-source-line="57" data-uid="lnk47" id="link_preview_ops_project_ops_executor"><path d="M2018.99,347.6579 C2017.01,369.6879 2014.7145,395.2917 2012.8245,416.4217" fill="none" id="preview_ops-to-project_ops_executor" style="stroke:#333333;stroke-width:1;"/><polygon fill="#333333" points="2012.29,422.3979,2017.0759,413.79,2012.7355,417.4177,2009.1077,413.0773,2012.29,422.3979" style="stroke:#333333;stroke-width:1;"/></g><!--link handle_project_ops_apply to decode_project_ops_json--><g class="link" data-entity-1="handle_project_ops_apply" data-entity-2="decode_project_ops_json" data-source-line="58" data-uid="lnk48" id="link_handle_project_ops_apply_decode_project_ops_json"><path d="M2174.98,220.3479 C2094.71,236.2679 1986.69,258.8879 1892.27,282.6879 C1877.9,286.3179 1868.4788,288.8285 1853.7888,293.0285" fill="none" id="handle_project_ops_apply-to-decode_project_ops_json" style="stroke:#333333;stroke-width:1;"/><polygon fill="#333333" points="1848.02,294.6779,1857.7728,296.0497,1852.8274,293.3034,1855.5737,288.3579,1848.02,294.6779" style="stroke:#333333;stroke-width:1;"/></g><!--link handle_project_ops_apply to actions_to_ops--><g class="link" data-entity-1="handle_project_ops_apply" data-entity-2="actions_to_ops" data-source-line="59" data-uid="lnk49" id="link_handle_project_ops_apply_actions_to_ops"><path d="M2293.03,223.0079 C2292,244.0579 2290.8334,267.825 2289.8034,288.865" fill="none" id="handle_project_ops_apply-to-actions_to_ops" style="stroke:#333333;stroke-width:1;"/><polygon fill="#333333" points="2289.51,294.8579,2293.9453,286.0642,2289.7545,289.8638,2285.9548,285.673,2289.51,294.8579" style="stroke:#333333;stroke-width:1;"/></g><!--link handle_project_ops_apply to apply_ops--><g class="link" data-entity-1="handle_project_ops_apply" data-entity-2="apply_ops" data-source-line="60" data-uid="lnk50" id="link_handle_project_ops_apply_apply_ops"><path d="M2409.73,223.1579 C2505.66,244.3879 2635.4518,273.1311 2730.4118,294.1511" fill="none" id="handle_project_ops_apply-to-apply_ops" style="stroke:#333333;stroke-width:1;"/><polygon fill="#333333" points="2736.27,295.4479,2728.3472,289.5973,2731.3882,294.3672,2726.6182,297.4082,2736.27,295.4479" style="stroke:#333333;stroke-width:1;"/></g><!--link apply_ops to project_ops_executor--><g class="link" data-entity-1="apply_ops" data-entity-2="project_ops_executor" data-source-line="61" data-uid="lnk51" id="link_apply_ops_project_ops_executor"><path d="M2736.4,333.4279 C2591.98,348.7079 2333.2,378.9379 2114.27,419.7879 C2108.79,420.8079 2109.0395,420.6934 2103.3795,421.8934" fill="none" id="apply_ops-to-project_ops_executor" style="stroke:#333333;stroke-width:1;"/><polygon fill="#333333" points="2097.51,423.1379,2107.1439,425.1842,2102.4013,422.1008,2105.4847,417.3582,2097.51,423.1379" style="stroke:#333333;stroke-width:1;"/></g><!--link apply_ops to json_store--><g class="link" data-entity-1="apply_ops" data-entity-2="json_store" data-source-line="62" data-uid="lnk52" id="link_apply_ops_json_store"><path d="M2960.25,337.3479 C3068.73,353.2579 3237.34,381.3379 3380.27,419.7879 C3386,421.3379 3386.2373,421.2626 3392.1073,423.1826" fill="none" id="apply_ops-to-json_store" style="stroke:#333333;stroke-width:1;"/><polygon fill="#333333" points="3397.81,425.0479,3390.4995,418.4481,3393.0578,423.4935,3388.0124,426.0517,3397.81,425.0479" style="stroke:#333333;stroke-width:1;"/></g><!--link apply_ops to insert_track_block--><g class="link" data-entity-1="apply_ops" data-entity-2="insert_track_block" data-source-line="63" data-uid="lnk53" id="link_apply_ops_insert_track_block"><path d="M2820.71,347.6579 C2797.89,368.7079 2770.0212,394.4007 2747.2012,415.4407" fill="none" id="apply_ops-to-insert_track_block" style="stroke:#333333;stroke-width:1;"/><polygon fill="#333333" points="2742.79,419.5079,2752.1182,416.348,2746.466,416.1186,2746.6954,410.4664,2742.79,419.5079" style="stroke:#333333;stroke-width:1;"/></g><!--link apply_ops to save_track--><g class="link" data-entity-1="apply_ops" data-entity-2="save_track" data-source-line="64" data-uid="lnk54" id="link_apply_ops_save_track"><path d="M2960.11,336.1379 C3093.78,353.2879 3324.03,384.5379 3520.27,419.7879 C3525.89,420.7979 3525.7685,420.7521 3531.5785,421.8721" fill="none" id="apply_ops-to-save_track" style="stroke:#333333;stroke-width:1;"/><polygon fill="#333333" points="3537.47,423.0079,3529.3898,417.3766,3532.5604,422.0614,3527.8756,425.232,3537.47,423.0079" style="stroke:#333333;stroke-width:1;"/></g><!--link apply_ops to save_index--><g class="link" data-entity-1="apply_ops" data-entity-2="save_index" data-source-line="65" data-uid="lnk55" id="link_apply_ops_save_index"><path d="M2768.45,347.8079 C2702.9,368.7979 2616.2242,396.5481 2550.7042,417.5281" fill="none" id="apply_ops-to-save_index" style="stroke:#333333;stroke-width:1;"/><polygon fill="#333333" points="2544.99,419.3579,2554.7811,420.4227,2549.7518,417.8331,2552.3415,412.8038,2544.99,419.3579" style="stroke:#333333;stroke-width:1;"/></g><!--link apply_ops to insert_phase_block--><g class="link" data-entity-1="apply_ops" data-entity-2="insert_phase_block" data-source-line="66" data-uid="lnk56" id="link_apply_ops_insert_phase_block"><path d="M2875.83,347.6579 C2898.65,368.7079 2926.5188,394.4007 2949.3388,415.4407" fill="none" id="apply_ops-to-insert_phase_block" style="stroke:#333333;stroke-width:1;"/><polygon fill="#333333" points="2953.75,419.5079,2949.8446,410.4664,2950.074,416.1186,2944.4218,416.348,2953.75,419.5079" style="stroke:#333333;stroke-width:1;"/></g><!--link apply_ops to save_phase--><g class="link" data-entity-1="apply_ops" data-entity-2="save_phase" data-source-line="67" data-uid="lnk57" id="link_apply_ops_save_phase"><path d="M2960,330.5079 C3131.53,344.0379 3469.79,374.0879 3754.27,419.7879 C3759.91,420.6979 3759.7889,420.6129 3765.6089,421.6829" fill="none" id="apply_ops-to-save_phase" style="stroke:#333333;stroke-width:1;"/><polygon fill="#333333" points="3771.51,422.7679,3763.3816,417.2064,3766.5924,421.8638,3761.9351,425.0746,3771.51,422.7679" style="stroke:#333333;stroke-width:1;"/></g><!--link apply_ops to load_track--><g class="link" data-entity-1="apply_ops" data-entity-2="load_track" data-source-line="68" data-uid="lnk58" id="link_apply_ops_load_track"><path d="M2736.45,343.4379 C2635.04,362.8079 2481.48,392.5079 2348.27,419.7879 C2342.67,420.9379 2342.8035,420.9025 2337.0035,422.1125" fill="none" id="apply_ops-to-load_track" style="stroke:#333333;stroke-width:1;"/><polygon fill="#333333" points="2331.13,423.3379,2340.7572,425.4155,2336.0246,422.3167,2339.1234,417.5841,2331.13,423.3379" style="stroke:#333333;stroke-width:1;"/></g><!--link apply_ops to insert_task_block--><g class="link" data-entity-1="apply_ops" data-entity-2="insert_task_block" data-source-line="69" data-uid="lnk59" id="link_apply_ops_insert_task_block"><path d="M2931.43,347.8079 C2999.72,368.7979 3090.2248,396.6151 3158.4848,417.5951" fill="none" id="apply_ops-to-insert_task_block" style="stroke:#333333;stroke-width:1;"/><polygon fill="#333333" points="3164.22,419.3579,3156.7923,412.8903,3159.4407,417.8889,3154.442,420.5372,3164.22,419.3579" style="stroke:#333333;stroke-width:1;"/></g><!--SRC=[dLPDR-8m4BtxLtZffOj48xLI3psirAMWFUnIQRktRXMPU2WkZXtP1ig_NySaiKETD0i796VUUpFZp_V5h247N7321D8R9WgYI8wN9DkyAhaLT2gvLFXYxdu1WiAARBcPIs4Mn2hSAqPu4BzNIkuhyetx1S65DF1TAWggGapTxnGHAyAYa6660vx-UfZ8GkC9BlyfG86PCA04uNZ5vHvVogK6jGFw5L_-V7ouliDJIG4_W26CVqLego4Z6l28Y6mjrGWJZHUFVsRf_MBwu_4tMZEB3Zy8MnHMx7Lji5or8XYFnqzogpAu6u_nypELcKxsKctAGdIokqwOIhAS9bNHLvcjvEf0Sew7GrzU40YAooeGKf0P8bxjF8noktOf2ACEVqLEG1iba_BRLN5mFVaulfZTpc_iEWPiGcbQAFbclwGsNMhdtywQLmfYIIRpd0YgQ-KuDvPbRMaSMk0TuOmI0yDIzGWCp5Ses37OdvskuW_CHeg27yxEvTYnJ1JAxT32lcafuecEO5NdwU36qjHJsm8hqFR4nrFfpDuZf6cfXn_TWvbXKkZKo18Ops0K4PeJ8vj-sgn6rqvl8ONTxtWKPeTtoBQcEkQnG5XGjTRTrTIakfQ046smNC_XQWqyfiM4FMCcjVEHRT8bbzd6Yzev9_RigmsLUv7k5JD- -J_oUjIBjRqPpr0FU7sr4trMwGqjfhqjt8vpeDpUyQNWCFaOioV3iSUpKhIfVLsuLJglZHOrTYpAKvzgkz_0yVmmB4IJNQNbixkXJZoXJkt1iPvSrBK-LCg1EwNAXHfSbCN6XBWaT71x7jmfDRGz3-wkQbXx3RPJY0aAxqEL7BXpoeTAUN1iurLRqxv2tA63SUlQFfwI1XQCMshkl7gnPeZios3zucZERFrF1sqWTuYL7QVQZL5vDfRE_PK6pBuXLAOvFRwJmOVITCvkPxS1lfg3utuuFg6LpVhmlM475cmo-TRXcqvHFPPd0BHwaGOWtMk3-WnMIUnm3wZBLPIS7Xk0UXnMNxfFQ6rFy1awUBLH-88VOn6Bq6dL_hDaJ_gyu01RsmBa3K9dgMr8SCUt0nzTmGd0N-snW3lgSSd02iIOBdmIyFTiHvMD0K3_0000]--></g></svg>