<svg xmlns="http://www.w3.org/2000/svg" xmlns:xlink="http://www.w3.org/1999/xlink" contentStyleType="text/css" data-diagram-type="DESCRIPTION" height="336px" preserveAspectRatio="none" style="width:2311px;height:336px;background:#FFFFFF;" version="1.1" viewBox="0 0 2311 336" width="2311px" zoomAndPan="magnify"><title>CMD-resume - Combined CLI+Code (LOD1)</title><defs/><g><g class="title" data-source-line="8"><text fill="#000000" font-family="Arial" font-size="22" font-weight="bold" lengthAdjust="spacing" textLength="451.6338" x="925.6331" y="35.6357">CMD-resume - Combined CLI+Code (LOD1)</text></g><!--cluster CLI Layer--><g class="cluster" data-entity="CLI Layer" data-source-line="20" data-uid="ent0007" id="cluster_CLI Layer"><path d="M2005.4,124.0479 L2070.1998,124.0479 A3.75,3.75 0 0 1 2072.6998,126.5479 L2079.6998,146.1465 L2302.4,146.1465 A2.5,2.5 0 0 1 2304.9,148.6465 L2304.9,204.4079 A2.5,2.5 0 0 1 2302.4,206.9079 L2005.4,206.9079 A2.5,2.5 0 0 1 2002.9,204.4079 L2002.9,126.5479 A2.5,2.5 0 0 1 2005.4,124.0479" fill="#E6F3FF" style="stroke:#000000;stroke-width:1;"/><line style="stroke:#000000;stroke-width:1;" x1="2002.9" x2="2079.6998" y1="146.1465" y2="146.1465"/><text fill="#000000" font-family="Arial" font-size="14" font-weight="bold" lengthAdjust="spacing" textLength="63.7998" x="2006.9" y="139.1797">CLI Layer</text></g><!--cluster Code Layer--><g class="cluster" data-entity="Code Layer" data-source-line="25" data-uid="ent0010" id="cluster_Code Layer"><path d="M1211.4,121.9279 L1288.648,121.9279 A3.75,3.75 0 0 1 1291.148,124.4279 L1298.148,144.0265 L1728.4,144.0265 A2.5,2.5 0 0 1 1730.9,146.5265 L1730.9,326.9479 A2.5,2.5 0 0 1 1728.4,329.4479 L1211.4,329.4479 A2.5,2.5 0 0 1 1208.9,326.9479 L1208.9,124.4279 A2.5,2.5 0 0 1 1211.4,121.9279" fill="#FFE6E6" style="stroke:#000000;stroke-width:1;"/><line style="stroke:#000000;stroke-width:1;" x1="1208.9" x2="1298.148" y1="144.0265" y2="144.0265"/><text fill="#000000" font-family="Arial" font-size="14" font-weight="bold" lengthAdjust="spacing" textLength="76.248" x="1212.9" y="137.0597">Code Layer</text></g><!--entity maestro resume--><g class="entity" data-entity="maestro resume" data-source-line="21" data-uid="ent0008" id="entity_maestro resume"><ellipse cx="2086.9024" cy="174.9743" fill="#FFFFFF" rx="67.6324" ry="15.9265" style="stroke:#000000;stroke-width:1;"/><text fill="#000000" font-family="Arial" font-size="14" lengthAdjust="spacing" textLength="101.1445" x="2036.3301" y="179.5236">maestro resume</text></g><!--entity maestro rs--><g class="entity" data-entity="maestro rs" data-source-line="22" data-uid="ent0009" id="entity_maestro rs"><ellipse cx="2238.8967" cy="174.9813" fill="#FFFFFF" rx="49.7567" ry="14.3835" style="stroke:#000000;stroke-width:1;"/><text fill="#000000" font-family="Arial" font-size="14" lengthAdjust="spacing" textLength="66.124" x="2205.8347" y="179.5306">maestro rs</text></g><!--entity py::main()--><g class="entity" data-entity="py..main.." data-source-line="26" data-uid="ent0011" id="entity_py..main.."><rect fill="#FFFFFF" height="36.0986" rx="2.5" ry="2.5" style="stroke:#000000;stroke-width:1;" width="82.2344" x="1224.79" y="156.9279"/><text fill="#000000" font-family="Arial" font-size="14" lengthAdjust="spacing" textLength="62.2344" x="1234.79" y="180.0597">py::main()</text></g><!--entity py::handle_resume_session()--><g class="entity" data-entity="py..handle_resume_session.." data-source-line="27" data-uid="ent0012" id="entity_py..handle_resume_session.."><rect fill="#FFFFFF" height="36.0986" rx="2.5" ry="2.5" style="stroke:#000000;stroke-width:1;" width="203.6543" x="1342.08" y="156.9279"/><text fill="#000000" font-family="Arial" font-size="14" lengthAdjust="spacing" textLength="183.6543" x="1352.08" y="180.0597">py::handle_resume_session()</text></g><!--entity py::load_session()--><g class="entity" data-entity="py..load_session.." data-source-line="28" data-uid="ent0013" id="entity_py..load_session.."><rect fill="#FFFFFF" height="36.0986" rx="2.5" ry="2.5" style="stroke:#000000;stroke-width:1;" width="133.6133" x="1581.1" y="156.9279"/><text fill="#000000" font-family="Arial" font-size="14" lengthAdjust="spacing" textLength="113.6133" x="1591.1" y="180.0597">py::load_session()</text></g><!--entity py::save_session()--><g class="entity" data-entity="py..save_session.." data-source-line="29" data-uid="ent0014" id="entity_py..save_session.."><rect fill="#FFFFFF" height="36.0986" rx="2.5" ry="2.5" style="stroke:#000000;stroke-width:1;" width="136.7168" x="1224.55" y="277.3479"/><text fill="#000000" font-family="Arial" font-size="14" lengthAdjust="spacing" textLength="116.7168" x="1234.55" y="300.4797">py::save_session()</text></g><!--entity py::update_subtask_summary_paths()--><g class="entity" data-entity="py..update_subtask_summary_paths.." data-source-line="30" data-uid="ent0015" id="entity_py..update_subtask_summary_paths.."><rect fill="#FFFFFF" height="36.0986" rx="2.5" ry="2.5" style="stroke:#000000;stroke-width:1;" width="258.123" x="1395.84" y="277.3479"/><text fill="#000000" font-family="Arial" font-size="14" lengthAdjust="spacing" textLength="238.123" x="1405.84" y="300.4797">py::update_subtask_summary_paths()</text></g><!--entity NOTE_ANCHOR--><g class="entity" data-entity="N1" data-source-line="17" data-uid="ent0006" id="entity_N1"><path d="M1749.33,162.5079 L1749.33,187.4566 L1984.4872,187.4566 L1984.4872,172.5079 L1974.4872,162.5079 L1749.33,162.5079" fill="#FFFFCC" style="stroke:#CCCCCC;stroke-width:1;"/><path d="M1974.4872,162.5079 L1974.4872,172.5079 L1984.4872,172.5079 L1974.4872,162.5079" fill="#FFFFCC" style="stroke:#CCCCCC;stroke-width:1;"/><text fill="#000000" font-family="Arial" font-size="13" font-weight="bold" lengthAdjust="spacing" textLength="214.1572" x="1755.33" y="179.7017">Combined CLI + Code view (LOD1)</text></g><!--link NOTE_ANCHOR to GMN3--><!--SRC=[bLFBRjim4BphAxRE9L4G2qu07zoJAqkD2p-An3SZCDRYsY8iaG99sJ2A_4XE_RP-IKbPJfH62522W43kxEpCBlN5f9GJ51bouUaT5mKgp66DoMwhP2bOA3Efu2AkLWF1Q8DbPc8fp0mjmr1np1hneLBoK2VVLQiHd4b3twHYf6f4MAr_4MqYBCept6G4uNHqeqYNjlWDX39VSq4CmiduEfICu78o7_MkFA_KbA0cwA18KgawW1fcyqMq6ix2-_c3bt8BRbu8MneKtwO6vEPT1C3t7sMf4XhuFYoNJ2OwE4YrssJoe8FzRS1LaEGiU9FMJJBUFMAUmV-0dvuy4WoS4k-anudkLGAQJk4QAgzxJeVQiEytKWlRGTnQxmuxmIDP-nTHFxwBO_XbsLvxaoDfeoIST7HQGxhZFJSfNU4pPnn7_QXVSIfA38gj7L2dE0u6kNrObrUTZu4K1SjeTQguqgGrb-t8J2Bx5A1n_pb3MJ0q5bAk3UgT_UOvgkEgG9Dgb_1STpcZJUlGexrz9A8QkpktZBuN9DAI2YkqL1jCo8ssDjVD6RmxVHnlstCxTxLIyEVbDqo8RKd1FHT6dvNCrvhKthw64HgSejenUH1GaD9S6oSPk6WKjxyj5U0qVuNzhMrJ8S6eqgHktXf-F5fIkvVBRZUmUppzEOccqMmnN8pdizKa6dsF7foTre2rzPRgg9NHGLQ9NYMsDTmDGRlqsaduUjdio5y0]--></g></svg>