<svg xmlns="http://www.w3.org/2000/svg" xmlns:xlink="http://www.w3.org/1999/xlink" contentStyleType="text/css" data-diagram-type="DESCRIPTION" height="249px" preserveAspectRatio="none" style="width:1886px;height:249px;background:#FFFFFF;" version="1.1" viewBox="0 0 1886 249" width="1886px" zoomAndPan="magnify"><title>CMD-log - Combined CLI+Code (LOD0)</title><defs/><g><g class="title" data-source-line="8"><text fill="#000000" font-family="Arial" font-size="22" font-weight="bold" lengthAdjust="spacing" textLength="406.3555" x="735.5659" y="35.6357">CMD-log - Combined CLI+Code (LOD0)</text></g><!--cluster CLI Layer--><g class="cluster" data-entity="CLI Layer" data-source-line="20" data-uid="ent0007" id="cluster_CLI Layer"><path d="M591.4,57.2979 L656.1998,57.2979 A3.75,3.75 0 0 1 658.6998,59.7979 L665.6998,79.3965 L1086.4,79.3965 A2.5,2.5 0 0 1 1088.9,81.8965 L1088.9,239.8379 A2.5,2.5 0 0 1 1086.4,242.3379 L591.4,242.3379 A2.5,2.5 0 0 1 588.9,239.8379 L588.9,59.7979 A2.5,2.5 0 0 1 591.4,57.2979" fill="#E6F3FF" style="stroke:#000000;stroke-width:1;"/><line style="stroke:#000000;stroke-width:1;" x1="588.9" x2="665.6998" y1="79.3965" y2="79.3965"/><text fill="#000000" font-family="Arial" font-size="14" font-weight="bold" lengthAdjust="spacing" textLength="63.7998" x="592.9" y="72.4297">CLI Layer</text></g><!--cluster Code Layer--><g class="cluster" data-entity="Code Layer" data-source-line="28" data-uid="ent0013" id="cluster_Code Layer"><path d="M1115.4,57.3979 L1192.648,57.3979 A3.75,3.75 0 0 1 1195.148,59.8979 L1202.148,79.4965 L1622.4,79.4965 A2.5,2.5 0 0 1 1624.9,81.9965 L1624.9,239.9979 A2.5,2.5 0 0 1 1622.4,242.4979 L1115.4,242.4979 A2.5,2.5 0 0 1 1112.9,239.9979 L1112.9,59.8979 A2.5,2.5 0 0 1 1115.4,57.3979" fill="#FFE6E6" style="stroke:#000000;stroke-width:1;"/><line style="stroke:#000000;stroke-width:1;" x1="1112.9" x2="1202.148" y1="79.4965" y2="79.4965"/><text fill="#000000" font-family="Arial" font-size="14" font-weight="bold" lengthAdjust="spacing" textLength="76.248" x="1116.9" y="72.5297">Code Layer</text></g><!--entity maestro log--><g class="entity" data-entity="maestro log" data-source-line="21" data-uid="ent0008" id="entity_maestro log"><ellipse cx="659.901" cy="110.4513" fill="#FFFFFF" rx="54.721" ry="14.3835" style="stroke:#000000;stroke-width:1;"/><text fill="#000000" font-family="Arial" font-size="14" lengthAdjust="spacing" textLength="73.1445" x="623.3287" y="115.0006">maestro log</text></g><!--entity maestro log list--><g class="entity" data-entity="maestro log list" data-source-line="22" data-uid="ent0009" id="entity_maestro log list"><ellipse cx="814.9021" cy="110.4443" fill="#FFFFFF" rx="64.9321" ry="15.3864" style="stroke:#000000;stroke-width:1;"/><text fill="#000000" font-family="Arial" font-size="14" lengthAdjust="spacing" textLength="94.1445" x="767.8298" y="114.9936">maestro log list</text></g><!--entity maestro log list-work--><g class="entity" data-entity="maestro log list-work" data-source-line="23" data-uid="ent0010" id="entity_maestro log list-work"><ellipse cx="993.8975" cy="110.4493" fill="#FFFFFF" rx="78.7575" ry="18.1515" style="stroke:#000000;stroke-width:1;"/><text fill="#000000" font-family="Arial" font-size="14" lengthAdjust="spacing" textLength="128.3652" x="929.7149" y="114.9987">maestro log list-work</text></g><!--entity maestro log list-plan--><g class="entity" data-entity="maestro log list-plan" data-source-line="24" data-uid="ent0011" id="entity_maestro log list-plan"><ellipse cx="681.9031" cy="208.4485" fill="#FFFFFF" rx="77.4531" ry="17.8906" style="stroke:#000000;stroke-width:1;"/><text fill="#000000" font-family="Arial" font-size="14" lengthAdjust="spacing" textLength="125.2754" x="619.2654" y="212.9978">maestro log list-plan</text></g><!--entity maestro lg--><g class="entity" data-entity="maestro lg" data-source-line="25" data-uid="ent0012" id="entity_maestro lg"><ellipse cx="843.8954" cy="208.4513" fill="#FFFFFF" rx="49.2154" ry="14.3835" style="stroke:#000000;stroke-width:1;"/><text fill="#000000" font-family="Arial" font-size="14" lengthAdjust="spacing" textLength="65.3584" x="811.2162" y="213.0006">maestro lg</text></g><!--entity py::main()--><g class="entity" data-entity="py..main.." data-source-line="29" data-uid="ent0014" id="entity_py..main.."><rect fill="#FFFFFF" height="36.0986" rx="2.5" ry="2.5" style="stroke:#000000;stroke-width:1;" width="82.2344" x="1128.79" y="92.3979"/><text fill="#000000" font-family="Arial" font-size="14" lengthAdjust="spacing" textLength="62.2344" x="1138.79" y="115.5297">py::main()</text></g><!--entity py::handle_log_list()--><g class="entity" data-entity="py..handle_log_list.." data-source-line="30" data-uid="ent0015" id="entity_py..handle_log_list.."><rect fill="#FFFFFF" height="36.0986" rx="2.5" ry="2.5" style="stroke:#000000;stroke-width:1;" width="145.2959" x="1246.26" y="92.3979"/><text fill="#000000" font-family="Arial" font-size="14" lengthAdjust="spacing" textLength="125.2959" x="1256.26" y="115.5297">py::handle_log_list()</text></g><!--entity py::handle_log_list_work()--><g class="entity" data-entity="py..handle_log_list_work.." data-source-line="31" data-uid="ent0016" id="entity_py..handle_log_list_work.."><rect fill="#FFFFFF" height="36.0986" rx="2.5" ry="2.5" style="stroke:#000000;stroke-width:1;" width="182.6406" x="1426.58" y="92.3979"/><text fill="#000000" font-family="Arial" font-size="14" lengthAdjust="spacing" textLength="162.6406" x="1436.58" y="115.5297">py::handle_log_list_work()</text></g><!--entity py::handle_log_list_plan()--><g class="entity" data-entity="py..handle_log_list_plan.." data-source-line="32" data-uid="ent0017" id="entity_py..handle_log_list_plan.."><rect fill="#FFFFFF" height="36.0986" rx="2.5" ry="2.5" style="stroke:#000000;stroke-width:1;" width="179.5508" x="1129.13" y="190.3979"/><text fill="#000000" font-family="Arial" font-size="14" lengthAdjust="spacing" textLength="159.5508" x="1139.13" y="213.5297">py::handle_log_list_plan()</text></g><!--entity py::load_session()--><g class="entity" data-entity="py..load_session.." data-source-line="33" data-uid="ent0018" id="entity_py..load_session.."><rect fill="#FFFFFF" height="36.0986" rx="2.5" ry="2.5" style="stroke:#000000;stroke-width:1;" width="133.6133" x="1344.1" y="190.3979"/><text fill="#000000" font-family="Arial" font-size="14" lengthAdjust="spacing" textLength="113.6133" x="1354.1" y="213.5297">py::load_session()</text></g><!--entity NOTE_ANCHOR--><g class="entity" data-entity="N1" data-source-line="17" data-uid="ent0006" id="entity_N1"><path d="M1644.33,97.9779 L1644.33,122.9266 L1879.4872,122.9266 L1879.4872,107.9779 L1869.4872,97.9779 L1644.33,97.9779" fill="#FFFFCC" style="stroke:#CCCCCC;stroke-width:1;"/><path d="M1869.4872,97.9779 L1869.4872,107.9779 L1879.4872,107.9779 L1869.4872,97.9779" fill="#FFFFCC" style="stroke:#CCCCCC;stroke-width:1;"/><text fill="#000000" font-family="Arial" font-size="13" font-weight="bold" lengthAdjust="spacing" textLength="214.1572" x="1650.33" y="115.1717">Combined CLI + Code view (LOD0)</text></g><!--SRC=[ZP91ZzCm48Nl-HL3zhARLHkMbNhehMGJWLHQ2RYjLf7NdYHMRKzbEwqgjFyTEmG8K5QTK-Bvx7dFVczyXnfXhvWqYTj9isUMQNXcVDTQweqeI965gsge2I6mORto5Hc_OU64bPLCJVehQ-auRhuVQjBSaCVtP0NQaIY6-fiu9o9GYPTU8HIV7cQAMfX1GVfP6XHGh3_U5YGGhjVRXxStIT8xvCmXfCpmZcmApC5c-xMiLvlYm_Ppqia0JnTCc0jMjfq7Qlxe06JP5-ejnsMMmUEZ8Exo8zbTe-ZeyiExNDgSQv6FkkPSoVc9QGKNaqzF2He1KKFoGqcKUpUCddg4MnXS7YGUHwjPDjcw3nV7sk0wicjsmc3ygbnKzrK5ty9flsv5CtJU4WGHwN_MGKddNstEehNNYH0lSvu8Sr-cWgEjdughgboKYq6nHUwPQSEhf_lJSgb3MgzlqdyR7JD2OHq6rt7m9KmTvLy4HXTdGKLCr0wTapG0B-FhAMpEngWyXDYP8KZnFuJfS9TpqZeCh5rl6yOn1YIEdci1lp-d2VaE]--></g></svg>