<svg xmlns="http://www.w3.org/2000/svg" xmlns:xlink="http://www.w3.org/1999/xlink" contentStyleType="text/css" data-diagram-type="DESCRIPTION" height="477px" preserveAspectRatio="none" style="width:2112px;height:477px;background:#FFFFFF;" version="1.1" viewBox="0 0 2112 477" width="2112px" zoomAndPan="magnify"><title>CMD-ops - ops deep internal flow (observed) (LOD1: Code Functions)</title><defs/><g><g class="title" data-source-line="8"><text fill="#000000" font-family="Arial" font-size="22" font-weight="bold" lengthAdjust="spacing" textLength="726.0107" x="688.738" y="35.6357">CMD-ops - ops deep internal flow (observed) (LOD1: Code Functions)</text></g><!--entity NOTE_ANCHOR--><!--entity main_entry--><g class="entity" data-entity="main_entry" data-source-line="16" data-uid="ent0006" id="entity_main_entry"><rect fill="#FFFFFF" height="52.1973" rx="2.5" ry="2.5" style="stroke:#000000;stroke-width:1;" width="132.8066" x="1242.87" y="58.2979"/><text fill="#000000" font-family="Arial" font-size="14" lengthAdjust="spacing" textLength="69.2549" x="1252.87" y="81.4297">main_entry</text><text fill="#000000" font-family="Arial" font-size="14" lengthAdjust="spacing" textLength="112.8066" x="1252.87" y="97.5283">(maestro/main.py)</text></g><!--entity add_project_ops_parser--><g class="entity" data-entity="add_project_ops_parser" data-source-line="17" data-uid="ent0007" id="entity_add_project_ops_parser"><rect fill="#FFFFFF" height="52.1973" rx="2.5" ry="2.5" style="stroke:#000000;stroke-width:1;" width="247.1992" x="762.67" y="170.4979"/><text fill="#000000" font-family="Arial" font-size="14" lengthAdjust="spacing" textLength="150.9922" x="772.67" y="193.6297">add_project_ops_parser</text><text fill="#000000" font-family="Arial" font-size="14" lengthAdjust="spacing" textLength="227.1992" x="772.67" y="209.7283">(maestro/project_ops/commands.py)</text></g><!--entity handle_project_ops_validate--><g class="entity" data-entity="handle_project_ops_validate" data-source-line="18" data-uid="ent0008" id="entity_handle_project_ops_validate"><rect fill="#FFFFFF" height="52.1973" rx="2.5" ry="2.5" style="stroke:#000000;stroke-width:1;" width="247.1992" x="1044.67" y="170.4979"/><text fill="#000000" font-family="Arial" font-size="14" lengthAdjust="spacing" textLength="178.2471" x="1054.67" y="193.6297">handle_project_ops_validate</text><text fill="#000000" font-family="Arial" font-size="14" lengthAdjust="spacing" textLength="227.1992" x="1054.67" y="209.7283">(maestro/project_ops/commands.py)</text></g><!--entity handle_project_ops_preview--><g class="entity" data-entity="handle_project_ops_preview" data-source-line="19" data-uid="ent0009" id="entity_handle_project_ops_preview"><rect fill="#FFFFFF" height="52.1973" rx="2.5" ry="2.5" style="stroke:#000000;stroke-width:1;" width="247.1992" x="1608.67" y="170.4979"/><text fill="#000000" font-family="Arial" font-size="14" lengthAdjust="spacing" textLength="178.2334" x="1618.67" y="193.6297">handle_project_ops_preview</text><text fill="#000000" font-family="Arial" font-size="14" lengthAdjust="spacing" textLength="227.1992" x="1618.67" y="209.7283">(maestro/project_ops/commands.py)</text></g><!--entity handle_project_ops_apply--><g class="entity" data-entity="handle_project_ops_apply" data-source-line="20" data-uid="ent0010" id="entity_handle_project_ops_apply"><rect fill="#FFFFFF" height="52.1973" rx="2.5" ry="2.5" style="stroke:#000000;stroke-width:1;" width="247.1992" x="1326.67" y="170.4979"/><text fill="#000000" font-family="Arial" font-size="14" lengthAdjust="spacing" textLength="163.4609" x="1336.67" y="193.6297">handle_project_ops_apply</text><text fill="#000000" font-family="Arial" font-size="14" lengthAdjust="spacing" textLength="227.1992" x="1336.67" y="209.7283">(maestro/project_ops/commands.py)</text></g><!--entity decode_project_ops_json--><g class="entity" data-entity="decode_project_ops_json" data-source-line="21" data-uid="ent0011" id="entity_decode_project_ops_json"><rect fill="#FFFFFF" height="52.1973" rx="2.5" ry="2.5" style="stroke:#000000;stroke-width:1;" width="229.3232" x="1061.61" y="282.6879"/><text fill="#000000" font-family="Arial" font-size="14" lengthAdjust="spacing" textLength="159.5645" x="1071.61" y="305.8197">decode_project_ops_json</text><text fill="#000000" font-family="Arial" font-size="14" lengthAdjust="spacing" textLength="209.3232" x="1071.61" y="321.9183">(maestro/project_ops/decoder.py)</text></g><!--entity validate_project_ops_result--><g class="entity" data-entity="validate_project_ops_result" data-source-line="22" data-uid="ent0012" id="entity_validate_project_ops_result"><rect fill="#FFFFFF" height="52.1973" rx="2.5" ry="2.5" style="stroke:#000000;stroke-width:1;" width="234.751" x="598.89" y="407.3379"/><text fill="#000000" font-family="Arial" font-size="14" lengthAdjust="spacing" textLength="170.4404" x="608.89" y="430.4697">validate_project_ops_result</text><text fill="#000000" font-family="Arial" font-size="14" lengthAdjust="spacing" textLength="214.751" x="608.89" y="446.5683">(maestro/project_ops/schemas.py)</text></g><!--entity actions_to_ops--><g class="entity" data-entity="actions_to_ops" data-source-line="23" data-uid="ent0013" id="entity_actions_to_ops"><rect fill="#FFFFFF" height="52.1973" rx="2.5" ry="2.5" style="stroke:#000000;stroke-width:1;" width="237.0889" x="1601.72" y="282.6879"/><text fill="#000000" font-family="Arial" font-size="14" lengthAdjust="spacing" textLength="94.1787" x="1611.72" y="305.8197">actions_to_ops</text><text fill="#000000" font-family="Arial" font-size="14" lengthAdjust="spacing" textLength="217.0889" x="1611.72" y="321.9183">(maestro/project_ops/translator.py)</text></g><!--entity preview_ops--><g class="entity" data-entity="preview_ops" data-source-line="24" data-uid="ent0014" id="entity_preview_ops"><rect fill="#FFFFFF" height="52.1973" rx="2.5" ry="2.5" style="stroke:#000000;stroke-width:1;" width="232.4268" x="1874.06" y="282.6879"/><text fill="#000000" font-family="Arial" font-size="14" lengthAdjust="spacing" textLength="78.5996" x="1884.06" y="305.8197">preview_ops</text><text fill="#000000" font-family="Arial" font-size="14" lengthAdjust="spacing" textLength="212.4268" x="1884.06" y="321.9183">(maestro/project_ops/executor.py)</text></g><!--entity apply_ops--><g class="entity" data-entity="apply_ops" data-source-line="25" data-uid="ent0015" id="entity_apply_ops"><rect fill="#FFFFFF" height="52.1973" rx="2.5" ry="2.5" style="stroke:#000000;stroke-width:1;" width="232.4268" x="1334.06" y="282.6879"/><text fill="#000000" font-family="Arial" font-size="14" lengthAdjust="spacing" textLength="63.8271" x="1344.06" y="305.8197">apply_ops</text><text fill="#000000" font-family="Arial" font-size="14" lengthAdjust="spacing" textLength="212.4268" x="1344.06" y="321.9183">(maestro/project_ops/executor.py)</text></g><!--entity insert_track_block--><g class="entity" data-entity="insert_track_block" data-source-line="26" data-uid="ent0016" id="entity_insert_track_block"><rect fill="#FFFFFF" height="52.1973" rx="2.5" ry="2.5" style="stroke:#000000;stroke-width:1;" width="240.1855" x="868.18" y="407.3379"/><text fill="#000000" font-family="Arial" font-size="14" lengthAdjust="spacing" textLength="112.8271" x="878.18" y="430.4697">insert_track_block</text><text fill="#000000" font-family="Arial" font-size="14" lengthAdjust="spacing" textLength="220.1855" x="878.18" y="446.5683">(maestro/data/markdown_writer.py)</text></g><!--entity insert_phase_block--><g class="entity" data-entity="insert_phase_block" data-source-line="27" data-uid="ent0017" id="entity_insert_phase_block"><rect fill="#FFFFFF" height="52.1973" rx="2.5" ry="2.5" style="stroke:#000000;stroke-width:1;" width="240.1855" x="1143.18" y="407.3379"/><text fill="#000000" font-family="Arial" font-size="14" lengthAdjust="spacing" textLength="120.6338" x="1153.18" y="430.4697">insert_phase_block</text><text fill="#000000" font-family="Arial" font-size="14" lengthAdjust="spacing" textLength="220.1855" x="1153.18" y="446.5683">(maestro/data/markdown_writer.py)</text></g><!--entity insert_task_block--><g class="entity" data-entity="insert_task_block" data-source-line="28" data-uid="ent0018" id="entity_insert_task_block"><rect fill="#FFFFFF" height="52.1973" rx="2.5" ry="2.5" style="stroke:#000000;stroke-width:1;" width="240.1855" x="487.18" y="58.2979"/><text fill="#000000" font-family="Arial" font-size="14" lengthAdjust="spacing" textLength="108.165" x="497.18" y="81.4297">insert_task_block</text><text fill="#000000" font-family="Arial" font-size="14" lengthAdjust="spacing" textLength="220.1855" x="497.18" y="97.5283">(maestro/data/markdown_writer.py)</text></g><!--entity update_task_metadata--><g class="entity" data-entity="update_task_metadata" data-source-line="29" data-uid="ent0019" id="entity_update_task_metadata"><rect fill="#FFFFFF" height="52.1973" rx="2.5" ry="2.5" style="stroke:#000000;stroke-width:1;" width="240.1855" x="762.18" y="58.2979"/><text fill="#000000" font-family="Arial" font-size="14" lengthAdjust="spacing" textLength="142.4404" x="772.18" y="81.4297">update_task_metadata</text><text fill="#000000" font-family="Arial" font-size="14" lengthAdjust="spacing" textLength="220.1855" x="772.18" y="97.5283">(maestro/data/markdown_writer.py)</text></g><!--entity update_phase_metadata--><g class="entity" data-entity="update_phase_metadata" data-source-line="30" data-uid="ent0020" id="entity_update_phase_metadata"><rect fill="#FFFFFF" height="52.1973" rx="2.5" ry="2.5" style="stroke:#000000;stroke-width:1;" width="240.1855" x="487.18" y="170.4979"/><text fill="#000000" font-family="Arial" font-size="14" lengthAdjust="spacing" textLength="154.9092" x="497.18" y="193.6297">update_phase_metadata</text><text fill="#000000" font-family="Arial" font-size="14" lengthAdjust="spacing" textLength="220.1855" x="497.18" y="209.7283">(maestro/data/markdown_writer.py)</text></g><!--entity project_ops_executor--><g class="entity" data-entity="project_ops_executor" data-source-line="40" data-uid="ent0030" id="entity_project_ops_executor"><ellipse cx="1947.2707" cy="403.8879" fill="#FFFFFF" rx="8" ry="8" style="stroke:#000000;stroke-width:1;"/><path d="M1947.2707,411.8879 L1947.2707,438.8879 M1934.2707,419.8879 L1960.2707,419.8879 M1947.2707,438.8879 L1934.2707,453.8879 M1947.2707,438.8879 L1960.2707,453.8879" fill="none" style="stroke:#000000;stroke-width:1;"/><text fill="#000000" font-family="Arial" font-size="14" lengthAdjust="spacing" textLength="133.8613" x="1880.34" y="469.0197">project_ops_executor</text></g><!--entity json_store--><g class="entity" data-entity="json_store" data-source-line="45" data-uid="ent0036" id="entity_json_store"><ellipse cx="1450.2664" cy="403.8879" fill="#FFFFFF" rx="8" ry="8" style="stroke:#000000;stroke-width:1;"/><path d="M1450.2664,411.8879 L1450.2664,438.8879 M1437.2664,419.8879 L1463.2664,419.8879 M1450.2664,438.8879 L1437.2664,453.8879 M1450.2664,438.8879 L1463.2664,453.8879" fill="none" style="stroke:#000000;stroke-width:1;"/><text fill="#000000" font-family="Arial" font-size="14" lengthAdjust="spacing" textLength="64.5928" x="1417.97" y="469.0197">json_store</text></g><!--entity save_track--><g class="entity" data-entity="save_track" data-source-line="47" data-uid="ent0039" id="entity_save_track"><ellipse cx="1551.2681" cy="403.8879" fill="#FFFFFF" rx="8" ry="8" style="stroke:#000000;stroke-width:1;"/><path d="M1551.2681,411.8879 L1551.2681,438.8879 M1538.2681,419.8879 L1564.2681,419.8879 M1551.2681,438.8879 L1538.2681,453.8879 M1551.2681,438.8879 L1564.2681,453.8879" fill="none" style="stroke:#000000;stroke-width:1;"/><text fill="#000000" font-family="Arial" font-size="14" lengthAdjust="spacing" textLength="67.6963" x="1517.42" y="469.0197">save_track</text></g><!--entity save_index--><g class="entity" data-entity="save_index" data-source-line="48" data-uid="ent0041" id="entity_save_index"><ellipse cx="1655.2736" cy="403.8879" fill="#FFFFFF" rx="8" ry="8" style="stroke:#000000;stroke-width:1;"/><path d="M1655.2736,411.8879 L1655.2736,438.8879 M1642.2736,419.8879 L1668.2736,419.8879 M1655.2736,438.8879 L1642.2736,453.8879 M1655.2736,438.8879 L1668.2736,453.8879" fill="none" style="stroke:#000000;stroke-width:1;"/><text fill="#000000" font-family="Arial" font-size="14" lengthAdjust="spacing" textLength="70.8271" x="1619.86" y="469.0197">save_index</text></g><!--entity save_phase--><g class="entity" data-entity="save_phase" data-source-line="50" data-uid="ent0044" id="entity_save_phase"><ellipse cx="1763.2715" cy="403.8879" fill="#FFFFFF" rx="8" ry="8" style="stroke:#000000;stroke-width:1;"/><path d="M1763.2715,411.8879 L1763.2715,438.8879 M1750.2715,419.8879 L1776.2715,419.8879 M1763.2715,438.8879 L1750.2715,453.8879 M1763.2715,438.8879 L1776.2715,453.8879" fill="none" style="stroke:#000000;stroke-width:1;"/><text fill="#000000" font-family="Arial" font-size="14" lengthAdjust="spacing" textLength="75.5029" x="1725.52" y="469.0197">save_phase</text></g><!--link main_entry to add_project_ops_parser--><g class="link" data-entity-1="main_entry" data-entity-2="add_project_ops_parser" data-source-line="31" data-uid="lnk21" id="link_main_entry_add_project_ops_parser"><path d="M1242.71,102.7379 C1173.26,120.8279 1069.4462,147.8754 990.0962,168.5454" fill="none" id="main_entry-to-add_project_ops_parser" style="stroke:#333333;stroke-width:1;"/><polygon fill="#333333" points="984.29,170.0579,994.0077,171.66,989.1285,168.7975,991.991,163.9183,984.29,170.0579" style="stroke:#333333;stroke-width:1;"/></g><!--link main_entry to handle_project_ops_validate--><g class="link" data-entity-1="main_entry" data-entity-2="handle_project_ops_validate" data-source-line="32" data-uid="lnk22" id="link_main_entry_handle_project_ops_validate"><path d="M1276.57,110.9579 C1253.79,128.7579 1228.2567,148.7021 1205.5167,166.4821" fill="none" id="main_entry-to-handle_project_ops_validate" style="stroke:#333333;stroke-width:1;"/><polygon fill="#333333" points="1200.79,170.1779,1210.3439,167.7854,1204.7289,167.0981,1205.4162,161.4831,1200.79,170.1779" style="stroke:#333333;stroke-width:1;"/></g><!--link main_entry to handle_project_ops_preview--><g class="link" data-entity-1="main_entry" data-entity-2="handle_project_ops_preview" data-source-line="33" data-uid="lnk23" id="link_main_entry_handle_project_ops_preview"><path d="M1375.83,102.7379 C1445.28,120.8279 1549.0938,147.8754 1628.4438,168.5454" fill="none" id="main_entry-to-handle_project_ops_preview" style="stroke:#333333;stroke-width:1;"/><polygon fill="#333333" points="1634.25,170.0579,1626.549,163.9183,1629.4115,168.7975,1624.5323,171.66,1634.25,170.0579" style="stroke:#333333;stroke-width:1;"/></g><!--link main_entry to handle_project_ops_apply--><g class="link" data-entity-1="main_entry" data-entity-2="handle_project_ops_apply" data-source-line="34" data-uid="lnk24" id="link_main_entry_handle_project_ops_apply"><path d="M1341.97,110.9579 C1364.75,128.7579 1390.2733,148.7021 1413.0133,166.4821" fill="none" id="main_entry-to-handle_project_ops_apply" style="stroke:#333333;stroke-width:1;"/><polygon fill="#333333" points="1417.74,170.1779,1413.1138,161.4831,1413.8011,167.0981,1408.1861,167.7854,1417.74,170.1779" style="stroke:#333333;stroke-width:1;"/></g><!--link handle_project_ops_validate to decode_project_ops_json--><g class="link" data-entity-1="handle_project_ops_validate" data-entity-2="decode_project_ops_json" data-source-line="35" data-uid="lnk25" id="link_handle_project_ops_validate_decode_project_ops_json"><path d="M1170.12,223.1479 C1171.42,240.9579 1172.6956,258.6136 1173.9856,276.3836" fill="none" id="handle_project_ops_validate-to-decode_project_ops_json" style="stroke:#333333;stroke-width:1;"/><polygon fill="#333333" points="1174.42,282.3679,1177.7579,273.1019,1174.058,277.381,1169.7789,273.6811,1174.42,282.3679" style="stroke:#333333;stroke-width:1;"/></g><!--link decode_project_ops_json to validate_project_ops_result--><g class="link" data-entity-1="decode_project_ops_json" data-entity-2="validate_project_ops_result" data-source-line="36" data-uid="lnk26" id="link_decode_project_ops_json_validate_project_ops_result"><path d="M1076.63,335.3079 C1012.02,351.9779 926.07,374.3779 850.27,394.8879 C836.16,398.7079 827.0208,401.211 812.4508,405.261" fill="none" id="decode_project_ops_json-to-validate_project_ops_result" style="stroke:#333333;stroke-width:1;"/><polygon fill="#333333" points="806.67,406.8679,816.4125,408.3114,811.4874,405.5288,814.27,400.6036,806.67,406.8679" style="stroke:#333333;stroke-width:1;"/></g><!--link handle_project_ops_preview to decode_project_ops_json--><g class="link" data-entity-1="handle_project_ops_preview" data-entity-2="decode_project_ops_json" data-source-line="37" data-uid="lnk27" id="link_handle_project_ops_preview_decode_project_ops_json"><path d="M1608.18,222.1879 C1513.29,240.9979 1389.3455,265.5614 1296.8555,283.8914" fill="none" id="handle_project_ops_preview-to-decode_project_ops_json" style="stroke:#333333;stroke-width:1;"/><polygon fill="#333333" points="1290.97,285.0579,1300.5759,287.2319,1295.8746,284.0858,1299.0207,279.3845,1290.97,285.0579" style="stroke:#333333;stroke-width:1;"/></g><!--link handle_project_ops_preview to actions_to_ops--><g class="link" data-entity-1="handle_project_ops_preview" data-entity-2="actions_to_ops" data-source-line="38" data-uid="lnk28" id="link_handle_project_ops_preview_actions_to_ops"><path d="M1729.49,223.1479 C1727.55,240.9579 1725.6179,258.6329 1723.6879,276.4029" fill="none" id="handle_project_ops_preview-to-actions_to_ops" style="stroke:#333333;stroke-width:1;"/><polygon fill="#333333" points="1723.04,282.3679,1727.9884,273.8524,1723.5799,277.3971,1720.0352,272.9886,1723.04,282.3679" style="stroke:#333333;stroke-width:1;"/></g><!--link handle_project_ops_preview to preview_ops--><g class="link" data-entity-1="handle_project_ops_preview" data-entity-2="preview_ops" data-source-line="39" data-uid="lnk29" id="link_handle_project_ops_preview_preview_ops"><path d="M1792.11,223.1479 C1833.79,240.9579 1883.6323,262.2409 1925.2323,280.0109" fill="none" id="handle_project_ops_preview-to-preview_ops" style="stroke:#333333;stroke-width:1;"/><polygon fill="#333333" points="1930.75,282.3679,1924.0448,275.154,1926.1519,280.4037,1920.9022,282.5109,1930.75,282.3679" style="stroke:#333333;stroke-width:1;"/></g><!--link preview_ops to project_ops_executor--><g class="link" data-entity-1="preview_ops" data-entity-2="project_ops_executor" data-source-line="40" data-uid="lnk31" id="link_preview_ops_project_ops_executor"><path d="M1981.36,335.2079 C1975.36,352.3279 1969.3135,369.5452 1962.5635,388.8152" fill="none" id="preview_ops-to-project_ops_executor" style="stroke:#333333;stroke-width:1;"/><polygon fill="#333333" points="1960.58,394.4779,1967.3304,387.3062,1962.233,389.759,1959.7802,384.6615,1960.58,394.4779" style="stroke:#333333;stroke-width:1;"/></g><!--link handle_project_ops_apply to decode_project_ops_json--><g class="link" data-entity-1="handle_project_ops_apply" data-entity-2="decode_project_ops_json" data-source-line="41" data-uid="lnk32" id="link_handle_project_ops_apply_decode_project_ops_json"><path d="M1386.72,223.1479 C1342.45,240.9579 1289.2268,262.3593 1245.0368,280.1293" fill="none" id="handle_project_ops_apply-to-decode_project_ops_json" style="stroke:#333333;stroke-width:1;"/><polygon fill="#333333" points="1239.47,282.3679,1249.3125,282.7212,1244.109,280.5024,1246.3278,275.2989,1239.47,282.3679" style="stroke:#333333;stroke-width:1;"/></g><!--link handle_project_ops_apply to actions_to_ops--><g class="link" data-entity-1="handle_project_ops_apply" data-entity-2="actions_to_ops" data-source-line="42" data-uid="lnk33" id="link_handle_project_ops_apply_actions_to_ops"><path d="M1512.89,223.1479 C1556.51,240.9579 1608.8847,262.3311 1652.4347,280.1011" fill="none" id="handle_project_ops_apply-to-actions_to_ops" style="stroke:#333333;stroke-width:1;"/><polygon fill="#333333" points="1657.99,282.3679,1651.1682,275.2641,1653.3606,280.4789,1648.1458,282.6712,1657.99,282.3679" style="stroke:#333333;stroke-width:1;"/></g><!--link handle_project_ops_apply to apply_ops--><g class="link" data-entity-1="handle_project_ops_apply" data-entity-2="apply_ops" data-source-line="43" data-uid="lnk34" id="link_handle_project_ops_apply_apply_ops"><path d="M1450.27,223.1479 C1450.27,240.9579 1450.27,258.5979 1450.27,276.3679" fill="none" id="handle_project_ops_apply-to-apply_ops" style="stroke:#333333;stroke-width:1;"/><polygon fill="#333333" points="1450.27,282.3679,1454.27,273.3679,1450.27,277.3679,1446.27,273.3679,1450.27,282.3679" style="stroke:#333333;stroke-width:1;"/></g><!--link apply_ops to project_ops_executor--><g class="link" data-entity-1="apply_ops" data-entity-2="project_ops_executor" data-source-line="44" data-uid="lnk35" id="link_apply_ops_project_ops_executor"><path d="M1566.7,334.9679 C1639.29,351.0879 1734.51,373.0379 1818.27,394.8879 C1838.36,400.1279 1854.3101,404.5876 1874.0901,410.3576" fill="none" id="apply_ops-to-project_ops_executor" style="stroke:#333333;stroke-width:1;"/><polygon fill="#333333" points="1879.85,412.0379,1872.3302,405.6776,1875.0501,410.6377,1870.0899,413.3575,1879.85,412.0379" style="stroke:#333333;stroke-width:1;"/></g><!--link apply_ops to json_store--><g class="link" data-entity-1="apply_ops" data-entity-2="json_store" data-source-line="45" data-uid="lnk37" id="link_apply_ops_json_store"><path d="M1450.27,335.2079 C1450.27,352.3279 1450.27,369.2079 1450.27,388.4779" fill="none" id="apply_ops-to-json_store" style="stroke:#333333;stroke-width:1;"/><polygon fill="#333333" points="1450.27,394.4779,1454.27,385.4779,1450.27,389.4779,1446.27,385.4779,1450.27,394.4779" style="stroke:#333333;stroke-width:1;"/></g><!--link apply_ops to insert_track_block--><g class="link" data-entity-1="apply_ops" data-entity-2="insert_track_block" data-source-line="46" data-uid="lnk38" id="link_apply_ops_insert_track_block"><path d="M1351.34,335.3779 C1286.91,352.1279 1201.04,374.5879 1125.27,394.8879 C1110.98,398.7179 1101.6487,401.2395 1086.8687,405.2695" fill="none" id="apply_ops-to-insert_track_block" style="stroke:#333333;stroke-width:1;"/><polygon fill="#333333" points="1081.08,406.8479,1090.8153,408.3394,1085.9039,405.5325,1088.7108,400.6212,1081.08,406.8479" style="stroke:#333333;stroke-width:1;"/></g><!--link apply_ops to save_track--><g class="link" data-entity-1="apply_ops" data-entity-2="save_track" data-source-line="47" data-uid="lnk40" id="link_apply_ops_save_track"><path d="M1471.2,335.2079 C1485.29,352.3279 1500.3257,370.5763 1516.1957,389.8463" fill="none" id="apply_ops-to-save_track" style="stroke:#333333;stroke-width:1;"/><polygon fill="#333333" points="1520.01,394.4779,1517.3762,384.9877,1516.8314,390.6183,1511.2008,390.0735,1520.01,394.4779" style="stroke:#333333;stroke-width:1;"/></g><!--link apply_ops to save_index--><g class="link" data-entity-1="apply_ops" data-entity-2="save_index" data-source-line="48" data-uid="lnk42" id="link_apply_ops_save_index"><path d="M1498.95,335.3379 C1529.16,351.6079 1568.52,373.5679 1602.27,394.8879 C1607.89,398.4379 1608.8047,398.9358 1614.4747,402.8558" fill="none" id="apply_ops-to-save_index" style="stroke:#333333;stroke-width:1;"/><polygon fill="#333333" points="1619.41,406.2679,1614.2817,397.8595,1615.2972,403.4244,1609.7323,404.4399,1619.41,406.2679" style="stroke:#333333;stroke-width:1;"/></g><!--link apply_ops to insert_phase_block--><g class="link" data-entity-1="apply_ops" data-entity-2="insert_phase_block" data-source-line="49" data-uid="lnk43" id="link_apply_ops_insert_phase_block"><path d="M1411.52,335.2079 C1379.54,356.1779 1339.367,382.5269 1307.307,403.5569" fill="none" id="apply_ops-to-insert_phase_block" style="stroke:#333333;stroke-width:1;"/><polygon fill="#333333" points="1302.29,406.8479,1312.0094,405.2561,1306.4708,404.1054,1307.6215,398.5668,1302.29,406.8479" style="stroke:#333333;stroke-width:1;"/></g><!--link apply_ops to save_phase--><g class="link" data-entity-1="apply_ops" data-entity-2="save_phase" data-source-line="50" data-uid="lnk45" id="link_apply_ops_save_phase"><path d="M1549.31,335.3679 C1598.41,349.8079 1657.84,369.9779 1708.27,394.8879 C1713.87,397.6579 1714.4641,397.7445 1719.9441,401.1745" fill="none" id="apply_ops-to-save_phase" style="stroke:#333333;stroke-width:1;"/><polygon fill="#333333" points="1725.03,404.3579,1719.5234,396.1923,1720.7917,401.7051,1715.2789,402.9735,1725.03,404.3579" style="stroke:#333333;stroke-width:1;"/></g><!--SRC=[fLHDRzim3BtxLsZTfGsG6jjkFGpeqXKxR2cmxTOM1YinZHfPD2WvQVxzP2TDvCmVRQg3OOZlFJvH8Z_uEUOe2WFQ9cwXRG4CkNW0kNXaAgsQa24M7w_h5I4Kpg0q_fgidq9Gk6GD9efVCjDgI_vIhoWu9O_VY1No5Z6fro6YpKH09LvxWsBowsfCXHDZKNqLOY6qzSWMZ9WPMebJUd38IrHdulJdpTMd2p4XXUAwjD9hikuiIKg74XoA4x1oJdmYm8dfpT_lsULqykFcTpBNWH1lsE1Bi7wSUq6pHaI8qUWFbIpnOZGIjxUAf4jNn8lAYqkNdrFDgSnLklLzBeEPypNaHhmUUd-Ve5MYSf4aZDA3VGobECd3zMLeFQ_lx6aEw3nJMcsU5-kp-bHxHCm3fRA2wIdiP25H5eeVIXPfHC5KKfw3LMwdsSwEzUS1Rx01MeBH2Zo-DacFn42cWd6fSVMEH5k5WJnG56RzZYmrFywXiBhm1kR9aUr8iK7pBaC7EqxmKi06YD65Xkv8ucIO4x0_Hez2utrjEYtpL04wj3s3TGOyxS_GvCMAsolfaSDdb6Ki5b4QtggolqLdHuXLj0rFtcVX37AHFHYIYqWkL0X26_92qSfcAzO-kgV_cIswnJoCfwDq8sQRNt17sjqHOzMog1z37SpHGwNqMk4sRelsvZn7YZV9oNuOYl7uQzSSEq3r3Q9XwCie6KPkna5FjfhOrUKT-pMdhscxBVUc6w0TzF40EcxKw7yRstDUEZFfgjvRBUz9muOZx6uUxFwwhJOXbP7CXNqy2BGCXIR0mH8tuRQ0jWgVsoNZUT32hCF9Fm00]--></g></svg>