<svg xmlns="http://www.w3.org/2000/svg" xmlns:xlink="http://www.w3.org/1999/xlink" contentStyleType="text/css" data-diagram-type="DESCRIPTION" height="539px" preserveAspectRatio="none" style="width:4484px;height:539px;background:#FFFFFF;" version="1.1" viewBox="0 0 4484 539" width="4484px" zoomAndPan="magnify"><title>CMD-tu - tu deep internal flow (observed) (LOD2: Code Detail)</title><defs/><g><g class="title" data-source-line="8"><text fill="#000000" font-family="Arial" font-size="22" font-weight="bold" lengthAdjust="spacing" textLength="644.123" x="1915.6454" y="35.6357">CMD-tu - tu deep internal flow (observed) (LOD2: Code Detail)</text></g><!--entity NOTE_ANCHOR--><!--entity main_entry--><g class="entity" data-entity="main_entry" data-source-line="16" data-uid="ent0006" id="entity_main_entry"><rect fill="#E6F3FF" height="52.1973" rx="2.5" ry="2.5" style="stroke:#000000;stroke-width:1;" width="123.4824" x="1679.04" y="161.0379"/><text fill="#000000" font-family="Arial" font-size="14" lengthAdjust="spacing" textLength="69.2549" x="1689.04" y="184.1697">main_entry</text><text fill="#000000" font-family="Arial" font-size="14" lengthAdjust="spacing" textLength="103.4824" x="1689.04" y="200.2683">maestro/main.py</text></g><!--entity add_tu_parser--><g class="entity" data-entity="add_tu_parser" data-source-line="17" data-uid="ent0007" id="entity_add_tu_parser"><rect fill="#E6F3FF" height="52.1973" rx="2.5" ry="2.5" style="stroke:#000000;stroke-width:1;" width="177.1719" x="1652.2" y="331.8579"/><text fill="#000000" font-family="Arial" font-size="14" lengthAdjust="spacing" textLength="90.2891" x="1662.2" y="354.9897">add_tu_parser</text><text fill="#000000" font-family="Arial" font-size="14" lengthAdjust="spacing" textLength="157.1719" x="1662.2" y="371.0883">maestro/commands/tu.py</text></g><!--entity handle_tu_command--><g class="entity" data-entity="handle_tu_command" data-source-line="18" data-uid="ent0008" id="entity_handle_tu_command"><rect fill="#E6F3FF" height="52.1973" rx="2.5" ry="2.5" style="stroke:#000000;stroke-width:1;" width="177.1719" x="3049.2" y="161.0379"/><text fill="#000000" font-family="Arial" font-size="14" lengthAdjust="spacing" textLength="130.7578" x="3059.2" y="184.1697">handle_tu_command</text><text fill="#000000" font-family="Arial" font-size="14" lengthAdjust="spacing" textLength="157.1719" x="3059.2" y="200.2683">maestro/commands/tu.py</text></g><!--entity handle_tu_build_command--><g class="entity" data-entity="handle_tu_build_command" data-source-line="19" data-uid="ent0009" id="entity_handle_tu_build_command"><rect fill="#E6F3FF" height="52.1973" rx="2.5" ry="2.5" style="stroke:#000000;stroke-width:1;" width="188.123" x="2085.72" y="331.8579"/><text fill="#000000" font-family="Arial" font-size="14" lengthAdjust="spacing" textLength="168.123" x="2095.72" y="354.9897">handle_tu_build_command</text><text fill="#000000" font-family="Arial" font-size="14" lengthAdjust="spacing" textLength="157.1719" x="2095.72" y="371.0883">maestro/commands/tu.py</text></g><!--entity handle_tu_info_command--><g class="entity" data-entity="handle_tu_info_command" data-source-line="20" data-uid="ent0010" id="entity_handle_tu_info_command"><rect fill="#E6F3FF" height="52.1973" rx="2.5" ry="2.5" style="stroke:#000000;stroke-width:1;" width="181.1162" x="2809.23" y="331.8579"/><text fill="#000000" font-family="Arial" font-size="14" lengthAdjust="spacing" textLength="161.1162" x="2819.23" y="354.9897">handle_tu_info_command</text><text fill="#000000" font-family="Arial" font-size="14" lengthAdjust="spacing" textLength="157.1719" x="2819.23" y="371.0883">maestro/commands/tu.py</text></g><!--entity handle_tu_query_command--><g class="entity" data-entity="handle_tu_query_command" data-source-line="21" data-uid="ent0011" id="entity_handle_tu_query_command"><rect fill="#E6F3FF" height="52.1973" rx="2.5" ry="2.5" style="stroke:#000000;stroke-width:1;" width="193.5645" x="3285" y="331.8579"/><text fill="#000000" font-family="Arial" font-size="14" lengthAdjust="spacing" textLength="173.5645" x="3295" y="354.9897">handle_tu_query_command</text><text fill="#000000" font-family="Arial" font-size="14" lengthAdjust="spacing" textLength="157.1719" x="3295" y="371.0883">maestro/commands/tu.py</text></g><!--entity handle_tu_complete_command--><g class="entity" data-entity="handle_tu_complete_command" data-source-line="22" data-uid="ent0012" id="entity_handle_tu_complete_command"><rect fill="#E6F3FF" height="52.1973" rx="2.5" ry="2.5" style="stroke:#000000;stroke-width:1;" width="215.3506" x="3513.11" y="331.8579"/><text fill="#000000" font-family="Arial" font-size="14" lengthAdjust="spacing" textLength="195.3506" x="3523.11" y="354.9897">handle_tu_complete_command</text><text fill="#000000" font-family="Arial" font-size="14" lengthAdjust="spacing" textLength="157.1719" x="3523.11" y="371.0883">maestro/commands/tu.py</text></g><!--entity handle_tu_references_command--><g class="entity" data-entity="handle_tu_references_command" data-source-line="23" data-uid="ent0013" id="entity_handle_tu_references_command"><rect fill="#E6F3FF" height="52.1973" rx="2.5" ry="2.5" style="stroke:#000000;stroke-width:1;" width="224.6885" x="3025.44" y="331.8579"/><text fill="#000000" font-family="Arial" font-size="14" lengthAdjust="spacing" textLength="204.6885" x="3035.44" y="354.9897">handle_tu_references_command</text><text fill="#000000" font-family="Arial" font-size="14" lengthAdjust="spacing" textLength="157.1719" x="3035.44" y="371.0883">maestro/commands/tu.py</text></g><!--entity handle_tu_lsp_command--><g class="entity" data-entity="handle_tu_lsp_command" data-source-line="24" data-uid="ent0014" id="entity_handle_tu_lsp_command"><rect fill="#E6F3FF" height="52.1973" rx="2.5" ry="2.5" style="stroke:#000000;stroke-width:1;" width="177.1719" x="3763.2" y="331.8579"/><text fill="#000000" font-family="Arial" font-size="14" lengthAdjust="spacing" textLength="156.4404" x="3773.2" y="354.9897">handle_tu_lsp_command</text><text fill="#000000" font-family="Arial" font-size="14" lengthAdjust="spacing" textLength="157.1719" x="3773.2" y="371.0883">maestro/commands/tu.py</text></g><!--entity handle_tu_cache_clear_command--><g class="entity" data-entity="handle_tu_cache_clear_command" data-source-line="25" data-uid="ent0015" id="entity_handle_tu_cache_clear_command"><rect fill="#E6F3FF" height="52.1973" rx="2.5" ry="2.5" style="stroke:#000000;stroke-width:1;" width="234.0332" x="3975.77" y="331.8579"/><text fill="#000000" font-family="Arial" font-size="14" lengthAdjust="spacing" textLength="214.0332" x="3985.77" y="354.9897">handle_tu_cache_clear_command</text><text fill="#000000" font-family="Arial" font-size="14" lengthAdjust="spacing" textLength="157.1719" x="3985.77" y="371.0883">maestro/commands/tu.py</text></g><!--entity handle_tu_cache_stats_command--><g class="entity" data-entity="handle_tu_cache_stats_command" data-source-line="26" data-uid="ent0016" id="entity_handle_tu_cache_stats_command"><rect fill="#E6F3FF" height="52.1973" rx="2.5" ry="2.5" style="stroke:#000000;stroke-width:1;" width="233.2539" x="4245.16" y="331.8579"/><text fill="#000000" font-family="Arial" font-size="14" lengthAdjust="spacing" textLength="213.2539" x="4255.16" y="354.9897">handle_tu_cache_stats_command</text><text fill="#000000" font-family="Arial" font-size="14" lengthAdjust="spacing" textLength="157.1719" x="4255.16" y="371.0883">maestro/commands/tu.py</text></g><!--entity handle_tu_transform_command--><g class="entity" data-entity="handle_tu_transform_command" data-source-line="27" data-uid="ent0017" id="entity_handle_tu_transform_command"><rect fill="#E6F3FF" height="52.1973" rx="2.5" ry="2.5" style="stroke:#000000;stroke-width:1;" width="217.668" x="2308.95" y="331.8579"/><text fill="#000000" font-family="Arial" font-size="14" lengthAdjust="spacing" textLength="197.668" x="2318.95" y="354.9897">handle_tu_transform_command</text><text fill="#000000" font-family="Arial" font-size="14" lengthAdjust="spacing" textLength="157.1719" x="2318.95" y="371.0883">maestro/commands/tu.py</text></g><!--entity handle_tu_print_ast_command--><g class="entity" data-entity="handle_tu_print_ast_command" data-source-line="28" data-uid="ent0018" id="entity_handle_tu_print_ast_command"><rect fill="#E6F3FF" height="52.1973" rx="2.5" ry="2.5" style="stroke:#000000;stroke-width:1;" width="212.2402" x="2561.66" y="331.8579"/><text fill="#000000" font-family="Arial" font-size="14" lengthAdjust="spacing" textLength="192.2402" x="2571.66" y="354.9897">handle_tu_print_ast_command</text><text fill="#000000" font-family="Arial" font-size="14" lengthAdjust="spacing" textLength="157.1719" x="2571.66" y="371.0883">maestro/commands/tu.py</text></g><!--entity handle_tu_draft_command--><g class="entity" data-entity="handle_tu_draft_command" data-source-line="29" data-uid="ent0019" id="entity_handle_tu_draft_command"><rect fill="#E6F3FF" height="52.1973" rx="2.5" ry="2.5" style="stroke:#000000;stroke-width:1;" width="186.5576" x="1864.51" y="331.8579"/><text fill="#000000" font-family="Arial" font-size="14" lengthAdjust="spacing" textLength="166.5576" x="1874.51" y="354.9897">handle_tu_draft_command</text><text fill="#000000" font-family="Arial" font-size="14" lengthAdjust="spacing" textLength="157.1719" x="1874.51" y="371.0883">maestro/commands/tu.py</text></g><!--entity detect_language_from_path--><g class="entity" data-entity="detect_language_from_path" data-source-line="30" data-uid="ent0020" id="entity_detect_language_from_path"><rect fill="#E6F3FF" height="52.1973" rx="2.5" ry="2.5" style="stroke:#000000;stroke-width:1;" width="194.3574" x="2081.61" y="468.9579"/><text fill="#000000" font-family="Arial" font-size="14" lengthAdjust="spacing" textLength="174.3574" x="2091.61" y="492.0897">detect_language_from_path</text><text fill="#000000" font-family="Arial" font-size="14" lengthAdjust="spacing" textLength="157.1719" x="2091.61" y="508.1883">maestro/commands/tu.py</text></g><!--entity get_parser_by_language--><g class="entity" data-entity="get_parser_by_language" data-source-line="31" data-uid="ent0021" id="entity_get_parser_by_language"><rect fill="#E6F3FF" height="52.1973" rx="2.5" ry="2.5" style="stroke:#000000;stroke-width:1;" width="177.1719" x="2447.2" y="468.9579"/><text fill="#000000" font-family="Arial" font-size="14" lengthAdjust="spacing" textLength="154.9023" x="2457.2" y="492.0897">get_parser_by_language</text><text fill="#000000" font-family="Arial" font-size="14" lengthAdjust="spacing" textLength="157.1719" x="2457.2" y="508.1883">maestro/commands/tu.py</text></g><!--entity get_files_by_language--><g class="entity" data-entity="get_files_by_language" data-source-line="32" data-uid="ent0022" id="entity_get_files_by_language"><rect fill="#E6F3FF" height="52.1973" rx="2.5" ry="2.5" style="stroke:#000000;stroke-width:1;" width="177.1719" x="1869.2" y="468.9579"/><text fill="#000000" font-family="Arial" font-size="14" lengthAdjust="spacing" textLength="140.1162" x="1879.2" y="492.0897">get_files_by_language</text><text fill="#000000" font-family="Arial" font-size="14" lengthAdjust="spacing" textLength="157.1719" x="1879.2" y="508.1883">maestro/commands/tu.py</text></g><!--entity tu_builder--><g class="entity" data-entity="tu_builder" data-source-line="33" data-uid="ent0023" id="entity_tu_builder"><rect fill="#FFFFFF" height="46.0986" rx="2.5" ry="2.5" style="stroke:#000000;stroke-width:1;" width="101.4893" x="2311.04" y="472.0079"/><rect fill="#FFFFFF" height="10" style="stroke:#000000;stroke-width:1;" width="15" x="2392.5293" y="477.0079"/><rect fill="#FFFFFF" height="2" style="stroke:#000000;stroke-width:1;" width="4" x="2390.5293" y="479.0079"/><rect fill="#FFFFFF" height="2" style="stroke:#000000;stroke-width:1;" width="4" x="2390.5293" y="483.0079"/><text fill="#000000" font-family="Arial" font-size="14" lengthAdjust="spacing" textLength="61.4893" x="2326.04" y="505.1397">tu_builder</text></g><!--entity symbol_index--><g class="entity" data-entity="symbol_index" data-source-line="34" data-uid="ent0024" id="entity_symbol_index"><rect fill="#FFFFFF" height="46.0986" rx="2.5" ry="2.5" style="stroke:#000000;stroke-width:1;" width="125.5996" x="3196.99" y="472.0079"/><rect fill="#FFFFFF" height="10" style="stroke:#000000;stroke-width:1;" width="15" x="3302.5896" y="477.0079"/><rect fill="#FFFFFF" height="2" style="stroke:#000000;stroke-width:1;" width="4" x="3300.5896" y="479.0079"/><rect fill="#FFFFFF" height="2" style="stroke:#000000;stroke-width:1;" width="4" x="3300.5896" y="483.0079"/><text fill="#000000" font-family="Arial" font-size="14" lengthAdjust="spacing" textLength="85.5996" x="3211.99" y="505.1397">symbol_index</text></g><!--entity completion_provider--><g class="entity" data-entity="completion_provider" data-source-line="35" data-uid="ent0025" id="entity_completion_provider"><rect fill="#FFFFFF" height="46.0986" rx="2.5" ry="2.5" style="stroke:#000000;stroke-width:1;" width="166.0684" x="3537.75" y="472.0079"/><rect fill="#FFFFFF" height="10" style="stroke:#000000;stroke-width:1;" width="15" x="3683.8184" y="477.0079"/><rect fill="#FFFFFF" height="2" style="stroke:#000000;stroke-width:1;" width="4" x="3681.8184" y="479.0079"/><rect fill="#FFFFFF" height="2" style="stroke:#000000;stroke-width:1;" width="4" x="3681.8184" y="483.0079"/><text fill="#000000" font-family="Arial" font-size="14" lengthAdjust="spacing" textLength="126.0684" x="3552.75" y="505.1397">completion_provider</text></g><!--entity maestro_lsp_server--><g class="entity" data-entity="maestro_lsp_server" data-source-line="36" data-uid="ent0026" id="entity_maestro_lsp_server"><rect fill="#FFFFFF" height="46.0986" rx="2.5" ry="2.5" style="stroke:#000000;stroke-width:1;" width="162.9375" x="3770.32" y="472.0079"/><rect fill="#FFFFFF" height="10" style="stroke:#000000;stroke-width:1;" width="15" x="3913.2575" y="477.0079"/><rect fill="#FFFFFF" height="2" style="stroke:#000000;stroke-width:1;" width="4" x="3911.2575" y="479.0079"/><rect fill="#FFFFFF" height="2" style="stroke:#000000;stroke-width:1;" width="4" x="3911.2575" y="483.0079"/><text fill="#000000" font-family="Arial" font-size="14" lengthAdjust="spacing" textLength="122.9375" x="3785.32" y="505.1397">maestro_lsp_server</text></g><!--entity upp_convention_transformer--><g class="entity" data-entity="upp_convention_transformer" data-source-line="37" data-uid="ent0027" id="entity_upp_convention_transformer"><rect fill="#FFFFFF" height="46.0986" rx="2.5" ry="2.5" style="stroke:#000000;stroke-width:1;" width="218.2197" x="2659.68" y="472.0079"/><rect fill="#FFFFFF" height="10" style="stroke:#000000;stroke-width:1;" width="15" x="2857.8997" y="477.0079"/><rect fill="#FFFFFF" height="2" style="stroke:#000000;stroke-width:1;" width="4" x="2855.8997" y="479.0079"/><rect fill="#FFFFFF" height="2" style="stroke:#000000;stroke-width:1;" width="4" x="2855.8997" y="483.0079"/><text fill="#000000" font-family="Arial" font-size="14" lengthAdjust="spacing" textLength="178.2197" x="2674.68" y="505.1397">upp_convention_transformer</text></g><!--entity ast_printer--><g class="entity" data-entity="ast_printer" data-source-line="38" data-uid="ent0028" id="entity_ast_printer"><rect fill="#FFFFFF" height="46.0986" rx="2.5" ry="2.5" style="stroke:#000000;stroke-width:1;" width="106.1445" x="2912.71" y="472.0079"/><rect fill="#FFFFFF" height="10" style="stroke:#000000;stroke-width:1;" width="15" x="2998.8545" y="477.0079"/><rect fill="#FFFFFF" height="2" style="stroke:#000000;stroke-width:1;" width="4" x="2996.8545" y="479.0079"/><rect fill="#FFFFFF" height="2" style="stroke:#000000;stroke-width:1;" width="4" x="2996.8545" y="483.0079"/><text fill="#000000" font-family="Arial" font-size="14" lengthAdjust="spacing" textLength="66.1445" x="2927.71" y="505.1397">ast_printer</text></g><!--entity code_generator--><g class="entity" data-entity="code_generator" data-source-line="39" data-uid="ent0029" id="entity_code_generator"><rect fill="#FFFFFF" height="46.0986" rx="2.5" ry="2.5" style="stroke:#000000;stroke-width:1;" width="138.0752" x="1695.75" y="472.0079"/><rect fill="#FFFFFF" height="10" style="stroke:#000000;stroke-width:1;" width="15" x="1813.8252" y="477.0079"/><rect fill="#FFFFFF" height="2" style="stroke:#000000;stroke-width:1;" width="4" x="1811.8252" y="479.0079"/><rect fill="#FFFFFF" height="2" style="stroke:#000000;stroke-width:1;" width="4" x="1811.8252" y="483.0079"/><text fill="#000000" font-family="Arial" font-size="14" lengthAdjust="spacing" textLength="98.0752" x="1710.75" y="505.1397">code_generator</text></g><!--entity source_files--><g class="entity" data-entity="source_files" data-source-line="40" data-uid="ent0030" id="entity_source_files"><path d="M1217.43,174.5879 C1217.43,164.5879 1264.7816,164.5879 1264.7816,164.5879 C1264.7816,164.5879 1312.1331,164.5879 1312.1331,174.5879 L1312.1331,199.6865 C1312.1331,209.6865 1264.7816,209.6865 1264.7816,209.6865 C1264.7816,209.6865 1217.43,209.6865 1217.43,199.6865 L1217.43,174.5879" fill="#FFE6E6" style="stroke:#000000;stroke-width:1;"/><path d="M1217.43,174.5879 C1217.43,184.5879 1264.7816,184.5879 1264.7816,184.5879 C1264.7816,184.5879 1312.1331,184.5879 1312.1331,174.5879" fill="none" style="stroke:#000000;stroke-width:1;"/><text fill="#000000" font-family="Arial" font-size="14" lengthAdjust="spacing" textLength="74.7031" x="1227.43" y="201.7197">source_files</text></g><!--entity tu_cache_dir--><g class="entity" data-entity="tu_cache_dir" data-source-line="41" data-uid="ent0031" id="entity_tu_cache_dir"><path d="M1346.7,174.5879 C1346.7,164.5879 1396.7825,164.5879 1396.7825,164.5879 C1396.7825,164.5879 1446.865,164.5879 1446.865,174.5879 L1446.865,199.6865 C1446.865,209.6865 1396.7825,209.6865 1396.7825,209.6865 C1396.7825,209.6865 1346.7,209.6865 1346.7,199.6865 L1346.7,174.5879" fill="#FFE6E6" style="stroke:#000000;stroke-width:1;"/><path d="M1346.7,174.5879 C1346.7,184.5879 1396.7825,184.5879 1396.7825,184.5879 C1396.7825,184.5879 1446.865,184.5879 1446.865,174.5879" fill="none" style="stroke:#000000;stroke-width:1;"/><text fill="#000000" font-family="Arial" font-size="14" lengthAdjust="spacing" textLength="80.165" x="1356.7" y="201.7197">tu_cache_dir</text></g><!--entity symbol_index_db--><g class="entity" data-entity="symbol_index_db" data-source-line="42" data-uid="ent0032" id="entity_symbol_index_db"><path d="M1482.31,174.5879 C1482.31,164.5879 1546.789,164.5879 1546.789,164.5879 C1546.789,164.5879 1611.268,164.5879 1611.268,174.5879 L1611.268,199.6865 C1611.268,209.6865 1546.789,209.6865 1546.789,209.6865 C1546.789,209.6865 1482.31,209.6865 1482.31,199.6865 L1482.31,174.5879" fill="#FFE6E6" style="stroke:#000000;stroke-width:1;"/><path d="M1482.31,174.5879 C1482.31,184.5879 1546.789,184.5879 1546.789,184.5879 C1546.789,184.5879 1611.268,184.5879 1611.268,174.5879" fill="none" style="stroke:#000000;stroke-width:1;"/><text fill="#000000" font-family="Arial" font-size="14" lengthAdjust="spacing" textLength="108.958" x="1492.31" y="201.7197">symbol_index_db</text></g><!--entity tu_draft_dir--><g class="entity" data-entity="tu_draft_dir" data-source-line="43" data-uid="ent0033" id="entity_tu_draft_dir"><path d="M1219.37,345.4079 C1219.37,335.4079 1264.7802,335.4079 1264.7802,335.4079 C1264.7802,335.4079 1310.1903,335.4079 1310.1903,345.4079 L1310.1903,370.5065 C1310.1903,380.5065 1264.7802,380.5065 1264.7802,380.5065 C1264.7802,380.5065 1219.37,380.5065 1219.37,370.5065 L1219.37,345.4079" fill="#FFE6E6" style="stroke:#000000;stroke-width:1;"/><path d="M1219.37,345.4079 C1219.37,355.4079 1264.7802,355.4079 1264.7802,355.4079 C1264.7802,355.4079 1310.1903,355.4079 1310.1903,345.4079" fill="none" style="stroke:#000000;stroke-width:1;"/><text fill="#000000" font-family="Arial" font-size="14" lengthAdjust="spacing" textLength="70.8203" x="1229.37" y="372.5397">tu_draft_dir</text></g><!--entity docs_todo_classes_md--><g class="entity" data-entity="docs_todo_classes_md" data-source-line="44" data-uid="ent0034" id="entity_docs_todo_classes_md"><path d="M1345.63,345.4079 C1345.63,335.4079 1428.7848,335.4079 1428.7848,335.4079 C1428.7848,335.4079 1511.9396,335.4079 1511.9396,345.4079 L1511.9396,370.5065 C1511.9396,380.5065 1428.7848,380.5065 1428.7848,380.5065 C1428.7848,380.5065 1345.63,380.5065 1345.63,370.5065 L1345.63,345.4079" fill="#FFE6E6" style="stroke:#000000;stroke-width:1;"/><path d="M1345.63,345.4079 C1345.63,355.4079 1428.7848,355.4079 1428.7848,355.4079 C1428.7848,355.4079 1511.9396,355.4079 1511.9396,345.4079" fill="none" style="stroke:#000000;stroke-width:1;"/><text fill="#000000" font-family="Arial" font-size="14" lengthAdjust="spacing" textLength="146.3096" x="1355.63" y="372.5397">docs_todo_classes_md</text></g><!--entity file_system--><g class="entity" data-entity="file_system" data-source-line="45" data-uid="ent0035" id="entity_file_system"><ellipse cx="1581.7803" cy="328.4079" fill="#FFFFFF" rx="8" ry="8" style="stroke:#000000;stroke-width:1;"/><path d="M1581.7803,336.4079 L1581.7803,363.4079 M1568.7803,344.4079 L1594.7803,344.4079 M1581.7803,363.4079 L1568.7803,378.4079 M1581.7803,363.4079 L1594.7803,378.4079" fill="none" style="stroke:#000000;stroke-width:1;"/><text fill="#000000" font-family="Arial" font-size="14" lengthAdjust="spacing" textLength="70.0205" x="1546.77" y="393.5397">file_system</text></g><!--entity shutil--><g class="entity" data-entity="shutil" data-source-line="46" data-uid="ent0036" id="entity_shutil"><ellipse cx="4092.7813" cy="465.5079" fill="#FFFFFF" rx="8" ry="8" style="stroke:#000000;stroke-width:1;"/><path d="M4092.7813,473.5079 L4092.7813,500.5079 M4079.7813,481.5079 L4105.7813,481.5079 M4092.7813,500.5079 L4079.7813,515.5079 M4092.7813,500.5079 L4105.7813,515.5079" fill="none" style="stroke:#000000;stroke-width:1;"/><text fill="#000000" font-family="Arial" font-size="14" lengthAdjust="spacing" textLength="32.6826" x="4076.44" y="530.6397">shutil</text></g><!--entity json--><g class="entity" data-entity="json" data-source-line="47" data-uid="ent0037" id="entity_json"><ellipse cx="1264.78" cy="465.5079" fill="#FFFFFF" rx="8" ry="8" style="stroke:#000000;stroke-width:1;"/><path d="M1264.78,473.5079 L1264.78,500.5079 M1251.78,481.5079 L1277.78,481.5079 M1264.78,500.5079 L1251.78,515.5079 M1264.78,500.5079 L1277.78,515.5079" fill="none" style="stroke:#000000;stroke-width:1;"/><text fill="#000000" font-family="Arial" font-size="14" lengthAdjust="spacing" textLength="25.6826" x="1251.9387" y="530.6397">json</text></g><!--link NOTE_ANCHOR to GMN3--><!--link main_entry to add_tu_parser--><g class="link" data-entity-1="main_entry" data-entity-2="add_tu_parser" data-source-line="48" data-uid="lnk38" id="link_main_entry_add_tu_parser"><path d="M1740.78,213.4179 C1740.78,245.2379 1740.78,293.6079 1740.78,325.5179" fill="none" id="main_entry-to-add_tu_parser" style="stroke:#333333;stroke-width:1;"/><polygon fill="#333333" points="1740.78,331.5179,1744.78,322.5179,1740.78,326.5179,1736.78,322.5179,1740.78,331.5179" style="stroke:#333333;stroke-width:1;"/></g><!--link handle_tu_command to handle_tu_build_command--><g class="link" data-entity-1="handle_tu_command" data-entity-2="handle_tu_build_command" data-source-line="49" data-uid="lnk39" id="link_handle_tu_command_handle_tu_build_command"><path d="M3048.82,196.9279 C2893.59,213.3579 2563.83,253.2079 2291.78,319.4079 C2278.14,322.7279 2269.481,325.128 2255.761,329.548" fill="none" id="handle_tu_command-to-handle_tu_build_command" style="stroke:#333333;stroke-width:1;"/><polygon fill="#333333" points="2250.05,331.3879,2259.843,332.4354,2254.8091,329.8547,2257.3899,324.8208,2250.05,331.3879" style="stroke:#333333;stroke-width:1;"/></g><!--link handle_tu_command to handle_tu_info_command--><g class="link" data-entity-1="handle_tu_command" data-entity-2="handle_tu_info_command" data-source-line="50" data-uid="lnk40" id="link_handle_tu_command_handle_tu_info_command"><path d="M3101.9,213.5979 C3056.97,245.4679 2985.3541,296.2668 2940.4741,328.0968" fill="none" id="handle_tu_command-to-handle_tu_info_command" style="stroke:#333333;stroke-width:1;"/><polygon fill="#333333" points="2935.58,331.5679,2945.2351,329.6241,2939.6584,328.6753,2940.6071,323.0986,2935.58,331.5679" style="stroke:#333333;stroke-width:1;"/></g><!--link handle_tu_command to handle_tu_query_command--><g class="link" data-entity-1="handle_tu_command" data-entity-2="handle_tu_query_command" data-source-line="51" data-uid="lnk41" id="link_handle_tu_command_handle_tu_query_command"><path d="M3174.58,213.5979 C3220.64,245.4679 3294.1353,296.3248 3340.1553,328.1548" fill="none" id="handle_tu_command-to-handle_tu_query_command" style="stroke:#333333;stroke-width:1;"/><polygon fill="#333333" points="3345.09,331.5679,3339.9634,323.1585,3340.9778,328.7236,3335.4126,329.738,3345.09,331.5679" style="stroke:#333333;stroke-width:1;"/></g><!--link handle_tu_command to handle_tu_complete_command--><g class="link" data-entity-1="handle_tu_command" data-entity-2="handle_tu_complete_command" data-source-line="52" data-uid="lnk42" id="link_handle_tu_command_handle_tu_complete_command"><path d="M3210.88,213.6879 C3301.99,245.5379 3451.1362,297.6576 3542.1762,329.4876" fill="none" id="handle_tu_command-to-handle_tu_complete_command" style="stroke:#333333;stroke-width:1;"/><polygon fill="#333333" points="3547.84,331.4679,3540.6644,324.7217,3543.1202,329.8177,3538.0241,332.2734,3547.84,331.4679" style="stroke:#333333;stroke-width:1;"/></g><!--link handle_tu_command to handle_tu_references_command--><g class="link" data-entity-1="handle_tu_command" data-entity-2="handle_tu_references_command" data-source-line="53" data-uid="lnk43" id="link_handle_tu_command_handle_tu_references_command"><path d="M3137.78,213.4179 C3137.78,245.2379 3137.78,293.6079 3137.78,325.5179" fill="none" id="handle_tu_command-to-handle_tu_references_command" style="stroke:#333333;stroke-width:1;"/><polygon fill="#333333" points="3137.78,331.5179,3141.78,322.5179,3137.78,326.5179,3133.78,322.5179,3137.78,331.5179" style="stroke:#333333;stroke-width:1;"/></g><!--link handle_tu_command to handle_tu_lsp_command--><g class="link" data-entity-1="handle_tu_command" data-entity-2="handle_tu_lsp_command" data-source-line="54" data-uid="lnk44" id="link_handle_tu_command_handle_tu_lsp_command"><path d="M3226.76,203.6579 C3346,225.2979 3563.73,267.7379 3745.78,319.4079 C3758.18,322.9279 3765.5544,325.1817 3778.0944,329.4817" fill="none" id="handle_tu_command-to-handle_tu_lsp_command" style="stroke:#333333;stroke-width:1;"/><polygon fill="#333333" points="3783.77,331.4279,3776.5541,324.7249,3779.0403,329.806,3773.9592,332.2923,3783.77,331.4279" style="stroke:#333333;stroke-width:1;"/></g><!--link handle_tu_command to handle_tu_cache_clear_command--><g class="link" data-entity-1="handle_tu_command" data-entity-2="handle_tu_cache_clear_command" data-source-line="55" data-uid="lnk45" id="link_handle_tu_command_handle_tu_cache_clear_command"><path d="M3226.68,199.0379 C3377.84,218.2979 3694.21,261.8479 3957.78,319.4079 C3973.59,322.8579 3984.4948,325.5036 4000.5648,329.8136" fill="none" id="handle_tu_command-to-handle_tu_cache_clear_command" style="stroke:#333333;stroke-width:1;"/><polygon fill="#333333" points="4006.36,331.3679,3998.7034,325.173,4001.5307,330.0726,3996.631,332.8999,4006.36,331.3679" style="stroke:#333333;stroke-width:1;"/></g><!--link handle_tu_command to handle_tu_cache_stats_command--><g class="link" data-entity-1="handle_tu_command" data-entity-2="handle_tu_cache_stats_command" data-source-line="56" data-uid="lnk46" id="link_handle_tu_command_handle_tu_cache_stats_command"><path d="M3226.82,194.2179 C3413.7,207.9779 3859.99,246.1779 4227.78,319.4079 C4244.25,322.6879 4255.8661,325.3986 4272.4761,329.8686" fill="none" id="handle_tu_command-to-handle_tu_cache_stats_command" style="stroke:#333333;stroke-width:1;"/><polygon fill="#333333" points="4278.27,331.4279,4270.6187,325.2265,4273.4418,330.1285,4268.5397,332.9516,4278.27,331.4279" style="stroke:#333333;stroke-width:1;"/></g><!--link handle_tu_command to handle_tu_transform_command--><g class="link" data-entity-1="handle_tu_command" data-entity-2="handle_tu_transform_command" data-source-line="57" data-uid="lnk47" id="link_handle_tu_command_handle_tu_transform_command"><path d="M3048.75,205.7279 C2932.16,229.2379 2721.68,273.3079 2543.78,319.4079 C2529.75,323.0479 2520.6909,325.5109 2506.3309,329.6909" fill="none" id="handle_tu_command-to-handle_tu_transform_command" style="stroke:#333333;stroke-width:1;"/><polygon fill="#333333" points="2500.57,331.3679,2510.3293,332.6931,2505.3707,329.9704,2508.0934,325.0119,2500.57,331.3679" style="stroke:#333333;stroke-width:1;"/></g><!--link handle_tu_command to handle_tu_print_ast_command--><g class="link" data-entity-1="handle_tu_command" data-entity-2="handle_tu_print_ast_command" data-source-line="58" data-uid="lnk48" id="link_handle_tu_command_handle_tu_print_ast_command"><path d="M3066.66,213.6879 C2977.99,245.5379 2833.0066,297.6091 2744.4166,329.4391" fill="none" id="handle_tu_command-to-handle_tu_print_ast_command" style="stroke:#333333;stroke-width:1;"/><polygon fill="#333333" points="2738.77,331.4679,2748.5924,332.1891,2743.4755,329.7772,2745.8874,324.6603,2738.77,331.4679" style="stroke:#333333;stroke-width:1;"/></g><!--link handle_tu_command to handle_tu_draft_command--><g class="link" data-entity-1="handle_tu_command" data-entity-2="handle_tu_draft_command" data-source-line="59" data-uid="lnk49" id="link_handle_tu_command_handle_tu_draft_command"><path d="M3048.99,192.8079 C2864.27,203.8879 2426.01,237.2279 2067.78,319.4079 C2053.92,322.5879 2045.0523,325.0014 2031.2123,329.5314" fill="none" id="handle_tu_command-to-handle_tu_draft_command" style="stroke:#333333;stroke-width:1;"/><polygon fill="#333333" points="2025.51,331.3979,2035.3078,332.3997,2030.2619,329.8425,2032.8192,324.7967,2025.51,331.3979" style="stroke:#333333;stroke-width:1;"/></g><!--link handle_tu_build_command to get_files_by_language--><g class="link" data-entity-1="handle_tu_build_command" data-entity-2="get_files_by_language" data-source-line="60" data-uid="lnk50" id="link_handle_tu_build_command_get_files_by_language"><path d="M2137.77,384.5279 C2098.17,408.6279 2044.2951,441.408 2004.7551,465.478" fill="none" id="handle_tu_build_command-to-get_files_by_language" style="stroke:#333333;stroke-width:1;"/><polygon fill="#333333" points="1999.63,468.5979,2009.3975,467.3347,2003.9009,465.9979,2005.2377,460.5013,1999.63,468.5979" style="stroke:#333333;stroke-width:1;"/></g><!--link handle_tu_build_command to detect_language_from_path--><g class="link" data-entity-1="handle_tu_build_command" data-entity-2="detect_language_from_path" data-source-line="61" data-uid="lnk51" id="link_handle_tu_build_command_detect_language_from_path"><path d="M2179.6,384.3679 C2179.42,408.5279 2179.1948,438.648 2179.0148,462.758" fill="none" id="handle_tu_build_command-to-detect_language_from_path" style="stroke:#333333;stroke-width:1;"/><polygon fill="#333333" points="2178.97,468.7579,2183.0371,459.788,2179.0073,463.758,2175.0373,459.7282,2178.97,468.7579" style="stroke:#333333;stroke-width:1;"/></g><!--link handle_tu_build_command to get_parser_by_language--><g class="link" data-entity-1="handle_tu_build_command" data-entity-2="get_parser_by_language" data-source-line="62" data-uid="lnk52" id="link_handle_tu_build_command_get_parser_by_language"><path d="M2247.16,384.5279 C2310.56,408.5879 2399.3602,442.2893 2462.7702,466.3493" fill="none" id="handle_tu_build_command-to-get_parser_by_language" style="stroke:#333333;stroke-width:1;"/><polygon fill="#333333" points="2468.38,468.4779,2461.3844,461.5452,2463.7052,466.7041,2458.5463,469.0249,2468.38,468.4779" style="stroke:#333333;stroke-width:1;"/></g><!--link handle_tu_build_command to tu_builder--><g class="link" data-entity-1="handle_tu_build_command" data-entity-2="tu_builder" data-source-line="63" data-uid="lnk53" id="link_handle_tu_build_command_tu_builder"><path d="M2214.02,384.3679 C2247.9,409.5179 2294.4326,444.0612 2326.8126,468.1012" fill="none" id="handle_tu_build_command-to-tu_builder" style="stroke:#333333;stroke-width:1;"/><polygon fill="#333333" points="2331.63,471.6779,2326.7883,463.1013,2327.6155,468.6973,2322.0194,469.5245,2331.63,471.6779" style="stroke:#333333;stroke-width:1;"/></g><!--link handle_tu_query_command to symbol_index--><g class="link" data-entity-1="handle_tu_query_command" data-entity-2="symbol_index" data-source-line="64" data-uid="lnk54" id="link_handle_tu_query_command_symbol_index"><path d="M3358.84,384.3679 C3336.06,409.5979 3305.5213,443.4148 3283.8213,467.4448" fill="none" id="handle_tu_query_command-to-symbol_index" style="stroke:#333333;stroke-width:1;"/><polygon fill="#333333" points="3279.8,471.8979,3288.8006,467.8991,3283.151,468.187,3282.8632,462.5375,3279.8,471.8979" style="stroke:#333333;stroke-width:1;"/></g><!--link handle_tu_complete_command to completion_provider--><g class="link" data-entity-1="handle_tu_complete_command" data-entity-2="completion_provider" data-source-line="65" data-uid="lnk55" id="link_handle_tu_complete_command_completion_provider"><path d="M3620.78,384.3679 C3620.78,409.5979 3620.78,441.8679 3620.78,465.8979" fill="none" id="handle_tu_complete_command-to-completion_provider" style="stroke:#333333;stroke-width:1;"/><polygon fill="#333333" points="3620.78,471.8979,3624.78,462.8979,3620.78,466.8979,3616.78,462.8979,3620.78,471.8979" style="stroke:#333333;stroke-width:1;"/></g><!--link handle_tu_references_command to symbol_index--><g class="link" data-entity-1="handle_tu_references_command" data-entity-2="symbol_index" data-source-line="66" data-uid="lnk56" id="link_handle_tu_references_command_symbol_index"><path d="M3160.73,384.3679 C3183.51,409.5979 3214.0487,443.4148 3235.7487,467.4448" fill="none" id="handle_tu_references_command-to-symbol_index" style="stroke:#333333;stroke-width:1;"/><polygon fill="#333333" points="3239.77,471.8979,3236.7068,462.5375,3236.419,468.187,3230.7694,467.8991,3239.77,471.8979" style="stroke:#333333;stroke-width:1;"/></g><!--link handle_tu_lsp_command to maestro_lsp_server--><g class="link" data-entity-1="handle_tu_lsp_command" data-entity-2="maestro_lsp_server" data-source-line="67" data-uid="lnk57" id="link_handle_tu_lsp_command_maestro_lsp_server"><path d="M3851.78,384.3679 C3851.78,409.5979 3851.78,441.8679 3851.78,465.8979" fill="none" id="handle_tu_lsp_command-to-maestro_lsp_server" style="stroke:#333333;stroke-width:1;"/><polygon fill="#333333" points="3851.78,471.8979,3855.78,462.8979,3851.78,466.8979,3847.78,462.8979,3851.78,471.8979" style="stroke:#333333;stroke-width:1;"/></g><!--link handle_tu_cache_clear_command to shutil--><g class="link" data-entity-1="handle_tu_cache_clear_command" data-entity-2="shutil" data-source-line="68" data-uid="lnk58" id="link_handle_tu_cache_clear_command_shutil"><path d="M4092.78,384.3679 C4092.78,404.6279 4092.78,427.2979 4092.78,450.2479" fill="none" id="handle_tu_cache_clear_command-to-shutil" style="stroke:#333333;stroke-width:1;"/><polygon fill="#333333" points="4092.78,456.2479,4096.78,447.2479,4092.78,451.2479,4088.78,447.2479,4092.78,456.2479" style="stroke:#333333;stroke-width:1;"/></g><!--link handle_tu_transform_command to get_files_by_language--><g class="link" data-entity-1="handle_tu_transform_command" data-entity-2="get_files_by_language" data-source-line="69" data-uid="lnk59" id="link_handle_tu_transform_command_get_files_by_language"><path d="M2333.51,384.4879 C2319.59,388.5779 2305.3,392.7179 2291.78,396.5079 C2190.9,424.8079 2163.92,425.6579 2063.78,456.5079 C2051.94,460.1579 2045.1206,462.3473 2033.0306,466.5273" fill="none" id="handle_tu_transform_command-to-get_files_by_language" style="stroke:#333333;stroke-width:1;"/><polygon fill="#333333" points="2027.36,468.4879,2037.173,469.3274,2032.0855,466.854,2034.5589,461.7666,2027.36,468.4879" style="stroke:#333333;stroke-width:1;"/></g><!--link handle_tu_transform_command to detect_language_from_path--><g class="link" data-entity-1="handle_tu_transform_command" data-entity-2="detect_language_from_path" data-source-line="70" data-uid="lnk60" id="link_handle_tu_transform_command_detect_language_from_path"><path d="M2372.55,384.5279 C2329.92,408.6279 2271.6229,441.5747 2229.0529,465.6447" fill="none" id="handle_tu_transform_command-to-detect_language_from_path" style="stroke:#333333;stroke-width:1;"/><polygon fill="#333333" points="2223.83,468.5979,2233.6331,467.6501,2228.1824,466.1369,2229.6956,460.6862,2223.83,468.5979" style="stroke:#333333;stroke-width:1;"/></g><!--link handle_tu_transform_command to get_parser_by_language--><g class="link" data-entity-1="handle_tu_transform_command" data-entity-2="get_parser_by_language" data-source-line="71" data-uid="lnk61" id="link_handle_tu_transform_command_get_parser_by_language"><path d="M2439.98,384.3679 C2461.08,408.5279 2488.6828,440.129 2509.7428,464.239" fill="none" id="handle_tu_transform_command-to-get_parser_by_language" style="stroke:#333333;stroke-width:1;"/><polygon fill="#333333" points="2513.69,468.7579,2510.7818,459.3482,2510.4007,464.9922,2504.7567,464.6111,2513.69,468.7579" style="stroke:#333333;stroke-width:1;"/></g><!--link handle_tu_transform_command to tu_builder--><g class="link" data-entity-1="handle_tu_transform_command" data-entity-2="tu_builder" data-source-line="72" data-uid="lnk62" id="link_handle_tu_transform_command_tu_builder"><path d="M2407.25,384.3679 C2396.8,409.5979 2383.2274,442.3251 2373.2674,466.3551" fill="none" id="handle_tu_transform_command-to-tu_builder" style="stroke:#333333;stroke-width:1;"/><polygon fill="#333333" points="2370.97,471.8979,2378.1112,465.1153,2372.8845,467.2789,2370.7209,462.0521,2370.97,471.8979" style="stroke:#333333;stroke-width:1;"/></g><!--link handle_tu_transform_command to upp_convention_transformer--><g class="link" data-entity-1="handle_tu_transform_command" data-entity-2="upp_convention_transformer" data-source-line="73" data-uid="lnk63" id="link_handle_tu_transform_command_upp_convention_transformer"><path d="M2484.22,384.5279 C2549.41,409.6179 2642.2603,445.363 2704.6003,469.353" fill="none" id="handle_tu_transform_command-to-upp_convention_transformer" style="stroke:#333333;stroke-width:1;"/><polygon fill="#333333" points="2710.2,471.5079,2703.2371,464.5424,2705.5336,469.7121,2700.3639,472.0086,2710.2,471.5079" style="stroke:#333333;stroke-width:1;"/></g><!--link handle_tu_print_ast_command to get_parser_by_language--><g class="link" data-entity-1="handle_tu_print_ast_command" data-entity-2="get_parser_by_language" data-source-line="74" data-uid="lnk64" id="link_handle_tu_print_ast_command_get_parser_by_language"><path d="M2642.96,384.3679 C2619.36,408.5279 2588.2534,440.3565 2564.6934,464.4665" fill="none" id="handle_tu_print_ast_command-to-get_parser_by_language" style="stroke:#333333;stroke-width:1;"/><polygon fill="#333333" points="2560.5,468.7579,2569.651,465.1165,2563.9945,465.1818,2563.9292,459.5253,2560.5,468.7579" style="stroke:#333333;stroke-width:1;"/></g><!--link handle_tu_print_ast_command to ast_printer--><g class="link" data-entity-1="handle_tu_print_ast_command" data-entity-2="ast_printer" data-source-line="75" data-uid="lnk65" id="link_handle_tu_print_ast_command_ast_printer"><path d="M2731.36,384.3979 C2777.47,403.2779 2841.08,430.1979 2895.78,456.5079 C2905.48,461.1679 2910.4657,463.6546 2920.0857,468.7846" fill="none" id="handle_tu_print_ast_command-to-ast_printer" style="stroke:#333333;stroke-width:1;"/><polygon fill="#333333" points="2925.38,471.6079,2919.3208,463.8435,2920.9681,469.2551,2915.5564,470.9025,2925.38,471.6079" style="stroke:#333333;stroke-width:1;"/></g><!--link handle_tu_draft_command to get_files_by_language--><g class="link" data-entity-1="handle_tu_draft_command" data-entity-2="get_files_by_language" data-source-line="76" data-uid="lnk66" id="link_handle_tu_draft_command_get_files_by_language"><path d="M1957.78,384.3679 C1957.78,408.5279 1957.78,438.6479 1957.78,462.7579" fill="none" id="handle_tu_draft_command-to-get_files_by_language" style="stroke:#333333;stroke-width:1;"/><polygon fill="#333333" points="1957.78,468.7579,1961.78,459.7579,1957.78,463.7579,1953.78,459.7579,1957.78,468.7579" style="stroke:#333333;stroke-width:1;"/></g><!--link handle_tu_draft_command to detect_language_from_path--><g class="link" data-entity-1="handle_tu_draft_command" data-entity-2="detect_language_from_path" data-source-line="77" data-uid="lnk67" id="link_handle_tu_draft_command_detect_language_from_path"><path d="M1999.61,384.5279 C2039.03,408.6279 2092.6513,441.3976 2132.0113,465.4676" fill="none" id="handle_tu_draft_command-to-detect_language_from_path" style="stroke:#333333;stroke-width:1;"/><polygon fill="#333333" points="2137.13,468.5979,2131.5388,460.49,2132.8644,465.9893,2127.3651,467.3149,2137.13,468.5979" style="stroke:#333333;stroke-width:1;"/></g><!--link handle_tu_draft_command to get_parser_by_language--><g class="link" data-entity-1="handle_tu_draft_command" data-entity-2="get_parser_by_language" data-source-line="78" data-uid="lnk68" id="link_handle_tu_draft_command_get_parser_by_language"><path d="M2027.1,384.5479 C2040.48,388.9379 2054.48,393.1579 2067.78,396.5079 C2225.94,436.3179 2271.87,415.7879 2429.78,456.5079 C2442.73,459.8479 2450.6598,462.1551 2463.6498,466.5751" fill="none" id="handle_tu_draft_command-to-get_parser_by_language" style="stroke:#333333;stroke-width:1;"/><polygon fill="#333333" points="2469.33,468.5079,2462.0982,461.8219,2464.5965,466.8972,2459.5212,469.3955,2469.33,468.5079" style="stroke:#333333;stroke-width:1;"/></g><!--link handle_tu_draft_command to code_generator--><g class="link" data-entity-1="handle_tu_draft_command" data-entity-2="code_generator" data-source-line="79" data-uid="lnk69" id="link_handle_tu_draft_command_code_generator"><path d="M1921.48,384.3679 C1885.56,409.5179 1836.0153,444.1969 1801.6753,468.2369" fill="none" id="handle_tu_draft_command-to-code_generator" style="stroke:#333333;stroke-width:1;"/><polygon fill="#333333" points="1796.76,471.6779,1806.4269,469.7932,1800.856,468.8104,1801.8389,463.2396,1796.76,471.6779" style="stroke:#333333;stroke-width:1;"/></g><!--SRC=[dLXHR-Cs37xthz1wBtS56cDtG1zkm81UckuAjCcXwvwwWw5OJE9LbZ99JfU_igVzjlsIKRAJoB4YEmk2nABuaHH5aPH_C2ieWQmvBKIYNmknfegMP4xprwMIbM1ZoQKYx-xSn-DWiA0LDtTIc2b52JUgeDoRlr5AlZNWJ-xZJKwbWIzICL0DnzXzZZb2HY1NOWh3WOmVRwzCHQu8_Z20DIc40IKe9miktyXxETUWDi0-aFSFizkFdybOCY2tO6Z1FoH9fI6d6iW55VbAgWj2DPdEdYVPpNJyTVQKh0hazWa2JIAgMAuCaOlM326Nbx_AIkNm-VAIlBmmcUlqJQfNQuXEDn_JGgLvoTBQv56EXeosjEHaCEVtxma8HgmDIQ8WDrGiqGSN9UvR1iAexU-YfA2DagcbZTPRjwB3F7atkRxxX7leeIbZcQaoT3cwwY0WbsL91TCfMj38QN66HAqGmC7oDEYek0vtNEIyAZWxKt0B4nTVY8KyKxeFYGl_imArFLDw2zFhxJK70-UxlGMBAr6m00KY1tsccYumheZhzPaQF4IFesY-mkLoeEfSNtMHGrHfGut-NwfQoBWgewZG2wdACnLrS74rQuN9DQFQdAccWukhOOekpbNHmeJ4Cmppt6GSXnLTGhPGiiH4PbPH1ITH8HLBC4rgpERRFIOgFmmv9NnHS3n2vyZk8FQYxT6N0ci2kTYbIQZBts7eC-bjEPSSCnw3lnoRJ_0PcvnII87xBZV5Jco0xiEQXRYJx2gsQYhNCTa7LMjxxCK61rRkFfmRyEbfNuYDInUX3SeRjzV585k204MDt2t99oMC6ZftpOHsRK3j_TfP7i5sC9FhoRN7lp_phDZlmPuGuFTzdx5vPp-G5jPI7nDFovuGuBTjIMOamnB7gTOOI2MhJqLWOe-dEVg2NDYbPdgh3PGEuurtB7fLcOBNnhl7tSGVMWf7jW-9rxnSNVtSxa6IRWjXUKxK_rvklvxtChVASo_tSQdj1NIBPY_4guBzzdJBsK1CgoxrOZebfXVHgHQzY5RoJqurVnOJp8bHnCaAqAkdczUZ42_jdce1BLihxKOwESiRIhdHhYoYmE-mB5iWCSTx9IUxFkQn1cJ8BeLHGtRgjBxeReLXmHqBiqOgKQnD6cHS6EPNiLDjqX1VTn53_1pM4rr65t9KNkkhDuT5yEOziU4jtDtRZl7-lVantRqBIEsR0NkZTehmURIkyDvzJC3hTGqzkf27copYVlimfaeFSLAZlD40j3k8XLXQhFSy07aucXRR6Wsn-X2ZsjdT7W-GW25eWVNV0FxsVbjeXz9w0NBoLSo-5x61yU_V_v07O4jGv2l6Wzu5oAnvCKH6ZGa4ko2m3SYMLDgsohXOylmRSScCsA2a64fRNUYVoAQGd1hivUvcJr_kRxEdoJSKYj-Nbz4enU_zuxU7oUDa-dppV3-RPW-JsrycJoDiau8JpZaxg8ArL4Qdt1cDkLImWbbb5jwiPBmd-Xxv3m00]--></g></svg>