<svg xmlns="http://www.w3.org/2000/svg" xmlns:xlink="http://www.w3.org/1999/xlink" contentStyleType="text/css" data-diagram-type="DESCRIPTION" height="279px" preserveAspectRatio="none" style="width:1274px;height:279px;background:#FFFFFF;" version="1.1" viewBox="0 0 1274 279" width="1274px" zoomAndPan="magnify"><title>CMD-help - help deep internal flow (observed) (LOD0: Code Modules)</title><defs/><g><g class="title" data-source-line="8"><text fill="#000000" font-family="Arial" font-size="22" font-weight="bold" lengthAdjust="spacing" textLength="722.3584" x="271.8158" y="35.6357">CMD-help - help deep internal flow (observed) (LOD0: Code Modules)</text></g><!--cluster Code Modules--><g class="cluster" data-entity="Code Modules" data-source-line="16" data-uid="ent0006" id="cluster_Code Modules"><path d="M838.49,57.2979 L935.1589,57.2979 A3.75,3.75 0 0 1 937.6589,59.7979 L944.6589,79.3965 L1265.49,79.3965 A2.5,2.5 0 0 1 1267.99,81.8965 L1267.99,269.8479 A2.5,2.5 0 0 1 1265.49,272.3479 L838.49,272.3479 A2.5,2.5 0 0 1 835.99,269.8479 L835.99,59.7979 A2.5,2.5 0 0 1 838.49,57.2979" fill="#FFFFFF" style="stroke:#000000;stroke-width:1;"/><line style="stroke:#000000;stroke-width:1;" x1="835.99" x2="944.6589" y1="79.3965" y2="79.3965"/><text fill="#000000" font-family="Arial" font-size="14" font-weight="bold" lengthAdjust="spacing" textLength="95.6689" x="839.99" y="72.4297">Code Modules</text></g><!--entity ArgumentParser--><g class="entity" data-entity="ArgumentParser" data-source-line="17" data-uid="ent0007" id="entity_ArgumentParser"><rect fill="#FFFFFF" height="46.0986" rx="2.5" ry="2.5" style="stroke:#000000;stroke-width:1;" width="141.9307" x="869.03" y="92.2979"/><rect fill="#FFFFFF" height="10" style="stroke:#000000;stroke-width:1;" width="15" x="990.9607" y="97.2979"/><rect fill="#FFFFFF" height="2" style="stroke:#000000;stroke-width:1;" width="4" x="988.9607" y="99.2979"/><rect fill="#FFFFFF" height="2" style="stroke:#000000;stroke-width:1;" width="4" x="988.9607" y="103.2979"/><text fill="#000000" font-family="Arial" font-size="14" lengthAdjust="spacing" textLength="101.9307" x="884.03" y="125.4297">ArgumentParser</text></g><!--entity main--><g class="entity" data-entity="main" data-source-line="18" data-uid="ent0008" id="entity_main"><rect fill="#FFFFFF" height="46.0986" rx="2.5" ry="2.5" style="stroke:#000000;stroke-width:1;" width="70.3447" x="1045.82" y="92.2979"/><rect fill="#FFFFFF" height="10" style="stroke:#000000;stroke-width:1;" width="15" x="1096.1647" y="97.2979"/><rect fill="#FFFFFF" height="2" style="stroke:#000000;stroke-width:1;" width="4" x="1094.1647" y="99.2979"/><rect fill="#FFFFFF" height="2" style="stroke:#000000;stroke-width:1;" width="4" x="1094.1647" y="103.2979"/><text fill="#000000" font-family="Arial" font-size="14" lengthAdjust="spacing" textLength="30.3447" x="1060.82" y="125.4297">main</text></g><!--entity cli_parser--><g class="entity" data-entity="cli_parser" data-source-line="19" data-uid="ent0009" id="entity_cli_parser"><rect fill="#FFFFFF" height="46.0986" rx="2.5" ry="2.5" style="stroke:#000000;stroke-width:1;" width="100.6895" x="1151.65" y="92.2979"/><rect fill="#FFFFFF" height="10" style="stroke:#000000;stroke-width:1;" width="15" x="1232.3395" y="97.2979"/><rect fill="#FFFFFF" height="2" style="stroke:#000000;stroke-width:1;" width="4" x="1230.3395" y="99.2979"/><rect fill="#FFFFFF" height="2" style="stroke:#000000;stroke-width:1;" width="4" x="1230.3395" y="103.2979"/><text fill="#000000" font-family="Arial" font-size="14" lengthAdjust="spacing" textLength="60.6895" x="1166.65" y="125.4297">cli_parser</text></g><!--entity StyledArgumentParser--><g class="entity" data-entity="StyledArgumentParser" data-source-line="20" data-uid="ent0010" id="entity_StyledArgumentParser"><rect fill="#FFFFFF" height="46.0986" rx="2.5" ry="2.5" style="stroke:#000000;stroke-width:1;" width="180.8408" x="851.57" y="210.2479"/><rect fill="#FFFFFF" height="10" style="stroke:#000000;stroke-width:1;" width="15" x="1012.4108" y="215.2479"/><rect fill="#FFFFFF" height="2" style="stroke:#000000;stroke-width:1;" width="4" x="1010.4108" y="217.2479"/><rect fill="#FFFFFF" height="2" style="stroke:#000000;stroke-width:1;" width="4" x="1010.4108" y="221.2479"/><text fill="#000000" font-family="Arial" font-size="14" lengthAdjust="spacing" textLength="140.8408" x="866.57" y="243.3797">StyledArgumentParser</text></g><!--entity utils--><g class="entity" data-entity="utils" data-source-line="21" data-uid="ent0011" id="entity_utils"><rect fill="#FFFFFF" height="46.0986" rx="2.5" ry="2.5" style="stroke:#000000;stroke-width:1;" width="64.8965" x="1067.55" y="210.2479"/><rect fill="#FFFFFF" height="10" style="stroke:#000000;stroke-width:1;" width="15" x="1112.4465" y="215.2479"/><rect fill="#FFFFFF" height="2" style="stroke:#000000;stroke-width:1;" width="4" x="1110.4465" y="217.2479"/><rect fill="#FFFFFF" height="2" style="stroke:#000000;stroke-width:1;" width="4" x="1110.4465" y="221.2479"/><text fill="#000000" font-family="Arial" font-size="14" lengthAdjust="spacing" textLength="24.8965" x="1082.55" y="243.3797">utils</text></g><!--entity pyfiglet--><g class="entity" data-entity="pyfiglet" data-source-line="22" data-uid="ent0012" id="entity_pyfiglet"><rect fill="#FFFFFF" height="46.0986" rx="2.5" ry="2.5" style="stroke:#000000;stroke-width:1;" width="84.3584" x="1167.81" y="210.2479"/><rect fill="#FFFFFF" height="10" style="stroke:#000000;stroke-width:1;" width="15" x="1232.1684" y="215.2479"/><rect fill="#FFFFFF" height="2" style="stroke:#000000;stroke-width:1;" width="4" x="1230.1684" y="217.2479"/><rect fill="#FFFFFF" height="2" style="stroke:#000000;stroke-width:1;" width="4" x="1230.1684" y="221.2479"/><text fill="#000000" font-family="Arial" font-size="14" lengthAdjust="spacing" textLength="44.3584" x="1182.81" y="243.3797">pyfiglet</text></g><!--entity NOTE_ANCHOR--><!--SRC=[fLDDRzim3BtxLt3PfGtGQDXklMLEYmreac7ThIWAnQ9j8R8eI782OzX_7wsqZRtwieqNKNfFukE7tiKQ6mHdfBPPs6lhf9SDx6InhporLkLaoCFxssG3Xi9IjYRUaeqRoIyilPPcW2-zf-FpvK_91k268duchz0_C_9aVpAcH30hYpeQX7ozkghHEBY2j2X41zf6z5OQA0qTuO9s0Vq1rILSt6rN7wuX9uMm9jKQ39TPrWOiP42OILlKv6SW0sosFswUbflyo_PxLckc3myiwmAlgpe2bIC4O3w_fzONU3sVmyE3eYA88_bzhoI8mqUXlIWQ9LvqBmhMikXaO-0lk8-F6Le5lOuiSrmXMR7yOLep-CbY2ceSMRGHPajVjGrxtwJdQgGSnqTZUiEZa4YzCuOAev_S-PNpTaoxZvr1DH5s2XXVRQCs8N6JDmPTL-hAO4puooRxbPswOh2SRChDWPjeKrlw_TlMY9eQ565dIApm8DOIG_GacjTLsuNhU7HiP3S0VvbK6s1HlWD7F7HGjhQ8cYptvv-2d7edpYLz4pA_-med22HFm5Gj_pDuAlaeRd-YO_UQNO2IFs98eS5vJbpRQZYIlm40]--></g></svg>