<svg xmlns="http://www.w3.org/2000/svg" xmlns:xlink="http://www.w3.org/1999/xlink" contentStyleType="text/css" data-diagram-type="DESCRIPTION" height="465px" preserveAspectRatio="none" style="width:1610px;height:465px;background:#FFFFFF;" version="1.1" viewBox="0 0 1610 465" width="1610px" zoomAndPan="magnify"><title>CMD-task - task deep internal flow (observed) (LOD0: Code Modules)</title><defs/><g><g class="title" data-source-line="8"><text fill="#000000" font-family="Arial" font-size="22" font-weight="bold" lengthAdjust="spacing" textLength="719.9736" x="440.6532" y="35.6357">CMD-task - task deep internal flow (observed) (LOD0: Code Modules)</text></g><!--cluster Code Modules--><g class="cluster" data-entity="Code Modules" data-source-line="16" data-uid="ent0006" id="cluster_Code Modules"><path d="M1234.78,122.5979 L1331.4489,122.5979 A3.75,3.75 0 0 1 1333.9489,125.0979 L1340.9489,144.6965 L1600.78,144.6965 A2.5,2.5 0 0 1 1603.28,147.1965 L1603.28,456.1879 A2.5,2.5 0 0 1 1600.78,458.6879 L1234.78,458.6879 A2.5,2.5 0 0 1 1232.28,456.1879 L1232.28,125.0979 A2.5,2.5 0 0 1 1234.78,122.5979" fill="#FFFFFF" style="stroke:#000000;stroke-width:1;"/><line style="stroke:#000000;stroke-width:1;" x1="1232.28" x2="1340.9489" y1="144.6965" y2="144.6965"/><text fill="#000000" font-family="Arial" font-size="14" font-weight="bold" lengthAdjust="spacing" textLength="95.6689" x="1236.28" y="137.7297">Code Modules</text></g><!--entity discuss--><g class="entity" data-entity="discuss" data-source-line="17" data-uid="ent0007" id="entity_discuss"><rect fill="#FFFFFF" height="46.0986" rx="2.5" ry="2.5" style="stroke:#000000;stroke-width:1;" width="86.6826" x="1247.94" y="157.5979"/><rect fill="#FFFFFF" height="10" style="stroke:#000000;stroke-width:1;" width="15" x="1314.6226" y="162.5979"/><rect fill="#FFFFFF" height="2" style="stroke:#000000;stroke-width:1;" width="4" x="1312.6226" y="164.5979"/><rect fill="#FFFFFF" height="2" style="stroke:#000000;stroke-width:1;" width="4" x="1312.6226" y="168.5979"/><text fill="#000000" font-family="Arial" font-size="14" lengthAdjust="spacing" textLength="46.6826" x="1262.94" y="190.7297">discuss</text></g><!--entity task--><g class="entity" data-entity="task" data-source-line="18" data-uid="ent0008" id="entity_task"><rect fill="#FFFFFF" height="46.0986" rx="2.5" ry="2.5" style="stroke:#000000;stroke-width:1;" width="65.6758" x="1369.45" y="157.5979"/><rect fill="#FFFFFF" height="10" style="stroke:#000000;stroke-width:1;" width="15" x="1415.1258" y="162.5979"/><rect fill="#FFFFFF" height="2" style="stroke:#000000;stroke-width:1;" width="4" x="1413.1258" y="164.5979"/><rect fill="#FFFFFF" height="2" style="stroke:#000000;stroke-width:1;" width="4" x="1413.1258" y="168.5979"/><text fill="#000000" font-family="Arial" font-size="14" lengthAdjust="spacing" textLength="25.6758" x="1384.45" y="190.7297">task</text></g><!--entity settings--><g class="entity" data-entity="settings" data-source-line="19" data-uid="ent0009" id="entity_settings"><rect fill="#FFFFFF" height="46.0986" rx="2.5" ry="2.5" style="stroke:#000000;stroke-width:1;" width="88.248" x="1470.16" y="157.5979"/><rect fill="#FFFFFF" height="10" style="stroke:#000000;stroke-width:1;" width="15" x="1538.408" y="162.5979"/><rect fill="#FFFFFF" height="2" style="stroke:#000000;stroke-width:1;" width="4" x="1536.408" y="164.5979"/><rect fill="#FFFFFF" height="2" style="stroke:#000000;stroke-width:1;" width="4" x="1536.408" y="168.5979"/><text fill="#000000" font-family="Arial" font-size="14" lengthAdjust="spacing" textLength="48.248" x="1485.16" y="190.7297">settings</text></g><!--entity data--><g class="entity" data-entity="data" data-source-line="20" data-uid="ent0010" id="entity_data"><rect fill="#FFFFFF" height="46.0986" rx="2.5" ry="2.5" style="stroke:#000000;stroke-width:1;" width="67.248" x="1248.66" y="290.4879"/><rect fill="#FFFFFF" height="10" style="stroke:#000000;stroke-width:1;" width="15" x="1295.908" y="295.4879"/><rect fill="#FFFFFF" height="2" style="stroke:#000000;stroke-width:1;" width="4" x="1293.908" y="297.4879"/><rect fill="#FFFFFF" height="2" style="stroke:#000000;stroke-width:1;" width="4" x="1293.908" y="301.4879"/><text fill="#000000" font-family="Arial" font-size="14" lengthAdjust="spacing" textLength="27.248" x="1263.66" y="323.6197">data</text></g><!--entity table_renderer--><g class="entity" data-entity="table_renderer" data-source-line="21" data-uid="ent0011" id="entity_table_renderer"><rect fill="#FFFFFF" height="46.0986" rx="2.5" ry="2.5" style="stroke:#000000;stroke-width:1;" width="131.0615" x="1350.75" y="290.4879"/><rect fill="#FFFFFF" height="10" style="stroke:#000000;stroke-width:1;" width="15" x="1461.8115" y="295.4879"/><rect fill="#FFFFFF" height="2" style="stroke:#000000;stroke-width:1;" width="4" x="1459.8115" y="297.4879"/><rect fill="#FFFFFF" height="2" style="stroke:#000000;stroke-width:1;" width="4" x="1459.8115" y="301.4879"/><text fill="#000000" font-family="Arial" font-size="14" lengthAdjust="spacing" textLength="91.0615" x="1365.75" y="323.6197">table_renderer</text></g><!--entity main--><g class="entity" data-entity="main" data-source-line="22" data-uid="ent0012" id="entity_main"><rect fill="#FFFFFF" height="46.0986" rx="2.5" ry="2.5" style="stroke:#000000;stroke-width:1;" width="70.3447" x="1517.11" y="290.4879"/><rect fill="#FFFFFF" height="10" style="stroke:#000000;stroke-width:1;" width="15" x="1567.4547" y="295.4879"/><rect fill="#FFFFFF" height="2" style="stroke:#000000;stroke-width:1;" width="4" x="1565.4547" y="297.4879"/><rect fill="#FFFFFF" height="2" style="stroke:#000000;stroke-width:1;" width="4" x="1565.4547" y="301.4879"/><text fill="#000000" font-family="Arial" font-size="14" lengthAdjust="spacing" textLength="30.3447" x="1532.11" y="323.6197">main</text></g><!--entity json_store--><g class="entity" data-entity="json_store" data-source-line="23" data-uid="ent0013" id="entity_json_store"><rect fill="#FFFFFF" height="46.0986" rx="2.5" ry="2.5" style="stroke:#000000;stroke-width:1;" width="104.5928" x="1247.99" y="396.5879"/><rect fill="#FFFFFF" height="10" style="stroke:#000000;stroke-width:1;" width="15" x="1332.5828" y="401.5879"/><rect fill="#FFFFFF" height="2" style="stroke:#000000;stroke-width:1;" width="4" x="1330.5828" y="403.5879"/><rect fill="#FFFFFF" height="2" style="stroke:#000000;stroke-width:1;" width="4" x="1330.5828" y="407.5879"/><text fill="#000000" font-family="Arial" font-size="14" lengthAdjust="spacing" textLength="64.5928" x="1262.99" y="429.7197">json_store</text></g><!--entity NOTE_ANCHOR--><!--link NOTE_ANCHOR to GMN3--><!--SRC=[bLFDRjim3BxxARZiqWPel7L03zqfIzorG-8CRMz1OIWMasYn9O-IanN5NcIdFTkUP9JYj4xQePXWMABuz-aZ-SOjiKIe2g5qP5TALu942JEHhnPaQYq7fZ04Ro_2Qbb8d8kwS1T6krHmX3ufKRJqVIApQPm_XDLIfiRX9qCIgR4OX7LeyH88jegSSWN2O3mySSAku0J29X4hKDeXQL70l30RE38pYxH6UGn7eydmtJaCZ4GO6raNQ8-ZgBQO2ulG4JfV6kg0i91ERfEidmuk9zVHKh5v-q8pBY2rM3emypqDGBTxOshAyRpRXUbKcjp66qChZyJ6wzDOKPoNCjxXxkMCfNSloWB-m_RkBa8jmUE8eeeP4Wk6ttvM1nuOJ6xAocZK3ZfIsRosDZokEUyR-0n1wm_xAelEARtOEk-4W_32YMriFXm6dXMO4GD6GcfIjA_spKjkmc3a3_kgRzRep3f360oUnEXdj2rAWVCNQvAikOOwLCNBN9dr-tZN9h5l6izqvf-UUQbNrLoHvrTC_DRze5YbGEl8n0os55hQEDIhkeTcVytFiyO2hQJPw6n3Yf5vz-TNhqLonErWuoTkV9WzQQzv_jdAVj2Ii-GiqFVdrsyOeLmWmIMpPdSqJfh9WY7Z7pTOeKAooZhFDu_Y8ulRsVHeFyBw50Wh0uvgjmGUG0jVRYPf27gpvFT0gNvmt7QeajkxW8rYXvdXdtS09XiU4yyLTtu8RYlCESFtMd5p0F0tdVPwCNzNuw-ZP9oaj_tRgqcQZPBXv-IwLqfuKH7OthbwnEHiN0GcifnpAouSMk_Uq3Dul6pJ_1S0]--></g></svg>