<svg xmlns="http://www.w3.org/2000/svg" xmlns:xlink="http://www.w3.org/1999/xlink" contentStyleType="text/css" data-diagram-type="DESCRIPTION" height="281px" preserveAspectRatio="none" style="width:1967px;height:281px;background:#FFFFFF;" version="1.1" viewBox="0 0 1967 281" width="1967px" zoomAndPan="magnify"><title>CMD-ops - Combined CLI+Code (LOD2)</title><defs/><g><g class="title" data-source-line="8"><text fill="#000000" font-family="Arial" font-size="22" font-weight="bold" lengthAdjust="spacing" textLength="412.4785" x="772.9044" y="35.6357">CMD-ops - Combined CLI+Code (LOD2)</text></g><!--cluster CLI Layer--><g class="cluster" data-entity="CLI Layer" data-source-line="20" data-uid="ent0007" id="cluster_CLI Layer"><path d="M599.21,57.2979 L664.0098,57.2979 A3.75,3.75 0 0 1 666.5098,59.7979 L673.5098,79.3965 L1157.21,79.3965 A2.5,2.5 0 0 1 1159.71,81.8965 L1159.71,271.7479 A2.5,2.5 0 0 1 1157.21,274.2479 L599.21,274.2479 A2.5,2.5 0 0 1 596.71,271.7479 L596.71,59.7979 A2.5,2.5 0 0 1 599.21,57.2979" fill="#E6F3FF" style="stroke:#000000;stroke-width:1;"/><line style="stroke:#000000;stroke-width:1;" x1="596.71" x2="673.5098" y1="79.3965" y2="79.3965"/><text fill="#000000" font-family="Arial" font-size="14" font-weight="bold" lengthAdjust="spacing" textLength="63.7998" x="600.71" y="72.4297">CLI Layer</text></g><!--cluster Code Layer--><g class="cluster" data-entity="Code Layer" data-source-line="26" data-uid="ent0011" id="cluster_Code Layer"><path d="M1186.21,66.4379 L1263.458,66.4379 A3.75,3.75 0 0 1 1265.958,68.9379 L1272.958,88.5365 L1703.21,88.5365 A2.5,2.5 0 0 1 1705.71,91.0365 L1705.71,264.0079 A2.5,2.5 0 0 1 1703.21,266.5079 L1186.21,266.5079 A2.5,2.5 0 0 1 1183.71,264.0079 L1183.71,68.9379 A2.5,2.5 0 0 1 1186.21,66.4379" fill="#FFE6E6" style="stroke:#000000;stroke-width:1;"/><line style="stroke:#000000;stroke-width:1;" x1="1183.71" x2="1272.958" y1="88.5365" y2="88.5365"/><text fill="#000000" font-family="Arial" font-size="14" font-weight="bold" lengthAdjust="spacing" textLength="76.248" x="1187.71" y="81.5697">Code Layer</text></g><!--entity maestro ops validate operations.json--><g class="entity" data-entity="maestro ops validate operations.json" data-source-line="21" data-uid="ent0008" id="entity_maestro ops validate operations.json"><ellipse cx="736.715" cy="119.4788" fill="#FFFFFF" rx="123.905" ry="27.181" style="stroke:#000000;stroke-width:1;"/><text fill="#000000" font-family="Arial" font-size="14" lengthAdjust="spacing" textLength="228.0195" x="622.7052" y="124.0282">maestro ops validate operations.json</text></g><!--entity maestro ops preview operations.json--><g class="entity" data-entity="maestro ops preview operations.json" data-source-line="22" data-uid="ent0009" id="entity_maestro ops preview operations.json"><ellipse cx="1019.7085" cy="119.4776" fill="#FFFFFF" rx="123.8985" ry="27.1797" style="stroke:#000000;stroke-width:1;"/><text fill="#000000" font-family="Arial" font-size="14" lengthAdjust="spacing" textLength="228.0059" x="905.7056" y="124.0269">maestro ops preview operations.json</text></g><!--entity maestro ops apply operations.json--><g class="entity" data-entity="maestro ops apply operations.json" data-source-line="23" data-uid="ent0010" id="entity_maestro ops apply operations.json"><ellipse cx="736.7101" cy="232.4599" fill="#FFFFFF" rx="116.9601" ry="25.792" style="stroke:#000000;stroke-width:1;"/><text fill="#000000" font-family="Arial" font-size="14" lengthAdjust="spacing" textLength="213.2334" x="630.0934" y="237.0092">maestro ops apply operations.json</text></g><!--entity main--><g class="entity" data-entity="main" data-source-line="27" data-uid="ent0012" id="entity_main"><rect fill="#FFFFFF" height="36.0986" rx="2.5" ry="2.5" style="stroke:#000000;stroke-width:1;" width="50.3447" x="1199.54" y="101.4379"/><text fill="#000000" font-family="Arial" font-size="14" lengthAdjust="spacing" textLength="30.3447" x="1209.54" y="124.5697">main</text></g><!--entity add_project_ops_parser--><g class="entity" data-entity="add_project_ops_parser" data-source-line="28" data-uid="ent0013" id="entity_add_project_ops_parser"><rect fill="#FFFFFF" height="36.0986" rx="2.5" ry="2.5" style="stroke:#000000;stroke-width:1;" width="170.9922" x="1285.21" y="101.4379"/><text fill="#000000" font-family="Arial" font-size="14" lengthAdjust="spacing" textLength="150.9922" x="1295.21" y="124.5697">add_project_ops_parser</text></g><!--entity handle_project_ops_validate--><g class="entity" data-entity="handle_project_ops_validate" data-source-line="29" data-uid="ent0014" id="entity_handle_project_ops_validate"><rect fill="#FFFFFF" height="36.0986" rx="2.5" ry="2.5" style="stroke:#000000;stroke-width:1;" width="198.2471" x="1491.59" y="101.4379"/><text fill="#000000" font-family="Arial" font-size="14" lengthAdjust="spacing" textLength="178.2471" x="1501.59" y="124.5697">handle_project_ops_validate</text></g><!--entity handle_project_ops_preview--><g class="entity" data-entity="handle_project_ops_preview" data-source-line="30" data-uid="ent0015" id="entity_handle_project_ops_preview"><rect fill="#FFFFFF" height="36.0986" rx="2.5" ry="2.5" style="stroke:#000000;stroke-width:1;" width="198.2334" x="1199.59" y="214.4079"/><text fill="#000000" font-family="Arial" font-size="14" lengthAdjust="spacing" textLength="178.2334" x="1209.59" y="237.5397">handle_project_ops_preview</text></g><!--entity handle_project_ops_apply--><g class="entity" data-entity="handle_project_ops_apply" data-source-line="31" data-uid="ent0016" id="entity_handle_project_ops_apply"><rect fill="#FFFFFF" height="36.0986" rx="2.5" ry="2.5" style="stroke:#000000;stroke-width:1;" width="183.4609" x="1432.98" y="214.4079"/><text fill="#000000" font-family="Arial" font-size="14" lengthAdjust="spacing" textLength="163.4609" x="1442.98" y="237.5397">handle_project_ops_apply</text></g><!--entity NOTE_ANCHOR--><g class="entity" data-entity="N1" data-source-line="17" data-uid="ent0006" id="entity_N1"><path d="M1725.13,107.0079 L1725.13,131.9566 L1960.2872,131.9566 L1960.2872,117.0079 L1950.2872,107.0079 L1725.13,107.0079" fill="#FFFFCC" style="stroke:#CCCCCC;stroke-width:1;"/><path d="M1950.2872,107.0079 L1950.2872,117.0079 L1960.2872,117.0079 L1950.2872,107.0079" fill="#FFFFCC" style="stroke:#CCCCCC;stroke-width:1;"/><text fill="#000000" font-family="Arial" font-size="13" font-weight="bold" lengthAdjust="spacing" textLength="214.1572" x="1731.13" y="124.2017">Combined CLI + Code view (LOD2)</text></g><!--SRC=[ZP91Rzim38Nl_XLSUjbSD4PR88VTCjV61cG9iErM50OhqR4QMJGanK4mxBzFrjpDMLkqEidK9_8z-Rtp3RK4dKPb4hTJfaEBBToZs6qjxutCMRE5ipAk2I6fnhts9Hk_nj1XQHNgoVdIMZwCbw_ZcXoksTCdjfBiIEHn_Kyy9o9GYLTU4-HVRowuSt01ERVtof24VFNbF6T9y7wrkRdwa2HxHm8TmGoDQDZE01siDp-AQhdEFs- -9OqAyBHWmbomQjjuuFha121Dl_FU2lgOfd1xArcuxC1sLsi-kAo_ofJDH2kpKTTSQ3K_OglXpUJTNK96mg0X-QDaa7iPHqyzmZb4bxsYmsWrJITNk_1mk0sk1tQ5Hmh6puf5ULsMy3Dq-_igBPBpbc5unXwraXXcSaSMlMBZvW-EpUob2vsbAE2jF7QTFZwbVqtr3guU1PTbiIWMKR0buT5iTUoeueX92QMiEiiFeLA5GLL8a0iTJg46ZTHqmZqwVfqShRuEHe_HK_nzckfdSrJq8NSc9cdu3cdgBpF1RHiwLcvlQnGq96JeEMyb_DjE8_8R]--></g></svg>