<svg xmlns="http://www.w3.org/2000/svg" xmlns:xlink="http://www.w3.org/1999/xlink" contentStyleType="text/css" data-diagram-type="DESCRIPTION" height="822px" preserveAspectRatio="none" style="width:1779px;height:822px;background:#FFFFFF;" version="1.1" viewBox="0 0 1779 822" width="1779px" zoomAndPan="magnify"><title>CMD-plan - plan deep internal flow (observed) (LOD1: Code Functions)</title><defs/><g><g class="title" data-source-line="8"><text fill="#000000" font-family="Arial" font-size="22" font-weight="bold" lengthAdjust="spacing" textLength="738.2354" x="516.2231" y="35.6357">CMD-plan - plan deep internal flow (observed) (LOD1: Code Functions)</text></g><!--entity NOTE_ANCHOR--><!--entity main_entry--><g class="entity" data-entity="main_entry" data-source-line="16" data-uid="ent0006" id="entity_main_entry"><rect fill="#FFFFFF" height="52.1973" rx="2.5" ry="2.5" style="stroke:#000000;stroke-width:1;" width="132.8066" x="1283.25" y="179.7979"/><text fill="#000000" font-family="Arial" font-size="14" lengthAdjust="spacing" textLength="69.2549" x="1293.25" y="202.9297">main_entry</text><text fill="#000000" font-family="Arial" font-size="14" lengthAdjust="spacing" textLength="112.8066" x="1293.25" y="219.0283">(maestro/main.py)</text></g><!--entity plan_command_handler--><g class="entity" data-entity="plan_command_handler" data-source-line="17" data-uid="ent0007" id="entity_plan_command_handler"><rect fill="#FFFFFF" height="52.1973" rx="2.5" ry="2.5" style="stroke:#000000;stroke-width:1;" width="201.2891" x="1249.01" y="353.1179"/><text fill="#000000" font-family="Arial" font-size="14" lengthAdjust="spacing" textLength="150.2129" x="1259.01" y="376.2497">plan_command_handler</text><text fill="#000000" font-family="Arial" font-size="14" lengthAdjust="spacing" textLength="181.2891" x="1259.01" y="392.3483">(maestro/commands/plan.py)</text></g><!--entity plan_ops_handler--><g class="entity" data-entity="plan_ops_handler" data-source-line="18" data-uid="ent0008" id="entity_plan_ops_handler"><rect fill="#FFFFFF" height="52.1973" rx="2.5" ry="2.5" style="stroke:#000000;stroke-width:1;" width="231.6475" x="938.83" y="477.7579"/><text fill="#000000" font-family="Arial" font-size="14" lengthAdjust="spacing" textLength="111.3164" x="948.83" y="500.8897">plan_ops_handler</text><text fill="#000000" font-family="Arial" font-size="14" lengthAdjust="spacing" textLength="211.6475" x="948.83" y="516.9883">(maestro/plan_ops/commands.py)</text></g><!--entity plan_ops_decoder--><g class="entity" data-entity="plan_ops_decoder" data-source-line="19" data-uid="ent0009" id="entity_plan_ops_decoder"><rect fill="#FFFFFF" height="52.1973" rx="2.5" ry="2.5" style="stroke:#000000;stroke-width:1;" width="213.7715" x="835.77" y="614.8579"/><text fill="#000000" font-family="Arial" font-size="14" lengthAdjust="spacing" textLength="115.2061" x="845.77" y="637.9897">plan_ops_decoder</text><text fill="#000000" font-family="Arial" font-size="14" lengthAdjust="spacing" textLength="193.7715" x="845.77" y="654.0883">(maestro/plan_ops/decoder.py)</text></g><!--entity plan_explore_handler--><g class="entity" data-entity="plan_explore_handler" data-source-line="20" data-uid="ent0010" id="entity_plan_explore_handler"><rect fill="#FFFFFF" height="52.1973" rx="2.5" ry="2.5" style="stroke:#000000;stroke-width:1;" width="201.2891" x="1249.01" y="477.7579"/><text fill="#000000" font-family="Arial" font-size="14" lengthAdjust="spacing" textLength="134.6611" x="1259.01" y="500.8897">plan_explore_handler</text><text fill="#000000" font-family="Arial" font-size="14" lengthAdjust="spacing" textLength="181.2891" x="1259.01" y="516.9883">(maestro/commands/plan.py)</text></g><!--entity plan_store--><g class="entity" data-entity="plan_store" data-source-line="22" data-uid="ent0012" id="entity_plan_store"><ellipse cx="1654.6495" cy="474.3079" fill="#FFFFFF" rx="8" ry="8" style="stroke:#000000;stroke-width:1;"/><path d="M1654.6495,482.3079 L1654.6495,509.3079 M1641.6495,490.3079 L1667.6495,490.3079 M1654.6495,509.3079 L1641.6495,524.3079 M1654.6495,509.3079 L1667.6495,524.3079" fill="none" style="stroke:#000000;stroke-width:1;"/><text fill="#000000" font-family="Arial" font-size="14" lengthAdjust="spacing" textLength="65.3789" x="1621.96" y="539.4397">plan_store</text></g><!--entity plan_ops_executor--><g class="entity" data-entity="plan_ops_executor" data-source-line="25" data-uid="ent0016" id="entity_plan_ops_executor"><ellipse cx="942.6548" cy="748.5079" fill="#FFFFFF" rx="8" ry="8" style="stroke:#000000;stroke-width:1;"/><path d="M942.6548,756.5079 L942.6548,783.5079 M929.6548,764.5079 L955.6548,764.5079 M942.6548,783.5079 L929.6548,798.5079 M942.6548,783.5079 L955.6548,798.5079" fill="none" style="stroke:#000000;stroke-width:1;"/><text fill="#000000" font-family="Arial" font-size="14" lengthAdjust="spacing" textLength="118.3096" x="883.5" y="813.6397">plan_ops_executor</text></g><!--entity explore_session--><g class="entity" data-entity="explore_session" data-source-line="27" data-uid="ent0019" id="entity_explore_session"><ellipse cx="1134.6559" cy="611.4079" fill="#FFFFFF" rx="8" ry="8" style="stroke:#000000;stroke-width:1;"/><path d="M1134.6559,619.4079 L1134.6559,646.4079 M1121.6559,627.4079 L1147.6559,627.4079 M1134.6559,646.4079 L1121.6559,661.4079 M1134.6559,646.4079 L1147.6559,661.4079" fill="none" style="stroke:#000000;stroke-width:1;"/><text fill="#000000" font-family="Arial" font-size="14" lengthAdjust="spacing" textLength="101.1719" x="1084.07" y="676.5397">explore_session</text></g><!--entity ai_engine_manager--><g class="entity" data-entity="ai_engine_manager" data-source-line="28" data-uid="ent0021" id="entity_ai_engine_manager"><ellipse cx="1281.6523" cy="611.4079" fill="#FFFFFF" rx="8" ry="8" style="stroke:#000000;stroke-width:1;"/><path d="M1281.6523,619.4079 L1281.6523,646.4079 M1268.6523,627.4079 L1294.6523,627.4079 M1281.6523,646.4079 L1268.6523,661.4079 M1281.6523,646.4079 L1294.6523,661.4079" fill="none" style="stroke:#000000;stroke-width:1;"/><text fill="#000000" font-family="Arial" font-size="14" lengthAdjust="spacing" textLength="123.7646" x="1219.77" y="676.5397">ai_engine_manager</text></g><!--entity project_ops_executor--><g class="entity" data-entity="project_ops_executor" data-source-line="29" data-uid="ent0023" id="entity_project_ops_executor"><ellipse cx="1445.6507" cy="611.4079" fill="#FFFFFF" rx="8" ry="8" style="stroke:#000000;stroke-width:1;"/><path d="M1445.6507,619.4079 L1445.6507,646.4079 M1432.6507,627.4079 L1458.6507,627.4079 M1445.6507,646.4079 L1432.6507,661.4079 M1445.6507,646.4079 L1458.6507,661.4079" fill="none" style="stroke:#000000;stroke-width:1;"/><text fill="#000000" font-family="Arial" font-size="14" lengthAdjust="spacing" textLength="133.8613" x="1378.72" y="676.5397">project_ops_executor</text></g><!--entity docs_plans_md--><g class="entity" data-entity="docs_plans_md" data-source-line="30" data-uid="ent0025" id="entity_docs_plans_md"><ellipse cx="1723.6508" cy="611.4079" fill="#FFFFFF" rx="8" ry="8" style="stroke:#000000;stroke-width:1;"/><path d="M1723.6508,619.4079 L1723.6508,646.4079 M1710.6508,627.4079 L1736.6508,627.4079 M1723.6508,646.4079 L1710.6508,661.4079 M1723.6508,646.4079 L1736.6508,661.4079" fill="none" style="stroke:#000000;stroke-width:1;"/><text fill="#000000" font-family="Arial" font-size="14" lengthAdjust="spacing" textLength="98.0615" x="1674.62" y="676.5397">docs_plans_md</text></g><!--entity docs_todo_md--><g class="entity" data-entity="docs_todo_md" data-source-line="31" data-uid="ent0027" id="entity_docs_todo_md"><ellipse cx="1593.6504" cy="611.4079" fill="#FFFFFF" rx="8" ry="8" style="stroke:#000000;stroke-width:1;"/><path d="M1593.6504,619.4079 L1593.6504,646.4079 M1580.6504,627.4079 L1606.6504,627.4079 M1593.6504,646.4079 L1580.6504,661.4079 M1593.6504,646.4079 L1606.6504,661.4079" fill="none" style="stroke:#000000;stroke-width:1;"/><text fill="#000000" font-family="Arial" font-size="14" lengthAdjust="spacing" textLength="91.8408" x="1547.73" y="676.5397">docs_todo_md</text></g><!--entity explore_session_json--><g class="entity" data-entity="explore_session_json" data-source-line="32" data-uid="ent0029" id="entity_explore_session_json"><ellipse cx="1134.6503" cy="748.5079" fill="#FFFFFF" rx="8" ry="8" style="stroke:#000000;stroke-width:1;"/><path d="M1134.6503,756.5079 L1134.6503,783.5079 M1121.6503,764.5079 L1147.6503,764.5079 M1134.6503,783.5079 L1121.6503,798.5079 M1134.6503,783.5079 L1147.6503,798.5079" fill="none" style="stroke:#000000;stroke-width:1;"/><text fill="#000000" font-family="Arial" font-size="14" lengthAdjust="spacing" textLength="134.6406" x="1067.33" y="813.6397">explore_session_json</text></g><!--link NOTE_ANCHOR to GMN3--><!--link main_entry to plan_command_handler--><g class="link" data-entity-1="main_entry" data-entity-2="plan_command_handler" data-source-line="21" data-uid="lnk11" id="link_main_entry_plan_command_handler"><path d="M1349.65,232.1779 C1349.65,264.5679 1349.65,314.3879 1349.65,346.8279" fill="none" id="main_entry-to-plan_command_handler" style="stroke:#333333;stroke-width:1;"/><polygon fill="#333333" points="1349.65,352.8279,1353.65,343.8279,1349.65,347.8279,1345.65,343.8279,1349.65,352.8279" style="stroke:#333333;stroke-width:1;"/></g><!--link plan_command_handler to plan_store--><g class="link" data-entity-1="plan_command_handler" data-entity-2="plan_store" data-source-line="22" data-uid="lnk13" id="link_plan_command_handler_plan_store"><path d="M1413.22,405.7779 C1476.77,431.3279 1566.4232,467.3795 1616.1632,487.3795" fill="none" id="plan_command_handler-to-plan_store" style="stroke:#333333;stroke-width:1;"/><polygon fill="#333333" points="1621.73,489.6179,1614.872,482.5491,1617.091,487.7525,1611.8875,489.9715,1621.73,489.6179" style="stroke:#333333;stroke-width:1;"/></g><!--link plan_command_handler to plan_ops_handler--><g class="link" data-entity-1="plan_command_handler" data-entity-2="plan_ops_handler" data-source-line="23" data-uid="lnk14" id="link_plan_command_handler_plan_ops_handler"><path d="M1288.17,405.7779 C1237.68,426.7679 1172.0602,454.0444 1121.6002,475.0244" fill="none" id="plan_command_handler-to-plan_ops_handler" style="stroke:#333333;stroke-width:1;"/><polygon fill="#333333" points="1116.06,477.3279,1125.906,477.5661,1120.6768,475.4083,1122.8347,470.1792,1116.06,477.3279" style="stroke:#333333;stroke-width:1;"/></g><!--link plan_ops_handler to plan_ops_decoder--><g class="link" data-entity-1="plan_ops_handler" data-entity-2="plan_ops_decoder" data-source-line="24" data-uid="lnk15" id="link_plan_ops_handler_plan_ops_decoder"><path d="M1033.59,530.2679 C1013.56,554.4279 987.4498,585.9291 967.4498,610.0491" fill="none" id="plan_ops_handler-to-plan_ops_decoder" style="stroke:#333333;stroke-width:1;"/><polygon fill="#333333" points="963.62,614.6679,972.4438,610.293,966.8115,610.8189,966.2855,605.1866,963.62,614.6679" style="stroke:#333333;stroke-width:1;"/></g><!--link plan_ops_decoder to plan_ops_executor--><g class="link" data-entity-1="plan_ops_decoder" data-entity-2="plan_ops_executor" data-source-line="25" data-uid="lnk17" id="link_plan_ops_decoder_plan_ops_executor"><path d="M942.65,667.3679 C942.65,687.6279 942.65,710.2979 942.65,733.2479" fill="none" id="plan_ops_decoder-to-plan_ops_executor" style="stroke:#333333;stroke-width:1;"/><polygon fill="#333333" points="942.65,739.2479,946.65,730.2479,942.65,734.2479,938.65,730.2479,942.65,739.2479" style="stroke:#333333;stroke-width:1;"/></g><!--link plan_command_handler to plan_explore_handler--><g class="link" data-entity-1="plan_command_handler" data-entity-2="plan_explore_handler" data-source-line="26" data-uid="lnk18" id="link_plan_command_handler_plan_explore_handler"><path d="M1349.65,405.6279 C1349.65,426.6779 1349.65,450.4379 1349.65,471.4779" fill="none" id="plan_command_handler-to-plan_explore_handler" style="stroke:#333333;stroke-width:1;"/><polygon fill="#333333" points="1349.65,477.4779,1353.65,468.4779,1349.65,472.4779,1345.65,468.4779,1349.65,477.4779" style="stroke:#333333;stroke-width:1;"/></g><!--link plan_explore_handler to explore_session--><g class="link" data-entity-1="plan_explore_handler" data-entity-2="explore_session" data-source-line="27" data-uid="lnk20" id="link_plan_explore_handler_explore_session"><path d="M1308.96,530.4279 C1273.9,552.4579 1228.2106,581.1761 1190.5006,604.8661" fill="none" id="plan_explore_handler-to-explore_session" style="stroke:#333333;stroke-width:1;"/><polygon fill="#333333" points="1185.42,608.0579,1195.1688,606.6573,1189.6539,605.3981,1190.9131,599.8832,1185.42,608.0579" style="stroke:#333333;stroke-width:1;"/></g><!--link plan_explore_handler to ai_engine_manager--><g class="link" data-entity-1="plan_explore_handler" data-entity-2="ai_engine_manager" data-source-line="28" data-uid="lnk22" id="link_plan_explore_handler_ai_engine_manager"><path d="M1336.86,530.2679 C1326.67,550.5279 1314.9391,573.8393 1303.3791,596.7893" fill="none" id="plan_explore_handler-to-ai_engine_manager" style="stroke:#333333;stroke-width:1;"/><polygon fill="#333333" points="1300.68,602.1479,1308.3011,595.9094,1302.9293,597.6824,1301.1563,592.3105,1300.68,602.1479" style="stroke:#333333;stroke-width:1;"/></g><!--link plan_explore_handler to project_ops_executor--><g class="link" data-entity-1="plan_explore_handler" data-entity-2="project_ops_executor" data-source-line="29" data-uid="lnk24" id="link_plan_explore_handler_project_ops_executor"><path d="M1367.71,530.2679 C1382.1,550.5279 1399.0043,574.3071 1415.3143,597.2571" fill="none" id="plan_explore_handler-to-project_ops_executor" style="stroke:#333333;stroke-width:1;"/><polygon fill="#333333" points="1418.79,602.1479,1416.8369,592.4946,1415.8936,598.0722,1410.3159,597.1289,1418.79,602.1479" style="stroke:#333333;stroke-width:1;"/></g><!--link plan_store to docs_plans_md--><g class="link" data-entity-1="plan_store" data-entity-2="docs_plans_md" data-source-line="30" data-uid="lnk26" id="link_plan_store_docs_plans_md"><path d="M1674.06,542.8579 C1683.54,561.4279 1692.203,578.3734 1701.663,596.9134" fill="none" id="plan_store-to-docs_plans_md" style="stroke:#333333;stroke-width:1;"/><polygon fill="#333333" points="1704.39,602.2579,1703.8625,592.4231,1702.1175,597.8041,1696.7365,596.0591,1704.39,602.2579" style="stroke:#333333;stroke-width:1;"/></g><!--link plan_explore_handler to docs_todo_md--><g class="link" data-entity-1="plan_explore_handler" data-entity-2="docs_todo_md" data-source-line="31" data-uid="lnk28" id="link_plan_explore_handler_docs_todo_md"><path d="M1397.65,530.2979 C1434.05,549.7379 1485.23,577.3479 1529.65,602.4079 C1535.38,605.6379 1536.1707,606.0561 1542.0807,609.4861" fill="none" id="plan_explore_handler-to-docs_todo_md" style="stroke:#333333;stroke-width:1;"/><polygon fill="#333333" points="1547.27,612.4979,1541.4938,604.5207,1542.9455,609.9881,1537.4781,611.4398,1547.27,612.4979" style="stroke:#333333;stroke-width:1;"/></g><!--link explore_session to explore_session_json--><g class="link" data-entity-1="explore_session" data-entity-2="explore_session_json" data-source-line="32" data-uid="lnk30" id="link_explore_session_explore_session_json"><path d="M1134.65,679.9479 C1134.65,698.5279 1134.65,714.8179 1134.65,733.3479" fill="none" id="explore_session-to-explore_session_json" style="stroke:#333333;stroke-width:1;"/><polygon fill="#333333" points="1134.65,739.3479,1138.65,730.3479,1134.65,734.3479,1130.65,730.3479,1134.65,739.3479" style="stroke:#333333;stroke-width:1;"/></g><!--SRC=[dLPHRzem47xFhxXrBoqIHEsaFdJI90PXxGIaeko9LP4R6vAIs97jGFjNzhJVjb-oiqbA267GHGYSk-y-VpxVsNpG4KiPP0c9kQEMCS-892ayaN2va2Bdj2SI8U7Zm3uL16LpaYTw8BWU4sJeofWa5NzNIh4kWZ_Pf-8S2ys-2acPB10z-zGHJI8GvUXO9mnwetuRTNDeW_sXZ6KGSyqa9mdC4x66S_6ac5mnUW7dGxz_UGCzGHaCSXxgM71ruJYvOY5H3Cu83oCXpu0e6FjJB-YEUxV-n8bY3AWQE2e36IyY3MA-um5ejHv4BaDsqsh1R4P5gDora4kZHRchApUMRfXIjrJU2L5DvvMa2Rm3-_ZeC4x1w70SoK9D-0BJSPRY5WQCQ_dwav-dX2ajXMkCdUprmgvhYwZ66VOW56bAE0qY_4gOh30K7kLQ5ILLKz0UgSXK0s7fUcFU9Qq4DH9IPZBHI5YuzlaAnnuVUycmiDZxLbqBShPPXNRxItDccenRjDB8TmHJJKlTi8ig5ritxABO2mjpdFV8jFN5DXajkhGffXIsrc4WYJ5PYvYp06SaYtznPb8yuuurwBKPinZJE86ngI2bXwaiJ0ig3AgcjKb_yAnm4PjcJzYyiTUz5PuDt7QxUSUENrswvG7ackF8TB0L5vYtJfPZf- -RiA4tuRL3u50jGl5xBCvcfSIh4mFgdGcLySdnsqQ4xV3aw7AhJNXbV59yiOrkiOs6OZiyna1YjwX94xST7frvMwV_AvuIJV15BgbOym3lG5MAg9jsZl-3bv6vBBrhxzeMwfzVls78A2u6Rh4-LLcmVd4xGXzd7nKpGSQaYfKsbOtNwLkzRkvNe_ephAv0iao0bhcE0AzG1TyV_B4blJTOqv-Ol8tBBdbJWoc5THI74QnYaH2DpebtxmVJoO_fRJ3m9wFkDBXx20mPphqY-AS2IV4pctKwBdxkHlT3R-IDfztfdJyEXbx_cpSnj8qEc_Kor2YMMhc9pKGGOb77r6WmuKLwUc_6Qfh_0W00]--></g></svg>