<svg xmlns="http://www.w3.org/2000/svg" xmlns:xlink="http://www.w3.org/1999/xlink" contentStyleType="text/css" data-diagram-type="DESCRIPTION" height="722px" preserveAspectRatio="none" style="width:3536px;height:722px;background:#FFFFFF;" version="1.1" viewBox="0 0 3536 722" width="3536px" zoomAndPan="magnify"><title>CMD-discuss - discuss deep internal flow (observed) (LOD1: Code Functions)</title><defs/><g><g class="title" data-source-line="8"><text fill="#000000" font-family="Arial" font-size="22" font-weight="bold" lengthAdjust="spacing" textLength="811.6475" x="1357.8065" y="35.6357">CMD-discuss - discuss deep internal flow (observed) (LOD1: Code Functions)</text></g><!--entity NOTE_ANCHOR--><!--entity main_entry--><g class="entity" data-entity="main_entry" data-source-line="16" data-uid="ent0006" id="entity_main_entry"><rect fill="#FFFFFF" height="52.1973" rx="2.5" ry="2.5" style="stroke:#000000;stroke-width:1;" width="114.1309" x="1752.97" y="149.5179"/><text fill="#000000" font-family="Arial" font-size="14" lengthAdjust="spacing" textLength="69.2549" x="1762.97" y="172.6497">main_entry</text><text fill="#000000" font-family="Arial" font-size="14" lengthAdjust="spacing" textLength="94.1309" x="1762.97" y="188.7483">(maestro.main)</text></g><!--entity handle_discuss_command--><g class="entity" data-entity="handle_discuss_command" data-source-line="17" data-uid="ent0007" id="entity_handle_discuss_command"><rect fill="#FFFFFF" height="52.1973" rx="2.5" ry="2.5" style="stroke:#000000;stroke-width:1;" width="202.8271" x="1708.62" y="277.9879"/><text fill="#000000" font-family="Arial" font-size="14" lengthAdjust="spacing" textLength="165.7646" x="1718.62" y="301.1197">handle_discuss_command</text><text fill="#000000" font-family="Arial" font-size="14" lengthAdjust="spacing" textLength="182.8271" x="1718.62" y="317.2183">(maestro.commands.discuss)</text></g><!--entity handle_track_discuss--><g class="entity" data-entity="handle_track_discuss" data-source-line="18" data-uid="ent0008" id="entity_handle_track_discuss"><rect fill="#FFFFFF" height="52.1973" rx="2.5" ry="2.5" style="stroke:#000000;stroke-width:1;" width="202.8271" x="1277.62" y="149.5179"/><text fill="#000000" font-family="Arial" font-size="14" lengthAdjust="spacing" textLength="134.6338" x="1287.62" y="172.6497">handle_track_discuss</text><text fill="#000000" font-family="Arial" font-size="14" lengthAdjust="spacing" textLength="182.8271" x="1287.62" y="188.7483">(maestro.commands.discuss)</text></g><!--entity handle_phase_discuss--><g class="entity" data-entity="handle_phase_discuss" data-source-line="19" data-uid="ent0009" id="entity_handle_phase_discuss"><rect fill="#FFFFFF" height="52.1973" rx="2.5" ry="2.5" style="stroke:#000000;stroke-width:1;" width="202.8271" x="1515.62" y="149.5179"/><text fill="#000000" font-family="Arial" font-size="14" lengthAdjust="spacing" textLength="142.4404" x="1525.62" y="172.6497">handle_phase_discuss</text><text fill="#000000" font-family="Arial" font-size="14" lengthAdjust="spacing" textLength="182.8271" x="1525.62" y="188.7483">(maestro.commands.discuss)</text></g><!--entity handle_task_discuss--><g class="entity" data-entity="handle_task_discuss" data-source-line="20" data-uid="ent0010" id="entity_handle_task_discuss"><rect fill="#FFFFFF" height="52.1973" rx="2.5" ry="2.5" style="stroke:#000000;stroke-width:1;" width="202.8271" x="1277.62" y="277.9879"/><text fill="#000000" font-family="Arial" font-size="14" lengthAdjust="spacing" textLength="129.9717" x="1287.62" y="301.1197">handle_task_discuss</text><text fill="#000000" font-family="Arial" font-size="14" lengthAdjust="spacing" textLength="182.8271" x="1287.62" y="317.2183">(maestro.commands.discuss)</text></g><!--entity choose_mode--><g class="entity" data-entity="choose_mode" data-source-line="21" data-uid="ent0011" id="entity_choose_mode"><rect fill="#FFFFFF" height="52.1973" rx="2.5" ry="2.5" style="stroke:#000000;stroke-width:1;" width="202.8271" x="1268.62" y="390.1879"/><text fill="#000000" font-family="Arial" font-size="14" lengthAdjust="spacing" textLength="87.9512" x="1278.62" y="413.3197">choose_mode</text><text fill="#000000" font-family="Arial" font-size="14" lengthAdjust="spacing" textLength="182.8271" x="1278.62" y="429.4183">(maestro.commands.discuss)</text></g><!--entity run_discussion_with_router--><g class="entity" data-entity="run_discussion_with_router" data-source-line="22" data-uid="ent0012" id="entity_run_discussion_with_router"><rect fill="#FFFFFF" height="52.1973" rx="2.5" ry="2.5" style="stroke:#000000;stroke-width:1;" width="202.8271" x="1708.62" y="390.1879"/><text fill="#000000" font-family="Arial" font-size="14" lengthAdjust="spacing" textLength="170.4268" x="1718.62" y="413.3197">run_discussion_with_router</text><text fill="#000000" font-family="Arial" font-size="14" lengthAdjust="spacing" textLength="182.8271" x="1718.62" y="429.4183">(maestro.commands.discuss)</text></g><!--entity apply_patch_operations--><g class="entity" data-entity="apply_patch_operations" data-source-line="23" data-uid="ent0013" id="entity_apply_patch_operations"><rect fill="#FFFFFF" height="52.1973" rx="2.5" ry="2.5" style="stroke:#000000;stroke-width:1;" width="202.8271" x="2767.62" y="390.1879"/><text fill="#000000" font-family="Arial" font-size="14" lengthAdjust="spacing" textLength="148.668" x="2777.62" y="413.3197">apply_patch_operations</text><text fill="#000000" font-family="Arial" font-size="14" lengthAdjust="spacing" textLength="182.8271" x="2777.62" y="429.4183">(maestro.commands.discuss)</text></g><!--entity save_discussion_artifacts--><g class="entity" data-entity="save_discussion_artifacts" data-source-line="24" data-uid="ent0014" id="entity_save_discussion_artifacts"><rect fill="#FFFFFF" height="52.1973" rx="2.5" ry="2.5" style="stroke:#000000;stroke-width:1;" width="202.8271" x="1238.62" y="514.8279"/><text fill="#000000" font-family="Arial" font-size="14" lengthAdjust="spacing" textLength="159.5234" x="1248.62" y="537.9597">save_discussion_artifacts</text><text fill="#000000" font-family="Arial" font-size="14" lengthAdjust="spacing" textLength="182.8271" x="1248.62" y="554.0583">(maestro.commands.discuss)</text></g><!--entity update_artifact_status--><g class="entity" data-entity="update_artifact_status" data-source-line="25" data-uid="ent0015" id="entity_update_artifact_status"><rect fill="#FFFFFF" height="52.1973" rx="2.5" ry="2.5" style="stroke:#000000;stroke-width:1;" width="202.8271" x="1476.62" y="514.8279"/><text fill="#000000" font-family="Arial" font-size="14" lengthAdjust="spacing" textLength="137.7578" x="1486.62" y="537.9597">update_artifact_status</text><text fill="#000000" font-family="Arial" font-size="14" lengthAdjust="spacing" textLength="182.8271" x="1486.62" y="554.0583">(maestro.commands.discuss)</text></g><!--entity run_discussion--><g class="entity" data-entity="run_discussion" data-source-line="26" data-uid="ent0016" id="entity_run_discussion"><rect fill="#FFFFFF" height="52.1973" rx="2.5" ry="2.5" style="stroke:#000000;stroke-width:1;" width="208.2959" x="1784.89" y="514.8279"/><text fill="#000000" font-family="Arial" font-size="14" lengthAdjust="spacing" textLength="93.3857" x="1794.89" y="537.9597">run_discussion</text><text fill="#000000" font-family="Arial" font-size="14" lengthAdjust="spacing" textLength="188.2959" x="1794.89" y="554.0583">(maestro.ai.discussion_router)</text></g><!--entity parse_config_md--><g class="entity" data-entity="parse_config_md" data-source-line="27" data-uid="ent0017" id="entity_parse_config_md"><rect fill="#FFFFFF" height="52.1973" rx="2.5" ry="2.5" style="stroke:#000000;stroke-width:1;" width="226.9717" x="976.55" y="514.8279"/><text fill="#000000" font-family="Arial" font-size="14" lengthAdjust="spacing" textLength="107.3994" x="986.55" y="537.9597">parse_config_md</text><text fill="#000000" font-family="Arial" font-size="14" lengthAdjust="spacing" textLength="206.9717" x="986.55" y="554.0583">(maestro.data.markdown_parser)</text></g><!--entity insert_track_block--><g class="entity" data-entity="insert_track_block" data-source-line="28" data-uid="ent0018" id="entity_insert_track_block"><rect fill="#FFFFFF" height="52.1973" rx="2.5" ry="2.5" style="stroke:#000000;stroke-width:1;" width="221.5098" x="2244.28" y="514.8279"/><text fill="#000000" font-family="Arial" font-size="14" lengthAdjust="spacing" textLength="112.8271" x="2254.28" y="537.9597">insert_track_block</text><text fill="#000000" font-family="Arial" font-size="14" lengthAdjust="spacing" textLength="201.5098" x="2254.28" y="554.0583">(maestro.data.markdown_writer)</text></g><!--entity insert_phase_block--><g class="entity" data-entity="insert_phase_block" data-source-line="29" data-uid="ent0019" id="entity_insert_phase_block"><rect fill="#FFFFFF" height="52.1973" rx="2.5" ry="2.5" style="stroke:#000000;stroke-width:1;" width="221.5098" x="2501.28" y="514.8279"/><text fill="#000000" font-family="Arial" font-size="14" lengthAdjust="spacing" textLength="120.6338" x="2511.28" y="537.9597">insert_phase_block</text><text fill="#000000" font-family="Arial" font-size="14" lengthAdjust="spacing" textLength="201.5098" x="2511.28" y="554.0583">(maestro.data.markdown_writer)</text></g><!--entity insert_task_block--><g class="entity" data-entity="insert_task_block" data-source-line="30" data-uid="ent0020" id="entity_insert_task_block"><rect fill="#FFFFFF" height="52.1973" rx="2.5" ry="2.5" style="stroke:#000000;stroke-width:1;" width="221.5098" x="2758.28" y="514.8279"/><text fill="#000000" font-family="Arial" font-size="14" lengthAdjust="spacing" textLength="108.165" x="2768.28" y="537.9597">insert_task_block</text><text fill="#000000" font-family="Arial" font-size="14" lengthAdjust="spacing" textLength="201.5098" x="2768.28" y="554.0583">(maestro.data.markdown_writer)</text></g><!--entity ai_engine_manager--><g class="entity" data-entity="ai_engine_manager" data-source-line="36" data-uid="ent0026" id="entity_ai_engine_manager"><ellipse cx="1737.0423" cy="648.4779" fill="#FFFFFF" rx="8" ry="8" style="stroke:#000000;stroke-width:1;"/><path d="M1737.0423,656.4779 L1737.0423,683.4779 M1724.0423,664.4779 L1750.0423,664.4779 M1737.0423,683.4779 L1724.0423,698.4779 M1737.0423,683.4779 L1750.0423,698.4779" fill="none" style="stroke:#000000;stroke-width:1;"/><text fill="#000000" font-family="Arial" font-size="14" lengthAdjust="spacing" textLength="123.7646" x="1675.16" y="713.6097">ai_engine_manager</text></g><!--entity discussion_router--><g class="entity" data-entity="discussion_router" data-source-line="37" data-uid="ent0028" id="entity_discussion_router"><ellipse cx="2083.0418" cy="511.3779" fill="#FFFFFF" rx="8" ry="8" style="stroke:#000000;stroke-width:1;"/><path d="M2083.0418,519.3779 L2083.0418,546.3779 M2070.0418,527.3779 L2096.0418,527.3779 M2083.0418,546.3779 L2070.0418,561.3779 M2083.0418,546.3779 L2096.0418,561.3779" fill="none" style="stroke:#000000;stroke-width:1;"/><text fill="#000000" font-family="Arial" font-size="14" lengthAdjust="spacing" textLength="109.7236" x="2028.18" y="576.5097">discussion_router</text></g><!--entity json_contract--><g class="entity" data-entity="json_contract" data-source-line="38" data-uid="ent0030" id="entity_json_contract"><ellipse cx="2103.0343" cy="648.4779" fill="#FFFFFF" rx="8" ry="8" style="stroke:#000000;stroke-width:1;"/><path d="M2103.0343,656.4779 L2103.0343,683.4779 M2090.0343,664.4779 L2116.0343,664.4779 M2103.0343,683.4779 L2090.0343,698.4779 M2103.0343,683.4779 L2116.0343,698.4779" fill="none" style="stroke:#000000;stroke-width:1;"/><text fill="#000000" font-family="Arial" font-size="14" lengthAdjust="spacing" textLength="83.2686" x="2061.4" y="713.6097">json_contract</text></g><!--entity patch_operation--><g class="entity" data-entity="patch_operation" data-source-line="44" data-uid="ent0037" id="entity_patch_operation"><ellipse cx="1889.0365" cy="648.4779" fill="#FFFFFF" rx="8" ry="8" style="stroke:#000000;stroke-width:1;"/><path d="M1889.0365,656.4779 L1889.0365,683.4779 M1876.0365,664.4779 L1902.0365,664.4779 M1889.0365,683.4779 L1876.0365,698.4779 M1889.0365,683.4779 L1902.0365,698.4779" fill="none" style="stroke:#000000;stroke-width:1;"/><text fill="#000000" font-family="Arial" font-size="14" lengthAdjust="spacing" textLength="100.4131" x="1838.83" y="713.6097">patch_operation</text></g><!--entity update_track_metadata--><g class="entity" data-entity="update_track_metadata" data-source-line="48" data-uid="ent0042" id="entity_update_track_metadata"><ellipse cx="3088.0413" cy="511.3779" fill="#FFFFFF" rx="8" ry="8" style="stroke:#000000;stroke-width:1;"/><path d="M3088.0413,519.3779 L3088.0413,546.3779 M3075.0413,527.3779 L3101.0413,527.3779 M3088.0413,546.3779 L3075.0413,561.3779 M3088.0413,546.3779 L3101.0413,561.3779" fill="none" style="stroke:#000000;stroke-width:1;"/><text fill="#000000" font-family="Arial" font-size="14" lengthAdjust="spacing" textLength="147.1025" x="3014.49" y="576.5097">update_track_metadata</text></g><!--entity update_phase_metadata--><g class="entity" data-entity="update_phase_metadata" data-source-line="49" data-uid="ent0044" id="entity_update_phase_metadata"><ellipse cx="3274.0346" cy="511.3779" fill="#FFFFFF" rx="8" ry="8" style="stroke:#000000;stroke-width:1;"/><path d="M3274.0346,519.3779 L3274.0346,546.3779 M3261.0346,527.3779 L3287.0346,527.3779 M3274.0346,546.3779 L3261.0346,561.3779 M3274.0346,546.3779 L3287.0346,561.3779" fill="none" style="stroke:#000000;stroke-width:1;"/><text fill="#000000" font-family="Arial" font-size="14" lengthAdjust="spacing" textLength="154.9092" x="3196.58" y="576.5097">update_phase_metadata</text></g><!--entity update_task_metadata--><g class="entity" data-entity="update_task_metadata" data-source-line="50" data-uid="ent0046" id="entity_update_task_metadata"><ellipse cx="3458.0402" cy="511.3779" fill="#FFFFFF" rx="8" ry="8" style="stroke:#000000;stroke-width:1;"/><path d="M3458.0402,519.3779 L3458.0402,546.3779 M3445.0402,527.3779 L3471.0402,527.3779 M3458.0402,546.3779 L3445.0402,561.3779 M3458.0402,546.3779 L3471.0402,561.3779" fill="none" style="stroke:#000000;stroke-width:1;"/><text fill="#000000" font-family="Arial" font-size="14" lengthAdjust="spacing" textLength="142.4404" x="3386.82" y="576.5097">update_task_metadata</text></g><!--link NOTE_ANCHOR to GMN3--><!--link main_entry to handle_discuss_command--><g class="link" data-entity-1="main_entry" data-entity-2="handle_discuss_command" data-source-line="31" data-uid="lnk21" id="link_main_entry_handle_discuss_command"><path d="M1810.04,202.2079 C1810.04,224.1479 1810.04,249.5979 1810.04,271.5279" fill="none" id="main_entry-to-handle_discuss_command" style="stroke:#333333;stroke-width:1;"/><polygon fill="#333333" points="1810.04,277.5279,1814.04,268.5279,1810.04,272.5279,1806.04,268.5279,1810.04,277.5279" style="stroke:#333333;stroke-width:1;"/></g><!--link handle_discuss_command to choose_mode--><g class="link" data-entity-1="handle_discuss_command" data-entity-2="choose_mode" data-source-line="32" data-uid="lnk22" id="link_handle_discuss_command_choose_mode"><path d="M1708.26,330.5779 C1637.19,348.3779 1548.5203,370.5803 1477.4803,388.3703" fill="none" id="handle_discuss_command-to-choose_mode" style="stroke:#333333;stroke-width:1;"/><polygon fill="#333333" points="1471.66,389.8279,1481.3621,391.5217,1476.5102,388.6132,1479.4187,383.7614,1471.66,389.8279" style="stroke:#333333;stroke-width:1;"/></g><!--link handle_discuss_command to run_discussion_with_router--><g class="link" data-entity-1="handle_discuss_command" data-entity-2="run_discussion_with_router" data-source-line="33" data-uid="lnk23" id="link_handle_discuss_command_run_discussion_with_router"><path d="M1810.04,330.6479 C1810.04,348.4479 1810.04,366.0879 1810.04,383.8579" fill="none" id="handle_discuss_command-to-run_discussion_with_router" style="stroke:#333333;stroke-width:1;"/><polygon fill="#333333" points="1810.04,389.8579,1814.04,380.8579,1810.04,384.8579,1806.04,380.8579,1810.04,389.8579" style="stroke:#333333;stroke-width:1;"/></g><!--link handle_discuss_command to apply_patch_operations--><g class="link" data-entity-1="handle_discuss_command" data-entity-2="apply_patch_operations" data-source-line="34" data-uid="lnk24" id="link_handle_discuss_command_apply_patch_operations"><path d="M1911.58,315.6479 C2113.87,336.6979 2559.0922,383.0268 2761.4522,404.0868" fill="none" id="handle_discuss_command-to-apply_patch_operations" style="stroke:#333333;stroke-width:1;"/><polygon fill="#333333" points="2767.42,404.7079,2758.8824,399.7977,2762.4469,404.1903,2758.0543,407.7547,2767.42,404.7079" style="stroke:#333333;stroke-width:1;"/></g><!--link choose_mode to parse_config_md--><g class="link" data-entity-1="choose_mode" data-entity-2="parse_config_md" data-source-line="35" data-uid="lnk25" id="link_choose_mode_parse_config_md"><path d="M1311.68,442.8479 C1263.76,463.8379 1201.7159,491.0107 1153.8159,511.9907" fill="none" id="choose_mode-to-parse_config_md" style="stroke:#333333;stroke-width:1;"/><polygon fill="#333333" points="1148.32,514.3979,1158.1687,514.451,1152.9,512.3919,1154.9591,507.1231,1148.32,514.3979" style="stroke:#333333;stroke-width:1;"/></g><!--link run_discussion_with_router to ai_engine_manager--><g class="link" data-entity-1="run_discussion_with_router" data-entity-2="ai_engine_manager" data-source-line="36" data-uid="lnk27" id="link_run_discussion_with_router_ai_engine_manager"><path d="M1794.58,442.8579 C1785.28,459.3279 1773.94,481.4779 1767.04,502.3779 C1751.94,548.0979 1744.7245,597.2215 1740.9045,633.1415" fill="none" id="run_discussion_with_router-to-ai_engine_manager" style="stroke:#333333;stroke-width:1;"/><polygon fill="#333333" points="1740.27,639.1079,1745.1993,630.5813,1740.7988,634.1359,1737.2442,629.7353,1740.27,639.1079" style="stroke:#333333;stroke-width:1;"/></g><!--link run_discussion_with_router to discussion_router--><g class="link" data-entity-1="run_discussion_with_router" data-entity-2="discussion_router" data-source-line="37" data-uid="lnk29" id="link_run_discussion_with_router_discussion_router"><path d="M1873.98,442.8179 C1913.77,459.0879 1965.79,481.0479 2011.04,502.3779 C2016.52,504.9679 2016.8253,505.0508 2022.4753,507.8808" fill="none" id="run_discussion_with_router-to-discussion_router" style="stroke:#333333;stroke-width:1;"/><polygon fill="#333333" points="2027.84,510.5679,2021.5844,502.9608,2023.3694,508.3286,2018.0016,510.1137,2027.84,510.5679" style="stroke:#333333;stroke-width:1;"/></g><!--link run_discussion_with_router to json_contract--><g class="link" data-entity-1="run_discussion_with_router" data-entity-2="json_contract" data-source-line="38" data-uid="lnk31" id="link_run_discussion_with_router_json_contract"><path d="M1911.52,428.5179 C2002.18,440.8879 2125.18,464.2579 2155.04,502.3779 C2186.45,542.4779 2161.1281,596.2389 2135.5281,634.3089" fill="none" id="run_discussion_with_router-to-json_contract" style="stroke:#333333;stroke-width:1;"/><polygon fill="#333333" points="2132.18,639.2879,2140.5215,634.0514,2134.9701,635.1387,2133.8828,629.5873,2132.18,639.2879" style="stroke:#333333;stroke-width:1;"/></g><!--link run_discussion_with_router to run_discussion--><g class="link" data-entity-1="run_discussion_with_router" data-entity-2="run_discussion" data-source-line="39" data-uid="lnk32" id="link_run_discussion_with_router_run_discussion"><path d="M1826.41,442.6979 C1839.97,463.7479 1855.8913,488.4634 1869.4413,509.5034" fill="none" id="run_discussion_with_router-to-run_discussion" style="stroke:#333333;stroke-width:1;"/><polygon fill="#333333" points="1872.69,514.5479,1871.18,504.8154,1869.9828,510.3442,1864.4541,509.147,1872.69,514.5479" style="stroke:#333333;stroke-width:1;"/></g><!--link run_discussion_with_router to save_discussion_artifacts--><g class="link" data-entity-1="run_discussion_with_router" data-entity-2="save_discussion_artifacts" data-source-line="40" data-uid="lnk33" id="link_run_discussion_with_router_save_discussion_artifacts"><path d="M1708.19,440.0479 C1637.88,456.2379 1542.39,479.1579 1459.04,502.3779 C1445.79,506.0779 1437.5238,508.4804 1423.9638,512.6604" fill="none" id="run_discussion_with_router-to-save_discussion_artifacts" style="stroke:#333333;stroke-width:1;"/><polygon fill="#333333" points="1418.23,514.4279,1428.009,515.5991,1423.0081,512.9549,1425.6523,507.9541,1418.23,514.4279" style="stroke:#333333;stroke-width:1;"/></g><!--link run_discussion_with_router to update_artifact_status--><g class="link" data-entity-1="run_discussion_with_router" data-entity-2="update_artifact_status" data-source-line="41" data-uid="lnk34" id="link_run_discussion_with_router_update_artifact_status"><path d="M1761.69,442.8479 C1721.98,463.8379 1671.3245,490.6139 1631.6345,511.5939" fill="none" id="run_discussion_with_router-to-update_artifact_status" style="stroke:#333333;stroke-width:1;"/><polygon fill="#333333" points="1626.33,514.3979,1636.1561,513.7283,1630.7504,512.0612,1632.4175,506.6556,1626.33,514.3979" style="stroke:#333333;stroke-width:1;"/></g><!--link run_discussion to ai_engine_manager--><g class="link" data-entity-1="run_discussion" data-entity-2="ai_engine_manager" data-source-line="42" data-uid="lnk35" id="link_run_discussion_ai_engine_manager"><path d="M1860.45,567.3379 C1837.66,587.5979 1809.8846,612.2818 1784.0646,635.2318" fill="none" id="run_discussion-to-ai_engine_manager" style="stroke:#333333;stroke-width:1;"/><polygon fill="#333333" points="1779.58,639.2179,1788.9642,636.2284,1783.3171,635.8961,1783.6494,630.249,1779.58,639.2179" style="stroke:#333333;stroke-width:1;"/></g><!--link run_discussion to json_contract--><g class="link" data-entity-1="run_discussion" data-entity-2="json_contract" data-source-line="43" data-uid="lnk36" id="link_run_discussion_json_contract"><path d="M1929.54,567.4979 C1967.23,591.2879 2018.0663,623.3851 2056.1663,647.4351" fill="none" id="run_discussion-to-json_contract" style="stroke:#333333;stroke-width:1;"/><polygon fill="#333333" points="2061.24,650.6379,2055.7646,642.4513,2057.0119,647.9689,2051.4943,649.2163,2061.24,650.6379" style="stroke:#333333;stroke-width:1;"/></g><!--link run_discussion to patch_operation--><g class="link" data-entity-1="run_discussion" data-entity-2="patch_operation" data-source-line="44" data-uid="lnk38" id="link_run_discussion_patch_operation"><path d="M1889.04,567.3379 C1889.04,587.5979 1889.04,610.2679 1889.04,633.2179" fill="none" id="run_discussion-to-patch_operation" style="stroke:#333333;stroke-width:1;"/><polygon fill="#333333" points="1889.04,639.2179,1893.04,630.2179,1889.04,634.2179,1885.04,630.2179,1889.04,639.2179" style="stroke:#333333;stroke-width:1;"/></g><!--link apply_patch_operations to insert_track_block--><g class="link" data-entity-1="apply_patch_operations" data-entity-2="insert_track_block" data-source-line="45" data-uid="lnk39" id="link_apply_patch_operations_insert_track_block"><path d="M2767.28,437.8679 C2689.42,454.0879 2579.54,477.9579 2484.04,502.3779 C2469.69,506.0479 2460.2912,508.5668 2445.5912,512.7468" fill="none" id="apply_patch_operations-to-insert_track_block" style="stroke:#333333;stroke-width:1;"/><polygon fill="#333333" points="2439.82,514.3879,2449.5709,515.7737,2444.6293,513.0203,2447.3828,508.0788,2439.82,514.3879" style="stroke:#333333;stroke-width:1;"/></g><!--link apply_patch_operations to insert_phase_block--><g class="link" data-entity-1="apply_patch_operations" data-entity-2="insert_phase_block" data-source-line="46" data-uid="lnk40" id="link_apply_patch_operations_insert_phase_block"><path d="M2815.48,442.8479 C2771.49,463.8379 2714.9152,490.834 2670.9452,511.814" fill="none" id="apply_patch_operations-to-insert_phase_block" style="stroke:#333333;stroke-width:1;"/><polygon fill="#333333" points="2665.53,514.3979,2675.3753,514.1322,2670.0426,512.2447,2671.9302,506.912,2665.53,514.3979" style="stroke:#333333;stroke-width:1;"/></g><!--link apply_patch_operations to insert_task_block--><g class="link" data-entity-1="apply_patch_operations" data-entity-2="insert_task_block" data-source-line="47" data-uid="lnk41" id="link_apply_patch_operations_insert_task_block"><path d="M2869.04,442.6979 C2869.04,463.7479 2869.04,487.5079 2869.04,508.5479" fill="none" id="apply_patch_operations-to-insert_task_block" style="stroke:#333333;stroke-width:1;"/><polygon fill="#333333" points="2869.04,514.5479,2873.04,505.5479,2869.04,509.5479,2865.04,505.5479,2869.04,514.5479" style="stroke:#333333;stroke-width:1;"/></g><!--link apply_patch_operations to update_track_metadata--><g class="link" data-entity-1="apply_patch_operations" data-entity-2="update_track_metadata" data-source-line="48" data-uid="lnk43" id="link_apply_patch_operations_update_track_metadata"><path d="M2914.68,442.8479 C2945.27,459.9779 2980.8349,479.8963 3015.1749,499.1263" fill="none" id="apply_patch_operations-to-update_track_metadata" style="stroke:#333333;stroke-width:1;"/><polygon fill="#333333" points="3020.41,502.0579,3014.5118,494.1704,3016.0474,499.6149,3010.603,501.1505,3020.41,502.0579" style="stroke:#333333;stroke-width:1;"/></g><!--link apply_patch_operations to update_phase_metadata--><g class="link" data-entity-1="apply_patch_operations" data-entity-2="update_phase_metadata" data-source-line="49" data-uid="lnk45" id="link_apply_patch_operations_update_phase_metadata"><path d="M2970.74,442.2279 C3031.65,457.9079 3110.35,479.4579 3179.04,502.3779 C3184.67,504.2579 3184.8215,504.2466 3190.6215,506.3566" fill="none" id="apply_patch_operations-to-update_phase_metadata" style="stroke:#333333;stroke-width:1;"/><polygon fill="#333333" points="3196.26,508.4079,3189.1698,501.572,3191.5613,506.6985,3186.4348,509.09,3196.26,508.4079" style="stroke:#333333;stroke-width:1;"/></g><!--link apply_patch_operations to update_task_metadata--><g class="link" data-entity-1="apply_patch_operations" data-entity-2="update_task_metadata" data-source-line="50" data-uid="lnk47" id="link_apply_patch_operations_update_task_metadata"><path d="M2970.66,427.6179 C3072.8,439.6179 3234,462.9779 3369.04,502.3779 C3374.83,504.0679 3375.1135,503.9989 3381.0135,506.1189" fill="none" id="apply_patch_operations-to-update_task_metadata" style="stroke:#333333;stroke-width:1;"/><polygon fill="#333333" points="3386.66,508.1479,3379.5428,501.3401,3381.9545,506.4571,3376.8376,508.8688,3386.66,508.1479" style="stroke:#333333;stroke-width:1;"/></g><!--SRC=[bLRRRjf047ttLqpJbmG9MqcbFAHI9GgaISMbIlD68sjZBtYBlMljha7yIf_wRVsIpje65l05B3_0x9mpntDPpGSTqOH26XF67RLaF2MI9F1EWkL2Yeo7VH4B2HyVyyVo2EcSPB5-55nF23Bq92EnTTwJKgnByAVyiGudGjElGePKbXxz_3dsg1A1NevcEgRG7m-w8LD1fXHqOVihf3G5nZMLdCGmZyKQhiMxed95mnku7aq7jm_G5o65num7cWckRXmdKpGWYi8LuK4av1KG1PFfwz3lJVfFqnSdOWYm3HprWMIBI8EO7vm0T3e_HIO3-j3fm6mMYa1vQo6NHeloLdSUarwGX9wbtmrGaBiXIGoNkR-zEPI7ODGuZgI19do1gRbAi9m-vLfkVl7hX52bfN2DyIR_jFsn3Oe83sFgbq7yG2G9MYo2qgBSqgKWguPL46k91TtwdKjx0AeWJIEiswMa1w0gfKHTBjJ2s9JOJmA39LYoLYhBrwQG6TyoOx_wQwOZ7-S2UxoLiHvg1o1f6c_ybEWWyaLA9SddefMy6cOJAxAYTdmYDPkJGBTpro9j-YmDYQQxCrzfehDsxcfOVSOjGi9SIrIHoQfCssHues5H0y7dRE4dza2X389ZAPUXM7C_zolPZZ0s7UFefSl1U8z5iAnbN4ksqtSAgo0j1kDYKWjMfTHCnkL2ToXdVrr1j_kbxiAfDkS8UwuQt1g6fG5LCmLMpDpjfAArmGfMXb-yO1mP22SBCw_DW9EsR0FyLcX4FQOZT9lpSNStUpSCRpEmRZ8FK6Vbf_KJow8SLCsfhcNkMZ4_xTxsO9p1lM_v1kSoHuMGX6fYHkaCGA7b0a0kP-TVh3mndLTkFCCLRaWyttdCVznxLhVUTWtpp59cbfZT_1Y3csQuxrHQSQqfI8wseVBoyBRNkhTTYD8Dx7-seGdpJeR5OZWmjd6Pr7X7rvZXEZKTh6grwwDPSeVtm_iygV_-_8KH3R6vuGbpgRR9dPRxB0mm-hYC15X3nPGsLS26iXDRBCL6-6TOtO6agG0jCnq1xhqAlYCflhEPwthuFez_Z8RZuUIrz_eydVYZuU3RyCLDGgWyo1EqXHfcgPKNvwBz06l4J2if0o-_fBypsXdv3m00]--></g></svg>