<svg xmlns="http://www.w3.org/2000/svg" xmlns:xlink="http://www.w3.org/1999/xlink" contentStyleType="text/css" data-diagram-type="DESCRIPTION" height="795px" preserveAspectRatio="none" style="width:2480px;height:795px;background:#FFFFFF;" version="1.1" viewBox="0 0 2480 795" width="2480px" zoomAndPan="magnify"><title>CMD-track - track deep internal flow (observed) (LOD1: Code Functions)</title><defs/><g><g class="title" data-source-line="8"><text fill="#000000" font-family="Arial" font-size="22" font-weight="bold" lengthAdjust="spacing" textLength="752.9736" x="859.3059" y="35.6357">CMD-track - track deep internal flow (observed) (LOD1: Code Functions)</text></g><!--entity NOTE_ANCHOR--><!--entity main_entry--><g class="entity" data-entity="main_entry" data-source-line="16" data-uid="ent0006" id="entity_main_entry"><rect fill="#FFFFFF" height="52.1973" rx="2.5" ry="2.5" style="stroke:#000000;stroke-width:1;" width="132.8066" x="1252.05" y="177.5579"/><text fill="#000000" font-family="Arial" font-size="14" lengthAdjust="spacing" textLength="69.2549" x="1262.05" y="200.6897">main_entry</text><text fill="#000000" font-family="Arial" font-size="14" lengthAdjust="spacing" textLength="112.8066" x="1262.05" y="216.7883">(maestro/main.py)</text></g><!--entity handle_track_command--><g class="entity" data-entity="handle_track_command" data-source-line="17" data-uid="ent0007" id="entity_handle_track_command"><rect fill="#FFFFFF" height="52.1973" rx="2.5" ry="2.5" style="stroke:#000000;stroke-width:1;" width="205.1582" x="1215.87" y="350.8779"/><text fill="#000000" font-family="Arial" font-size="14" lengthAdjust="spacing" textLength="149.4199" x="1225.87" y="374.0097">handle_track_command</text><text fill="#000000" font-family="Arial" font-size="14" lengthAdjust="spacing" textLength="185.1582" x="1225.87" y="390.1083">(maestro/commands/track.py)</text></g><!--entity resolve_track_identifier--><g class="entity" data-entity="resolve_track_identifier" data-source-line="18" data-uid="ent0008" id="entity_resolve_track_identifier"><rect fill="#FFFFFF" height="52.1973" rx="2.5" ry="2.5" style="stroke:#000000;stroke-width:1;" width="205.1582" x="466.87" y="612.6179"/><text fill="#000000" font-family="Arial" font-size="14" lengthAdjust="spacing" textLength="143.958" x="476.87" y="635.7497">resolve_track_identifier</text><text fill="#000000" font-family="Arial" font-size="14" lengthAdjust="spacing" textLength="185.1582" x="476.87" y="651.8483">(maestro/commands/track.py)</text></g><!--entity resolve_identifier_by_type--><g class="entity" data-entity="resolve_identifier_by_type" data-source-line="19" data-uid="ent0009" id="entity_resolve_identifier_by_type"><rect fill="#FFFFFF" height="52.1973" rx="2.5" ry="2.5" style="stroke:#000000;stroke-width:1;" width="219.9648" x="459.47" y="737.2679"/><text fill="#000000" font-family="Arial" font-size="14" lengthAdjust="spacing" textLength="162.6543" x="469.47" y="760.3997">resolve_identifier_by_type</text><text fill="#000000" font-family="Arial" font-size="14" lengthAdjust="spacing" textLength="199.9648" x="469.47" y="776.4983">(maestro/data/common_utils.py)</text></g><!--entity list_tracks--><g class="entity" data-entity="list_tracks" data-source-line="20" data-uid="ent0010" id="entity_list_tracks"><rect fill="#FFFFFF" height="52.1973" rx="2.5" ry="2.5" style="stroke:#000000;stroke-width:1;" width="205.1582" x="1466.87" y="475.5279"/><text fill="#000000" font-family="Arial" font-size="14" lengthAdjust="spacing" textLength="62.2344" x="1476.87" y="498.6597">list_tracks</text><text fill="#000000" font-family="Arial" font-size="14" lengthAdjust="spacing" textLength="185.1582" x="1476.87" y="514.7583">(maestro/commands/track.py)</text></g><!--entity get_all_tracks_with_phases_and_tasks--><g class="entity" data-entity="get_all_tracks_with_phases_and_tasks" data-source-line="21" data-uid="ent0011" id="entity_get_all_tracks_with_phases_and_tasks"><rect fill="#FFFFFF" height="52.1973" rx="2.5" ry="2.5" style="stroke:#000000;stroke-width:1;" width="263.5986" x="1724.65" y="612.6179"/><text fill="#000000" font-family="Arial" font-size="14" lengthAdjust="spacing" textLength="243.5986" x="1734.65" y="635.7497">get_all_tracks_with_phases_and_tasks</text><text fill="#000000" font-family="Arial" font-size="14" lengthAdjust="spacing" textLength="199.9648" x="1734.65" y="651.8483">(maestro/data/common_utils.py)</text></g><!--entity render_track_table--><g class="entity" data-entity="render_track_table" data-source-line="22" data-uid="ent0012" id="entity_render_track_table"><rect fill="#FFFFFF" height="52.1973" rx="2.5" ry="2.5" style="stroke:#000000;stroke-width:1;" width="240.9922" x="1448.95" y="612.6179"/><text fill="#000000" font-family="Arial" font-size="14" lengthAdjust="spacing" textLength="116.7373" x="1458.95" y="635.7497">render_track_table</text><text fill="#000000" font-family="Arial" font-size="14" lengthAdjust="spacing" textLength="220.9922" x="1458.95" y="651.8483">(maestro/display/table_renderer.py)</text></g><!--entity show_track--><g class="entity" data-entity="show_track" data-source-line="23" data-uid="ent0013" id="entity_show_track"><rect fill="#FFFFFF" height="52.1973" rx="2.5" ry="2.5" style="stroke:#000000;stroke-width:1;" width="205.1582" x="964.87" y="475.5279"/><text fill="#000000" font-family="Arial" font-size="14" lengthAdjust="spacing" textLength="70.8066" x="974.87" y="498.6597">show_track</text><text fill="#000000" font-family="Arial" font-size="14" lengthAdjust="spacing" textLength="185.1582" x="974.87" y="514.7583">(maestro/commands/track.py)</text></g><!--entity show_track_details--><g class="entity" data-entity="show_track_details" data-source-line="24" data-uid="ent0014" id="entity_show_track_details"><rect fill="#FFFFFF" height="52.1973" rx="2.5" ry="2.5" style="stroke:#000000;stroke-width:1;" width="205.1582" x="706.87" y="475.5279"/><text fill="#000000" font-family="Arial" font-size="14" lengthAdjust="spacing" textLength="119.0615" x="716.87" y="498.6597">show_track_details</text><text fill="#000000" font-family="Arial" font-size="14" lengthAdjust="spacing" textLength="185.1582" x="716.87" y="514.7583">(maestro/commands/track.py)</text></g><!--entity _ensure_todo_file--><g class="entity" data-entity="_ensure_todo_file" data-source-line="25" data-uid="ent0015" id="entity__ensure_todo_file"><rect fill="#FFFFFF" height="52.1973" rx="2.5" ry="2.5" style="stroke:#000000;stroke-width:1;" width="205.1582" x="1419.87" y="177.5579"/><text fill="#000000" font-family="Arial" font-size="14" lengthAdjust="spacing" textLength="111.3096" x="1429.87" y="200.6897">_ensure_todo_file</text><text fill="#000000" font-family="Arial" font-size="14" lengthAdjust="spacing" textLength="185.1582" x="1429.87" y="216.7883">(maestro/commands/track.py)</text></g><!--entity _parse_todo_safe--><g class="entity" data-entity="_parse_todo_safe" data-source-line="26" data-uid="ent0016" id="entity__parse_todo_safe"><rect fill="#FFFFFF" height="52.1973" rx="2.5" ry="2.5" style="stroke:#000000;stroke-width:1;" width="205.1582" x="706.87" y="612.6179"/><text fill="#000000" font-family="Arial" font-size="14" lengthAdjust="spacing" textLength="112.0889" x="716.87" y="635.7497">_parse_todo_safe</text><text fill="#000000" font-family="Arial" font-size="14" lengthAdjust="spacing" textLength="185.1582" x="716.87" y="651.8483">(maestro/commands/track.py)</text></g><!--entity get_settings--><g class="entity" data-entity="get_settings" data-source-line="27" data-uid="ent0017" id="entity_get_settings"><rect fill="#FFFFFF" height="52.1973" rx="2.5" ry="2.5" style="stroke:#000000;stroke-width:1;" width="191.958" x="1222.47" y="612.6179"/><text fill="#000000" font-family="Arial" font-size="14" lengthAdjust="spacing" textLength="75.4961" x="1232.47" y="635.7497">get_settings</text><text fill="#000000" font-family="Arial" font-size="14" lengthAdjust="spacing" textLength="171.958" x="1232.47" y="651.8483">(maestro/config/settings.py)</text></g><!--entity render_phase_table--><g class="entity" data-entity="render_phase_table" data-source-line="28" data-uid="ent0018" id="entity_render_phase_table"><rect fill="#FFFFFF" height="52.1973" rx="2.5" ry="2.5" style="stroke:#000000;stroke-width:1;" width="240.9922" x="946.95" y="612.6179"/><text fill="#000000" font-family="Arial" font-size="14" lengthAdjust="spacing" textLength="124.5439" x="956.95" y="635.7497">render_phase_table</text><text fill="#000000" font-family="Arial" font-size="14" lengthAdjust="spacing" textLength="220.9922" x="956.95" y="651.8483">(maestro/display/table_renderer.py)</text></g><!--entity add_track--><g class="entity" data-entity="add_track" data-source-line="29" data-uid="ent0019" id="entity_add_track"><rect fill="#FFFFFF" height="52.1973" rx="2.5" ry="2.5" style="stroke:#000000;stroke-width:1;" width="205.1582" x="2001.87" y="475.5279"/><text fill="#000000" font-family="Arial" font-size="14" lengthAdjust="spacing" textLength="61.4824" x="2011.87" y="498.6597">add_track</text><text fill="#000000" font-family="Arial" font-size="14" lengthAdjust="spacing" textLength="185.1582" x="2011.87" y="514.7583">(maestro/commands/track.py)</text></g><!--entity _slugify_track_id--><g class="entity" data-entity="_slugify_track_id" data-source-line="30" data-uid="ent0020" id="entity__slugify_track_id"><rect fill="#FFFFFF" height="52.1973" rx="2.5" ry="2.5" style="stroke:#000000;stroke-width:1;" width="205.1582" x="2128.87" y="612.6179"/><text fill="#000000" font-family="Arial" font-size="14" lengthAdjust="spacing" textLength="104.2754" x="2138.87" y="635.7497">_slugify_track_id</text><text fill="#000000" font-family="Arial" font-size="14" lengthAdjust="spacing" textLength="185.1582" x="2138.87" y="651.8483">(maestro/commands/track.py)</text></g><!--entity json_store_class--><g class="entity" data-entity="json_store_class" data-source-line="46" data-uid="ent0036" id="entity_json_store_class"><ellipse cx="2421.4477" cy="609.1679" fill="#FFFFFF" rx="8" ry="8" style="stroke:#000000;stroke-width:1;"/><path d="M2421.4477,617.1679 L2421.4477,644.1679 M2408.4477,625.1679 L2434.4477,625.1679 M2421.4477,644.1679 L2408.4477,659.1679 M2421.4477,644.1679 L2434.4477,659.1679" fill="none" style="stroke:#000000;stroke-width:1;"/><text fill="#000000" font-family="Arial" font-size="14" lengthAdjust="spacing" textLength="104.2754" x="2369.31" y="674.2997">json_store_class</text></g><!--entity track_class--><g class="entity" data-entity="track_class" data-source-line="48" data-uid="ent0039" id="entity_track_class"><ellipse cx="2058.4503" cy="609.1679" fill="#FFFFFF" rx="8" ry="8" style="stroke:#000000;stroke-width:1;"/><path d="M2058.4503,617.1679 L2058.4503,644.1679 M2045.4503,625.1679 L2071.4503,625.1679 M2058.4503,644.1679 L2045.4503,659.1679 M2058.4503,644.1679 L2071.4503,659.1679" fill="none" style="stroke:#000000;stroke-width:1;"/><text fill="#000000" font-family="Arial" font-size="14" lengthAdjust="spacing" textLength="70.0205" x="2023.44" y="674.2997">track_class</text></g><!--entity remove_track--><g class="entity" data-entity="remove_track" data-source-line="49" data-uid="ent0041" id="entity_remove_track"><ellipse cx="2375.4533" cy="472.0779" fill="#FFFFFF" rx="8" ry="8" style="stroke:#000000;stroke-width:1;"/><path d="M2375.4533,480.0779 L2375.4533,507.0779 M2362.4533,488.0779 L2388.4533,488.0779 M2375.4533,507.0779 L2362.4533,522.0779 M2375.4533,507.0779 L2388.4533,522.0779" fill="none" style="stroke:#000000;stroke-width:1;"/><text fill="#000000" font-family="Arial" font-size="14" lengthAdjust="spacing" textLength="84.8066" x="2333.05" y="537.2097">remove_track</text></g><!--link NOTE_ANCHOR to GMN3--><!--link main_entry to handle_track_command--><g class="link" data-entity-1="main_entry" data-entity-2="handle_track_command" data-source-line="31" data-uid="lnk21" id="link_main_entry_handle_track_command"><path d="M1318.45,229.9379 C1318.45,262.3279 1318.45,312.1479 1318.45,344.5879" fill="none" id="main_entry-to-handle_track_command" style="stroke:#333333;stroke-width:1;"/><polygon fill="#333333" points="1318.45,350.5879,1322.45,341.5879,1318.45,345.5879,1314.45,341.5879,1318.45,350.5879" style="stroke:#333333;stroke-width:1;"/></g><!--link handle_track_command to resolve_track_identifier--><g class="link" data-entity-1="handle_track_command" data-entity-2="resolve_track_identifier" data-source-line="32" data-uid="lnk22" id="link_handle_track_command_resolve_track_identifier"><path d="M1215.45,381.8779 C1060.23,389.4179 775.38,410.1979 689.45,463.0779 C631.96,498.4479 597.5154,567.3002 581.3254,606.6002" fill="none" id="handle_track_command-to-resolve_track_identifier" style="stroke:#333333;stroke-width:1;"/><polygon fill="#333333" points="579.04,612.1479,586.1666,605.3499,580.9445,607.5248,578.7697,602.3027,579.04,612.1479" style="stroke:#333333;stroke-width:1;"/></g><!--link resolve_track_identifier to resolve_identifier_by_type--><g class="link" data-entity-1="resolve_track_identifier" data-entity-2="resolve_identifier_by_type" data-source-line="33" data-uid="lnk23" id="link_resolve_track_identifier_resolve_identifier_by_type"><path d="M569.45,665.1379 C569.45,686.1879 569.45,709.9479 569.45,730.9879" fill="none" id="resolve_track_identifier-to-resolve_identifier_by_type" style="stroke:#333333;stroke-width:1;"/><polygon fill="#333333" points="569.45,736.9879,573.45,727.9879,569.45,731.9879,565.45,727.9879,569.45,736.9879" style="stroke:#333333;stroke-width:1;"/></g><!--link handle_track_command to list_tracks--><g class="link" data-entity-1="handle_track_command" data-entity-2="list_tracks" data-source-line="34" data-uid="lnk24" id="link_handle_track_command_list_tracks"><path d="M1370.76,403.5379 C1413.72,424.5279 1468.8696,451.4729 1511.8096,472.4629" fill="none" id="handle_track_command-to-list_tracks" style="stroke:#333333;stroke-width:1;"/><polygon fill="#333333" points="1517.2,475.0979,1510.871,467.5518,1512.708,472.902,1507.3577,474.739,1517.2,475.0979" style="stroke:#333333;stroke-width:1;"/></g><!--link list_tracks to get_all_tracks_with_phases_and_tasks--><g class="link" data-entity-1="list_tracks" data-entity-2="get_all_tracks_with_phases_and_tasks" data-source-line="35" data-uid="lnk25" id="link_list_tracks_get_all_tracks_with_phases_and_tasks"><path d="M1623.77,528.1879 C1674.96,552.2879 1745.8012,585.6428 1796.9212,609.7028" fill="none" id="list_tracks-to-get_all_tracks_with_phases_and_tasks" style="stroke:#333333;stroke-width:1;"/><polygon fill="#333333" points="1802.35,612.2579,1795.9102,604.806,1797.826,610.1286,1792.5035,612.0444,1802.35,612.2579" style="stroke:#333333;stroke-width:1;"/></g><!--link list_tracks to render_track_table--><g class="link" data-entity-1="list_tracks" data-entity-2="render_track_table" data-source-line="36" data-uid="lnk26" id="link_list_tracks_render_track_table"><path d="M1569.45,528.0379 C1569.45,552.1879 1569.45,582.3079 1569.45,606.4279" fill="none" id="list_tracks-to-render_track_table" style="stroke:#333333;stroke-width:1;"/><polygon fill="#333333" points="1569.45,612.4279,1573.45,603.4279,1569.45,607.4279,1565.45,603.4279,1569.45,612.4279" style="stroke:#333333;stroke-width:1;"/></g><!--link handle_track_command to show_track--><g class="link" data-entity-1="handle_track_command" data-entity-2="show_track" data-source-line="37" data-uid="lnk27" id="link_handle_track_command_show_track"><path d="M1266.14,403.5379 C1223.18,424.5279 1168.0204,451.4729 1125.0804,472.4629" fill="none" id="handle_track_command-to-show_track" style="stroke:#333333;stroke-width:1;"/><polygon fill="#333333" points="1119.69,475.0979,1129.5323,474.739,1124.182,472.902,1126.019,467.5518,1119.69,475.0979" style="stroke:#333333;stroke-width:1;"/></g><!--link show_track to resolve_track_identifier--><g class="link" data-entity-1="show_track" data-entity-2="resolve_track_identifier" data-source-line="38" data-uid="lnk28" id="link_show_track_resolve_track_identifier"><path d="M974.73,528.1379 C959.61,532.2079 944.1,536.3479 929.45,540.1679 C823.06,567.9379 795.29,570.4079 689.45,600.1679 C676.32,603.8679 668.1764,606.239 654.7064,610.369" fill="none" id="show_track-to-resolve_track_identifier" style="stroke:#333333;stroke-width:1;"/><polygon fill="#333333" points="648.97,612.1279,658.7472,613.3139,653.7504,610.6622,656.4021,605.6653,648.97,612.1279" style="stroke:#333333;stroke-width:1;"/></g><!--link show_track to _parse_todo_safe--><g class="link" data-entity-1="show_track" data-entity-2="_parse_todo_safe" data-source-line="39" data-uid="lnk29" id="link_show_track__parse_todo_safe"><path d="M1018.62,528.1879 C972.6,552.2879 909.3454,585.4146 863.3954,609.4746" fill="none" id="show_track-to-_parse_todo_safe" style="stroke:#333333;stroke-width:1;"/><polygon fill="#333333" points="858.08,612.2579,867.9086,611.6266,862.5095,609.9385,864.1976,604.5394,858.08,612.2579" style="stroke:#333333;stroke-width:1;"/></g><!--link show_track to get_settings--><g class="link" data-entity-1="show_track" data-entity-2="get_settings" data-source-line="40" data-uid="lnk30" id="link_show_track_get_settings"><path d="M1114.96,528.1879 C1159.72,552.2879 1221.1465,585.3546 1265.8565,609.4146" fill="none" id="show_track-to-get_settings" style="stroke:#333333;stroke-width:1;"/><polygon fill="#333333" points="1271.14,612.2579,1265.1102,604.4706,1266.737,609.8885,1261.3192,611.5153,1271.14,612.2579" style="stroke:#333333;stroke-width:1;"/></g><!--link show_track to render_phase_table--><g class="link" data-entity-1="show_track" data-entity-2="render_phase_table" data-source-line="41" data-uid="lnk31" id="link_show_track_render_phase_table"><path d="M1067.45,528.0379 C1067.45,552.1879 1067.45,582.3079 1067.45,606.4279" fill="none" id="show_track-to-render_phase_table" style="stroke:#333333;stroke-width:1;"/><polygon fill="#333333" points="1067.45,612.4279,1071.45,603.4279,1067.45,607.4279,1063.45,603.4279,1067.45,612.4279" style="stroke:#333333;stroke-width:1;"/></g><!--link handle_track_command to show_track_details--><g class="link" data-entity-1="handle_track_command" data-entity-2="show_track_details" data-source-line="42" data-uid="lnk32" id="link_handle_track_command_show_track_details"><path d="M1215.43,400.4379 C1140.83,416.9879 1037.67,440.4579 947.45,463.0779 C932.52,466.8179 922.5161,469.3969 907.1561,473.5069" fill="none" id="handle_track_command-to-show_track_details" style="stroke:#333333;stroke-width:1;"/><polygon fill="#333333" points="901.36,475.0579,911.0881,476.5956,906.1901,473.7654,909.0202,468.8674,901.36,475.0579" style="stroke:#333333;stroke-width:1;"/></g><!--link show_track_details to resolve_track_identifier--><g class="link" data-entity-1="show_track_details" data-entity-2="resolve_track_identifier" data-source-line="43" data-uid="lnk33" id="link_show_track_details_resolve_track_identifier"><path d="M764.03,528.1879 C721.22,552.2879 662.6585,585.2545 619.9185,609.3145" fill="none" id="show_track_details-to-resolve_track_identifier" style="stroke:#333333;stroke-width:1;"/><polygon fill="#333333" points="614.69,612.2579,624.4949,611.3285,619.0471,609.8051,620.5705,604.3572,614.69,612.2579" style="stroke:#333333;stroke-width:1;"/></g><!--link show_track_details to _parse_todo_safe--><g class="link" data-entity-1="show_track_details" data-entity-2="_parse_todo_safe" data-source-line="44" data-uid="lnk34" id="link_show_track_details__parse_todo_safe"><path d="M809.45,528.0379 C809.45,552.1879 809.45,582.3079 809.45,606.4279" fill="none" id="show_track_details-to-_parse_todo_safe" style="stroke:#333333;stroke-width:1;"/><polygon fill="#333333" points="809.45,612.4279,813.45,603.4279,809.45,607.4279,805.45,603.4279,809.45,612.4279" style="stroke:#333333;stroke-width:1;"/></g><!--link handle_track_command to add_track--><g class="link" data-entity-1="handle_track_command" data-entity-2="add_track" data-source-line="45" data-uid="lnk35" id="link_handle_track_command_add_track"><path d="M1421.21,394.0079 C1571.84,417.5179 1845.0918,460.1527 1995.7418,483.6627" fill="none" id="handle_track_command-to-add_track" style="stroke:#333333;stroke-width:1;"/><polygon fill="#333333" points="2001.67,484.5879,1993.3944,479.248,1996.7298,483.8169,1992.1609,487.1523,2001.67,484.5879" style="stroke:#333333;stroke-width:1;"/></g><!--link add_track to json_store_class--><g class="link" data-entity-1="add_track" data-entity-2="json_store_class" data-source-line="46" data-uid="lnk37" id="link_add_track_json_store_class"><path d="M2175.37,528.1279 C2225.24,546.6679 2293.21,573.1579 2351.45,600.1679 C2357.2,602.8379 2357.7999,603.0519 2363.6899,606.0419" fill="none" id="add_track-to-json_store_class" style="stroke:#333333;stroke-width:1;"/><polygon fill="#333333" points="2369.04,608.7579,2362.8255,601.1172,2364.5816,606.4946,2359.2042,608.2507,2369.04,608.7579" style="stroke:#333333;stroke-width:1;"/></g><!--link add_track to _slugify_track_id--><g class="link" data-entity-1="add_track" data-entity-2="_slugify_track_id" data-source-line="47" data-uid="lnk38" id="link_add_track__slugify_track_id"><path d="M2128.34,528.0379 C2151.04,552.1879 2180.8908,583.9358 2203.5608,608.0558" fill="none" id="add_track-to-_slugify_track_id" style="stroke:#333333;stroke-width:1;"/><polygon fill="#333333" points="2207.67,612.4279,2204.4209,603.1304,2204.2457,608.7845,2198.5915,608.6093,2207.67,612.4279" style="stroke:#333333;stroke-width:1;"/></g><!--link add_track to track_class--><g class="link" data-entity-1="add_track" data-entity-2="track_class" data-source-line="48" data-uid="lnk40" id="link_add_track_track_class"><path d="M2095.8,528.0379 C2088.9,548.2879 2081.0752,571.2785 2073.2552,594.2285" fill="none" id="add_track-to-track_class" style="stroke:#333333;stroke-width:1;"/><polygon fill="#333333" points="2071.32,599.9079,2078.009,592.6789,2072.9327,595.1751,2070.4365,590.0987,2071.32,599.9079" style="stroke:#333333;stroke-width:1;"/></g><!--link handle_track_command to remove_track--><g class="link" data-entity-1="handle_track_command" data-entity-2="remove_track" data-source-line="49" data-uid="lnk42" id="link_handle_track_command_remove_track"><path d="M1421.35,382.6079 C1590.09,391.3179 1935.74,413.9079 2224.45,463.0779 C2261.47,469.3779 2297.0166,478.3104 2327.0666,486.6104" fill="none" id="handle_track_command-to-remove_track" style="stroke:#333333;stroke-width:1;"/><polygon fill="#333333" points="2332.85,488.2079,2325.2398,481.9561,2328.0305,486.8767,2323.1099,489.6673,2332.85,488.2079" style="stroke:#333333;stroke-width:1;"/></g><!--link remove_track to json_store_class--><g class="link" data-entity-1="remove_track" data-entity-2="json_store_class" data-source-line="50" data-uid="lnk43" id="link_remove_track_json_store_class"><path d="M2388.39,540.6179 C2394.71,559.1879 2400.3668,575.7978 2406.6768,594.3378" fill="none" id="remove_track-to-json_store_class" style="stroke:#333333;stroke-width:1;"/><polygon fill="#333333" points="2408.61,600.0179,2409.4969,590.209,2406.999,595.2845,2401.9235,592.7866,2408.61,600.0179" style="stroke:#333333;stroke-width:1;"/></g><!--SRC=[dLRDRjiu4BxhAQRPIn8W5heBzD022sGTfosGs8jkRcb1q19biQ58WQJi-bNsjC-sJx8ZIhAelrXTGR39-VauCvmPpHkRien1BYYNWNdXCgUQPh2bqSjEgqB6IoMKXb_ktUD9n2oXXR3tIjerHOHRpQdm-BTQgqEj_9jxFEPQMVQ7qZ7JjSJIFNs9CIDGAh3S2WRBnxiRgr46Rg3wZndBWKlBjAG24g4ESAcsXkazYw_Wyc5pz_OzB5NCuBwGaULAcgiWA0oBg65mGMMKAdq1rC1wyxGYj-lbfysN8EMeu1CasWQQxr8BAkbm0Awl_rA5ZjZxwsjuVevLPCA3qY-bBIRS_nfo7KPP79viNqHepk98Cm4_8_pjMy1a3AKbGQ1PPAdSOKWkChn6mgJLnw_oCgFCMAt2ahZ8ZrVEirR2rqkfZ0KZxXGIgIp3lOTGKqnOcT5WZMdvg9eP9VQD08PHMfvmfiyZJscEeRTSiZqIUyoPXnzJIzqXIfB2Sc46HmpL_KC4DxQomfotsXFsCNRC4Yf4pI47RbEIfvXoXY08iTHqmATDdWFKZP344gk3QEbMT2B33LRzCNHqKeaoxOMdh-iZcrGTAjxvgBIoumWaPfQYcp-3rEZuY9ZLfj2OCofM9E4TPoS01oeTFEn4fkOPcio1wsdqay0mQxdSTJsL2T-53QTprGrnv4hThV_FA_LqVMGQntDlz2JQ2PSHnOudnrFDpeXNNoLeknFStFm-tc36Y4xwbQOnpkXeZVI1oPFyGlVMZZUhIFjA8zKsURXNJ-tozG3qv0PvskDtaczmnY29PbXwgjSXQQxb7Vc11vCsjBbwMZdwTuFjrLY5rHy9QaoFFKpDBhy-o6c-af2PQfmA_Csu1TLW8LWoEbUizcLOt6HHxd6wsByDcs4dB4UVSbWunOhbYxp0gMA4XiD31T2RE2Qh5Ph5ESsnJnVqzhCmCgfVOdMGvA2vTIqCXgHpI5LzXMsSIvZERYP2XcDNvSjfTTQBgLOC0yhvw-X_8i1RpxvCOwajJ7ijlVri7FGiAeo3Q9UTUNHoFYud-DMxrJkNp__-_Gyyi7Y7RVWJfh5fydfJ3-oGyH_ucpDji5cMcO-ZVPlErR1VslW1S88ti5KsXJjCdiSwKU3IkOAW-3u_BnOXlfyV_tnOFQxMJxTFdpThyh2w-xZwiiXY66Mue3IgckLAMnCAPpI9C1eSavMPKhtsP7aY-X7v3m00]--></g></svg>