<svg xmlns="http://www.w3.org/2000/svg" xmlns:xlink="http://www.w3.org/1999/xlink" contentStyleType="text/css" data-diagram-type="DESCRIPTION" height="528px" preserveAspectRatio="none" style="width:1790px;height:528px;background:#FFFFFF;" version="1.1" viewBox="0 0 1790 528" width="1790px" zoomAndPan="magnify"><title>CMD-plan - plan deep internal flow (observed) (LOD0: Code Modules)</title><defs/><g><g class="title" data-source-line="8"><text fill="#000000" font-family="Arial" font-size="22" font-weight="bold" lengthAdjust="spacing" textLength="722.3584" x="529.6458" y="35.6357">CMD-plan - plan deep internal flow (observed) (LOD0: Code Modules)</text></g><!--cluster Code Modules--><g class="cluster" data-entity="Code Modules" data-source-line="16" data-uid="ent0006" id="cluster_Code Modules"><path d="M1269.15,147.8479 L1365.8189,147.8479 A3.75,3.75 0 0 1 1368.3189,150.3479 L1375.3189,169.9465 L1781.15,169.9465 A2.5,2.5 0 0 1 1783.65,172.4465 L1783.65,518.8079 A2.5,2.5 0 0 1 1781.15,521.3079 L1269.15,521.3079 A2.5,2.5 0 0 1 1266.65,518.8079 L1266.65,150.3479 A2.5,2.5 0 0 1 1269.15,147.8479" fill="#FFFFFF" style="stroke:#000000;stroke-width:1;"/><line style="stroke:#000000;stroke-width:1;" x1="1266.65" x2="1375.3189" y1="169.9465" y2="169.9465"/><text fill="#000000" font-family="Arial" font-size="14" font-weight="bold" lengthAdjust="spacing" textLength="95.6689" x="1270.65" y="162.9797">Code Modules</text></g><!--entity chat--><g class="entity" data-entity="chat" data-source-line="17" data-uid="ent0007" id="entity_chat"><rect fill="#FFFFFF" height="46.0986" rx="2.5" ry="2.5" style="stroke:#000000;stroke-width:1;" width="66.4619" x="1282.42" y="182.8479"/><rect fill="#FFFFFF" height="10" style="stroke:#000000;stroke-width:1;" width="15" x="1328.8819" y="187.8479"/><rect fill="#FFFFFF" height="2" style="stroke:#000000;stroke-width:1;" width="4" x="1326.8819" y="189.8479"/><rect fill="#FFFFFF" height="2" style="stroke:#000000;stroke-width:1;" width="4" x="1326.8819" y="193.8479"/><text fill="#000000" font-family="Arial" font-size="14" lengthAdjust="spacing" textLength="26.4619" x="1297.42" y="215.9797">chat</text></g><!--entity manager--><g class="entity" data-entity="manager" data-source-line="18" data-uid="ent0008" id="entity_manager"><rect fill="#FFFFFF" height="46.0986" rx="2.5" ry="2.5" style="stroke:#000000;stroke-width:1;" width="95.2549" x="1384.03" y="182.8479"/><rect fill="#FFFFFF" height="10" style="stroke:#000000;stroke-width:1;" width="15" x="1459.2849" y="187.8479"/><rect fill="#FFFFFF" height="2" style="stroke:#000000;stroke-width:1;" width="4" x="1457.2849" y="189.8479"/><rect fill="#FFFFFF" height="2" style="stroke:#000000;stroke-width:1;" width="4" x="1457.2849" y="193.8479"/><text fill="#000000" font-family="Arial" font-size="14" lengthAdjust="spacing" textLength="55.2549" x="1399.03" y="215.9797">manager</text></g><!--entity plan--><g class="entity" data-entity="plan" data-source-line="19" data-uid="ent0009" id="entity_plan"><rect fill="#FFFFFF" height="46.0986" rx="2.5" ry="2.5" style="stroke:#000000;stroke-width:1;" width="66.4688" x="1514.42" y="182.8479"/><rect fill="#FFFFFF" height="10" style="stroke:#000000;stroke-width:1;" width="15" x="1560.8888" y="187.8479"/><rect fill="#FFFFFF" height="2" style="stroke:#000000;stroke-width:1;" width="4" x="1558.8888" y="189.8479"/><rect fill="#FFFFFF" height="2" style="stroke:#000000;stroke-width:1;" width="4" x="1558.8888" y="193.8479"/><text fill="#000000" font-family="Arial" font-size="14" lengthAdjust="spacing" textLength="26.4688" x="1529.42" y="215.9797">plan</text></g><!--entity markdown_parser--><g class="entity" data-entity="markdown_parser" data-source-line="20" data-uid="ent0010" id="entity_markdown_parser"><rect fill="#FFFFFF" height="46.0986" rx="2.5" ry="2.5" style="stroke:#000000;stroke-width:1;" width="152.0479" x="1615.63" y="182.8479"/><rect fill="#FFFFFF" height="10" style="stroke:#000000;stroke-width:1;" width="15" x="1747.6779" y="187.8479"/><rect fill="#FFFFFF" height="2" style="stroke:#000000;stroke-width:1;" width="4" x="1745.6779" y="189.8479"/><rect fill="#FFFFFF" height="2" style="stroke:#000000;stroke-width:1;" width="4" x="1745.6779" y="193.8479"/><text fill="#000000" font-family="Arial" font-size="14" lengthAdjust="spacing" textLength="112.0479" x="1630.63" y="215.9797">markdown_parser</text></g><!--entity main--><g class="entity" data-entity="main" data-source-line="21" data-uid="ent0011" id="entity_main"><rect fill="#FFFFFF" height="46.0986" rx="2.5" ry="2.5" style="stroke:#000000;stroke-width:1;" width="70.3447" x="1288.48" y="353.1079"/><rect fill="#FFFFFF" height="10" style="stroke:#000000;stroke-width:1;" width="15" x="1338.8247" y="358.1079"/><rect fill="#FFFFFF" height="2" style="stroke:#000000;stroke-width:1;" width="4" x="1336.8247" y="360.1079"/><rect fill="#FFFFFF" height="2" style="stroke:#000000;stroke-width:1;" width="4" x="1336.8247" y="364.1079"/><text fill="#000000" font-family="Arial" font-size="14" lengthAdjust="spacing" textLength="30.3447" x="1303.48" y="386.2397">main</text></g><!--entity session--><g class="entity" data-entity="session" data-source-line="22" data-uid="ent0012" id="entity_session"><rect fill="#FFFFFF" height="46.0986" rx="2.5" ry="2.5" style="stroke:#000000;stroke-width:1;" width="87.4688" x="1393.92" y="353.1079"/><rect fill="#FFFFFF" height="10" style="stroke:#000000;stroke-width:1;" width="15" x="1461.3888" y="358.1079"/><rect fill="#FFFFFF" height="2" style="stroke:#000000;stroke-width:1;" width="4" x="1459.3888" y="360.1079"/><rect fill="#FFFFFF" height="2" style="stroke:#000000;stroke-width:1;" width="4" x="1459.3888" y="364.1079"/><text fill="#000000" font-family="Arial" font-size="14" lengthAdjust="spacing" textLength="47.4688" x="1408.92" y="386.2397">session</text></g><!--entity commands--><g class="entity" data-entity="commands" data-source-line="23" data-uid="ent0013" id="entity_commands"><rect fill="#FFFFFF" height="46.0986" rx="2.5" ry="2.5" style="stroke:#000000;stroke-width:1;" width="108.4688" x="1516.42" y="353.1079"/><rect fill="#FFFFFF" height="10" style="stroke:#000000;stroke-width:1;" width="15" x="1604.8888" y="358.1079"/><rect fill="#FFFFFF" height="2" style="stroke:#000000;stroke-width:1;" width="4" x="1602.8888" y="360.1079"/><rect fill="#FFFFFF" height="2" style="stroke:#000000;stroke-width:1;" width="4" x="1602.8888" y="364.1079"/><text fill="#000000" font-family="Arial" font-size="14" lengthAdjust="spacing" textLength="68.4688" x="1531.42" y="386.2397">commands</text></g><!--entity decoder--><g class="entity" data-entity="decoder" data-source-line="24" data-uid="ent0014" id="entity_decoder"><rect fill="#FFFFFF" height="46.0986" rx="2.5" ry="2.5" style="stroke:#000000;stroke-width:1;" width="90.5928" x="1660.36" y="353.1079"/><rect fill="#FFFFFF" height="10" style="stroke:#000000;stroke-width:1;" width="15" x="1730.9528" y="358.1079"/><rect fill="#FFFFFF" height="2" style="stroke:#000000;stroke-width:1;" width="4" x="1728.9528" y="360.1079"/><rect fill="#FFFFFF" height="2" style="stroke:#000000;stroke-width:1;" width="4" x="1728.9528" y="364.1079"/><text fill="#000000" font-family="Arial" font-size="14" lengthAdjust="spacing" textLength="50.5928" x="1675.36" y="386.2397">decoder</text></g><!--entity executor--><g class="entity" data-entity="executor" data-source-line="25" data-uid="ent0015" id="entity_executor"><rect fill="#FFFFFF" height="46.0986" rx="2.5" ry="2.5" style="stroke:#000000;stroke-width:1;" width="93.6963" x="1282.8" y="459.2079"/><rect fill="#FFFFFF" height="10" style="stroke:#000000;stroke-width:1;" width="15" x="1356.4963" y="464.2079"/><rect fill="#FFFFFF" height="2" style="stroke:#000000;stroke-width:1;" width="4" x="1354.4963" y="466.2079"/><rect fill="#FFFFFF" height="2" style="stroke:#000000;stroke-width:1;" width="4" x="1354.4963" y="470.2079"/><text fill="#000000" font-family="Arial" font-size="14" lengthAdjust="spacing" textLength="53.6963" x="1297.8" y="492.3397">executor</text></g><!--entity schemas--><g class="entity" data-entity="schemas" data-source-line="26" data-uid="ent0016" id="entity_schemas"><rect fill="#FFFFFF" height="46.0986" rx="2.5" ry="2.5" style="stroke:#000000;stroke-width:1;" width="96.0205" x="1411.64" y="459.2079"/><rect fill="#FFFFFF" height="10" style="stroke:#000000;stroke-width:1;" width="15" x="1487.6605" y="464.2079"/><rect fill="#FFFFFF" height="2" style="stroke:#000000;stroke-width:1;" width="4" x="1485.6605" y="466.2079"/><rect fill="#FFFFFF" height="2" style="stroke:#000000;stroke-width:1;" width="4" x="1485.6605" y="470.2079"/><text fill="#000000" font-family="Arial" font-size="14" lengthAdjust="spacing" textLength="56.0205" x="1426.64" y="492.3397">schemas</text></g><!--entity NOTE_ANCHOR--><!--link NOTE_ANCHOR to GMN3--><!--SRC=[fLNDRjim3BxxARZiqWLel7L03zqfIzorGnCNQNOA2aErc4QBBHcIdBGOzY8xxTds9ADiENMy3iqmmq0eaH_vySVCAxl27A78c921MGjPCCrok6Ff-bwhKlAHofI6r-VLqxBWk6HbPi-Lj5D67ePQiAob7sgjjXxyldfQogco-55fZjfRZAgdQ_4S2R8AhB0PmcWoFYRU4ewX-k681GXfKKkMmJ9JMpXITmRr1laREBgAns_FOAGumaJnCaFp9WXAWoap23qcqvNIFM06fl4yIeRJqKKy2rQ2pDiNadY15lSh2sgvfm7ezszKgLCyw_TXiU0gDU5MwRLZOiBDIIXqcEOyR7WFKk8oU6Hv1lzWUtiReEJWU0H1GHLYzqI_dLOFlX6PLEM5aYWjzD8LirLcJjXNvKmIlixRo_i6BdYbTK8NgzTSRML27JCx7tjtNO2GtafqV1aqHgXQw-LE3YedVjpKUVZ3lWb7LwIQXvVt3V01qzBwBZU73e-KFWTMH_5oy3sekvxXyjccHniQ4bcrtPsfzPjtOJE7ePjAryh45J1nfq5HKil_lABErl3EDEGCZTKgRB8Egu4e7i7_leHpPgQnDmS24bMONKG7Ria7utqN7Fn9F1ZTTCZ1M_91U7meQ6DWw6V9kNWIN_B0HEY_1OTx4b-ChDLNJEt_aEVCih3p4TKakbTxU-2lMydjpEWqEgq6zTUFdt25d9A12vfFqmnix9SaZ2dwn4U20hKHnhh9fgswczTwpJhM7s1p0XeB1LQNTWMqImrylecdbTDhPsieQxUVAbMLSZs3EOVjIgGhs0YLCKlAMNGT9_FPb_b5SXxF9iDvSdcJE6SKUyFeluMSqhjO30OXlPUJwwje4atdm_bbF4skel6dQERSFgkegjv07MDjJPXLbKXI6ch17GS7z-KPxIxRPVuD]--></g></svg>