<svg xmlns="http://www.w3.org/2000/svg" xmlns:xlink="http://www.w3.org/1999/xlink" contentStyleType="text/css" data-diagram-type="DESCRIPTION" height="1072px" preserveAspectRatio="none" style="width:3967px;height:1072px;background:#FFFFFF;" version="1.1" viewBox="0 0 3967 1072" width="3967px" zoomAndPan="magnify"><title>WF-02 - New Project from Empty Directory (Manual Track/Phase/Task Planning) (LOD0: Spine)</title><defs/><g><g class="title" data-source-line="8"><text fill="#000000" font-family="Arial" font-size="22" font-weight="bold" lengthAdjust="spacing" textLength="982.8672" x="1487.9432" y="35.6357">WF-02 - New Project from Empty Directory (Manual Track/Phase/Task Planning) (LOD0: Spine)</text></g><!--cluster Data Stores--><g class="cluster" data-entity="Data Stores" data-source-line="90" data-uid="ent0025" id="cluster_Data Stores"><path d="M2894.89,461.6879 L2973.6966,461.6879 A3.75,3.75 0 0 1 2976.1966,464.1879 L2983.1966,483.7865 L3428.89,483.7865 A2.5,2.5 0 0 1 3431.39,486.2865 L3431.39,1063.1279 A2.5,2.5 0 0 1 3428.89,1065.6279 L2894.89,1065.6279 A2.5,2.5 0 0 1 2892.39,1063.1279 L2892.39,464.1879 A2.5,2.5 0 0 1 2894.89,461.6879" fill="#F0F0F0" style="stroke:#000000;stroke-width:1;"/><line style="stroke:#000000;stroke-width:1;" x1="2892.39" x2="2983.1966" y1="483.7865" y2="483.7865"/><text fill="#000000" font-family="Arial" font-size="14" font-weight="bold" lengthAdjust="spacing" textLength="77.8066" x="2896.39" y="476.8197">Data Stores</text></g><!--cluster Uses Commands--><g class="cluster" data-entity="Uses Commands" data-source-line="102" data-uid="ent0031" id="cluster_Uses Commands"><path d="M3457.89,474.2379 L3572.4828,474.2379 A3.75,3.75 0 0 1 3574.9828,476.7379 L3581.9828,496.3365 L3696.89,496.3365 A2.5,2.5 0 0 1 3699.39,498.8365 L3699.39,1050.5779 A2.5,2.5 0 0 1 3696.89,1053.0779 L3457.89,1053.0779 A2.5,2.5 0 0 1 3455.39,1050.5779 L3455.39,476.7379 A2.5,2.5 0 0 1 3457.89,474.2379" fill="#E6F3FF" style="stroke:#000000;stroke-width:1;"/><line style="stroke:#000000;stroke-width:1;" x1="3455.39" x2="3581.9828" y1="496.3365" y2="496.3365"/><text fill="#000000" font-family="Arial" font-size="14" font-weight="bold" lengthAdjust="spacing" textLength="113.5928" x="3459.39" y="489.3697">Uses Commands</text></g><!--entity repo_truth--><g class="entity" data-entity="repo_truth" data-source-line="91" data-uid="ent0026" id="entity_repo_truth"><path d="M2908.54,506.6879 C2908.54,496.6879 2966.3916,496.6879 2966.3916,496.6879 C2966.3916,496.6879 3024.2431,496.6879 3024.2431,506.6879 L3024.2431,547.8851 C3024.2431,557.8851 2966.3916,557.8851 2966.3916,557.8851 C2966.3916,557.8851 2908.54,557.8851 2908.54,547.8851 L2908.54,506.6879" fill="#FFFFFF" style="stroke:#000000;stroke-width:1;"/><path d="M2908.54,506.6879 C2908.54,516.6879 2966.3916,516.6879 2966.3916,516.6879 C2966.3916,516.6879 3024.2431,516.6879 3024.2431,506.6879" fill="none" style="stroke:#000000;stroke-width:1;"/><text fill="#000000" font-family="Arial" font-size="14" lengthAdjust="spacing" textLength="63.8203" x="2918.54" y="533.8197">repo_truth</text><text fill="#000000" font-family="Arial" font-size="14" lengthAdjust="spacing" textLength="95.7031" x="2918.54" y="549.9183">./docs/maestro/</text></g><!--entity tracks_store--><g class="entity" data-entity="tracks_store" data-source-line="92" data-uid="ent0027" id="entity_tracks_store"><path d="M3058.92,506.6879 C3058.92,496.6879 3137.3853,496.6879 3137.3853,496.6879 C3137.3853,496.6879 3215.8507,496.6879 3215.8507,506.6879 L3215.8507,547.8851 C3215.8507,557.8851 3137.3853,557.8851 3137.3853,557.8851 C3137.3853,557.8851 3058.92,557.8851 3058.92,547.8851 L3058.92,506.6879" fill="#FFFFFF" style="stroke:#000000;stroke-width:1;"/><path d="M3058.92,506.6879 C3058.92,516.6879 3137.3853,516.6879 3137.3853,516.6879 C3137.3853,516.6879 3215.8507,516.6879 3215.8507,506.6879" fill="none" style="stroke:#000000;stroke-width:1;"/><text fill="#000000" font-family="Arial" font-size="14" lengthAdjust="spacing" textLength="76.248" x="3068.92" y="533.8197">tracks_store</text><text fill="#000000" font-family="Arial" font-size="14" lengthAdjust="spacing" textLength="136.9307" x="3068.92" y="549.9183">./docs/maestro/tracks/</text></g><!--entity phases_store--><g class="entity" data-entity="phases_store" data-source-line="93" data-uid="ent0028" id="entity_phases_store"><path d="M3251.02,506.6879 C3251.02,496.6879 3333.3887,496.6879 3333.3887,496.6879 C3333.3887,496.6879 3415.7573,496.6879 3415.7573,506.6879 L3415.7573,547.8851 C3415.7573,557.8851 3333.3887,557.8851 3333.3887,557.8851 C3333.3887,557.8851 3251.02,557.8851 3251.02,547.8851 L3251.02,506.6879" fill="#FFFFFF" style="stroke:#000000;stroke-width:1;"/><path d="M3251.02,506.6879 C3251.02,516.6879 3333.3887,516.6879 3333.3887,516.6879 C3333.3887,516.6879 3415.7573,516.6879 3415.7573,506.6879" fill="none" style="stroke:#000000;stroke-width:1;"/><text fill="#000000" font-family="Arial" font-size="14" lengthAdjust="spacing" textLength="84.0547" x="3261.02" y="533.8197">phases_store</text><text fill="#000000" font-family="Arial" font-size="14" lengthAdjust="spacing" textLength="144.7373" x="3261.02" y="549.9183">./docs/maestro/phases/</text></g><!--entity tasks_store--><g class="entity" data-entity="tasks_store" data-source-line="94" data-uid="ent0029" id="entity_tasks_store"><path d="M2908.26,998.4279 C2908.26,988.4279 2984.3943,988.4279 2984.3943,988.4279 C2984.3943,988.4279 3060.5286,988.4279 3060.5286,998.4279 L3060.5286,1039.6251 C3060.5286,1049.6251 2984.3943,1049.6251 2984.3943,1049.6251 C2984.3943,1049.6251 2908.26,1049.6251 2908.26,1039.6251 L2908.26,998.4279" fill="#FFFFFF" style="stroke:#000000;stroke-width:1;"/><path d="M2908.26,998.4279 C2908.26,1008.4279 2984.3943,1008.4279 2984.3943,1008.4279 C2984.3943,1008.4279 3060.5286,1008.4279 3060.5286,998.4279" fill="none" style="stroke:#000000;stroke-width:1;"/><text fill="#000000" font-family="Arial" font-size="14" lengthAdjust="spacing" textLength="71.5859" x="2918.26" y="1025.5597">tasks_store</text><text fill="#000000" font-family="Arial" font-size="14" lengthAdjust="spacing" textLength="132.2686" x="2918.26" y="1041.6583">./docs/maestro/tasks/</text></g><!--entity index_store--><g class="entity" data-entity="index_store" data-source-line="95" data-uid="ent0030" id="entity_index_store"><path d="M3096.02,998.4279 C3096.02,988.4279 3185.3921,988.4279 3185.3921,988.4279 C3185.3921,988.4279 3274.7641,988.4279 3274.7641,998.4279 L3274.7641,1039.6251 C3274.7641,1049.6251 3185.3921,1049.6251 3185.3921,1049.6251 C3185.3921,1049.6251 3096.02,1049.6251 3096.02,1039.6251 L3096.02,998.4279" fill="#FFFFFF" style="stroke:#000000;stroke-width:1;"/><path d="M3096.02,998.4279 C3096.02,1008.4279 3185.3921,1008.4279 3185.3921,1008.4279 C3185.3921,1008.4279 3274.7641,1008.4279 3274.7641,998.4279" fill="none" style="stroke:#000000;stroke-width:1;"/><text fill="#000000" font-family="Arial" font-size="14" lengthAdjust="spacing" textLength="72.3789" x="3106.02" y="1025.5597">index_store</text><text fill="#000000" font-family="Arial" font-size="14" lengthAdjust="spacing" textLength="158.7441" x="3106.02" y="1041.6583">./docs/maestro/index.json</text></g><!--entity uses_init--><g class="entity" data-entity="uses_init" data-source-line="103" data-uid="ent0032" id="entity_uses_init"><a href="../generated/svg/CMD-init.all_layers.lod0.svg" target="_top" title="../generated/svg/CMD-init.all_layers.lod0.svg" xlink:actuate="onRequest" xlink:href="../generated/svg/CMD-init.all_layers.lod0.svg" xlink:show="new" xlink:title="../generated/svg/CMD-init.all_layers.lod0.svg" xlink:type="simple"><rect fill="#FFFFFF" height="36.0986" rx="2.5" ry="2.5" style="stroke:#000000;stroke-width:1;" width="37.8965" x="3471.44" y="509.2379"/><text fill="#000000" font-family="Arial" font-size="14" lengthAdjust="spacing" textLength="17.8965" x="3481.44" y="532.3697">init</text></a></g><!--entity uses_phase--><g class="entity" data-entity="uses_phase" data-source-line="104" data-uid="ent0033" id="entity_uses_phase"><a href="../generated/svg/CMD-phase.all_layers.lod0.svg" target="_top" title="../generated/svg/CMD-phase.all_layers.lod0.svg" xlink:actuate="onRequest" xlink:href="../generated/svg/CMD-phase.all_layers.lod0.svg" xlink:show="new" xlink:title="../generated/svg/CMD-phase.all_layers.lod0.svg" xlink:type="simple"><rect fill="#FFFFFF" height="36.0986" rx="2.5" ry="2.5" style="stroke:#000000;stroke-width:1;" width="58.1445" x="3544.32" y="509.2379"/><text fill="#000000" font-family="Arial" font-size="14" lengthAdjust="spacing" textLength="38.1445" x="3554.32" y="532.3697">phase</text></a></g><!--entity uses_task--><g class="entity" data-entity="uses_task" data-source-line="105" data-uid="ent0034" id="entity_uses_task"><a href="../generated/svg/CMD-task.all_layers.lod0.svg" target="_top" title="../generated/svg/CMD-task.all_layers.lod0.svg" xlink:actuate="onRequest" xlink:href="../generated/svg/CMD-task.all_layers.lod0.svg" xlink:show="new" xlink:title="../generated/svg/CMD-task.all_layers.lod0.svg" xlink:type="simple"><rect fill="#FFFFFF" height="36.0986" rx="2.5" ry="2.5" style="stroke:#000000;stroke-width:1;" width="45.6758" x="3637.55" y="509.2379"/><text fill="#000000" font-family="Arial" font-size="14" lengthAdjust="spacing" textLength="25.6758" x="3647.55" y="532.3697">task</text></a></g><!--entity uses_track--><g class="entity" data-entity="uses_track" data-source-line="106" data-uid="ent0035" id="entity_uses_track"><a href="../generated/svg/CMD-track.all_layers.lod0.svg" target="_top" title="../generated/svg/CMD-track.all_layers.lod0.svg" xlink:actuate="onRequest" xlink:href="../generated/svg/CMD-track.all_layers.lod0.svg" xlink:show="new" xlink:title="../generated/svg/CMD-track.all_layers.lod0.svg" xlink:type="simple"><rect fill="#FFFFFF" height="36.0986" rx="2.5" ry="2.5" style="stroke:#000000;stroke-width:1;" width="50.3379" x="3471.22" y="1000.9779"/><text fill="#000000" font-family="Arial" font-size="14" lengthAdjust="spacing" textLength="30.3379" x="3481.22" y="1024.1097">track</text></a></g><!--entity uses_work--><g class="entity" data-entity="uses_work" data-source-line="107" data-uid="ent0036" id="entity_uses_work"><a href="../generated/svg/CMD-work.all_layers.lod0.svg" target="_top" title="../generated/svg/CMD-work.all_layers.lod0.svg" xlink:actuate="onRequest" xlink:href="../generated/svg/CMD-work.all_layers.lod0.svg" xlink:show="new" xlink:title="../generated/svg/CMD-work.all_layers.lod0.svg" xlink:type="simple"><rect fill="#FFFFFF" height="36.0986" rx="2.5" ry="2.5" style="stroke:#000000;stroke-width:1;" width="49.5586" x="3556.61" y="1000.9779"/><text fill="#000000" font-family="Arial" font-size="14" lengthAdjust="spacing" textLength="29.5586" x="3566.61" y="1024.1097">work</text></a></g><!--entity NOTE_ANCHOR--><g class="entity" data-entity="ACTIVITY_FLOW" data-source-line="17" data-uid="ent0006" id="entity_ACTIVITY_FLOW"><path d="M3718.03,126.1479 L3718.03,928.4306 L3960.7536,928.4306 L3960.7536,136.1479 L3950.7536,126.1479 L3718.03,126.1479" fill="#FFFFCC" style="stroke:#CCCCCC;stroke-width:1;"/><path d="M3950.7536,126.1479 L3950.7536,136.1479 L3960.7536,136.1479 L3950.7536,126.1479" fill="#FFFFCC" style="stroke:#CCCCCC;stroke-width:1;"/><text fill="#000000" font-family="Arial" font-size="13" lengthAdjust="spacing" textLength="203.2075" x="3724.03" y="143.3417">(*) --&gt; "Operator starts new project"</text><text fill="#000000" font-family="Arial" font-size="13" lengthAdjust="spacing" textLength="131.3394" x="3724.03" y="158.2904">if "For each track" then</text><text fill="#000000" font-family="Arial" font-size="13" lengthAdjust="spacing" textLength="58.1509" x="3731.2536" y="173.2392">--&gt;[yes] ...</text><text fill="#000000" font-family="Arial" font-size="13" lengthAdjust="spacing" textLength="52.3809" x="3731.2536" y="188.1879">--&gt;[no] ...</text><text fill="#000000" font-family="Arial" font-size="13" lengthAdjust="spacing" textLength="28.1899" x="3724.03" y="203.1366">endif</text><text fill="#000000" font-family="Arial" font-size="13" lengthAdjust="spacing" textLength="214.4746" x="3724.03" y="218.0854">if "Validate track_id uniqueness" then</text><text fill="#000000" font-family="Arial" font-size="13" lengthAdjust="spacing" textLength="58.1509" x="3731.2536" y="233.0341">--&gt;[yes] ...</text><text fill="#000000" font-family="Arial" font-size="13" lengthAdjust="spacing" textLength="52.3809" x="3731.2536" y="247.9828">--&gt;[no] ...</text><text fill="#000000" font-family="Arial" font-size="13" lengthAdjust="spacing" textLength="28.1899" x="3724.03" y="262.9315">endif</text><text fill="#000000" font-family="Arial" font-size="13" lengthAdjust="spacing" textLength="138.5884" x="3724.03" y="277.8803">if "For each phase" then</text><text fill="#000000" font-family="Arial" font-size="13" lengthAdjust="spacing" textLength="58.1509" x="3731.2536" y="292.829">--&gt;[yes] ...</text><text fill="#000000" font-family="Arial" font-size="13" lengthAdjust="spacing" textLength="52.3809" x="3731.2536" y="307.7777">--&gt;[no] ...</text><text fill="#000000" font-family="Arial" font-size="13" lengthAdjust="spacing" textLength="28.1899" x="3724.03" y="322.7265">endif</text><text fill="#000000" font-family="Arial" font-size="13" lengthAdjust="spacing" textLength="221.7236" x="3724.03" y="337.6752">if "Validate phase_id uniqueness" then</text><text fill="#000000" font-family="Arial" font-size="13" lengthAdjust="spacing" textLength="58.1509" x="3731.2536" y="352.6239">--&gt;[yes] ...</text><text fill="#000000" font-family="Arial" font-size="13" lengthAdjust="spacing" textLength="52.3809" x="3731.2536" y="367.5727">--&gt;[no] ...</text><text fill="#000000" font-family="Arial" font-size="13" lengthAdjust="spacing" textLength="28.1899" x="3724.03" y="382.5214">endif</text><text fill="#000000" font-family="Arial" font-size="13" lengthAdjust="spacing" textLength="181.2065" x="3724.03" y="397.4701">if "Validate track_id exists" then</text><text fill="#000000" font-family="Arial" font-size="13" lengthAdjust="spacing" textLength="58.1509" x="3731.2536" y="412.4188">--&gt;[yes] ...</text><text fill="#000000" font-family="Arial" font-size="13" lengthAdjust="spacing" textLength="52.3809" x="3731.2536" y="427.3676">--&gt;[no] ...</text><text fill="#000000" font-family="Arial" font-size="13" lengthAdjust="spacing" textLength="28.1899" x="3724.03" y="442.3163">endif</text><text fill="#000000" font-family="Arial" font-size="13" lengthAdjust="spacing" textLength="127.0103" x="3724.03" y="457.265">if "For each task" then</text><text fill="#000000" font-family="Arial" font-size="13" lengthAdjust="spacing" textLength="58.1509" x="3731.2536" y="472.2138">--&gt;[yes] ...</text><text fill="#000000" font-family="Arial" font-size="13" lengthAdjust="spacing" textLength="52.3809" x="3731.2536" y="487.1625">--&gt;[no] ...</text><text fill="#000000" font-family="Arial" font-size="13" lengthAdjust="spacing" textLength="28.1899" x="3724.03" y="502.1112">endif</text><text fill="#000000" font-family="Arial" font-size="13" lengthAdjust="spacing" textLength="210.1455" x="3724.03" y="517.06">if "Validate task_id uniqueness" then</text><text fill="#000000" font-family="Arial" font-size="13" lengthAdjust="spacing" textLength="58.1509" x="3731.2536" y="532.0087">--&gt;[yes] ...</text><text fill="#000000" font-family="Arial" font-size="13" lengthAdjust="spacing" textLength="52.3809" x="3731.2536" y="546.9574">--&gt;[no] ...</text><text fill="#000000" font-family="Arial" font-size="13" lengthAdjust="spacing" textLength="28.1899" x="3724.03" y="561.9062">endif</text><text fill="#000000" font-family="Arial" font-size="13" lengthAdjust="spacing" textLength="188.4556" x="3724.03" y="576.8549">if "Validate phase_id exists" then</text><text fill="#000000" font-family="Arial" font-size="13" lengthAdjust="spacing" textLength="58.1509" x="3731.2536" y="591.8036">--&gt;[yes] ...</text><text fill="#000000" font-family="Arial" font-size="13" lengthAdjust="spacing" textLength="52.3809" x="3731.2536" y="606.7523">--&gt;[no] ...</text><text fill="#000000" font-family="Arial" font-size="13" lengthAdjust="spacing" textLength="28.1899" x="3724.03" y="621.7011">endif</text><text fill="#000000" font-family="Arial" font-size="13" lengthAdjust="spacing" textLength="138.582" x="3724.03" y="636.6498">if "Task available?" then</text><text fill="#000000" font-family="Arial" font-size="13" lengthAdjust="spacing" textLength="58.1509" x="3731.2536" y="651.5985">--&gt;[yes] ...</text><text fill="#000000" font-family="Arial" font-size="13" lengthAdjust="spacing" textLength="52.3809" x="3731.2536" y="666.5473">--&gt;[no] ...</text><text fill="#000000" font-family="Arial" font-size="13" lengthAdjust="spacing" textLength="28.1899" x="3724.03" y="681.496">endif</text><text fill="#000000" font-family="Arial" font-size="13" lengthAdjust="spacing" textLength="172.542" x="3724.03" y="696.4447">if "How to execute task?" then</text><text fill="#000000" font-family="Arial" font-size="13" lengthAdjust="spacing" textLength="58.1509" x="3731.2536" y="711.3935">--&gt;[yes] ...</text><text fill="#000000" font-family="Arial" font-size="13" lengthAdjust="spacing" textLength="52.3809" x="3731.2536" y="726.3422">--&gt;[no] ...</text><text fill="#000000" font-family="Arial" font-size="13" lengthAdjust="spacing" textLength="28.1899" x="3724.03" y="741.2909">endif</text><text fill="#000000" font-family="Arial" font-size="13" lengthAdjust="spacing" textLength="177.6392" x="3724.03" y="756.2396">if "Validate engine output" then</text><text fill="#000000" font-family="Arial" font-size="13" lengthAdjust="spacing" textLength="58.1509" x="3731.2536" y="771.1884">--&gt;[yes] ...</text><text fill="#000000" font-family="Arial" font-size="13" lengthAdjust="spacing" textLength="52.3809" x="3731.2536" y="786.1371">--&gt;[no] ...</text><text fill="#000000" font-family="Arial" font-size="13" lengthAdjust="spacing" textLength="28.1899" x="3724.03" y="801.0858">endif</text><text fill="#000000" font-family="Arial" font-size="13" lengthAdjust="spacing" textLength="140.0166" x="3724.03" y="816.0346">if "Task complete?" then</text><text fill="#000000" font-family="Arial" font-size="13" lengthAdjust="spacing" textLength="58.1509" x="3731.2536" y="830.9833">--&gt;[yes] ...</text><text fill="#000000" font-family="Arial" font-size="13" lengthAdjust="spacing" textLength="52.3809" x="3731.2536" y="845.932">--&gt;[no] ...</text><text fill="#000000" font-family="Arial" font-size="13" lengthAdjust="spacing" textLength="28.1899" x="3724.03" y="860.8808">endif</text><text fill="#000000" font-family="Arial" font-size="13" lengthAdjust="spacing" textLength="156.6284" x="3724.03" y="875.8295">if "More active tasks?" then</text><text fill="#000000" font-family="Arial" font-size="13" lengthAdjust="spacing" textLength="58.1509" x="3731.2536" y="890.7782">--&gt;[yes] ...</text><text fill="#000000" font-family="Arial" font-size="13" lengthAdjust="spacing" textLength="52.3809" x="3731.2536" y="905.727">--&gt;[no] ...</text><text fill="#000000" font-family="Arial" font-size="13" lengthAdjust="spacing" textLength="28.1899" x="3724.03" y="920.6757">endif</text></g><!--link NOTE_ANCHOR to GMN3--><!--link NOTE_ANCHOR to GMN7--><!--link NOTE_ANCHOR to GMN10--><!--link NOTE_ANCHOR to GMN13--><!--link NOTE_ANCHOR to GMN16--><!--link NOTE_ANCHOR to GMN19--><!--SRC=[jLPDRziu4BthLyowXqqCM79JO0yzRE6rBQH0OWU9ssAH1W8ZZMGs5AabARj6qV- -GyeVyhPUf74YNqpDpDER8OVpVhDpB14gmRWCp0EN5TEiX7kMFXHQrJ8RAg4ql8hzq_B8C6UriB6ITi88OQ0v4otxG6krN0U_yK_BE54M_r8wGxts6Fhdlnu_8q5UWULM87oAU_qpwC44bt2brHTCBUHQbJ0kAxk24TVqHkaLd5moMJC1Cqs0qTMS6Oncp3p0bM1ISbcSmid5TDH_2pSLbtWQ1BN1bBoWmsGwLxe3pC1aEXidWydmV7eTp7c6UoyaqGNDYxa5bUzP0BhT6rNh5Dzskt1xcwdKH4kb7tAXbYPQd4LSHyiyyjc4N5gKDbonKi2ZFU_k0fGPE0v1muJe3eQpzn_Vp_vEuelf9s9nqZs5NkzFw4mhr8pg0iOoRGr8Ab_LbAz3VZo7JanMPEaShAjO1-YCI3A10xXTeRc3C0otBwJQh8a5pzSO7vdW6ICk7YFX6TII_rEZH6EUXhXbLRaTF9ALntWELZ_cYL-viSVcQEby7ak889urmstDZidGDnvRC2xOlS1tJmCvLqkmYdXWMgypVNTaSYWBwdrGjQrgUqHggIehWVQfcLqgJUsRMhveqZA_ZBEz2WxUIUuYxTFZxwRpmVK8RcRJgsxtipndEeCRgogwLaTr9NZQFjal0BqvKiy6VOqvQfGfPhk6p1GQ1zwSsvSeKDDfBv74jkTUA8bn-zZ3eka6hYJarA7OIYceg9gie9auOfQvS8rq1RoA- -u7t-Wp5Cdk_TZKMAd4wjhEFyimyeEiP6YiLf6VfJlxNfZVCPCOX_r3O6DiujkEUmY-N8SG6cE3q7RSv-2QxX05PripsBdjXNEPuTS3uTuMVZ5AUeYMQ_0z-DqDPnhI__TdjmSVY3mCLLaocRbT6FyHlubZlmjEzJ1P24-6M_-fskNgLYH0mZ0gQ1gG1i0iCeiY6bwEUiuMCY4ImLQeJIXKrW_9ID9Y3t4zUZUGVda8qniV0zhCkWscMns2TBP78JQwPGlfbWSndV4ne4wAxJ3TwX2ainr0_BvMQ0Bpdqh5yOAafVHYqQtf2ulNaKbHCirLqZzBIAubQxcMb5xN9YJUPLXcCALhW4iIkelNi0bnAh8kIIdwhlOf_G9eLPCERSCwnMm_N5v0nbb1EhqjFVy5]--></g></svg>