<svg xmlns="http://www.w3.org/2000/svg" xmlns:xlink="http://www.w3.org/1999/xlink" contentStyleType="text/css" data-diagram-type="DESCRIPTION" height="537px" preserveAspectRatio="none" style="width:2594px;height:537px;background:#FFFFFF;" version="1.1" viewBox="0 0 2594 537" width="2594px" zoomAndPan="magnify"><title>WF-08 - Convert &#8212; cross-repo pipeline (New/Plan/Run) (LOD0: Spine)</title><defs/><g><g class="title" data-source-line="31"><text fill="#000000" font-family="Arial" font-size="22" font-weight="bold" lengthAdjust="spacing" textLength="726.0645" x="929.6628" y="35.6357">WF-08 - Convert &#8212; cross-repo pipeline (New/Plan/Run) (LOD0: Spine)</text></g><!--cluster Data Stores--><g class="cluster" data-entity="Data Stores" data-source-line="60" data-uid="ent0014" id="cluster_Data Stores"><path d="M1486.89,195.9279 L1565.6966,195.9279 A3.75,3.75 0 0 1 1568.1966,198.4279 L1575.1966,218.0265 L1858.89,218.0265 A2.5,2.5 0 0 1 1861.39,220.5265 L1861.39,528.2879 A2.5,2.5 0 0 1 1858.89,530.7879 L1486.89,530.7879 A2.5,2.5 0 0 1 1484.39,528.2879 L1484.39,198.4279 A2.5,2.5 0 0 1 1486.89,195.9279" fill="#F0F0F0" style="stroke:#000000;stroke-width:1;"/><line style="stroke:#000000;stroke-width:1;" x1="1484.39" x2="1575.1966" y1="218.0265" y2="218.0265"/><text fill="#000000" font-family="Arial" font-size="14" font-weight="bold" lengthAdjust="spacing" textLength="77.8066" x="1488.39" y="211.0597">Data Stores</text></g><!--cluster Uses Commands--><g class="cluster" data-entity="Uses Commands" data-source-line="67" data-uid="ent0018" id="cluster_Uses Commands"><path d="M2408.89,208.4779 L2523.4828,208.4779 A3.75,3.75 0 0 1 2525.9828,210.9779 L2532.9828,230.5765 L2584.89,230.5765 A2.5,2.5 0 0 1 2587.39,233.0765 L2587.39,293.0779 A2.5,2.5 0 0 1 2584.89,295.5779 L2408.89,295.5779 A2.5,2.5 0 0 1 2406.39,293.0779 L2406.39,210.9779 A2.5,2.5 0 0 1 2408.89,208.4779" fill="#E6F3FF" style="stroke:#000000;stroke-width:1;"/><line style="stroke:#000000;stroke-width:1;" x1="2406.39" x2="2532.9828" y1="230.5765" y2="230.5765"/><text fill="#000000" font-family="Arial" font-size="14" font-weight="bold" lengthAdjust="spacing" textLength="113.5928" x="2410.39" y="223.6097">Uses Commands</text></g><!--entity pipeline_metadata--><g class="entity" data-entity="pipeline_metadata" data-source-line="61" data-uid="ent0015" id="entity_pipeline_metadata"><path d="M1500.64,240.9279 C1500.64,230.9279 1583.3915,230.9279 1583.3915,230.9279 C1583.3915,230.9279 1666.1429,230.9279 1666.1429,240.9279 L1666.1429,282.1251 C1666.1429,292.1251 1583.3915,292.1251 1583.3915,292.1251 C1583.3915,292.1251 1500.64,292.1251 1500.64,282.1251 L1500.64,240.9279" fill="#FFFFFF" style="stroke:#000000;stroke-width:1;"/><path d="M1500.64,240.9279 C1500.64,250.9279 1583.3915,250.9279 1583.3915,250.9279 C1583.3915,250.9279 1666.1429,250.9279 1666.1429,240.9279" fill="none" style="stroke:#000000;stroke-width:1;"/><text fill="#000000" font-family="Arial" font-size="14" lengthAdjust="spacing" textLength="114.4199" x="1510.64" y="268.0597">pipeline_metadata</text><text fill="#000000" font-family="Arial" font-size="14" lengthAdjust="spacing" textLength="145.5029" x="1510.64" y="284.1583">./docs/maestro/convert/</text></g><!--entity target_repo_tasks--><g class="entity" data-entity="target_repo_tasks" data-source-line="62" data-uid="ent0016" id="entity_target_repo_tasks"><path d="M1701.15,240.9279 C1701.15,230.9279 1773.3912,230.9279 1773.3912,230.9279 C1773.3912,230.9279 1845.6324,230.9279 1845.6324,240.9279 L1845.6324,282.1251 C1845.6324,292.1251 1773.3912,292.1251 1773.3912,292.1251 C1773.3912,292.1251 1701.15,292.1251 1701.15,282.1251 L1701.15,240.9279" fill="#FFFFFF" style="stroke:#000000;stroke-width:1;"/><path d="M1701.15,240.9279 C1701.15,250.9279 1773.3912,250.9279 1773.3912,250.9279 C1773.3912,250.9279 1845.6324,250.9279 1845.6324,240.9279" fill="none" style="stroke:#000000;stroke-width:1;"/><text fill="#000000" font-family="Arial" font-size="14" lengthAdjust="spacing" textLength="112.0684" x="1711.15" y="268.0597">target_repo_tasks</text><text fill="#000000" font-family="Arial" font-size="14" lengthAdjust="spacing" textLength="124.4824" x="1711.15" y="284.1583">./Track/Phase/Task/</text></g><!--entity ast_export--><g class="entity" data-entity="ast_export" data-source-line="63" data-uid="ent0017" id="entity_ast_export"><path d="M1500.64,463.5879 C1500.64,453.5879 1583.3915,453.5879 1583.3915,453.5879 C1583.3915,453.5879 1666.1429,453.5879 1666.1429,463.5879 L1666.1429,504.7851 C1666.1429,514.7851 1583.3915,514.7851 1583.3915,514.7851 C1583.3915,514.7851 1500.64,514.7851 1500.64,504.7851 L1500.64,463.5879" fill="#FFFFFF" style="stroke:#000000;stroke-width:1;"/><path d="M1500.64,463.5879 C1500.64,473.5879 1583.3915,473.5879 1583.3915,473.5879 C1583.3915,473.5879 1666.1429,473.5879 1666.1429,463.5879" fill="none" style="stroke:#000000;stroke-width:1;"/><text fill="#000000" font-family="Arial" font-size="14" lengthAdjust="spacing" textLength="65.3721" x="1510.64" y="490.7197">ast_export</text><text fill="#000000" font-family="Arial" font-size="14" lengthAdjust="spacing" textLength="145.5029" x="1510.64" y="506.8183">./docs/maestro/convert/</text></g><!--entity uses_convert--><g class="entity" data-entity="uses_convert" data-source-line="68" data-uid="ent0019" id="entity_uses_convert"><a href="../generated/svg/CMD-convert.all_layers.lod0.svg" target="_top" title="../generated/svg/CMD-convert.all_layers.lod0.svg" xlink:actuate="onRequest" xlink:href="../generated/svg/CMD-convert.all_layers.lod0.svg" xlink:show="new" xlink:title="../generated/svg/CMD-convert.all_layers.lod0.svg" xlink:type="simple"><rect fill="#FFFFFF" height="36.0986" rx="2.5" ry="2.5" style="stroke:#000000;stroke-width:1;" width="65.9102" x="2422.43" y="243.4779"/><text fill="#000000" font-family="Arial" font-size="14" lengthAdjust="spacing" textLength="45.9102" x="2432.43" y="266.6097">convert</text></a></g><!--entity uses_repo--><g class="entity" data-entity="uses_repo" data-source-line="69" data-uid="ent0020" id="entity_uses_repo"><a href="../generated/svg/CMD-repo.all_layers.lod0.svg" target="_top" title="../generated/svg/CMD-repo.all_layers.lod0.svg" xlink:actuate="onRequest" xlink:href="../generated/svg/CMD-repo.all_layers.lod0.svg" xlink:show="new" xlink:title="../generated/svg/CMD-repo.all_layers.lod0.svg" xlink:type="simple"><rect fill="#FFFFFF" height="36.0986" rx="2.5" ry="2.5" style="stroke:#000000;stroke-width:1;" width="48.0205" x="2523.38" y="243.4779"/><text fill="#000000" font-family="Arial" font-size="14" lengthAdjust="spacing" textLength="28.0205" x="2533.38" y="266.6097">repo</text></a></g><!--entity NOTE_ANCHOR--><g class="entity" data-entity="N1" data-source-line="17" data-uid="ent0006" id="entity_N1"><path d="M1880.14,219.1579 L1880.14,303.9015 L2070.638,303.9015 L2070.638,229.1579 L2060.638,219.1579 L1880.14,219.1579" fill="#FFFFCC" style="stroke:#CCCCCC;stroke-width:1;"/><path d="M2060.638,219.1579 L2060.638,229.1579 L2070.638,229.1579 L2060.638,219.1579" fill="#FFFFCC" style="stroke:#CCCCCC;stroke-width:1;"/><text fill="#000000" font-family="Arial" font-size="13" font-weight="bold" lengthAdjust="spacing" textLength="142.2891" x="1886.14" y="236.3517">Combined view (LOD0)</text><text fill="#000000" font-family="Arial" font-size="13" lengthAdjust="spacing" textLength="3.6118" x="1886.14" y="251.3004">&#160;</text><text fill="#000000" font-family="Arial" font-size="13" lengthAdjust="spacing" textLength="137.998" x="1886.14" y="266.2492">This diagram combines:</text><ellipse cx="1891.64" cy="276.4528" fill="#000000" rx="2.5" ry="2.5"/><text fill="#000000" font-family="Arial" font-size="13" lengthAdjust="spacing" textLength="157.498" x="1898.14" y="281.1979">Intent layer (workflow logic)</text><ellipse cx="1891.64" cy="291.4015" fill="#000000" rx="2.5" ry="2.5"/><text fill="#000000" font-family="Arial" font-size="13" lengthAdjust="spacing" textLength="124.2871" x="1898.14" y="296.1466">Command integration</text></g><g class="entity" data-entity="ACTIVITY_FLOW" data-source-line="38" data-uid="ent0010" id="entity_ACTIVITY_FLOW"><path d="M2105.73,129.4579 L2105.73,393.5863 L2387.0474,393.5863 L2387.0474,139.4579 L2377.0474,129.4579 L2105.73,129.4579" fill="#FFFFCC" style="stroke:#CCCCCC;stroke-width:1;"/><path d="M2377.0474,129.4579 L2377.0474,139.4579 L2387.0474,139.4579 L2377.0474,129.4579" fill="#FFFFCC" style="stroke:#CCCCCC;stroke-width:1;"/><text fill="#000000" font-family="Arial" font-size="13" lengthAdjust="spacing" textLength="260.3174" x="2111.73" y="146.6517">(*) --&gt; "Operator initiates conversion pipeline"</text><text fill="#000000" font-family="Arial" font-size="13" lengthAdjust="spacing" textLength="161.7065" x="2111.73" y="161.6004">if "Validate plan JSON" then</text><text fill="#000000" font-family="Arial" font-size="13" lengthAdjust="spacing" textLength="58.1509" x="2118.9536" y="176.5492">--&gt;[yes] ...</text><text fill="#000000" font-family="Arial" font-size="13" lengthAdjust="spacing" textLength="52.3809" x="2118.9536" y="191.4979">--&gt;[no] ...</text><text fill="#000000" font-family="Arial" font-size="13" lengthAdjust="spacing" textLength="28.1899" x="2111.73" y="206.4466">endif</text><text fill="#000000" font-family="Arial" font-size="13" lengthAdjust="spacing" textLength="186.2656" x="2111.73" y="221.3954">if "Ensure AST is available" then</text><text fill="#000000" font-family="Arial" font-size="13" lengthAdjust="spacing" textLength="58.1509" x="2118.9536" y="236.3441">--&gt;[yes] ...</text><text fill="#000000" font-family="Arial" font-size="13" lengthAdjust="spacing" textLength="52.3809" x="2118.9536" y="251.2928">--&gt;[no] ...</text><text fill="#000000" font-family="Arial" font-size="13" lengthAdjust="spacing" textLength="28.1899" x="2111.73" y="266.2415">endif</text><text fill="#000000" font-family="Arial" font-size="13" lengthAdjust="spacing" textLength="226.7637" x="2111.73" y="281.1903">if "Validate plan and prerequisites" then</text><text fill="#000000" font-family="Arial" font-size="13" lengthAdjust="spacing" textLength="58.1509" x="2118.9536" y="296.139">--&gt;[yes] ...</text><text fill="#000000" font-family="Arial" font-size="13" lengthAdjust="spacing" textLength="52.3809" x="2118.9536" y="311.0877">--&gt;[no] ...</text><text fill="#000000" font-family="Arial" font-size="13" lengthAdjust="spacing" textLength="28.1899" x="2111.73" y="326.0365">endif</text><text fill="#000000" font-family="Arial" font-size="13" lengthAdjust="spacing" textLength="232.5146" x="2111.73" y="340.9852">if "Check for semantic equivalence" then</text><text fill="#000000" font-family="Arial" font-size="13" lengthAdjust="spacing" textLength="58.1509" x="2118.9536" y="355.9339">--&gt;[yes] ...</text><text fill="#000000" font-family="Arial" font-size="13" lengthAdjust="spacing" textLength="52.3809" x="2118.9536" y="370.8827">--&gt;[no] ...</text><text fill="#000000" font-family="Arial" font-size="13" lengthAdjust="spacing" textLength="28.1899" x="2111.73" y="385.8314">endif</text></g><!--link NOTE_ANCHOR to GMN3--><!--link NOTE_ANCHOR to GMN7--><!--SRC=[tLLHRzis47xNhxYw3uqDM79MO2ZoCC1pOYH5QWUnss9m0-4idMN25AcHbDnWAB0ViL-uNx8ZBIVssWnhduhA1WppZX-_k_luwPbRKqbGIHGgiXkXAZHOmXApJM5qhVAHbjh0yt5u3Z9oMc4jtLWhDq5661g1yY0-D4PlsyqlmtCGd6X7lsgJasapHk7vTyQNI71Mv8IJ1E_7_S4hwCD8bqkXA8Thl2TZuUHwUZxeHb5jAKDBq46LhRNf05gOJESNwN0okfpUHckHqz62uZF1Y6BjGA-E8W2ztapN9gEpNWyMYrndDjbgirb9lRL9yrCYJB9T9O5IB9GZvU9xB2NyxyoxkuXK3fv3j6FYwPw6enygR0Hjs_fwFGxnTxuM5dA1XUzQjakqPtuRN0LqaBujSB8d0L8N8kk630OkaK_rF1Z02QqEM3px4RIX6Z8E_lxpByYCjhPlgD9GYOeaDmfE9hHDRYIgvBPMtLrhps1MSQmRVOU268xcL- -kvh-bu-lfUsPnqkj2l_yBTAOLyVou4K899z2HPJ7usYtFzA7U3cyHA-YyGoboJlApLV1wDfrqW8UjE0mURt5FzWxYE7vOK7h_dqc9LOjpeMnjUBwpER0AiK4XSIdfsy2EINbPLeOC_LuBAxYURmCThIdRm8eROucbxaG67h51IIhxQg8F0tbI6Lw80tw2GYw7j-SmcqzlUhqFwX9D3jRfolDQ6czAOBV2PMkX2iXhutyUPtOm_8grZWKRsJawX1bFsNVZ-NZWF_077yLjmsNmklsaqv8S-kKFAaw2vaeawunETaUu9FZXP-b7O0vDGIxrLoPrQ3VMWyqDqqbkrfoHp7bn1_HPwX4GMfVInqeRzzzq7lEYJz4BBsmM-443tbhMTMjQlWKNFuzVZiUX1OOoXwhWkzzf8GCYlmHisYxmFOtZf23bhmhbYMsAPFJclD-6OvGo3MPfOwdpGSnnleH7qBw-HzpW9K-0-jWJY9_Q-onfzKLZkMZupQI2jGINNYoQqyHcfD08dGvUxUj9WwFjUhuVP5pcC6LX2eKIcbFOR_E-KvViBS7aGrbV2LpLx5w7qDustTitr_ktpv5X_GC0]--></g></svg>