<svg xmlns="http://www.w3.org/2000/svg" xmlns:xlink="http://www.w3.org/1999/xlink" contentStyleType="text/css" data-diagram-type="DESCRIPTION" height="501px" preserveAspectRatio="none" style="width:2833px;height:501px;background:#FFFFFF;" version="1.1" viewBox="0 0 2833 501" width="2833px" zoomAndPan="magnify"><title>WF-09 - Storage Contract &#8212; Repo Truth vs Home Hub (LOD0: Spine)</title><defs/><g><g class="title" data-source-line="8"><text fill="#000000" font-family="Arial" font-size="22" font-weight="bold" lengthAdjust="spacing" textLength="715.0322" x="1054.7917" y="35.6357">WF-09 - Storage Contract &#8212; Repo Truth vs Home Hub (LOD0: Spine)</text></g><!--cluster Data Stores--><g class="cluster" data-entity="Data Stores" data-source-line="27" data-uid="ent0010" id="cluster_Data Stores"><path d="M1704.35,137.9079 L1783.1566,137.9079 A3.75,3.75 0 0 1 1785.6566,140.4079 L1792.6566,160.0065 L2257.35,160.0065 A2.5,2.5 0 0 1 2259.85,162.5065 L2259.85,395.5279 A2.5,2.5 0 0 1 2257.35,398.0279 L1704.35,398.0279 A2.5,2.5 0 0 1 1701.85,395.5279 L1701.85,140.4079 A2.5,2.5 0 0 1 1704.35,137.9079" fill="#F0F0F0" style="stroke:#000000;stroke-width:1;"/><line style="stroke:#000000;stroke-width:1;" x1="1701.85" x2="1792.6566" y1="160.0065" y2="160.0065"/><text fill="#000000" font-family="Arial" font-size="14" font-weight="bold" lengthAdjust="spacing" textLength="77.8066" x="1705.85" y="153.0397">Data Stores</text></g><!--cluster Uses Commands--><g class="cluster" data-entity="Uses Commands" data-source-line="36" data-uid="ent0015" id="cluster_Uses Commands"><path d="M2286.35,150.4579 L2400.9428,150.4579 A3.75,3.75 0 0 1 2403.4428,152.9579 L2410.4428,172.5565 L2559.35,172.5565 A2.5,2.5 0 0 1 2561.85,175.0565 L2561.85,491.6279 A2.5,2.5 0 0 1 2559.35,494.1279 L2286.35,494.1279 A2.5,2.5 0 0 1 2283.85,491.6279 L2283.85,152.9579 A2.5,2.5 0 0 1 2286.35,150.4579" fill="#E6F3FF" style="stroke:#000000;stroke-width:1;"/><line style="stroke:#000000;stroke-width:1;" x1="2283.85" x2="2410.4428" y1="172.5565" y2="172.5565"/><text fill="#000000" font-family="Arial" font-size="14" font-weight="bold" lengthAdjust="spacing" textLength="113.5928" x="2287.85" y="165.5897">Uses Commands</text></g><!--entity repo_truth--><g class="entity" data-entity="repo_truth" data-source-line="28" data-uid="ent0011" id="entity_repo_truth"><path d="M1786,182.9079 C1786,172.9079 1843.8516,172.9079 1843.8516,172.9079 C1843.8516,172.9079 1901.7031,172.9079 1901.7031,182.9079 L1901.7031,224.1051 C1901.7031,234.1051 1843.8516,234.1051 1843.8516,234.1051 C1843.8516,234.1051 1786,234.1051 1786,224.1051 L1786,182.9079" fill="#FFFFFF" style="stroke:#000000;stroke-width:1;"/><path d="M1786,182.9079 C1786,192.9079 1843.8516,192.9079 1843.8516,192.9079 C1843.8516,192.9079 1901.7031,192.9079 1901.7031,182.9079" fill="none" style="stroke:#000000;stroke-width:1;"/><text fill="#000000" font-family="Arial" font-size="14" lengthAdjust="spacing" textLength="63.8203" x="1796" y="210.0397">repo_truth</text><text fill="#000000" font-family="Arial" font-size="14" lengthAdjust="spacing" textLength="95.7031" x="1796" y="226.1383">./docs/maestro/</text></g><!--entity home_hub--><g class="entity" data-entity="home_hub" data-source-line="29" data-uid="ent0012" id="entity_home_hub"><path d="M1936.83,182.9079 C1936.83,172.9079 2002.8437,172.9079 2002.8437,172.9079 C2002.8437,172.9079 2068.8573,172.9079 2068.8573,182.9079 L2068.8573,224.1051 C2068.8573,234.1051 2002.8437,234.1051 2002.8437,234.1051 C2002.8437,234.1051 1936.83,234.1051 1936.83,224.1051 L1936.83,182.9079" fill="#FFFFFF" style="stroke:#000000;stroke-width:1;"/><path d="M1936.83,182.9079 C1936.83,192.9079 2002.8437,192.9079 2002.8437,192.9079 C2002.8437,192.9079 2068.8573,192.9079 2068.8573,182.9079" fill="none" style="stroke:#000000;stroke-width:1;"/><text fill="#000000" font-family="Arial" font-size="14" lengthAdjust="spacing" textLength="66.165" x="1946.83" y="210.0397">home_hub</text><text fill="#000000" font-family="Arial" font-size="14" lengthAdjust="spacing" textLength="112.0273" x="1946.83" y="226.1383">/.maestro/registry/</text></g><!--entity repo_model_file--><g class="entity" data-entity="repo_model_file" data-source-line="30" data-uid="ent0013" id="entity_repo_model_file"><path d="M1718.27,330.8279 C1718.27,320.8279 1843.852,320.8279 1843.852,320.8279 C1843.852,320.8279 1969.4341,320.8279 1969.4341,330.8279 L1969.4341,372.0251 C1969.4341,382.0251 1843.852,382.0251 1843.852,382.0251 C1843.852,382.0251 1718.27,382.0251 1718.27,372.0251 L1718.27,330.8279" fill="#FFFFFF" style="stroke:#000000;stroke-width:1;"/><path d="M1718.27,330.8279 C1718.27,340.8279 1843.852,340.8279 1843.852,340.8279 C1843.852,340.8279 1969.4341,340.8279 1969.4341,330.8279" fill="none" style="stroke:#000000;stroke-width:1;"/><text fill="#000000" font-family="Arial" font-size="14" lengthAdjust="spacing" textLength="99.6201" x="1728.27" y="357.9597">repo_model_file</text><text fill="#000000" font-family="Arial" font-size="14" lengthAdjust="spacing" textLength="231.1641" x="1728.27" y="374.0583">&lt;storage_backend&gt;/repo_model.json</text></g><!--entity repo_conf_file--><g class="entity" data-entity="repo_conf_file" data-source-line="31" data-uid="ent0014" id="entity_repo_conf_file"><path d="M2004.1,330.8279 C2004.1,320.8279 2123.8476,320.8279 2123.8476,320.8279 C2123.8476,320.8279 2243.5951,320.8279 2243.5951,330.8279 L2243.5951,372.0251 C2243.5951,382.0251 2123.8476,382.0251 2123.8476,382.0251 C2123.8476,382.0251 2004.1,382.0251 2004.1,372.0251 L2004.1,330.8279" fill="#FFFFFF" style="stroke:#000000;stroke-width:1;"/><path d="M2004.1,330.8279 C2004.1,340.8279 2123.8476,340.8279 2123.8476,340.8279 C2123.8476,340.8279 2243.5951,340.8279 2243.5951,330.8279" fill="none" style="stroke:#000000;stroke-width:1;"/><text fill="#000000" font-family="Arial" font-size="14" lengthAdjust="spacing" textLength="87.9512" x="2014.1" y="357.9597">repo_conf_file</text><text fill="#000000" font-family="Arial" font-size="14" lengthAdjust="spacing" textLength="219.4951" x="2014.1" y="374.0583">&lt;storage_backend&gt;/repo_conf.json</text></g><!--entity uses_build--><g class="entity" data-entity="uses_build" data-source-line="37" data-uid="ent0016" id="entity_uses_build"><a href="../generated/svg/CMD-build.all_layers.lod0.svg" target="_top" title="../generated/svg/CMD-build.all_layers.lod0.svg" xlink:actuate="onRequest" xlink:href="../generated/svg/CMD-build.all_layers.lod0.svg" xlink:show="new" xlink:title="../generated/svg/CMD-build.all_layers.lod0.svg" xlink:type="simple"><rect fill="#FFFFFF" height="36.0986" rx="2.5" ry="2.5" style="stroke:#000000;stroke-width:1;" width="49.5791" x="2300.06" y="185.4579"/><text fill="#000000" font-family="Arial" font-size="14" lengthAdjust="spacing" textLength="29.5791" x="2310.06" y="208.5897">build</text></a></g><!--entity uses_convert--><g class="entity" data-entity="uses_convert" data-source-line="38" data-uid="ent0017" id="entity_uses_convert"><a href="../generated/svg/CMD-convert.all_layers.lod0.svg" target="_top" title="../generated/svg/CMD-convert.all_layers.lod0.svg" xlink:actuate="onRequest" xlink:href="../generated/svg/CMD-convert.all_layers.lod0.svg" xlink:show="new" xlink:title="../generated/svg/CMD-convert.all_layers.lod0.svg" xlink:type="simple"><rect fill="#FFFFFF" height="36.0986" rx="2.5" ry="2.5" style="stroke:#000000;stroke-width:1;" width="65.9102" x="2384.89" y="185.4579"/><text fill="#000000" font-family="Arial" font-size="14" lengthAdjust="spacing" textLength="45.9102" x="2394.89" y="208.5897">convert</text></a></g><!--entity uses_issues--><g class="entity" data-entity="uses_issues" data-source-line="39" data-uid="ent0018" id="entity_uses_issues"><a href="../generated/svg/CMD-issues.all_layers.lod0.svg" target="_top" title="../generated/svg/CMD-issues.all_layers.lod0.svg" xlink:actuate="onRequest" xlink:href="../generated/svg/CMD-issues.all_layers.lod0.svg" xlink:show="new" xlink:title="../generated/svg/CMD-issues.all_layers.lod0.svg" xlink:type="simple"><rect fill="#FFFFFF" height="36.0986" rx="2.5" ry="2.5" style="stroke:#000000;stroke-width:1;" width="59.6826" x="2486.01" y="185.4579"/><text fill="#000000" font-family="Arial" font-size="14" lengthAdjust="spacing" textLength="39.6826" x="2496.01" y="208.5897">issues</text></a></g><!--entity uses_repo--><g class="entity" data-entity="uses_repo" data-source-line="40" data-uid="ent0019" id="entity_uses_repo"><a href="../generated/svg/CMD-repo.all_layers.lod0.svg" target="_top" title="../generated/svg/CMD-repo.all_layers.lod0.svg" xlink:actuate="onRequest" xlink:href="../generated/svg/CMD-repo.all_layers.lod0.svg" xlink:show="new" xlink:title="../generated/svg/CMD-repo.all_layers.lod0.svg" xlink:type="simple"><rect fill="#FFFFFF" height="36.0986" rx="2.5" ry="2.5" style="stroke:#000000;stroke-width:1;" width="48.0205" x="2300.84" y="333.3779"/><text fill="#000000" font-family="Arial" font-size="14" lengthAdjust="spacing" textLength="28.0205" x="2310.84" y="356.5097">repo</text></a></g><!--entity uses_task--><g class="entity" data-entity="uses_task" data-source-line="41" data-uid="ent0020" id="entity_uses_task"><a href="../generated/svg/CMD-task.all_layers.lod0.svg" target="_top" title="../generated/svg/CMD-task.all_layers.lod0.svg" xlink:actuate="onRequest" xlink:href="../generated/svg/CMD-task.all_layers.lod0.svg" xlink:show="new" xlink:title="../generated/svg/CMD-task.all_layers.lod0.svg" xlink:type="simple"><rect fill="#FFFFFF" height="36.0986" rx="2.5" ry="2.5" style="stroke:#000000;stroke-width:1;" width="45.6758" x="2384.01" y="333.3779"/><text fill="#000000" font-family="Arial" font-size="14" lengthAdjust="spacing" textLength="25.6758" x="2394.01" y="356.5097">task</text></a></g><!--entity uses_tu--><g class="entity" data-entity="uses_tu" data-source-line="42" data-uid="ent0021" id="entity_uses_tu"><a href="../generated/svg/CMD-tu.all_layers.lod0.svg" target="_top" title="../generated/svg/CMD-tu.all_layers.lod0.svg" xlink:actuate="onRequest" xlink:href="../generated/svg/CMD-tu.all_layers.lod0.svg" xlink:show="new" xlink:title="../generated/svg/CMD-tu.all_layers.lod0.svg" xlink:type="simple"><rect fill="#FFFFFF" height="36.0986" rx="2.5" ry="2.5" style="stroke:#000000;stroke-width:1;" width="31.6758" x="2465.01" y="333.3779"/><text fill="#000000" font-family="Arial" font-size="14" lengthAdjust="spacing" textLength="11.6758" x="2475.01" y="356.5097">tu</text></a></g><!--entity uses_work--><g class="entity" data-entity="uses_work" data-source-line="43" data-uid="ent0022" id="entity_uses_work"><a href="../generated/svg/CMD-work.all_layers.lod0.svg" target="_top" title="../generated/svg/CMD-work.all_layers.lod0.svg" xlink:actuate="onRequest" xlink:href="../generated/svg/CMD-work.all_layers.lod0.svg" xlink:show="new" xlink:title="../generated/svg/CMD-work.all_layers.lod0.svg" xlink:type="simple"><rect fill="#FFFFFF" height="36.0986" rx="2.5" ry="2.5" style="stroke:#000000;stroke-width:1;" width="49.5586" x="2300.07" y="442.0279"/><text fill="#000000" font-family="Arial" font-size="14" lengthAdjust="spacing" textLength="29.5586" x="2310.07" y="465.1597">work</text></a></g><!--entity NOTE_ANCHOR--><g class="entity" data-entity="ACTIVITY_FLOW" data-source-line="17" data-uid="ent0006" id="entity_ACTIVITY_FLOW"><path d="M2581.08,161.1379 L2581.08,245.8815 L2826.6156,245.8815 L2826.6156,171.1379 L2816.6156,161.1379 L2581.08,161.1379" fill="#FFFFCC" style="stroke:#CCCCCC;stroke-width:1;"/><path d="M2816.6156,161.1379 L2816.6156,171.1379 L2826.6156,171.1379 L2816.6156,161.1379" fill="#FFFFCC" style="stroke:#CCCCCC;stroke-width:1;"/><text fill="#000000" font-family="Arial" font-size="13" lengthAdjust="spacing" textLength="214.0303" x="2587.08" y="178.3317">(*) --&gt; "User runs Maestro command"</text><text fill="#000000" font-family="Arial" font-size="13" lengthAdjust="spacing" textLength="224.5356" x="2587.08" y="193.2804">if "Check if ./docs/maestro/ exists" then</text><text fill="#000000" font-family="Arial" font-size="13" lengthAdjust="spacing" textLength="58.1509" x="2594.3036" y="208.2292">--&gt;[yes] ...</text><text fill="#000000" font-family="Arial" font-size="13" lengthAdjust="spacing" textLength="52.3809" x="2594.3036" y="223.1779">--&gt;[no] ...</text><text fill="#000000" font-family="Arial" font-size="13" lengthAdjust="spacing" textLength="28.1899" x="2587.08" y="238.1266">endif</text></g><!--link NOTE_ANCHOR to GMN3--><!--link NOTE_ANCHOR to GMN7--><!--SRC=[fLRTZk8s5BxdAKxPYywWaZ2xqgYBgfKeX38hVaO3kwjgPXIPn0aknevi1uggNUr3zAfNVRPzaXwRX33Cq28rS17xdFFviy_dS_ATMT0LXOmJ9cfwoKH655d1d4JBLCbSn5t9fO9NVVSSUCGq8JatVIdCc212Hp723-mTfUIc27xZdWFZM1hwirGnLOL7rpt77Y-HGA-QOOPJ-DHljjv24wP6Af9Iw28LHI83txx-2NSqap1JkLd0MiD08iD1FeUBuQJNQiCqOu9UrcgvfX7H5Ef4H0kfwa0qZ2Up8EoCkuF9NMt1OlfaGY0jK2nT69394mj0ep6LkOfekz60-_jOHjhVIBLCkDneV_tQPyhV9BvZxJ5Xg33UbgmudEtv-5YZ8WRBeRPZWdGxtTdDnvlPhs5_EFc4B2uQbz1ileFw1qqLg5ne616gZP8GoTMAYBYENYo1UdT1ewLzytn7ORLpyu7-phJHTK1f2FG5YtU_fVeHFC_RJmXPZf4KIofg9y_89h25ZpkhGUUk1zFPvBRHU103ecARnsn7noke54mETfsX96okwprYYCiyHQAl-YtxWpyGEKR3tELKeGH2OoNm88wsw19TsP-4BL0huIAVFuWlUoA-eYaoKTjTPEdoVBcLZ2aF4yRfW_X9xuGPsik4MtZdLoxURrgAYaKLzXmoaYBvTqJhSGIu3wfzhdrlvO2og5wgOqIHQBmuJXVs88Fh_fj-tnsaef4X8iMBLf_dZCSE72-C3jqG9UvvVae5LSJGsDVhrE-EUardz0Zd8ITRghJ7PTpoq8hgVGAA5DTKcGgsc3W5N9ZFWMPQvrON9V9kV0fuPpq7rnvjXMf7fp2jxHn4G_IoGhIZKuZMTXPYVe2NdqJBpy6oHQb2iwDJUDPs0l5pKQiuJLuici4QYwnmPTEESONrbQyZAeXYCcoz3KlHHqLz3wkB6wvrM5v6RnN31CiE4uJ3-WgAC2Z3e2on43EIOeznk_qVwsKv5k_35Myv4UR3Q0ZQzO4z_b61BsiANlgSK-tdXd7jPTjz8ojkDxPOWxbWKa2I2_UYuIAb9YmGmfYf7u2QoBlyhxKmVnhZY-9ZrzfDW9k03SC-gO-M9nkYCD5QF-yxfwfxS1rSkwH- - -jl6D8unHOqm0wco-GEWzulmLqJcy1L6pvInPBjitMPXlVJoRWf1T_2XP3OlzGobXi16KeBox1Lo-KHtEis14BdYXwsZ-e0iRp1mZOPRPiCxWlOAkFuvOFTDJw2-h5jFoKIfbQkq0Fc6XBKjkNdHAGXmQyHHKdiA5fvQCJ0lxiT-ByPtGw3KJ2UTMOtat6umxO2VT7WabU6MZHbjC_TwOKHCcVO4R10ONXnfDtzv65g_W40]--></g></svg>