<svg xmlns="http://www.w3.org/2000/svg" xmlns:xlink="http://www.w3.org/1999/xlink" contentStyleType="text/css" data-diagram-type="DESCRIPTION" height="1072px" preserveAspectRatio="none" style="width:4543px;height:1072px;background:#FFFFFF;" version="1.1" viewBox="0 0 4543 1072" width="4543px" zoomAndPan="magnify"><title>WF-02 - New Project from Empty Directory (Manual Track/Phase/Task Planning) (LOD0: Spine)</title><defs/><g><g class="title" data-source-line="31"><text fill="#000000" font-family="Arial" font-size="22" font-weight="bold" lengthAdjust="spacing" textLength="982.8672" x="1775.9432" y="35.6357">WF-02 - New Project from Empty Directory (Manual Track/Phase/Task Planning) (LOD0: Spine)</text></g><!--cluster Data Stores--><g class="cluster" data-entity="Data Stores" data-source-line="111" data-uid="ent0029" id="cluster_Data Stores"><path d="M3244.89,461.6879 L3323.6966,461.6879 A3.75,3.75 0 0 1 3326.1966,464.1879 L3333.1966,483.7865 L3778.89,483.7865 A2.5,2.5 0 0 1 3781.39,486.2865 L3781.39,1063.1279 A2.5,2.5 0 0 1 3778.89,1065.6279 L3244.89,1065.6279 A2.5,2.5 0 0 1 3242.39,1063.1279 L3242.39,464.1879 A2.5,2.5 0 0 1 3244.89,461.6879" fill="#F0F0F0" style="stroke:#000000;stroke-width:1;"/><line style="stroke:#000000;stroke-width:1;" x1="3242.39" x2="3333.1966" y1="483.7865" y2="483.7865"/><text fill="#000000" font-family="Arial" font-size="14" font-weight="bold" lengthAdjust="spacing" textLength="77.8066" x="3246.39" y="476.8197">Data Stores</text></g><!--cluster Uses Commands--><g class="cluster" data-entity="Uses Commands" data-source-line="123" data-uid="ent0035" id="cluster_Uses Commands"><path d="M3807.89,474.2379 L3922.4828,474.2379 A3.75,3.75 0 0 1 3924.9828,476.7379 L3931.9828,496.3365 L4046.89,496.3365 A2.5,2.5 0 0 1 4049.39,498.8365 L4049.39,1050.5779 A2.5,2.5 0 0 1 4046.89,1053.0779 L3807.89,1053.0779 A2.5,2.5 0 0 1 3805.39,1050.5779 L3805.39,476.7379 A2.5,2.5 0 0 1 3807.89,474.2379" fill="#E6F3FF" style="stroke:#000000;stroke-width:1;"/><line style="stroke:#000000;stroke-width:1;" x1="3805.39" x2="3931.9828" y1="496.3365" y2="496.3365"/><text fill="#000000" font-family="Arial" font-size="14" font-weight="bold" lengthAdjust="spacing" textLength="113.5928" x="3809.39" y="489.3697">Uses Commands</text></g><!--entity repo_truth--><g class="entity" data-entity="repo_truth" data-source-line="112" data-uid="ent0030" id="entity_repo_truth"><path d="M3258.54,506.6879 C3258.54,496.6879 3316.3916,496.6879 3316.3916,496.6879 C3316.3916,496.6879 3374.2431,496.6879 3374.2431,506.6879 L3374.2431,547.8851 C3374.2431,557.8851 3316.3916,557.8851 3316.3916,557.8851 C3316.3916,557.8851 3258.54,557.8851 3258.54,547.8851 L3258.54,506.6879" fill="#FFFFFF" style="stroke:#000000;stroke-width:1;"/><path d="M3258.54,506.6879 C3258.54,516.6879 3316.3916,516.6879 3316.3916,516.6879 C3316.3916,516.6879 3374.2431,516.6879 3374.2431,506.6879" fill="none" style="stroke:#000000;stroke-width:1;"/><text fill="#000000" font-family="Arial" font-size="14" lengthAdjust="spacing" textLength="63.8203" x="3268.54" y="533.8197">repo_truth</text><text fill="#000000" font-family="Arial" font-size="14" lengthAdjust="spacing" textLength="95.7031" x="3268.54" y="549.9183">./docs/maestro/</text></g><!--entity tracks_store--><g class="entity" data-entity="tracks_store" data-source-line="113" data-uid="ent0031" id="entity_tracks_store"><path d="M3408.92,506.6879 C3408.92,496.6879 3487.3853,496.6879 3487.3853,496.6879 C3487.3853,496.6879 3565.8507,496.6879 3565.8507,506.6879 L3565.8507,547.8851 C3565.8507,557.8851 3487.3853,557.8851 3487.3853,557.8851 C3487.3853,557.8851 3408.92,557.8851 3408.92,547.8851 L3408.92,506.6879" fill="#FFFFFF" style="stroke:#000000;stroke-width:1;"/><path d="M3408.92,506.6879 C3408.92,516.6879 3487.3853,516.6879 3487.3853,516.6879 C3487.3853,516.6879 3565.8507,516.6879 3565.8507,506.6879" fill="none" style="stroke:#000000;stroke-width:1;"/><text fill="#000000" font-family="Arial" font-size="14" lengthAdjust="spacing" textLength="76.248" x="3418.92" y="533.8197">tracks_store</text><text fill="#000000" font-family="Arial" font-size="14" lengthAdjust="spacing" textLength="136.9307" x="3418.92" y="549.9183">./docs/maestro/tracks/</text></g><!--entity phases_store--><g class="entity" data-entity="phases_store" data-source-line="114" data-uid="ent0032" id="entity_phases_store"><path d="M3601.02,506.6879 C3601.02,496.6879 3683.3887,496.6879 3683.3887,496.6879 C3683.3887,496.6879 3765.7573,496.6879 3765.7573,506.6879 L3765.7573,547.8851 C3765.7573,557.8851 3683.3887,557.8851 3683.3887,557.8851 C3683.3887,557.8851 3601.02,557.8851 3601.02,547.8851 L3601.02,506.6879" fill="#FFFFFF" style="stroke:#000000;stroke-width:1;"/><path d="M3601.02,506.6879 C3601.02,516.6879 3683.3887,516.6879 3683.3887,516.6879 C3683.3887,516.6879 3765.7573,516.6879 3765.7573,506.6879" fill="none" style="stroke:#000000;stroke-width:1;"/><text fill="#000000" font-family="Arial" font-size="14" lengthAdjust="spacing" textLength="84.0547" x="3611.02" y="533.8197">phases_store</text><text fill="#000000" font-family="Arial" font-size="14" lengthAdjust="spacing" textLength="144.7373" x="3611.02" y="549.9183">./docs/maestro/phases/</text></g><!--entity tasks_store--><g class="entity" data-entity="tasks_store" data-source-line="115" data-uid="ent0033" id="entity_tasks_store"><path d="M3258.26,998.4279 C3258.26,988.4279 3334.3943,988.4279 3334.3943,988.4279 C3334.3943,988.4279 3410.5286,988.4279 3410.5286,998.4279 L3410.5286,1039.6251 C3410.5286,1049.6251 3334.3943,1049.6251 3334.3943,1049.6251 C3334.3943,1049.6251 3258.26,1049.6251 3258.26,1039.6251 L3258.26,998.4279" fill="#FFFFFF" style="stroke:#000000;stroke-width:1;"/><path d="M3258.26,998.4279 C3258.26,1008.4279 3334.3943,1008.4279 3334.3943,1008.4279 C3334.3943,1008.4279 3410.5286,1008.4279 3410.5286,998.4279" fill="none" style="stroke:#000000;stroke-width:1;"/><text fill="#000000" font-family="Arial" font-size="14" lengthAdjust="spacing" textLength="71.5859" x="3268.26" y="1025.5597">tasks_store</text><text fill="#000000" font-family="Arial" font-size="14" lengthAdjust="spacing" textLength="132.2686" x="3268.26" y="1041.6583">./docs/maestro/tasks/</text></g><!--entity index_store--><g class="entity" data-entity="index_store" data-source-line="116" data-uid="ent0034" id="entity_index_store"><path d="M3446.02,998.4279 C3446.02,988.4279 3535.3921,988.4279 3535.3921,988.4279 C3535.3921,988.4279 3624.7641,988.4279 3624.7641,998.4279 L3624.7641,1039.6251 C3624.7641,1049.6251 3535.3921,1049.6251 3535.3921,1049.6251 C3535.3921,1049.6251 3446.02,1049.6251 3446.02,1039.6251 L3446.02,998.4279" fill="#FFFFFF" style="stroke:#000000;stroke-width:1;"/><path d="M3446.02,998.4279 C3446.02,1008.4279 3535.3921,1008.4279 3535.3921,1008.4279 C3535.3921,1008.4279 3624.7641,1008.4279 3624.7641,998.4279" fill="none" style="stroke:#000000;stroke-width:1;"/><text fill="#000000" font-family="Arial" font-size="14" lengthAdjust="spacing" textLength="72.3789" x="3456.02" y="1025.5597">index_store</text><text fill="#000000" font-family="Arial" font-size="14" lengthAdjust="spacing" textLength="158.7441" x="3456.02" y="1041.6583">./docs/maestro/index.json</text></g><!--entity uses_init--><g class="entity" data-entity="uses_init" data-source-line="124" data-uid="ent0036" id="entity_uses_init"><a href="../generated/svg/CMD-init.all_layers.lod0.svg" target="_top" title="../generated/svg/CMD-init.all_layers.lod0.svg" xlink:actuate="onRequest" xlink:href="../generated/svg/CMD-init.all_layers.lod0.svg" xlink:show="new" xlink:title="../generated/svg/CMD-init.all_layers.lod0.svg" xlink:type="simple"><rect fill="#FFFFFF" height="36.0986" rx="2.5" ry="2.5" style="stroke:#000000;stroke-width:1;" width="37.8965" x="3821.44" y="509.2379"/><text fill="#000000" font-family="Arial" font-size="14" lengthAdjust="spacing" textLength="17.8965" x="3831.44" y="532.3697">init</text></a></g><!--entity uses_phase--><g class="entity" data-entity="uses_phase" data-source-line="125" data-uid="ent0037" id="entity_uses_phase"><a href="../generated/svg/CMD-phase.all_layers.lod0.svg" target="_top" title="../generated/svg/CMD-phase.all_layers.lod0.svg" xlink:actuate="onRequest" xlink:href="../generated/svg/CMD-phase.all_layers.lod0.svg" xlink:show="new" xlink:title="../generated/svg/CMD-phase.all_layers.lod0.svg" xlink:type="simple"><rect fill="#FFFFFF" height="36.0986" rx="2.5" ry="2.5" style="stroke:#000000;stroke-width:1;" width="58.1445" x="3894.32" y="509.2379"/><text fill="#000000" font-family="Arial" font-size="14" lengthAdjust="spacing" textLength="38.1445" x="3904.32" y="532.3697">phase</text></a></g><!--entity uses_task--><g class="entity" data-entity="uses_task" data-source-line="126" data-uid="ent0038" id="entity_uses_task"><a href="../generated/svg/CMD-task.all_layers.lod0.svg" target="_top" title="../generated/svg/CMD-task.all_layers.lod0.svg" xlink:actuate="onRequest" xlink:href="../generated/svg/CMD-task.all_layers.lod0.svg" xlink:show="new" xlink:title="../generated/svg/CMD-task.all_layers.lod0.svg" xlink:type="simple"><rect fill="#FFFFFF" height="36.0986" rx="2.5" ry="2.5" style="stroke:#000000;stroke-width:1;" width="45.6758" x="3987.55" y="509.2379"/><text fill="#000000" font-family="Arial" font-size="14" lengthAdjust="spacing" textLength="25.6758" x="3997.55" y="532.3697">task</text></a></g><!--entity uses_track--><g class="entity" data-entity="uses_track" data-source-line="127" data-uid="ent0039" id="entity_uses_track"><a href="../generated/svg/CMD-track.all_layers.lod0.svg" target="_top" title="../generated/svg/CMD-track.all_layers.lod0.svg" xlink:actuate="onRequest" xlink:href="../generated/svg/CMD-track.all_layers.lod0.svg" xlink:show="new" xlink:title="../generated/svg/CMD-track.all_layers.lod0.svg" xlink:type="simple"><rect fill="#FFFFFF" height="36.0986" rx="2.5" ry="2.5" style="stroke:#000000;stroke-width:1;" width="50.3379" x="3821.22" y="1000.9779"/><text fill="#000000" font-family="Arial" font-size="14" lengthAdjust="spacing" textLength="30.3379" x="3831.22" y="1024.1097">track</text></a></g><!--entity uses_work--><g class="entity" data-entity="uses_work" data-source-line="128" data-uid="ent0040" id="entity_uses_work"><a href="../generated/svg/CMD-work.all_layers.lod0.svg" target="_top" title="../generated/svg/CMD-work.all_layers.lod0.svg" xlink:actuate="onRequest" xlink:href="../generated/svg/CMD-work.all_layers.lod0.svg" xlink:show="new" xlink:title="../generated/svg/CMD-work.all_layers.lod0.svg" xlink:type="simple"><rect fill="#FFFFFF" height="36.0986" rx="2.5" ry="2.5" style="stroke:#000000;stroke-width:1;" width="49.5586" x="3906.61" y="1000.9779"/><text fill="#000000" font-family="Arial" font-size="14" lengthAdjust="spacing" textLength="29.5586" x="3916.61" y="1024.1097">work</text></a></g><!--entity NOTE_ANCHOR--><g class="entity" data-entity="N1" data-source-line="17" data-uid="ent0006" id="entity_N1"><path d="M4068.14,484.9179 L4068.14,569.6615 L4258.638,569.6615 L4258.638,494.9179 L4248.638,484.9179 L4068.14,484.9179" fill="#FFFFCC" style="stroke:#CCCCCC;stroke-width:1;"/><path d="M4248.638,484.9179 L4248.638,494.9179 L4258.638,494.9179 L4248.638,484.9179" fill="#FFFFCC" style="stroke:#CCCCCC;stroke-width:1;"/><text fill="#000000" font-family="Arial" font-size="13" font-weight="bold" lengthAdjust="spacing" textLength="142.2891" x="4074.14" y="502.1117">Combined view (LOD0)</text><text fill="#000000" font-family="Arial" font-size="13" lengthAdjust="spacing" textLength="3.6118" x="4074.14" y="517.0604">&#160;</text><text fill="#000000" font-family="Arial" font-size="13" lengthAdjust="spacing" textLength="137.998" x="4074.14" y="532.0092">This diagram combines:</text><ellipse cx="4079.64" cy="542.2128" fill="#000000" rx="2.5" ry="2.5"/><text fill="#000000" font-family="Arial" font-size="13" lengthAdjust="spacing" textLength="157.498" x="4086.14" y="546.9579">Intent layer (workflow logic)</text><ellipse cx="4079.64" cy="557.1615" fill="#000000" rx="2.5" ry="2.5"/><text fill="#000000" font-family="Arial" font-size="13" lengthAdjust="spacing" textLength="124.2871" x="4086.14" y="561.9066">Command integration</text></g><g class="entity" data-entity="ACTIVITY_FLOW" data-source-line="38" data-uid="ent0010" id="entity_ACTIVITY_FLOW"><path d="M4294.03,126.1479 L4294.03,928.4306 L4536.7536,928.4306 L4536.7536,136.1479 L4526.7536,126.1479 L4294.03,126.1479" fill="#FFFFCC" style="stroke:#CCCCCC;stroke-width:1;"/><path d="M4526.7536,126.1479 L4526.7536,136.1479 L4536.7536,136.1479 L4526.7536,126.1479" fill="#FFFFCC" style="stroke:#CCCCCC;stroke-width:1;"/><text fill="#000000" font-family="Arial" font-size="13" lengthAdjust="spacing" textLength="203.2075" x="4300.03" y="143.3417">(*) --&gt; "Operator starts new project"</text><text fill="#000000" font-family="Arial" font-size="13" lengthAdjust="spacing" textLength="131.3394" x="4300.03" y="158.2904">if "For each track" then</text><text fill="#000000" font-family="Arial" font-size="13" lengthAdjust="spacing" textLength="58.1509" x="4307.2536" y="173.2392">--&gt;[yes] ...</text><text fill="#000000" font-family="Arial" font-size="13" lengthAdjust="spacing" textLength="52.3809" x="4307.2536" y="188.1879">--&gt;[no] ...</text><text fill="#000000" font-family="Arial" font-size="13" lengthAdjust="spacing" textLength="28.1899" x="4300.03" y="203.1366">endif</text><text fill="#000000" font-family="Arial" font-size="13" lengthAdjust="spacing" textLength="214.4746" x="4300.03" y="218.0854">if "Validate track_id uniqueness" then</text><text fill="#000000" font-family="Arial" font-size="13" lengthAdjust="spacing" textLength="58.1509" x="4307.2536" y="233.0341">--&gt;[yes] ...</text><text fill="#000000" font-family="Arial" font-size="13" lengthAdjust="spacing" textLength="52.3809" x="4307.2536" y="247.9828">--&gt;[no] ...</text><text fill="#000000" font-family="Arial" font-size="13" lengthAdjust="spacing" textLength="28.1899" x="4300.03" y="262.9315">endif</text><text fill="#000000" font-family="Arial" font-size="13" lengthAdjust="spacing" textLength="138.5884" x="4300.03" y="277.8803">if "For each phase" then</text><text fill="#000000" font-family="Arial" font-size="13" lengthAdjust="spacing" textLength="58.1509" x="4307.2536" y="292.829">--&gt;[yes] ...</text><text fill="#000000" font-family="Arial" font-size="13" lengthAdjust="spacing" textLength="52.3809" x="4307.2536" y="307.7777">--&gt;[no] ...</text><text fill="#000000" font-family="Arial" font-size="13" lengthAdjust="spacing" textLength="28.1899" x="4300.03" y="322.7265">endif</text><text fill="#000000" font-family="Arial" font-size="13" lengthAdjust="spacing" textLength="221.7236" x="4300.03" y="337.6752">if "Validate phase_id uniqueness" then</text><text fill="#000000" font-family="Arial" font-size="13" lengthAdjust="spacing" textLength="58.1509" x="4307.2536" y="352.6239">--&gt;[yes] ...</text><text fill="#000000" font-family="Arial" font-size="13" lengthAdjust="spacing" textLength="52.3809" x="4307.2536" y="367.5727">--&gt;[no] ...</text><text fill="#000000" font-family="Arial" font-size="13" lengthAdjust="spacing" textLength="28.1899" x="4300.03" y="382.5214">endif</text><text fill="#000000" font-family="Arial" font-size="13" lengthAdjust="spacing" textLength="181.2065" x="4300.03" y="397.4701">if "Validate track_id exists" then</text><text fill="#000000" font-family="Arial" font-size="13" lengthAdjust="spacing" textLength="58.1509" x="4307.2536" y="412.4188">--&gt;[yes] ...</text><text fill="#000000" font-family="Arial" font-size="13" lengthAdjust="spacing" textLength="52.3809" x="4307.2536" y="427.3676">--&gt;[no] ...</text><text fill="#000000" font-family="Arial" font-size="13" lengthAdjust="spacing" textLength="28.1899" x="4300.03" y="442.3163">endif</text><text fill="#000000" font-family="Arial" font-size="13" lengthAdjust="spacing" textLength="127.0103" x="4300.03" y="457.265">if "For each task" then</text><text fill="#000000" font-family="Arial" font-size="13" lengthAdjust="spacing" textLength="58.1509" x="4307.2536" y="472.2138">--&gt;[yes] ...</text><text fill="#000000" font-family="Arial" font-size="13" lengthAdjust="spacing" textLength="52.3809" x="4307.2536" y="487.1625">--&gt;[no] ...</text><text fill="#000000" font-family="Arial" font-size="13" lengthAdjust="spacing" textLength="28.1899" x="4300.03" y="502.1112">endif</text><text fill="#000000" font-family="Arial" font-size="13" lengthAdjust="spacing" textLength="210.1455" x="4300.03" y="517.06">if "Validate task_id uniqueness" then</text><text fill="#000000" font-family="Arial" font-size="13" lengthAdjust="spacing" textLength="58.1509" x="4307.2536" y="532.0087">--&gt;[yes] ...</text><text fill="#000000" font-family="Arial" font-size="13" lengthAdjust="spacing" textLength="52.3809" x="4307.2536" y="546.9574">--&gt;[no] ...</text><text fill="#000000" font-family="Arial" font-size="13" lengthAdjust="spacing" textLength="28.1899" x="4300.03" y="561.9062">endif</text><text fill="#000000" font-family="Arial" font-size="13" lengthAdjust="spacing" textLength="188.4556" x="4300.03" y="576.8549">if "Validate phase_id exists" then</text><text fill="#000000" font-family="Arial" font-size="13" lengthAdjust="spacing" textLength="58.1509" x="4307.2536" y="591.8036">--&gt;[yes] ...</text><text fill="#000000" font-family="Arial" font-size="13" lengthAdjust="spacing" textLength="52.3809" x="4307.2536" y="606.7523">--&gt;[no] ...</text><text fill="#000000" font-family="Arial" font-size="13" lengthAdjust="spacing" textLength="28.1899" x="4300.03" y="621.7011">endif</text><text fill="#000000" font-family="Arial" font-size="13" lengthAdjust="spacing" textLength="138.582" x="4300.03" y="636.6498">if "Task available?" then</text><text fill="#000000" font-family="Arial" font-size="13" lengthAdjust="spacing" textLength="58.1509" x="4307.2536" y="651.5985">--&gt;[yes] ...</text><text fill="#000000" font-family="Arial" font-size="13" lengthAdjust="spacing" textLength="52.3809" x="4307.2536" y="666.5473">--&gt;[no] ...</text><text fill="#000000" font-family="Arial" font-size="13" lengthAdjust="spacing" textLength="28.1899" x="4300.03" y="681.496">endif</text><text fill="#000000" font-family="Arial" font-size="13" lengthAdjust="spacing" textLength="172.542" x="4300.03" y="696.4447">if "How to execute task?" then</text><text fill="#000000" font-family="Arial" font-size="13" lengthAdjust="spacing" textLength="58.1509" x="4307.2536" y="711.3935">--&gt;[yes] ...</text><text fill="#000000" font-family="Arial" font-size="13" lengthAdjust="spacing" textLength="52.3809" x="4307.2536" y="726.3422">--&gt;[no] ...</text><text fill="#000000" font-family="Arial" font-size="13" lengthAdjust="spacing" textLength="28.1899" x="4300.03" y="741.2909">endif</text><text fill="#000000" font-family="Arial" font-size="13" lengthAdjust="spacing" textLength="177.6392" x="4300.03" y="756.2396">if "Validate engine output" then</text><text fill="#000000" font-family="Arial" font-size="13" lengthAdjust="spacing" textLength="58.1509" x="4307.2536" y="771.1884">--&gt;[yes] ...</text><text fill="#000000" font-family="Arial" font-size="13" lengthAdjust="spacing" textLength="52.3809" x="4307.2536" y="786.1371">--&gt;[no] ...</text><text fill="#000000" font-family="Arial" font-size="13" lengthAdjust="spacing" textLength="28.1899" x="4300.03" y="801.0858">endif</text><text fill="#000000" font-family="Arial" font-size="13" lengthAdjust="spacing" textLength="140.0166" x="4300.03" y="816.0346">if "Task complete?" then</text><text fill="#000000" font-family="Arial" font-size="13" lengthAdjust="spacing" textLength="58.1509" x="4307.2536" y="830.9833">--&gt;[yes] ...</text><text fill="#000000" font-family="Arial" font-size="13" lengthAdjust="spacing" textLength="52.3809" x="4307.2536" y="845.932">--&gt;[no] ...</text><text fill="#000000" font-family="Arial" font-size="13" lengthAdjust="spacing" textLength="28.1899" x="4300.03" y="860.8808">endif</text><text fill="#000000" font-family="Arial" font-size="13" lengthAdjust="spacing" textLength="156.6284" x="4300.03" y="875.8295">if "More active tasks?" then</text><text fill="#000000" font-family="Arial" font-size="13" lengthAdjust="spacing" textLength="58.1509" x="4307.2536" y="890.7782">--&gt;[yes] ...</text><text fill="#000000" font-family="Arial" font-size="13" lengthAdjust="spacing" textLength="52.3809" x="4307.2536" y="905.727">--&gt;[no] ...</text><text fill="#000000" font-family="Arial" font-size="13" lengthAdjust="spacing" textLength="28.1899" x="4300.03" y="920.6757">endif</text></g><!--link NOTE_ANCHOR to GMN3--><!--link NOTE_ANCHOR to GMN7--><!--link NOTE_ANCHOR to GMN11--><!--link NOTE_ANCHOR to GMN14--><!--link NOTE_ANCHOR to GMN17--><!--link NOTE_ANCHOR to GMN20--><!--link NOTE_ANCHOR to GMN23--><!--SRC=[rLVVRzis47xNNt5r7nORiEIam1xoiCBp3oH04WU9ss9m0u6HJZ8RYjH8ogunz7_VaR8TUQs7D4w0JVQ3gRlx-DsHHtv-O-TO89I2SHcO1ovBfba1zonvoBMgP3fGGcbuE_PFmoF5Z5N2ZfMqLumG-fepqR3tjLRBTV0x_pICLyhYxqgdgDSU0__yq-D79CWhiDmAX4_ZRky4kZ1GnJsNcC85Mw4sS7Gn6VRQGL0PJ9X1Q36Pp9Lk0JDmDPcEulxLu6no4ynvYZil9Cq9ckTp2ohRiG1qEhUgqWcUTZemcwKgCT5IwOTCgAM95YSHrz4oYpoba4kBqeOhLWXuikVTNO0o1SSXg9aukiT-wcs62uxBTNwT3fdeEvrp0obdkQjQKZkQKnS6vnuTX2iB76r8W50vJzhUWu0BHhCw7WHWkP8D5c_-_tlZYkfrhTKNJ2naMXKmAagxWY7Nz4Rf5HnTCban0LDDWD7rd3PCD6Nc0Qu5avBBl5tN-nHkIwfiE_WFxfB-O7h-yNpwHpo-c7mY5aUTDdIxlq5hKY8jAbN7MAQj0KdLAEjgjCYFPz0QanLPCWVh2j02Md999d00inMQEmZ3SFj2gisOMF1iZV6H2Puouk8nOfv29VcV5T96DCz3tB8gtO8SoCfZl0Ihx_F4hzpOGtEqjDqE9KGGBvhXjcQ7PEZxY2qO5-nUuFldWPpHYMKLyS2aMcVw_i3aKERKog0gMrRsWDJej2q5skTcTgaqjMzY-Q9Eo_mqplOes7ickNEnHuy_cyxwDqEudKwkEvtFyepf56wjAkcK75Qbu4bpPxy2z6PBlHZq3MQeKIPqBsuRCbLe77YzRr-ZG7MdlKOIsvvxfIH6pMqFYxeRwCQ7Z3eK6oa59LMJvQISXimo5wwHZe2tuvxxm5yq3KMoUo-kD9OgjhgoyyyoZFn5LZ0qLgl8Awv7-qwONp4J6uVzNM1jhEERZZi8lbpx46fZZT1qtENWccuV1MTRCtXqsmddCiMlUyAzBVnYbFGG3TVWM_2Bkvpfalwt7uzhy878RuIQMuNHh-Dtux5V1ITYcCo59yEjdwfokReH2P0mZ7Aw3KW3O1gPHHuDBeTTPmkP4B7NXIOKAks5P2HfiOEuldeta7wu3zCRdm9QttKRJ3VQ1-biJqAiTSiMqWttOZhZKq2T57l4TADzaCws1_7RMg49p7ue5KSB-WCYlLZqOdmsMnn79a79D5TnxoGckHQlvLfSU9aQanQNOP72X8u1BactBevX4-9KP5MGKlHTxLFw2T2o8XtQX7K2s7wulDZykTYHddy3]--></g></svg>