<svg xmlns="http://www.w3.org/2000/svg" xmlns:xlink="http://www.w3.org/1999/xlink" contentStyleType="text/css" data-diagram-type="DESCRIPTION" height="537px" preserveAspectRatio="none" style="width:2019px;height:537px;background:#FFFFFF;" version="1.1" viewBox="0 0 2019 537" width="2019px" zoomAndPan="magnify"><title>WF-08 - Convert &#8212; cross-repo pipeline (New/Plan/Run) (LOD0: Spine)</title><defs/><g><g class="title" data-source-line="8"><text fill="#000000" font-family="Arial" font-size="22" font-weight="bold" lengthAdjust="spacing" textLength="726.0645" x="642.1628" y="35.6357">WF-08 - Convert &#8212; cross-repo pipeline (New/Plan/Run) (LOD0: Spine)</text></g><!--cluster Data Stores--><g class="cluster" data-entity="Data Stores" data-source-line="39" data-uid="ent0010" id="cluster_Data Stores"><path d="M1136.89,195.9279 L1215.6966,195.9279 A3.75,3.75 0 0 1 1218.1966,198.4279 L1225.1966,218.0265 L1508.89,218.0265 A2.5,2.5 0 0 1 1511.39,220.5265 L1511.39,528.2879 A2.5,2.5 0 0 1 1508.89,530.7879 L1136.89,530.7879 A2.5,2.5 0 0 1 1134.39,528.2879 L1134.39,198.4279 A2.5,2.5 0 0 1 1136.89,195.9279" fill="#F0F0F0" style="stroke:#000000;stroke-width:1;"/><line style="stroke:#000000;stroke-width:1;" x1="1134.39" x2="1225.1966" y1="218.0265" y2="218.0265"/><text fill="#000000" font-family="Arial" font-size="14" font-weight="bold" lengthAdjust="spacing" textLength="77.8066" x="1138.39" y="211.0597">Data Stores</text></g><!--cluster Uses Commands--><g class="cluster" data-entity="Uses Commands" data-source-line="46" data-uid="ent0014" id="cluster_Uses Commands"><path d="M1833.89,208.4779 L1948.4828,208.4779 A3.75,3.75 0 0 1 1950.9828,210.9779 L1957.9828,230.5765 L2009.89,230.5765 A2.5,2.5 0 0 1 2012.39,233.0765 L2012.39,293.0779 A2.5,2.5 0 0 1 2009.89,295.5779 L1833.89,295.5779 A2.5,2.5 0 0 1 1831.39,293.0779 L1831.39,210.9779 A2.5,2.5 0 0 1 1833.89,208.4779" fill="#E6F3FF" style="stroke:#000000;stroke-width:1;"/><line style="stroke:#000000;stroke-width:1;" x1="1831.39" x2="1957.9828" y1="230.5765" y2="230.5765"/><text fill="#000000" font-family="Arial" font-size="14" font-weight="bold" lengthAdjust="spacing" textLength="113.5928" x="1835.39" y="223.6097">Uses Commands</text></g><!--entity pipeline_metadata--><g class="entity" data-entity="pipeline_metadata" data-source-line="40" data-uid="ent0011" id="entity_pipeline_metadata"><path d="M1150.64,240.9279 C1150.64,230.9279 1233.3915,230.9279 1233.3915,230.9279 C1233.3915,230.9279 1316.1429,230.9279 1316.1429,240.9279 L1316.1429,282.1251 C1316.1429,292.1251 1233.3915,292.1251 1233.3915,292.1251 C1233.3915,292.1251 1150.64,292.1251 1150.64,282.1251 L1150.64,240.9279" fill="#FFFFFF" style="stroke:#000000;stroke-width:1;"/><path d="M1150.64,240.9279 C1150.64,250.9279 1233.3915,250.9279 1233.3915,250.9279 C1233.3915,250.9279 1316.1429,250.9279 1316.1429,240.9279" fill="none" style="stroke:#000000;stroke-width:1;"/><text fill="#000000" font-family="Arial" font-size="14" lengthAdjust="spacing" textLength="114.4199" x="1160.64" y="268.0597">pipeline_metadata</text><text fill="#000000" font-family="Arial" font-size="14" lengthAdjust="spacing" textLength="145.5029" x="1160.64" y="284.1583">./docs/maestro/convert/</text></g><!--entity target_repo_tasks--><g class="entity" data-entity="target_repo_tasks" data-source-line="41" data-uid="ent0012" id="entity_target_repo_tasks"><path d="M1351.15,240.9279 C1351.15,230.9279 1423.3912,230.9279 1423.3912,230.9279 C1423.3912,230.9279 1495.6324,230.9279 1495.6324,240.9279 L1495.6324,282.1251 C1495.6324,292.1251 1423.3912,292.1251 1423.3912,292.1251 C1423.3912,292.1251 1351.15,292.1251 1351.15,282.1251 L1351.15,240.9279" fill="#FFFFFF" style="stroke:#000000;stroke-width:1;"/><path d="M1351.15,240.9279 C1351.15,250.9279 1423.3912,250.9279 1423.3912,250.9279 C1423.3912,250.9279 1495.6324,250.9279 1495.6324,240.9279" fill="none" style="stroke:#000000;stroke-width:1;"/><text fill="#000000" font-family="Arial" font-size="14" lengthAdjust="spacing" textLength="112.0684" x="1361.15" y="268.0597">target_repo_tasks</text><text fill="#000000" font-family="Arial" font-size="14" lengthAdjust="spacing" textLength="124.4824" x="1361.15" y="284.1583">./Track/Phase/Task/</text></g><!--entity ast_export--><g class="entity" data-entity="ast_export" data-source-line="42" data-uid="ent0013" id="entity_ast_export"><path d="M1150.64,463.5879 C1150.64,453.5879 1233.3915,453.5879 1233.3915,453.5879 C1233.3915,453.5879 1316.1429,453.5879 1316.1429,463.5879 L1316.1429,504.7851 C1316.1429,514.7851 1233.3915,514.7851 1233.3915,514.7851 C1233.3915,514.7851 1150.64,514.7851 1150.64,504.7851 L1150.64,463.5879" fill="#FFFFFF" style="stroke:#000000;stroke-width:1;"/><path d="M1150.64,463.5879 C1150.64,473.5879 1233.3915,473.5879 1233.3915,473.5879 C1233.3915,473.5879 1316.1429,473.5879 1316.1429,463.5879" fill="none" style="stroke:#000000;stroke-width:1;"/><text fill="#000000" font-family="Arial" font-size="14" lengthAdjust="spacing" textLength="65.3721" x="1160.64" y="490.7197">ast_export</text><text fill="#000000" font-family="Arial" font-size="14" lengthAdjust="spacing" textLength="145.5029" x="1160.64" y="506.8183">./docs/maestro/convert/</text></g><!--entity uses_convert--><g class="entity" data-entity="uses_convert" data-source-line="47" data-uid="ent0015" id="entity_uses_convert"><a href="../generated/svg/CMD-convert.all_layers.lod0.svg" target="_top" title="../generated/svg/CMD-convert.all_layers.lod0.svg" xlink:actuate="onRequest" xlink:href="../generated/svg/CMD-convert.all_layers.lod0.svg" xlink:show="new" xlink:title="../generated/svg/CMD-convert.all_layers.lod0.svg" xlink:type="simple"><rect fill="#FFFFFF" height="36.0986" rx="2.5" ry="2.5" style="stroke:#000000;stroke-width:1;" width="65.9102" x="1847.43" y="243.4779"/><text fill="#000000" font-family="Arial" font-size="14" lengthAdjust="spacing" textLength="45.9102" x="1857.43" y="266.6097">convert</text></a></g><!--entity uses_repo--><g class="entity" data-entity="uses_repo" data-source-line="48" data-uid="ent0016" id="entity_uses_repo"><a href="../generated/svg/CMD-repo.all_layers.lod0.svg" target="_top" title="../generated/svg/CMD-repo.all_layers.lod0.svg" xlink:actuate="onRequest" xlink:href="../generated/svg/CMD-repo.all_layers.lod0.svg" xlink:show="new" xlink:title="../generated/svg/CMD-repo.all_layers.lod0.svg" xlink:type="simple"><rect fill="#FFFFFF" height="36.0986" rx="2.5" ry="2.5" style="stroke:#000000;stroke-width:1;" width="48.0205" x="1948.38" y="243.4779"/><text fill="#000000" font-family="Arial" font-size="14" lengthAdjust="spacing" textLength="28.0205" x="1958.38" y="266.6097">repo</text></a></g><!--entity NOTE_ANCHOR--><g class="entity" data-entity="ACTIVITY_FLOW" data-source-line="17" data-uid="ent0006" id="entity_ACTIVITY_FLOW"><path d="M1530.73,129.4579 L1530.73,393.5863 L1812.0474,393.5863 L1812.0474,139.4579 L1802.0474,129.4579 L1530.73,129.4579" fill="#FFFFCC" style="stroke:#CCCCCC;stroke-width:1;"/><path d="M1802.0474,129.4579 L1802.0474,139.4579 L1812.0474,139.4579 L1802.0474,129.4579" fill="#FFFFCC" style="stroke:#CCCCCC;stroke-width:1;"/><text fill="#000000" font-family="Arial" font-size="13" lengthAdjust="spacing" textLength="260.3174" x="1536.73" y="146.6517">(*) --&gt; "Operator initiates conversion pipeline"</text><text fill="#000000" font-family="Arial" font-size="13" lengthAdjust="spacing" textLength="161.7065" x="1536.73" y="161.6004">if "Validate plan JSON" then</text><text fill="#000000" font-family="Arial" font-size="13" lengthAdjust="spacing" textLength="58.1509" x="1543.9536" y="176.5492">--&gt;[yes] ...</text><text fill="#000000" font-family="Arial" font-size="13" lengthAdjust="spacing" textLength="52.3809" x="1543.9536" y="191.4979">--&gt;[no] ...</text><text fill="#000000" font-family="Arial" font-size="13" lengthAdjust="spacing" textLength="28.1899" x="1536.73" y="206.4466">endif</text><text fill="#000000" font-family="Arial" font-size="13" lengthAdjust="spacing" textLength="186.2656" x="1536.73" y="221.3954">if "Ensure AST is available" then</text><text fill="#000000" font-family="Arial" font-size="13" lengthAdjust="spacing" textLength="58.1509" x="1543.9536" y="236.3441">--&gt;[yes] ...</text><text fill="#000000" font-family="Arial" font-size="13" lengthAdjust="spacing" textLength="52.3809" x="1543.9536" y="251.2928">--&gt;[no] ...</text><text fill="#000000" font-family="Arial" font-size="13" lengthAdjust="spacing" textLength="28.1899" x="1536.73" y="266.2415">endif</text><text fill="#000000" font-family="Arial" font-size="13" lengthAdjust="spacing" textLength="226.7637" x="1536.73" y="281.1903">if "Validate plan and prerequisites" then</text><text fill="#000000" font-family="Arial" font-size="13" lengthAdjust="spacing" textLength="58.1509" x="1543.9536" y="296.139">--&gt;[yes] ...</text><text fill="#000000" font-family="Arial" font-size="13" lengthAdjust="spacing" textLength="52.3809" x="1543.9536" y="311.0877">--&gt;[no] ...</text><text fill="#000000" font-family="Arial" font-size="13" lengthAdjust="spacing" textLength="28.1899" x="1536.73" y="326.0365">endif</text><text fill="#000000" font-family="Arial" font-size="13" lengthAdjust="spacing" textLength="232.5146" x="1536.73" y="340.9852">if "Check for semantic equivalence" then</text><text fill="#000000" font-family="Arial" font-size="13" lengthAdjust="spacing" textLength="58.1509" x="1543.9536" y="355.9339">--&gt;[yes] ...</text><text fill="#000000" font-family="Arial" font-size="13" lengthAdjust="spacing" textLength="52.3809" x="1543.9536" y="370.8827">--&gt;[no] ...</text><text fill="#000000" font-family="Arial" font-size="13" lengthAdjust="spacing" textLength="28.1899" x="1536.73" y="385.8314">endif</text></g><!--link NOTE_ANCHOR to GMN3--><!--SRC=[dLJ1JXin4BtlLqp3eH0fkw585U9GAKs8e884aG2g0AqckvED5Q-zjRr9KONKZ-WNzaiwtYIG5AWApY5Qp_ZvUURDU-Scb1CK4eKAx5Ie0WtcCC9acXbTghIjfJQmrQtMMaPAOoobwshbUiW8BIDGhiLRnkZvyl1UjTQ2FUteipOfcML6krf_Ppn7WhC29vmakEescllGWBPMCp8EVl_y1OdHrZOC5HeAKP0KYc2xH_FeJAAApakr0zid_Kxp00O5ntQ2eBIKe2MeeKecsjG0BVJwmyEurMiVzS-3YKXfOqCnCp0YcpZGuuq8GBq-qAL9wA1UX-lhL2Ssccip7Kizjz7iGoHCD1z75V5GA4VAXNUOI_ZlpDlRW5GAdaEmOC9qM-tXyUNny6lSFUbVCOlj-Wuq6f-WrY_8eEFA2IMSG4SMagfOLcZrKA0Q7n5Zg5sY52adUJ4e-3Bezsh0wb0S1eztVKVs5i8mVDXGUlNDfCHuYNEeR6bO48CX20iuGo5n9EbjO9kaaDzU63BqhHHMy7lU1jgUK3A5CHV6KexAYGGyuWmbgUJLH1yQyg8ol7ARl2g57BNEEp0Ozi_gzHjrX2O5wtJXUOsCro3OkN39HAWCqjBulyUUhJM_uE70Z7NRGOSmu2xxQcnrc_u7F_WgBXkEAcclEXtdvD1ltwWmgZIN8rbdTBIumaML_9-aRu0vD1cvsCzOxD1EhGSR6gOJdKqu8nhovWBeIUe645eNq_T26_TlEezvmNtmtWkR1RvMW0lBkcxhd3kP-X8SVkpkTRjL2Gmb3bN6Pb5RGbQ8FFCsNcxmd8PXb97oeq9fP6TPr3xjD9RX4AMC9Tvn_KEfqsR8SHx23MZ_laVSodnU0FMn5n3lb_CiQVoiiHpEs8XKPIt-cs-OxKOs8OL6wBYvltfFN5dWekQhHePv2dqMfb0eOROBgsFUTygSlGKTYwjwrYk1YvBTQntQ-woxE3s1L636HhvkM7y0]--></g></svg>