<svg xmlns="http://www.w3.org/2000/svg" xmlns:xlink="http://www.w3.org/1999/xlink" contentStyleType="text/css" data-diagram-type="DESCRIPTION" height="506px" preserveAspectRatio="none" style="width:2508px;height:506px;background:#FFFFFF;" version="1.1" viewBox="0 0 2508 506" width="2508px" zoomAndPan="magnify"><title>WF-07 - AST/TU workflows &#8212; rename, C++&#8594;JS transform, autocomplete (LOD0: Spine)</title><defs/><g><g class="title" data-source-line="31"><text fill="#000000" font-family="Arial" font-size="22" font-weight="bold" lengthAdjust="spacing" textLength="910.7012" x="794.1594" y="35.6357">WF-07 - AST/TU workflows &#8212; rename, C++&#8594;JS transform, autocomplete (LOD0: Spine)</text></g><!--cluster Data Stores--><g class="cluster" data-entity="Data Stores" data-source-line="71" data-uid="ent0017" id="cluster_Data Stores"><path d="M2168.52,241.9979 L2247.3266,241.9979 A3.75,3.75 0 0 1 2249.8266,244.4979 L2256.8266,264.0965 L2327.52,264.0965 A2.5,2.5 0 0 1 2330.02,266.5965 L2330.02,351.6979 A2.5,2.5 0 0 1 2327.52,354.1979 L2168.52,354.1979 A2.5,2.5 0 0 1 2166.02,351.6979 L2166.02,244.4979 A2.5,2.5 0 0 1 2168.52,241.9979" fill="#F0F0F0" style="stroke:#000000;stroke-width:1;"/><line style="stroke:#000000;stroke-width:1;" x1="2166.02" x2="2256.8266" y1="264.0965" y2="264.0965"/><text fill="#000000" font-family="Arial" font-size="14" font-weight="bold" lengthAdjust="spacing" textLength="77.8066" x="2170.02" y="257.1297">Data Stores</text></g><!--cluster Uses Commands--><g class="cluster" data-entity="Uses Commands" data-source-line="76" data-uid="ent0019" id="cluster_Uses Commands"><path d="M2356.52,254.5479 L2471.1128,254.5479 A3.75,3.75 0 0 1 2473.6128,257.0479 L2480.6128,276.6465 L2498.52,276.6465 A2.5,2.5 0 0 1 2501.02,279.1465 L2501.02,339.1479 A2.5,2.5 0 0 1 2498.52,341.6479 L2356.52,341.6479 A2.5,2.5 0 0 1 2354.02,339.1479 L2354.02,257.0479 A2.5,2.5 0 0 1 2356.52,254.5479" fill="#E6F3FF" style="stroke:#000000;stroke-width:1;"/><line style="stroke:#000000;stroke-width:1;" x1="2354.02" x2="2480.6128" y1="276.6465" y2="276.6465"/><text fill="#000000" font-family="Arial" font-size="14" font-weight="bold" lengthAdjust="spacing" textLength="113.5928" x="2358.02" y="269.6797">Uses Commands</text></g><!--entity tu_cache--><g class="entity" data-entity="tu_cache" data-source-line="72" data-uid="ent0018" id="entity_tu_cache"><path d="M2182.39,286.9979 C2182.39,276.9979 2248.0243,276.9979 2248.0243,276.9979 C2248.0243,276.9979 2313.6586,276.9979 2313.6586,286.9979 L2313.6586,328.1951 C2313.6586,338.1951 2248.0243,338.1951 2248.0243,338.1951 C2248.0243,338.1951 2182.39,338.1951 2182.39,328.1951 L2182.39,286.9979" fill="#FFFFFF" style="stroke:#000000;stroke-width:1;"/><path d="M2182.39,286.9979 C2182.39,296.9979 2248.0243,296.9979 2248.0243,296.9979 C2248.0243,296.9979 2313.6586,296.9979 2313.6586,286.9979" fill="none" style="stroke:#000000;stroke-width:1;"/><text fill="#000000" font-family="Arial" font-size="14" lengthAdjust="spacing" textLength="56.8203" x="2192.39" y="314.1297">tu_cache</text><text fill="#000000" font-family="Arial" font-size="14" lengthAdjust="spacing" textLength="111.2686" x="2192.39" y="330.2283">./docs/maestro/tu/</text></g><!--entity uses_repo--><g class="entity" data-entity="uses_repo" data-source-line="77" data-uid="ent0020" id="entity_uses_repo"><a href="../generated/svg/CMD-repo.all_layers.lod0.svg" target="_top" title="../generated/svg/CMD-repo.all_layers.lod0.svg" xlink:actuate="onRequest" xlink:href="../generated/svg/CMD-repo.all_layers.lod0.svg" xlink:show="new" xlink:title="../generated/svg/CMD-repo.all_layers.lod0.svg" xlink:type="simple"><rect fill="#FFFFFF" height="36.0986" rx="2.5" ry="2.5" style="stroke:#000000;stroke-width:1;" width="48.0205" x="2370.01" y="289.5479"/><text fill="#000000" font-family="Arial" font-size="14" lengthAdjust="spacing" textLength="28.0205" x="2380.01" y="312.6797">repo</text></a></g><!--entity uses_tu--><g class="entity" data-entity="uses_tu" data-source-line="78" data-uid="ent0021" id="entity_uses_tu"><a href="../generated/svg/CMD-tu.all_layers.lod0.svg" target="_top" title="../generated/svg/CMD-tu.all_layers.lod0.svg" xlink:actuate="onRequest" xlink:href="../generated/svg/CMD-tu.all_layers.lod0.svg" xlink:show="new" xlink:title="../generated/svg/CMD-tu.all_layers.lod0.svg" xlink:type="simple"><rect fill="#FFFFFF" height="36.0986" rx="2.5" ry="2.5" style="stroke:#000000;stroke-width:1;" width="31.6758" x="2453.18" y="289.5479"/><text fill="#000000" font-family="Arial" font-size="14" lengthAdjust="spacing" textLength="11.6758" x="2463.18" y="312.6797">tu</text></a></g><!--entity NOTE_ANCHOR--><g class="entity" data-entity="N1" data-source-line="17" data-uid="ent0006" id="entity_N1"><path d="M1658.77,265.2279 L1658.77,349.9715 L1849.268,349.9715 L1849.268,275.2279 L1839.268,265.2279 L1658.77,265.2279" fill="#FFFFCC" style="stroke:#CCCCCC;stroke-width:1;"/><path d="M1839.268,265.2279 L1839.268,275.2279 L1849.268,275.2279 L1839.268,265.2279" fill="#FFFFCC" style="stroke:#CCCCCC;stroke-width:1;"/><text fill="#000000" font-family="Arial" font-size="13" font-weight="bold" lengthAdjust="spacing" textLength="142.2891" x="1664.77" y="282.4217">Combined view (LOD0)</text><text fill="#000000" font-family="Arial" font-size="13" lengthAdjust="spacing" textLength="3.6118" x="1664.77" y="297.3704">&#160;</text><text fill="#000000" font-family="Arial" font-size="13" lengthAdjust="spacing" textLength="137.998" x="1664.77" y="312.3192">This diagram combines:</text><ellipse cx="1670.27" cy="322.5228" fill="#000000" rx="2.5" ry="2.5"/><text fill="#000000" font-family="Arial" font-size="13" lengthAdjust="spacing" textLength="157.498" x="1676.77" y="327.2679">Intent layer (workflow logic)</text><ellipse cx="1670.27" cy="337.4715" fill="#000000" rx="2.5" ry="2.5"/><text fill="#000000" font-family="Arial" font-size="13" lengthAdjust="spacing" textLength="124.2871" x="1676.77" y="342.2166">Command integration</text></g><g class="entity" data-entity="ACTIVITY_FLOW" data-source-line="38" data-uid="ent0010" id="entity_ACTIVITY_FLOW"><path d="M1884.57,115.7379 L1884.57,499.4561 L2147.4792,499.4561 L2147.4792,125.7379 L2137.4792,115.7379 L1884.57,115.7379" fill="#FFFFCC" style="stroke:#CCCCCC;stroke-width:1;"/><path d="M2137.4792,115.7379 L2137.4792,125.7379 L2147.4792,125.7379 L2137.4792,115.7379" fill="#FFFFCC" style="stroke:#CCCCCC;stroke-width:1;"/><text fill="#000000" font-family="Arial" font-size="13" lengthAdjust="spacing" textLength="229.2139" x="1890.57" y="132.9317">(*) --&gt; "User initiates AST/TU operation"</text><text fill="#000000" font-family="Arial" font-size="13" lengthAdjust="spacing" textLength="230.3438" x="1890.57" y="147.8804">if "Verify Repo Resolve completed" then</text><text fill="#000000" font-family="Arial" font-size="13" lengthAdjust="spacing" textLength="58.1509" x="1897.7936" y="162.8292">--&gt;[yes] ...</text><text fill="#000000" font-family="Arial" font-size="13" lengthAdjust="spacing" textLength="52.3809" x="1897.7936" y="177.7779">--&gt;[no] ...</text><text fill="#000000" font-family="Arial" font-size="13" lengthAdjust="spacing" textLength="28.1899" x="1890.57" y="192.7266">endif</text><text fill="#000000" font-family="Arial" font-size="13" lengthAdjust="spacing" textLength="241.9092" x="1890.57" y="207.6754">if "Verify RepoConf has valid targets" then</text><text fill="#000000" font-family="Arial" font-size="13" lengthAdjust="spacing" textLength="58.1509" x="1897.7936" y="222.6241">--&gt;[yes] ...</text><text fill="#000000" font-family="Arial" font-size="13" lengthAdjust="spacing" textLength="52.3809" x="1897.7936" y="237.5728">--&gt;[no] ...</text><text fill="#000000" font-family="Arial" font-size="13" lengthAdjust="spacing" textLength="28.1899" x="1890.57" y="252.5215">endif</text><text fill="#000000" font-family="Arial" font-size="13" lengthAdjust="spacing" textLength="226.7319" x="1890.57" y="267.4703">if "Verify build succeeds for target" then</text><text fill="#000000" font-family="Arial" font-size="13" lengthAdjust="spacing" textLength="58.1509" x="1897.7936" y="282.419">--&gt;[yes] ...</text><text fill="#000000" font-family="Arial" font-size="13" lengthAdjust="spacing" textLength="52.3809" x="1897.7936" y="297.3677">--&gt;[no] ...</text><text fill="#000000" font-family="Arial" font-size="13" lengthAdjust="spacing" textLength="28.1899" x="1890.57" y="312.3165">endif</text><text fill="#000000" font-family="Arial" font-size="13" lengthAdjust="spacing" textLength="206.4829" x="1890.57" y="327.2652">if "Verify on correct Git branch" then</text><text fill="#000000" font-family="Arial" font-size="13" lengthAdjust="spacing" textLength="58.1509" x="1897.7936" y="342.2139">--&gt;[yes] ...</text><text fill="#000000" font-family="Arial" font-size="13" lengthAdjust="spacing" textLength="52.3809" x="1897.7936" y="357.1627">--&gt;[no] ...</text><text fill="#000000" font-family="Arial" font-size="13" lengthAdjust="spacing" textLength="28.1899" x="1890.57" y="372.1114">endif</text><text fill="#000000" font-family="Arial" font-size="13" lengthAdjust="spacing" textLength="212.2783" x="1890.57" y="387.0601">if "Which operation to perform?" then</text><text fill="#000000" font-family="Arial" font-size="13" lengthAdjust="spacing" textLength="58.1509" x="1897.7936" y="402.0088">--&gt;[yes] ...</text><text fill="#000000" font-family="Arial" font-size="13" lengthAdjust="spacing" textLength="52.3809" x="1897.7936" y="416.9576">--&gt;[no] ...</text><text fill="#000000" font-family="Arial" font-size="13" lengthAdjust="spacing" textLength="28.1899" x="1890.57" y="431.9063">endif</text><text fill="#000000" font-family="Arial" font-size="13" lengthAdjust="spacing" textLength="186.9956" x="1890.57" y="446.855">if "Verify rename operation" then</text><text fill="#000000" font-family="Arial" font-size="13" lengthAdjust="spacing" textLength="58.1509" x="1897.7936" y="461.8038">--&gt;[yes] ...</text><text fill="#000000" font-family="Arial" font-size="13" lengthAdjust="spacing" textLength="52.3809" x="1897.7936" y="476.7525">--&gt;[no] ...</text><text fill="#000000" font-family="Arial" font-size="13" lengthAdjust="spacing" textLength="28.1899" x="1890.57" y="491.7012">endif</text></g><!--link NOTE_ANCHOR to GMN3--><!--link NOTE_ANCHOR to GMN7--><!--link NOTE_ANCHOR to GMN11--><!--SRC=[rLNRRjj647tdLqoKXzYqHSeDq01-QA3ALkB2iG9BZb781h7Y3ic5bxl2xfA24GJ8Kp-Ww1VcIpgxkaHsRI29NzAL88YSuPapjyDdhi8QOIwPK96z4MhE3AjXnlARqkX6yO6Msi3pOJXR7XmBraWtrCgTCKBe6y7abhrlZ5wi7duPpfRnJ3lyNHkEPkKn2EU-nqCao2jomac4os6tzmgwCD3rJ2ZaSCfkqLZOEHqTzNQZgB6OCulGOIgljEa0it0scXnd_RF1sz5vL0cETsueYWb6b9K3NTon0CJnM3ScnyCuXkcKwzoc2srk2gaNDcr_IOL95qKQA2L2ELGkkMMrX6_slBwEK77m7A8b4q_t88JUPDWANApoYsCoqNTI2GjSiD9NBLywsaF_69m4T92-BB2p9W5IboBV3Hu4N3EAwdaGW1DQRR5uzl-VZVvuaaukODC0-FBv7p2eYDK-3FRsllprznzZS8OfMsXJxmDhdAOgpYLI1qAb3s4yfvhkHZ_XVFG7avCF9vC_i-7fw99OxCIxqEt-1fqBIoqNIZZ17Dfr6VGSbqtkaAyeeFC1ZIXkuHpdcdwibYt2EdlU0Ug_8a_mcDDRjDUG9CdcXjBhQo8cYlz23hGge2AQBPE2WsEcH6UV13jhXEHWcpn7v1QePolO9w5gHLaRWxc3DyB1p7Z5-374oqharTT2WzD0__rilNuInUNCRdNmEy4si_Fe4FiLwj49m_osVtu4uydeVHnVAPgSPTqB9cHZy4bWvyj4Mf-Mo9T5yhZ8j-PxJjlDIfBk8-OOZ9qsI7FpVDZp7_X8g9mCiw3khibobbTufP8qR5FDq3gZKzUaGVFN3j6dw8LV3bgIhGYqANQjWpx6yQ_3byDXYE47WgcIvAHZQ9m36BrKREQlQCkJ92rH-OOWJsrRfeDtHrrlIvYKMP1TcqZDUmaPQN_l8BhcAvvh7aDppIDOdrOY8B5uK8sEMtgxgQ17GUcdq_OWjJaLtmYTzLvbp3gAIwaKBAVwPXiDpBObCAavZAZ1GZ49xS5zFVNorTGaKQ6F8SKV3pLlI0_VIwRSnRlJpIkDShklNlQE5luB]--></g></svg>