<svg xmlns="http://www.w3.org/2000/svg" xmlns:xlink="http://www.w3.org/1999/xlink" contentStyleType="text/css" data-diagram-type="DESCRIPTION" height="501px" preserveAspectRatio="none" style="width:3408px;height:501px;background:#FFFFFF;" version="1.1" viewBox="0 0 3408 501" width="3408px" zoomAndPan="magnify"><title>WF-09 - Storage Contract &#8212; Repo Truth vs Home Hub (LOD0: Spine)</title><defs/><g><g class="title" data-source-line="31"><text fill="#000000" font-family="Arial" font-size="22" font-weight="bold" lengthAdjust="spacing" textLength="715.0322" x="1342.2917" y="35.6357">WF-09 - Storage Contract &#8212; Repo Truth vs Home Hub (LOD0: Spine)</text></g><!--cluster Data Stores--><g class="cluster" data-entity="Data Stores" data-source-line="48" data-uid="ent0014" id="cluster_Data Stores"><path d="M2054.35,137.9079 L2133.1566,137.9079 A3.75,3.75 0 0 1 2135.6566,140.4079 L2142.6566,160.0065 L2607.35,160.0065 A2.5,2.5 0 0 1 2609.85,162.5065 L2609.85,395.5279 A2.5,2.5 0 0 1 2607.35,398.0279 L2054.35,398.0279 A2.5,2.5 0 0 1 2051.85,395.5279 L2051.85,140.4079 A2.5,2.5 0 0 1 2054.35,137.9079" fill="#F0F0F0" style="stroke:#000000;stroke-width:1;"/><line style="stroke:#000000;stroke-width:1;" x1="2051.85" x2="2142.6566" y1="160.0065" y2="160.0065"/><text fill="#000000" font-family="Arial" font-size="14" font-weight="bold" lengthAdjust="spacing" textLength="77.8066" x="2055.85" y="153.0397">Data Stores</text></g><!--cluster Uses Commands--><g class="cluster" data-entity="Uses Commands" data-source-line="57" data-uid="ent0019" id="cluster_Uses Commands"><path d="M2636.35,150.4579 L2750.9428,150.4579 A3.75,3.75 0 0 1 2753.4428,152.9579 L2760.4428,172.5565 L2909.35,172.5565 A2.5,2.5 0 0 1 2911.85,175.0565 L2911.85,491.6279 A2.5,2.5 0 0 1 2909.35,494.1279 L2636.35,494.1279 A2.5,2.5 0 0 1 2633.85,491.6279 L2633.85,152.9579 A2.5,2.5 0 0 1 2636.35,150.4579" fill="#E6F3FF" style="stroke:#000000;stroke-width:1;"/><line style="stroke:#000000;stroke-width:1;" x1="2633.85" x2="2760.4428" y1="172.5565" y2="172.5565"/><text fill="#000000" font-family="Arial" font-size="14" font-weight="bold" lengthAdjust="spacing" textLength="113.5928" x="2637.85" y="165.5897">Uses Commands</text></g><!--entity repo_truth--><g class="entity" data-entity="repo_truth" data-source-line="49" data-uid="ent0015" id="entity_repo_truth"><path d="M2136,182.9079 C2136,172.9079 2193.8516,172.9079 2193.8516,172.9079 C2193.8516,172.9079 2251.7031,172.9079 2251.7031,182.9079 L2251.7031,224.1051 C2251.7031,234.1051 2193.8516,234.1051 2193.8516,234.1051 C2193.8516,234.1051 2136,234.1051 2136,224.1051 L2136,182.9079" fill="#FFFFFF" style="stroke:#000000;stroke-width:1;"/><path d="M2136,182.9079 C2136,192.9079 2193.8516,192.9079 2193.8516,192.9079 C2193.8516,192.9079 2251.7031,192.9079 2251.7031,182.9079" fill="none" style="stroke:#000000;stroke-width:1;"/><text fill="#000000" font-family="Arial" font-size="14" lengthAdjust="spacing" textLength="63.8203" x="2146" y="210.0397">repo_truth</text><text fill="#000000" font-family="Arial" font-size="14" lengthAdjust="spacing" textLength="95.7031" x="2146" y="226.1383">./docs/maestro/</text></g><!--entity home_hub--><g class="entity" data-entity="home_hub" data-source-line="50" data-uid="ent0016" id="entity_home_hub"><path d="M2286.83,182.9079 C2286.83,172.9079 2352.8437,172.9079 2352.8437,172.9079 C2352.8437,172.9079 2418.8573,172.9079 2418.8573,182.9079 L2418.8573,224.1051 C2418.8573,234.1051 2352.8437,234.1051 2352.8437,234.1051 C2352.8437,234.1051 2286.83,234.1051 2286.83,224.1051 L2286.83,182.9079" fill="#FFFFFF" style="stroke:#000000;stroke-width:1;"/><path d="M2286.83,182.9079 C2286.83,192.9079 2352.8437,192.9079 2352.8437,192.9079 C2352.8437,192.9079 2418.8573,192.9079 2418.8573,182.9079" fill="none" style="stroke:#000000;stroke-width:1;"/><text fill="#000000" font-family="Arial" font-size="14" lengthAdjust="spacing" textLength="66.165" x="2296.83" y="210.0397">home_hub</text><text fill="#000000" font-family="Arial" font-size="14" lengthAdjust="spacing" textLength="112.0273" x="2296.83" y="226.1383">/.maestro/registry/</text></g><!--entity repo_model_file--><g class="entity" data-entity="repo_model_file" data-source-line="51" data-uid="ent0017" id="entity_repo_model_file"><path d="M2068.27,330.8279 C2068.27,320.8279 2193.852,320.8279 2193.852,320.8279 C2193.852,320.8279 2319.4341,320.8279 2319.4341,330.8279 L2319.4341,372.0251 C2319.4341,382.0251 2193.852,382.0251 2193.852,382.0251 C2193.852,382.0251 2068.27,382.0251 2068.27,372.0251 L2068.27,330.8279" fill="#FFFFFF" style="stroke:#000000;stroke-width:1;"/><path d="M2068.27,330.8279 C2068.27,340.8279 2193.852,340.8279 2193.852,340.8279 C2193.852,340.8279 2319.4341,340.8279 2319.4341,330.8279" fill="none" style="stroke:#000000;stroke-width:1;"/><text fill="#000000" font-family="Arial" font-size="14" lengthAdjust="spacing" textLength="99.6201" x="2078.27" y="357.9597">repo_model_file</text><text fill="#000000" font-family="Arial" font-size="14" lengthAdjust="spacing" textLength="231.1641" x="2078.27" y="374.0583">&lt;storage_backend&gt;/repo_model.json</text></g><!--entity repo_conf_file--><g class="entity" data-entity="repo_conf_file" data-source-line="52" data-uid="ent0018" id="entity_repo_conf_file"><path d="M2354.1,330.8279 C2354.1,320.8279 2473.8476,320.8279 2473.8476,320.8279 C2473.8476,320.8279 2593.5951,320.8279 2593.5951,330.8279 L2593.5951,372.0251 C2593.5951,382.0251 2473.8476,382.0251 2473.8476,382.0251 C2473.8476,382.0251 2354.1,382.0251 2354.1,372.0251 L2354.1,330.8279" fill="#FFFFFF" style="stroke:#000000;stroke-width:1;"/><path d="M2354.1,330.8279 C2354.1,340.8279 2473.8476,340.8279 2473.8476,340.8279 C2473.8476,340.8279 2593.5951,340.8279 2593.5951,330.8279" fill="none" style="stroke:#000000;stroke-width:1;"/><text fill="#000000" font-family="Arial" font-size="14" lengthAdjust="spacing" textLength="87.9512" x="2364.1" y="357.9597">repo_conf_file</text><text fill="#000000" font-family="Arial" font-size="14" lengthAdjust="spacing" textLength="219.4951" x="2364.1" y="374.0583">&lt;storage_backend&gt;/repo_conf.json</text></g><!--entity uses_build--><g class="entity" data-entity="uses_build" data-source-line="58" data-uid="ent0020" id="entity_uses_build"><a href="../generated/svg/CMD-build.all_layers.lod0.svg" target="_top" title="../generated/svg/CMD-build.all_layers.lod0.svg" xlink:actuate="onRequest" xlink:href="../generated/svg/CMD-build.all_layers.lod0.svg" xlink:show="new" xlink:title="../generated/svg/CMD-build.all_layers.lod0.svg" xlink:type="simple"><rect fill="#FFFFFF" height="36.0986" rx="2.5" ry="2.5" style="stroke:#000000;stroke-width:1;" width="49.5791" x="2650.06" y="185.4579"/><text fill="#000000" font-family="Arial" font-size="14" lengthAdjust="spacing" textLength="29.5791" x="2660.06" y="208.5897">build</text></a></g><!--entity uses_convert--><g class="entity" data-entity="uses_convert" data-source-line="59" data-uid="ent0021" id="entity_uses_convert"><a href="../generated/svg/CMD-convert.all_layers.lod0.svg" target="_top" title="../generated/svg/CMD-convert.all_layers.lod0.svg" xlink:actuate="onRequest" xlink:href="../generated/svg/CMD-convert.all_layers.lod0.svg" xlink:show="new" xlink:title="../generated/svg/CMD-convert.all_layers.lod0.svg" xlink:type="simple"><rect fill="#FFFFFF" height="36.0986" rx="2.5" ry="2.5" style="stroke:#000000;stroke-width:1;" width="65.9102" x="2734.89" y="185.4579"/><text fill="#000000" font-family="Arial" font-size="14" lengthAdjust="spacing" textLength="45.9102" x="2744.89" y="208.5897">convert</text></a></g><!--entity uses_issues--><g class="entity" data-entity="uses_issues" data-source-line="60" data-uid="ent0022" id="entity_uses_issues"><a href="../generated/svg/CMD-issues.all_layers.lod0.svg" target="_top" title="../generated/svg/CMD-issues.all_layers.lod0.svg" xlink:actuate="onRequest" xlink:href="../generated/svg/CMD-issues.all_layers.lod0.svg" xlink:show="new" xlink:title="../generated/svg/CMD-issues.all_layers.lod0.svg" xlink:type="simple"><rect fill="#FFFFFF" height="36.0986" rx="2.5" ry="2.5" style="stroke:#000000;stroke-width:1;" width="59.6826" x="2836.01" y="185.4579"/><text fill="#000000" font-family="Arial" font-size="14" lengthAdjust="spacing" textLength="39.6826" x="2846.01" y="208.5897">issues</text></a></g><!--entity uses_repo--><g class="entity" data-entity="uses_repo" data-source-line="61" data-uid="ent0023" id="entity_uses_repo"><a href="../generated/svg/CMD-repo.all_layers.lod0.svg" target="_top" title="../generated/svg/CMD-repo.all_layers.lod0.svg" xlink:actuate="onRequest" xlink:href="../generated/svg/CMD-repo.all_layers.lod0.svg" xlink:show="new" xlink:title="../generated/svg/CMD-repo.all_layers.lod0.svg" xlink:type="simple"><rect fill="#FFFFFF" height="36.0986" rx="2.5" ry="2.5" style="stroke:#000000;stroke-width:1;" width="48.0205" x="2650.84" y="333.3779"/><text fill="#000000" font-family="Arial" font-size="14" lengthAdjust="spacing" textLength="28.0205" x="2660.84" y="356.5097">repo</text></a></g><!--entity uses_task--><g class="entity" data-entity="uses_task" data-source-line="62" data-uid="ent0024" id="entity_uses_task"><a href="../generated/svg/CMD-task.all_layers.lod0.svg" target="_top" title="../generated/svg/CMD-task.all_layers.lod0.svg" xlink:actuate="onRequest" xlink:href="../generated/svg/CMD-task.all_layers.lod0.svg" xlink:show="new" xlink:title="../generated/svg/CMD-task.all_layers.lod0.svg" xlink:type="simple"><rect fill="#FFFFFF" height="36.0986" rx="2.5" ry="2.5" style="stroke:#000000;stroke-width:1;" width="45.6758" x="2734.01" y="333.3779"/><text fill="#000000" font-family="Arial" font-size="14" lengthAdjust="spacing" textLength="25.6758" x="2744.01" y="356.5097">task</text></a></g><!--entity uses_tu--><g class="entity" data-entity="uses_tu" data-source-line="63" data-uid="ent0025" id="entity_uses_tu"><a href="../generated/svg/CMD-tu.all_layers.lod0.svg" target="_top" title="../generated/svg/CMD-tu.all_layers.lod0.svg" xlink:actuate="onRequest" xlink:href="../generated/svg/CMD-tu.all_layers.lod0.svg" xlink:show="new" xlink:title="../generated/svg/CMD-tu.all_layers.lod0.svg" xlink:type="simple"><rect fill="#FFFFFF" height="36.0986" rx="2.5" ry="2.5" style="stroke:#000000;stroke-width:1;" width="31.6758" x="2815.01" y="333.3779"/><text fill="#000000" font-family="Arial" font-size="14" lengthAdjust="spacing" textLength="11.6758" x="2825.01" y="356.5097">tu</text></a></g><!--entity uses_work--><g class="entity" data-entity="uses_work" data-source-line="64" data-uid="ent0026" id="entity_uses_work"><a href="../generated/svg/CMD-work.all_layers.lod0.svg" target="_top" title="../generated/svg/CMD-work.all_layers.lod0.svg" xlink:actuate="onRequest" xlink:href="../generated/svg/CMD-work.all_layers.lod0.svg" xlink:show="new" xlink:title="../generated/svg/CMD-work.all_layers.lod0.svg" xlink:type="simple"><rect fill="#FFFFFF" height="36.0986" rx="2.5" ry="2.5" style="stroke:#000000;stroke-width:1;" width="49.5586" x="2650.07" y="442.0279"/><text fill="#000000" font-family="Arial" font-size="14" lengthAdjust="spacing" textLength="29.5586" x="2660.07" y="465.1597">work</text></a></g><!--entity NOTE_ANCHOR--><g class="entity" data-entity="N1" data-source-line="17" data-uid="ent0006" id="entity_N1"><path d="M2930.6,161.1379 L2930.6,245.8815 L3121.098,245.8815 L3121.098,171.1379 L3111.098,161.1379 L2930.6,161.1379" fill="#FFFFCC" style="stroke:#CCCCCC;stroke-width:1;"/><path d="M3111.098,161.1379 L3111.098,171.1379 L3121.098,171.1379 L3111.098,161.1379" fill="#FFFFCC" style="stroke:#CCCCCC;stroke-width:1;"/><text fill="#000000" font-family="Arial" font-size="13" font-weight="bold" lengthAdjust="spacing" textLength="142.2891" x="2936.6" y="178.3317">Combined view (LOD0)</text><text fill="#000000" font-family="Arial" font-size="13" lengthAdjust="spacing" textLength="3.6118" x="2936.6" y="193.2804">&#160;</text><text fill="#000000" font-family="Arial" font-size="13" lengthAdjust="spacing" textLength="137.998" x="2936.6" y="208.2292">This diagram combines:</text><ellipse cx="2942.1" cy="218.4328" fill="#000000" rx="2.5" ry="2.5"/><text fill="#000000" font-family="Arial" font-size="13" lengthAdjust="spacing" textLength="157.498" x="2948.6" y="223.1779">Intent layer (workflow logic)</text><ellipse cx="2942.1" cy="233.3815" fill="#000000" rx="2.5" ry="2.5"/><text fill="#000000" font-family="Arial" font-size="13" lengthAdjust="spacing" textLength="124.2871" x="2948.6" y="238.1266">Command integration</text></g><g class="entity" data-entity="ACTIVITY_FLOW" data-source-line="38" data-uid="ent0010" id="entity_ACTIVITY_FLOW"><path d="M3156.08,161.1379 L3156.08,245.8815 L3401.6156,245.8815 L3401.6156,171.1379 L3391.6156,161.1379 L3156.08,161.1379" fill="#FFFFCC" style="stroke:#CCCCCC;stroke-width:1;"/><path d="M3391.6156,161.1379 L3391.6156,171.1379 L3401.6156,171.1379 L3391.6156,161.1379" fill="#FFFFCC" style="stroke:#CCCCCC;stroke-width:1;"/><text fill="#000000" font-family="Arial" font-size="13" lengthAdjust="spacing" textLength="214.0303" x="3162.08" y="178.3317">(*) --&gt; "User runs Maestro command"</text><text fill="#000000" font-family="Arial" font-size="13" lengthAdjust="spacing" textLength="224.5356" x="3162.08" y="193.2804">if "Check if ./docs/maestro/ exists" then</text><text fill="#000000" font-family="Arial" font-size="13" lengthAdjust="spacing" textLength="58.1509" x="3169.3036" y="208.2292">--&gt;[yes] ...</text><text fill="#000000" font-family="Arial" font-size="13" lengthAdjust="spacing" textLength="52.3809" x="3169.3036" y="223.1779">--&gt;[no] ...</text><text fill="#000000" font-family="Arial" font-size="13" lengthAdjust="spacing" textLength="28.1899" x="3162.08" y="238.1266">endif</text></g><!--link NOTE_ANCHOR to GMN3--><!--link NOTE_ANCHOR to GMN7--><!--link NOTE_ANCHOR to GMN11--><!--SRC=[rLPVZ-8s47_dKynn3rrGITWxQTL3rKcKXKB5dzKkTwTgTnMPn0aknevi1uggg_eX-jIdVhRx91qx2M7PfKNgIsjuY3qpF_yyCvxnAxEaQmef9qpKz8g9b2YoXWK9LucIcOXwaai5hmTk76X4D2OPDmCfp9GWGbSnmW_aNQNajZ1-wyQ1S2eD_KwgYAf2e-V6iSPB952hPfZX53uDMkrtq8AUN2-Oe16CoOug3HVZsNMxKQjbceP4KwWJ4IwbgWFHC9tD-q5tsXlERcjB5j4d2mBt1CMIfG4PFv40D9jtCbCXxJIRS7yVoL3xMwbMCPTRxM_U-4pvszXtb3mc31N6sv4rXxCr7nzhL4HWETHo9fRkfTjwVy8DezlYVCqcYl0_Np8D4IE9zLgOA-gEDOEHGmTktG8N9GdWCc5XmsaWy9hWhfO70XWcnG6BL___tBWpKf64ua65KIGqyEMtt-6MfXBcAZDBs6WOIcGup1QvNpjmbw876xN_O3PqU_FHnz7yns0mddr25XVD1hHQxw7-GME0LIOqJ0ZLHacR23QmTTHYCTHxIngkx9VdEmhhNCq7-ZFJHjS18orG5opU_OxgH_0yRxyWP3b7KYokg9tqaOr76uVprR1xUmrtyzbDi_aWXaH5DYnfJiShg1HC3awTOeHjwEhNn10NI8f4Nm_QzWU_87A4WeMxuGeZ6XWRqGTnT4HtxIlv4xCbXZvOPei7yUkUYAzeWapKBhSiLPvljvOHvK7CE7qGt-eypm9xD_08x_rAnVj9Ir6ngCoUGuPIn7-FQ3ME0FT6jS-rhsmwO5fK7vKRCKbqUU6j8_jNWxU3WNEaeg4X8i5xKrzaZ4SE7Ckd3jmKKzpp_8GAYYM2HhxU97vlSjroGezm7hWIepqkexQ7KipU9w18SKELgM2BXLF0XVWSQAPrPlEYHCxdfu1pwJcurhKLgfsTmhIoSn0DqQiAqSvE8LhPMOZP0Lvs4Yqx1yiMfGhDpaxXMTa9nCz5hU8qVh5ezZVOSeKhcwxztDzlBdqTKa4Kaq7xNL0cVLYKww2wkC561-LbzDOHpB3iC44uR2wXC8FI3FQzhcYCxhJ_Ohyqm-9zkECD9y9yc8n1kpwmnpygy6LDmKkVSQhzp32klNItxql5xSQEQJ0Ms7uXpeJxm7TCGarG80GHKry3DQ7N-AUzC7uQxOlYO_VA5y0jm9PXszD7svCjKHXehP_tdLFLlN_Llt91_VB7dp2cKO8jQ8WTJ9V17VUll-_Vjh09N7RW8rKitZtR5vykFzpDfYqf-0ukXCJ-fLQHt0f8CRMm3DjiQHp1lUb0N-XCqSFsKJdGlcUMjibessJmNC3MASU737RNw0Zgcuvz6SHChLsX1umrn9ZRbfzB8WqnFYuK9P6ZQDD3v-ykTplmFvhSZFkJ_dJUdOzcqo37jWdwei05hpIrQCfedpll1I4oPzWHi42XUU7ItdxnIMZ-0W00]--></g></svg>