<svg xmlns="http://www.w3.org/2000/svg" xmlns:xlink="http://www.w3.org/1999/xlink" contentStyleType="text/css" data-diagram-type="DESCRIPTION" height="600px" preserveAspectRatio="none" style="width:1506px;height:600px;background:#FFFFFF;" version="1.1" viewBox="0 0 1506 600" width="1506px" zoomAndPan="magnify"><title>WF-05 - Repo Resolve &#8212; packages, conventions, build targets, and derived issues/tasks (LOD0: Spine)</title><defs/><g><g class="title" data-source-line="8"><text fill="#000000" font-family="Arial" font-size="22" font-weight="bold" lengthAdjust="spacing" textLength="1077.0547" x="210.1677" y="35.6357">WF-05 - Repo Resolve &#8212; packages, conventions, build targets, and derived issues/tasks (LOD0: Spine)</text></g><!--cluster Data Stores--><g class="cluster" data-entity="Data Stores" data-source-line="44" data-uid="ent0007" id="cluster_Data Stores"><path d="M720.89,191.0279 L799.6966,191.0279 A3.75,3.75 0 0 1 802.1966,193.5279 L809.1966,213.1265 L1089.89,213.1265 A2.5,2.5 0 0 1 1092.39,215.6265 L1092.39,590.6579 A2.5,2.5 0 0 1 1089.89,593.1579 L720.89,593.1579 A2.5,2.5 0 0 1 718.39,590.6579 L718.39,193.5279 A2.5,2.5 0 0 1 720.89,191.0279" fill="#F0F0F0" style="stroke:#000000;stroke-width:1;"/><line style="stroke:#000000;stroke-width:1;" x1="718.39" x2="809.1966" y1="213.1265" y2="213.1265"/><text fill="#000000" font-family="Arial" font-size="14" font-weight="bold" lengthAdjust="spacing" textLength="77.8066" x="722.39" y="206.1597">Data Stores</text></g><!--cluster Uses Commands--><g class="cluster" data-entity="Uses Commands" data-source-line="51" data-uid="ent0011" id="cluster_Uses Commands"><path d="M1372.89,203.5779 L1487.4828,203.5779 A3.75,3.75 0 0 1 1489.9828,206.0779 L1496.9828,225.6765 L1496.89,225.6765 A2.5,2.5 0 0 1 1499.39,228.1765 L1499.39,288.1779 A2.5,2.5 0 0 1 1496.89,290.6779 L1372.89,290.6779 A2.5,2.5 0 0 1 1370.39,288.1779 L1370.39,206.0779 A2.5,2.5 0 0 1 1372.89,203.5779" fill="#E6F3FF" style="stroke:#000000;stroke-width:1;"/><line style="stroke:#000000;stroke-width:1;" x1="1370.39" x2="1496.9828" y1="225.6765" y2="225.6765"/><text fill="#000000" font-family="Arial" font-size="14" font-weight="bold" lengthAdjust="spacing" textLength="113.5928" x="1374.39" y="218.7097">Uses Commands</text></g><!--entity repo_truth--><g class="entity" data-entity="repo_truth" data-source-line="45" data-uid="ent0008" id="entity_repo_truth"><path d="M734.58,236.0279 C734.58,226.0279 808.3866,226.0279 808.3866,226.0279 C808.3866,226.0279 882.1933,226.0279 882.1933,236.0279 L882.1933,277.2251 C882.1933,287.2251 808.3866,287.2251 808.3866,287.2251 C808.3866,287.2251 734.58,287.2251 734.58,277.2251 L734.58,236.0279" fill="#FFFFFF" style="stroke:#000000;stroke-width:1;"/><path d="M734.58,236.0279 C734.58,246.0279 808.3866,246.0279 808.3866,246.0279 C808.3866,246.0279 882.1933,246.0279 882.1933,236.0279" fill="none" style="stroke:#000000;stroke-width:1;"/><text fill="#000000" font-family="Arial" font-size="14" lengthAdjust="spacing" textLength="63.8203" x="744.58" y="263.1597">repo_truth</text><text fill="#000000" font-family="Arial" font-size="14" lengthAdjust="spacing" textLength="127.6133" x="744.58" y="279.2583">./docs/maestro/repo/</text></g><!--entity issue_store--><g class="entity" data-entity="issue_store" data-source-line="46" data-uid="ent0009" id="entity_issue_store"><path d="M916.75,236.0279 C916.75,226.0279 996.3877,226.0279 996.3877,226.0279 C996.3877,226.0279 1076.0254,226.0279 1076.0254,236.0279 L1076.0254,277.2251 C1076.0254,287.2251 996.3877,287.2251 996.3877,287.2251 C996.3877,287.2251 916.75,287.2251 916.75,277.2251 L916.75,236.0279" fill="#FFFFFF" style="stroke:#000000;stroke-width:1;"/><path d="M916.75,236.0279 C916.75,246.0279 996.3877,246.0279 996.3877,246.0279 C996.3877,246.0279 1076.0254,246.0279 1076.0254,236.0279" fill="none" style="stroke:#000000;stroke-width:1;"/><text fill="#000000" font-family="Arial" font-size="14" lengthAdjust="spacing" textLength="71.5928" x="926.75" y="263.1597">issue_store</text><text fill="#000000" font-family="Arial" font-size="14" lengthAdjust="spacing" textLength="139.2754" x="926.75" y="279.2583">./docs/maestro/issues/</text></g><!--entity task_store--><g class="entity" data-entity="task_store" data-source-line="47" data-uid="ent0010" id="entity_task_store"><path d="M734.26,525.9579 C734.26,515.9579 810.3943,515.9579 810.3943,515.9579 C810.3943,515.9579 886.5286,515.9579 886.5286,525.9579 L886.5286,567.1551 C886.5286,577.1551 810.3943,577.1551 810.3943,577.1551 C810.3943,577.1551 734.26,577.1551 734.26,567.1551 L734.26,525.9579" fill="#FFFFFF" style="stroke:#000000;stroke-width:1;"/><path d="M734.26,525.9579 C734.26,535.9579 810.3943,535.9579 810.3943,535.9579 C810.3943,535.9579 886.5286,535.9579 886.5286,525.9579" fill="none" style="stroke:#000000;stroke-width:1;"/><text fill="#000000" font-family="Arial" font-size="14" lengthAdjust="spacing" textLength="64.5859" x="744.26" y="553.0897">task_store</text><text fill="#000000" font-family="Arial" font-size="14" lengthAdjust="spacing" textLength="132.2686" x="744.26" y="569.1883">./docs/maestro/tasks/</text></g><!--entity uses_repo--><g class="entity" data-entity="uses_repo" data-source-line="52" data-uid="ent0012" id="entity_uses_repo"><a href="../generated/svg/CMD-repo.all_layers.lod0.svg" target="_top" title="../generated/svg/CMD-repo.all_layers.lod0.svg" xlink:actuate="onRequest" xlink:href="../generated/svg/CMD-repo.all_layers.lod0.svg" xlink:show="new" xlink:title="../generated/svg/CMD-repo.all_layers.lod0.svg" xlink:type="simple"><rect fill="#FFFFFF" height="36.0986" rx="2.5" ry="2.5" style="stroke:#000000;stroke-width:1;" width="48.0205" x="1387.38" y="238.5779"/><text fill="#000000" font-family="Arial" font-size="14" lengthAdjust="spacing" textLength="28.0205" x="1397.38" y="261.7097">repo</text></a></g><!--entity NOTE_ANCHOR--><g class="entity" data-entity="ACTIVITY_FLOW" data-source-line="17" data-uid="ent0006" id="entity_ACTIVITY_FLOW"><path d="M1110.61,57.2979 L1110.61,455.9648 L1352.172,455.9648 L1352.172,67.2979 L1342.172,57.2979 L1110.61,57.2979" fill="#FFFFCC" style="stroke:#CCCCCC;stroke-width:1;"/><path d="M1342.172,57.2979 L1342.172,67.2979 L1352.172,67.2979 L1342.172,57.2979" fill="#FFFFCC" style="stroke:#CCCCCC;stroke-width:1;"/><text fill="#000000" font-family="Arial" font-size="13" lengthAdjust="spacing" textLength="220.562" x="1116.61" y="74.4917">(*) --&gt; "Operator initiates repo resolve"</text><text fill="#000000" font-family="Arial" font-size="13" lengthAdjust="spacing" textLength="205.8037" x="1116.61" y="89.4404">if "Branch boundary validation" then</text><text fill="#000000" font-family="Arial" font-size="13" lengthAdjust="spacing" textLength="58.1509" x="1123.8336" y="104.3892">--&gt;[yes] ...</text><text fill="#000000" font-family="Arial" font-size="13" lengthAdjust="spacing" textLength="52.3809" x="1123.8336" y="119.3379">--&gt;[no] ...</text><text fill="#000000" font-family="Arial" font-size="13" lengthAdjust="spacing" textLength="28.1899" x="1116.61" y="134.2866">endif</text><text fill="#000000" font-family="Arial" font-size="13" lengthAdjust="spacing" textLength="192.7656" x="1116.61" y="149.2354">if "Validate repository exists" then</text><text fill="#000000" font-family="Arial" font-size="13" lengthAdjust="spacing" textLength="58.1509" x="1123.8336" y="164.1841">--&gt;[yes] ...</text><text fill="#000000" font-family="Arial" font-size="13" lengthAdjust="spacing" textLength="52.3809" x="1123.8336" y="179.1328">--&gt;[no] ...</text><text fill="#000000" font-family="Arial" font-size="13" lengthAdjust="spacing" textLength="28.1899" x="1116.61" y="194.0815">endif</text><text fill="#000000" font-family="Arial" font-size="13" lengthAdjust="spacing" textLength="215.1411" x="1116.61" y="209.0303">if "Check for .maestro/ directory" then</text><text fill="#000000" font-family="Arial" font-size="13" lengthAdjust="spacing" textLength="58.1509" x="1123.8336" y="223.979">--&gt;[yes] ...</text><text fill="#000000" font-family="Arial" font-size="13" lengthAdjust="spacing" textLength="52.3809" x="1123.8336" y="238.9277">--&gt;[no] ...</text><text fill="#000000" font-family="Arial" font-size="13" lengthAdjust="spacing" textLength="28.1899" x="1116.61" y="253.8765">endif</text><text fill="#000000" font-family="Arial" font-size="13" lengthAdjust="spacing" textLength="170.3965" x="1116.61" y="268.8252">if "Convention detection" then</text><text fill="#000000" font-family="Arial" font-size="13" lengthAdjust="spacing" textLength="58.1509" x="1123.8336" y="283.7739">--&gt;[yes] ...</text><text fill="#000000" font-family="Arial" font-size="13" lengthAdjust="spacing" textLength="52.3809" x="1123.8336" y="298.7227">--&gt;[no] ...</text><text fill="#000000" font-family="Arial" font-size="13" lengthAdjust="spacing" textLength="28.1899" x="1116.61" y="313.6714">endif</text><text fill="#000000" font-family="Arial" font-size="13" lengthAdjust="spacing" textLength="154.4956" x="1116.61" y="328.6201">if "Violation detection" then</text><text fill="#000000" font-family="Arial" font-size="13" lengthAdjust="spacing" textLength="58.1509" x="1123.8336" y="343.5688">--&gt;[yes] ...</text><text fill="#000000" font-family="Arial" font-size="13" lengthAdjust="spacing" textLength="52.3809" x="1123.8336" y="358.5176">--&gt;[no] ...</text><text fill="#000000" font-family="Arial" font-size="13" lengthAdjust="spacing" textLength="28.1899" x="1116.61" y="373.4663">endif</text><text fill="#000000" font-family="Arial" font-size="13" lengthAdjust="spacing" textLength="200.7065" x="1116.61" y="388.415">if "Task creation policy check" then</text><text fill="#000000" font-family="Arial" font-size="13" lengthAdjust="spacing" textLength="58.1509" x="1123.8336" y="403.3638">--&gt;[yes] ...</text><text fill="#000000" font-family="Arial" font-size="13" lengthAdjust="spacing" textLength="52.3809" x="1123.8336" y="418.3125">--&gt;[no] ...</text><text fill="#000000" font-family="Arial" font-size="13" lengthAdjust="spacing" textLength="28.1899" x="1116.61" y="433.2612">endif</text><text fill="#000000" font-family="Arial" font-size="13" lengthAdjust="spacing" textLength="3.6118" x="1116.61" y="448.21">&#160;</text></g><!--SRC=[hLJHQjim57ttLzob3sl3OcShtKCV1cbQiqARZ3Pj6LanYdtjYCXIa6HdOHJs4Vl2VSck5AT9jWwsRWe4P9rxTC_LFVU5dMA9C1UCoy3Ck9mppKgOi7HMQ5N9hA-4qh0N-xM5o31dbR2nadR0YA6dEHDRvpsjrQ89FlHhwt2WB9uedQ5k47s_VaOybGIX0ikjGBYBEzqZwC0LpXNz6ILgXEzVly6SubY1vXMaIjOeBLUIDfEAYmmiqmLQsZAPaGZDQyo06rEXYImpCmFx5yFJxZ5Spxd4Wo2e3ARC8BIOJATAju0P60n7Pqblq7y_l0gcFCET3v9I1ysBgGMLxvm0jDlNgj8f7hVRC1vdAZNHGkbPBjJ2HFMRYEjeaKTUMSYbfTp39Ii5_37o_Zv04kPo25QPKBgz_kZyzdpqCOalXdUKnNxx03gTTz0Qpb4pIwNbablEB1hGhffwLSqMONaEhHFjjCF4FGNJIwYPu1bpPMq1zOya63Z2yHBDFOHX-FX1glMUik9vmtUxYaT_cU6Km1BmCpVMF8-lFyLq1Zdf24k6nceLGSOrfexvcPIFdKDDOedf-MAv4kn_48seEo7Lk2ARAy7J9QHE-j_pRPgaCGkqJfbbS4qLGtg5lRZhVl25iFHIRE8Tu9uhiRgoqqyoZ7nFhkljZYBlZGre9zPRB36E_vVWndu-V0kt4- -y-PjmRzjLz0OLF0GlNOzJhmSRaJU6MholofBSxsIUlOqFuzZBTEt2P24QdPwEl6yIxuZnE0oZ0gNp2sQHgOkeVtdQSMSX4o8HR8dQX49btP0EoOOFZVy4vayEWhEQ1eVqey3jwORwTMHIb4npbNIF_Br9uyHaFTEIhP6MDBCiB3COqi3XaWceNyEQn4sDgYImxnXAwH-lcLSqYJu89ktDvGKPZ1LkKfEqzM3Q7Zu_0000]--></g></svg>