<svg xmlns="http://www.w3.org/2000/svg" xmlns:xlink="http://www.w3.org/1999/xlink" contentStyleType="text/css" data-diagram-type="DESCRIPTION" height="392px" preserveAspectRatio="none" style="width:3072px;height:392px;background:#FFFFFF;" version="1.1" viewBox="0 0 3072 392" width="3072px" zoomAndPan="magnify"><title>WF-10 - Repo Resolve levels &#8212; Lite vs Deep, convention acceptance, and violation policy (LOD0: Spine)</title><defs/><g><g class="title" data-source-line="31"><text fill="#000000" font-family="Arial" font-size="22" font-weight="bold" lengthAdjust="spacing" textLength="1088.0332" x="987.5334" y="35.6357">WF-10 - Repo Resolve levels &#8212; Lite vs Deep, convention acceptance, and violation policy (LOD0: Spine)</text></g><!--cluster Data Stores--><g class="cluster" data-entity="Data Stores" data-source-line="60" data-uid="ent0014" id="cluster_Data Stores"><path d="M2501.6,187.9679 L2580.4066,187.9679 A3.75,3.75 0 0 1 2582.9066,190.4679 L2589.9066,210.0665 L2863.6,210.0665 A2.5,2.5 0 0 1 2866.1,212.5665 L2866.1,297.6579 A2.5,2.5 0 0 1 2863.6,300.1579 L2501.6,300.1579 A2.5,2.5 0 0 1 2499.1,297.6579 L2499.1,190.4679 A2.5,2.5 0 0 1 2501.6,187.9679" fill="#F0F0F0" style="stroke:#000000;stroke-width:1;"/><line style="stroke:#000000;stroke-width:1;" x1="2499.1" x2="2589.9066" y1="210.0665" y2="210.0665"/><text fill="#000000" font-family="Arial" font-size="14" font-weight="bold" lengthAdjust="spacing" textLength="77.8066" x="2503.1" y="203.0997">Data Stores</text></g><!--cluster Uses Commands--><g class="cluster" data-entity="Uses Commands" data-source-line="67" data-uid="ent0017" id="cluster_Uses Commands"><path d="M2892.6,200.5179 L3007.1928,200.5179 A3.75,3.75 0 0 1 3009.6928,203.0179 L3016.6928,222.6165 L3062.6,222.6165 A2.5,2.5 0 0 1 3065.1,225.1165 L3065.1,285.1179 A2.5,2.5 0 0 1 3062.6,287.6179 L2892.6,287.6179 A2.5,2.5 0 0 1 2890.1,285.1179 L2890.1,203.0179 A2.5,2.5 0 0 1 2892.6,200.5179" fill="#E6F3FF" style="stroke:#000000;stroke-width:1;"/><line style="stroke:#000000;stroke-width:1;" x1="2890.1" x2="3016.6928" y1="222.6165" y2="222.6165"/><text fill="#000000" font-family="Arial" font-size="14" font-weight="bold" lengthAdjust="spacing" textLength="113.5928" x="2894.1" y="215.6497">Uses Commands</text></g><!--entity repo_truth--><g class="entity" data-entity="repo_truth" data-source-line="61" data-uid="ent0015" id="entity_repo_truth"><path d="M2515.25,232.9679 C2515.25,222.9679 2573.1016,222.9679 2573.1016,222.9679 C2573.1016,222.9679 2630.9531,222.9679 2630.9531,232.9679 L2630.9531,274.1651 C2630.9531,284.1651 2573.1016,284.1651 2573.1016,284.1651 C2573.1016,284.1651 2515.25,284.1651 2515.25,274.1651 L2515.25,232.9679" fill="#FFFFFF" style="stroke:#000000;stroke-width:1;"/><path d="M2515.25,232.9679 C2515.25,242.9679 2573.1016,242.9679 2573.1016,242.9679 C2573.1016,242.9679 2630.9531,242.9679 2630.9531,232.9679" fill="none" style="stroke:#000000;stroke-width:1;"/><text fill="#000000" font-family="Arial" font-size="14" lengthAdjust="spacing" textLength="63.8203" x="2525.25" y="260.0997">repo_truth</text><text fill="#000000" font-family="Arial" font-size="14" lengthAdjust="spacing" textLength="95.7031" x="2525.25" y="276.1983">./docs/maestro/</text></g><!--entity issue_tracker--><g class="entity" data-entity="issue_tracker" data-source-line="62" data-uid="ent0016" id="entity_issue_tracker"><path d="M2665.62,232.9679 C2665.62,222.9679 2758.099,222.9679 2758.099,222.9679 C2758.099,222.9679 2850.578,222.9679 2850.578,232.9679 L2850.578,274.1651 C2850.578,284.1651 2758.099,284.1651 2758.099,284.1651 C2758.099,284.1651 2665.62,284.1651 2665.62,274.1651 L2665.62,232.9679" fill="#FFFFFF" style="stroke:#000000;stroke-width:1;"/><path d="M2665.62,232.9679 C2665.62,242.9679 2758.099,242.9679 2758.099,242.9679 C2758.099,242.9679 2850.578,242.9679 2850.578,232.9679" fill="none" style="stroke:#000000;stroke-width:1;"/><text fill="#000000" font-family="Arial" font-size="14" lengthAdjust="spacing" textLength="83.2549" x="2675.62" y="260.0997">issue_tracker</text><text fill="#000000" font-family="Arial" font-size="14" lengthAdjust="spacing" textLength="164.958" x="2675.62" y="276.1983">./docs/maestro/issues.json</text></g><!--entity uses_issues--><g class="entity" data-entity="uses_issues" data-source-line="68" data-uid="ent0018" id="entity_uses_issues"><a href="../generated/svg/CMD-issues.all_layers.lod0.svg" target="_top" title="../generated/svg/CMD-issues.all_layers.lod0.svg" xlink:actuate="onRequest" xlink:href="../generated/svg/CMD-issues.all_layers.lod0.svg" xlink:show="new" xlink:title="../generated/svg/CMD-issues.all_layers.lod0.svg" xlink:type="simple"><rect fill="#FFFFFF" height="36.0986" rx="2.5" ry="2.5" style="stroke:#000000;stroke-width:1;" width="59.6826" x="2906.26" y="235.5179"/><text fill="#000000" font-family="Arial" font-size="14" lengthAdjust="spacing" textLength="39.6826" x="2916.26" y="258.6497">issues</text></a></g><!--entity uses_repo--><g class="entity" data-entity="uses_repo" data-source-line="69" data-uid="ent0019" id="entity_uses_repo"><a href="../generated/svg/CMD-repo.all_layers.lod0.svg" target="_top" title="../generated/svg/CMD-repo.all_layers.lod0.svg" xlink:actuate="onRequest" xlink:href="../generated/svg/CMD-repo.all_layers.lod0.svg" xlink:show="new" xlink:title="../generated/svg/CMD-repo.all_layers.lod0.svg" xlink:type="simple"><rect fill="#FFFFFF" height="36.0986" rx="2.5" ry="2.5" style="stroke:#000000;stroke-width:1;" width="48.0205" x="3001.09" y="235.5179"/><text fill="#000000" font-family="Arial" font-size="14" lengthAdjust="spacing" textLength="28.0205" x="3011.09" y="258.6497">repo</text></a></g><!--entity NOTE_ANCHOR--><g class="entity" data-entity="N1" data-source-line="17" data-uid="ent0006" id="entity_N1"><path d="M2006.85,211.1879 L2006.85,295.9315 L2197.348,295.9315 L2197.348,221.1879 L2187.348,211.1879 L2006.85,211.1879" fill="#FFFFCC" style="stroke:#CCCCCC;stroke-width:1;"/><path d="M2187.348,211.1879 L2187.348,221.1879 L2197.348,221.1879 L2187.348,211.1879" fill="#FFFFCC" style="stroke:#CCCCCC;stroke-width:1;"/><text fill="#000000" font-family="Arial" font-size="13" font-weight="bold" lengthAdjust="spacing" textLength="142.2891" x="2012.85" y="228.3817">Combined view (LOD0)</text><text fill="#000000" font-family="Arial" font-size="13" lengthAdjust="spacing" textLength="3.6118" x="2012.85" y="243.3304">&#160;</text><text fill="#000000" font-family="Arial" font-size="13" lengthAdjust="spacing" textLength="137.998" x="2012.85" y="258.2792">This diagram combines:</text><ellipse cx="2018.35" cy="268.4828" fill="#000000" rx="2.5" ry="2.5"/><text fill="#000000" font-family="Arial" font-size="13" lengthAdjust="spacing" textLength="157.498" x="2024.85" y="273.2279">Intent layer (workflow logic)</text><ellipse cx="2018.35" cy="283.4315" fill="#000000" rx="2.5" ry="2.5"/><text fill="#000000" font-family="Arial" font-size="13" lengthAdjust="spacing" textLength="124.2871" x="2024.85" y="288.1766">Command integration</text></g><g class="entity" data-entity="ACTIVITY_FLOW" data-source-line="38" data-uid="ent0010" id="entity_ACTIVITY_FLOW"><path d="M2232.43,121.4979 L2232.43,385.6263 L2479.7747,385.6263 L2479.7747,131.4979 L2469.7747,121.4979 L2232.43,121.4979" fill="#FFFFCC" style="stroke:#CCCCCC;stroke-width:1;"/><path d="M2469.7747,121.4979 L2469.7747,131.4979 L2479.7747,131.4979 L2469.7747,121.4979" fill="#FFFFCC" style="stroke:#CCCCCC;stroke-width:1;"/><text fill="#000000" font-family="Arial" font-size="13" lengthAdjust="spacing" textLength="226.3447" x="2238.43" y="138.6917">(*) --&gt; "Operator requests repo resolve"</text><text fill="#000000" font-family="Arial" font-size="13" lengthAdjust="spacing" textLength="221.6729" x="2238.43" y="153.6404">if "Select resolve level (lite/deep)" then</text><text fill="#000000" font-family="Arial" font-size="13" lengthAdjust="spacing" textLength="58.1509" x="2245.6536" y="168.5892">--&gt;[yes] ...</text><text fill="#000000" font-family="Arial" font-size="13" lengthAdjust="spacing" textLength="52.3809" x="2245.6536" y="183.5379">--&gt;[no] ...</text><text fill="#000000" font-family="Arial" font-size="13" lengthAdjust="spacing" textLength="28.1899" x="2238.43" y="198.4866">endif</text><text fill="#000000" font-family="Arial" font-size="13" lengthAdjust="spacing" textLength="226.0273" x="2238.43" y="213.4354">if "Propose convention rule packs" then</text><text fill="#000000" font-family="Arial" font-size="13" lengthAdjust="spacing" textLength="58.1509" x="2245.6536" y="228.3841">--&gt;[yes] ...</text><text fill="#000000" font-family="Arial" font-size="13" lengthAdjust="spacing" textLength="52.3809" x="2245.6536" y="243.3328">--&gt;[no] ...</text><text fill="#000000" font-family="Arial" font-size="13" lengthAdjust="spacing" textLength="28.1899" x="2238.43" y="258.2815">endif</text><text fill="#000000" font-family="Arial" font-size="13" lengthAdjust="spacing" textLength="213.04" x="2238.43" y="273.2303">if "Convention acceptance gate" then</text><text fill="#000000" font-family="Arial" font-size="13" lengthAdjust="spacing" textLength="58.1509" x="2245.6536" y="288.179">--&gt;[yes] ...</text><text fill="#000000" font-family="Arial" font-size="13" lengthAdjust="spacing" textLength="52.3809" x="2245.6536" y="303.1277">--&gt;[no] ...</text><text fill="#000000" font-family="Arial" font-size="13" lengthAdjust="spacing" textLength="28.1899" x="2238.43" y="318.0765">endif</text><text fill="#000000" font-family="Arial" font-size="13" lengthAdjust="spacing" textLength="187.7192" x="2238.43" y="333.0252">if "Policy enforcement gate" then</text><text fill="#000000" font-family="Arial" font-size="13" lengthAdjust="spacing" textLength="58.1509" x="2245.6536" y="347.9739">--&gt;[yes] ...</text><text fill="#000000" font-family="Arial" font-size="13" lengthAdjust="spacing" textLength="52.3809" x="2245.6536" y="362.9227">--&gt;[no] ...</text><text fill="#000000" font-family="Arial" font-size="13" lengthAdjust="spacing" textLength="28.1899" x="2238.43" y="377.8714">endif</text></g><!--link NOTE_ANCHOR to GMN3--><!--link NOTE_ANCHOR to GMN7--><!--link NOTE_ANCHOR to GMN11--><!--SRC=[rLNRRjj647tdLqpK1rj2H4eDu0Ut2A3gKWkG9SDI6XIAGQp94RNrQfVPNL8mYW3vY3prgT-MB-diaherDj3wgQK5GzgPdSkPCuUlx1et2BbWN0RcWSkSQRQ1UvOyP5eLCkqheJHyD_BFaKUAArO8ErBIJXb5w6dEn96zfxNQrfVV-EV8E5KMVr8wHLrxzFtpTu-dYY2lm78h4DwFsjqEjA6lDlTSOWeJzeZQmFbaDkWqWw0mc323q60oMIlT06PWEbiCuzwqVpMx3TOynPC3IJb1ysnjGQrEB02jrbmLEi7BLWkMorGb9jeg_R0IQckYylk8wsYxYdn98PSMfGqVsKR0F_QykmjGfk1g2AfANBbTdthVOSbnM_VNQf69FeirDv1obZdKaihHNBfhCFRHGJXOu7nN10YLyQJfFIZmXb5MLmS5i5p9eofU_V-vSOkvedz6YH91O8d2mDVFNs322U3Im00nVqsmoPAGekw19GdcbXY3hy4XKt8bF2wGAy6JnmhzIvZdX7Cp-0zofjTVZ7yPBtwDHvFPUwhYlDM4TlijD6OvqeW9AuqV2pJMq1T2HrVeDCYLhw0nHu69tPrMcC6v8BoYbC1gDe1O8SaPNDJb8vex2CDmVo3LxZULnbTrr1kjSaMxU8IqBcXEEOtHl2na_wcXGSOilh34QhueLufcjd6Ryv9W-u4yomp7rGuzdY5NlTi1p1UpcrRhWxnYEeMvLRahI2guBxX88TMyf0LEqT9WC3qQkKEFPQHm0sQPkqXJQr3uZlk3tob1IePxBu9krh7LXLr_a67aARPXn0Aj8g-C1_l9DMvCWNHEcL1_SzDRJVYRKT87EV4EFWLdZdX4mCENGytl39gT0BcgXnUZDwEHhrfJeqncOfVV-E2avoQkVjCwXM6KeNICnZGoPHRrhmVjkXucHEnLpuH2fPsGpBGg9t5TkuUeVX6UYUbipqJyL6-TmDMJwpyiwHKZlG1ukLqkosva4fHCSnLtEpvlNAzQNCbJx5OjTgiMRbAO4O6uP0BABkm5d4PGE7vwNVAD_UlGUK4wSoEOjE-k9_lN1p6_KivlXUKv8WylXXU-rwz__0aJJ3DYwXL9bDdrN2dnfjfK0sUr4gINK9EeKg63C9XwdU57HvMtP-wbvZdo0_1DBggtdfyLVSRNDvFXzN2ww2t6isay6Gv-7juwu9uqUAnsLrrQRKqaVD5nGYauyPxeGzVhJlhxmnD4_W80]--></g></svg>