<svg xmlns="http://www.w3.org/2000/svg" xmlns:xlink="http://www.w3.org/1999/xlink" contentStyleType="text/css" data-diagram-type="DESCRIPTION" height="599px" preserveAspectRatio="none" style="width:3437px;height:599px;background:#FFFFFF;" version="1.1" viewBox="0 0 3437 599" width="3437px" zoomAndPan="magnify"><title>WF-16 - wsession modes &#8212; log-only vs mutation API (opt-in) (LOD0: Spine)</title><defs/><g><g class="title" data-source-line="8"><text fill="#000000" font-family="Arial" font-size="22" font-weight="bold" lengthAdjust="spacing" textLength="788.3584" x="1319.8658" y="35.6357">WF-16 - wsession modes &#8212; log-only vs mutation API (opt-in) (LOD0: Spine)</text></g><!--cluster Data Stores--><g class="cluster" data-entity="Data Stores" data-source-line="55" data-uid="ent0022" id="cluster_Data Stores"><path d="M2512.59,227.4879 L2591.3966,227.4879 A3.75,3.75 0 0 1 2593.8966,229.9879 L2600.8966,249.5865 L2878.59,249.5865 A2.5,2.5 0 0 1 2881.09,252.0865 L2881.09,589.7479 A2.5,2.5 0 0 1 2878.59,592.2479 L2512.59,592.2479 A2.5,2.5 0 0 1 2510.09,589.7479 L2510.09,229.9879 A2.5,2.5 0 0 1 2512.59,227.4879" fill="#F0F0F0" style="stroke:#000000;stroke-width:1;"/><line style="stroke:#000000;stroke-width:1;" x1="2510.09" x2="2600.8966" y1="249.5865" y2="249.5865"/><text fill="#000000" font-family="Arial" font-size="14" font-weight="bold" lengthAdjust="spacing" textLength="77.8066" x="2514.09" y="242.6197">Data Stores</text></g><!--cluster Uses Commands--><g class="cluster" data-entity="Uses Commands" data-source-line="63" data-uid="ent0026" id="cluster_Uses Commands"><path d="M3213.59,240.0379 L3328.1828,240.0379 A3.75,3.75 0 0 1 3330.6828,242.5379 L3337.6828,262.1365 L3427.59,262.1365 A2.5,2.5 0 0 1 3430.09,264.6365 L3430.09,324.6379 A2.5,2.5 0 0 1 3427.59,327.1379 L3213.59,327.1379 A2.5,2.5 0 0 1 3211.09,324.6379 L3211.09,242.5379 A2.5,2.5 0 0 1 3213.59,240.0379" fill="#E6F3FF" style="stroke:#000000;stroke-width:1;"/><line style="stroke:#000000;stroke-width:1;" x1="3211.09" x2="3337.6828" y1="262.1365" y2="262.1365"/><text fill="#000000" font-family="Arial" font-size="14" font-weight="bold" lengthAdjust="spacing" textLength="113.5928" x="3215.09" y="255.1697">Uses Commands</text></g><!--entity repo_truth--><g class="entity" data-entity="repo_truth" data-source-line="56" data-uid="ent0023" id="entity_repo_truth"><path d="M2526.23,272.4879 C2526.23,262.4879 2584.0816,262.4879 2584.0816,262.4879 C2584.0816,262.4879 2641.9331,262.4879 2641.9331,272.4879 L2641.9331,313.6851 C2641.9331,323.6851 2584.0816,323.6851 2584.0816,323.6851 C2584.0816,323.6851 2526.23,323.6851 2526.23,313.6851 L2526.23,272.4879" fill="#FFFFFF" style="stroke:#000000;stroke-width:1;"/><path d="M2526.23,272.4879 C2526.23,282.4879 2584.0816,282.4879 2584.0816,282.4879 C2584.0816,282.4879 2641.9331,282.4879 2641.9331,272.4879" fill="none" style="stroke:#000000;stroke-width:1;"/><text fill="#000000" font-family="Arial" font-size="14" lengthAdjust="spacing" textLength="63.8203" x="2536.23" y="299.6197">repo_truth</text><text fill="#000000" font-family="Arial" font-size="14" lengthAdjust="spacing" textLength="95.7031" x="2536.23" y="315.7183">./docs/maestro/</text></g><!--entity wsession_cookie--><g class="entity" data-entity="wsession_cookie" data-source-line="57" data-uid="ent0024" id="entity_wsession_cookie"><path d="M2677.05,272.4879 C2677.05,262.4879 2771.0876,262.4879 2771.0876,262.4879 C2771.0876,262.4879 2865.1252,262.4879 2865.1252,272.4879 L2865.1252,313.6851 C2865.1252,323.6851 2771.0876,323.6851 2771.0876,323.6851 C2771.0876,323.6851 2677.05,323.6851 2677.05,313.6851 L2677.05,272.4879" fill="#FFFFFF" style="stroke:#000000;stroke-width:1;"/><path d="M2677.05,272.4879 C2677.05,282.4879 2771.0876,282.4879 2771.0876,282.4879 C2771.0876,282.4879 2865.1252,282.4879 2865.1252,272.4879" fill="none" style="stroke:#000000;stroke-width:1;"/><text fill="#000000" font-family="Arial" font-size="14" lengthAdjust="spacing" textLength="105.834" x="2687.05" y="299.6197">wsession_cookie</text><text fill="#000000" font-family="Arial" font-size="14" lengthAdjust="spacing" textLength="168.0752" x="2687.05" y="315.7183">/.maestro/wsession_cookie</text></g><!--entity work_session_store--><g class="entity" data-entity="work_session_store" data-source-line="58" data-uid="ent0025" id="entity_work_session_store"><path d="M2526.38,525.0479 C2526.38,515.0479 2632.0831,515.0479 2632.0831,515.0479 C2632.0831,515.0479 2737.7863,515.0479 2737.7863,525.0479 L2737.7863,566.2451 C2737.7863,576.2451 2632.0831,576.2451 2632.0831,576.2451 C2632.0831,576.2451 2526.38,576.2451 2526.38,566.2451 L2526.38,525.0479" fill="#FFFFFF" style="stroke:#000000;stroke-width:1;"/><path d="M2526.38,525.0479 C2526.38,535.0479 2632.0831,535.0479 2632.0831,535.0479 C2632.0831,535.0479 2737.7863,535.0479 2737.7863,525.0479" fill="none" style="stroke:#000000;stroke-width:1;"/><text fill="#000000" font-family="Arial" font-size="14" lengthAdjust="spacing" textLength="123.7236" x="2536.38" y="552.1797">work_session_store</text><text fill="#000000" font-family="Arial" font-size="14" lengthAdjust="spacing" textLength="191.4063" x="2536.38" y="568.2783">./docs/maestro/work_sessions/</text></g><!--entity uses_work_run--><g class="entity" data-entity="uses_work_run" data-source-line="64" data-uid="ent0027" id="entity_uses_work_run"><a href="../generated/svg/CMD-work-run.all_layers.lod0.svg" target="_top" title="../generated/svg/CMD-work-run.all_layers.lod0.svg" xlink:actuate="onRequest" xlink:href="../generated/svg/CMD-work-run.all_layers.lod0.svg" xlink:show="new" xlink:title="../generated/svg/CMD-work-run.all_layers.lod0.svg" xlink:type="simple"><rect fill="#FFFFFF" height="36.0986" rx="2.5" ry="2.5" style="stroke:#000000;stroke-width:1;" width="74.4551" x="3226.86" y="275.0379"/><text fill="#000000" font-family="Arial" font-size="14" lengthAdjust="spacing" textLength="54.4551" x="3236.86" y="298.1697">work-run</text></a></g><!--entity uses_wsession--><g class="entity" data-entity="uses_wsession" data-source-line="65" data-uid="ent0028" id="entity_uses_wsession"><a href="../generated/svg/CMD-wsession.all_layers.lod0.svg" target="_top" title="../generated/svg/CMD-wsession.all_layers.lod0.svg" xlink:actuate="onRequest" xlink:href="../generated/svg/CMD-wsession.all_layers.lod0.svg" xlink:show="new" xlink:title="../generated/svg/CMD-wsession.all_layers.lod0.svg" xlink:type="simple"><rect fill="#FFFFFF" height="36.0986" rx="2.5" ry="2.5" style="stroke:#000000;stroke-width:1;" width="77.5791" x="3336.3" y="275.0379"/><text fill="#000000" font-family="Arial" font-size="14" lengthAdjust="spacing" textLength="57.5791" x="3346.3" y="298.1697">wsession</text></a></g><!--entity NOTE_ANCHOR--><g class="entity" data-entity="ACTIVITY_FLOW" data-source-line="17" data-uid="ent0006" id="entity_ACTIVITY_FLOW"><path d="M2900.03,131.1279 L2900.03,455.0512 L3192.1384,455.0512 L3192.1384,141.1279 L3182.1384,131.1279 L2900.03,131.1279" fill="#FFFFCC" style="stroke:#CCCCCC;stroke-width:1;"/><path d="M3182.1384,131.1279 L3182.1384,141.1279 L3192.1384,141.1279 L3182.1384,131.1279" fill="#FFFFCC" style="stroke:#CCCCCC;stroke-width:1;"/><text fill="#000000" font-family="Arial" font-size="13" lengthAdjust="spacing" textLength="271.1084" x="2906.03" y="148.3217">(*) --&gt; "User runs maestro wsession command"</text><text fill="#000000" font-family="Arial" font-size="13" lengthAdjust="spacing" textLength="244.772" x="2906.03" y="163.2704">if "Validate wsession cookie (WF-15)" then</text><text fill="#000000" font-family="Arial" font-size="13" lengthAdjust="spacing" textLength="58.1509" x="2913.2536" y="178.2192">--&gt;[yes] ...</text><text fill="#000000" font-family="Arial" font-size="13" lengthAdjust="spacing" textLength="52.3809" x="2913.2536" y="193.1679">--&gt;[no] ...</text><text fill="#000000" font-family="Arial" font-size="13" lengthAdjust="spacing" textLength="28.1899" x="2906.03" y="208.1166">endif</text><text fill="#000000" font-family="Arial" font-size="13" lengthAdjust="spacing" textLength="205.0801" x="2906.03" y="223.0654">if "Is mutation mode enabled?" then</text><text fill="#000000" font-family="Arial" font-size="13" lengthAdjust="spacing" textLength="58.1509" x="2913.2536" y="238.0141">--&gt;[yes] ...</text><text fill="#000000" font-family="Arial" font-size="13" lengthAdjust="spacing" textLength="52.3809" x="2913.2536" y="252.9628">--&gt;[no] ...</text><text fill="#000000" font-family="Arial" font-size="13" lengthAdjust="spacing" textLength="28.1899" x="2906.03" y="267.9115">endif</text><text fill="#000000" font-family="Arial" font-size="13" lengthAdjust="spacing" textLength="215.1475" x="2906.03" y="282.8603">if "Branch guard check (WF-14)" then</text><text fill="#000000" font-family="Arial" font-size="13" lengthAdjust="spacing" textLength="58.1509" x="2913.2536" y="297.809">--&gt;[yes] ...</text><text fill="#000000" font-family="Arial" font-size="13" lengthAdjust="spacing" textLength="52.3809" x="2913.2536" y="312.7577">--&gt;[no] ...</text><text fill="#000000" font-family="Arial" font-size="13" lengthAdjust="spacing" textLength="28.1899" x="2906.03" y="327.7065">endif</text><text fill="#000000" font-family="Arial" font-size="13" lengthAdjust="spacing" textLength="202.1855" x="2906.03" y="342.6552">if "Validate operation schema" then</text><text fill="#000000" font-family="Arial" font-size="13" lengthAdjust="spacing" textLength="58.1509" x="2913.2536" y="357.6039">--&gt;[yes] ...</text><text fill="#000000" font-family="Arial" font-size="13" lengthAdjust="spacing" textLength="52.3809" x="2913.2536" y="372.5527">--&gt;[no] ...</text><text fill="#000000" font-family="Arial" font-size="13" lengthAdjust="spacing" textLength="28.1899" x="2906.03" y="387.5014">endif</text><text fill="#000000" font-family="Arial" font-size="13" lengthAdjust="spacing" textLength="195.6538" x="2906.03" y="402.4501">if "Check referential integrity" then</text><text fill="#000000" font-family="Arial" font-size="13" lengthAdjust="spacing" textLength="58.1509" x="2913.2536" y="417.3988">--&gt;[yes] ...</text><text fill="#000000" font-family="Arial" font-size="13" lengthAdjust="spacing" textLength="52.3809" x="2913.2536" y="432.3476">--&gt;[no] ...</text><text fill="#000000" font-family="Arial" font-size="13" lengthAdjust="spacing" textLength="28.1899" x="2906.03" y="447.2963">endif</text></g><!--link NOTE_ANCHOR to GMN3--><!--link NOTE_ANCHOR to GMN7--><!--link NOTE_ANCHOR to GMN10--><!--link NOTE_ANCHOR to GMN13--><!--link NOTE_ANCHOR to GMN16--><!--SRC=[hLLTRzem57tFhxXZ3skHIDfrwqCVDb4eAbA1glH3Krj5Rk843yUER0U4faxx4Vk5-oMxDWc4VaXhr_12VA-FJtpkFVUTcT2CGiu94vwUCf4JHJAu8z4qLR8GSKTogU1zppsrZ9WcfE2c9uKP4aHeAqPuBTvMIixBpNlkgGM7qj13gMAgoeoEUnvcF4K2ipp33ATmrMljxaCBvffgpQI0JCPKmvzVlu7Bj2K5Ny1CGrOOOcouVTg7BPcR5XFRi7KowkuSm3XdWcvxNg5fH3I51X7HHAe640t3qVbHs1vsZaTdteJ5T6D183zGB9qOaCb61A3P7Cj2HVIWsOJhwrX6EfXBDKsudEjWzZ5WAfWdWQFlCs6eCFw2P1p-EVFsrgCY1il1Mp91kktEUV-oV_ujx9sChf35LdCRMgqlqBZGL84g15u5eTeekRwnI6OP4N43qra2ZKl2MKmGhfOWfup2bgNmURi1M2q2ay4YNo-elWNVzrSBGbRlI8yb9Mg_fe6L28FaZjFuw-lW3fNL2DA2g1YY2OscItgVNablzT4ofsh9KYDiHbu7rt6C54seGhcm9y0Abofc5Yy5N6dyRB7PbjZ1nnNTSVki2-FpqMcpUIFEw7SQ6UoE2p4LSYwWuvHy6yn19UV0ojbbskdvDjXzCRE2m6YbnjYfyJRePpLT-fKkq2FiV_aVsshKHkPuI5cX0wOpOg99hLTpT3IIeirqYI4mDb9HtK3G7Vk37mYBbKZkd1CfcilGgC9CReGVE6ye-pTmzhIERsohMZTSjkwD-1durRu7CGVpO6qJ2xqehEBQidr4fPwYbyGUx_BklG_MYj2Ird_Mbu46fR4-dHNPwpZQx-trUkuw5Cf6HCfBCYsqCNS6-hKEtK6uWYRh-q5AXQqO6WTwbWQTGRTLxV09vo4d2wgqpsMyusC2MkWcUacuXbvvu7FePVmPzFlIcJbDdXmHHpCSAS8D2VkEfyns0nsXDoecmztzrVbXPPwXcsz-Xhs1jSa4bl1i5wfvOQT7aM5fBvicmNcv7enr-zNkqrzmO5xWR3hbH9YBmGd4ZAHsG6yUu2PlHQK-dlu2]--></g></svg>