<svg xmlns="http://www.w3.org/2000/svg" xmlns:xlink="http://www.w3.org/1999/xlink" contentStyleType="text/css" data-diagram-type="DESCRIPTION" height="574px" preserveAspectRatio="none" style="width:2135px;height:574px;background:#FFFFFF;" version="1.1" viewBox="0 0 2135 574" width="2135px" zoomAndPan="magnify"><title>WF-11 - Manual repo model + manual RepoConf (resolve optional) (LOD0: Spine)</title><defs/><g><g class="title" data-source-line="8"><text fill="#000000" font-family="Arial" font-size="22" font-weight="bold" lengthAdjust="spacing" textLength="841.5645" x="642.5628" y="35.6357">WF-11 - Manual repo model + manual RepoConf (resolve optional) (LOD0: Spine)</text></g><!--cluster Data Stores--><g class="cluster" data-entity="Data Stores" data-source-line="43" data-uid="ent0010" id="cluster_Data Stores"><path d="M1645.19,228.1579 L1723.9966,228.1579 A3.75,3.75 0 0 1 1726.4966,230.6579 L1733.4966,250.2565 L2126.19,250.2565 A2.5,2.5 0 0 1 2128.69,252.7565 L2128.69,337.8579 A2.5,2.5 0 0 1 2126.19,340.3579 L1645.19,340.3579 A2.5,2.5 0 0 1 1642.69,337.8579 L1642.69,230.6579 A2.5,2.5 0 0 1 1645.19,228.1579" fill="#F0F0F0" style="stroke:#000000;stroke-width:1;"/><line style="stroke:#000000;stroke-width:1;" x1="1642.69" x2="1733.4966" y1="250.2565" y2="250.2565"/><text fill="#000000" font-family="Arial" font-size="14" font-weight="bold" lengthAdjust="spacing" textLength="77.8066" x="1646.69" y="243.2897">Data Stores</text></g><!--cluster Uses Commands--><g class="cluster" data-entity="Uses Commands" data-source-line="49" data-uid="ent0013" id="cluster_Uses Commands"><path d="M1144.19,240.7079 L1258.7828,240.7079 A3.75,3.75 0 0 1 1261.2828,243.2079 L1268.2828,262.8065 L1294.19,262.8065 A2.5,2.5 0 0 1 1296.69,265.3065 L1296.69,565.3179 A2.5,2.5 0 0 1 1294.19,567.8179 L1144.19,567.8179 A2.5,2.5 0 0 1 1141.69,565.3179 L1141.69,243.2079 A2.5,2.5 0 0 1 1144.19,240.7079" fill="#E6F3FF" style="stroke:#000000;stroke-width:1;"/><line style="stroke:#000000;stroke-width:1;" x1="1141.69" x2="1268.2828" y1="262.8065" y2="262.8065"/><text fill="#000000" font-family="Arial" font-size="14" font-weight="bold" lengthAdjust="spacing" textLength="113.5928" x="1145.69" y="255.8397">Uses Commands</text></g><!--entity repo_model_store--><g class="entity" data-entity="repo_model_store" data-source-line="44" data-uid="ent0011" id="entity_repo_model_store"><path d="M1659.03,273.1579 C1659.03,263.1579 1766.6882,263.1579 1766.6882,263.1579 C1766.6882,263.1579 1874.3464,263.1579 1874.3464,273.1579 L1874.3464,314.3551 C1874.3464,324.3551 1766.6882,324.3551 1766.6882,324.3551 C1766.6882,324.3551 1659.03,324.3551 1659.03,314.3551 L1659.03,273.1579" fill="#FFFFFF" style="stroke:#000000;stroke-width:1;"/><path d="M1659.03,273.1579 C1659.03,283.1579 1766.6882,283.1579 1766.6882,283.1579 C1766.6882,283.1579 1874.3464,283.1579 1874.3464,273.1579" fill="none" style="stroke:#000000;stroke-width:1;"/><text fill="#000000" font-family="Arial" font-size="14" lengthAdjust="spacing" textLength="112.8477" x="1669.03" y="300.2897">repo_model_store</text><text fill="#000000" font-family="Arial" font-size="14" lengthAdjust="spacing" textLength="195.3164" x="1669.03" y="316.3883">./docs/maestro/repo/model.json</text></g><!--entity repo_conf_store--><g class="entity" data-entity="repo_conf_store" data-source-line="45" data-uid="ent0012" id="entity_repo_conf_store"><path d="M1908.86,273.1579 C1908.86,263.1579 2010.6837,263.1579 2010.6837,263.1579 C2010.6837,263.1579 2112.5075,263.1579 2112.5075,273.1579 L2112.5075,314.3551 C2112.5075,324.3551 2010.6837,324.3551 2010.6837,324.3551 C2010.6837,324.3551 1908.86,324.3551 1908.86,314.3551 L1908.86,273.1579" fill="#FFFFFF" style="stroke:#000000;stroke-width:1;"/><path d="M1908.86,273.1579 C1908.86,283.1579 2010.6837,283.1579 2010.6837,283.1579 C2010.6837,283.1579 2112.5075,283.1579 2112.5075,273.1579" fill="none" style="stroke:#000000;stroke-width:1;"/><text fill="#000000" font-family="Arial" font-size="14" lengthAdjust="spacing" textLength="101.1787" x="1918.86" y="300.2897">repo_conf_store</text><text fill="#000000" font-family="Arial" font-size="14" lengthAdjust="spacing" textLength="183.6475" x="1918.86" y="316.3883">./docs/maestro/repo/conf.json</text></g><!--entity uses_build--><g class="entity" data-entity="uses_build" data-source-line="50" data-uid="ent0014" id="entity_uses_build"><a href="../generated/svg/CMD-build.all_layers.lod0.svg" target="_top" title="../generated/svg/CMD-build.all_layers.lod0.svg" xlink:actuate="onRequest" xlink:href="../generated/svg/CMD-build.all_layers.lod0.svg" xlink:show="new" xlink:title="../generated/svg/CMD-build.all_layers.lod0.svg" xlink:type="simple"><rect fill="#FFFFFF" height="36.0986" rx="2.5" ry="2.5" style="stroke:#000000;stroke-width:1;" width="49.5791" x="1157.9" y="275.7079"/><text fill="#000000" font-family="Arial" font-size="14" lengthAdjust="spacing" textLength="29.5791" x="1167.9" y="298.8397">build</text></a></g><!--entity uses_init--><g class="entity" data-entity="uses_init" data-source-line="51" data-uid="ent0015" id="entity_uses_init"><a href="../generated/svg/CMD-init.all_layers.lod0.svg" target="_top" title="../generated/svg/CMD-init.all_layers.lod0.svg" xlink:actuate="onRequest" xlink:href="../generated/svg/CMD-init.all_layers.lod0.svg" xlink:show="new" xlink:title="../generated/svg/CMD-init.all_layers.lod0.svg" xlink:type="simple"><rect fill="#FFFFFF" height="36.0986" rx="2.5" ry="2.5" style="stroke:#000000;stroke-width:1;" width="37.8965" x="1242.74" y="275.7079"/><text fill="#000000" font-family="Arial" font-size="14" lengthAdjust="spacing" textLength="17.8965" x="1252.74" y="298.8397">init</text></a></g><!--entity uses_repo--><g class="entity" data-entity="uses_repo" data-source-line="52" data-uid="ent0016" id="entity_uses_repo"><a href="../generated/svg/CMD-repo.all_layers.lod0.svg" target="_top" title="../generated/svg/CMD-repo.all_layers.lod0.svg" xlink:actuate="onRequest" xlink:href="../generated/svg/CMD-repo.all_layers.lod0.svg" xlink:show="new" xlink:title="../generated/svg/CMD-repo.all_layers.lod0.svg" xlink:type="simple"><rect fill="#FFFFFF" height="36.0986" rx="2.5" ry="2.5" style="stroke:#000000;stroke-width:1;" width="48.0205" x="1158.68" y="515.7179"/><text fill="#000000" font-family="Arial" font-size="14" lengthAdjust="spacing" textLength="28.0205" x="1168.68" y="538.8497">repo</text></a></g><!--entity uses_tu--><g class="entity" data-entity="uses_tu" data-source-line="53" data-uid="ent0017" id="entity_uses_tu"><a href="../generated/svg/CMD-tu.all_layers.lod0.svg" target="_top" title="../generated/svg/CMD-tu.all_layers.lod0.svg" xlink:actuate="onRequest" xlink:href="../generated/svg/CMD-tu.all_layers.lod0.svg" xlink:show="new" xlink:title="../generated/svg/CMD-tu.all_layers.lod0.svg" xlink:type="simple"><rect fill="#FFFFFF" height="36.0986" rx="2.5" ry="2.5" style="stroke:#000000;stroke-width:1;" width="31.6758" x="1241.85" y="515.7179"/><text fill="#000000" font-family="Arial" font-size="14" lengthAdjust="spacing" textLength="11.6758" x="1251.85" y="538.8497">tu</text></a></g><!--entity NOTE_ANCHOR--><g class="entity" data-entity="ACTIVITY_FLOW" data-source-line="17" data-uid="ent0006" id="entity_ACTIVITY_FLOW"><path d="M1315.66,131.7979 L1315.66,455.7212 L1623.7074,455.7212 L1623.7074,141.7979 L1613.7074,131.7979 L1315.66,131.7979" fill="#FFFFCC" style="stroke:#CCCCCC;stroke-width:1;"/><path d="M1613.7074,131.7979 L1613.7074,141.7979 L1623.7074,141.7979 L1613.7074,131.7979" fill="#FFFFCC" style="stroke:#CCCCCC;stroke-width:1;"/><text fill="#000000" font-family="Arial" font-size="13" lengthAdjust="spacing" textLength="287.0474" x="1321.66" y="148.9917">(*) --&gt; "Operator starts manual repo configuration"</text><text fill="#000000" font-family="Arial" font-size="13" lengthAdjust="spacing" textLength="208.7046" x="1321.66" y="163.9404">if "Choose authoring approach" then</text><text fill="#000000" font-family="Arial" font-size="13" lengthAdjust="spacing" textLength="58.1509" x="1328.8836" y="178.8892">--&gt;[yes] ...</text><text fill="#000000" font-family="Arial" font-size="13" lengthAdjust="spacing" textLength="52.3809" x="1328.8836" y="193.8379">--&gt;[no] ...</text><text fill="#000000" font-family="Arial" font-size="13" lengthAdjust="spacing" textLength="28.1899" x="1321.66" y="208.7866">endif</text><text fill="#000000" font-family="Arial" font-size="13" lengthAdjust="spacing" textLength="217.3691" x="1321.66" y="223.7354">if "Validate repo model and conf" then</text><text fill="#000000" font-family="Arial" font-size="13" lengthAdjust="spacing" textLength="58.1509" x="1328.8836" y="238.6841">--&gt;[yes] ...</text><text fill="#000000" font-family="Arial" font-size="13" lengthAdjust="spacing" textLength="52.3809" x="1328.8836" y="253.6328">--&gt;[no] ...</text><text fill="#000000" font-family="Arial" font-size="13" lengthAdjust="spacing" textLength="28.1899" x="1321.66" y="268.5815">endif</text><text fill="#000000" font-family="Arial" font-size="13" lengthAdjust="spacing" textLength="213.0146" x="1321.66" y="283.5303">if "Validate repo model schema" then</text><text fill="#000000" font-family="Arial" font-size="13" lengthAdjust="spacing" textLength="58.1509" x="1328.8836" y="298.479">--&gt;[yes] ...</text><text fill="#000000" font-family="Arial" font-size="13" lengthAdjust="spacing" textLength="52.3809" x="1328.8836" y="313.4277">--&gt;[no] ...</text><text fill="#000000" font-family="Arial" font-size="13" lengthAdjust="spacing" textLength="28.1899" x="1321.66" y="328.3765">endif</text><text fill="#000000" font-family="Arial" font-size="13" lengthAdjust="spacing" textLength="202.1792" x="1321.66" y="343.3252">if "Validate repo conf schema" then</text><text fill="#000000" font-family="Arial" font-size="13" lengthAdjust="spacing" textLength="58.1509" x="1328.8836" y="358.2739">--&gt;[yes] ...</text><text fill="#000000" font-family="Arial" font-size="13" lengthAdjust="spacing" textLength="52.3809" x="1328.8836" y="373.2227">--&gt;[no] ...</text><text fill="#000000" font-family="Arial" font-size="13" lengthAdjust="spacing" textLength="28.1899" x="1321.66" y="388.1714">endif</text><text fill="#000000" font-family="Arial" font-size="13" lengthAdjust="spacing" textLength="256.3691" x="1321.66" y="403.1201">if "Execute build/TU using manual conf" then</text><text fill="#000000" font-family="Arial" font-size="13" lengthAdjust="spacing" textLength="58.1509" x="1328.8836" y="418.0688">--&gt;[yes] ...</text><text fill="#000000" font-family="Arial" font-size="13" lengthAdjust="spacing" textLength="52.3809" x="1328.8836" y="433.0176">--&gt;[no] ...</text><text fill="#000000" font-family="Arial" font-size="13" lengthAdjust="spacing" textLength="28.1899" x="1321.66" y="447.9663">endif</text></g><!--link NOTE_ANCHOR to GMN3--><!--SRC=[hLNVJzim47xFNt7B7WQTchH3sWCFaxgq5PE08bf04w3eI9pKmx4Zssc79lxtdKrBouzEtORxPD_voztdxxw-irDMCQW5SXcOMovhr5Z13MQtfLQDp1Cbb8RtGx_MCd9MO2FiK4bxZ8JGqnp5MhodjPelBk_vjHOyLfPzLJfdUf6H-FKyuxKYA2kmt0e65yDsjmjjE4BPe03DQWMLofc0Zr0zd9tIMQ9a0JkQ6ILc35HjkP8eTc7dSDJlxCEuvfBj1a5ZM8Q6GOWocoeT0Xeu7aq6QUyuEHYT1bEUioS7aYe4pSkf1LKyYG2qMcFLw8pjjrfmUPchpCHpfMyBeUOcddsAkOxdHUmRYBYqJDhe3Yi1MsTUNmTCvk1g21ugeN9xoUJR-RV9ztHuEBgWAdPQkz1kVu5mL3EDbXWq5hKrItOyOndHmyk6uiHBIBTu0M4oLOgumCOI5LoMW7Mj5MRJ44WlahB08L_UCNCDKHGz7aYrt5Dvl5Z0dQFWEJgwLc-4LBxxzjiXceoaZ6-1v-hwBxZ1JvOrX7RJS977apDeZ6DnmVk_jFtusXjbvyQZGylBxw1tseVnP7JIQbt9HNFqlb0W5onVqqvDCuOboRwF5c5C8c4c9AYE-y4l0gERUECdmt6JUgvJunAlP1HxnLR8ZDKgTWcnJuX-65AJ4-NpIoyH7Hr_0dJnPtYhAy5zyC5fdBI-rioPOGOILH7XkMjdy7cuDnpwTZJBBCgI_2Fqh-D1QVXDwhSqhb4KbqowYM5vR6Pbd1prspuOeH2fm3kcJIHKteaeIfFu19HBRbUORhS9qiMsGNGThn2zG3SWkjWsYBPPuTbc4vfjDc3TBon7iE9LxnlCo2kbTp-t9_nPDpOPawYvIhlTz64EqZLfq3lvHusg74QaRauM3REkCyIc8jDRg9Sih7hXzaidWQLn-dR_xhDrG-vx8b3QiwD3o3cMxaze- -yz3jHl]--></g></svg>