<svg xmlns="http://www.w3.org/2000/svg" xmlns:xlink="http://www.w3.org/1999/xlink" contentStyleType="text/css" data-diagram-type="DESCRIPTION" height="574px" preserveAspectRatio="none" style="width:2710px;height:574px;background:#FFFFFF;" version="1.1" viewBox="0 0 2710 574" width="2710px" zoomAndPan="magnify"><title>WF-11 - Manual repo model + manual RepoConf (resolve optional) (LOD0: Spine)</title><defs/><g><g class="title" data-source-line="31"><text fill="#000000" font-family="Arial" font-size="22" font-weight="bold" lengthAdjust="spacing" textLength="841.5645" x="930.0628" y="35.6357">WF-11 - Manual repo model + manual RepoConf (resolve optional) (LOD0: Spine)</text></g><!--cluster Data Stores--><g class="cluster" data-entity="Data Stores" data-source-line="64" data-uid="ent0014" id="cluster_Data Stores"><path d="M2220.19,228.1579 L2298.9966,228.1579 A3.75,3.75 0 0 1 2301.4966,230.6579 L2308.4966,250.2565 L2701.19,250.2565 A2.5,2.5 0 0 1 2703.69,252.7565 L2703.69,337.8579 A2.5,2.5 0 0 1 2701.19,340.3579 L2220.19,340.3579 A2.5,2.5 0 0 1 2217.69,337.8579 L2217.69,230.6579 A2.5,2.5 0 0 1 2220.19,228.1579" fill="#F0F0F0" style="stroke:#000000;stroke-width:1;"/><line style="stroke:#000000;stroke-width:1;" x1="2217.69" x2="2308.4966" y1="250.2565" y2="250.2565"/><text fill="#000000" font-family="Arial" font-size="14" font-weight="bold" lengthAdjust="spacing" textLength="77.8066" x="2221.69" y="243.2897">Data Stores</text></g><!--cluster Uses Commands--><g class="cluster" data-entity="Uses Commands" data-source-line="70" data-uid="ent0017" id="cluster_Uses Commands"><path d="M1494.19,240.7079 L1608.7828,240.7079 A3.75,3.75 0 0 1 1611.2828,243.2079 L1618.2828,262.8065 L1644.19,262.8065 A2.5,2.5 0 0 1 1646.69,265.3065 L1646.69,565.3179 A2.5,2.5 0 0 1 1644.19,567.8179 L1494.19,567.8179 A2.5,2.5 0 0 1 1491.69,565.3179 L1491.69,243.2079 A2.5,2.5 0 0 1 1494.19,240.7079" fill="#E6F3FF" style="stroke:#000000;stroke-width:1;"/><line style="stroke:#000000;stroke-width:1;" x1="1491.69" x2="1618.2828" y1="262.8065" y2="262.8065"/><text fill="#000000" font-family="Arial" font-size="14" font-weight="bold" lengthAdjust="spacing" textLength="113.5928" x="1495.69" y="255.8397">Uses Commands</text></g><!--entity repo_model_store--><g class="entity" data-entity="repo_model_store" data-source-line="65" data-uid="ent0015" id="entity_repo_model_store"><path d="M2234.03,273.1579 C2234.03,263.1579 2341.6882,263.1579 2341.6882,263.1579 C2341.6882,263.1579 2449.3464,263.1579 2449.3464,273.1579 L2449.3464,314.3551 C2449.3464,324.3551 2341.6882,324.3551 2341.6882,324.3551 C2341.6882,324.3551 2234.03,324.3551 2234.03,314.3551 L2234.03,273.1579" fill="#FFFFFF" style="stroke:#000000;stroke-width:1;"/><path d="M2234.03,273.1579 C2234.03,283.1579 2341.6882,283.1579 2341.6882,283.1579 C2341.6882,283.1579 2449.3464,283.1579 2449.3464,273.1579" fill="none" style="stroke:#000000;stroke-width:1;"/><text fill="#000000" font-family="Arial" font-size="14" lengthAdjust="spacing" textLength="112.8477" x="2244.03" y="300.2897">repo_model_store</text><text fill="#000000" font-family="Arial" font-size="14" lengthAdjust="spacing" textLength="195.3164" x="2244.03" y="316.3883">./docs/maestro/repo/model.json</text></g><!--entity repo_conf_store--><g class="entity" data-entity="repo_conf_store" data-source-line="66" data-uid="ent0016" id="entity_repo_conf_store"><path d="M2483.86,273.1579 C2483.86,263.1579 2585.6837,263.1579 2585.6837,263.1579 C2585.6837,263.1579 2687.5075,263.1579 2687.5075,273.1579 L2687.5075,314.3551 C2687.5075,324.3551 2585.6837,324.3551 2585.6837,324.3551 C2585.6837,324.3551 2483.86,324.3551 2483.86,314.3551 L2483.86,273.1579" fill="#FFFFFF" style="stroke:#000000;stroke-width:1;"/><path d="M2483.86,273.1579 C2483.86,283.1579 2585.6837,283.1579 2585.6837,283.1579 C2585.6837,283.1579 2687.5075,283.1579 2687.5075,273.1579" fill="none" style="stroke:#000000;stroke-width:1;"/><text fill="#000000" font-family="Arial" font-size="14" lengthAdjust="spacing" textLength="101.1787" x="2493.86" y="300.2897">repo_conf_store</text><text fill="#000000" font-family="Arial" font-size="14" lengthAdjust="spacing" textLength="183.6475" x="2493.86" y="316.3883">./docs/maestro/repo/conf.json</text></g><!--entity uses_build--><g class="entity" data-entity="uses_build" data-source-line="71" data-uid="ent0018" id="entity_uses_build"><a href="../generated/svg/CMD-build.all_layers.lod0.svg" target="_top" title="../generated/svg/CMD-build.all_layers.lod0.svg" xlink:actuate="onRequest" xlink:href="../generated/svg/CMD-build.all_layers.lod0.svg" xlink:show="new" xlink:title="../generated/svg/CMD-build.all_layers.lod0.svg" xlink:type="simple"><rect fill="#FFFFFF" height="36.0986" rx="2.5" ry="2.5" style="stroke:#000000;stroke-width:1;" width="49.5791" x="1507.9" y="275.7079"/><text fill="#000000" font-family="Arial" font-size="14" lengthAdjust="spacing" textLength="29.5791" x="1517.9" y="298.8397">build</text></a></g><!--entity uses_init--><g class="entity" data-entity="uses_init" data-source-line="72" data-uid="ent0019" id="entity_uses_init"><a href="../generated/svg/CMD-init.all_layers.lod0.svg" target="_top" title="../generated/svg/CMD-init.all_layers.lod0.svg" xlink:actuate="onRequest" xlink:href="../generated/svg/CMD-init.all_layers.lod0.svg" xlink:show="new" xlink:title="../generated/svg/CMD-init.all_layers.lod0.svg" xlink:type="simple"><rect fill="#FFFFFF" height="36.0986" rx="2.5" ry="2.5" style="stroke:#000000;stroke-width:1;" width="37.8965" x="1592.74" y="275.7079"/><text fill="#000000" font-family="Arial" font-size="14" lengthAdjust="spacing" textLength="17.8965" x="1602.74" y="298.8397">init</text></a></g><!--entity uses_repo--><g class="entity" data-entity="uses_repo" data-source-line="73" data-uid="ent0020" id="entity_uses_repo"><a href="../generated/svg/CMD-repo.all_layers.lod0.svg" target="_top" title="../generated/svg/CMD-repo.all_layers.lod0.svg" xlink:actuate="onRequest" xlink:href="../generated/svg/CMD-repo.all_layers.lod0.svg" xlink:show="new" xlink:title="../generated/svg/CMD-repo.all_layers.lod0.svg" xlink:type="simple"><rect fill="#FFFFFF" height="36.0986" rx="2.5" ry="2.5" style="stroke:#000000;stroke-width:1;" width="48.0205" x="1508.68" y="515.7179"/><text fill="#000000" font-family="Arial" font-size="14" lengthAdjust="spacing" textLength="28.0205" x="1518.68" y="538.8497">repo</text></a></g><!--entity uses_tu--><g class="entity" data-entity="uses_tu" data-source-line="74" data-uid="ent0021" id="entity_uses_tu"><a href="../generated/svg/CMD-tu.all_layers.lod0.svg" target="_top" title="../generated/svg/CMD-tu.all_layers.lod0.svg" xlink:actuate="onRequest" xlink:href="../generated/svg/CMD-tu.all_layers.lod0.svg" xlink:show="new" xlink:title="../generated/svg/CMD-tu.all_layers.lod0.svg" xlink:type="simple"><rect fill="#FFFFFF" height="36.0986" rx="2.5" ry="2.5" style="stroke:#000000;stroke-width:1;" width="31.6758" x="1591.85" y="515.7179"/><text fill="#000000" font-family="Arial" font-size="14" lengthAdjust="spacing" textLength="11.6758" x="1601.85" y="538.8497">tu</text></a></g><!--entity NOTE_ANCHOR--><g class="entity" data-entity="N1" data-source-line="17" data-uid="ent0006" id="entity_N1"><path d="M1665.44,251.3879 L1665.44,336.1315 L1855.938,336.1315 L1855.938,261.3879 L1845.938,251.3879 L1665.44,251.3879" fill="#FFFFCC" style="stroke:#CCCCCC;stroke-width:1;"/><path d="M1845.938,251.3879 L1845.938,261.3879 L1855.938,261.3879 L1845.938,251.3879" fill="#FFFFCC" style="stroke:#CCCCCC;stroke-width:1;"/><text fill="#000000" font-family="Arial" font-size="13" font-weight="bold" lengthAdjust="spacing" textLength="142.2891" x="1671.44" y="268.5817">Combined view (LOD0)</text><text fill="#000000" font-family="Arial" font-size="13" lengthAdjust="spacing" textLength="3.6118" x="1671.44" y="283.5304">&#160;</text><text fill="#000000" font-family="Arial" font-size="13" lengthAdjust="spacing" textLength="137.998" x="1671.44" y="298.4792">This diagram combines:</text><ellipse cx="1676.94" cy="308.6828" fill="#000000" rx="2.5" ry="2.5"/><text fill="#000000" font-family="Arial" font-size="13" lengthAdjust="spacing" textLength="157.498" x="1683.44" y="313.4279">Intent layer (workflow logic)</text><ellipse cx="1676.94" cy="323.6315" fill="#000000" rx="2.5" ry="2.5"/><text fill="#000000" font-family="Arial" font-size="13" lengthAdjust="spacing" textLength="124.2871" x="1683.44" y="328.3766">Command integration</text></g><g class="entity" data-entity="ACTIVITY_FLOW" data-source-line="38" data-uid="ent0010" id="entity_ACTIVITY_FLOW"><path d="M1890.66,131.7979 L1890.66,455.7212 L2198.7074,455.7212 L2198.7074,141.7979 L2188.7074,131.7979 L1890.66,131.7979" fill="#FFFFCC" style="stroke:#CCCCCC;stroke-width:1;"/><path d="M2188.7074,131.7979 L2188.7074,141.7979 L2198.7074,141.7979 L2188.7074,131.7979" fill="#FFFFCC" style="stroke:#CCCCCC;stroke-width:1;"/><text fill="#000000" font-family="Arial" font-size="13" lengthAdjust="spacing" textLength="287.0474" x="1896.66" y="148.9917">(*) --&gt; "Operator starts manual repo configuration"</text><text fill="#000000" font-family="Arial" font-size="13" lengthAdjust="spacing" textLength="208.7046" x="1896.66" y="163.9404">if "Choose authoring approach" then</text><text fill="#000000" font-family="Arial" font-size="13" lengthAdjust="spacing" textLength="58.1509" x="1903.8836" y="178.8892">--&gt;[yes] ...</text><text fill="#000000" font-family="Arial" font-size="13" lengthAdjust="spacing" textLength="52.3809" x="1903.8836" y="193.8379">--&gt;[no] ...</text><text fill="#000000" font-family="Arial" font-size="13" lengthAdjust="spacing" textLength="28.1899" x="1896.66" y="208.7866">endif</text><text fill="#000000" font-family="Arial" font-size="13" lengthAdjust="spacing" textLength="217.3691" x="1896.66" y="223.7354">if "Validate repo model and conf" then</text><text fill="#000000" font-family="Arial" font-size="13" lengthAdjust="spacing" textLength="58.1509" x="1903.8836" y="238.6841">--&gt;[yes] ...</text><text fill="#000000" font-family="Arial" font-size="13" lengthAdjust="spacing" textLength="52.3809" x="1903.8836" y="253.6328">--&gt;[no] ...</text><text fill="#000000" font-family="Arial" font-size="13" lengthAdjust="spacing" textLength="28.1899" x="1896.66" y="268.5815">endif</text><text fill="#000000" font-family="Arial" font-size="13" lengthAdjust="spacing" textLength="213.0146" x="1896.66" y="283.5303">if "Validate repo model schema" then</text><text fill="#000000" font-family="Arial" font-size="13" lengthAdjust="spacing" textLength="58.1509" x="1903.8836" y="298.479">--&gt;[yes] ...</text><text fill="#000000" font-family="Arial" font-size="13" lengthAdjust="spacing" textLength="52.3809" x="1903.8836" y="313.4277">--&gt;[no] ...</text><text fill="#000000" font-family="Arial" font-size="13" lengthAdjust="spacing" textLength="28.1899" x="1896.66" y="328.3765">endif</text><text fill="#000000" font-family="Arial" font-size="13" lengthAdjust="spacing" textLength="202.1792" x="1896.66" y="343.3252">if "Validate repo conf schema" then</text><text fill="#000000" font-family="Arial" font-size="13" lengthAdjust="spacing" textLength="58.1509" x="1903.8836" y="358.2739">--&gt;[yes] ...</text><text fill="#000000" font-family="Arial" font-size="13" lengthAdjust="spacing" textLength="52.3809" x="1903.8836" y="373.2227">--&gt;[no] ...</text><text fill="#000000" font-family="Arial" font-size="13" lengthAdjust="spacing" textLength="28.1899" x="1896.66" y="388.1714">endif</text><text fill="#000000" font-family="Arial" font-size="13" lengthAdjust="spacing" textLength="256.3691" x="1896.66" y="403.1201">if "Execute build/TU using manual conf" then</text><text fill="#000000" font-family="Arial" font-size="13" lengthAdjust="spacing" textLength="58.1509" x="1903.8836" y="418.0688">--&gt;[yes] ...</text><text fill="#000000" font-family="Arial" font-size="13" lengthAdjust="spacing" textLength="52.3809" x="1903.8836" y="433.0176">--&gt;[no] ...</text><text fill="#000000" font-family="Arial" font-size="13" lengthAdjust="spacing" textLength="28.1899" x="1896.66" y="447.9663">endif</text></g><!--link NOTE_ANCHOR to GMN3--><!--link NOTE_ANCHOR to GMN7--><!--SRC=[rLLBJnin4BxlhnZIGybMsIL5we53fJGFWGG4GG1L0Qs6NU_6nMklR6zILF7VEtOI4XwfQCkXTN9Pp_ZpFBxvl6Kdh6HG2UGoCBTSLgYnX1jCRmkjQfbrbL0QtWtyMlF8M8wri0CbxJ4IGaTp56lsZjPgjZYywzUQyLXPzaNfZEc5HzUlfnul1K5UWULMCBWSjDfjQ45NbJTSiWmEyOvf0zk7mzvECmXgmr8q31eequdI3K03nyDHF-aST_U7fy64P-pHXgGxGVDYOa7bZom0ONYcQfsolJ24yJXJgObdIj_cGirCFFqOSntFyjY7575fcRJH7PO2NkrvVHqmcO6B8PX7ui9j-wiVCfnoDbla5uPaelzemWra70jNjNJkQFRSCJZmw21SMM1x6GG8LV2qwJq8k4IwrSL109OhkHR5rl_FZIEKDGhGh59Ggem9-03bVE-KzhfAvh2jcL5Yoa1LhW0eclCIxy5PHSLi1lyWCJhTqS75mUXhCZWSNb8Kss4JMgtFq1XMZFf81J4MjJNBP7q1KigM5_MypmqwnNDeT2TAqP1WRMb6k2m0gqehJ2SDeFPByWA7FBvZvXgYA7hOa6hvJU7nV05tWO9dwCgrAhbZcBlxxH1DIip4jy1pSVqLNFyxIsj2kwcvoEBHETJ6LN5Hzpz9-w7R6sddsBv3ozDlltFQWxFHy2GCh-GYEUelvCW5ozQuKz78O45ws4EBS4OaOQP1K3lk1py8Z4xYZPTCLvl4rpenpl5AHh5dR8dCMArYvn1xX-YR8JOvKZuzz1pHbUDNWCx-16zr9BWFtZkE4zVNaZatp2nrpANJ_pJO7GnyEfgb5cL1Sj3mtV6Wz2gOn7_Ik4PHN33f9ePbiPaMSVUer_B628L8l7AQIAXi9o8hJU8ZK2wvNM6whqsGplOQH9Vn2j4JT0EYixq6qTOhF5jlGhFr1gpxXUG8bh-eVVqfFQBIgvz_KCRZQJisAPEekKhQxMG-1yaQDQXFlgbHcS6GsCr9SM7QTe9OboHw2_QIX9NFn7kf9B0KJf_kxrrRrQI-9mAbFJywV7WvNt_VQg1-0W00]--></g></svg>