<svg xmlns="http://www.w3.org/2000/svg" xmlns:xlink="http://www.w3.org/1999/xlink" contentStyleType="text/css" data-diagram-type="DESCRIPTION" height="290px" preserveAspectRatio="none" style="width:2874px;height:290px;background:#FFFFFF;" version="1.1" viewBox="0 0 2874 290" width="2874px" zoomAndPan="magnify"><title>WF-14 - Branch safety guardrails &#8212; branch-bound state, no branch switching during work (LOD0: Spine)</title><defs/><g><g class="title" data-source-line="31"><text fill="#000000" font-family="Arial" font-size="22" font-weight="bold" lengthAdjust="spacing" textLength="1093.9951" x="885.5974" y="35.6357">WF-14 - Branch safety guardrails &#8212; branch-bound state, no branch switching during work (LOD0: Spine)</text></g><!--cluster Data Stores--><g class="cluster" data-entity="Data Stores" data-source-line="55" data-uid="ent0017" id="cluster_Data Stores"><path d="M2293.69,145.4379 L2372.4966,145.4379 A3.75,3.75 0 0 1 2374.9966,147.9379 L2381.9966,167.5365 L2711.69,167.5365 A2.5,2.5 0 0 1 2714.19,170.0365 L2714.19,255.1379 A2.5,2.5 0 0 1 2711.69,257.6379 L2293.69,257.6379 A2.5,2.5 0 0 1 2291.19,255.1379 L2291.19,147.9379 A2.5,2.5 0 0 1 2293.69,145.4379" fill="#F0F0F0" style="stroke:#000000;stroke-width:1;"/><line style="stroke:#000000;stroke-width:1;" x1="2291.19" x2="2381.9966" y1="167.5365" y2="167.5365"/><text fill="#000000" font-family="Arial" font-size="14" font-weight="bold" lengthAdjust="spacing" textLength="77.8066" x="2295.19" y="160.5697">Data Stores</text></g><!--cluster Uses Commands--><g class="cluster" data-entity="Uses Commands" data-source-line="62" data-uid="ent0020" id="cluster_Uses Commands"><path d="M2740.69,157.9879 L2855.2828,157.9879 A3.75,3.75 0 0 1 2857.7828,160.4879 L2864.7828,180.0865 L2864.69,180.0865 A2.5,2.5 0 0 1 2867.19,182.5865 L2867.19,242.5879 A2.5,2.5 0 0 1 2864.69,245.0879 L2740.69,245.0879 A2.5,2.5 0 0 1 2738.19,242.5879 L2738.19,160.4879 A2.5,2.5 0 0 1 2740.69,157.9879" fill="#E6F3FF" style="stroke:#000000;stroke-width:1;"/><line style="stroke:#000000;stroke-width:1;" x1="2738.19" x2="2864.7828" y1="180.0865" y2="180.0865"/><text fill="#000000" font-family="Arial" font-size="14" font-weight="bold" lengthAdjust="spacing" textLength="113.5928" x="2742.19" y="173.1197">Uses Commands</text></g><!--entity session_store--><g class="entity" data-entity="session_store" data-source-line="56" data-uid="ent0018" id="entity_session_store"><path d="M2307.36,190.4379 C2307.36,180.4379 2423.1871,180.4379 2423.1871,180.4379 C2423.1871,180.4379 2539.0143,180.4379 2539.0143,190.4379 L2539.0143,231.6351 C2539.0143,241.6351 2423.1871,241.6351 2423.1871,241.6351 C2423.1871,241.6351 2307.36,241.6351 2307.36,231.6351 L2307.36,190.4379" fill="#FFFFFF" style="stroke:#000000;stroke-width:1;"/><path d="M2307.36,190.4379 C2307.36,200.4379 2423.1871,200.4379 2423.1871,200.4379 C2423.1871,200.4379 2539.0143,200.4379 2539.0143,190.4379" fill="none" style="stroke:#000000;stroke-width:1;"/><text fill="#000000" font-family="Arial" font-size="14" lengthAdjust="spacing" textLength="86.3789" x="2317.36" y="217.5697">session_store</text><text fill="#000000" font-family="Arial" font-size="14" lengthAdjust="spacing" textLength="211.6543" x="2317.36" y="233.6683">./docs/maestro/session_store.json</text></g><!--entity docs_truth_store--><g class="entity" data-entity="docs_truth_store" data-source-line="57" data-uid="ent0019" id="entity_docs_truth_store"><path d="M2574.05,190.4379 C2574.05,180.4379 2636.1911,180.4379 2636.1911,180.4379 C2636.1911,180.4379 2698.3322,180.4379 2698.3322,190.4379 L2698.3322,231.6351 C2698.3322,241.6351 2636.1911,241.6351 2636.1911,241.6351 C2636.1911,241.6351 2574.05,241.6351 2574.05,231.6351 L2574.05,190.4379" fill="#FFFFFF" style="stroke:#000000;stroke-width:1;"/><path d="M2574.05,190.4379 C2574.05,200.4379 2636.1911,200.4379 2636.1911,200.4379 C2636.1911,200.4379 2698.3322,200.4379 2698.3322,190.4379" fill="none" style="stroke:#000000;stroke-width:1;"/><text fill="#000000" font-family="Arial" font-size="14" lengthAdjust="spacing" textLength="104.2822" x="2584.05" y="217.5697">docs_truth_store</text><text fill="#000000" font-family="Arial" font-size="14" lengthAdjust="spacing" textLength="95.7031" x="2584.05" y="233.6683">./docs/maestro/</text></g><!--entity uses_work--><g class="entity" data-entity="uses_work" data-source-line="63" data-uid="ent0021" id="entity_uses_work"><a href="../generated/svg/CMD-work.all_layers.lod0.svg" target="_top" title="../generated/svg/CMD-work.all_layers.lod0.svg" xlink:actuate="onRequest" xlink:href="../generated/svg/CMD-work.all_layers.lod0.svg" xlink:show="new" xlink:title="../generated/svg/CMD-work.all_layers.lod0.svg" xlink:type="simple"><rect fill="#FFFFFF" height="36.0986" rx="2.5" ry="2.5" style="stroke:#000000;stroke-width:1;" width="49.5586" x="2777.41" y="192.9879"/><text fill="#000000" font-family="Arial" font-size="14" lengthAdjust="spacing" textLength="29.5586" x="2787.41" y="216.1197">work</text></a></g><!--entity NOTE_ANCHOR--><g class="entity" data-entity="N1" data-source-line="17" data-uid="ent0006" id="entity_N1"><path d="M1811.94,168.6679 L1811.94,253.4115 L2002.438,253.4115 L2002.438,178.6679 L1992.438,168.6679 L1811.94,168.6679" fill="#FFFFCC" style="stroke:#CCCCCC;stroke-width:1;"/><path d="M1992.438,168.6679 L1992.438,178.6679 L2002.438,178.6679 L1992.438,168.6679" fill="#FFFFCC" style="stroke:#CCCCCC;stroke-width:1;"/><text fill="#000000" font-family="Arial" font-size="13" font-weight="bold" lengthAdjust="spacing" textLength="142.2891" x="1817.94" y="185.8617">Combined view (LOD0)</text><text fill="#000000" font-family="Arial" font-size="13" lengthAdjust="spacing" textLength="3.6118" x="1817.94" y="200.8104">&#160;</text><text fill="#000000" font-family="Arial" font-size="13" lengthAdjust="spacing" textLength="137.998" x="1817.94" y="215.7592">This diagram combines:</text><ellipse cx="1823.44" cy="225.9628" fill="#000000" rx="2.5" ry="2.5"/><text fill="#000000" font-family="Arial" font-size="13" lengthAdjust="spacing" textLength="157.498" x="1829.94" y="230.7079">Intent layer (workflow logic)</text><ellipse cx="1823.44" cy="240.9115" fill="#000000" rx="2.5" ry="2.5"/><text fill="#000000" font-family="Arial" font-size="13" lengthAdjust="spacing" textLength="124.2871" x="1829.94" y="245.6566">Command integration</text></g><g class="entity" data-entity="ACTIVITY_FLOW" data-source-line="38" data-uid="ent0010" id="entity_ACTIVITY_FLOW"><path d="M2037.84,138.7679 L2037.84,283.3064 L2272.5465,283.3064 L2272.5465,148.7679 L2262.5465,138.7679 L2037.84,138.7679" fill="#FFFFCC" style="stroke:#CCCCCC;stroke-width:1;"/><path d="M2262.5465,138.7679 L2262.5465,148.7679 L2272.5465,148.7679 L2262.5465,138.7679" fill="#FFFFCC" style="stroke:#CCCCCC;stroke-width:1;"/><text fill="#000000" font-family="Arial" font-size="13" lengthAdjust="spacing" textLength="200.3066" x="2043.84" y="155.9617">(*) --&gt; "User initiates work session"</text><text fill="#000000" font-family="Arial" font-size="13" lengthAdjust="spacing" textLength="213.7065" x="2043.84" y="170.9104">if "Check if inside Git repository" then</text><text fill="#000000" font-family="Arial" font-size="13" lengthAdjust="spacing" textLength="58.1509" x="2051.0636" y="185.8592">--&gt;[yes] ...</text><text fill="#000000" font-family="Arial" font-size="13" lengthAdjust="spacing" textLength="52.3809" x="2051.0636" y="200.8079">--&gt;[no] ...</text><text fill="#000000" font-family="Arial" font-size="13" lengthAdjust="spacing" textLength="28.1899" x="2043.84" y="215.7566">endif</text><text fill="#000000" font-family="Arial" font-size="13" lengthAdjust="spacing" textLength="206.4766" x="2043.84" y="230.7054">if "Check for branch mismatch" then</text><text fill="#000000" font-family="Arial" font-size="13" lengthAdjust="spacing" textLength="58.1509" x="2051.0636" y="245.6541">--&gt;[yes] ...</text><text fill="#000000" font-family="Arial" font-size="13" lengthAdjust="spacing" textLength="52.3809" x="2051.0636" y="260.6028">--&gt;[no] ...</text><text fill="#000000" font-family="Arial" font-size="13" lengthAdjust="spacing" textLength="28.1899" x="2043.84" y="275.5515">endif</text></g><!--link NOTE_ANCHOR to GMN3--><!--link NOTE_ANCHOR to GMN7--><!--link NOTE_ANCHOR to GMN11--><!--SRC=[rLJTRjem5BxFKvnc5olHI62jTj6BIPIVjL87Ks6h9bf59d62ryH6FWu8JPNs47l2FScE3QN0MgdLRZOJYSJd-FFv-SvtOAQyv30hc90UtWevOvgLC679RQvL9TEsAfI6LpstjZnIdh6gC3qbJPyHGaiBLcpPMrghnVhmaLjRnhuo_5JfbEkrHzkjVO_7WY0lpmXJSBZgrPl7K8UsAYT2yXGks99hXCEBGQTHyxmAUSAGWyzaCbNQ1uRG7uowSQlVFXjSUbEHyfqDINU25ldKWCfsB011C5ILJlX94C1udAe4euNIjrcX5XZDtqP2HuiiSY65GXekJRXaPG7FzhovyRXCmSRWhIAnuJRTrPiCvu8lrla50Pde6Kq5GYfORgkMh1pnn1w3SuSEXIqB7Du70ONAHL9p7WHSChhLna40HYYv5SN1_y-DKssR3yWoRfQGLqodcea2uTUFdp1nnlh4eW0QPlWRodoz3RWG9faAcKDQQVjd2xWg_WaCPrJcclSFKgRL7fr_EHzzZNiNWokAuZ2eGRt-7lpFI2mGKXX1YU8g6-I8r7EV_4G6VdlAarlx9YJQuVWW36W-KoYCqaiVY0-INC42ZfSSRo0Cmys6LFVV59N8TZ0pQj6whgN0ab5bNmgtIVN9cbiID6Yvsf-rBZim70q-1S6rx1BXDD61c0DiBws_0ZuZGX5rr8n8mi6e_IIt6ZGZnhASvAZ338CXNStH9-I6_S5tmax9C76AjUvBZDRhMeQHuqJ9E1gjeXrh-0sfWRRpEzixSFPqR7HbfayWklFxNjwTzzeoXnZqyFAG1l49xmN49j9zrplgzLmYcYU6oPpcqBSqS-YanXWxqet7OHZbN78I79v6EC-ZziTEtTf2LXInqoiC2vKsGZ8Io-_Mz2vuzkYSTUV4LkacpSdQU3nlHfXmoRHGSVCuNdKbNib0_203OPd2W3ek92jWtjoC_XzoGRMfIfex9v4KqSjkcLKqri-xPoNaEvFz6m00]--></g></svg>