<svg xmlns="http://www.w3.org/2000/svg" xmlns:xlink="http://www.w3.org/1999/xlink" contentStyleType="text/css" data-diagram-type="DESCRIPTION" height="835px" preserveAspectRatio="none" style="width:2919px;height:835px;background:#FFFFFF;" version="1.1" viewBox="0 0 2919 835" width="2919px" zoomAndPan="magnify"><title>CMD-resume - resume deep internal flow (observed) (LOD2: Code Detail)</title><defs/><g><g class="title" data-source-line="8"><text fill="#000000" font-family="Arial" font-size="22" font-weight="bold" lengthAdjust="spacing" textLength="759.1289" x="1075.6817" y="35.6357">CMD-resume - resume deep internal flow (observed) (LOD2: Code Detail)</text></g><!--entity NOTE_ANCHOR--><!--entity main_entry--><g class="entity" data-entity="main_entry" data-source-line="16" data-uid="ent0006" id="entity_main_entry"><rect fill="#E6F3FF" height="52.1973" rx="2.5" ry="2.5" style="stroke:#000000;stroke-width:1;" width="123.4824" x="1286.3" y="150.7979"/><text fill="#000000" font-family="Arial" font-size="14" lengthAdjust="spacing" textLength="69.2549" x="1296.3" y="173.9297">main_entry</text><text fill="#000000" font-family="Arial" font-size="14" lengthAdjust="spacing" textLength="103.4824" x="1296.3" y="190.0283">maestro/main.py</text></g><!--entity handle_resume_session--><g class="entity" data-entity="handle_resume_session" data-source-line="17" data-uid="ent0007" id="entity_handle_resume_session"><rect fill="#E6F3FF" height="52.1973" rx="2.5" ry="2.5" style="stroke:#000000;stroke-width:1;" width="272.9023" x="1211.59" y="279.2679"/><text fill="#000000" font-family="Arial" font-size="14" lengthAdjust="spacing" textLength="151.7646" x="1221.59" y="302.3997">handle_resume_session</text><text fill="#000000" font-family="Arial" font-size="14" lengthAdjust="spacing" textLength="252.9023" x="1221.59" y="318.4983">maestro/modules/command_handlers.py</text></g><!--entity load_session--><g class="entity" data-entity="load_session" data-source-line="18" data-uid="ent0008" id="entity_load_session"><rect fill="#E6F3FF" height="52.1973" rx="2.5" ry="2.5" style="stroke:#000000;stroke-width:1;" width="272.9023" x="110.59" y="528.5679"/><text fill="#000000" font-family="Arial" font-size="14" lengthAdjust="spacing" textLength="81.7236" x="120.59" y="551.6997">load_session</text><text fill="#000000" font-family="Arial" font-size="14" lengthAdjust="spacing" textLength="252.9023" x="120.59" y="567.7983">maestro/modules/command_handlers.py</text></g><!--entity save_session--><g class="entity" data-entity="save_session" data-source-line="19" data-uid="ent0009" id="entity_save_session"><rect fill="#E6F3FF" height="52.1973" rx="2.5" ry="2.5" style="stroke:#000000;stroke-width:1;" width="272.9023" x="418.59" y="528.5679"/><text fill="#000000" font-family="Arial" font-size="14" lengthAdjust="spacing" textLength="84.8271" x="428.59" y="551.6997">save_session</text><text fill="#000000" font-family="Arial" font-size="14" lengthAdjust="spacing" textLength="252.9023" x="428.59" y="567.7983">maestro/modules/command_handlers.py</text></g><!--entity update_subtask_summary_paths--><g class="entity" data-entity="update_subtask_summary_paths" data-source-line="20" data-uid="ent0010" id="entity_update_subtask_summary_paths"><rect fill="#E6F3FF" height="52.1973" rx="2.5" ry="2.5" style="stroke:#000000;stroke-width:1;" width="272.9023" x="749.59" y="403.9179"/><text fill="#000000" font-family="Arial" font-size="14" lengthAdjust="spacing" textLength="206.2334" x="759.59" y="427.0497">update_subtask_summary_paths</text><text fill="#000000" font-family="Arial" font-size="14" lengthAdjust="spacing" textLength="252.9023" x="759.59" y="443.1483">maestro/modules/command_handlers.py</text></g><!--entity has_legacy_plan--><g class="entity" data-entity="has_legacy_plan" data-source-line="21" data-uid="ent0011" id="entity_has_legacy_plan"><rect fill="#E6F3FF" height="52.1973" rx="2.5" ry="2.5" style="stroke:#000000;stroke-width:1;" width="272.9023" x="1057.59" y="403.9179"/><text fill="#000000" font-family="Arial" font-size="14" lengthAdjust="spacing" textLength="105.082" x="1067.59" y="427.0497">has_legacy_plan</text><text fill="#000000" font-family="Arial" font-size="14" lengthAdjust="spacing" textLength="252.9023" x="1067.59" y="443.1483">maestro/modules/command_handlers.py</text></g><!--entity migrate_session_if_needed--><g class="entity" data-entity="migrate_session_if_needed" data-source-line="22" data-uid="ent0012" id="entity_migrate_session_if_needed"><rect fill="#E6F3FF" height="52.1973" rx="2.5" ry="2.5" style="stroke:#000000;stroke-width:1;" width="272.9023" x="1365.59" y="403.9179"/><text fill="#000000" font-family="Arial" font-size="14" lengthAdjust="spacing" textLength="171.2266" x="1375.59" y="427.0497">migrate_session_if_needed</text><text fill="#000000" font-family="Arial" font-size="14" lengthAdjust="spacing" textLength="252.9023" x="1375.59" y="443.1483">maestro/modules/command_handlers.py</text></g><!--entity load_rules--><g class="entity" data-entity="load_rules" data-source-line="23" data-uid="ent0013" id="entity_load_rules"><rect fill="#E6F3FF" height="52.1973" rx="2.5" ry="2.5" style="stroke:#000000;stroke-width:1;" width="272.9023" x="726.59" y="528.5679"/><text fill="#000000" font-family="Arial" font-size="14" lengthAdjust="spacing" textLength="64.5996" x="736.59" y="551.6997">load_rules</text><text fill="#000000" font-family="Arial" font-size="14" lengthAdjust="spacing" textLength="252.9023" x="736.59" y="567.7983">maestro/modules/command_handlers.py</text></g><!--entity get_maestro_dir--><g class="entity" data-entity="get_maestro_dir" data-source-line="24" data-uid="ent0014" id="entity_get_maestro_dir"><rect fill="#E6F3FF" height="52.1973" rx="2.5" ry="2.5" style="stroke:#000000;stroke-width:1;" width="272.9023" x="2640.59" y="640.7579"/><text fill="#000000" font-family="Arial" font-size="14" lengthAdjust="spacing" textLength="101.165" x="2650.59" y="663.8897">get_maestro_dir</text><text fill="#000000" font-family="Arial" font-size="14" lengthAdjust="spacing" textLength="252.9023" x="2650.59" y="679.9883">maestro/modules/command_handlers.py</text></g><!--entity build_prompt--><g class="entity" data-entity="build_prompt" data-source-line="25" data-uid="ent0015" id="entity_build_prompt"><rect fill="#E6F3FF" height="52.1973" rx="2.5" ry="2.5" style="stroke:#000000;stroke-width:1;" width="272.9023" x="1673.59" y="403.9179"/><text fill="#000000" font-family="Arial" font-size="14" lengthAdjust="spacing" textLength="80.9375" x="1683.59" y="427.0497">build_prompt</text><text fill="#000000" font-family="Arial" font-size="14" lengthAdjust="spacing" textLength="252.9023" x="1683.59" y="443.1483">maestro/modules/command_handlers.py</text></g><!--entity save_prompt_for_traceability--><g class="entity" data-entity="save_prompt_for_traceability" data-source-line="26" data-uid="ent0016" id="entity_save_prompt_for_traceability"><rect fill="#E6F3FF" height="52.1973" rx="2.5" ry="2.5" style="stroke:#000000;stroke-width:1;" width="272.9023" x="1034.59" y="528.5679"/><text fill="#000000" font-family="Arial" font-size="14" lengthAdjust="spacing" textLength="179.7578" x="1044.59" y="551.6997">save_prompt_for_traceability</text><text fill="#000000" font-family="Arial" font-size="14" lengthAdjust="spacing" textLength="252.9023" x="1044.59" y="567.7983">maestro/modules/command_handlers.py</text></g><!--entity save_ai_output--><g class="entity" data-entity="save_ai_output" data-source-line="27" data-uid="ent0017" id="entity_save_ai_output"><rect fill="#E6F3FF" height="52.1973" rx="2.5" ry="2.5" style="stroke:#000000;stroke-width:1;" width="272.9023" x="1981.59" y="403.9179"/><text fill="#000000" font-family="Arial" font-size="14" lengthAdjust="spacing" textLength="94.9648" x="1991.59" y="427.0497">save_ai_output</text><text fill="#000000" font-family="Arial" font-size="14" lengthAdjust="spacing" textLength="252.9023" x="1991.59" y="443.1483">maestro/modules/command_handlers.py</text></g><!--entity get_engine--><g class="entity" data-entity="get_engine" data-source-line="28" data-uid="ent0018" id="entity_get_engine"><rect fill="#E6F3FF" height="52.1973" rx="2.5" ry="2.5" style="stroke:#000000;stroke-width:1;" width="142.1787" x="2289.95" y="403.9179"/><text fill="#000000" font-family="Arial" font-size="14" lengthAdjust="spacing" textLength="69.2891" x="2299.95" y="427.0497">get_engine</text><text fill="#000000" font-family="Arial" font-size="14" lengthAdjust="spacing" textLength="122.1787" x="2299.95" y="443.1483">maestro/engines.py</text></g><!--entity session_class--><g class="entity" data-entity="session_class" data-source-line="29" data-uid="ent0019" id="entity_session_class"><rect fill="#FFFFFF" height="46.0986" rx="2.5" ry="2.5" style="stroke:#000000;stroke-width:1;" width="127.1514" x="303.46" y="406.9679"/><rect fill="#FFFFFF" height="10" style="stroke:#000000;stroke-width:1;" width="15" x="410.6114" y="411.9679"/><rect fill="#FFFFFF" height="2" style="stroke:#000000;stroke-width:1;" width="4" x="408.6114" y="413.9679"/><rect fill="#FFFFFF" height="2" style="stroke:#000000;stroke-width:1;" width="4" x="408.6114" y="417.9679"/><text fill="#000000" font-family="Arial" font-size="14" lengthAdjust="spacing" textLength="87.1514" x="318.46" y="440.0997">session_class</text></g><!--entity subtask_class--><g class="entity" data-entity="subtask_class" data-source-line="30" data-uid="ent0020" id="entity_subtask_class"><rect fill="#FFFFFF" height="46.0986" rx="2.5" ry="2.5" style="stroke:#000000;stroke-width:1;" width="127.9307" x="217.07" y="282.3179"/><rect fill="#FFFFFF" height="10" style="stroke:#000000;stroke-width:1;" width="15" x="325.0007" y="287.3179"/><rect fill="#FFFFFF" height="2" style="stroke:#000000;stroke-width:1;" width="4" x="323.0007" y="289.3179"/><rect fill="#FFFFFF" height="2" style="stroke:#000000;stroke-width:1;" width="4" x="323.0007" y="293.3179"/><text fill="#000000" font-family="Arial" font-size="14" lengthAdjust="spacing" textLength="87.9307" x="232.07" y="315.4497">subtask_class</text></g><!--entity plan_node_class--><g class="entity" data-entity="plan_node_class" data-source-line="31" data-uid="ent0021" id="entity_plan_node_class"><rect fill="#FFFFFF" height="46.0986" rx="2.5" ry="2.5" style="stroke:#000000;stroke-width:1;" width="145.082" x="380.5" y="282.3179"/><rect fill="#FFFFFF" height="10" style="stroke:#000000;stroke-width:1;" width="15" x="505.582" y="287.3179"/><rect fill="#FFFFFF" height="2" style="stroke:#000000;stroke-width:1;" width="4" x="503.582" y="289.3179"/><rect fill="#FFFFFF" height="2" style="stroke:#000000;stroke-width:1;" width="4" x="503.582" y="293.3179"/><text fill="#000000" font-family="Arial" font-size="14" lengthAdjust="spacing" textLength="105.082" x="395.5" y="315.4497">plan_node_class</text></g><!--entity engine_error--><g class="entity" data-entity="engine_error" data-source-line="32" data-uid="ent0022" id="entity_engine_error"><rect fill="#FFFFFF" height="46.0986" rx="2.5" ry="2.5" style="stroke:#000000;stroke-width:1;" width="119.3857" x="1444.35" y="153.8479"/><rect fill="#FFFFFF" height="10" style="stroke:#000000;stroke-width:1;" width="15" x="1543.7357" y="158.8479"/><rect fill="#FFFFFF" height="2" style="stroke:#000000;stroke-width:1;" width="4" x="1541.7357" y="160.8479"/><rect fill="#FFFFFF" height="2" style="stroke:#000000;stroke-width:1;" width="4" x="1541.7357" y="164.8479"/><text fill="#000000" font-family="Arial" font-size="14" lengthAdjust="spacing" textLength="79.3857" x="1459.35" y="186.9797">engine_error</text></g><!--entity file_system--><g class="entity" data-entity="file_system" data-source-line="33" data-uid="ent0023" id="entity_file_system"><ellipse cx="2588.0403" cy="761.9579" fill="#FFFFFF" rx="8" ry="8" style="stroke:#000000;stroke-width:1;"/><path d="M2588.0403,769.9579 L2588.0403,796.9579 M2575.0403,777.9579 L2601.0403,777.9579 M2588.0403,796.9579 L2575.0403,811.9579 M2588.0403,796.9579 L2601.0403,811.9579" fill="none" style="stroke:#000000;stroke-width:1;"/><text fill="#000000" font-family="Arial" font-size="14" lengthAdjust="spacing" textLength="70.0205" x="2553.03" y="827.0897">file_system</text></g><!--entity external_ai--><g class="entity" data-entity="external_ai" data-source-line="34" data-uid="ent0024" id="entity_external_ai"><ellipse cx="2501.0346" cy="400.4679" fill="#FFFFFF" rx="8" ry="8" style="stroke:#000000;stroke-width:1;"/><path d="M2501.0346,408.4679 L2501.0346,435.4679 M2488.0346,416.4679 L2514.0346,416.4679 M2501.0346,435.4679 L2488.0346,450.4679 M2501.0346,435.4679 L2514.0346,450.4679" fill="none" style="stroke:#000000;stroke-width:1;"/><text fill="#000000" font-family="Arial" font-size="14" lengthAdjust="spacing" textLength="68.4893" x="2466.79" y="465.5997">external_ai</text></g><!--entity docs_sessions_dir--><g class="entity" data-entity="docs_sessions_dir" data-source-line="35" data-uid="ent0025" id="entity_docs_sessions_dir"><path d="M795.45,654.3079 C795.45,644.3079 863.0359,644.3079 863.0359,644.3079 C863.0359,644.3079 930.6219,644.3079 930.6219,654.3079 L930.6219,679.4065 C930.6219,689.4065 863.0359,689.4065 863.0359,689.4065 C863.0359,689.4065 795.45,689.4065 795.45,679.4065 L795.45,654.3079" fill="#FFE6E6" style="stroke:#000000;stroke-width:1;"/><path d="M795.45,654.3079 C795.45,664.3079 863.0359,664.3079 863.0359,664.3079 C863.0359,664.3079 930.6219,664.3079 930.6219,654.3079" fill="none" style="stroke:#000000;stroke-width:1;"/><text fill="#000000" font-family="Arial" font-size="14" lengthAdjust="spacing" textLength="115.1719" x="805.45" y="681.4397">docs_sessions_dir</text></g><!--link NOTE_ANCHOR to GMN3--><!--link main_entry to handle_resume_session--><g class="link" data-entity-1="main_entry" data-entity-2="handle_resume_session" data-source-line="36" data-uid="lnk26" id="link_main_entry_handle_resume_session"><path d="M1348.04,203.4879 C1348.04,225.4279 1348.04,250.8779 1348.04,272.8079" fill="none" id="main_entry-to-handle_resume_session" style="stroke:#333333;stroke-width:1;"/><polygon fill="#333333" points="1348.04,278.8079,1352.04,269.8079,1348.04,273.8079,1344.04,269.8079,1348.04,278.8079" style="stroke:#333333;stroke-width:1;"/></g><!--link handle_resume_session to load_session--><g class="link" data-entity-1="handle_resume_session" data-entity-2="load_session" data-source-line="37" data-uid="lnk27" id="link_handle_resume_session_load_session"><path d="M1211.21,306.9179 C1058.13,310.9379 804.31,327.8479 596.04,391.4679 C525.11,413.1379 515.13,436.9479 448.04,468.5679 C402.79,489.8879 356.3135,509.5765 316.5335,525.8465" fill="none" id="handle_resume_session-to-load_session" style="stroke:#333333;stroke-width:1;"/><polygon fill="#333333" points="310.98,528.1179,320.8244,528.4131,315.6079,526.225,317.7959,521.0085,310.98,528.1179" style="stroke:#333333;stroke-width:1;"/></g><!--link load_session to docs_sessions_dir--><g class="link" data-entity-1="load_session" data-entity-2="docs_sessions_dir" data-source-line="38" data-uid="lnk28" id="link_load_session_docs_sessions_dir"><path d="M383.75,580.1179 C511.35,602.9479 690.5638,635.0012 789.2238,652.6512" fill="none" id="load_session-to-docs_sessions_dir" style="stroke:#333333;stroke-width:1;"/><polygon fill="#333333" points="795.13,653.7079,786.9751,648.1855,790.2081,652.8273,785.5662,656.0604,795.13,653.7079" style="stroke:#333333;stroke-width:1;"/></g><!--link handle_resume_session to update_subtask_summary_paths--><g class="link" data-entity-1="handle_resume_session" data-entity-2="update_subtask_summary_paths" data-source-line="39" data-uid="lnk29" id="link_handle_resume_session_update_subtask_summary_paths"><path d="M1251.75,331.9279 C1172.68,352.9179 1067.0392,380.9685 987.9992,401.9485" fill="none" id="handle_resume_session-to-update_subtask_summary_paths" style="stroke:#333333;stroke-width:1;"/><polygon fill="#333333" points="982.2,403.4879,991.925,405.045,987.0327,402.2051,989.8726,397.3128,982.2,403.4879" style="stroke:#333333;stroke-width:1;"/></g><!--link handle_resume_session to has_legacy_plan--><g class="link" data-entity-1="handle_resume_session" data-entity-2="has_legacy_plan" data-source-line="40" data-uid="lnk30" id="link_handle_resume_session_has_legacy_plan"><path d="M1316.13,331.7779 C1289.79,352.7579 1257.263,378.6594 1230.863,399.6894" fill="none" id="handle_resume_session-to-has_legacy_plan" style="stroke:#333333;stroke-width:1;"/><polygon fill="#333333" points="1226.17,403.4279,1235.7018,400.9489,1230.0808,400.3125,1230.7172,394.6916,1226.17,403.4279" style="stroke:#333333;stroke-width:1;"/></g><!--link handle_resume_session to migrate_session_if_needed--><g class="link" data-entity-1="handle_resume_session" data-entity-2="migrate_session_if_needed" data-source-line="41" data-uid="lnk31" id="link_handle_resume_session_migrate_session_if_needed"><path d="M1379.95,331.7779 C1406.29,352.7579 1438.8063,378.6603 1465.2163,399.6903" fill="none" id="handle_resume_session-to-migrate_session_if_needed" style="stroke:#333333;stroke-width:1;"/><polygon fill="#333333" points="1469.91,403.4279,1465.3611,394.6924,1465.9986,400.3132,1460.3778,400.9507,1469.91,403.4279" style="stroke:#333333;stroke-width:1;"/></g><!--link handle_resume_session to load_rules--><g class="link" data-entity-1="handle_resume_session" data-entity-2="load_rules" data-source-line="42" data-uid="lnk32" id="link_handle_resume_session_load_rules"><path d="M1211.18,315.0579 C1032.84,327.7979 739.72,354.1579 707.04,391.4679 C684.46,417.2379 689.55,439.0979 707.04,468.5679 C723.26,495.8879 746.2384,512.4702 774.4184,525.5602" fill="none" id="handle_resume_session-to-load_rules" style="stroke:#333333;stroke-width:1;"/><polygon fill="#333333" points="779.86,528.0879,773.3828,520.6686,775.3254,525.9814,770.0125,527.924,779.86,528.0879" style="stroke:#333333;stroke-width:1;"/></g><!--link load_rules to docs_sessions_dir--><g class="link" data-entity-1="load_rules" data-entity-2="docs_sessions_dir" data-source-line="43" data-uid="lnk33" id="link_load_rules_docs_sessions_dir"><path d="M863.04,581.2179 C863.04,600.2979 863.04,620.0779 863.04,638.1579" fill="none" id="load_rules-to-docs_sessions_dir" style="stroke:#333333;stroke-width:1;"/><polygon fill="#333333" points="863.04,644.1579,867.04,635.1579,863.04,639.1579,859.04,635.1579,863.04,644.1579" style="stroke:#333333;stroke-width:1;"/></g><!--link handle_resume_session to session_class--><g class="link" data-entity-1="handle_resume_session" data-entity-2="session_class" data-source-line="44" data-uid="lnk34" id="link_handle_resume_session_session_class"><path d="M1211.31,306.7579 C1031.48,309.8879 707.56,325.1779 440.54,391.4679 C425.78,395.1279 415.77,398.3672 402.57,404.1872" fill="none" id="handle_resume_session-to-session_class" style="stroke:#333333;stroke-width:1;"/><polygon fill="#333333" points="397.08,406.6079,406.9288,406.637,401.655,404.5907,403.7013,399.3169,397.08,406.6079" style="stroke:#333333;stroke-width:1;"/></g><!--link handle_resume_session to session_class--><g class="link" data-entity-1="handle_resume_session" data-entity-2="session_class" data-source-line="55" data-uid="lnk45" id="link_handle_resume_session_session_class"><path d="M1211.37,307.2479 C1037.81,311.3479 730.69,328.1179 475.54,391.4679 C460.78,395.1279 450.8571,398.5752 436.1871,404.3952" fill="none" id="handle_resume_session-to-session_class-1" style="stroke:#333333;stroke-width:1;"/><polygon fill="#333333" points="430.61,406.6079,440.4508,407.007,435.2576,404.764,437.5006,399.5709,430.61,406.6079" style="stroke:#333333;stroke-width:1;"/></g><!--link handle_resume_session to get_maestro_dir--><g class="link" data-entity-1="handle_resume_session" data-entity-2="get_maestro_dir" data-source-line="45" data-uid="lnk35" id="link_handle_resume_session_get_maestro_dir"><path d="M1484.89,308.4379 C1792.61,314.0979 2519.69,333.4979 2614.04,391.4679 C2708.46,449.4779 2753.2083,578.5512 2768.9883,634.7612" fill="none" id="handle_resume_session-to-get_maestro_dir" style="stroke:#333333;stroke-width:1;"/><polygon fill="#333333" points="2770.61,640.5379,2772.0286,630.7917,2769.2586,635.7239,2764.3263,632.954,2770.61,640.5379" style="stroke:#333333;stroke-width:1;"/></g><!--link get_maestro_dir to file_system--><g class="link" data-entity-1="get_maestro_dir" data-entity-2="file_system" data-source-line="46" data-uid="lnk36" id="link_get_maestro_dir_file_system"><path d="M2737.88,693.2779 C2704.14,715.1679 2660.9138,743.2227 2628.3538,764.3427" fill="none" id="get_maestro_dir-to-file_system" style="stroke:#333333;stroke-width:1;"/><polygon fill="#333333" points="2623.32,767.6079,2633.0474,766.066,2627.5148,764.8869,2628.6939,759.3543,2623.32,767.6079" style="stroke:#333333;stroke-width:1;"/></g><!--link handle_resume_session to build_prompt--><g class="link" data-entity-1="handle_resume_session" data-entity-2="build_prompt" data-source-line="47" data-uid="lnk37" id="link_handle_resume_session_build_prompt"><path d="M1444.33,331.9279 C1523.4,352.9179 1629.0409,380.9684 1708.0709,401.9484" fill="none" id="handle_resume_session-to-build_prompt" style="stroke:#333333;stroke-width:1;"/><polygon fill="#333333" points="1713.87,403.4879,1706.1976,397.3125,1709.0374,402.2049,1704.145,405.0447,1713.87,403.4879" style="stroke:#333333;stroke-width:1;"/></g><!--link handle_resume_session to get_engine--><g class="link" data-entity-1="handle_resume_session" data-entity-2="get_engine" data-source-line="48" data-uid="lnk38" id="link_handle_resume_session_get_engine"><path d="M1484.88,305.9479 C1667.2,308.3379 1998.58,322.9379 2272.04,391.4679 C2283.91,394.4379 2290.6855,396.5338 2302.2655,401.2038" fill="none" id="handle_resume_session-to-get_engine" style="stroke:#333333;stroke-width:1;"/><polygon fill="#333333" points="2307.83,403.4479,2300.9792,396.372,2303.1929,401.5778,2297.9871,403.7914,2307.83,403.4479" style="stroke:#333333;stroke-width:1;"/></g><!--link handle_resume_session to save_prompt_for_traceability--><g class="link" data-entity-1="handle_resume_session" data-entity-2="save_prompt_for_traceability" data-source-line="49" data-uid="lnk39" id="link_handle_resume_session_save_prompt_for_traceability"><path d="M1211.37,315.8379 C1039.53,329.1679 763.07,355.8579 732.04,391.4679 C709.53,417.2979 710.24,442.1279 732.04,468.5679 C741.86,480.4779 903.1726,509.4654 1028.3226,530.4554" fill="none" id="handle_resume_session-to-save_prompt_for_traceability" style="stroke:#333333;stroke-width:1;"/><polygon fill="#333333" points="1034.24,531.4479,1026.0256,526.0143,1029.3089,530.6208,1024.7023,533.9041,1034.24,531.4479" style="stroke:#333333;stroke-width:1;"/></g><!--link save_prompt_for_traceability to docs_sessions_dir--><g class="link" data-entity-1="save_prompt_for_traceability" data-entity-2="docs_sessions_dir" data-source-line="50" data-uid="lnk40" id="link_save_prompt_for_traceability_docs_sessions_dir"><path d="M1099.6,581.2179 C1046.56,600.1979 980.6092,623.7964 930.1092,641.8664" fill="none" id="save_prompt_for_traceability-to-docs_sessions_dir" style="stroke:#333333;stroke-width:1;"/><polygon fill="#333333" points="924.46,643.8879,934.2815,644.6219,929.1677,642.2033,931.5862,637.0896,924.46,643.8879" style="stroke:#333333;stroke-width:1;"/></g><!--link handle_resume_session to external_ai--><g class="link" data-entity-1="handle_resume_session" data-entity-2="external_ai" data-source-line="51" data-uid="lnk41" id="link_handle_resume_session_external_ai"><path d="M1484.6,307.7379 C1736.02,311.7979 2261.44,327.8679 2432.54,391.4679 C2444.39,395.8679 2450.9844,400.4432 2461.6344,407.9432" fill="none" id="handle_resume_session-to-external_ai" style="stroke:#333333;stroke-width:1;"/><polygon fill="#333333" points="2466.54,411.3979,2461.4847,402.9454,2462.452,408.519,2456.8784,409.4863,2466.54,411.3979" style="stroke:#333333;stroke-width:1;"/></g><!--link external_ai to handle_resume_session--><g class="link" data-entity-1="external_ai" data-entity-2="handle_resume_session" data-source-line="52" data-uid="lnk42" id="link_external_ai_handle_resume_session"><path d="M2466.5,391.0879 C2289.8,326.1379 1748.6594,311.06 1490.8294,307.53" fill="none" id="external_ai-to-handle_resume_session" style="stroke:#333333;stroke-width:1;"/><polygon fill="#333333" points="1484.83,307.4479,1493.7744,311.5707,1489.8295,307.5163,1493.8839,303.5714,1484.83,307.4479" style="stroke:#333333;stroke-width:1;"/></g><!--link handle_resume_session to save_ai_output--><g class="link" data-entity-1="handle_resume_session" data-entity-2="save_ai_output" data-source-line="53" data-uid="lnk43" id="link_handle_resume_session_save_ai_output"><path d="M1484.79,321.2079 C1610.05,335.7579 1800.32,360.2779 1964.04,391.4679 C1982.15,394.9179 1995.4901,397.751 2013.9401,402.101" fill="none" id="handle_resume_session-to-save_ai_output" style="stroke:#333333;stroke-width:1;"/><polygon fill="#333333" points="2019.78,403.4779,2011.9381,397.5193,2014.9134,402.3304,2010.1023,405.3058,2019.78,403.4779" style="stroke:#333333;stroke-width:1;"/></g><!--link handle_resume_session to file_system--><g class="link" data-entity-1="handle_resume_session" data-entity-2="file_system" data-source-line="54" data-uid="lnk44" id="link_handle_resume_session_file_system"><path d="M1484.78,306.2479 C1784.42,307.3579 2478.24,317.9279 2553.04,391.4679 C2650.98,487.7579 2620.0847,667.1569 2600.1847,746.7869" fill="none" id="handle_resume_session-to-file_system" style="stroke:#333333;stroke-width:1;"/><polygon fill="#333333" points="2598.73,752.6079,2604.7927,744.8462,2599.9422,747.757,2597.0314,742.9066,2598.73,752.6079" style="stroke:#333333;stroke-width:1;"/></g><!--link handle_resume_session to save_session--><g class="link" data-entity-1="handle_resume_session" data-entity-2="save_session" data-source-line="56" data-uid="lnk46" id="link_handle_resume_session_save_session"><path d="M1211.16,311.8579 C1043.67,320.6279 771.56,342.1479 684.04,391.4679 C627.3,423.4379 589.0673,485.949 569.9173,522.959" fill="none" id="handle_resume_session-to-save_session" style="stroke:#333333;stroke-width:1;"/><polygon fill="#333333" points="567.16,528.2879,574.8486,522.1327,569.4578,523.8471,567.7434,518.4563,567.16,528.2879" style="stroke:#333333;stroke-width:1;"/></g><!--link save_session to docs_sessions_dir--><g class="link" data-entity-1="save_session" data-entity-2="docs_sessions_dir" data-source-line="57" data-uid="lnk47" id="link_save_session_docs_sessions_dir"><path d="M626.47,581.2179 C679.52,600.1979 745.4709,623.7961 795.9609,641.8661" fill="none" id="save_session-to-docs_sessions_dir" style="stroke:#333333;stroke-width:1;"/><polygon fill="#333333" points="801.61,643.8879,794.4842,637.0891,796.9024,642.203,791.7885,644.6213,801.61,643.8879" style="stroke:#333333;stroke-width:1;"/></g><!--link session_class to load_session--><g class="link" data-entity-1="session_class" data-entity-2="load_session" data-source-line="58" data-uid="lnk48" id="link_session_class_load_session"><path d="M345.03,453.5079 C324.32,474.6679 297.5667,502.0297 276.0067,524.0597" fill="none" id="session_class-to-load_session" style="stroke:#333333;stroke-width:1;"/><polygon fill="#333333" points="271.81,528.3479,280.9637,524.7134,275.3072,524.7744,275.2462,519.1179,271.81,528.3479" style="stroke:#333333;stroke-width:1;"/></g><!--link session_class to save_session--><g class="link" data-entity-1="session_class" data-entity-2="save_session" data-source-line="59" data-uid="lnk49" id="link_session_class_save_session"><path d="M401.52,453.5079 C433.85,474.6079 477.1145,502.83 510.8745,524.85" fill="none" id="session_class-to-save_session" style="stroke:#333333;stroke-width:1;"/><polygon fill="#333333" points="515.9,528.1279,510.547,519.8607,511.7121,525.3963,506.1765,526.5614,515.9,528.1279" style="stroke:#333333;stroke-width:1;"/></g><!--link subtask_class to session_class--><g class="link" data-entity-1="subtask_class" data-entity-2="session_class" data-source-line="60" data-uid="lnk50" id="link_subtask_class_session_class"><path d="M296.81,328.8679 C312.33,350.9879 332.4356,379.665 347.9156,401.745" fill="none" id="subtask_class-to-session_class" style="stroke:#333333;stroke-width:1;"/><polygon fill="#333333" points="351.36,406.6579,349.4687,396.9923,348.4897,402.5638,342.9182,401.5848,351.36,406.6579" style="stroke:#333333;stroke-width:1;"/></g><!--link plan_node_class to session_class--><g class="link" data-entity-1="plan_node_class" data-entity-2="session_class" data-source-line="61" data-uid="lnk51" id="link_plan_node_class_session_class"><path d="M437.26,328.8679 C421.75,350.9879 401.6344,379.665 386.1544,401.745" fill="none" id="plan_node_class-to-session_class" style="stroke:#333333;stroke-width:1;"/><polygon fill="#333333" points="382.71,406.6579,391.1518,401.5848,385.5803,402.5638,384.6013,396.9923,382.71,406.6579" style="stroke:#333333;stroke-width:1;"/></g><!--link docs_sessions_dir to file_system--><g class="link" data-entity-1="docs_sessions_dir" data-entity-2="file_system" data-source-line="62" data-uid="lnk52" id="link_docs_sessions_dir_file_system"><path d="M930.93,672.6879 C1219.45,693.1979 2332.9151,772.3723 2546.6751,787.5723" fill="none" id="docs_sessions_dir-to-file_system" style="stroke:#333333;stroke-width:1;"/><polygon fill="#333333" points="2552.66,787.9979,2543.9664,783.3696,2547.6726,787.6432,2543.399,791.3494,2552.66,787.9979" style="stroke:#333333;stroke-width:1;"/></g><!--SRC=[dLV1Rjiu4BtpAxZffGqG2vi2ENI10bbRsNQHs8isjxGWQ75i4wP8WQISzQ_iQRzjlsI7afrGDgNQ5GpO7BvvCoH7Z-DV_0fAe9NYKXEtbhhYbfTqpelrqffQYx5Hnj8tTyqJ8GGiUAtydT5-of7XragkelbRQytpplbzyqIJK-FXTsC5s1rYt3o7Y5GIY29UUWLq_32vik1g37v5Tpy4G4Mbzc0rLtIXp3DzQ-OEx0R4E_hsVZQv_a37HW2TWETIlIEaTb1m1_I2ws9bx0NbZavdZpcxdOu_pRwGbKHqRD2O6hLokVBKB3epb5vUVZMrBU33vILzUXAcSDcpiUkGYCisrvcqML6Ax3NrKO79ZBQyLFGizFVl1BIW8HT2B1IUwoNkoKM9vyX0UxlzfaiEpbkJ1TkesZOhUvsdR_ARk_Tuff7tYckXWBN1c0FdfD4HaH6r0fSLfYmHoLguTNlof7igZZ9Sd4yVUwLO7T_yHDAnLugrhWJtYAZddhirVYEDtRAA-vKxFSeGI_ea75Emv0LY53_h33gEAUvIBcsJJBje9XTC0mWGfqVffUWzRHlupZphnYV5k0JFTanCI7iwxO5ZYdjUIoLOPKrP-TE9Ow_UscodsS9OvYqlWC-badvxPgtsiFH6vPAPsbUrFpFEYr_V2O1UIWslhEsuizUjwOK0urL6e_nWQhlAAHHthWqQMphGtKiJGMDB30qbppIAP0G-iCNmDZq6U5UrmXyR22yytZeN2ucQvhREGzbWel4U0d-tDmxkMKlpEYRutlDvSy44WT-_CIwKNuCziePxBh_9RqYarLTN7zFgIjAQ6_2nN9AETeRPex03J4FYDU1s84K3o5uv-T7o6eKWaLYSkxHkqVNZ3eI370f9mCI5qSyKAyKF0hRLE9JzW1wGGR4uTv_YYev-_rHXTjLb07ZQXfvwXF55JpgtVdepEhp7RzJnT3T0B569F0zKAO4u5eR3FMbRKGMBP2UQRx1prKql6iROZsv-pVQzSHOwvT1TxdSgZ4TLZNreoeZjveaKfQ37fawtsji_lmXVoFw_V_wbzo2MOEadZEZsgvZjkdawGLrzu7OjpBEc5LvU4lS4buljVvH1-uyWTDI_qSqr_ase3FMszYkAVR-ZVtv5KlmyFOr66Nu-F_nrdp_aqyVRny-pARlF9t_aNyAQaXFDhknT0xNrBbDDqgp0EfH1Dbrmtwra_6ACT-H_]--></g></svg>