<svg xmlns="http://www.w3.org/2000/svg" xmlns:xlink="http://www.w3.org/1999/xlink" contentStyleType="text/css" data-diagram-type="DESCRIPTION" height="676px" preserveAspectRatio="none" style="width:2048px;height:676px;background:#FFFFFF;" version="1.1" viewBox="0 0 2048 676" width="2048px" zoomAndPan="magnify"><title>CMD-init - init deep internal flow (observed) (LOD2: Code Detail)</title><defs/><g><g class="title" data-source-line="8"><text fill="#000000" font-family="Arial" font-size="22" font-weight="bold" lengthAdjust="spacing" textLength="668.5723" x="685.301" y="35.6357">CMD-init - init deep internal flow (observed) (LOD2: Code Detail)</text></g><!--entity NOTE_ANCHOR--><!--entity main_entry--><g class="entity" data-entity="main_entry" data-source-line="16" data-uid="ent0006" id="entity_main_entry"><rect fill="#E6F3FF" height="52.1973" rx="2.5" ry="2.5" style="stroke:#000000;stroke-width:1;" width="139.041" x="1184.83" y="149.6979"/><text fill="#000000" font-family="Arial" font-size="14" lengthAdjust="spacing" textLength="119.041" x="1194.83" y="172.8297">maestro.main.main</text><text fill="#000000" font-family="Arial" font-size="14" lengthAdjust="spacing" textLength="84.8066" x="1194.83" y="188.9283">maestro.main</text></g><!--entity create_parser--><g class="entity" data-entity="create_parser" data-source-line="17" data-uid="ent0007" id="entity_create_parser"><rect fill="#E6F3FF" height="52.1973" rx="2.5" ry="2.5" style="stroke:#000000;stroke-width:1;" width="191.958" x="1051.37" y="278.1679"/><text fill="#000000" font-family="Arial" font-size="14" lengthAdjust="spacing" textLength="124.5098" x="1061.37" y="301.2997">create_main_parser</text><text fill="#000000" font-family="Arial" font-size="14" lengthAdjust="spacing" textLength="171.958" x="1061.37" y="317.3983">maestro.modules.cli_parser</text></g><!--entity add_init_parser--><g class="entity" data-entity="add_init_parser" data-source-line="18" data-uid="ent0008" id="entity_add_init_parser"><rect fill="#E6F3FF" height="52.1973" rx="2.5" ry="2.5" style="stroke:#000000;stroke-width:1;" width="164.7168" x="1064.99" y="390.3679"/><text fill="#000000" font-family="Arial" font-size="14" lengthAdjust="spacing" textLength="96.5098" x="1074.99" y="413.4997">add_init_parser</text><text fill="#000000" font-family="Arial" font-size="14" lengthAdjust="spacing" textLength="144.7168" x="1074.99" y="429.5983">maestro.commands.init</text></g><!--entity handle_init_command--><g class="entity" data-entity="handle_init_command" data-source-line="19" data-uid="ent0009" id="entity_handle_init_command"><rect fill="#E6F3FF" height="52.1973" rx="2.5" ry="2.5" style="stroke:#000000;stroke-width:1;" width="164.7168" x="1277.99" y="278.1679"/><text fill="#000000" font-family="Arial" font-size="14" lengthAdjust="spacing" textLength="136.9785" x="1287.99" y="301.2997">handle_init_command</text><text fill="#000000" font-family="Arial" font-size="14" lengthAdjust="spacing" textLength="144.7168" x="1287.99" y="317.3983">maestro.commands.init</text></g><!--entity mkdir--><g class="entity" data-entity="mkdir" data-source-line="20" data-uid="ent0010" id="entity_mkdir"><rect fill="#E6F3FF" height="52.1973" rx="2.5" ry="2.5" style="stroke:#000000;stroke-width:1;" width="132.0547" x="1194.32" y="502.5579"/><text fill="#000000" font-family="Arial" font-size="14" lengthAdjust="spacing" textLength="112.0547" x="1204.32" y="525.6897">pathlib.Path.mkdir</text><text fill="#000000" font-family="Arial" font-size="14" lengthAdjust="spacing" textLength="41.2549" x="1204.32" y="541.7883">pathlib</text></g><!--entity check_exists--><g class="entity" data-entity="check_exists" data-source-line="21" data-uid="ent0011" id="entity_check_exists"><rect fill="#E6F3FF" height="52.1973" rx="2.5" ry="2.5" style="stroke:#000000;stroke-width:1;" width="133.6201" x="1361.54" y="502.5579"/><text fill="#000000" font-family="Arial" font-size="14" lengthAdjust="spacing" textLength="113.6201" x="1371.54" y="525.6897">pathlib.Path.exists</text><text fill="#000000" font-family="Arial" font-size="14" lengthAdjust="spacing" textLength="41.2549" x="1371.54" y="541.7883">pathlib</text></g><!--entity open_file--><g class="entity" data-entity="open_file" data-source-line="22" data-uid="ent0012" id="entity_open_file"><rect fill="#E6F3FF" height="52.1973" rx="2.5" ry="2.5" style="stroke:#000000;stroke-width:1;" width="98.6133" x="1530.04" y="502.5579"/><text fill="#000000" font-family="Arial" font-size="14" lengthAdjust="spacing" textLength="78.6133" x="1540.04" y="525.6897">builtins.open</text><text fill="#000000" font-family="Arial" font-size="14" lengthAdjust="spacing" textLength="43.5791" x="1540.04" y="541.7883">builtins</text></g><!--entity local_filesystem--><g class="entity" data-entity="local_filesystem" data-source-line="23" data-uid="ent0013" id="entity_local_filesystem"><path d="M1366.22,624.7579 C1366.22,614.7579 1428.3474,614.7579 1428.3474,614.7579 C1428.3474,614.7579 1490.4749,614.7579 1490.4749,624.7579 L1490.4749,649.8565 C1490.4749,659.8565 1428.3474,659.8565 1428.3474,659.8565 C1428.3474,659.8565 1366.22,659.8565 1366.22,649.8565 L1366.22,624.7579" fill="#FFE6E6" style="stroke:#000000;stroke-width:1;"/><path d="M1366.22,624.7579 C1366.22,634.7579 1428.3474,634.7579 1428.3474,634.7579 C1428.3474,634.7579 1490.4749,634.7579 1490.4749,624.7579" fill="none" style="stroke:#000000;stroke-width:1;"/><text fill="#000000" font-family="Arial" font-size="14" lengthAdjust="spacing" textLength="104.2549" x="1376.22" y="651.8897">Local Filesystem</text></g><!--entity force_gate_settings--><g class="entity" data-entity="force_gate_settings" data-source-line="24" data-uid="ent0014" id="entity_force_gate_settings"><rect fill="#FFFFFF" height="46.0986" rx="2.5" ry="2.5" style="stroke:#000000;stroke-width:1;" width="288.9785" x="1410.86" y="393.4179"/><rect fill="#FFFFFF" height="10" style="stroke:#000000;stroke-width:1;" width="15" x="1679.8385" y="398.4179"/><rect fill="#FFFFFF" height="2" style="stroke:#000000;stroke-width:1;" width="4" x="1677.8385" y="400.4179"/><rect fill="#FFFFFF" height="2" style="stroke:#000000;stroke-width:1;" width="4" x="1677.8385" y="404.4179"/><text fill="#000000" font-family="Arial" font-size="14" lengthAdjust="spacing" textLength="248.9785" x="1425.86" y="426.5497">args.force or not exists() for Settings.md</text></g><!--entity force_gate_repofules--><g class="entity" data-entity="force_gate_repofules" data-source-line="25" data-uid="ent0015" id="entity_force_gate_repofules"><rect fill="#FFFFFF" height="46.0986" rx="2.5" ry="2.5" style="stroke:#000000;stroke-width:1;" width="307.6543" x="1734.52" y="393.4179"/><rect fill="#FFFFFF" height="10" style="stroke:#000000;stroke-width:1;" width="15" x="2022.1743" y="398.4179"/><rect fill="#FFFFFF" height="2" style="stroke:#000000;stroke-width:1;" width="4" x="2020.1743" y="400.4179"/><rect fill="#FFFFFF" height="2" style="stroke:#000000;stroke-width:1;" width="4" x="2020.1743" y="404.4179"/><text fill="#000000" font-family="Arial" font-size="14" lengthAdjust="spacing" textLength="267.6543" x="1749.52" y="426.5497">args.force or not exists() for RepoRules.md</text></g><!--link NOTE_ANCHOR to GMN3--><!--link main_entry to create_parser--><g class="link" data-entity-1="main_entry" data-entity-2="create_parser" data-source-line="26" data-uid="lnk16" id="link_main_entry_create_parser"><path d="M1232.7,202.3879 C1214.13,224.3279 1191.3949,251.1969 1172.8449,273.1269" fill="none" id="main_entry-to-create_parser" style="stroke:#333333;stroke-width:1;"/><polygon fill="#333333" points="1168.97,277.7079,1177.8363,273.4197,1172.1991,273.8904,1171.7284,268.2532,1168.97,277.7079" style="stroke:#333333;stroke-width:1;"/></g><!--link create_parser to add_init_parser--><g class="link" data-entity-1="create_parser" data-entity-2="add_init_parser" data-source-line="27" data-uid="lnk17" id="link_create_parser_add_init_parser"><path d="M1147.35,330.8279 C1147.35,348.6279 1147.35,366.2679 1147.35,384.0479" fill="none" id="create_parser-to-add_init_parser" style="stroke:#333333;stroke-width:1;"/><polygon fill="#333333" points="1147.35,390.0479,1151.35,381.0479,1147.35,385.0479,1143.35,381.0479,1147.35,390.0479" style="stroke:#333333;stroke-width:1;"/></g><!--link main_entry to handle_init_command--><g class="link" data-entity-1="main_entry" data-entity-2="handle_init_command" data-source-line="28" data-uid="lnk18" id="link_main_entry_handle_init_command"><path d="M1275.8,202.3879 C1294.19,224.3279 1316.6959,251.1794 1335.0759,273.1094" fill="none" id="main_entry-to-handle_init_command" style="stroke:#333333;stroke-width:1;"/><polygon fill="#333333" points="1338.93,277.7079,1336.2145,268.2407,1335.7183,273.8758,1330.0832,273.3795,1338.93,277.7079" style="stroke:#333333;stroke-width:1;"/></g><!--link handle_init_command to mkdir--><g class="link" data-entity-1="handle_init_command" data-entity-2="mkdir" data-source-line="29" data-uid="lnk19" id="link_handle_init_command_mkdir"><path d="M1348.88,330.7779 C1329.64,373.5579 1293.5502,453.8154 1274.3002,496.6354" fill="none" id="handle_init_command-to-mkdir" style="stroke:#333333;stroke-width:1;"/><polygon fill="#333333" points="1271.84,502.1079,1279.1785,495.5393,1273.8901,497.5475,1271.882,492.2591,1271.84,502.1079" style="stroke:#333333;stroke-width:1;"/></g><!--link mkdir to local_filesystem--><g class="link" data-entity-1="mkdir" data-entity-2="local_filesystem" data-source-line="30" data-uid="lnk20" id="link_mkdir_local_filesystem"><path d="M1300.59,555.2079 C1329.03,573.2579 1361.695,593.9914 1388.765,611.1814" fill="none" id="mkdir-to-local_filesystem" style="stroke:#333333;stroke-width:1;"/><polygon fill="#333333" points="1393.83,614.3979,1388.3767,606.1965,1389.6091,611.7175,1384.0882,612.9499,1393.83,614.3979" style="stroke:#333333;stroke-width:1;"/></g><!--link handle_init_command to check_exists--><g class="link" data-entity-1="handle_init_command" data-entity-2="check_exists" data-source-line="31" data-uid="lnk21" id="link_handle_init_command_check_exists"><path d="M1365.22,330.6379 C1370.84,358.4479 1380.93,404.1979 1393.35,442.5579 C1399.99,463.0779 1406.9399,480.1376 1414.3099,496.8576" fill="none" id="handle_init_command-to-check_exists" style="stroke:#333333;stroke-width:1;"/><polygon fill="#333333" points="1416.73,502.3479,1416.7601,492.499,1414.7133,497.7726,1409.4397,495.7258,1416.73,502.3479" style="stroke:#333333;stroke-width:1;"/></g><!--link check_exists to local_filesystem--><g class="link" data-entity-1="check_exists" data-entity-2="local_filesystem" data-source-line="32" data-uid="lnk22" id="link_check_exists_local_filesystem"><path d="M1428.35,555.2079 C1428.35,573.3179 1428.35,591.3779 1428.35,608.5779" fill="none" id="check_exists-to-local_filesystem" style="stroke:#333333;stroke-width:1;"/><polygon fill="#333333" points="1428.35,614.5779,1432.35,605.5779,1428.35,609.5779,1424.35,605.5779,1428.35,614.5779" style="stroke:#333333;stroke-width:1;"/></g><!--link handle_init_command to force_gate_settings--><g class="link" data-entity-1="handle_init_command" data-entity-2="force_gate_settings" data-source-line="33" data-uid="lnk23" id="link_handle_init_command_force_gate_settings"><path d="M1405.58,330.8279 C1438.88,349.6479 1478.5065,372.0357 1510.4265,390.0757" fill="none" id="handle_init_command-to-force_gate_settings" style="stroke:#333333;stroke-width:1;"/><polygon fill="#333333" points="1515.65,393.0279,1509.7828,385.1173,1511.2971,390.5677,1505.8467,392.082,1515.65,393.0279" style="stroke:#333333;stroke-width:1;"/></g><!--link force_gate_settings to open_file--><g class="link" data-entity-1="force_gate_settings" data-entity-2="open_file" data-source-line="34" data-uid="lnk24" id="link_force_gate_settings_open_file"><path d="M1560.2,439.7679 C1564.15,457.8779 1568.4308,477.5658 1572.5508,496.4458" fill="none" id="force_gate_settings-to-open_file" style="stroke:#333333;stroke-width:1;"/><polygon fill="#333333" points="1573.83,502.3079,1575.8192,492.662,1572.764,497.4228,1568.0031,494.3676,1573.83,502.3079" style="stroke:#333333;stroke-width:1;"/></g><!--link open_file to local_filesystem--><g class="link" data-entity-1="open_file" data-entity-2="local_filesystem" data-source-line="35" data-uid="lnk25" id="link_open_file_local_filesystem"><path d="M1543.18,555.2079 C1517.53,573.3179 1488.3707,593.9162 1464.0207,611.1162" fill="none" id="open_file-to-local_filesystem" style="stroke:#333333;stroke-width:1;"/><polygon fill="#333333" points="1459.12,614.5779,1468.7788,612.6525,1463.2039,611.6931,1464.1633,606.1182,1459.12,614.5779" style="stroke:#333333;stroke-width:1;"/></g><!--link handle_init_command to force_gate_repofules--><g class="link" data-entity-1="handle_init_command" data-entity-2="force_gate_repofules" data-source-line="36" data-uid="lnk26" id="link_handle_init_command_force_gate_repofules"><path d="M1443.14,322.5479 C1534.12,341.5379 1674.7265,370.8821 1774.6365,391.7321" fill="none" id="handle_init_command-to-force_gate_repofules" style="stroke:#333333;stroke-width:1;"/><polygon fill="#333333" points="1780.51,392.9579,1772.5169,387.2036,1775.6154,391.9364,1770.8827,395.0349,1780.51,392.9579" style="stroke:#333333;stroke-width:1;"/></g><!--link force_gate_repofules to open_file--><g class="link" data-entity-1="force_gate_repofules" data-entity-2="open_file" data-source-line="37" data-uid="lnk27" id="link_force_gate_repofules_open_file"><path d="M1825.44,439.8979 C1767.39,460.5979 1687.9814,488.9224 1634.5914,507.9624" fill="none" id="force_gate_repofules-to-open_file" style="stroke:#333333;stroke-width:1;"/><polygon fill="#333333" points="1628.94,509.9779,1638.7607,510.7223,1633.6495,508.2983,1636.0735,503.1872,1628.94,509.9779" style="stroke:#333333;stroke-width:1;"/></g><!--SRC=[dLNTJjim5BxFKvp13I0raK3YWacJM1i6KtzGuOwXo8rF6wkE7Tbk6Q-ogptRdcJ7JahJ4ZP1LDNnET_vSdp-_CaLM29KaWaLsQLG5JEiX1dBbmkZLuhtjTG63g_2qq9mdBELT5TQkJ4ZXaiZc6pfButHJutnMNXQoh5s-5KRZgP1zCEpZ-XoWb2H4quYz4U3db32GG_2mX4hUdDe59Cmb_e9ZlJCebaZFuQZuMHmUW5zpH46w9YGnr6qifWpYt30L5veSm3CmdXodsQNu_xrP1eLWj1jWIAtm8X5uK3FTpG09oTtUcLol3WvWOS7hdERF6cpz8xOP7sQ29Fa9KysRiSvkH8_irB2Ex2FZn4g3jwFA3AOEwOM58k3ag5rHiSbvJ7y_L1jKJYPVybGEVCCX-dvrHdbiyMG6sGEim2Y753SMXIQhoJQE9UYqGN2ngIMT74opZFl_ol2N9SbKzp6NXkuzg1TR0LPIAnH3S6_63lWNQmLSuKKi_YMrhXSSa5kDh8wQbxqNqFyAQopkvPvWVaogpLT1BELa4ue6-iAAL-RRR3recmk2BOnvConMIZMeSwfmAz8QP-jmp8OI2yC5hNGTqjwdfv7TFHAAqexfSCiR3pNLAD0xKGr1BLpHyT0KhX3HzydICa3PK1c2vzYswZUmJR5Iaz3rRocCwIRUrtKgibUxyjkHKMxzUNrUrMoRzwHygYh33msv3Mgi-lt-m5yqx2TrcWdn- -YwOfkXonWNweXsjR5Hp-sZNsNSEzpzS2JEE-ST-cQvgCA4y_lNq-zfD0b9dOcTJB0TJAgUpLfUZRPz6mIPbpr3CrAG-uZT67s4KkpVfIbddN9TjPvpftTpX1-yqfuwK0VgZ-_ViCG-OBg-9hkABi9sQIve610xJrYPidrau8AZQMAyh6bc01T1TdsYlEd-0phK_190sTMhW2wo2nylvkCYPH-3mzndD3lPdGxJ4Vf-Fxo_cOopeRfu5iwfNw4JaK8sCRKanjd4ncSpdBAaw0H5DfvSvB-Yx0TaRy0]--></g></svg>