<svg xmlns="http://www.w3.org/2000/svg" xmlns:xlink="http://www.w3.org/1999/xlink" contentStyleType="text/css" data-diagram-type="DESCRIPTION" height="1371px" preserveAspectRatio="none" style="width:1272px;height:1371px;background:#FFFFFF;" version="1.1" viewBox="0 0 1272 1371" width="1272px" zoomAndPan="magnify"><title>CMD-root - root command surface (LOD1: CLI Flow)</title><defs/><g><g class="title" data-source-line="8"><text fill="#000000" font-family="Arial" font-size="22" font-weight="bold" lengthAdjust="spacing" textLength="541.4385" x="360.973" y="35.6357">CMD-root - root command surface (LOD1: CLI Flow)</text></g><!--entity NOTE_ANCHOR--><!--entity cli_invocation--><g class="entity" data-entity="cli_invocation" data-source-line="16" data-uid="ent0006" id="entity_cli_invocation"><rect fill="#FFFFFF" height="36.0986" rx="2.5" ry="2.5" style="stroke:#000000;stroke-width:1;" width="163.958" x="684.34" y="66.6679"/><text fill="#000000" font-family="Arial" font-size="14" lengthAdjust="spacing" textLength="143.958" x="694.34" y="89.7997">Maestro CLI Invocation</text></g><!--entity parse_args--><g class="entity" data-entity="parse_args" data-source-line="17" data-uid="ent0007" id="entity_parse_args"><rect fill="#FFFFFF" height="46.0986" rx="2.5" ry="2.5" style="stroke:#000000;stroke-width:1;" width="172.2822" x="680.18" y="172.1379"/><rect fill="#FFFFFF" height="10" style="stroke:#000000;stroke-width:1;" width="15" x="832.4622" y="177.1379"/><rect fill="#FFFFFF" height="2" style="stroke:#000000;stroke-width:1;" width="4" x="830.4622" y="179.1379"/><rect fill="#FFFFFF" height="2" style="stroke:#000000;stroke-width:1;" width="4" x="830.4622" y="183.1379"/><text fill="#000000" font-family="Arial" font-size="14" lengthAdjust="spacing" textLength="132.2822" x="695.18" y="205.2697">Parse CLI arguments</text></g><!--entity determine_root_command--><g class="entity" data-entity="determine_root_command" data-source-line="18" data-uid="ent0008" id="entity_determine_root_command"><rect fill="#FFFFFF" height="46.0986" rx="2.5" ry="2.5" style="stroke:#000000;stroke-width:1;" width="217.2969" x="657.67" y="278.2379"/><rect fill="#FFFFFF" height="10" style="stroke:#000000;stroke-width:1;" width="15" x="854.9669" y="283.2379"/><rect fill="#FFFFFF" height="2" style="stroke:#000000;stroke-width:1;" width="4" x="852.9669" y="285.2379"/><rect fill="#FFFFFF" height="2" style="stroke:#000000;stroke-width:1;" width="4" x="852.9669" y="289.2379"/><text fill="#000000" font-family="Arial" font-size="14" lengthAdjust="spacing" textLength="177.2969" x="672.67" y="311.3697">Determine command is 'root'</text></g><!--entity session_check--><g class="entity" data-entity="session_check" data-source-line="19" data-uid="ent0009" id="entity_session_check"><rect fill="#FFFFFF" height="46.0986" rx="2.5" ry="2.5" style="stroke:#000000;stroke-width:1;" width="187.8613" x="672.39" y="384.3379"/><rect fill="#FFFFFF" height="10" style="stroke:#000000;stroke-width:1;" width="15" x="840.2513" y="389.3379"/><rect fill="#FFFFFF" height="2" style="stroke:#000000;stroke-width:1;" width="4" x="838.2513" y="391.3379"/><rect fill="#FFFFFF" height="2" style="stroke:#000000;stroke-width:1;" width="4" x="838.2513" y="395.3379"/><text fill="#000000" font-family="Arial" font-size="14" lengthAdjust="spacing" textLength="147.8613" x="687.39" y="417.4697">Session provided check</text></g><!--entity load_session--><g class="entity" data-entity="load_session" data-source-line="20" data-uid="ent0010" id="entity_load_session"><rect fill="#FFFFFF" height="46.0986" rx="2.5" ry="2.5" style="stroke:#000000;stroke-width:1;" width="122.5029" x="603.07" y="490.4379"/><rect fill="#FFFFFF" height="10" style="stroke:#000000;stroke-width:1;" width="15" x="705.5729" y="495.4379"/><rect fill="#FFFFFF" height="2" style="stroke:#000000;stroke-width:1;" width="4" x="703.5729" y="497.4379"/><rect fill="#FFFFFF" height="2" style="stroke:#000000;stroke-width:1;" width="4" x="703.5729" y="501.4379"/><text fill="#000000" font-family="Arial" font-size="14" lengthAdjust="spacing" textLength="82.5029" x="618.07" y="523.5697">Load session</text></g><!--entity hard_stop_session--><g class="entity" data-entity="hard_stop_session" data-source-line="21" data-uid="ent0011" id="entity_hard_stop_session"><rect fill="#FFFFFF" height="46.0986" rx="2.5" ry="2.5" style="stroke:#000000;stroke-width:1;" width="218.1992" x="760.22" y="490.4379"/><rect fill="#FFFFFF" height="10" style="stroke:#000000;stroke-width:1;" width="15" x="958.4192" y="495.4379"/><rect fill="#FFFFFF" height="2" style="stroke:#000000;stroke-width:1;" width="4" x="956.4192" y="497.4379"/><rect fill="#FFFFFF" height="2" style="stroke:#000000;stroke-width:1;" width="4" x="956.4192" y="501.4379"/><text fill="#000000" font-family="Arial" font-size="14" lengthAdjust="spacing" textLength="178.1992" x="775.22" y="523.5697">Hard stop - Session required</text></g><!--entity validate_session_schema--><g class="entity" data-entity="validate_session_schema" data-source-line="22" data-uid="ent0012" id="entity_validate_session_schema"><rect fill="#FFFFFF" height="46.0986" rx="2.5" ry="2.5" style="stroke:#000000;stroke-width:1;" width="194.8613" x="566.89" y="596.5379"/><rect fill="#FFFFFF" height="10" style="stroke:#000000;stroke-width:1;" width="15" x="741.7513" y="601.5379"/><rect fill="#FFFFFF" height="2" style="stroke:#000000;stroke-width:1;" width="4" x="739.7513" y="603.5379"/><rect fill="#FFFFFF" height="2" style="stroke:#000000;stroke-width:1;" width="4" x="739.7513" y="607.5379"/><text fill="#000000" font-family="Arial" font-size="14" lengthAdjust="spacing" textLength="154.8613" x="581.89" y="629.6697">Validate session schema</text></g><!--entity subcommand_check--><g class="entity" data-entity="subcommand_check" data-source-line="23" data-uid="ent0013" id="entity_subcommand_check"><rect fill="#FFFFFF" height="46.0986" rx="2.5" ry="2.5" style="stroke:#000000;stroke-width:1;" width="224.4336" x="552.1" y="702.6279"/><rect fill="#FFFFFF" height="10" style="stroke:#000000;stroke-width:1;" width="15" x="756.5336" y="707.6279"/><rect fill="#FFFFFF" height="2" style="stroke:#000000;stroke-width:1;" width="4" x="754.5336" y="709.6279"/><rect fill="#FFFFFF" height="2" style="stroke:#000000;stroke-width:1;" width="4" x="754.5336" y="713.6279"/><text fill="#000000" font-family="Arial" font-size="14" lengthAdjust="spacing" textLength="184.4336" x="567.1" y="735.7597">Subcommand provided check</text></g><!--entity subcommand_set--><g class="entity" data-entity="subcommand_set" data-source-line="24" data-uid="ent0014" id="entity_subcommand_set"><ellipse cx="102.3167" cy="831.9312" fill="#FFFFFF" rx="91.3167" ry="20.6633" style="stroke:#000000;stroke-width:1;"/><text fill="#000000" font-family="Arial" font-size="14" lengthAdjust="spacing" textLength="157.2266" x="23.7034" y="836.4805">Route to handle_root_set</text></g><!--entity subcommand_get--><g class="entity" data-entity="subcommand_get" data-source-line="25" data-uid="ent0015" id="entity_subcommand_get"><ellipse cx="320.3167" cy="831.9312" fill="#FFFFFF" rx="91.6667" ry="20.7333" style="stroke:#000000;stroke-width:1;"/><text fill="#000000" font-family="Arial" font-size="14" lengthAdjust="spacing" textLength="158.0127" x="241.3104" y="836.4805">Route to handle_root_get</text></g><!--entity subcommand_refine--><g class="entity" data-entity="subcommand_refine" data-source-line="26" data-uid="ent0016" id="entity_subcommand_refine"><ellipse cx="545.3237" cy="831.9306" fill="#FFFFFF" rx="98.6637" ry="22.1327" style="stroke:#000000;stroke-width:1;"/><text fill="#000000" font-family="Arial" font-size="14" lengthAdjust="spacing" textLength="173.5713" x="458.538" y="836.4799">Route to handle_root_refine</text></g><!--entity subcommand_discuss--><g class="entity" data-entity="subcommand_discuss" data-source-line="27" data-uid="ent0017" id="entity_subcommand_discuss"><ellipse cx="783.3234" cy="831.9245" fill="#FFFFFF" rx="103.9834" ry="23.1967" style="stroke:#000000;stroke-width:1;"/><text fill="#000000" font-family="Arial" font-size="14" lengthAdjust="spacing" textLength="185.2334" x="690.7067" y="836.4738">Route to handle_root_discuss</text></g><!--entity subcommand_show--><g class="entity" data-entity="subcommand_show" data-source-line="28" data-uid="ent0018" id="entity_subcommand_show"><ellipse cx="1020.3245" cy="831.9287" fill="#FFFFFF" rx="97.6045" ry="21.9209" style="stroke:#000000;stroke-width:1;"/><text fill="#000000" font-family="Arial" font-size="14" lengthAdjust="spacing" textLength="171.2334" x="934.7078" y="836.4781">Route to handle_root_show</text></g><!--entity show_help--><g class="entity" data-entity="show_help" data-source-line="29" data-uid="ent0019" id="entity_show_help"><rect fill="#FFFFFF" height="36.0986" rx="2.5" ry="2.5" style="stroke:#000000;stroke-width:1;" width="113.3926" x="1152.62" y="813.8779"/><text fill="#000000" font-family="Arial" font-size="14" lengthAdjust="spacing" textLength="93.3926" x="1162.62" y="837.0097">Show root help</text></g><!--entity read_docs_truth--><g class="entity" data-entity="read_docs_truth" data-source-line="30" data-uid="ent0020" id="entity_read_docs_truth"><rect fill="#FFFFFF" height="46.0986" rx="2.5" ry="2.5" style="stroke:#000000;stroke-width:1;" width="205.7373" x="442.45" y="915.1279"/><rect fill="#FFFFFF" height="10" style="stroke:#000000;stroke-width:1;" width="15" x="628.1873" y="920.1279"/><rect fill="#FFFFFF" height="2" style="stroke:#000000;stroke-width:1;" width="4" x="626.1873" y="922.1279"/><rect fill="#FFFFFF" height="2" style="stroke:#000000;stroke-width:1;" width="4" x="626.1873" y="926.1279"/><text fill="#000000" font-family="Arial" font-size="14" lengthAdjust="spacing" textLength="165.7373" x="457.45" y="948.2597">Read from docs truth store</text></g><!--entity execute_root_task--><g class="entity" data-entity="execute_root_task" data-source-line="31" data-uid="ent0021" id="entity_execute_root_task"><rect fill="#FFFFFF" height="46.0986" rx="2.5" ry="2.5" style="stroke:#000000;stroke-width:1;" width="210.4336" x="440.1" y="1021.2279"/><rect fill="#FFFFFF" height="10" style="stroke:#000000;stroke-width:1;" width="15" x="630.5336" y="1026.2279"/><rect fill="#FFFFFF" height="2" style="stroke:#000000;stroke-width:1;" width="4" x="628.5336" y="1028.2279"/><rect fill="#FFFFFF" height="2" style="stroke:#000000;stroke-width:1;" width="4" x="628.5336" y="1032.2279"/><text fill="#000000" font-family="Arial" font-size="14" lengthAdjust="spacing" textLength="170.4336" x="455.1" y="1054.3597">Execute root task operation</text></g><!--entity write_docs_truth--><g class="entity" data-entity="write_docs_truth" data-source-line="32" data-uid="ent0022" id="entity_write_docs_truth"><rect fill="#FFFFFF" height="46.0986" rx="2.5" ry="2.5" style="stroke:#000000;stroke-width:1;" width="188.6064" x="451.01" y="1127.3179"/><rect fill="#FFFFFF" height="10" style="stroke:#000000;stroke-width:1;" width="15" x="619.6164" y="1132.3179"/><rect fill="#FFFFFF" height="2" style="stroke:#000000;stroke-width:1;" width="4" x="617.6164" y="1134.3179"/><rect fill="#FFFFFF" height="2" style="stroke:#000000;stroke-width:1;" width="4" x="617.6164" y="1138.3179"/><text fill="#000000" font-family="Arial" font-size="14" lengthAdjust="spacing" textLength="148.6064" x="466.01" y="1160.4497">Write to docs truth store</text></g><!--entity output_results--><g class="entity" data-entity="output_results" data-source-line="33" data-uid="ent0023" id="entity_output_results"><rect fill="#FFFFFF" height="36.0986" rx="2.5" ry="2.5" style="stroke:#000000;stroke-width:1;" width="164.7441" x="462.94" y="1233.4179"/><text fill="#000000" font-family="Arial" font-size="14" lengthAdjust="spacing" textLength="144.7441" x="472.94" y="1256.5497">Output results to stdout</text></g><!--entity exit_ok--><g class="entity" data-entity="exit_ok" data-source-line="34" data-uid="ent0024" id="entity_exit_ok"><rect fill="#FFFFFF" height="36.0986" rx="2.5" ry="2.5" style="stroke:#000000;stroke-width:1;" width="126.5859" x="482.02" y="1329.5179"/><text fill="#000000" font-family="Arial" font-size="14" lengthAdjust="spacing" textLength="106.5859" x="492.02" y="1352.6497">Exit with success</text></g><!--entity exit_fail--><g class="entity" data-entity="exit_fail" data-source-line="35" data-uid="ent0025" id="entity_exit_fail"><rect fill="#FFFFFF" height="36.0986" rx="2.5" ry="2.5" style="stroke:#000000;stroke-width:1;" width="114.1445" x="1152.24" y="920.1279"/><text fill="#000000" font-family="Arial" font-size="14" lengthAdjust="spacing" textLength="94.1445" x="1162.24" y="943.2597">Exit with failure</text></g><!--link cli_invocation to parse_args--><g class="link" data-entity-1="cli_invocation" data-entity-2="parse_args" data-source-line="36" data-uid="lnk26" id="link_cli_invocation_parse_args"><path d="M766.32,103.1479 C766.32,121.8279 766.32,145.5479 766.32,165.9179" fill="none" id="cli_invocation-to-parse_args" style="stroke:#333333;stroke-width:1;"/><polygon fill="#333333" points="766.32,171.9179,770.32,162.9179,766.32,166.9179,762.32,162.9179,766.32,171.9179" style="stroke:#333333;stroke-width:1;"/></g><!--link parse_args to determine_root_command--><g class="link" data-entity-1="parse_args" data-entity-2="determine_root_command" data-source-line="37" data-uid="lnk27" id="link_parse_args_determine_root_command"><path d="M766.32,218.5179 C766.32,236.0879 766.32,254.4379 766.32,271.9879" fill="none" id="parse_args-to-determine_root_command" style="stroke:#333333;stroke-width:1;"/><polygon fill="#333333" points="766.32,277.9879,770.32,268.9879,766.32,272.9879,762.32,268.9879,766.32,277.9879" style="stroke:#333333;stroke-width:1;"/></g><!--link determine_root_command to session_check--><g class="link" data-entity-1="determine_root_command" data-entity-2="session_check" data-source-line="38" data-uid="lnk28" id="link_determine_root_command_session_check"><path d="M766.32,324.6179 C766.32,342.1879 766.32,360.5379 766.32,378.0879" fill="none" id="determine_root_command-to-session_check" style="stroke:#333333;stroke-width:1;"/><polygon fill="#333333" points="766.32,384.0879,770.32,375.0879,766.32,379.0879,762.32,375.0879,766.32,384.0879" style="stroke:#333333;stroke-width:1;"/></g><!--link session_check to load_session--><g class="link" data-entity-1="session_check" data-entity-2="load_session" data-source-line="39" data-uid="lnk29" id="link_session_check_load_session"><path d="M744.44,430.7179 C727.23,448.2779 707.5597,468.3527 690.3597,485.9027" fill="none" id="session_check-to-load_session" style="stroke:#333333;stroke-width:1;"/><polygon fill="#333333" points="686.16,490.1879,695.3163,486.5599,689.6597,486.6169,689.6028,480.9603,686.16,490.1879" style="stroke:#333333;stroke-width:1;"/></g><!--link session_check to hard_stop_session--><g class="link" data-entity-1="session_check" data-entity-2="hard_stop_session" data-source-line="40" data-uid="lnk30" id="link_session_check_hard_stop_session"><path d="M788.41,430.7179 C805.79,448.2779 825.6693,468.3734 843.0393,485.9234" fill="none" id="session_check-to-hard_stop_session" style="stroke:#333333;stroke-width:1;"/><polygon fill="#333333" points="847.26,490.1879,843.7719,480.9774,843.7427,486.6341,838.086,486.605,847.26,490.1879" style="stroke:#333333;stroke-width:1;"/></g><!--link load_session to validate_session_schema--><g class="link" data-entity-1="load_session" data-entity-2="validate_session_schema" data-source-line="41" data-uid="lnk31" id="link_load_session_validate_session_schema"><path d="M664.32,536.8179 C664.32,554.3779 664.32,572.7379 664.32,590.2879" fill="none" id="load_session-to-validate_session_schema" style="stroke:#333333;stroke-width:1;"/><polygon fill="#333333" points="664.32,596.2879,668.32,587.2879,664.32,591.2879,660.32,587.2879,664.32,596.2879" style="stroke:#333333;stroke-width:1;"/></g><!--link validate_session_schema to subcommand_check--><g class="link" data-entity-1="validate_session_schema" data-entity-2="subcommand_check" data-source-line="42" data-uid="lnk32" id="link_validate_session_schema_subcommand_check"><path d="M664.32,642.9179 C664.32,660.4779 664.32,678.8279 664.32,696.3879" fill="none" id="validate_session_schema-to-subcommand_check" style="stroke:#333333;stroke-width:1;"/><polygon fill="#333333" points="664.32,702.3879,668.32,693.3879,664.32,697.3879,660.32,693.3879,664.32,702.3879" style="stroke:#333333;stroke-width:1;"/></g><!--link subcommand_check to subcommand_set--><g class="link" data-entity-1="subcommand_check" data-entity-2="subcommand_set" data-source-line="43" data-uid="lnk33" id="link_subcommand_check_subcommand_set"><path d="M552.03,746.3179 C460.28,762.5379 327.28,786.4279 211.32,808.7279 C197.38,811.4079 188.3409,813.1984 174.1509,816.0684" fill="none" id="subcommand_check-to-subcommand_set" style="stroke:#333333;stroke-width:1;"/><polygon fill="#333333" points="168.27,817.2579,177.8843,819.3943,173.1708,816.2666,176.2984,811.5531,168.27,817.2579" style="stroke:#333333;stroke-width:1;"/></g><!--link subcommand_check to subcommand_get--><g class="link" data-entity-1="subcommand_check" data-entity-2="subcommand_get" data-source-line="44" data-uid="lnk34" id="link_subcommand_check_subcommand_get"><path d="M590.1,749.1779 C525.02,768.8979 437.7121,795.3475 379.6421,812.9475" fill="none" id="subcommand_check-to-subcommand_get" style="stroke:#333333;stroke-width:1;"/><polygon fill="#333333" points="373.9,814.6879,383.6733,815.9054,378.6851,813.2376,381.3529,808.2493,373.9,814.6879" style="stroke:#333333;stroke-width:1;"/></g><!--link subcommand_check to subcommand_refine--><g class="link" data-entity-1="subcommand_check" data-entity-2="subcommand_refine" data-source-line="45" data-uid="lnk35" id="link_subcommand_check_subcommand_refine"><path d="M638.79,749.0479 C618.16,767.1079 593.8642,788.4054 573.6942,806.0654" fill="none" id="subcommand_check-to-subcommand_refine" style="stroke:#333333;stroke-width:1;"/><polygon fill="#333333" points="569.18,810.0179,578.5863,807.0986,572.9418,806.7241,573.3163,801.0797,569.18,810.0179" style="stroke:#333333;stroke-width:1;"/></g><!--link subcommand_check to subcommand_discuss--><g class="link" data-entity-1="subcommand_check" data-entity-2="subcommand_discuss" data-source-line="46" data-uid="lnk36" id="link_subcommand_check_subcommand_discuss"><path d="M689.85,749.0479 C710.06,766.7579 733.6259,787.4052 753.7259,805.0052" fill="none" id="subcommand_check-to-subcommand_discuss" style="stroke:#333333;stroke-width:1;"/><polygon fill="#333333" points="758.24,808.9579,754.104,800.0195,754.4783,805.664,748.8338,806.0383,758.24,808.9579" style="stroke:#333333;stroke-width:1;"/></g><!--link subcommand_check to subcommand_show--><g class="link" data-entity-1="subcommand_check" data-entity-2="subcommand_show" data-source-line="47" data-uid="lnk37" id="link_subcommand_check_subcommand_show"><path d="M741.13,749.1779 C807.56,768.6279 896.3815,794.6426 956.6215,812.2726" fill="none" id="subcommand_check-to-subcommand_show" style="stroke:#333333;stroke-width:1;"/><polygon fill="#333333" points="962.38,813.9579,954.8658,807.591,957.5813,812.5534,952.6188,815.2689,962.38,813.9579" style="stroke:#333333;stroke-width:1;"/></g><!--link subcommand_check to show_help--><g class="link" data-entity-1="subcommand_check" data-entity-2="show_help" data-source-line="48" data-uid="lnk38" id="link_subcommand_check_show_help"><path d="M776.9,742.4379 C872.8,756.7879 1013.95,780.0679 1135.32,808.7279 C1141.32,810.1479 1141.7766,810.1802 1147.9666,811.8902" fill="none" id="subcommand_check-to-show_help" style="stroke:#333333;stroke-width:1;"/><polygon fill="#333333" points="1153.75,813.4879,1146.14,807.2358,1148.9305,812.1565,1144.0098,814.9469,1153.75,813.4879" style="stroke:#333333;stroke-width:1;"/></g><!--link subcommand_set to read_docs_truth--><g class="link" data-entity-1="subcommand_set" data-entity-2="read_docs_truth" data-source-line="49" data-uid="lnk39" id="link_subcommand_set_read_docs_truth"><path d="M163.91,847.4279 C237.97,864.8479 357.2494,892.924 443.8894,913.304" fill="none" id="subcommand_set-to-read_docs_truth" style="stroke:#333333;stroke-width:1;"/><polygon fill="#333333" points="449.73,914.6779,441.885,908.7233,444.8628,913.533,440.0532,916.5108,449.73,914.6779" style="stroke:#333333;stroke-width:1;"/></g><!--link subcommand_get to read_docs_truth--><g class="link" data-entity-1="subcommand_get" data-entity-2="read_docs_truth" data-source-line="50" data-uid="lnk40" id="link_subcommand_get_read_docs_truth"><path d="M359.51,851.0879 C397.66,868.7579 450.286,893.1454 491.336,912.1654" fill="none" id="subcommand_get-to-read_docs_truth" style="stroke:#333333;stroke-width:1;"/><polygon fill="#333333" points="496.78,914.6879,490.2956,907.2749,492.2433,912.5858,486.9324,914.5336,496.78,914.6879" style="stroke:#333333;stroke-width:1;"/></g><!--link subcommand_refine to read_docs_truth--><g class="link" data-entity-1="subcommand_refine" data-entity-2="read_docs_truth" data-source-line="51" data-uid="lnk41" id="link_subcommand_refine_read_docs_truth"><path d="M545.32,854.5279 C545.32,872.1779 545.32,891.0479 545.32,908.8779" fill="none" id="subcommand_refine-to-read_docs_truth" style="stroke:#333333;stroke-width:1;"/><polygon fill="#333333" points="545.32,914.8779,549.32,905.8779,545.32,909.8779,541.32,905.8779,545.32,914.8779" style="stroke:#333333;stroke-width:1;"/></g><!--link subcommand_discuss to read_docs_truth--><g class="link" data-entity-1="subcommand_discuss" data-entity-2="read_docs_truth" data-source-line="52" data-uid="lnk42" id="link_subcommand_discuss_read_docs_truth"><path d="M737.15,853.1479 C696.86,870.7979 643.986,893.9607 602.226,912.2507" fill="none" id="subcommand_discuss-to-read_docs_truth" style="stroke:#333333;stroke-width:1;"/><polygon fill="#333333" points="596.73,914.6579,606.5787,914.7112,601.31,912.6519,603.3692,907.3832,596.73,914.6579" style="stroke:#333333;stroke-width:1;"/></g><!--link subcommand_show to read_docs_truth--><g class="link" data-entity-1="subcommand_show" data-entity-2="read_docs_truth" data-source-line="53" data-uid="lnk43" id="link_subcommand_show_read_docs_truth"><path d="M952.01,847.9179 C872.3,865.4179 745.5506,893.232 653.5306,913.422" fill="none" id="subcommand_show-to-read_docs_truth" style="stroke:#333333;stroke-width:1;"/><polygon fill="#333333" points="647.67,914.7079,657.3181,916.6861,652.5538,913.6363,655.6036,908.872,647.67,914.7079" style="stroke:#333333;stroke-width:1;"/></g><!--link read_docs_truth to execute_root_task--><g class="link" data-entity-1="read_docs_truth" data-entity-2="execute_root_task" data-source-line="54" data-uid="lnk44" id="link_read_docs_truth_execute_root_task"><path d="M545.32,961.5079 C545.32,979.0679 545.32,997.4279 545.32,1014.9779" fill="none" id="read_docs_truth-to-execute_root_task" style="stroke:#333333;stroke-width:1;"/><polygon fill="#333333" points="545.32,1020.9779,549.32,1011.9779,545.32,1015.9779,541.32,1011.9779,545.32,1020.9779" style="stroke:#333333;stroke-width:1;"/></g><!--link execute_root_task to write_docs_truth--><g class="link" data-entity-1="execute_root_task" data-entity-2="write_docs_truth" data-source-line="55" data-uid="lnk45" id="link_execute_root_task_write_docs_truth"><path d="M545.32,1067.6079 C545.32,1085.1679 545.32,1103.5179 545.32,1121.0779" fill="none" id="execute_root_task-to-write_docs_truth" style="stroke:#333333;stroke-width:1;"/><polygon fill="#333333" points="545.32,1127.0779,549.32,1118.0779,545.32,1122.0779,541.32,1118.0779,545.32,1127.0779" style="stroke:#333333;stroke-width:1;"/></g><!--link write_docs_truth to output_results--><g class="link" data-entity-1="write_docs_truth" data-entity-2="output_results" data-source-line="56" data-uid="lnk46" id="link_write_docs_truth_output_results"><path d="M545.32,1173.8579 C545.32,1191.7879 545.32,1210.5379 545.32,1227.0079" fill="none" id="write_docs_truth-to-output_results" style="stroke:#333333;stroke-width:1;"/><polygon fill="#333333" points="545.32,1233.0079,549.32,1224.0079,545.32,1228.0079,541.32,1224.0079,545.32,1233.0079" style="stroke:#333333;stroke-width:1;"/></g><!--link output_results to exit_ok--><g class="link" data-entity-1="output_results" data-entity-2="exit_ok" data-source-line="57" data-uid="lnk47" id="link_output_results_exit_ok"><path d="M545.32,1269.7279 C545.32,1286.5979 545.32,1306.1579 545.32,1323.0979" fill="none" id="output_results-to-exit_ok" style="stroke:#333333;stroke-width:1;"/><polygon fill="#333333" points="545.32,1329.0979,549.32,1320.0979,545.32,1324.0979,541.32,1320.0979,545.32,1329.0979" style="stroke:#333333;stroke-width:1;"/></g><!--link show_help to exit_fail--><g class="link" data-entity-1="show_help" data-entity-2="exit_fail" data-source-line="58" data-uid="lnk48" id="link_show_help_exit_fail"><path d="M1209.32,850.1379 C1209.32,869.4579 1209.32,894.6079 1209.32,913.9379" fill="none" id="show_help-to-exit_fail" style="stroke:#333333;stroke-width:1;"/><polygon fill="#333333" points="1209.32,919.9379,1213.32,910.9379,1209.32,914.9379,1205.32,910.9379,1209.32,919.9379" style="stroke:#333333;stroke-width:1;"/></g><!--SRC=[bLRFRvim5BxpLtZPeLkaDEfsws5IbwPgfJQPccaxL1LopIDO0SoUxQJxx_TiI6885HsNnDyF-pt3X_bWCYY0LJcNPQGtigmuyeAzSB5Pex9bCbEvGlRnnb-18e6KszpSgD8iECrmXPBd0N-5g7QD-Qk_0dAX37nNc00sYfc_keg-8aWL6MboOBE7wmagPTY4-H-XYeAN2TCMKow0VRfVNbzSijdz7Rl9rUvp55aDWcjW8rwAJE68SSqMov_p-6enkrq-HfbCe0MKL0L3kSuCKscBOMmyNYcB0Yx7O_Rqb2YXfpk5cvIMqjFjbwd4gIYIwRxASv7Byx-yoDdxfS_F4L13heeeGX26bsjgVFJ0GHjKlhMxSgi4DrALlXsonl80HRGdbIgXD6pqWoErxYmSrxOWJ7j7vV2OC1sghy405hA4mxPApSvSTMVUbUpvs65n8mfdM87ML0AhK6rfNnCcCX0RRzOr5NiazDmhdknPhym9Y1iW5Dvo9A5H5Tty_K88Vwn4IBmn8q7i17tkNpoN2QTRst1CKoK5zyPjm-rzSSsrEhCl-qtfQ-x0DlqTdhf7PMbDewYuCicRdTDWkZQ21aphKzDwq8IGqltg-cfqm9f8BQpMNMy33tMOgTr9YuI5J_IAndMACyYhMarGx4RXrZy2FI0fgiAdY1cq9dFF0TPz8T6nOsBFXCxvAmXNd5_4SBrXgW8y1WTglYxPyQ7vDygwhzvLTuuDbmqQMrfJMKE5QNfPQZU5DWdjaZSgJyOD6ThchzAmdNJBM26WsNeWD5QRVc7APMwRYhpG0L7xVS0caszXu8z_FVD6gFjXxsWdkJNoV2k_f_HfIaE3bxoLnpVmkgfk1Bj0L-KIDwHPlqFJX6b8ji_DO5ak9VsYGpZQNNYocu9s4qEIkeSXLTF2aCpLsQlfZBtcD88dYDUTvAqBU5KdNErXiruTfyDc7b6VdVhupo7jFVtdxiLV-lFVZNk-0IwcXsseFqdSAUzxEI_en3Z-ftF-lsUeB7rAj4RXry8_]--></g></svg>