<svg xmlns="http://www.w3.org/2000/svg" xmlns:xlink="http://www.w3.org/1999/xlink" contentStyleType="text/css" data-diagram-type="DESCRIPTION" height="514px" preserveAspectRatio="none" style="width:4045px;height:514px;background:#FFFFFF;" version="1.1" viewBox="0 0 4045 514" width="4045px" zoomAndPan="magnify"><title>CMD-tu - tu deep internal flow (observed) (LOD1: Code Functions)</title><defs/><g><g class="title" data-source-line="8"><text fill="#000000" font-family="Arial" font-size="22" font-weight="bold" lengthAdjust="spacing" textLength="689.3154" x="1673.3761" y="35.6357">CMD-tu - tu deep internal flow (observed) (LOD1: Code Functions)</text></g><!--entity NOTE_ANCHOR--><!--entity main_entry--><g class="entity" data-entity="main_entry" data-source-line="16" data-uid="ent0006" id="entity_main_entry"><rect fill="#FFFFFF" height="52.1973" rx="2.5" ry="2.5" style="stroke:#000000;stroke-width:1;" width="132.8066" x="1217.38" y="161.0479"/><text fill="#000000" font-family="Arial" font-size="14" lengthAdjust="spacing" textLength="69.2549" x="1227.38" y="184.1797">main_entry</text><text fill="#000000" font-family="Arial" font-size="14" lengthAdjust="spacing" textLength="112.8066" x="1227.38" y="200.2783">(maestro/main.py)</text></g><!--entity add_tu_parser--><g class="entity" data-entity="add_tu_parser" data-source-line="17" data-uid="ent0007" id="entity_add_tu_parser"><rect fill="#FFFFFF" height="52.1973" rx="2.5" ry="2.5" style="stroke:#000000;stroke-width:1;" width="186.4961" x="1190.54" y="319.4079"/><text fill="#000000" font-family="Arial" font-size="14" lengthAdjust="spacing" textLength="90.2891" x="1200.54" y="342.5397">add_tu_parser</text><text fill="#000000" font-family="Arial" font-size="14" lengthAdjust="spacing" textLength="166.4961" x="1200.54" y="358.6383">(maestro/commands/tu.py)</text></g><!--entity handle_tu_command--><g class="entity" data-entity="handle_tu_command" data-source-line="18" data-uid="ent0008" id="entity_handle_tu_command"><rect fill="#FFFFFF" height="52.1973" rx="2.5" ry="2.5" style="stroke:#000000;stroke-width:1;" width="186.4961" x="2594.54" y="161.0479"/><text fill="#000000" font-family="Arial" font-size="14" lengthAdjust="spacing" textLength="130.7578" x="2604.54" y="184.1797">handle_tu_command</text><text fill="#000000" font-family="Arial" font-size="14" lengthAdjust="spacing" textLength="166.4961" x="2604.54" y="200.2783">(maestro/commands/tu.py)</text></g><!--entity handle_tu_build_command--><g class="entity" data-entity="handle_tu_build_command" data-source-line="19" data-uid="ent0009" id="entity_handle_tu_build_command"><rect fill="#FFFFFF" height="52.1973" rx="2.5" ry="2.5" style="stroke:#000000;stroke-width:1;" width="188.123" x="1411.72" y="319.4079"/><text fill="#000000" font-family="Arial" font-size="14" lengthAdjust="spacing" textLength="168.123" x="1421.72" y="342.5397">handle_tu_build_command</text><text fill="#000000" font-family="Arial" font-size="14" lengthAdjust="spacing" textLength="166.4961" x="1421.72" y="358.6383">(maestro/commands/tu.py)</text></g><!--entity handle_tu_info_command--><g class="entity" data-entity="handle_tu_info_command" data-source-line="20" data-uid="ent0010" id="entity_handle_tu_info_command"><rect fill="#FFFFFF" height="52.1973" rx="2.5" ry="2.5" style="stroke:#000000;stroke-width:1;" width="186.4961" x="1634.54" y="319.4079"/><text fill="#000000" font-family="Arial" font-size="14" lengthAdjust="spacing" textLength="161.1162" x="1644.54" y="342.5397">handle_tu_info_command</text><text fill="#000000" font-family="Arial" font-size="14" lengthAdjust="spacing" textLength="166.4961" x="1644.54" y="358.6383">(maestro/commands/tu.py)</text></g><!--entity handle_tu_query_command--><g class="entity" data-entity="handle_tu_query_command" data-source-line="21" data-uid="ent0011" id="entity_handle_tu_query_command"><rect fill="#FFFFFF" height="52.1973" rx="2.5" ry="2.5" style="stroke:#000000;stroke-width:1;" width="193.5645" x="1856" y="319.4079"/><text fill="#000000" font-family="Arial" font-size="14" lengthAdjust="spacing" textLength="173.5645" x="1866" y="342.5397">handle_tu_query_command</text><text fill="#000000" font-family="Arial" font-size="14" lengthAdjust="spacing" textLength="166.4961" x="1866" y="358.6383">(maestro/commands/tu.py)</text></g><!--entity handle_tu_complete_command--><g class="entity" data-entity="handle_tu_complete_command" data-source-line="22" data-uid="ent0012" id="entity_handle_tu_complete_command"><rect fill="#FFFFFF" height="52.1973" rx="2.5" ry="2.5" style="stroke:#000000;stroke-width:1;" width="215.3506" x="2344.11" y="319.4079"/><text fill="#000000" font-family="Arial" font-size="14" lengthAdjust="spacing" textLength="195.3506" x="2354.11" y="342.5397">handle_tu_complete_command</text><text fill="#000000" font-family="Arial" font-size="14" lengthAdjust="spacing" textLength="166.4961" x="2354.11" y="358.6383">(maestro/commands/tu.py)</text></g><!--entity handle_tu_references_command--><g class="entity" data-entity="handle_tu_references_command" data-source-line="23" data-uid="ent0013" id="entity_handle_tu_references_command"><rect fill="#FFFFFF" height="52.1973" rx="2.5" ry="2.5" style="stroke:#000000;stroke-width:1;" width="224.6885" x="2084.44" y="319.4079"/><text fill="#000000" font-family="Arial" font-size="14" lengthAdjust="spacing" textLength="204.6885" x="2094.44" y="342.5397">handle_tu_references_command</text><text fill="#000000" font-family="Arial" font-size="14" lengthAdjust="spacing" textLength="166.4961" x="2094.44" y="358.6383">(maestro/commands/tu.py)</text></g><!--entity handle_tu_lsp_command--><g class="entity" data-entity="handle_tu_lsp_command" data-source-line="24" data-uid="ent0014" id="entity_handle_tu_lsp_command"><rect fill="#FFFFFF" height="52.1973" rx="2.5" ry="2.5" style="stroke:#000000;stroke-width:1;" width="186.4961" x="2594.54" y="319.4079"/><text fill="#000000" font-family="Arial" font-size="14" lengthAdjust="spacing" textLength="156.4404" x="2604.54" y="342.5397">handle_tu_lsp_command</text><text fill="#000000" font-family="Arial" font-size="14" lengthAdjust="spacing" textLength="166.4961" x="2604.54" y="358.6383">(maestro/commands/tu.py)</text></g><!--entity handle_tu_cache_clear_command--><g class="entity" data-entity="handle_tu_cache_clear_command" data-source-line="25" data-uid="ent0015" id="entity_handle_tu_cache_clear_command"><rect fill="#FFFFFF" height="52.1973" rx="2.5" ry="2.5" style="stroke:#000000;stroke-width:1;" width="234.0332" x="2815.77" y="319.4079"/><text fill="#000000" font-family="Arial" font-size="14" lengthAdjust="spacing" textLength="214.0332" x="2825.77" y="342.5397">handle_tu_cache_clear_command</text><text fill="#000000" font-family="Arial" font-size="14" lengthAdjust="spacing" textLength="166.4961" x="2825.77" y="358.6383">(maestro/commands/tu.py)</text></g><!--entity handle_tu_cache_stats_command--><g class="entity" data-entity="handle_tu_cache_stats_command" data-source-line="26" data-uid="ent0016" id="entity_handle_tu_cache_stats_command"><rect fill="#FFFFFF" height="52.1973" rx="2.5" ry="2.5" style="stroke:#000000;stroke-width:1;" width="233.2539" x="3085.16" y="319.4079"/><text fill="#000000" font-family="Arial" font-size="14" lengthAdjust="spacing" textLength="213.2539" x="3095.16" y="342.5397">handle_tu_cache_stats_command</text><text fill="#000000" font-family="Arial" font-size="14" lengthAdjust="spacing" textLength="166.4961" x="3095.16" y="358.6383">(maestro/commands/tu.py)</text></g><!--entity handle_tu_transform_command--><g class="entity" data-entity="handle_tu_transform_command" data-source-line="27" data-uid="ent0017" id="entity_handle_tu_transform_command"><rect fill="#FFFFFF" height="52.1973" rx="2.5" ry="2.5" style="stroke:#000000;stroke-width:1;" width="217.668" x="3352.95" y="319.4079"/><text fill="#000000" font-family="Arial" font-size="14" lengthAdjust="spacing" textLength="197.668" x="3362.95" y="342.5397">handle_tu_transform_command</text><text fill="#000000" font-family="Arial" font-size="14" lengthAdjust="spacing" textLength="166.4961" x="3362.95" y="358.6383">(maestro/commands/tu.py)</text></g><!--entity handle_tu_print_ast_command--><g class="entity" data-entity="handle_tu_print_ast_command" data-source-line="28" data-uid="ent0018" id="entity_handle_tu_print_ast_command"><rect fill="#FFFFFF" height="52.1973" rx="2.5" ry="2.5" style="stroke:#000000;stroke-width:1;" width="212.2402" x="3605.66" y="319.4079"/><text fill="#000000" font-family="Arial" font-size="14" lengthAdjust="spacing" textLength="192.2402" x="3615.66" y="342.5397">handle_tu_print_ast_command</text><text fill="#000000" font-family="Arial" font-size="14" lengthAdjust="spacing" textLength="166.4961" x="3615.66" y="358.6383">(maestro/commands/tu.py)</text></g><!--entity handle_tu_draft_command--><g class="entity" data-entity="handle_tu_draft_command" data-source-line="29" data-uid="ent0019" id="entity_handle_tu_draft_command"><rect fill="#FFFFFF" height="52.1973" rx="2.5" ry="2.5" style="stroke:#000000;stroke-width:1;" width="186.5576" x="3852.51" y="319.4079"/><text fill="#000000" font-family="Arial" font-size="14" lengthAdjust="spacing" textLength="166.5576" x="3862.51" y="342.5397">handle_tu_draft_command</text><text fill="#000000" font-family="Arial" font-size="14" lengthAdjust="spacing" textLength="166.4961" x="3862.51" y="358.6383">(maestro/commands/tu.py)</text></g><!--entity detect_language_from_path--><g class="entity" data-entity="detect_language_from_path" data-source-line="30" data-uid="ent0020" id="entity_detect_language_from_path"><rect fill="#FFFFFF" height="52.1973" rx="2.5" ry="2.5" style="stroke:#000000;stroke-width:1;" width="194.3574" x="1115.61" y="444.0579"/><text fill="#000000" font-family="Arial" font-size="14" lengthAdjust="spacing" textLength="174.3574" x="1125.61" y="467.1897">detect_language_from_path</text><text fill="#000000" font-family="Arial" font-size="14" lengthAdjust="spacing" textLength="166.4961" x="1125.61" y="483.2883">(maestro/commands/tu.py)</text></g><!--entity get_files_by_language--><g class="entity" data-entity="get_files_by_language" data-source-line="43" data-uid="ent0033" id="entity_get_files_by_language"><ellipse cx="1414.7881" cy="440.6079" fill="#FFFFFF" rx="8" ry="8" style="stroke:#000000;stroke-width:1;"/><path d="M1414.7881,448.6079 L1414.7881,475.6079 M1401.7881,456.6079 L1427.7881,456.6079 M1414.7881,475.6079 L1401.7881,490.6079 M1414.7881,475.6079 L1427.7881,490.6079" fill="none" style="stroke:#000000;stroke-width:1;"/><text fill="#000000" font-family="Arial" font-size="14" lengthAdjust="spacing" textLength="140.1162" x="1344.73" y="505.7397">get_files_by_language</text></g><!--entity get_parser_by_language--><g class="entity" data-entity="get_parser_by_language" data-source-line="45" data-uid="ent0036" id="entity_get_parser_by_language"><ellipse cx="1597.7812" cy="440.6079" fill="#FFFFFF" rx="8" ry="8" style="stroke:#000000;stroke-width:1;"/><path d="M1597.7812,448.6079 L1597.7812,475.6079 M1584.7812,456.6079 L1610.7812,456.6079 M1597.7812,475.6079 L1584.7812,490.6079 M1597.7812,475.6079 L1610.7812,490.6079" fill="none" style="stroke:#000000;stroke-width:1;"/><text fill="#000000" font-family="Arial" font-size="14" lengthAdjust="spacing" textLength="154.9023" x="1520.33" y="505.7397">get_parser_by_language</text></g><!--entity tu_builder--><g class="entity" data-entity="tu_builder" data-source-line="46" data-uid="ent0038" id="entity_tu_builder"><ellipse cx="1740.7846" cy="440.6079" fill="#FFFFFF" rx="8" ry="8" style="stroke:#000000;stroke-width:1;"/><path d="M1740.7846,448.6079 L1740.7846,475.6079 M1727.7846,456.6079 L1753.7846,456.6079 M1740.7846,475.6079 L1727.7846,490.6079 M1740.7846,475.6079 L1753.7846,490.6079" fill="none" style="stroke:#000000;stroke-width:1;"/><text fill="#000000" font-family="Arial" font-size="14" lengthAdjust="spacing" textLength="61.4893" x="1710.04" y="505.7397">tu_builder</text></g><!--entity symbol_index--><g class="entity" data-entity="symbol_index" data-source-line="47" data-uid="ent0040" id="entity_symbol_index"><ellipse cx="2074.7898" cy="440.6079" fill="#FFFFFF" rx="8" ry="8" style="stroke:#000000;stroke-width:1;"/><path d="M2074.7898,448.6079 L2074.7898,475.6079 M2061.7898,456.6079 L2087.7898,456.6079 M2074.7898,475.6079 L2061.7898,490.6079 M2074.7898,475.6079 L2087.7898,490.6079" fill="none" style="stroke:#000000;stroke-width:1;"/><text fill="#000000" font-family="Arial" font-size="14" lengthAdjust="spacing" textLength="85.5996" x="2031.99" y="505.7397">symbol_index</text></g><!--entity completion_provider--><g class="entity" data-entity="completion_provider" data-source-line="48" data-uid="ent0042" id="entity_completion_provider"><ellipse cx="2451.7842" cy="440.6079" fill="#FFFFFF" rx="8" ry="8" style="stroke:#000000;stroke-width:1;"/><path d="M2451.7842,448.6079 L2451.7842,475.6079 M2438.7842,456.6079 L2464.7842,456.6079 M2451.7842,475.6079 L2438.7842,490.6079 M2451.7842,475.6079 L2464.7842,490.6079" fill="none" style="stroke:#000000;stroke-width:1;"/><text fill="#000000" font-family="Arial" font-size="14" lengthAdjust="spacing" textLength="126.0684" x="2388.75" y="505.7397">completion_provider</text></g><!--entity maestro_lsp_server--><g class="entity" data-entity="maestro_lsp_server" data-source-line="50" data-uid="ent0045" id="entity_maestro_lsp_server"><ellipse cx="2687.7888" cy="440.6079" fill="#FFFFFF" rx="8" ry="8" style="stroke:#000000;stroke-width:1;"/><path d="M2687.7888,448.6079 L2687.7888,475.6079 M2674.7888,456.6079 L2700.7888,456.6079 M2687.7888,475.6079 L2674.7888,490.6079 M2687.7888,475.6079 L2700.7888,490.6079" fill="none" style="stroke:#000000;stroke-width:1;"/><text fill="#000000" font-family="Arial" font-size="14" lengthAdjust="spacing" textLength="122.9375" x="2626.32" y="505.7397">maestro_lsp_server</text></g><!--link NOTE_ANCHOR to GMN3--><!--link main_entry to add_tu_parser--><g class="link" data-entity-1="main_entry" data-entity-2="add_tu_parser" data-source-line="31" data-uid="lnk21" id="link_main_entry_add_tu_parser"><path d="M1283.78,213.6179 C1283.78,242.6879 1283.78,283.9779 1283.78,313.0479" fill="none" id="main_entry-to-add_tu_parser" style="stroke:#333333;stroke-width:1;"/><polygon fill="#333333" points="1283.78,319.0479,1287.78,310.0479,1283.78,314.0479,1279.78,310.0479,1283.78,319.0479" style="stroke:#333333;stroke-width:1;"/></g><!--link handle_tu_command to handle_tu_build_command--><g class="link" data-entity-1="handle_tu_command" data-entity-2="handle_tu_build_command" data-source-line="32" data-uid="lnk22" id="link_handle_tu_command_handle_tu_build_command"><path d="M2594.2,196.4279 C2407.49,213.6479 1975.75,256.9879 1616.78,319.4079 C1611.33,320.3579 1611.6387,320.2473 1606.0087,321.3473" fill="none" id="handle_tu_command-to-handle_tu_build_command" style="stroke:#333333;stroke-width:1;"/><polygon fill="#333333" points="1600.12,322.4979,1609.72,324.6978,1605.0272,321.5391,1608.186,316.8463,1600.12,322.4979" style="stroke:#333333;stroke-width:1;"/></g><!--link handle_tu_command to handle_tu_info_command--><g class="link" data-entity-1="handle_tu_command" data-entity-2="handle_tu_info_command" data-source-line="33" data-uid="lnk23" id="link_handle_tu_command_handle_tu_info_command"><path d="M2594.14,200.4679 C2437.32,221.5979 2111.87,267.4879 1838.78,319.4079 C1833.06,320.4979 1833.0565,320.4568 1827.1365,321.6768" fill="none" id="handle_tu_command-to-handle_tu_info_command" style="stroke:#333333;stroke-width:1;"/><polygon fill="#333333" points="1821.26,322.8879,1830.8821,324.989,1826.1571,321.8787,1829.2674,317.1536,1821.26,322.8879" style="stroke:#333333;stroke-width:1;"/></g><!--link handle_tu_command to handle_tu_query_command--><g class="link" data-entity-1="handle_tu_command" data-entity-2="handle_tu_query_command" data-source-line="34" data-uid="lnk24" id="link_handle_tu_command_handle_tu_query_command"><path d="M2594.1,207.6879 C2472.48,233.1279 2253.67,279.0879 2066.78,319.4079 C2061.24,320.6079 2061.4031,320.5733 2055.6531,321.8233" fill="none" id="handle_tu_command-to-handle_tu_query_command" style="stroke:#333333;stroke-width:1;"/><polygon fill="#333333" points="2049.79,323.0979,2059.4343,325.0947,2054.6759,322.0357,2057.7349,317.2773,2049.79,323.0979" style="stroke:#333333;stroke-width:1;"/></g><!--link handle_tu_command to handle_tu_complete_command--><g class="link" data-entity-1="handle_tu_command" data-entity-2="handle_tu_complete_command" data-source-line="35" data-uid="lnk25" id="link_handle_tu_command_handle_tu_complete_command"><path d="M2649.34,213.6179 C2605.46,242.6879 2539.0919,286.6641 2495.2119,315.7341" fill="none" id="handle_tu_command-to-handle_tu_complete_command" style="stroke:#333333;stroke-width:1;"/><polygon fill="#333333" points="2490.21,319.0479,2499.922,317.4119,2494.3783,316.2864,2495.5037,310.7427,2490.21,319.0479" style="stroke:#333333;stroke-width:1;"/></g><!--link handle_tu_command to handle_tu_references_command--><g class="link" data-entity-1="handle_tu_command" data-entity-2="handle_tu_references_command" data-source-line="36" data-uid="lnk26" id="link_handle_tu_command_handle_tu_references_command"><path d="M2607.53,213.6979 C2516.31,242.7479 2373.9872,288.0774 2282.7572,317.1274" fill="none" id="handle_tu_command-to-handle_tu_references_command" style="stroke:#333333;stroke-width:1;"/><polygon fill="#333333" points="2277.04,318.9479,2286.8294,320.0286,2281.8043,317.4308,2284.4021,312.4057,2277.04,318.9479" style="stroke:#333333;stroke-width:1;"/></g><!--link handle_tu_command to handle_tu_lsp_command--><g class="link" data-entity-1="handle_tu_command" data-entity-2="handle_tu_lsp_command" data-source-line="37" data-uid="lnk27" id="link_handle_tu_command_handle_tu_lsp_command"><path d="M2687.78,213.6179 C2687.78,242.6879 2687.78,283.9779 2687.78,313.0479" fill="none" id="handle_tu_command-to-handle_tu_lsp_command" style="stroke:#333333;stroke-width:1;"/><polygon fill="#333333" points="2687.78,319.0479,2691.78,310.0479,2687.78,314.0479,2683.78,310.0479,2687.78,319.0479" style="stroke:#333333;stroke-width:1;"/></g><!--link handle_tu_command to handle_tu_cache_clear_command--><g class="link" data-entity-1="handle_tu_command" data-entity-2="handle_tu_cache_clear_command" data-source-line="38" data-uid="lnk28" id="link_handle_tu_command_handle_tu_cache_clear_command"><path d="M2727.69,213.6179 C2773.25,242.6879 2842.2822,286.75 2887.8322,315.82" fill="none" id="handle_tu_command-to-handle_tu_cache_clear_command" style="stroke:#333333;stroke-width:1;"/><polygon fill="#333333" points="2892.89,319.0479,2887.4553,310.8342,2888.6752,316.358,2883.1515,317.5779,2892.89,319.0479" style="stroke:#333333;stroke-width:1;"/></g><!--link handle_tu_command to handle_tu_cache_stats_command--><g class="link" data-entity-1="handle_tu_command" data-entity-2="handle_tu_cache_stats_command" data-source-line="39" data-uid="lnk29" id="link_handle_tu_command_handle_tu_cache_stats_command"><path d="M2771.8,213.6979 C2867.29,242.7479 3016.5297,288.1517 3112.0297,317.2017" fill="none" id="handle_tu_command-to-handle_tu_cache_stats_command" style="stroke:#333333;stroke-width:1;"/><polygon fill="#333333" points="3117.77,318.9479,3110.3236,312.5018,3112.9864,317.4927,3107.9955,320.1555,3117.77,318.9479" style="stroke:#333333;stroke-width:1;"/></g><!--link handle_tu_command to handle_tu_transform_command--><g class="link" data-entity-1="handle_tu_command" data-entity-2="handle_tu_transform_command" data-source-line="40" data-uid="lnk30" id="link_handle_tu_command_handle_tu_transform_command"><path d="M2781.53,207.0779 C2925.42,236.1479 3194.1388,290.4399 3346.7688,321.2699" fill="none" id="handle_tu_command-to-handle_tu_transform_command" style="stroke:#333333;stroke-width:1;"/><polygon fill="#333333" points="3352.65,322.4579,3344.6201,316.7551,3347.749,321.4679,3343.0362,324.5967,3352.65,322.4579" style="stroke:#333333;stroke-width:1;"/></g><!--link handle_tu_command to handle_tu_print_ast_command--><g class="link" data-entity-1="handle_tu_command" data-entity-2="handle_tu_print_ast_command" data-source-line="41" data-uid="lnk31" id="link_handle_tu_command_handle_tu_print_ast_command"><path d="M2781.34,200.0679 C2945.18,221.3379 3294.54,268.3879 3587.78,319.4079 C3593.52,320.4079 3593.501,320.3717 3599.421,321.4717" fill="none" id="handle_tu_command-to-handle_tu_print_ast_command" style="stroke:#333333;stroke-width:1;"/><polygon fill="#333333" points="3605.32,322.5679,3597.2022,316.991,3600.4041,321.6544,3595.7407,324.8564,3605.32,322.5679" style="stroke:#333333;stroke-width:1;"/></g><!--link handle_tu_command to handle_tu_draft_command--><g class="link" data-entity-1="handle_tu_command" data-entity-2="handle_tu_draft_command" data-source-line="42" data-uid="lnk32" id="link_handle_tu_command_handle_tu_draft_command"><path d="M2781.28,195.3079 C2977.6,211.1279 3446.72,252.9879 3835.78,319.4079 C3841.09,320.3179 3840.6412,320.168 3846.1212,321.238" fill="none" id="handle_tu_command-to-handle_tu_draft_command" style="stroke:#333333;stroke-width:1;"/><polygon fill="#333333" points="3852.01,322.3879,3843.9434,316.7373,3847.1027,321.4297,3842.4103,324.589,3852.01,322.3879" style="stroke:#333333;stroke-width:1;"/></g><!--link handle_tu_build_command to get_files_by_language--><g class="link" data-entity-1="handle_tu_build_command" data-entity-2="get_files_by_language" data-source-line="43" data-uid="lnk34" id="link_handle_tu_build_command_get_files_by_language"><path d="M1486.93,371.9279 C1474.23,389.0479 1460.8255,407.1096 1446.5255,426.3796" fill="none" id="handle_tu_build_command-to-get_files_by_language" style="stroke:#333333;stroke-width:1;"/><polygon fill="#333333" points="1442.95,431.1979,1451.5255,426.3542,1445.9296,427.1827,1445.1012,421.5868,1442.95,431.1979" style="stroke:#333333;stroke-width:1;"/></g><!--link handle_tu_build_command to detect_language_from_path--><g class="link" data-entity-1="handle_tu_build_command" data-entity-2="detect_language_from_path" data-source-line="44" data-uid="lnk35" id="link_handle_tu_build_command_detect_language_from_path"><path d="M1444.72,372.0679 C1394.57,393.0679 1329.4348,420.3315 1279.3048,441.3115" fill="none" id="handle_tu_build_command-to-detect_language_from_path" style="stroke:#333333;stroke-width:1;"/><polygon fill="#333333" points="1273.77,443.6279,1283.6165,443.8432,1278.3824,441.6975,1280.528,436.4634,1273.77,443.6279" style="stroke:#333333;stroke-width:1;"/></g><!--link handle_tu_build_command to get_parser_by_language--><g class="link" data-entity-1="handle_tu_build_command" data-entity-2="get_parser_by_language" data-source-line="45" data-uid="lnk37" id="link_handle_tu_build_command_get_parser_by_language"><path d="M1524.85,371.9279 C1537.69,389.0479 1551.2604,407.1276 1565.7104,426.3976" fill="none" id="handle_tu_build_command-to-get_parser_by_language" style="stroke:#333333;stroke-width:1;"/><polygon fill="#333333" points="1569.31,431.1979,1567.1108,421.5977,1566.3103,427.1976,1560.7104,426.3971,1569.31,431.1979" style="stroke:#333333;stroke-width:1;"/></g><!--link handle_tu_build_command to tu_builder--><g class="link" data-entity-1="handle_tu_build_command" data-entity-2="tu_builder" data-source-line="46" data-uid="lnk39" id="link_handle_tu_build_command_tu_builder"><path d="M1571.75,372.0179 C1608.46,387.3179 1654.36,408.2879 1692.78,431.6079 C1698.48,435.0679 1699.4706,435.5104 1704.9806,439.6204" fill="none" id="handle_tu_build_command-to-tu_builder" style="stroke:#333333;stroke-width:1;"/><polygon fill="#333333" points="1709.79,443.2079,1704.9675,434.6205,1705.7822,440.2183,1700.1843,441.033,1709.79,443.2079" style="stroke:#333333;stroke-width:1;"/></g><!--link handle_tu_query_command to symbol_index--><g class="link" data-entity-1="handle_tu_query_command" data-entity-2="symbol_index" data-source-line="47" data-uid="lnk41" id="link_handle_tu_query_command_symbol_index"><path d="M1978.06,371.9279 C1995.09,389.0479 2013.6295,407.6731 2032.7895,426.9431" fill="none" id="handle_tu_query_command-to-symbol_index" style="stroke:#333333;stroke-width:1;"/><polygon fill="#333333" points="2037.02,431.1979,2033.5108,421.9954,2033.4946,427.6522,2027.8378,427.636,2037.02,431.1979" style="stroke:#333333;stroke-width:1;"/></g><!--link handle_tu_complete_command to completion_provider--><g class="link" data-entity-1="handle_tu_complete_command" data-entity-2="completion_provider" data-source-line="48" data-uid="lnk43" id="link_handle_tu_complete_command_completion_provider"><path d="M2451.78,371.9279 C2451.78,389.0479 2451.78,405.9279 2451.78,425.1979" fill="none" id="handle_tu_complete_command-to-completion_provider" style="stroke:#333333;stroke-width:1;"/><polygon fill="#333333" points="2451.78,431.1979,2455.78,422.1979,2451.78,426.1979,2447.78,422.1979,2451.78,431.1979" style="stroke:#333333;stroke-width:1;"/></g><!--link handle_tu_references_command to symbol_index--><g class="link" data-entity-1="handle_tu_references_command" data-entity-2="symbol_index" data-source-line="49" data-uid="lnk44" id="link_handle_tu_references_command_symbol_index"><path d="M2171.51,371.9279 C2154.48,389.0479 2135.9405,407.6731 2116.7805,426.9431" fill="none" id="handle_tu_references_command-to-symbol_index" style="stroke:#333333;stroke-width:1;"/><polygon fill="#333333" points="2112.55,431.1979,2121.7322,427.636,2116.0754,427.6522,2116.0592,421.9954,2112.55,431.1979" style="stroke:#333333;stroke-width:1;"/></g><!--link handle_tu_lsp_command to maestro_lsp_server--><g class="link" data-entity-1="handle_tu_lsp_command" data-entity-2="maestro_lsp_server" data-source-line="50" data-uid="lnk46" id="link_handle_tu_lsp_command_maestro_lsp_server"><path d="M2687.78,371.9279 C2687.78,389.0479 2687.78,405.9279 2687.78,425.1979" fill="none" id="handle_tu_lsp_command-to-maestro_lsp_server" style="stroke:#333333;stroke-width:1;"/><polygon fill="#333333" points="2687.78,431.1979,2691.78,422.1979,2687.78,426.1979,2683.78,422.1979,2687.78,431.1979" style="stroke:#333333;stroke-width:1;"/></g><!--SRC=[dLV1RkCs4BthAwRf9GaG2zi2UzW22sGTfHiWiHTfzfGk15eSsKGeKYKff_wLdlfj_P8EQNiZHd9ahM3O9ZdlpMZqPZp-oQsmGgWb4ognJqBLpB0A5gnuMXhTA3xLKXlu-JfSBGkE9MkakzRApHWnN1h1PElyqXZzl0F_6gxMuKmx_AGDHxEpc8RhjKLV46ILEE4amlJkwi8rS07qnX5h4CgXKKn2AVKpdEg5HRD6VWQdj_EhTnzWgZd2TQCA9xIoPqdIM2oOHJXXgbXfSmBCmcp-aEMNi-dd-Nso4WHeRoYA2enOhXpeCZe1E3__GpUcm0_dv_3uo7LXqsTjddmiDbt_aWgJ5XLFjr5F2efbic6LXACjltrBK77mCII9mS8njQGqd5Jqw79Kpcp-LASLG-kCJltcfDwSXNjwiMZZ6EUvQtBAD-Mf1IrqLJ75RKhEzmoHRPjaHPOI_TaEDa3KiUydMpH2yj6K4QgVMAXIZ-PjW_ff_shGR4RpHgY3MQqbEloHz4R0Vdg39HfK1ThH3hhGVXVIrgEvMvW3QM75YcvD8ZFZCzF5lkN4EkRi3pg9iFrEd67AbjfKerrqaFqEQaDzCMVMZNRGGVOxu8QLuyaZL9kOasWBbqjQDco9UMbqHOt7hGQe3-AIb_O75nSVN_MoJaCADeTwof1rr2c6ZEFo7xBk5FGGeAT0Xo3jkXkCfwUCZiF4LJ64wSfy2D7LxH0Y5kE1XnymItHvAIJbTB7vhhKt4OTrEUHdgz2Z7Uqt8r576WjcTbCjj2IbSlmxEIolOBlRf769aghN8kRk2kmj1orj1RDTBOVzCAYPP3jVIInxnwlC-rTXmF9h6hBMxzBzp9Vw2T2FJU5nqlT9tT1mzNg3PgWjzDNKrTzO8BmFOLoJlgH-YsgjZa27J0crzDZMzoEGBxdps6XrJDJxoa9ZGzpn-WW6gZ4Ft7uSOUzdsNo92WrpEiJSsOcct8FpjlylaBtFtWTX_FVFlt2BV8a6FfCUx5uWyzqV09ZiGW0k_0-DfX-2nb8v0TqiF7o5q9R02vEHb3PMsDzWBRHa3YrSp-y_tLpbzzaN8gNNu-DaajBhvkxBRNQNpHuk7sxci_msk_ezkvzK77eFGdBsK8ErDiwcCWHDNL5nmRqp3z_ToVJxPZiZ_mC0]--></g></svg>