<svg xmlns="http://www.w3.org/2000/svg" xmlns:xlink="http://www.w3.org/1999/xlink" contentStyleType="text/css" data-diagram-type="DESCRIPTION" height="524px" preserveAspectRatio="none" style="width:1558px;height:524px;background:#FFFFFF;" version="1.1" viewBox="0 0 1558 524" width="1558px" zoomAndPan="magnify"><title>CMD-ai - ai deep internal flow (observed) (LOD0: Code Modules)</title><defs/><g><g class="title" data-source-line="8"><text fill="#000000" font-family="Arial" font-size="22" font-weight="bold" lengthAdjust="spacing" textLength="668.6045" x="440.4078" y="35.6357">CMD-ai - ai deep internal flow (observed) (LOD0: Code Modules)</text></g><!--cluster Code Modules--><g class="cluster" data-entity="Code Modules" data-source-line="16" data-uid="ent0006" id="cluster_Code Modules"><path d="M1175.92,144.2879 L1272.5889,144.2879 A3.75,3.75 0 0 1 1275.0889,146.7879 L1282.0889,166.3865 L1548.92,166.3865 A2.5,2.5 0 0 1 1551.42,168.8865 L1551.42,515.2479 A2.5,2.5 0 0 1 1548.92,517.7479 L1175.92,517.7479 A2.5,2.5 0 0 1 1173.42,515.2479 L1173.42,146.7879 A2.5,2.5 0 0 1 1175.92,144.2879" fill="#FFFFFF" style="stroke:#000000;stroke-width:1;"/><line style="stroke:#000000;stroke-width:1;" x1="1173.42" x2="1282.0889" y1="166.3865" y2="166.3865"/><text fill="#000000" font-family="Arial" font-size="14" font-weight="bold" lengthAdjust="spacing" textLength="95.6689" x="1177.42" y="159.4197">Code Modules</text></g><!--entity ai--><g class="entity" data-entity="ai" data-source-line="17" data-uid="ent0007" id="entity_ai"><rect fill="#FFFFFF" height="46.0986" rx="2.5" ry="2.5" style="stroke:#000000;stroke-width:1;" width="50.8965" x="1200.97" y="179.2879"/><rect fill="#FFFFFF" height="10" style="stroke:#000000;stroke-width:1;" width="15" x="1231.8665" y="184.2879"/><rect fill="#FFFFFF" height="2" style="stroke:#000000;stroke-width:1;" width="4" x="1229.8665" y="186.2879"/><rect fill="#FFFFFF" height="2" style="stroke:#000000;stroke-width:1;" width="4" x="1229.8665" y="190.2879"/><text fill="#000000" font-family="Arial" font-size="14" lengthAdjust="spacing" textLength="10.8965" x="1215.97" y="212.4197">ai</text></g><!--entity manager--><g class="entity" data-entity="manager" data-source-line="18" data-uid="ent0008" id="entity_manager"><rect fill="#FFFFFF" height="46.0986" rx="2.5" ry="2.5" style="stroke:#000000;stroke-width:1;" width="95.2549" x="1286.8" y="179.2879"/><rect fill="#FFFFFF" height="10" style="stroke:#000000;stroke-width:1;" width="15" x="1362.0549" y="184.2879"/><rect fill="#FFFFFF" height="2" style="stroke:#000000;stroke-width:1;" width="4" x="1360.0549" y="186.2879"/><rect fill="#FFFFFF" height="2" style="stroke:#000000;stroke-width:1;" width="4" x="1360.0549" y="190.2879"/><text fill="#000000" font-family="Arial" font-size="14" lengthAdjust="spacing" textLength="55.2549" x="1301.8" y="212.4197">manager</text></g><!--entity task_sync--><g class="entity" data-entity="task_sync" data-source-line="19" data-uid="ent0009" id="entity_task_sync"><rect fill="#FFFFFF" height="46.0986" rx="2.5" ry="2.5" style="stroke:#000000;stroke-width:1;" width="102.248" x="1417.3" y="179.2879"/><rect fill="#FFFFFF" height="10" style="stroke:#000000;stroke-width:1;" width="15" x="1499.548" y="184.2879"/><rect fill="#FFFFFF" height="2" style="stroke:#000000;stroke-width:1;" width="4" x="1497.548" y="186.2879"/><rect fill="#FFFFFF" height="2" style="stroke:#000000;stroke-width:1;" width="4" x="1497.548" y="190.2879"/><text fill="#000000" font-family="Arial" font-size="14" lengthAdjust="spacing" textLength="62.248" x="1432.3" y="212.4197">task_sync</text></g><!--entity types--><g class="entity" data-entity="types" data-source-line="20" data-uid="ent0010" id="entity_types"><rect fill="#FFFFFF" height="46.0986" rx="2.5" ry="2.5" style="stroke:#000000;stroke-width:1;" width="73.4619" x="1189.69" y="349.5479"/><rect fill="#FFFFFF" height="10" style="stroke:#000000;stroke-width:1;" width="15" x="1243.1519" y="354.5479"/><rect fill="#FFFFFF" height="2" style="stroke:#000000;stroke-width:1;" width="4" x="1241.1519" y="356.5479"/><rect fill="#FFFFFF" height="2" style="stroke:#000000;stroke-width:1;" width="4" x="1241.1519" y="360.5479"/><text fill="#000000" font-family="Arial" font-size="14" lengthAdjust="spacing" textLength="33.4619" x="1204.69" y="382.6797">types</text></g><!--entity breadcrumb--><g class="entity" data-entity="breadcrumb" data-source-line="21" data-uid="ent0011" id="entity_breadcrumb"><rect fill="#FFFFFF" height="46.0986" rx="2.5" ry="2.5" style="stroke:#000000;stroke-width:1;" width="114.7031" x="1298.07" y="349.5479"/><rect fill="#FFFFFF" height="10" style="stroke:#000000;stroke-width:1;" width="15" x="1392.7731" y="354.5479"/><rect fill="#FFFFFF" height="2" style="stroke:#000000;stroke-width:1;" width="4" x="1390.7731" y="356.5479"/><rect fill="#FFFFFF" height="2" style="stroke:#000000;stroke-width:1;" width="4" x="1390.7731" y="360.5479"/><text fill="#000000" font-family="Arial" font-size="14" lengthAdjust="spacing" textLength="74.7031" x="1313.07" y="382.6797">breadcrumb</text></g><!--entity settings--><g class="entity" data-entity="settings" data-source-line="23" data-uid="ent0012" id="entity_settings"><rect fill="#FFFFFF" height="46.0986" rx="2.5" ry="2.5" style="stroke:#000000;stroke-width:1;" width="88.248" x="1447.3" y="349.5479"/><rect fill="#FFFFFF" height="10" style="stroke:#000000;stroke-width:1;" width="15" x="1515.548" y="354.5479"/><rect fill="#FFFFFF" height="2" style="stroke:#000000;stroke-width:1;" width="4" x="1513.548" y="356.5479"/><rect fill="#FFFFFF" height="2" style="stroke:#000000;stroke-width:1;" width="4" x="1513.548" y="360.5479"/><text fill="#000000" font-family="Arial" font-size="14" lengthAdjust="spacing" textLength="48.248" x="1462.3" y="382.6797">settings</text></g><!--entity main--><g class="entity" data-entity="main" data-source-line="24" data-uid="ent0013" id="entity_main"><rect fill="#FFFFFF" height="46.0986" rx="2.5" ry="2.5" style="stroke:#000000;stroke-width:1;" width="70.3447" x="1191.25" y="455.6479"/><rect fill="#FFFFFF" height="10" style="stroke:#000000;stroke-width:1;" width="15" x="1241.5947" y="460.6479"/><rect fill="#FFFFFF" height="2" style="stroke:#000000;stroke-width:1;" width="4" x="1239.5947" y="462.6479"/><rect fill="#FFFFFF" height="2" style="stroke:#000000;stroke-width:1;" width="4" x="1239.5947" y="466.6479"/><text fill="#000000" font-family="Arial" font-size="14" lengthAdjust="spacing" textLength="30.3447" x="1206.25" y="488.7797">main</text></g><!--entity client--><g class="entity" data-entity="client" data-source-line="25" data-uid="ent0014" id="entity_client"><rect fill="#FFFFFF" height="46.0986" rx="2.5" ry="2.5" style="stroke:#000000;stroke-width:1;" width="72.6826" x="1297.08" y="455.6479"/><rect fill="#FFFFFF" height="10" style="stroke:#000000;stroke-width:1;" width="15" x="1349.7626" y="460.6479"/><rect fill="#FFFFFF" height="2" style="stroke:#000000;stroke-width:1;" width="4" x="1347.7626" y="462.6479"/><rect fill="#FFFFFF" height="2" style="stroke:#000000;stroke-width:1;" width="4" x="1347.7626" y="466.6479"/><text fill="#000000" font-family="Arial" font-size="14" lengthAdjust="spacing" textLength="32.6826" x="1312.08" y="488.7797">client</text></g><!--entity tui--><g class="entity" data-entity="tui" data-source-line="26" data-uid="ent0015" id="entity_tui"><rect fill="#FFFFFF" height="46.0986" rx="2.5" ry="2.5" style="stroke:#000000;stroke-width:1;" width="54.7861" x="1405.03" y="455.6479"/><rect fill="#FFFFFF" height="10" style="stroke:#000000;stroke-width:1;" width="15" x="1439.8161" y="460.6479"/><rect fill="#FFFFFF" height="2" style="stroke:#000000;stroke-width:1;" width="4" x="1437.8161" y="462.6479"/><rect fill="#FFFFFF" height="2" style="stroke:#000000;stroke-width:1;" width="4" x="1437.8161" y="466.6479"/><text fill="#000000" font-family="Arial" font-size="14" lengthAdjust="spacing" textLength="14.7861" x="1420.03" y="488.7797">tui</text></g><!--entity NOTE_ANCHOR--><!--link NOTE_ANCHOR to GMN3--><!--SRC=[ZLHTRzem57tFhxZhNbgaugsJ-j0zCPgkbVZOElQ4giZ45x18xCnsG6ZQ7zdJVjj-oQwT027g1554xlMznpxsEVYDMsAEK6HSgiYkf2guuJdCUBfQ65qgqTUPDl3s8JoD3e5pNcRkGIituZH3pqYUDUezO_Ic1dy8JwCuqWu_QIFGr1tzyBGxNYD1NP6JBaFe3- -lkOHhe1-1M81K3etY6SmplO5BFRDerYYku78mldzt1tqj48PQb1dQgoWgBQRS8bnmbIwrkG1kOJIUn4blr7ySFqTBIUtD0KMSmCZ5qe6U7rK0EfrlkZGftdKwC9qAdLgsqMRbcLYslc7Ii3GNhEBSJOb9Tylp3CxkV7c9K0dm7AAee9FX2wBUtD85_2GYgSuBhL0vsfSCU-BoU3ZdYh3LVklukC5nkqhiLgMXPP-rchQ5Nz8t-EYuE3F8HMhAV1Ow3kbP12qw9zMYcdsNjFSWLRq1ykrHASqaVKEn2bkyosfH-aQ_eahJ3EUlIXgloG8gYEfp4dRzdkrSnhpdl5G9bucFkqL9WhO7IBSAsb8wvsYTqOoeaGZ2CXAxs4BuFONXakrLyQ1cSWhhHnABragjFBQLdu8VfFJWe-mCrhNTFFGGdZuXDPSBjZE21pVYCrOrfL9e0l0GdiBzsA1YbO4yS1-TXIDp1LtAMit3F_U_TuY_tUBR-3OOx-_lFp10GUS3Z-GtkpFWkBxIoB4BdcxXAoq6OSYmoVSdc9SgTIGapwJRqdrOkx6w7ZtFZx2-0OE51cTAjwH9wPrEkrr6xzFmoo0UngD9R_8q7YM3-Fvp_DpD1RnQ20UnW_efZRCi2wIJb1mj1NTeFRpUINy_s3oHVm00]--></g></svg>