<svg xmlns="http://www.w3.org/2000/svg" xmlns:xlink="http://www.w3.org/1999/xlink" contentStyleType="text/css" data-diagram-type="DESCRIPTION" height="363px" preserveAspectRatio="none" style="width:2496px;height:363px;background:#FFFFFF;" version="1.1" viewBox="0 0 2496 363" width="2496px" zoomAndPan="magnify"><title>CMD-track - Combined CLI+Code (LOD0)</title><defs/><g><g class="title" data-source-line="8"><text fill="#000000" font-family="Arial" font-size="22" font-weight="bold" lengthAdjust="spacing" textLength="425.96" x="1030.6286" y="35.6357">CMD-track - Combined CLI+Code (LOD0)</text></g><!--cluster CLI Layer--><g class="cluster" data-entity="CLI Layer" data-source-line="20" data-uid="ent0007" id="cluster_CLI Layer"><path d="M1220.13,148.8479 L1284.9298,148.8479 A3.75,3.75 0 0 1 1287.4298,151.3479 L1294.4298,170.9465 L1722.13,170.9465 A2.5,2.5 0 0 1 1724.63,173.4465 L1724.63,354.0179 A2.5,2.5 0 0 1 1722.13,356.5179 L1220.13,356.5179 A2.5,2.5 0 0 1 1217.63,354.0179 L1217.63,151.3479 A2.5,2.5 0 0 1 1220.13,148.8479" fill="#E6F3FF" style="stroke:#000000;stroke-width:1;"/><line style="stroke:#000000;stroke-width:1;" x1="1217.63" x2="1294.4298" y1="170.9465" y2="170.9465"/><text fill="#000000" font-family="Arial" font-size="14" font-weight="bold" lengthAdjust="spacing" textLength="63.7998" x="1221.63" y="163.9797">CLI Layer</text></g><!--cluster Code Layer--><g class="cluster" data-entity="Code Layer" data-source-line="28" data-uid="ent0013" id="cluster_Code Layer"><path d="M1751.13,147.5979 L1828.378,147.5979 A3.75,3.75 0 0 1 1830.878,150.0979 L1837.878,169.6965 L2232.13,169.6965 A2.5,2.5 0 0 1 2234.63,172.1965 L2234.63,353.3179 A2.5,2.5 0 0 1 2232.13,355.8179 L1751.13,355.8179 A2.5,2.5 0 0 1 1748.63,353.3179 L1748.63,150.0979 A2.5,2.5 0 0 1 1751.13,147.5979" fill="#FFE6E6" style="stroke:#000000;stroke-width:1;"/><line style="stroke:#000000;stroke-width:1;" x1="1748.63" x2="1837.878" y1="169.6965" y2="169.6965"/><text fill="#000000" font-family="Arial" font-size="14" font-weight="bold" lengthAdjust="spacing" textLength="76.248" x="1752.63" y="162.7297">Code Layer</text></g><!--entity maestro track--><g class="entity" data-entity="maestro track" data-source-line="21" data-uid="ent0008" id="entity_maestro track"><ellipse cx="1294.6297" cy="200.6498" fill="#FFFFFF" rx="61.4597" ry="14.6919" style="stroke:#000000;stroke-width:1;"/><text fill="#000000" font-family="Arial" font-size="14" lengthAdjust="spacing" textLength="84.7998" x="1252.2298" y="205.1991">maestro track</text></g><!--entity maestro track list--><g class="entity" data-entity="maestro track list" data-source-line="22" data-uid="ent0009" id="entity_maestro track list"><ellipse cx="1460.6294" cy="200.6517" fill="#FFFFFF" rx="69.4694" ry="16.2939" style="stroke:#000000;stroke-width:1;"/><text fill="#000000" font-family="Arial" font-size="14" lengthAdjust="spacing" textLength="105.7998" x="1407.7295" y="205.2011">maestro track list</text></g><!--entity maestro track add--><g class="entity" data-entity="maestro track add" data-source-line="23" data-uid="ent0010" id="entity_maestro track add"><ellipse cx="1636.6316" cy="200.6442" fill="#FFFFFF" rx="71.9816" ry="16.7963" style="stroke:#000000;stroke-width:1;"/><text fill="#000000" font-family="Arial" font-size="14" lengthAdjust="spacing" textLength="112.0479" x="1580.6077" y="205.1935">maestro track add</text></g><!--entity maestro track remove--><g class="entity" data-entity="maestro track remove" data-source-line="24" data-uid="ent0011" id="entity_maestro track remove"><ellipse cx="1315.6276" cy="321.7674" fill="#FFFFFF" rx="81.7476" ry="18.7495" style="stroke:#000000;stroke-width:1;"/><text fill="#000000" font-family="Arial" font-size="14" lengthAdjust="spacing" textLength="135.3721" x="1247.9416" y="326.3167">maestro track remove</text></g><!--entity maestro track show--><g class="entity" data-entity="maestro track show" data-source-line="25" data-uid="ent0012" id="entity_maestro track show"><ellipse cx="1508.6288" cy="321.7716" fill="#FFFFFF" rx="75.8188" ry="17.5638" style="stroke:#000000;stroke-width:1;"/><text fill="#000000" font-family="Arial" font-size="14" lengthAdjust="spacing" textLength="121.3721" x="1447.9428" y="326.3209">maestro track show</text></g><!--entity main--><g class="entity" data-entity="main" data-source-line="29" data-uid="ent0014" id="entity_main"><rect fill="#FFFFFF" height="36.0986" rx="2.5" ry="2.5" style="stroke:#000000;stroke-width:1;" width="50.3447" x="1764.46" y="182.5979"/><text fill="#000000" font-family="Arial" font-size="14" lengthAdjust="spacing" textLength="30.3447" x="1774.46" y="205.7297">main</text></g><!--entity handle_track_command--><g class="entity" data-entity="handle_track_command" data-source-line="30" data-uid="ent0015" id="entity_handle_track_command"><rect fill="#FFFFFF" height="36.0986" rx="2.5" ry="2.5" style="stroke:#000000;stroke-width:1;" width="169.4199" x="1849.92" y="182.5979"/><text fill="#000000" font-family="Arial" font-size="14" lengthAdjust="spacing" textLength="149.4199" x="1859.92" y="205.7297">handle_track_command</text></g><!--entity resolve_track_identifier--><g class="entity" data-entity="resolve_track_identifier" data-source-line="31" data-uid="ent0016" id="entity_resolve_track_identifier"><rect fill="#FFFFFF" height="36.0986" rx="2.5" ry="2.5" style="stroke:#000000;stroke-width:1;" width="163.958" x="2054.66" y="182.5979"/><text fill="#000000" font-family="Arial" font-size="14" lengthAdjust="spacing" textLength="143.958" x="2064.66" y="205.7297">resolve_track_identifier</text></g><!--entity resolve_identifier_by_type--><g class="entity" data-entity="resolve_identifier_by_type" data-source-line="32" data-uid="ent0017" id="entity_resolve_identifier_by_type"><rect fill="#FFFFFF" height="36.0986" rx="2.5" ry="2.5" style="stroke:#000000;stroke-width:1;" width="182.6543" x="1764.31" y="303.7179"/><text fill="#000000" font-family="Arial" font-size="14" lengthAdjust="spacing" textLength="162.6543" x="1774.31" y="326.8497">resolve_identifier_by_type</text></g><!--entity list_tracks--><g class="entity" data-entity="list_tracks" data-source-line="33" data-uid="ent0018" id="entity_list_tracks"><rect fill="#FFFFFF" height="36.0986" rx="2.5" ry="2.5" style="stroke:#000000;stroke-width:1;" width="82.2344" x="1981.52" y="303.7179"/><text fill="#000000" font-family="Arial" font-size="14" lengthAdjust="spacing" textLength="62.2344" x="1991.52" y="326.8497">list_tracks</text></g><!--entity NOTE_ANCHOR--><g class="entity" data-entity="N1" data-source-line="17" data-uid="ent0006" id="entity_N1"><path d="M2254.06,188.1679 L2254.06,213.1166 L2489.2172,213.1166 L2489.2172,198.1679 L2479.2172,188.1679 L2254.06,188.1679" fill="#FFFFCC" style="stroke:#CCCCCC;stroke-width:1;"/><path d="M2479.2172,188.1679 L2479.2172,198.1679 L2489.2172,198.1679 L2479.2172,188.1679" fill="#FFFFCC" style="stroke:#CCCCCC;stroke-width:1;"/><text fill="#000000" font-family="Arial" font-size="13" font-weight="bold" lengthAdjust="spacing" textLength="214.1572" x="2260.06" y="205.3617">Combined CLI + Code view (LOD0)</text></g><!--link NOTE_ANCHOR to GMN3--><!--SRC=[bLHTRvim57tdLzobBnrLmxfAUTYUCW9h94AcBczHXHny4wmO6zaEB9hwH_QqtxPVCkDyZAPff5a8YNkFZy-v77Xd2YmHAawOyFIQYOeeKiA2vEkLaXj1GycbWglOhGw2uf9ik8cbC2cn34F52E_qXqh9Ph_vtgrECvK6lqX5KUqHeLkdY7CYBCepp724S3AwDSfYu1P2MIwOG0fXChu99KMuJgQZ3-yzRwCn9ngXHqHUIDK3eY6Tpg9ic8OFqqUlO1RSBGXxCYYsAWp8vOiEWEz_bnkLuoVVX_cSobm7ZLJh9PUD3kgF0LD1NjBWgAoVSzRVafB3Vs2VdZmK55eTtavDA_dE7T_r2JVWdDOCcxrTt-zihImfMLddBJOXMxJchw91V1_7yDEo7ITJ4jH6IN0oUczsW3DjBhG9fHUw2ajPumM0BcJJyvwxkbjt1-5n70sYWHEkC3T4hBYZOABtibGGGJbcZZJBPLdQvnE8GYrvVS3O00Z3bimUSnxs3v0jjfdPLdW2R0Up8zFEWNjf79Td4nJLBP_BKFjiSrJV1NkTEv9-IU6qO4Fn1hZQs7YzBhrEqRbC7-RgbFtvzHiIf2jKyC24qGU5quL6LTlGbUo7lLUej3NSUW0cm8PuTwpz9M05RRu_j-zOmqAQ0aR4a0bHQoeR0TVkCx2azfhF-_t0NkF9joIQHEbiE1jFqoo9Hb-ZntO4Pnjk3eUj2YkfZ0wu4vtbTWAC4eEwtRvt4XwBtOdy1G00]--></g></svg>