<svg xmlns="http://www.w3.org/2000/svg" xmlns:xlink="http://www.w3.org/1999/xlink" contentStyleType="text/css" data-diagram-type="DESCRIPTION" height="473px" preserveAspectRatio="none" style="width:1742px;height:473px;background:#FFFFFF;" version="1.1" viewBox="0 0 1742 473" width="1742px" zoomAndPan="magnify"><title>CMD-phase - phase deep internal flow (observed) (LOD0: Code Modules)</title><defs/><g><g class="title" data-source-line="8"><text fill="#000000" font-family="Arial" font-size="22" font-weight="bold" lengthAdjust="spacing" textLength="759.0752" x="486.9974" y="35.6357">CMD-phase - phase deep internal flow (observed) (LOD0: Code Modules)</text></g><!--cluster Code Modules--><g class="cluster" data-entity="Code Modules" data-source-line="16" data-uid="ent0006" id="cluster_Code Modules"><path d="M1269.57,123.0279 L1366.2389,123.0279 A3.75,3.75 0 0 1 1368.7389,125.5279 L1375.7389,145.1265 L1732.57,145.1265 A2.5,2.5 0 0 1 1735.07,147.6265 L1735.07,464.0979 A2.5,2.5 0 0 1 1732.57,466.5979 L1269.57,466.5979 A2.5,2.5 0 0 1 1267.07,464.0979 L1267.07,125.5279 A2.5,2.5 0 0 1 1269.57,123.0279" fill="#FFFFFF" style="stroke:#000000;stroke-width:1;"/><line style="stroke:#000000;stroke-width:1;" x1="1267.07" x2="1375.7389" y1="145.1265" y2="145.1265"/><text fill="#000000" font-family="Arial" font-size="14" font-weight="bold" lengthAdjust="spacing" textLength="95.6689" x="1271.07" y="138.1597">Code Modules</text></g><!--entity discuss--><g class="entity" data-entity="discuss" data-source-line="17" data-uid="ent0007" id="entity_discuss"><rect fill="#FFFFFF" height="46.0986" rx="2.5" ry="2.5" style="stroke:#000000;stroke-width:1;" width="86.6826" x="1283.73" y="158.0279"/><rect fill="#FFFFFF" height="10" style="stroke:#000000;stroke-width:1;" width="15" x="1350.4126" y="163.0279"/><rect fill="#FFFFFF" height="2" style="stroke:#000000;stroke-width:1;" width="4" x="1348.4126" y="165.0279"/><rect fill="#FFFFFF" height="2" style="stroke:#000000;stroke-width:1;" width="4" x="1348.4126" y="169.0279"/><text fill="#000000" font-family="Arial" font-size="14" lengthAdjust="spacing" textLength="46.6826" x="1298.73" y="191.1597">discuss</text></g><!--entity phase--><g class="entity" data-entity="phase" data-source-line="18" data-uid="ent0008" id="entity_phase"><rect fill="#FFFFFF" height="46.0986" rx="2.5" ry="2.5" style="stroke:#000000;stroke-width:1;" width="78.1445" x="1405" y="158.0279"/><rect fill="#FFFFFF" height="10" style="stroke:#000000;stroke-width:1;" width="15" x="1463.1445" y="163.0279"/><rect fill="#FFFFFF" height="2" style="stroke:#000000;stroke-width:1;" width="4" x="1461.1445" y="165.0279"/><rect fill="#FFFFFF" height="2" style="stroke:#000000;stroke-width:1;" width="4" x="1461.1445" y="169.0279"/><text fill="#000000" font-family="Arial" font-size="14" lengthAdjust="spacing" textLength="38.1445" x="1420" y="191.1597">phase</text></g><!--entity status_utils--><g class="entity" data-entity="status_utils" data-source-line="19" data-uid="ent0009" id="entity_status_utils"><rect fill="#FFFFFF" height="46.0986" rx="2.5" ry="2.5" style="stroke:#000000;stroke-width:1;" width="110.0342" x="1518.06" y="158.0279"/><rect fill="#FFFFFF" height="10" style="stroke:#000000;stroke-width:1;" width="15" x="1608.0942" y="163.0279"/><rect fill="#FFFFFF" height="2" style="stroke:#000000;stroke-width:1;" width="4" x="1606.0942" y="165.0279"/><rect fill="#FFFFFF" height="2" style="stroke:#000000;stroke-width:1;" width="4" x="1606.0942" y="169.0279"/><text fill="#000000" font-family="Arial" font-size="14" lengthAdjust="spacing" textLength="70.0342" x="1533.06" y="191.1597">status_utils</text></g><!--entity settings--><g class="entity" data-entity="settings" data-source-line="20" data-uid="ent0010" id="entity_settings"><rect fill="#FFFFFF" height="46.0986" rx="2.5" ry="2.5" style="stroke:#000000;stroke-width:1;" width="88.248" x="1282.95" y="298.3979"/><rect fill="#FFFFFF" height="10" style="stroke:#000000;stroke-width:1;" width="15" x="1351.198" y="303.3979"/><rect fill="#FFFFFF" height="2" style="stroke:#000000;stroke-width:1;" width="4" x="1349.198" y="305.3979"/><rect fill="#FFFFFF" height="2" style="stroke:#000000;stroke-width:1;" width="4" x="1349.198" y="309.3979"/><text fill="#000000" font-family="Arial" font-size="14" lengthAdjust="spacing" textLength="48.248" x="1297.95" y="331.5297">settings</text></g><!--entity common_utils--><g class="entity" data-entity="common_utils" data-source-line="21" data-uid="ent0011" id="entity_common_utils"><rect fill="#FFFFFF" height="46.0986" rx="2.5" ry="2.5" style="stroke:#000000;stroke-width:1;" width="126.3652" x="1405.89" y="298.3979"/><rect fill="#FFFFFF" height="10" style="stroke:#000000;stroke-width:1;" width="15" x="1512.2552" y="303.3979"/><rect fill="#FFFFFF" height="2" style="stroke:#000000;stroke-width:1;" width="4" x="1510.2552" y="305.3979"/><rect fill="#FFFFFF" height="2" style="stroke:#000000;stroke-width:1;" width="4" x="1510.2552" y="309.3979"/><text fill="#000000" font-family="Arial" font-size="14" lengthAdjust="spacing" textLength="86.3652" x="1420.89" y="331.5297">common_utils</text></g><!--entity markdown_parser--><g class="entity" data-entity="markdown_parser" data-source-line="22" data-uid="ent0012" id="entity_markdown_parser"><rect fill="#FFFFFF" height="46.0986" rx="2.5" ry="2.5" style="stroke:#000000;stroke-width:1;" width="152.0479" x="1567.05" y="298.3979"/><rect fill="#FFFFFF" height="10" style="stroke:#000000;stroke-width:1;" width="15" x="1699.0979" y="303.3979"/><rect fill="#FFFFFF" height="2" style="stroke:#000000;stroke-width:1;" width="4" x="1697.0979" y="305.3979"/><rect fill="#FFFFFF" height="2" style="stroke:#000000;stroke-width:1;" width="4" x="1697.0979" y="309.3979"/><text fill="#000000" font-family="Arial" font-size="14" lengthAdjust="spacing" textLength="112.0479" x="1582.05" y="331.5297">markdown_parser</text></g><!--entity markdown_writer--><g class="entity" data-entity="markdown_writer" data-source-line="23" data-uid="ent0013" id="entity_markdown_writer"><rect fill="#FFFFFF" height="46.0986" rx="2.5" ry="2.5" style="stroke:#000000;stroke-width:1;" width="146.5859" x="1282.78" y="404.4979"/><rect fill="#FFFFFF" height="10" style="stroke:#000000;stroke-width:1;" width="15" x="1409.3659" y="409.4979"/><rect fill="#FFFFFF" height="2" style="stroke:#000000;stroke-width:1;" width="4" x="1407.3659" y="411.4979"/><rect fill="#FFFFFF" height="2" style="stroke:#000000;stroke-width:1;" width="4" x="1407.3659" y="415.4979"/><text fill="#000000" font-family="Arial" font-size="14" lengthAdjust="spacing" textLength="106.5859" x="1297.78" y="437.6297">markdown_writer</text></g><!--entity main--><g class="entity" data-entity="main" data-source-line="24" data-uid="ent0014" id="entity_main"><rect fill="#FFFFFF" height="46.0986" rx="2.5" ry="2.5" style="stroke:#000000;stroke-width:1;" width="70.3447" x="1463.9" y="404.4979"/><rect fill="#FFFFFF" height="10" style="stroke:#000000;stroke-width:1;" width="15" x="1514.2447" y="409.4979"/><rect fill="#FFFFFF" height="2" style="stroke:#000000;stroke-width:1;" width="4" x="1512.2447" y="411.4979"/><rect fill="#FFFFFF" height="2" style="stroke:#000000;stroke-width:1;" width="4" x="1512.2447" y="415.4979"/><text fill="#000000" font-family="Arial" font-size="14" lengthAdjust="spacing" textLength="30.3447" x="1478.9" y="437.6297">main</text></g><!--entity json_store--><g class="entity" data-entity="json_store" data-source-line="25" data-uid="ent0015" id="entity_json_store"><rect fill="#FFFFFF" height="46.0986" rx="2.5" ry="2.5" style="stroke:#000000;stroke-width:1;" width="104.5928" x="1568.78" y="404.4979"/><rect fill="#FFFFFF" height="10" style="stroke:#000000;stroke-width:1;" width="15" x="1653.3728" y="409.4979"/><rect fill="#FFFFFF" height="2" style="stroke:#000000;stroke-width:1;" width="4" x="1651.3728" y="411.4979"/><rect fill="#FFFFFF" height="2" style="stroke:#000000;stroke-width:1;" width="4" x="1651.3728" y="415.4979"/><text fill="#000000" font-family="Arial" font-size="14" lengthAdjust="spacing" textLength="64.5928" x="1583.78" y="437.6297">json_store</text></g><!--entity NOTE_ANCHOR--><!--link NOTE_ANCHOR to GMN3--><!--SRC=[bLJ1Rjim3BtxAxZiqWQejNL03zqfJTorGn8NQMv1OQYMacYn9KEI4nH3VsIdVTk-P9JifBQNhgXXm1BvI3-HJ_nWrppdK6HKoC1iX2oefZayqdIpqggKRAWofU7ZjNyQ2CQNjCpijP9sIZ73G0kQDVm3hTMk3lxYduPpgYo_KffnNIE6_kaYZf50L625pJWC9wEpOaqDXpEelepp0eIqN4kQmJ9JEpXHZuRhBMUdS3AEHvykOQWOXubYPSRDQH2KXgSkjaTbkbQw1zJ0D9v7oM0wl8bdmLeWl6cGo0oqMAqjg6NB0z3ltwjIf_ootuV5WgdKa9tI6yV4aEqv4PgaEIC7vc6APC8dccVm7l33Gy0b0ySa20gi4btX0Pe7wy5Ff9Egl52IImiz9anQ6kEFLw_R0FyBx_QhjjDOQakJb5PaLOgceGFbrWgvgc7rfWt1PQva8rlJq8RcL6-Osia4LO5zzEYExPM0dHQs6r3PkW52rYYy0ItN3uEaZ5MwgilBDdWEAXbaV7bK1T4MLIEz3jmUjR3zJFR294wchhM9htJYjc5HeWQEsB3LLOAEFdBAZTMAkD9HoGof958ymNxnLYIZbf9EBLtylwRtPQgAtCfqCBsLoMeKio4lbNPfMhkMz5-zYcvKH1VHXM_6dr-_OSpPYckumHwOVLFYUZB02FbFQgvGS6s4iQvxE4fUMb8D5qVtAspFGVD2WTMbNGDE40FVx-Dsqh0-4zuspLDa_uH0TqzVJIfKHYsckevdLxUZP1RTnScedNHVKLWA781DgakSZmrE__y99iLtiGX3Wk_jv6uSJQBfV32_ZQV9E1fzYsPXpk2emxTm7-h-gAqXcIzlag8I1NE7SE5rpOS7OxDtVm40]--></g></svg>