<svg xmlns="http://www.w3.org/2000/svg" xmlns:xlink="http://www.w3.org/1999/xlink" contentStyleType="text/css" data-diagram-type="DESCRIPTION" height="594px" preserveAspectRatio="none" style="width:1776px;height:594px;background:#FFFFFF;" version="1.1" viewBox="0 0 1776 594" width="1776px" zoomAndPan="magnify"><title>CMD-settings - settings deep internal flow (observed) (LOD2: Code Detail)</title><defs/><g><g class="title" data-source-line="8"><text fill="#000000" font-family="Arial" font-size="22" font-weight="bold" lengthAdjust="spacing" textLength="771.2891" x="497.9527" y="35.6357">CMD-settings - settings deep internal flow (observed) (LOD2: Code Detail)</text></g><!--entity NOTE_ANCHOR--><!--entity main_entry--><g class="entity" data-entity="main_entry" data-source-line="16" data-uid="ent0006" id="entity_main_entry"><rect fill="#E6F3FF" height="52.1973" rx="2.5" ry="2.5" style="stroke:#000000;stroke-width:1;" width="104.8066" x="1313.36" y="145.4979"/><text fill="#000000" font-family="Arial" font-size="14" lengthAdjust="spacing" textLength="69.2549" x="1323.36" y="168.6297">main_entry</text><text fill="#000000" font-family="Arial" font-size="14" lengthAdjust="spacing" textLength="84.8066" x="1323.36" y="184.7283">maestro.main</text></g><!--entity handle_settings_command--><g class="entity" data-entity="handle_settings_command" data-source-line="17" data-uid="ent0007" id="entity_handle_settings_command"><rect fill="#E6F3FF" height="52.1973" rx="2.5" ry="2.5" style="stroke:#000000;stroke-width:1;" width="195.0684" x="1268.23" y="301.3679"/><text fill="#000000" font-family="Arial" font-size="14" lengthAdjust="spacing" textLength="167.3301" x="1278.23" y="324.4997">handle_settings_command</text><text fill="#000000" font-family="Arial" font-size="14" lengthAdjust="spacing" textLength="175.0684" x="1278.23" y="340.5983">maestro.commands.settings</text></g><!--entity settings_class--><g class="entity" data-entity="settings_class" data-source-line="18" data-uid="ent0008" id="entity_settings_class"><rect fill="#FFFFFF" height="46.0986" rx="2.5" ry="2.5" style="stroke:#000000;stroke-width:1;" width="127.9307" x="1202.8" y="426.0179"/><rect fill="#FFFFFF" height="10" style="stroke:#000000;stroke-width:1;" width="15" x="1310.7307" y="431.0179"/><rect fill="#FFFFFF" height="2" style="stroke:#000000;stroke-width:1;" width="4" x="1308.7307" y="433.0179"/><rect fill="#FFFFFF" height="2" style="stroke:#000000;stroke-width:1;" width="4" x="1308.7307" y="437.0179"/><text fill="#000000" font-family="Arial" font-size="14" lengthAdjust="spacing" textLength="87.9307" x="1217.8" y="459.1497">settings_class</text></g><!--entity settings_profile_manager--><g class="entity" data-entity="settings_profile_manager" data-source-line="19" data-uid="ent0009" id="entity_settings_profile_manager"><rect fill="#FFFFFF" height="46.0986" rx="2.5" ry="2.5" style="stroke:#000000;stroke-width:1;" width="197.2061" x="1392.16" y="426.0179"/><rect fill="#FFFFFF" height="10" style="stroke:#000000;stroke-width:1;" width="15" x="1569.3661" y="431.0179"/><rect fill="#FFFFFF" height="2" style="stroke:#000000;stroke-width:1;" width="4" x="1567.3661" y="433.0179"/><rect fill="#FFFFFF" height="2" style="stroke:#000000;stroke-width:1;" width="4" x="1567.3661" y="437.0179"/><text fill="#000000" font-family="Arial" font-size="14" lengthAdjust="spacing" textLength="157.2061" x="1407.16" y="459.1497">settings_profile_manager</text></g><!--entity docs_config_md--><g class="entity" data-entity="docs_config_md" data-source-line="20" data-uid="ent0010" id="entity_docs_config_md"><path d="M1153.79,542.1179 C1153.79,532.1179 1214.7656,532.1179 1214.7656,532.1179 C1214.7656,532.1179 1275.7412,532.1179 1275.7412,542.1179 L1275.7412,567.2165 C1275.7412,577.2165 1214.7656,577.2165 1214.7656,577.2165 C1214.7656,577.2165 1153.79,577.2165 1153.79,567.2165 L1153.79,542.1179" fill="#FFE6E6" style="stroke:#000000;stroke-width:1;"/><path d="M1153.79,542.1179 C1153.79,552.1179 1214.7656,552.1179 1214.7656,552.1179 C1214.7656,552.1179 1275.7412,552.1179 1275.7412,542.1179" fill="none" style="stroke:#000000;stroke-width:1;"/><text fill="#000000" font-family="Arial" font-size="14" lengthAdjust="spacing" textLength="101.9512" x="1163.79" y="569.2497">docs_config_md</text></g><!--entity profiles_json--><g class="entity" data-entity="profiles_json" data-source-line="21" data-uid="ent0011" id="entity_profiles_json"><path d="M1310.47,542.1179 C1310.47,532.1179 1359.7698,532.1179 1359.7698,532.1179 C1359.7698,532.1179 1409.0696,532.1179 1409.0696,542.1179 L1409.0696,567.2165 C1409.0696,577.2165 1359.7698,577.2165 1359.7698,577.2165 C1359.7698,577.2165 1310.47,577.2165 1310.47,567.2165 L1310.47,542.1179" fill="#FFE6E6" style="stroke:#000000;stroke-width:1;"/><path d="M1310.47,542.1179 C1310.47,552.1179 1359.7698,552.1179 1359.7698,552.1179 C1359.7698,552.1179 1409.0696,552.1179 1409.0696,542.1179" fill="none" style="stroke:#000000;stroke-width:1;"/><text fill="#000000" font-family="Arial" font-size="14" lengthAdjust="spacing" textLength="78.5996" x="1320.47" y="569.2497">profiles_json</text></g><!--entity profile_settings_json--><g class="entity" data-entity="profile_settings_json" data-source-line="22" data-uid="ent0012" id="entity_profile_settings_json"><path d="M1443.95,542.1179 C1443.95,532.1179 1517.7669,532.1179 1517.7669,532.1179 C1517.7669,532.1179 1591.5838,532.1179 1591.5838,542.1179 L1591.5838,567.2165 C1591.5838,577.2165 1517.7669,577.2165 1517.7669,577.2165 C1517.7669,577.2165 1443.95,577.2165 1443.95,567.2165 L1443.95,542.1179" fill="#FFE6E6" style="stroke:#000000;stroke-width:1;"/><path d="M1443.95,542.1179 C1443.95,552.1179 1517.7669,552.1179 1517.7669,552.1179 C1517.7669,552.1179 1591.5838,552.1179 1591.5838,542.1179" fill="none" style="stroke:#000000;stroke-width:1;"/><text fill="#000000" font-family="Arial" font-size="14" lengthAdjust="spacing" textLength="127.6338" x="1453.95" y="569.2497">profile_settings_json</text></g><!--entity profile_audit_jsonl--><g class="entity" data-entity="profile_audit_jsonl" data-source-line="23" data-uid="ent0013" id="entity_profile_audit_jsonl"><path d="M1626.34,542.1179 C1626.34,532.1179 1692.7672,532.1179 1692.7672,532.1179 C1692.7672,532.1179 1759.1945,532.1179 1759.1945,542.1179 L1759.1945,567.2165 C1759.1945,577.2165 1692.7672,577.2165 1692.7672,577.2165 C1692.7672,577.2165 1626.34,577.2165 1626.34,567.2165 L1626.34,542.1179" fill="#FFE6E6" style="stroke:#000000;stroke-width:1;"/><path d="M1626.34,542.1179 C1626.34,552.1179 1692.7672,552.1179 1692.7672,552.1179 C1692.7672,552.1179 1759.1945,552.1179 1759.1945,542.1179" fill="none" style="stroke:#000000;stroke-width:1;"/><text fill="#000000" font-family="Arial" font-size="14" lengthAdjust="spacing" textLength="112.8545" x="1636.34" y="569.2497">profile_audit_jsonl</text></g><!--entity editor_actor--><g class="entity" data-entity="editor_actor" data-source-line="24" data-uid="ent0014" id="entity_editor_actor"><ellipse cx="1549.7684" cy="297.9179" fill="#FFFFFF" rx="8" ry="8" style="stroke:#000000;stroke-width:1;"/><path d="M1549.7684,305.9179 L1549.7684,332.9179 M1536.7684,313.9179 L1562.7684,313.9179 M1549.7684,332.9179 L1536.7684,347.9179 M1549.7684,332.9179 L1562.7684,347.9179" fill="none" style="stroke:#000000;stroke-width:1;"/><text fill="#000000" font-family="Arial" font-size="14" lengthAdjust="spacing" textLength="103.7969" x="1497.87" y="363.0497">User's $EDITOR</text></g><!--entity filesystem_actor--><g class="entity" data-entity="filesystem_actor" data-source-line="25" data-uid="ent0015" id="entity_filesystem_actor"><ellipse cx="1660.762" cy="142.0479" fill="#FFFFFF" rx="8" ry="8" style="stroke:#000000;stroke-width:1;"/><path d="M1660.762,150.0479 L1660.762,177.0479 M1647.762,158.0479 L1673.762,158.0479 M1660.762,177.0479 L1647.762,192.0479 M1660.762,177.0479 L1673.762,192.0479" fill="none" style="stroke:#000000;stroke-width:1;"/><text fill="#000000" font-family="Arial" font-size="14" lengthAdjust="spacing" textLength="73.124" x="1624.2" y="207.1797">File System</text></g><!--entity edit_settings--><g class="entity" data-entity="edit_settings" data-source-line="33" data-uid="ent0023" id="entity_edit_settings"><ellipse cx="1549.7632" cy="142.0479" fill="#FFFFFF" rx="8" ry="8" style="stroke:#000000;stroke-width:1;"/><path d="M1549.7632,150.0479 L1549.7632,177.0479 M1536.7632,158.0479 L1562.7632,158.0479 M1549.7632,177.0479 L1536.7632,192.0479 M1549.7632,177.0479 L1562.7632,192.0479" fill="none" style="stroke:#000000;stroke-width:1;"/><text fill="#000000" font-family="Arial" font-size="14" lengthAdjust="spacing" textLength="78.6064" x="1510.46" y="207.1797">edit_settings</text></g><!--link NOTE_ANCHOR to GMN3--><!--link main_entry to handle_settings_command--><g class="link" data-entity-1="main_entry" data-entity-2="handle_settings_command" data-source-line="26" data-uid="lnk16" id="link_main_entry_handle_settings_command"><path d="M1365.76,198.0079 C1365.76,226.5179 1365.76,266.4979 1365.76,295.0279" fill="none" id="main_entry-to-handle_settings_command" style="stroke:#333333;stroke-width:1;"/><polygon fill="#333333" points="1365.76,301.0279,1369.76,292.0279,1365.76,296.0279,1361.76,292.0279,1365.76,301.0279" style="stroke:#333333;stroke-width:1;"/></g><!--link handle_settings_command to settings_class--><g class="link" data-entity-1="handle_settings_command" data-entity-2="settings_class" data-source-line="27" data-uid="lnk17" id="link_handle_settings_command_settings_class"><path d="M1344.77,353.8379 C1327.17,375.0879 1306.1166,400.5365 1289.2166,420.9465" fill="none" id="handle_settings_command-to-settings_class" style="stroke:#333333;stroke-width:1;"/><polygon fill="#333333" points="1285.39,425.5679,1294.2108,421.1869,1288.5788,421.7167,1288.049,416.0847,1285.39,425.5679" style="stroke:#333333;stroke-width:1;"/></g><!--link handle_settings_command to settings_profile_manager--><g class="link" data-entity-1="handle_settings_command" data-entity-2="settings_profile_manager" data-source-line="28" data-uid="lnk18" id="link_handle_settings_command_settings_profile_manager"><path d="M1392.27,353.8379 C1414.49,375.0879 1441.5749,401.0097 1462.9049,421.4197" fill="none" id="handle_settings_command-to-settings_profile_manager" style="stroke:#333333;stroke-width:1;"/><polygon fill="#333333" points="1467.24,425.5679,1463.5028,416.4556,1463.6274,422.1111,1457.9719,422.2357,1467.24,425.5679" style="stroke:#333333;stroke-width:1;"/></g><!--link settings_class to docs_config_md--><g class="link" data-entity-1="settings_class" data-entity-2="docs_config_md" data-source-line="29" data-uid="lnk19" id="link_settings_class_docs_config_md"><path d="M1255.48,472.5479 C1246.64,490.1679 1237.1007,509.165 1228.3607,526.585" fill="none" id="settings_class-to-docs_config_md" style="stroke:#333333;stroke-width:1;"/><polygon fill="#333333" points="1225.67,531.9479,1233.2812,525.6973,1227.9122,527.4788,1226.1308,522.1098,1225.67,531.9479" style="stroke:#333333;stroke-width:1;"/></g><!--link settings_profile_manager to profiles_json--><g class="link" data-entity-1="settings_profile_manager" data-entity-2="profiles_json" data-source-line="30" data-uid="lnk20" id="link_settings_profile_manager_profiles_json"><path d="M1462.34,472.5479 C1440.07,490.1679 1413.9656,510.8053 1391.9456,528.2253" fill="none" id="settings_profile_manager-to-profiles_json" style="stroke:#333333;stroke-width:1;"/><polygon fill="#333333" points="1387.24,531.9479,1396.7801,529.501,1391.1613,528.8457,1391.8166,523.2269,1387.24,531.9479" style="stroke:#333333;stroke-width:1;"/></g><!--link settings_profile_manager to profile_settings_json--><g class="link" data-entity-1="settings_profile_manager" data-entity-2="profile_settings_json" data-source-line="31" data-uid="lnk21" id="link_settings_profile_manager_profile_settings_json"><path d="M1496.62,472.5479 C1501.21,490.1679 1506.0468,508.7218 1510.5868,526.1418" fill="none" id="settings_profile_manager-to-profile_settings_json" style="stroke:#333333;stroke-width:1;"/><polygon fill="#333333" points="1512.1,531.9479,1513.7009,522.23,1510.839,527.1095,1505.9595,524.2475,1512.1,531.9479" style="stroke:#333333;stroke-width:1;"/></g><!--link settings_profile_manager to profile_audit_jsonl--><g class="link" data-entity-1="settings_profile_manager" data-entity-2="profile_audit_jsonl" data-source-line="32" data-uid="lnk22" id="link_settings_profile_manager_profile_audit_jsonl"><path d="M1534.6,472.5479 C1568.83,490.1079 1610.7814,511.6193 1644.7214,529.0293" fill="none" id="settings_profile_manager-to-profile_audit_jsonl" style="stroke:#333333;stroke-width:1;"/><polygon fill="#333333" points="1650.06,531.7679,1643.8778,524.101,1645.6112,529.4858,1640.2264,531.2192,1650.06,531.7679" style="stroke:#333333;stroke-width:1;"/></g><!--link edit_settings to editor_actor--><g class="link" data-entity-1="edit_settings" data-entity-2="editor_actor" data-source-line="33" data-uid="lnk24" id="link_edit_settings_editor_actor"><path d="M1549.76,210.6379 C1549.76,234.3979 1549.76,258.8779 1549.76,282.6079" fill="none" id="edit_settings-to-editor_actor" style="stroke:#333333;stroke-width:1;"/><polygon fill="#333333" points="1549.76,288.6079,1553.76,279.6079,1549.76,283.6079,1545.76,279.6079,1549.76,288.6079" style="stroke:#333333;stroke-width:1;"/></g><!--SRC=[hLNHRjem57tFLzonIMkHccYjr8TEcaGXh4X0Afe-TLNanWOy4Zko7Qh-ofxsRVkINPi44WPh9otYWLoVStnpZ-_rExDaEOCY8rnuUiL5GHJ9uOcaguMIfQ1zcKa5xuVkQI0ecvCoCqCfp9IWGaznaZNMUqh9vufyuPx6ubGQTYqLPQf2zDspZpYK1A8ymqt6e3yPd6bc31SB3MUm_KiPAu0BmvGW6Smp-GmdyaapjMRq54x6qU3y2lgICXWmGtXswdcbPYdH33f4f4kfEa0qJACuJ7hJ_aqqyvOSqSs0mFH0ySNIW9otLW2wtJjPgfHTTRlmy41bgeDdgLOs4HsipmEkWZIdGJDzFyLq_1UIP_2F-CT7ZmaADX_FKomrH2omDfqS_KoOCEhbcyW9qqP9tyRSf-qMuNruERn0OnlK9H4qOqczLvBAFCVGJgSAQB-6ED4ZjEqE-5v8WRj2PuV9YDwmsw63u4B9ESSTK9Kic6hJzXOzIWnvSfRQWc8oOiuNIKuTgnsovogy32yRd4fD9z-rt9Ii5JdEs7t-FhEzyXS5Kb9k72XhyHlnBPka1lkYSu-7-wE63-5W54Spns88bYfnW1esH1cuUz66vGxZFiYzLhZ6kJWx-tBCKU-OqvQpv-EReFlUjJKSjksOTupgi2shtWHjU_CsIiCEpnOxsOqYHBNAlvaM6PiV71RX6eUBSEF2lkF8M7yAwl4Ls65cst-NeetuHOcZud0O9y96Pc-ILDqRrDqRR8T9yGAD_w_phGl_YLsNk2NJ3BwcP_i7NzIAocUHuDs1hM2r_Wor9kNH-RrjBMlDhny_OSoejVu67T6rHL5rcy00TvzKEq71bEROJUWbNZyjTpPtaityCwpFGR52Wb6bMGBUF1hQedxrRK2vdSeIkx7KUFvWZarSbmPrkCo8GVOmcbsF1iail8sIGHGdarvu5yyY9tfN9w1H1xKnBrV8ZGq-3hzIu_gsN7QFd9Y6kfEDP_VnJJ9q9nP_3m- -7-1lDBaTXvDm6lVYKJHDnk7WQpYpeWSNd9KrrPP06Hrahhn9YYUIKxkXfLSrxs-3JUz-0m00]--></g></svg>