<svg xmlns="http://www.w3.org/2000/svg" xmlns:xlink="http://www.w3.org/1999/xlink" contentStyleType="text/css" data-diagram-type="DESCRIPTION" height="346px" preserveAspectRatio="none" style="width:2416px;height:346px;background:#FFFFFF;" version="1.1" viewBox="0 0 2416 346" width="2416px" zoomAndPan="magnify"><title>CMD-plan - Combined CLI+Code (LOD0)</title><defs/><g><g class="title" data-source-line="8"><text fill="#000000" font-family="Arial" font-size="22" font-weight="bold" lengthAdjust="spacing" textLength="418.5908" x="994.4132" y="35.6357">CMD-plan - Combined CLI+Code (LOD0)</text></g><!--cluster CLI Layer--><g class="cluster" data-entity="CLI Layer" data-source-line="20" data-uid="ent0007" id="cluster_CLI Layer"><path d="M1249.34,125.1879 L1314.1398,125.1879 A3.75,3.75 0 0 1 1316.6398,127.6879 L1323.6398,147.2865 L1742.34,147.2865 A2.5,2.5 0 0 1 1744.84,149.7865 L1744.84,336.8579 A2.5,2.5 0 0 1 1742.34,339.3579 L1249.34,339.3579 A2.5,2.5 0 0 1 1246.84,336.8579 L1246.84,127.6879 A2.5,2.5 0 0 1 1249.34,125.1879" fill="#E6F3FF" style="stroke:#000000;stroke-width:1;"/><line style="stroke:#000000;stroke-width:1;" x1="1246.84" x2="1323.6398" y1="147.2865" y2="147.2865"/><text fill="#000000" font-family="Arial" font-size="14" font-weight="bold" lengthAdjust="spacing" textLength="63.7998" x="1250.84" y="140.3197">CLI Layer</text></g><!--cluster Code Layer--><g class="cluster" data-entity="Code Layer" data-source-line="28" data-uid="ent0013" id="cluster_Code Layer"><path d="M1771.34,123.6279 L1848.588,123.6279 A3.75,3.75 0 0 1 1851.088,126.1279 L1858.088,145.7265 L2153.34,145.7265 A2.5,2.5 0 0 1 2155.84,148.2265 L2155.84,336.4879 A2.5,2.5 0 0 1 2153.34,338.9879 L1771.34,338.9879 A2.5,2.5 0 0 1 1768.84,336.4879 L1768.84,126.1279 A2.5,2.5 0 0 1 1771.34,123.6279" fill="#FFE6E6" style="stroke:#000000;stroke-width:1;"/><line style="stroke:#000000;stroke-width:1;" x1="1768.84" x2="1858.088" y1="145.7265" y2="145.7265"/><text fill="#000000" font-family="Arial" font-size="14" font-weight="bold" lengthAdjust="spacing" textLength="76.248" x="1772.84" y="138.7597">Code Layer</text></g><!--entity maestro plan--><g class="entity" data-entity="maestro plan" data-source-line="21" data-uid="ent0008" id="entity_maestro plan"><ellipse cx="1322.8422" cy="176.6823" fill="#FFFFFF" rx="60.0722" ry="14.4144" style="stroke:#000000;stroke-width:1;"/><text fill="#000000" font-family="Arial" font-size="14" lengthAdjust="spacing" textLength="80.9307" x="1282.3768" y="181.2316">maestro plan</text></g><!--entity maestro plan add--><g class="entity" data-entity="maestro plan add" data-source-line="22" data-uid="ent0009" id="entity_maestro plan add"><ellipse cx="1487.8399" cy="176.6818" fill="#FFFFFF" rx="70.4199" ry="16.484" style="stroke:#000000;stroke-width:1;"/><text fill="#000000" font-family="Arial" font-size="14" lengthAdjust="spacing" textLength="108.1787" x="1433.7506" y="181.2312">maestro plan add</text></g><!--entity maestro plan list--><g class="entity" data-entity="maestro plan list" data-source-line="23" data-uid="ent0010" id="entity_maestro plan list"><ellipse cx="1660.8404" cy="176.6759" fill="#FFFFFF" rx="67.9404" ry="15.9881" style="stroke:#000000;stroke-width:1;"/><text fill="#000000" font-family="Arial" font-size="14" lengthAdjust="spacing" textLength="101.9307" x="1609.875" y="181.2252">maestro plan list</text></g><!--entity maestro plan remove--><g class="entity" data-entity="maestro plan remove" data-source-line="24" data-uid="ent0011" id="entity_maestro plan remove"><ellipse cx="1342.8411" cy="304.9361" fill="#FFFFFF" rx="80.0911" ry="18.4182" style="stroke:#000000;stroke-width:1;"/><text fill="#000000" font-family="Arial" font-size="14" lengthAdjust="spacing" textLength="131.5029" x="1277.0897" y="309.4854">maestro plan remove</text></g><!--entity maestro plan show--><g class="entity" data-entity="maestro plan show" data-source-line="25" data-uid="ent0012" id="entity_maestro plan show"><ellipse cx="1531.8446" cy="304.9408" fill="#FFFFFF" rx="74.2146" ry="17.2429" style="stroke:#000000;stroke-width:1;"/><text fill="#000000" font-family="Arial" font-size="14" lengthAdjust="spacing" textLength="117.5029" x="1473.0932" y="309.4901">maestro plan show</text></g><!--entity main--><g class="entity" data-entity="main" data-source-line="29" data-uid="ent0014" id="entity_main"><rect fill="#FFFFFF" height="36.0986" rx="2.5" ry="2.5" style="stroke:#000000;stroke-width:1;" width="50.3447" x="1784.67" y="158.6279"/><text fill="#000000" font-family="Arial" font-size="14" lengthAdjust="spacing" textLength="30.3447" x="1794.67" y="181.7597">main</text></g><!--entity add_plan_parser--><g class="entity" data-entity="add_plan_parser" data-source-line="30" data-uid="ent0015" id="entity_add_plan_parser"><rect fill="#FFFFFF" height="36.0986" rx="2.5" ry="2.5" style="stroke:#000000;stroke-width:1;" width="125.082" x="1870.3" y="158.6279"/><text fill="#000000" font-family="Arial" font-size="14" lengthAdjust="spacing" textLength="105.082" x="1880.3" y="181.7597">add_plan_parser</text></g><!--entity handle_plan_*--><g class="entity" data-entity="handle_plan_." data-source-line="31" data-uid="ent0016" id="entity_handle_plan_."><rect fill="#FFFFFF" height="36.0986" rx="2.5" ry="2.5" style="stroke:#000000;stroke-width:1;" width="109.5303" x="2030.07" y="158.6279"/><text fill="#000000" font-family="Arial" font-size="14" lengthAdjust="spacing" textLength="89.5303" x="2040.07" y="181.7597">handle_plan_*</text></g><!--entity PlanStore--><g class="entity" data-entity="PlanStore" data-source-line="32" data-uid="ent0017" id="entity_PlanStore"><rect fill="#FFFFFF" height="36.0986" rx="2.5" ry="2.5" style="stroke:#000000;stroke-width:1;" width="81.4824" x="1785.1" y="286.8879"/><text fill="#000000" font-family="Arial" font-size="14" lengthAdjust="spacing" textLength="61.4824" x="1795.1" y="310.0197">PlanStore</text></g><!--entity add_plan_ops_parser--><g class="entity" data-entity="add_plan_ops_parser" data-source-line="33" data-uid="ent0018" id="entity_add_plan_ops_parser"><rect fill="#FFFFFF" height="36.0986" rx="2.5" ry="2.5" style="stroke:#000000;stroke-width:1;" width="155.4404" x="1901.12" y="286.8879"/><text fill="#000000" font-family="Arial" font-size="14" lengthAdjust="spacing" textLength="135.4404" x="1911.12" y="310.0197">add_plan_ops_parser</text></g><!--entity NOTE_ANCHOR--><g class="entity" data-entity="N1" data-source-line="17" data-uid="ent0006" id="entity_N1"><path d="M2174.26,164.1979 L2174.26,189.1466 L2409.4172,189.1466 L2409.4172,174.1979 L2399.4172,164.1979 L2174.26,164.1979" fill="#FFFFCC" style="stroke:#CCCCCC;stroke-width:1;"/><path d="M2399.4172,164.1979 L2399.4172,174.1979 L2409.4172,174.1979 L2399.4172,164.1979" fill="#FFFFCC" style="stroke:#CCCCCC;stroke-width:1;"/><text fill="#000000" font-family="Arial" font-size="13" font-weight="bold" lengthAdjust="spacing" textLength="214.1572" x="2180.26" y="181.3917">Combined CLI + Code view (LOD0)</text></g><!--link NOTE_ANCHOR to GMN3--><!--SRC=[ZLH1Rjim4Bph5LldqYg8rII03-t9bQN6XIqPjdio0e4HQOimHGeaBICeyf6U-hQ-f4l63fJ41aheeftTuUpkI1zinMe6ZI1S1cRBPKCqgU61bDkDLZj9OoMKXelKdqu6PMko4pPLqcO46OQQ4z71Xrgh_Q7urfyEc2dBlYbDcJvanFwypJWb0hC2owrW44z7LwXRmXN4gdxWab689-FBM5467oVvwFEd8DWPLXB3e4TaMIdT0s8WovT9CSpYktmUL1oJkm695uFccyg2Mhz20C9meNQwP5_245OhgaeJxPNUheNQcwYzYRYEoff6Hs7zKl3-8wa5_7_g_Nt090Md8dZMuWHV-ykxNS8b-3vRplQ7PiEmKzhWxCW6-tQv4_B8iFMBP93UfYdyGhQNkTI46QkLSu3idGE0K7eU5DpOywXcjMhPUTnKQjyBdhgINMD7pMcQ39A1rwnPQOdS2C_0lTfE22KMZh100naiVOrMH5B1dXF2DzWCWmkhD3l7g1hpmlfqM8jWwvCEILfqbFGUSU_ea_OwAbLTem3Frgyfl7d7fPzERNPeddUHznuvvTVZwBoglx__m8JH3TDmnwKrHtNv0pRLegL6n98fqLkgzX8QfWtkrBK1N08QrL-Etpnhm5duAxGtEAb6WTKxMxdD6lYno3DFElDhnO6wRNh8-zzH6DVzlk9bXSvLWbW4vyaiBvRpdykx8itdq-6o62yAHuPtjmH_AqYApshLxqVuZAUpIJ9DikLmESwpOfAClYTpHtiIyACzbZh5sff8-4aK9KwLKwV1bH_64xy4ksF-1m00]--></g></svg>