<svg xmlns="http://www.w3.org/2000/svg" xmlns:xlink="http://www.w3.org/1999/xlink" contentStyleType="text/css" data-diagram-type="DESCRIPTION" height="583px" preserveAspectRatio="none" style="width:2338px;height:583px;background:#FFFFFF;" version="1.1" viewBox="0 0 2338 583" width="2338px" zoomAndPan="magnify"><title>CMD-convert - convert deep internal flow (observed) (LOD1: Code Functions)</title><defs/><g><g class="title" data-source-line="8"><text fill="#000000" font-family="Arial" font-size="22" font-weight="bold" lengthAdjust="spacing" textLength="806.7275" x="761.2515" y="35.6357">CMD-convert - convert deep internal flow (observed) (LOD1: Code Functions)</text></g><!--entity NOTE_ANCHOR--><!--entity main_entry--><g class="entity" data-entity="main_entry" data-source-line="16" data-uid="ent0006" id="entity_main_entry"><rect fill="#FFFFFF" height="52.1973" rx="2.5" ry="2.5" style="stroke:#000000;stroke-width:1;" width="132.8066" x="1259.46" y="148.2879"/><text fill="#000000" font-family="Arial" font-size="14" lengthAdjust="spacing" textLength="69.2549" x="1269.46" y="171.4197">main_entry</text><text fill="#000000" font-family="Arial" font-size="14" lengthAdjust="spacing" textLength="112.8066" x="1269.46" y="187.5183">(maestro/main.py)</text></g><!--entity add_convert_parser--><g class="entity" data-entity="add_convert_parser" data-source-line="17" data-uid="ent0007" id="entity_add_convert_parser"><rect fill="#FFFFFF" height="52.1973" rx="2.5" ry="2.5" style="stroke:#000000;stroke-width:1;" width="220.7305" x="319.5" y="276.7579"/><text fill="#000000" font-family="Arial" font-size="14" lengthAdjust="spacing" textLength="124.5234" x="329.5" y="299.8897">add_convert_parser</text><text fill="#000000" font-family="Arial" font-size="14" lengthAdjust="spacing" textLength="200.7305" x="329.5" y="315.9883">(maestro/commands/convert.py)</text></g><!--entity handle_convert_new--><g class="entity" data-entity="handle_convert_new" data-source-line="18" data-uid="ent0008" id="entity_handle_convert_new"><rect fill="#FFFFFF" height="52.1973" rx="2.5" ry="2.5" style="stroke:#000000;stroke-width:1;" width="220.7305" x="575.5" y="276.7579"/><text fill="#000000" font-family="Arial" font-size="14" lengthAdjust="spacing" textLength="129.2061" x="585.5" y="299.8897">handle_convert_new</text><text fill="#000000" font-family="Arial" font-size="14" lengthAdjust="spacing" textLength="200.7305" x="585.5" y="315.9883">(maestro/commands/convert.py)</text></g><!--entity handle_convert_plan--><g class="entity" data-entity="handle_convert_plan" data-source-line="19" data-uid="ent0009" id="entity_handle_convert_plan"><rect fill="#FFFFFF" height="52.1973" rx="2.5" ry="2.5" style="stroke:#000000;stroke-width:1;" width="220.7305" x="831.5" y="276.7579"/><text fill="#000000" font-family="Arial" font-size="14" lengthAdjust="spacing" textLength="129.9922" x="841.5" y="299.8897">handle_convert_plan</text><text fill="#000000" font-family="Arial" font-size="14" lengthAdjust="spacing" textLength="200.7305" x="841.5" y="315.9883">(maestro/commands/convert.py)</text></g><!--entity handle_convert_run--><g class="entity" data-entity="handle_convert_run" data-source-line="20" data-uid="ent0010" id="entity_handle_convert_run"><rect fill="#FFFFFF" height="52.1973" rx="2.5" ry="2.5" style="stroke:#000000;stroke-width:1;" width="220.7305" x="1087.5" y="276.7579"/><text fill="#000000" font-family="Arial" font-size="14" lengthAdjust="spacing" textLength="123.7578" x="1097.5" y="299.8897">handle_convert_run</text><text fill="#000000" font-family="Arial" font-size="14" lengthAdjust="spacing" textLength="200.7305" x="1097.5" y="315.9883">(maestro/commands/convert.py)</text></g><!--entity handle_convert_status--><g class="entity" data-entity="handle_convert_status" data-source-line="21" data-uid="ent0011" id="entity_handle_convert_status"><rect fill="#FFFFFF" height="52.1973" rx="2.5" ry="2.5" style="stroke:#000000;stroke-width:1;" width="220.7305" x="1343.5" y="276.7579"/><text fill="#000000" font-family="Arial" font-size="14" lengthAdjust="spacing" textLength="140.875" x="1353.5" y="299.8897">handle_convert_status</text><text fill="#000000" font-family="Arial" font-size="14" lengthAdjust="spacing" textLength="200.7305" x="1353.5" y="315.9883">(maestro/commands/convert.py)</text></g><!--entity handle_convert_show--><g class="entity" data-entity="handle_convert_show" data-source-line="22" data-uid="ent0012" id="entity_handle_convert_show"><rect fill="#FFFFFF" height="52.1973" rx="2.5" ry="2.5" style="stroke:#000000;stroke-width:1;" width="220.7305" x="1599.5" y="276.7579"/><text fill="#000000" font-family="Arial" font-size="14" lengthAdjust="spacing" textLength="136.2061" x="1609.5" y="299.8897">handle_convert_show</text><text fill="#000000" font-family="Arial" font-size="14" lengthAdjust="spacing" textLength="200.7305" x="1609.5" y="315.9883">(maestro/commands/convert.py)</text></g><!--entity handle_convert_reset--><g class="entity" data-entity="handle_convert_reset" data-source-line="23" data-uid="ent0013" id="entity_handle_convert_reset"><rect fill="#FFFFFF" height="52.1973" rx="2.5" ry="2.5" style="stroke:#000000;stroke-width:1;" width="220.7305" x="1855.5" y="276.7579"/><text fill="#000000" font-family="Arial" font-size="14" lengthAdjust="spacing" textLength="134.6475" x="1865.5" y="299.8897">handle_convert_reset</text><text fill="#000000" font-family="Arial" font-size="14" lengthAdjust="spacing" textLength="200.7305" x="1865.5" y="315.9883">(maestro/commands/convert.py)</text></g><!--entity handle_convert_batch--><g class="entity" data-entity="handle_convert_batch" data-source-line="24" data-uid="ent0014" id="entity_handle_convert_batch"><rect fill="#FFFFFF" height="52.1973" rx="2.5" ry="2.5" style="stroke:#000000;stroke-width:1;" width="220.7305" x="2111.5" y="276.7579"/><text fill="#000000" font-family="Arial" font-size="14" lengthAdjust="spacing" textLength="137.7715" x="2121.5" y="299.8897">handle_convert_batch</text><text fill="#000000" font-family="Arial" font-size="14" lengthAdjust="spacing" textLength="200.7305" x="2121.5" y="315.9883">(maestro/commands/convert.py)</text></g><!--entity create_new_pipeline--><g class="entity" data-entity="create_new_pipeline" data-source-line="25" data-uid="ent0015" id="entity_create_new_pipeline"><rect fill="#FFFFFF" height="52.1973" rx="2.5" ry="2.5" style="stroke:#000000;stroke-width:1;" width="280.6543" x="526.54" y="388.9479"/><text fill="#000000" font-family="Arial" font-size="14" lengthAdjust="spacing" textLength="128.4268" x="536.54" y="412.0797">create_new_pipeline</text><text fill="#000000" font-family="Arial" font-size="14" lengthAdjust="spacing" textLength="260.6543" x="536.54" y="428.1783">(maestro/convert/convert_orchestrator.py)</text></g><!--entity reset_pipeline--><g class="entity" data-entity="reset_pipeline" data-source-line="26" data-uid="ent0016" id="entity_reset_pipeline"><rect fill="#FFFFFF" height="52.1973" rx="2.5" ry="2.5" style="stroke:#000000;stroke-width:1;" width="280.6543" x="1825.54" y="388.9479"/><text fill="#000000" font-family="Arial" font-size="14" lengthAdjust="spacing" textLength="87.1719" x="1835.54" y="412.0797">reset_pipeline</text><text fill="#000000" font-family="Arial" font-size="14" lengthAdjust="spacing" textLength="260.6543" x="1835.54" y="428.1783">(maestro/convert/convert_orchestrator.py)</text></g><!--entity plan_conversion--><g class="entity" data-entity="plan_conversion" data-source-line="27" data-uid="ent0017" id="entity_plan_conversion"><rect fill="#FFFFFF" height="52.1973" rx="2.5" ry="2.5" style="stroke:#000000;stroke-width:1;" width="198.9648" x="842.38" y="388.9479"/><text fill="#000000" font-family="Arial" font-size="14" lengthAdjust="spacing" textLength="101.958" x="852.38" y="412.0797">plan_conversion</text><text fill="#000000" font-family="Arial" font-size="14" lengthAdjust="spacing" textLength="178.9648" x="852.38" y="428.1783">(maestro/convert/planner.py)</text></g><!--entity run_conversion_pipeline--><g class="entity" data-entity="run_conversion_pipeline" data-source-line="28" data-uid="ent0018" id="entity_run_conversion_pipeline"><rect fill="#FFFFFF" height="52.1973" rx="2.5" ry="2.5" style="stroke:#000000;stroke-width:1;" width="262.0195" x="1075.85" y="388.9479"/><text fill="#000000" font-family="Arial" font-size="14" lengthAdjust="spacing" textLength="151.7715" x="1085.85" y="412.0797">run_conversion_pipeline</text><text fill="#000000" font-family="Arial" font-size="14" lengthAdjust="spacing" textLength="242.0195" x="1085.85" y="428.1783">(maestro/convert/execution_engine.py)</text></g><!--entity get_pipeline_status--><g class="entity" data-entity="get_pipeline_status" data-source-line="29" data-uid="ent0019" id="entity_get_pipeline_status"><rect fill="#FFFFFF" height="52.1973" rx="2.5" ry="2.5" style="stroke:#000000;stroke-width:1;" width="212.9785" x="1372.37" y="388.9479"/><text fill="#000000" font-family="Arial" font-size="14" lengthAdjust="spacing" textLength="120.6475" x="1382.37" y="412.0797">get_pipeline_status</text><text fill="#000000" font-family="Arial" font-size="14" lengthAdjust="spacing" textLength="192.9785" x="1382.37" y="428.1783">(maestro/ui_facade/convert.py)</text></g><!--entity maestro_convert_dir--><g class="entity" data-entity="maestro_convert_dir" data-source-line="39" data-uid="ent0029" id="entity_maestro_convert_dir"><ellipse cx="1125.8666" cy="510.1479" fill="#FFFFFF" rx="8" ry="8" style="stroke:#000000;stroke-width:1;"/><path d="M1125.8666,518.1479 L1125.8666,545.1479 M1112.8666,526.1479 L1138.8666,526.1479 M1125.8666,545.1479 L1112.8666,560.1479 M1125.8666,545.1479 L1138.8666,560.1479" fill="none" style="stroke:#000000;stroke-width:1;"/><text fill="#000000" font-family="Arial" font-size="14" lengthAdjust="spacing" textLength="127.6133" x="1062.06" y="575.2797">maestro_convert_dir</text></g><!--entity pipeline_status_class--><g class="entity" data-entity="pipeline_status_class" data-source-line="47" data-uid="ent0038" id="entity_pipeline_status_class"><ellipse cx="1392.861" cy="510.1479" fill="#FFFFFF" rx="8" ry="8" style="stroke:#000000;stroke-width:1;"/><path d="M1392.861,518.1479 L1392.861,545.1479 M1379.861,526.1479 L1405.861,526.1479 M1392.861,545.1479 L1379.861,560.1479 M1392.861,545.1479 L1405.861,560.1479" fill="none" style="stroke:#000000;stroke-width:1;"/><text fill="#000000" font-family="Arial" font-size="14" lengthAdjust="spacing" textLength="133.082" x="1326.32" y="575.2797">pipeline_status_class</text></g><!--entity pipeline_stage_class--><g class="entity" data-entity="pipeline_stage_class" data-source-line="48" data-uid="ent0040" id="entity_pipeline_stage_class"><ellipse cx="1559.8593" cy="510.1479" fill="#FFFFFF" rx="8" ry="8" style="stroke:#000000;stroke-width:1;"/><path d="M1559.8593,518.1479 L1559.8593,545.1479 M1546.8593,526.1479 L1572.8593,526.1479 M1559.8593,545.1479 L1546.8593,560.1479 M1559.8593,545.1479 L1572.8593,560.1479" fill="none" style="stroke:#000000;stroke-width:1;"/><text fill="#000000" font-family="Arial" font-size="14" lengthAdjust="spacing" textLength="129.9785" x="1494.87" y="575.2797">pipeline_stage_class</text></g><!--link NOTE_ANCHOR to GMN3--><!--link main_entry to add_convert_parser--><g class="link" data-entity-1="main_entry" data-entity-2="add_convert_parser" data-source-line="30" data-uid="lnk20" id="link_main_entry_add_convert_parser"><path d="M1281.75,200.9079 C1269.23,207.0879 1255.33,212.9879 1241.86,216.7579 C947.96,298.9079 860.02,233.9979 557.86,276.7579 C552.15,277.5679 552.2221,277.4943 546.3221,278.4543" fill="none" id="main_entry-to-add_convert_parser" style="stroke:#333333;stroke-width:1;"/><polygon fill="#333333" points="540.4,279.4179,549.9256,281.9205,545.3351,278.6149,548.6408,274.0244,540.4,279.4179" style="stroke:#333333;stroke-width:1;"/></g><!--link main_entry to handle_convert_new--><g class="link" data-entity-1="main_entry" data-entity-2="handle_convert_new" data-source-line="31" data-uid="lnk21" id="link_main_entry_handle_convert_new"><path d="M1280.74,200.8779 C1268.45,206.9079 1254.92,212.7379 1241.86,216.7579 C1058.27,273.2379 1003.29,244.9279 813.86,276.7579 C808.17,277.7079 808.2466,277.6731 802.3666,278.7231" fill="none" id="main_entry-to-handle_convert_new" style="stroke:#333333;stroke-width:1;"/><polygon fill="#333333" points="796.46,279.7779,806.023,282.1334,801.3821,278.8989,804.6167,274.258,796.46,279.7779" style="stroke:#333333;stroke-width:1;"/></g><!--link main_entry to handle_convert_plan--><g class="link" data-entity-1="main_entry" data-entity-2="handle_convert_plan" data-source-line="32" data-uid="lnk22" id="link_main_entry_handle_convert_plan"><path d="M1277.67,200.9779 C1266.12,206.5879 1253.7,212.2079 1241.86,216.7579 C1179.46,240.7479 1113.2492,259.8968 1055.4292,274.8368" fill="none" id="main_entry-to-handle_convert_plan" style="stroke:#333333;stroke-width:1;"/><polygon fill="#333333" points="1049.62,276.3379,1059.3345,277.9591,1054.461,275.087,1057.3331,270.2135,1049.62,276.3379" style="stroke:#333333;stroke-width:1;"/></g><!--link main_entry to handle_convert_run--><g class="link" data-entity-1="main_entry" data-entity-2="handle_convert_run" data-source-line="33" data-uid="lnk23" id="link_main_entry_handle_convert_run"><path d="M1299.96,200.9779 C1277.75,222.9179 1250.1876,250.1503 1227.9976,272.0803" fill="none" id="main_entry-to-handle_convert_run" style="stroke:#333333;stroke-width:1;"/><polygon fill="#333333" points="1223.73,276.2979,1232.9431,272.8165,1227.2863,272.7832,1227.3196,267.1265,1223.73,276.2979" style="stroke:#333333;stroke-width:1;"/></g><!--link main_entry to handle_convert_status--><g class="link" data-entity-1="main_entry" data-entity-2="handle_convert_status" data-source-line="34" data-uid="lnk24" id="link_main_entry_handle_convert_status"><path d="M1351.77,200.9779 C1373.97,222.9179 1401.5315,250.1512 1423.7315,272.0812" fill="none" id="main_entry-to-handle_convert_status" style="stroke:#333333;stroke-width:1;"/><polygon fill="#333333" points="1428,276.2979,1424.4083,267.1273,1424.4429,272.784,1418.7862,272.8186,1428,276.2979" style="stroke:#333333;stroke-width:1;"/></g><!--link main_entry to handle_convert_show--><g class="link" data-entity-1="main_entry" data-entity-2="handle_convert_show" data-source-line="35" data-uid="lnk25" id="link_main_entry_handle_convert_show"><path d="M1392.75,197.4079 C1459.47,219.3879 1556.1911,251.2409 1626.4811,274.3909" fill="none" id="main_entry-to-handle_convert_show" style="stroke:#333333;stroke-width:1;"/><polygon fill="#333333" points="1632.18,276.2679,1624.883,269.6532,1627.4309,274.7037,1622.3804,277.2517,1632.18,276.2679" style="stroke:#333333;stroke-width:1;"/></g><!--link main_entry to handle_convert_reset--><g class="link" data-entity-1="main_entry" data-entity-2="handle_convert_reset" data-source-line="36" data-uid="lnk26" id="link_main_entry_handle_convert_reset"><path d="M1392.54,188.5579 C1502.2,210.2279 1715.8138,252.4449 1849.1338,278.7849" fill="none" id="main_entry-to-handle_convert_reset" style="stroke:#333333;stroke-width:1;"/><polygon fill="#333333" points="1855.02,279.9479,1846.966,274.2793,1850.1148,278.9787,1845.4154,282.1276,1855.02,279.9479" style="stroke:#333333;stroke-width:1;"/></g><!--link main_entry to handle_convert_batch--><g class="link" data-entity-1="main_entry" data-entity-2="handle_convert_batch" data-source-line="37" data-uid="lnk27" id="link_main_entry_handle_convert_batch"><path d="M1392.59,182.7679 C1526.12,197.8679 1835.56,234.4279 2093.86,276.7579 C2099.56,277.6879 2099.4917,277.6428 2105.3717,278.6828" fill="none" id="main_entry-to-handle_convert_batch" style="stroke:#333333;stroke-width:1;"/><polygon fill="#333333" points="2111.28,279.7279,2103.1142,274.2215,2106.3564,278.857,2101.7209,282.0992,2111.28,279.7279" style="stroke:#333333;stroke-width:1;"/></g><!--link handle_convert_new to create_new_pipeline--><g class="link" data-entity-1="handle_convert_new" data-entity-2="create_new_pipeline" data-source-line="38" data-uid="lnk28" id="link_handle_convert_new_create_new_pipeline"><path d="M681.46,329.4079 C678.39,347.2179 675.3282,364.9449 672.2682,382.7149" fill="none" id="handle_convert_new-to-create_new_pipeline" style="stroke:#333333;stroke-width:1;"/><polygon fill="#333333" points="671.25,388.6279,676.7193,380.4372,672.0985,383.7004,668.8353,379.0796,671.25,388.6279" style="stroke:#333333;stroke-width:1;"/></g><!--link create_new_pipeline to maestro_convert_dir--><g class="link" data-entity-1="create_new_pipeline" data-entity-2="maestro_convert_dir" data-source-line="39" data-uid="lnk30" id="link_create_new_pipeline_maestro_convert_dir"><path d="M762.53,441.6079 C852.25,465.5879 978.1335,499.2184 1055.8735,519.9984" fill="none" id="create_new_pipeline-to-maestro_convert_dir" style="stroke:#333333;stroke-width:1;"/><polygon fill="#333333" points="1061.67,521.5479,1054.0082,515.3594,1056.8396,520.2567,1051.9423,523.0881,1061.67,521.5479" style="stroke:#333333;stroke-width:1;"/></g><!--link handle_convert_plan to plan_conversion--><g class="link" data-entity-1="handle_convert_plan" data-entity-2="plan_conversion" data-source-line="40" data-uid="lnk31" id="link_handle_convert_plan_plan_conversion"><path d="M941.86,329.4079 C941.86,347.2179 941.86,364.8579 941.86,382.6279" fill="none" id="handle_convert_plan-to-plan_conversion" style="stroke:#333333;stroke-width:1;"/><polygon fill="#333333" points="941.86,388.6279,945.86,379.6279,941.86,383.6279,937.86,379.6279,941.86,388.6279" style="stroke:#333333;stroke-width:1;"/></g><!--link plan_conversion to maestro_convert_dir--><g class="link" data-entity-1="plan_conversion" data-entity-2="maestro_convert_dir" data-source-line="41" data-uid="lnk32" id="link_plan_conversion_maestro_convert_dir"><path d="M979.99,441.4679 C1005.67,458.5879 1035.018,478.1393 1063.918,497.4093" fill="none" id="plan_conversion-to-maestro_convert_dir" style="stroke:#333333;stroke-width:1;"/><polygon fill="#333333" points="1068.91,500.7379,1063.641,492.4169,1064.75,497.964,1059.2029,499.073,1068.91,500.7379" style="stroke:#333333;stroke-width:1;"/></g><!--link handle_convert_run to run_conversion_pipeline--><g class="link" data-entity-1="handle_convert_run" data-entity-2="run_conversion_pipeline" data-source-line="42" data-uid="lnk33" id="link_handle_convert_run_run_conversion_pipeline"><path d="M1199.95,329.4079 C1201.41,347.2179 1202.852,364.8777 1204.302,382.6477" fill="none" id="handle_convert_run-to-run_conversion_pipeline" style="stroke:#333333;stroke-width:1;"/><polygon fill="#333333" points="1204.79,388.6279,1208.0448,379.3324,1204.3834,383.6444,1200.0713,379.983,1204.79,388.6279" style="stroke:#333333;stroke-width:1;"/></g><!--link run_conversion_pipeline to maestro_convert_dir--><g class="link" data-entity-1="run_conversion_pipeline" data-entity-2="maestro_convert_dir" data-source-line="43" data-uid="lnk34" id="link_run_conversion_pipeline_maestro_convert_dir"><path d="M1190.08,441.4679 C1178.77,458.5879 1166.9672,476.4616 1154.2372,495.7316" fill="none" id="run_conversion_pipeline-to-maestro_convert_dir" style="stroke:#333333;stroke-width:1;"/><polygon fill="#333333" points="1150.93,500.7379,1159.2283,495.4333,1153.686,496.566,1152.5533,491.0237,1150.93,500.7379" style="stroke:#333333;stroke-width:1;"/></g><!--link handle_convert_status to get_pipeline_status--><g class="link" data-entity-1="handle_convert_status" data-entity-2="get_pipeline_status" data-source-line="44" data-uid="lnk35" id="link_handle_convert_status_get_pipeline_status"><path d="M1459.66,329.4079 C1463.7,347.2179 1467.743,365.0064 1471.773,382.7764" fill="none" id="handle_convert_status-to-get_pipeline_status" style="stroke:#333333;stroke-width:1;"/><polygon fill="#333333" points="1473.1,388.6279,1475.0104,378.9661,1471.9941,383.7517,1467.2085,380.7354,1473.1,388.6279" style="stroke:#333333;stroke-width:1;"/></g><!--link handle_convert_show to get_pipeline_status--><g class="link" data-entity-1="handle_convert_show" data-entity-2="get_pipeline_status" data-source-line="45" data-uid="lnk36" id="link_handle_convert_show_get_pipeline_status"><path d="M1656.29,329.4079 C1618.97,347.2179 1574.8154,368.2745 1537.5654,386.0445" fill="none" id="handle_convert_show-to-get_pipeline_status" style="stroke:#333333;stroke-width:1;"/><polygon fill="#333333" points="1532.15,388.6279,1541.9953,388.363,1536.6628,386.475,1538.5508,381.1425,1532.15,388.6279" style="stroke:#333333;stroke-width:1;"/></g><!--link get_pipeline_status to maestro_convert_dir--><g class="link" data-entity-1="get_pipeline_status" data-entity-2="maestro_convert_dir" data-source-line="46" data-uid="lnk37" id="link_get_pipeline_status_maestro_convert_dir"><path d="M1405.29,441.6079 C1341.75,463.6879 1256.5078,493.3092 1195.8178,514.3892" fill="none" id="get_pipeline_status-to-maestro_convert_dir" style="stroke:#333333;stroke-width:1;"/><polygon fill="#333333" points="1190.15,516.3579,1199.9642,517.1834,1194.8732,514.7173,1197.3393,509.6263,1190.15,516.3579" style="stroke:#333333;stroke-width:1;"/></g><!--link get_pipeline_status to pipeline_status_class--><g class="link" data-entity-1="get_pipeline_status" data-entity-2="pipeline_status_class" data-source-line="47" data-uid="lnk39" id="link_get_pipeline_status_pipeline_status_class"><path d="M1461.04,441.4679 C1449.04,458.5879 1436.4344,476.555 1422.9244,495.825" fill="none" id="get_pipeline_status-to-pipeline_status_class" style="stroke:#333333;stroke-width:1;"/><polygon fill="#333333" points="1419.48,500.7379,1427.9218,495.6648,1422.3503,496.6438,1421.3713,491.0723,1419.48,500.7379" style="stroke:#333333;stroke-width:1;"/></g><!--link get_pipeline_status to pipeline_stage_class--><g class="link" data-entity-1="get_pipeline_status" data-entity-2="pipeline_stage_class" data-source-line="48" data-uid="lnk41" id="link_get_pipeline_status_pipeline_stage_class"><path d="M1495.65,441.4679 C1506.95,458.5879 1518.7646,476.4604 1531.4846,495.7304" fill="none" id="get_pipeline_status-to-pipeline_stage_class" style="stroke:#333333;stroke-width:1;"/><polygon fill="#333333" points="1534.79,500.7379,1533.1702,491.0231,1532.0355,496.565,1526.4936,495.4303,1534.79,500.7379" style="stroke:#333333;stroke-width:1;"/></g><!--link handle_convert_reset to reset_pipeline--><g class="link" data-entity-1="handle_convert_reset" data-entity-2="reset_pipeline" data-source-line="49" data-uid="lnk42" id="link_handle_convert_reset_reset_pipeline"><path d="M1965.86,329.4079 C1965.86,347.2179 1965.86,364.8579 1965.86,382.6279" fill="none" id="handle_convert_reset-to-reset_pipeline" style="stroke:#333333;stroke-width:1;"/><polygon fill="#333333" points="1965.86,388.6279,1969.86,379.6279,1965.86,383.6279,1961.86,379.6279,1965.86,388.6279" style="stroke:#333333;stroke-width:1;"/></g><!--SRC=[dLPHRzem47xFh_2wbnO9ecvI7pff4gDXhKHXwdXZLUJQ1ucQs97jmFfNzhJVjb-oiqaWWCaOKIJ8-Vi-dyztftjd4iY151bDHQ1VKr5GHNFoGjdhGibIy87Cf2BlX-vf83ZCQPcPeHHcJ56XhrAQDTRxIibLHVxediRYM1hu8XK7LI46xjb7-9n0L61Iam4PFDvrcHHBK8PqIVsF0nGa5GQKe1cPPt95BkMB1hK4VaKkHvExwrioa1p8i1JCf5Bego0eDJ2gWLnGmHAfBWZLP3oPHd5_FBYVF0L9YeIcGQ1_HAMBn10vtraXfDFvBal5uBRJ8RCPbqo7AwbUhIywN7u8KnMod8SD_tiC7UgzqJmZ_mT_VWv0S6Az2G85p52nmD1Sv7YTCGYZtdw8ovo2Dag6rjWhtgxSwRQ89ezo7bURn7WH6BO6dyayfuBhi7QZrZfaDJKJv6Im0GXOdQ9vo6hHnFGLPuXQMekgAiyHHLQBfZRKbFeCsJMnJJcHvmJMqjfY01hCEL6ml1RT5sfOSeQkupLrcG9gmEP7NAG5PAc07Lb7gtzZgLXYLwYHQhE5HwAvWplAsUAxxAQkpRxgN1hRa4VO8WHijVOOEqwMpPKsR-4diDBsFQp-1KAsdlebchii6aSvJEKoZUUKKGu7b-ZX1Ti6HBhTpxuUieVmT8HsX2llTeWjrdQ4trjV4VrZ9rSGxPXrSX-Uqs5zMUgnEMnr8niDdgh04no7tK-glUzJzJ2I3deqY_psK-NNr-3GlcJotCTHhCTsr8jZs3rRp3AgzKde1LHWNtwi8xZRCTQZHWPpxwGHBN4o4MxMiDyuRoolwsPQQ_ToJWvDE3eS9HGbJY8-uywySNG6ifDQT1FTE0___FfDHi0NeCWzpcMwzdHI3MMajz-X24OUUux48Yar1Wp7EO8JKBmpujdnw1DPfZB32j1aE45HV6UpNY_4z-7nsoXwZCRJ_lHXCev7qTtNwCa6mhlWOb5J5HHI6HrcpkcOOGnIRZUnzEeaWusn6P6_]--></g></svg>