<svg xmlns="http://www.w3.org/2000/svg" xmlns:xlink="http://www.w3.org/1999/xlink" contentStyleType="text/css" data-diagram-type="DESCRIPTION" height="363px" preserveAspectRatio="none" style="width:2513px;height:363px;background:#FFFFFF;" version="1.1" viewBox="0 0 2513 363" width="2513px" zoomAndPan="magnify"><title>CMD-convert - Combined CLI+Code (LOD0)</title><defs/><g><g class="title" data-source-line="8"><text fill="#000000" font-family="Arial" font-size="22" font-weight="bold" lengthAdjust="spacing" textLength="452.8369" x="1025.8052" y="35.6357">CMD-convert - Combined CLI+Code (LOD0)</text></g><!--cluster CLI Layer--><g class="cluster" data-entity="CLI Layer" data-source-line="20" data-uid="ent0007" id="cluster_CLI Layer"><path d="M1230.36,145.8879 L1295.1598,145.8879 A3.75,3.75 0 0 1 1297.6598,148.3879 L1304.6598,167.9865 L1780.36,167.9865 A2.5,2.5 0 0 1 1782.86,170.4865 L1782.86,353.6879 A2.5,2.5 0 0 1 1780.36,356.1879 L1230.36,356.1879 A2.5,2.5 0 0 1 1227.86,353.6879 L1227.86,148.3879 A2.5,2.5 0 0 1 1230.36,145.8879" fill="#E6F3FF" style="stroke:#000000;stroke-width:1;"/><line style="stroke:#000000;stroke-width:1;" x1="1227.86" x2="1304.6598" y1="167.9865" y2="167.9865"/><text fill="#000000" font-family="Arial" font-size="14" font-weight="bold" lengthAdjust="spacing" textLength="63.7998" x="1231.86" y="161.0197">CLI Layer</text></g><!--cluster Code Layer--><g class="cluster" data-entity="Code Layer" data-source-line="28" data-uid="ent0013" id="cluster_Code Layer"><path d="M1809.36,146.1879 L1886.608,146.1879 A3.75,3.75 0 0 1 1889.108,148.6879 L1896.108,168.2865 L2250.36,168.2865 A2.5,2.5 0 0 1 2252.86,170.7865 L2252.86,352.4479 A2.5,2.5 0 0 1 2250.36,354.9479 L1809.36,354.9479 A2.5,2.5 0 0 1 1806.86,352.4479 L1806.86,148.6879 A2.5,2.5 0 0 1 1809.36,146.1879" fill="#FFE6E6" style="stroke:#000000;stroke-width:1;"/><line style="stroke:#000000;stroke-width:1;" x1="1806.86" x2="1896.108" y1="168.2865" y2="168.2865"/><text fill="#000000" font-family="Arial" font-size="14" font-weight="bold" lengthAdjust="spacing" textLength="76.248" x="1810.86" y="161.3197">Code Layer</text></g><!--entity maestro convert--><g class="entity" data-entity="maestro convert" data-source-line="21" data-uid="ent0008" id="entity_maestro convert"><ellipse cx="1310.8606" cy="199.234" fill="#FFFFFF" rx="67.3306" ry="15.8661" style="stroke:#000000;stroke-width:1;"/><text fill="#000000" font-family="Arial" font-size="14" lengthAdjust="spacing" textLength="100.3721" x="1260.6746" y="203.7833">maestro convert</text></g><!--entity maestro convert new--><g class="entity" data-entity="maestro convert new" data-source-line="22" data-uid="ent0009" id="entity_maestro convert new"><ellipse cx="1492.8575" cy="199.2334" fill="#FFFFFF" rx="79.4275" ry="18.2855" style="stroke:#000000;stroke-width:1;"/><text fill="#000000" font-family="Arial" font-size="14" lengthAdjust="spacing" textLength="129.9443" x="1427.8854" y="203.7827">maestro convert new</text></g><!--entity maestro convert plan--><g class="entity" data-entity="maestro convert plan" data-source-line="23" data-uid="ent0010" id="entity_maestro convert plan"><ellipse cx="1686.862" cy="199.2402" fill="#FFFFFF" rx="79.762" ry="18.3524" style="stroke:#000000;stroke-width:1;"/><text fill="#000000" font-family="Arial" font-size="14" lengthAdjust="spacing" textLength="130.7305" x="1621.4967" y="203.7896">maestro convert plan</text></g><!--entity maestro convert run--><g class="entity" data-entity="maestro convert run" data-source-line="24" data-uid="ent0011" id="entity_maestro convert run"><ellipse cx="1320.8556" cy="320.893" fill="#FFFFFF" rx="77.1256" ry="17.8251" style="stroke:#000000;stroke-width:1;"/><text fill="#000000" font-family="Arial" font-size="14" lengthAdjust="spacing" textLength="124.4961" x="1258.6076" y="325.4423">maestro convert run</text></g><!--entity maestro convert status--><g class="entity" data-entity="maestro convert status" data-source-line="25" data-uid="ent0012" id="entity_maestro convert status"><ellipse cx="1517.8555" cy="320.8969" fill="#FFFFFF" rx="84.4455" ry="19.2891" style="stroke:#000000;stroke-width:1;"/><text fill="#000000" font-family="Arial" font-size="14" lengthAdjust="spacing" textLength="141.6133" x="1447.0488" y="325.4463">maestro convert status</text></g><!--entity main--><g class="entity" data-entity="main" data-source-line="29" data-uid="ent0014" id="entity_main"><rect fill="#FFFFFF" height="36.0986" rx="2.5" ry="2.5" style="stroke:#000000;stroke-width:1;" width="50.3447" x="1822.69" y="181.1879"/><text fill="#000000" font-family="Arial" font-size="14" lengthAdjust="spacing" textLength="30.3447" x="1832.69" y="204.3197">main</text></g><!--entity add_convert_parser--><g class="entity" data-entity="add_convert_parser" data-source-line="30" data-uid="ent0015" id="entity_add_convert_parser"><rect fill="#FFFFFF" height="36.0986" rx="2.5" ry="2.5" style="stroke:#000000;stroke-width:1;" width="144.5234" x="1907.6" y="181.1879"/><text fill="#000000" font-family="Arial" font-size="14" lengthAdjust="spacing" textLength="124.5234" x="1917.6" y="204.3197">add_convert_parser</text></g><!--entity handle_convert_new--><g class="entity" data-entity="handle_convert_new" data-source-line="31" data-uid="ent0016" id="entity_handle_convert_new"><rect fill="#FFFFFF" height="36.0986" rx="2.5" ry="2.5" style="stroke:#000000;stroke-width:1;" width="149.2061" x="2087.26" y="181.1879"/><text fill="#000000" font-family="Arial" font-size="14" lengthAdjust="spacing" textLength="129.2061" x="2097.26" y="204.3197">handle_convert_new</text></g><!--entity handle_convert_plan--><g class="entity" data-entity="handle_convert_plan" data-source-line="32" data-uid="ent0017" id="entity_handle_convert_plan"><rect fill="#FFFFFF" height="36.0986" rx="2.5" ry="2.5" style="stroke:#000000;stroke-width:1;" width="149.9922" x="1822.87" y="302.8479"/><text fill="#000000" font-family="Arial" font-size="14" lengthAdjust="spacing" textLength="129.9922" x="1832.87" y="325.9797">handle_convert_plan</text></g><!--entity handle_convert_run--><g class="entity" data-entity="handle_convert_run" data-source-line="33" data-uid="ent0018" id="entity_handle_convert_run"><rect fill="#FFFFFF" height="36.0986" rx="2.5" ry="2.5" style="stroke:#000000;stroke-width:1;" width="143.7578" x="2007.99" y="302.8479"/><text fill="#000000" font-family="Arial" font-size="14" lengthAdjust="spacing" textLength="123.7578" x="2017.99" y="325.9797">handle_convert_run</text></g><!--entity NOTE_ANCHOR--><g class="entity" data-entity="N1" data-source-line="17" data-uid="ent0006" id="entity_N1"><path d="M2271.29,186.7679 L2271.29,211.7166 L2506.4472,211.7166 L2506.4472,196.7679 L2496.4472,186.7679 L2271.29,186.7679" fill="#FFFFCC" style="stroke:#CCCCCC;stroke-width:1;"/><path d="M2496.4472,186.7679 L2496.4472,196.7679 L2506.4472,196.7679 L2496.4472,186.7679" fill="#FFFFCC" style="stroke:#CCCCCC;stroke-width:1;"/><text fill="#000000" font-family="Arial" font-size="13" font-weight="bold" lengthAdjust="spacing" textLength="214.1572" x="2277.29" y="203.9617">Combined CLI + Code view (LOD0)</text></g><!--link NOTE_ANCHOR to GMN3--><!--SRC=[bLJ1Zjem4BtdAwRifMMrfDkLEBGd6f8k4fjKMsveXKmyW8LZHxO3GjN-o9xwRVsIJjm4PRk0L2iNPjwCttj-uftRO85GIYPKOBT2bSom0fOitwwDhXIFjDG6hX9_EWYEArP9bsZbKaORHaOmsUcFZD7xPlZEdquprGw_QiFHD8Z8dtyHfqWGAd32IOJeONoJQxL3u-068bqiXK8EqNHo7McEy7wQZJz-28BAOiuiGe-fVADD3vY5D9l5Yr4QtMUFmKOGk5jGT3SOiTuuqAjN7O1-_uUkJ8wV-tsOpxdERRZNPhkIUc_3tQTGc30lUDZXDiYb61nO8U6_q4zF0IeEDPVWBwEQzgsdqDKAr-3LxWJk6ydzVcUq91FPcjJNs2ax81bm5G-JkoI1dxJjw4x1q3gZeI7Ikz03XVkBVOgJkWWmrUM-TSnLjXSyTmNKCbi5IH8Fuw5NO31tJAsbNoFytaw9SRvejYueMfQcNmCsJ769HqmZxJoWrNOUuSKzDwycSNKoHl6EOgTyaEhV5ARTRPZheg1TxQP1mU5jYP9nTg2iA6UdYc_ZT2hWhQ-UuU-NNp15laO3zq8vspBDbcJYZj8tQ5ujR2uAWOlQ5MqEzBBrcma5bE-M2FrdO0br-BzGNBLa3Yqa6IsbRpuV34Bw9W_Vf_53dCv6iqcMBgRn-5lyM1jnik6zQ4SDbjeu6qfFUf6J1uBNbzJZZPBeMEmwyWS0]--></g></svg>