<svg xmlns="http://www.w3.org/2000/svg" xmlns:xlink="http://www.w3.org/1999/xlink" contentStyleType="text/css" data-diagram-type="DESCRIPTION" height="621px" preserveAspectRatio="none" style="width:3291px;height:621px;background:#FFFFFF;" version="1.1" viewBox="0 0 3291 621" width="3291px" zoomAndPan="magnify"><title>CMD-phase - phase deep internal flow (observed) (LOD2: Code Detail)</title><defs/><g><g class="title" data-source-line="8"><text fill="#000000" font-family="Arial" font-size="22" font-weight="bold" lengthAdjust="spacing" textLength="729.7598" x="1276.6086" y="35.6357">CMD-phase - phase deep internal flow (observed) (LOD2: Code Detail)</text></g><!--entity NOTE_ANCHOR--><!--entity main_entry--><g class="entity" data-entity="main_entry" data-source-line="16" data-uid="ent0006" id="entity_main_entry"><rect fill="#E6F3FF" height="52.1973" rx="2.5" ry="2.5" style="stroke:#000000;stroke-width:1;" width="123.4824" x="1663.33" y="171.5079"/><text fill="#000000" font-family="Arial" font-size="14" lengthAdjust="spacing" textLength="69.2549" x="1673.33" y="194.6397">main_entry</text><text fill="#000000" font-family="Arial" font-size="14" lengthAdjust="spacing" textLength="103.4824" x="1673.33" y="210.7383">maestro/main.py</text></g><!--entity handle_phase_command--><g class="entity" data-entity="handle_phase_command" data-source-line="17" data-uid="ent0007" id="entity_handle_phase_command"><rect fill="#E6F3FF" height="52.1973" rx="2.5" ry="2.5" style="stroke:#000000;stroke-width:1;" width="203.6406" x="1623.25" y="314.9279"/><text fill="#000000" font-family="Arial" font-size="14" lengthAdjust="spacing" textLength="157.2266" x="1633.25" y="338.0597">handle_phase_command</text><text fill="#000000" font-family="Arial" font-size="14" lengthAdjust="spacing" textLength="183.6406" x="1633.25" y="354.1583">maestro/commands/phase.py</text></g><!--entity list_phases--><g class="entity" data-entity="list_phases" data-source-line="18" data-uid="ent0008" id="entity_list_phases"><rect fill="#E6F3FF" height="52.1973" rx="2.5" ry="2.5" style="stroke:#000000;stroke-width:1;" width="203.6406" x="425.25" y="427.1179"/><text fill="#000000" font-family="Arial" font-size="14" lengthAdjust="spacing" textLength="70.041" x="435.25" y="450.2497">list_phases</text><text fill="#000000" font-family="Arial" font-size="14" lengthAdjust="spacing" textLength="183.6406" x="435.25" y="466.3483">maestro/commands/phase.py</text></g><!--entity show_phase--><g class="entity" data-entity="show_phase" data-source-line="19" data-uid="ent0009" id="entity_show_phase"><rect fill="#E6F3FF" height="52.1973" rx="2.5" ry="2.5" style="stroke:#000000;stroke-width:1;" width="203.6406" x="1035.25" y="427.1179"/><text fill="#000000" font-family="Arial" font-size="14" lengthAdjust="spacing" textLength="78.6133" x="1045.25" y="450.2497">show_phase</text><text fill="#000000" font-family="Arial" font-size="14" lengthAdjust="spacing" textLength="183.6406" x="1045.25" y="466.3483">maestro/commands/phase.py</text></g><!--entity add_phase--><g class="entity" data-entity="add_phase" data-source-line="20" data-uid="ent0010" id="entity_add_phase"><rect fill="#E6F3FF" height="52.1973" rx="2.5" ry="2.5" style="stroke:#000000;stroke-width:1;" width="203.6406" x="1743.25" y="427.1179"/><text fill="#000000" font-family="Arial" font-size="14" lengthAdjust="spacing" textLength="69.2891" x="1753.25" y="450.2497">add_phase</text><text fill="#000000" font-family="Arial" font-size="14" lengthAdjust="spacing" textLength="183.6406" x="1753.25" y="466.3483">maestro/commands/phase.py</text></g><!--entity remove_phase--><g class="entity" data-entity="remove_phase" data-source-line="21" data-uid="ent0011" id="entity_remove_phase"><rect fill="#E6F3FF" height="52.1973" rx="2.5" ry="2.5" style="stroke:#000000;stroke-width:1;" width="203.6406" x="1504.25" y="427.1179"/><text fill="#000000" font-family="Arial" font-size="14" lengthAdjust="spacing" textLength="92.6133" x="1514.25" y="450.2497">remove_phase</text><text fill="#000000" font-family="Arial" font-size="14" lengthAdjust="spacing" textLength="183.6406" x="1514.25" y="466.3483">maestro/commands/phase.py</text></g><!--entity edit_phase--><g class="entity" data-entity="edit_phase" data-source-line="22" data-uid="ent0012" id="entity_edit_phase"><rect fill="#E6F3FF" height="52.1973" rx="2.5" ry="2.5" style="stroke:#000000;stroke-width:1;" width="203.6406" x="2455.25" y="427.1179"/><text fill="#000000" font-family="Arial" font-size="14" lengthAdjust="spacing" textLength="68.5029" x="2465.25" y="450.2497">edit_phase</text><text fill="#000000" font-family="Arial" font-size="14" lengthAdjust="spacing" textLength="183.6406" x="2465.25" y="466.3483">maestro/commands/phase.py</text></g><!--entity set_phase_status--><g class="entity" data-entity="set_phase_status" data-source-line="23" data-uid="ent0013" id="entity_set_phase_status"><rect fill="#E6F3FF" height="52.1973" rx="2.5" ry="2.5" style="stroke:#000000;stroke-width:1;" width="203.6406" x="1982.25" y="427.1179"/><text fill="#000000" font-family="Arial" font-size="14" lengthAdjust="spacing" textLength="109.7441" x="1992.25" y="450.2497">set_phase_status</text><text fill="#000000" font-family="Arial" font-size="14" lengthAdjust="spacing" textLength="183.6406" x="1992.25" y="466.3483">maestro/commands/phase.py</text></g><!--entity set_phase_context--><g class="entity" data-entity="set_phase_context" data-source-line="24" data-uid="ent0014" id="entity_set_phase_context"><rect fill="#E6F3FF" height="52.1973" rx="2.5" ry="2.5" style="stroke:#000000;stroke-width:1;" width="203.6406" x="669.25" y="427.1179"/><text fill="#000000" font-family="Arial" font-size="14" lengthAdjust="spacing" textLength="117.5303" x="679.25" y="450.2497">set_phase_context</text><text fill="#000000" font-family="Arial" font-size="14" lengthAdjust="spacing" textLength="183.6406" x="679.25" y="466.3483">maestro/commands/phase.py</text></g><!--entity handle_phase_discuss--><g class="entity" data-entity="handle_phase_discuss" data-source-line="25" data-uid="ent0015" id="entity_handle_phase_discuss"><rect fill="#E6F3FF" height="52.1973" rx="2.5" ry="2.5" style="stroke:#000000;stroke-width:1;" width="212.1787" x="2693.98" y="427.1179"/><text fill="#000000" font-family="Arial" font-size="14" lengthAdjust="spacing" textLength="142.4404" x="2703.98" y="450.2497">handle_phase_discuss</text><text fill="#000000" font-family="Arial" font-size="14" lengthAdjust="spacing" textLength="192.1787" x="2703.98" y="466.3483">maestro/commands/discuss.py</text></g><!--entity get_all_tracks--><g class="entity" data-entity="get_all_tracks" data-source-line="26" data-uid="ent0016" id="entity_get_all_tracks"><rect fill="#E6F3FF" height="52.1973" rx="2.5" ry="2.5" style="stroke:#000000;stroke-width:1;" width="210.6406" x="53.75" y="551.7679"/><text fill="#000000" font-family="Arial" font-size="14" lengthAdjust="spacing" textLength="86.3789" x="63.75" y="574.8997">get_all_tracks</text><text fill="#000000" font-family="Arial" font-size="14" lengthAdjust="spacing" textLength="190.6406" x="63.75" y="590.9983">maestro/data/common_utils.py</text></g><!--entity parse_todo_md--><g class="entity" data-entity="parse_todo_md" data-source-line="27" data-uid="ent0017" id="entity_parse_todo_md"><rect fill="#E6F3FF" height="52.1973" rx="2.5" ry="2.5" style="stroke:#000000;stroke-width:1;" width="236.3232" x="923.91" y="551.7679"/><text fill="#000000" font-family="Arial" font-size="14" lengthAdjust="spacing" textLength="97.2891" x="933.91" y="574.8997">parse_todo_md</text><text fill="#000000" font-family="Arial" font-size="14" lengthAdjust="spacing" textLength="216.3232" x="933.91" y="590.9983">maestro/data/markdown_parser.py</text></g><!--entity parse_phase_md--><g class="entity" data-entity="parse_phase_md" data-source-line="28" data-uid="ent0018" id="entity_parse_phase_md"><rect fill="#E6F3FF" height="52.1973" rx="2.5" ry="2.5" style="stroke:#000000;stroke-width:1;" width="236.3232" x="652.91" y="551.7679"/><text fill="#000000" font-family="Arial" font-size="14" lengthAdjust="spacing" textLength="108.1855" x="662.91" y="574.8997">parse_phase_md</text><text fill="#000000" font-family="Arial" font-size="14" lengthAdjust="spacing" textLength="216.3232" x="662.91" y="590.9983">maestro/data/markdown_parser.py</text></g><!--entity extract_phase_block--><g class="entity" data-entity="extract_phase_block" data-source-line="29" data-uid="ent0019" id="entity_extract_phase_block"><rect fill="#E6F3FF" height="52.1973" rx="2.5" ry="2.5" style="stroke:#000000;stroke-width:1;" width="230.8613" x="2649.64" y="551.7679"/><text fill="#000000" font-family="Arial" font-size="14" lengthAdjust="spacing" textLength="128.4131" x="2659.64" y="574.8997">extract_phase_block</text><text fill="#000000" font-family="Arial" font-size="14" lengthAdjust="spacing" textLength="210.8613" x="2659.64" y="590.9983">maestro/data/markdown_writer.py</text></g><!--entity replace_phase_block--><g class="entity" data-entity="replace_phase_block" data-source-line="30" data-uid="ent0020" id="entity_replace_phase_block"><rect fill="#E6F3FF" height="52.1973" rx="2.5" ry="2.5" style="stroke:#000000;stroke-width:1;" width="230.8613" x="2915.64" y="551.7679"/><text fill="#000000" font-family="Arial" font-size="14" lengthAdjust="spacing" textLength="132.3164" x="2925.64" y="574.8997">replace_phase_block</text><text fill="#000000" font-family="Arial" font-size="14" lengthAdjust="spacing" textLength="210.8613" x="2925.64" y="590.9983">maestro/data/markdown_writer.py</text></g><!--entity json_store--><g class="entity" data-entity="json_store" data-source-line="31" data-uid="ent0021" id="entity_json_store"><rect fill="#FFFFFF" height="46.0986" rx="2.5" ry="2.5" style="stroke:#000000;stroke-width:1;" width="104.5928" x="2005.78" y="554.8179"/><rect fill="#FFFFFF" height="10" style="stroke:#000000;stroke-width:1;" width="15" x="2090.3728" y="559.8179"/><rect fill="#FFFFFF" height="2" style="stroke:#000000;stroke-width:1;" width="4" x="2088.3728" y="561.8179"/><rect fill="#FFFFFF" height="2" style="stroke:#000000;stroke-width:1;" width="4" x="2088.3728" y="565.8179"/><text fill="#000000" font-family="Arial" font-size="14" lengthAdjust="spacing" textLength="64.5928" x="2020.78" y="587.9497">json_store</text></g><!--entity load_phase--><g class="entity" data-entity="load_phase" data-source-line="32" data-uid="ent0022" id="entity_load_phase"><rect fill="#E6F3FF" height="52.1973" rx="2.5" ry="2.5" style="stroke:#000000;stroke-width:1;" width="198.958" x="1771.59" y="551.7679"/><text fill="#000000" font-family="Arial" font-size="14" lengthAdjust="spacing" textLength="72.3994" x="1781.59" y="574.8997">load_phase</text><text fill="#000000" font-family="Arial" font-size="14" lengthAdjust="spacing" textLength="178.958" x="1781.59" y="590.9983">maestro/tracks/json_store.py</text></g><!--entity save_phase--><g class="entity" data-entity="save_phase" data-source-line="33" data-uid="ent0023" id="entity_save_phase"><rect fill="#E6F3FF" height="52.1973" rx="2.5" ry="2.5" style="stroke:#000000;stroke-width:1;" width="198.958" x="2145.59" y="551.7679"/><text fill="#000000" font-family="Arial" font-size="14" lengthAdjust="spacing" textLength="75.5029" x="2155.59" y="574.8997">save_phase</text><text fill="#000000" font-family="Arial" font-size="14" lengthAdjust="spacing" textLength="178.958" x="2155.59" y="590.9983">maestro/tracks/json_store.py</text></g><!--entity load_track--><g class="entity" data-entity="load_track" data-source-line="34" data-uid="ent0024" id="entity_load_track"><rect fill="#E6F3FF" height="52.1973" rx="2.5" ry="2.5" style="stroke:#000000;stroke-width:1;" width="198.958" x="1537.59" y="551.7679"/><text fill="#000000" font-family="Arial" font-size="14" lengthAdjust="spacing" textLength="64.5928" x="1547.59" y="574.8997">load_track</text><text fill="#000000" font-family="Arial" font-size="14" lengthAdjust="spacing" textLength="178.958" x="1547.59" y="590.9983">maestro/tracks/json_store.py</text></g><!--entity save_track--><g class="entity" data-entity="save_track" data-source-line="35" data-uid="ent0025" id="entity_save_track"><rect fill="#E6F3FF" height="52.1973" rx="2.5" ry="2.5" style="stroke:#000000;stroke-width:1;" width="198.958" x="1303.59" y="551.7679"/><text fill="#000000" font-family="Arial" font-size="14" lengthAdjust="spacing" textLength="67.6963" x="1313.59" y="574.8997">save_track</text><text fill="#000000" font-family="Arial" font-size="14" lengthAdjust="spacing" textLength="178.958" x="1313.59" y="590.9983">maestro/tracks/json_store.py</text></g><!--entity get_settings--><g class="entity" data-entity="get_settings" data-source-line="36" data-uid="ent0026" id="entity_get_settings"><rect fill="#E6F3FF" height="52.1973" rx="2.5" ry="2.5" style="stroke:#000000;stroke-width:1;" width="182.6338" x="435.76" y="551.7679"/><text fill="#000000" font-family="Arial" font-size="14" lengthAdjust="spacing" textLength="75.4961" x="445.76" y="574.8997">get_settings</text><text fill="#000000" font-family="Arial" font-size="14" lengthAdjust="spacing" textLength="162.6338" x="445.76" y="590.9983">maestro/config/settings.py</text></g><!--entity normalize_status--><g class="entity" data-entity="normalize_status" data-source-line="37" data-uid="ent0027" id="entity_normalize_status"><rect fill="#E6F3FF" height="52.1973" rx="2.5" ry="2.5" style="stroke:#000000;stroke-width:1;" width="235.5303" x="2379.31" y="551.7679"/><text fill="#000000" font-family="Arial" font-size="14" lengthAdjust="spacing" textLength="105.8271" x="2389.31" y="574.8997">normalize_status</text><text fill="#000000" font-family="Arial" font-size="14" lengthAdjust="spacing" textLength="215.5303" x="2389.31" y="590.9983">maestro/commands/status_utils.py</text></g><!--entity docs_todo_md--><g class="entity" data-entity="docs_todo_md" data-source-line="38" data-uid="ent0028" id="entity_docs_todo_md"><path d="M1284.15,185.0579 C1284.15,175.0579 1340.0704,175.0579 1340.0704,175.0579 C1340.0704,175.0579 1395.9908,175.0579 1395.9908,185.0579 L1395.9908,210.1565 C1395.9908,220.1565 1340.0704,220.1565 1340.0704,220.1565 C1340.0704,220.1565 1284.15,220.1565 1284.15,210.1565 L1284.15,185.0579" fill="#FFE6E6" style="stroke:#000000;stroke-width:1;"/><path d="M1284.15,185.0579 C1284.15,195.0579 1340.0704,195.0579 1340.0704,195.0579 C1340.0704,195.0579 1395.9908,195.0579 1395.9908,185.0579" fill="none" style="stroke:#000000;stroke-width:1;"/><text fill="#000000" font-family="Arial" font-size="14" lengthAdjust="spacing" textLength="91.8408" x="1294.15" y="212.1897">docs_todo_md</text></g><!--entity docs_done_md--><g class="entity" data-entity="docs_done_md" data-source-line="39" data-uid="ent0029" id="entity_docs_done_md"><path d="M1431.21,185.0579 C1431.21,175.0579 1489.0787,175.0579 1489.0787,175.0579 C1489.0787,175.0579 1546.9473,175.0579 1546.9473,185.0579 L1546.9473,210.1565 C1546.9473,220.1565 1489.0787,220.1565 1489.0787,220.1565 C1489.0787,220.1565 1431.21,220.1565 1431.21,210.1565 L1431.21,185.0579" fill="#FFE6E6" style="stroke:#000000;stroke-width:1;"/><path d="M1431.21,185.0579 C1431.21,195.0579 1489.0787,195.0579 1489.0787,195.0579 C1489.0787,195.0579 1546.9473,195.0579 1546.9473,185.0579" fill="none" style="stroke:#000000;stroke-width:1;"/><text fill="#000000" font-family="Arial" font-size="14" lengthAdjust="spacing" textLength="95.7373" x="1441.21" y="212.1897">docs_done_md</text></g><!--entity docs_phases_md--><g class="entity" data-entity="docs_phases_md" data-source-line="40" data-uid="ent0030" id="entity_docs_phases_md"><path d="M1275.21,328.4779 C1275.21,318.4779 1340.0787,318.4779 1340.0787,318.4779 C1340.0787,318.4779 1404.9473,318.4779 1404.9473,328.4779 L1404.9473,353.5765 C1404.9473,363.5765 1340.0787,363.5765 1340.0787,363.5765 C1340.0787,363.5765 1275.21,363.5765 1275.21,353.5765 L1275.21,328.4779" fill="#FFE6E6" style="stroke:#000000;stroke-width:1;"/><path d="M1275.21,328.4779 C1275.21,338.4779 1340.0787,338.4779 1340.0787,338.4779 C1340.0787,338.4779 1404.9473,338.4779 1404.9473,328.4779" fill="none" style="stroke:#000000;stroke-width:1;"/><text fill="#000000" font-family="Arial" font-size="14" lengthAdjust="spacing" textLength="109.7373" x="1285.21" y="355.6097">docs_phases_md</text></g><!--entity maestro_tracks_json--><g class="entity" data-entity="maestro_tracks_json" data-source-line="41" data-uid="ent0031" id="entity_maestro_tracks_json"><path d="M1439.49,328.4779 C1439.49,318.4779 1514.0725,318.4779 1514.0725,318.4779 C1514.0725,318.4779 1588.655,318.4779 1588.655,328.4779 L1588.655,353.5765 C1588.655,363.5765 1514.0725,363.5765 1514.0725,363.5765 C1514.0725,363.5765 1439.49,363.5765 1439.49,353.5765 L1439.49,328.4779" fill="#FFE6E6" style="stroke:#000000;stroke-width:1;"/><path d="M1439.49,328.4779 C1439.49,338.4779 1514.0725,338.4779 1514.0725,338.4779 C1514.0725,338.4779 1588.655,338.4779 1588.655,328.4779" fill="none" style="stroke:#000000;stroke-width:1;"/><text fill="#000000" font-family="Arial" font-size="14" lengthAdjust="spacing" textLength="129.165" x="1449.49" y="355.6097">maestro_tracks_json</text></g><!--entity settings_json--><g class="entity" data-entity="settings_json" data-source-line="42" data-uid="ent0032" id="entity_settings_json"><path d="M299.22,565.3179 C299.22,555.3179 350.0784,555.3179 350.0784,555.3179 C350.0784,555.3179 400.9368,555.3179 400.9368,565.3179 L400.9368,590.4165 C400.9368,600.4165 350.0784,600.4165 350.0784,600.4165 C350.0784,600.4165 299.22,600.4165 299.22,590.4165 L299.22,565.3179" fill="#FFE6E6" style="stroke:#000000;stroke-width:1;"/><path d="M299.22,565.3179 C299.22,575.3179 350.0784,575.3179 350.0784,575.3179 C350.0784,575.3179 400.9368,575.3179 400.9368,565.3179" fill="none" style="stroke:#000000;stroke-width:1;"/><text fill="#000000" font-family="Arial" font-size="14" lengthAdjust="spacing" textLength="81.7168" x="309.22" y="592.4497">settings_json</text></g><!--entity editor--><g class="entity" data-entity="editor" data-source-line="43" data-uid="ent0033" id="entity_editor"><ellipse cx="3233.0784" cy="548.3179" fill="#FFFFFF" rx="8" ry="8" style="stroke:#000000;stroke-width:1;"/><path d="M3233.0784,556.3179 L3233.0784,583.3179 M3220.0784,564.3179 L3246.0784,564.3179 M3233.0784,583.3179 L3220.0784,598.3179 M3233.0784,583.3179 L3246.0784,598.3179" fill="none" style="stroke:#000000;stroke-width:1;"/><text fill="#000000" font-family="Arial" font-size="14" lengthAdjust="spacing" textLength="103.7969" x="3181.18" y="613.4497">User's $EDITOR</text></g><!--entity file_system--><g class="entity" data-entity="file_system" data-source-line="44" data-uid="ent0034" id="entity_file_system"><ellipse cx="1232.072" cy="548.3179" fill="#FFFFFF" rx="8" ry="8" style="stroke:#000000;stroke-width:1;"/><path d="M1232.072,556.3179 L1232.072,583.3179 M1219.072,564.3179 L1245.072,564.3179 M1232.072,583.3179 L1219.072,598.3179 M1232.072,583.3179 L1245.072,598.3179" fill="none" style="stroke:#000000;stroke-width:1;"/><text fill="#000000" font-family="Arial" font-size="14" lengthAdjust="spacing" textLength="73.124" x="1195.51" y="613.4497">File System</text></g><!--link NOTE_ANCHOR to GMN3--><!--link main_entry to handle_phase_command--><g class="link" data-entity-1="main_entry" data-entity-2="handle_phase_command" data-source-line="45" data-uid="lnk35" id="link_main_entry_handle_phase_command"><path d="M1725.07,223.8879 C1725.07,249.4679 1725.07,282.8079 1725.07,308.4779" fill="none" id="main_entry-to-handle_phase_command" style="stroke:#333333;stroke-width:1;"/><polygon fill="#333333" points="1725.07,314.4779,1729.07,305.4779,1725.07,309.4779,1721.07,305.4779,1725.07,314.4779" style="stroke:#333333;stroke-width:1;"/></g><!--link handle_phase_command to list_phases--><g class="link" data-entity-1="handle_phase_command" data-entity-2="list_phases" data-source-line="46" data-uid="lnk36" id="link_handle_phase_command_list_phases"><path d="M1623,364.5479 C1617.29,365.4979 1611.62,366.3679 1606.07,367.1179 C1185.12,424.4479 1073.3,371.8479 652.07,427.1179 C644.61,428.0979 642.8504,428.2939 635.1304,429.5639" fill="none" id="handle_phase_command-to-list_phases" style="stroke:#333333;stroke-width:1;"/><polygon fill="#333333" points="629.21,430.5379,638.7399,433.0239,634.1437,429.7262,637.4413,425.13,629.21,430.5379" style="stroke:#333333;stroke-width:1;"/></g><!--link handle_phase_command to show_phase--><g class="link" data-entity-1="handle_phase_command" data-entity-2="show_phase" data-source-line="47" data-uid="lnk37" id="link_handle_phase_command_show_phase"><path d="M1622.87,363.7779 C1617.19,364.9179 1611.56,366.0479 1606.07,367.1179 C1480,391.8479 1340.2599,416.842 1245.1499,433.512" fill="none" id="handle_phase_command-to-show_phase" style="stroke:#333333;stroke-width:1;"/><polygon fill="#333333" points="1239.24,434.5479,1248.7954,436.934,1244.1649,433.6847,1247.4143,429.0542,1239.24,434.5479" style="stroke:#333333;stroke-width:1;"/></g><!--link handle_phase_command to add_phase--><g class="link" data-entity-1="handle_phase_command" data-entity-2="add_phase" data-source-line="48" data-uid="lnk38" id="link_handle_phase_command_add_phase"><path d="M1752.91,367.5779 C1772.29,385.3879 1793.6208,404.9695 1812.9708,422.7395" fill="none" id="handle_phase_command-to-add_phase" style="stroke:#333333;stroke-width:1;"/><polygon fill="#333333" points="1817.39,426.7979,1813.4667,417.7641,1813.7073,423.4159,1808.0556,423.6564,1817.39,426.7979" style="stroke:#333333;stroke-width:1;"/></g><!--link handle_phase_command to remove_phase--><g class="link" data-entity-1="handle_phase_command" data-entity-2="remove_phase" data-source-line="49" data-uid="lnk39" id="link_handle_phase_command_remove_phase"><path d="M1697.47,367.5779 C1678.25,385.3879 1657.1235,404.9524 1637.9235,422.7224" fill="none" id="handle_phase_command-to-remove_phase" style="stroke:#333333;stroke-width:1;"/><polygon fill="#333333" points="1633.52,426.7979,1642.8422,423.6203,1637.1895,423.4016,1637.4082,417.749,1633.52,426.7979" style="stroke:#333333;stroke-width:1;"/></g><!--link handle_phase_command to edit_phase--><g class="link" data-entity-1="handle_phase_command" data-entity-2="edit_phase" data-source-line="50" data-uid="lnk40" id="link_handle_phase_command_edit_phase"><path d="M1827.09,355.5379 C1986.99,376.7179 2288.912,416.6998 2448.922,437.8998" fill="none" id="handle_phase_command-to-edit_phase" style="stroke:#333333;stroke-width:1;"/><polygon fill="#333333" points="2454.87,438.6879,2446.4733,433.5404,2449.9133,438.0311,2445.4226,441.4711,2454.87,438.6879" style="stroke:#333333;stroke-width:1;"/></g><!--link handle_phase_command to set_phase_status--><g class="link" data-entity-1="handle_phase_command" data-entity-2="set_phase_status" data-source-line="51" data-uid="lnk41" id="link_handle_phase_command_set_phase_status"><path d="M1808.34,367.5779 C1866.23,385.3479 1937.3541,407.1872 1995.2141,424.9472" fill="none" id="handle_phase_command-to-set_phase_status" style="stroke:#333333;stroke-width:1;"/><polygon fill="#333333" points="2000.95,426.7079,1993.5199,420.243,1996.1701,425.2407,1991.1724,427.8908,2000.95,426.7079" style="stroke:#333333;stroke-width:1;"/></g><!--link handle_phase_command to set_phase_context--><g class="link" data-entity-1="handle_phase_command" data-entity-2="set_phase_context" data-source-line="52" data-uid="lnk42" id="link_handle_phase_command_set_phase_context"><path d="M1622.96,364.2879 C1617.26,365.3079 1611.6,366.2579 1606.07,367.1179 C1603.82,367.4679 1101.4192,418.6105 879.1092,441.2305" fill="none" id="handle_phase_command-to-set_phase_context" style="stroke:#333333;stroke-width:1;"/><polygon fill="#333333" points="873.14,441.8379,882.4987,444.9063,878.1143,441.3317,881.6889,436.9474,873.14,441.8379" style="stroke:#333333;stroke-width:1;"/></g><!--link handle_phase_command to handle_phase_discuss--><g class="link" data-entity-1="handle_phase_command" data-entity-2="handle_phase_discuss" data-source-line="53" data-uid="lnk43" id="link_handle_phase_command_handle_phase_discuss"><path d="M1827.19,347.4479 C2001.81,357.5579 2368.71,382.4079 2676.07,427.1179 C2681.83,427.9579 2681.8133,427.9018 2687.7533,428.9018" fill="none" id="handle_phase_command-to-handle_phase_discuss" style="stroke:#333333;stroke-width:1;"/><polygon fill="#333333" points="2693.67,429.8979,2685.4589,424.4592,2688.7394,429.0678,2684.1308,432.3482,2693.67,429.8979" style="stroke:#333333;stroke-width:1;"/></g><!--link list_phases to get_all_tracks--><g class="link" data-entity-1="list_phases" data-entity-2="get_all_tracks" data-source-line="54" data-uid="lnk44" id="link_list_phases_get_all_tracks"><path d="M450.38,479.7779 C387.39,500.7779 304.3223,528.461 241.3623,549.441" fill="none" id="list_phases-to-get_all_tracks" style="stroke:#333333;stroke-width:1;"/><polygon fill="#333333" points="235.67,551.3379,245.473,552.2875,240.4136,549.7572,242.9439,544.6978,235.67,551.3379" style="stroke:#333333;stroke-width:1;"/></g><!--link list_phases to get_settings--><g class="link" data-entity-1="list_phases" data-entity-2="get_settings" data-source-line="55" data-uid="lnk45" id="link_list_phases_get_settings"><path d="M527.07,479.6379 C527.07,500.6779 527.07,524.4479 527.07,545.4879" fill="none" id="list_phases-to-get_settings" style="stroke:#333333;stroke-width:1;"/><polygon fill="#333333" points="527.07,551.4879,531.07,542.4879,527.07,546.4879,523.07,542.4879,527.07,551.4879" style="stroke:#333333;stroke-width:1;"/></g><!--link show_phase to file_system--><g class="link" data-entity-1="show_phase" data-entity-2="file_system" data-source-line="56" data-uid="lnk46" id="link_show_phase_file_system"><path d="M1156.76,479.6379 C1170.02,496.7579 1184.0768,514.8937 1198.9968,534.1637" fill="none" id="show_phase-to-file_system" style="stroke:#333333;stroke-width:1;"/><polygon fill="#333333" points="1202.67,538.9079,1200.3229,529.3427,1199.609,534.9544,1193.9974,534.2404,1202.67,538.9079" style="stroke:#333333;stroke-width:1;"/></g><!--link show_phase to parse_phase_md--><g class="link" data-entity-1="show_phase" data-entity-2="parse_phase_md" data-source-line="57" data-uid="lnk47" id="link_show_phase_parse_phase_md"><path d="M1060.79,479.7779 C998.15,500.7779 915.5591,528.4515 852.9491,549.4315" fill="none" id="show_phase-to-parse_phase_md" style="stroke:#333333;stroke-width:1;"/><polygon fill="#333333" points="847.26,551.3379,857.0645,552.271,852.0009,549.7492,854.5227,544.6856,847.26,551.3379" style="stroke:#333333;stroke-width:1;"/></g><!--link show_phase to parse_todo_md--><g class="link" data-entity-1="show_phase" data-entity-2="parse_todo_md" data-source-line="58" data-uid="lnk48" id="link_show_phase_parse_todo_md"><path d="M1117.39,479.6379 C1101.09,500.6779 1081.7046,525.7047 1065.4046,546.7447" fill="none" id="show_phase-to-parse_todo_md" style="stroke:#333333;stroke-width:1;"/><polygon fill="#333333" points="1061.73,551.4879,1070.404,546.8229,1064.7922,547.5352,1064.0798,541.9234,1061.73,551.4879" style="stroke:#333333;stroke-width:1;"/></g><!--link add_phase to get_settings--><g class="link" data-entity-1="add_phase" data-entity-2="get_settings" data-source-line="59" data-uid="lnk49" id="link_add_phase_get_settings"><path d="M1742.8,476.6879 C1736.82,477.6679 1730.88,478.5579 1725.07,479.3179 C1244.03,542.4979 1111.08,445.4079 635.07,539.3179 C620.56,542.1779 611.0405,544.6557 596.7705,549.4257" fill="none" id="add_phase-to-get_settings" style="stroke:#333333;stroke-width:1;"/><polygon fill="#333333" points="591.08,551.3279,600.8839,552.2683,595.8221,549.7427,598.3477,544.681,591.08,551.3279" style="stroke:#333333;stroke-width:1;"/></g><!--link add_phase to json_store--><g class="link" data-entity-1="add_phase" data-entity-2="json_store" data-source-line="60" data-uid="lnk50" id="link_add_phase_json_store"><path d="M1889.47,479.7779 C1927.75,501.8279 1977.29,530.3545 2013.91,551.4345" fill="none" id="add_phase-to-json_store" style="stroke:#333333;stroke-width:1;"/><polygon fill="#333333" points="2019.11,554.4279,2013.3056,546.4712,2014.7767,551.9334,2009.3145,553.4045,2019.11,554.4279" style="stroke:#333333;stroke-width:1;"/></g><!--link add_phase to load_track--><g class="link" data-entity-1="add_phase" data-entity-2="load_track" data-source-line="61" data-uid="lnk51" id="link_add_phase_load_track"><path d="M1801.72,479.7779 C1766.12,500.7779 1721.1184,527.3103 1685.5384,548.2903" fill="none" id="add_phase-to-load_track" style="stroke:#333333;stroke-width:1;"/><polygon fill="#333333" points="1680.37,551.3379,1690.1543,550.2121,1684.677,548.7982,1686.0909,543.3209,1680.37,551.3379" style="stroke:#333333;stroke-width:1;"/></g><!--link add_phase to load_phase--><g class="link" data-entity-1="add_phase" data-entity-2="load_phase" data-source-line="62" data-uid="lnk52" id="link_add_phase_load_phase"><path d="M1850.46,479.6379 C1854.92,500.6779 1859.9858,524.5783 1864.4458,545.6183" fill="none" id="add_phase-to-load_phase" style="stroke:#333333;stroke-width:1;"/><polygon fill="#333333" points="1865.69,551.4879,1867.7367,541.854,1864.6532,546.5965,1859.9106,543.513,1865.69,551.4879" style="stroke:#333333;stroke-width:1;"/></g><!--link add_phase to save_phase--><g class="link" data-entity-1="add_phase" data-entity-2="save_phase" data-source-line="63" data-uid="lnk53" id="link_add_phase_save_phase"><path d="M1931.59,479.7879 C1987.68,496.4679 2062.3,518.8779 2128.07,539.3179 C2140.4,543.1479 2147.7128,545.4475 2160.4328,549.4975" fill="none" id="add_phase-to-save_phase" style="stroke:#333333;stroke-width:1;"/><polygon fill="#333333" points="2166.15,551.3179,2158.7878,544.7759,2161.3857,549.8009,2156.3606,552.3988,2166.15,551.3179" style="stroke:#333333;stroke-width:1;"/></g><!--link add_phase to save_track--><g class="link" data-entity-1="add_phase" data-entity-2="save_track" data-source-line="64" data-uid="lnk54" id="link_add_phase_save_track"><path d="M1742.95,479.4479 C1678.73,495.6779 1594.27,517.7179 1520.07,539.3179 C1507.27,543.0479 1499.4723,545.3836 1486.3423,549.5236" fill="none" id="add_phase-to-save_track" style="stroke:#333333;stroke-width:1;"/><polygon fill="#333333" points="1480.62,551.3279,1490.4063,552.4363,1485.3886,549.8243,1488.0006,544.8066,1480.62,551.3279" style="stroke:#333333;stroke-width:1;"/></g><!--link remove_phase to json_store--><g class="link" data-entity-1="remove_phase" data-entity-2="json_store" data-source-line="65" data-uid="lnk55" id="link_remove_phase_json_store"><path d="M1708.15,476.2379 C1816.74,499.7779 1974.8,534.3879 1988.07,539.3179 C1999.06,543.3979 2005.1813,546.0842 2015.5213,551.6242" fill="none" id="remove_phase-to-json_store" style="stroke:#333333;stroke-width:1;"/><polygon fill="#333333" points="2020.81,554.4579,2014.766,546.6816,2016.4027,552.0965,2010.9878,553.7333,2020.81,554.4579" style="stroke:#333333;stroke-width:1;"/></g><!--link remove_phase to load_phase--><g class="link" data-entity-1="remove_phase" data-entity-2="load_phase" data-source-line="66" data-uid="lnk56" id="link_remove_phase_load_phase"><path d="M1661.3,479.7779 C1706.66,500.7779 1765.1349,527.8377 1810.4649,548.8177" fill="none" id="remove_phase-to-load_phase" style="stroke:#333333;stroke-width:1;"/><polygon fill="#333333" points="1815.91,551.3379,1809.4225,543.9276,1811.3724,549.2377,1806.0623,551.1877,1815.91,551.3379" style="stroke:#333333;stroke-width:1;"/></g><!--link remove_phase to load_track--><g class="link" data-entity-1="remove_phase" data-entity-2="load_track" data-source-line="67" data-uid="lnk57" id="link_remove_phase_load_track"><path d="M1612.5,479.6379 C1617.82,500.6779 1623.8692,524.6309 1629.1892,545.6709" fill="none" id="remove_phase-to-load_track" style="stroke:#333333;stroke-width:1;"/><polygon fill="#333333" points="1630.66,551.4879,1632.3317,541.7819,1629.4343,546.6404,1624.5758,543.743,1630.66,551.4879" style="stroke:#333333;stroke-width:1;"/></g><!--link remove_phase to save_track--><g class="link" data-entity-1="remove_phase" data-entity-2="save_track" data-source-line="68" data-uid="lnk58" id="link_remove_phase_save_track"><path d="M1564.01,479.6379 C1529.29,500.6079 1485.3756,527.1453 1450.5656,548.1753" fill="none" id="remove_phase-to-save_track" style="stroke:#333333;stroke-width:1;"/><polygon fill="#333333" points="1445.43,551.2779,1455.2017,550.0477,1449.7096,548.6924,1451.065,543.2003,1445.43,551.2779" style="stroke:#333333;stroke-width:1;"/></g><!--link remove_phase to file_system--><g class="link" data-entity-1="remove_phase" data-entity-2="file_system" data-source-line="69" data-uid="lnk59" id="link_remove_phase_file_system"><path d="M1503.85,471.9479 C1439.43,485.3879 1355.58,507.1279 1286.07,539.3179 C1280.38,541.9579 1279.7086,542.0029 1274.2086,545.4629" fill="none" id="remove_phase-to-file_system" style="stroke:#333333;stroke-width:1;"/><polygon fill="#333333" points="1269.13,548.6579,1278.8779,547.2512,1273.3622,545.9954,1274.618,540.4797,1269.13,548.6579" style="stroke:#333333;stroke-width:1;"/></g><!--link edit_phase to file_system--><g class="link" data-entity-1="edit_phase" data-entity-2="file_system" data-source-line="70" data-uid="lnk60" id="link_edit_phase_file_system"><path d="M2454.84,461.6179 C2384.14,466.6979 2287.9,473.5379 2203.07,479.3179 C1999.33,493.2079 1478.84,471.8979 1286.07,539.3179 C1280.25,541.3579 1279.6589,541.1512 1274.1789,544.3812" fill="none" id="edit_phase-to-file_system" style="stroke:#333333;stroke-width:1;"/><polygon fill="#333333" points="1269.01,547.4279,1278.7945,546.3038,1273.3174,544.889,1274.7323,539.4119,1269.01,547.4279" style="stroke:#333333;stroke-width:1;"/></g><!--link edit_phase to extract_phase_block--><g class="link" data-entity-1="edit_phase" data-entity-2="extract_phase_block" data-source-line="71" data-uid="lnk61" id="link_edit_phase_extract_phase_block"><path d="M2600.42,479.7779 C2636.02,500.7779 2681.0316,527.3103 2716.6116,548.2903" fill="none" id="edit_phase-to-extract_phase_block" style="stroke:#333333;stroke-width:1;"/><polygon fill="#333333" points="2721.78,551.3379,2716.0591,543.3209,2717.473,548.7982,2711.9957,550.2121,2721.78,551.3379" style="stroke:#333333;stroke-width:1;"/></g><!--link edit_phase to replace_phase_block--><g class="link" data-entity-1="edit_phase" data-entity-2="replace_phase_block" data-source-line="72" data-uid="lnk62" id="link_edit_phase_replace_phase_block"><path d="M2659.12,478.8179 C2726.99,495.3979 2818.02,518.0379 2898.07,539.3179 C2912.33,543.1079 2921.6409,545.6349 2936.3309,549.7349" fill="none" id="edit_phase-to-replace_phase_block" style="stroke:#333333;stroke-width:1;"/><polygon fill="#333333" points="2942.11,551.3479,2934.5166,545.0757,2937.2941,550.0037,2932.366,552.7812,2942.11,551.3479" style="stroke:#333333;stroke-width:1;"/></g><!--link edit_phase to editor--><g class="link" data-entity-1="edit_phase" data-entity-2="editor" data-source-line="73" data-uid="lnk63" id="link_edit_phase_editor"><path d="M2659.21,476.3479 C2664.9,477.3979 2670.55,478.3979 2676.07,479.3179 C2891.62,515.2379 2955.99,472.5879 3164.07,539.3179 C3169.66,541.1079 3169.8394,540.8936 3175.3894,543.3936" fill="none" id="edit_phase-to-editor" style="stroke:#333333;stroke-width:1;"/><polygon fill="#333333" points="3180.86,545.8579,3174.2969,538.5144,3176.3012,543.8043,3171.0113,545.8086,3180.86,545.8579" style="stroke:#333333;stroke-width:1;"/></g><!--link set_phase_status to normalize_status--><g class="link" data-entity-1="set_phase_status" data-entity-2="normalize_status" data-source-line="74" data-uid="lnk64" id="link_set_phase_status_normalize_status"><path d="M2170.15,479.7779 C2240.83,500.7779 2334.6982,528.6501 2405.3582,549.6301" fill="none" id="set_phase_status-to-normalize_status" style="stroke:#333333;stroke-width:1;"/><polygon fill="#333333" points="2411.11,551.3379,2403.6208,544.9416,2406.3168,549.9147,2401.3437,552.6107,2411.11,551.3379" style="stroke:#333333;stroke-width:1;"/></g><!--link set_phase_status to json_store--><g class="link" data-entity-1="set_phase_status" data-entity-2="json_store" data-source-line="75" data-uid="lnk65" id="link_set_phase_status_json_store"><path d="M2078.69,479.6379 C2074.02,501.6679 2068.5645,527.3783 2064.0845,548.5083" fill="none" id="set_phase_status-to-json_store" style="stroke:#333333;stroke-width:1;"/><polygon fill="#333333" points="2062.84,554.3779,2068.6197,546.4032,2063.8771,549.4866,2060.7937,544.7439,2062.84,554.3779" style="stroke:#333333;stroke-width:1;"/></g><!--link set_phase_status to load_phase--><g class="link" data-entity-1="set_phase_status" data-entity-2="load_phase" data-source-line="76" data-uid="lnk66" id="link_set_phase_status_load_phase"><path d="M2039.68,479.7779 C2003.23,500.7779 1957.0498,527.3641 1920.6098,548.3441" fill="none" id="set_phase_status-to-load_phase" style="stroke:#333333;stroke-width:1;"/><polygon fill="#333333" points="1915.41,551.3379,1925.2055,550.3138,1919.7431,548.8431,1921.2138,543.3808,1915.41,551.3379" style="stroke:#333333;stroke-width:1;"/></g><!--link set_phase_status to save_phase--><g class="link" data-entity-1="set_phase_status" data-entity-2="save_phase" data-source-line="77" data-uid="lnk67" id="link_set_phase_status_save_phase"><path d="M2117.43,479.6379 C2144.97,500.6079 2179.1075,526.6114 2206.7075,547.6414" fill="none" id="set_phase_status-to-save_phase" style="stroke:#333333;stroke-width:1;"/><polygon fill="#333333" points="2211.48,551.2779,2206.7456,542.6416,2207.5029,548.2475,2201.897,549.0049,2211.48,551.2779" style="stroke:#333333;stroke-width:1;"/></g><!--link set_phase_context to parse_todo_md--><g class="link" data-entity-1="set_phase_context" data-entity-2="parse_todo_md" data-source-line="78" data-uid="lnk68" id="link_set_phase_context_parse_todo_md"><path d="M827.55,479.7779 C873.94,500.7779 933.8335,527.8845 980.2035,548.8645" fill="none" id="set_phase_context-to-parse_todo_md" style="stroke:#333333;stroke-width:1;"/><polygon fill="#333333" points="985.67,551.3379,979.1191,543.9835,981.1146,549.2768,975.8214,551.2722,985.67,551.3379" style="stroke:#333333;stroke-width:1;"/></g><!--link set_phase_context to parse_phase_md--><g class="link" data-entity-1="set_phase_context" data-entity-2="parse_phase_md" data-source-line="79" data-uid="lnk69" id="link_set_phase_context_parse_phase_md"><path d="M771.07,479.6379 C771.07,500.6779 771.07,524.4479 771.07,545.4879" fill="none" id="set_phase_context-to-parse_phase_md" style="stroke:#333333;stroke-width:1;"/><polygon fill="#333333" points="771.07,551.4879,775.07,542.4879,771.07,546.4879,767.07,542.4879,771.07,551.4879" style="stroke:#333333;stroke-width:1;"/></g><!--link set_phase_context to get_settings--><g class="link" data-entity-1="set_phase_context" data-entity-2="get_settings" data-source-line="80" data-uid="lnk70" id="link_set_phase_context_get_settings"><path d="M720.22,479.7779 C678.46,500.7779 624.9609,527.6633 583.2209,548.6433" fill="none" id="set_phase_context-to-get_settings" style="stroke:#333333;stroke-width:1;"/><polygon fill="#333333" points="577.86,551.3379,587.6977,550.8699,582.3274,549.0924,584.105,543.7221,577.86,551.3379" style="stroke:#333333;stroke-width:1;"/></g><!--link set_phase_context to settings_json--><g class="link" data-entity-1="set_phase_context" data-entity-2="settings_json" data-source-line="81" data-uid="lnk71" id="link_set_phase_context_settings_json"><path d="M669.16,475.6079 C581.87,494.5179 463.32,521.7379 418.07,539.3179 C407.14,543.5679 401.0278,546.3592 390.7978,552.0292" fill="none" id="set_phase_context-to-settings_json" style="stroke:#333333;stroke-width:1;"/><polygon fill="#333333" points="385.55,554.9379,395.3609,554.0735,389.9232,552.514,391.4827,547.0763,385.55,554.9379" style="stroke:#333333;stroke-width:1;"/></g><!--SRC=[bLVRRkCs47tNLx3P0jqD40lD0ddO0WMojj9DaTWB9trA5m8ZqZORIJH8ojxqK_hKR-kNTAWhAOriHp2GY7FcSCJXt7um6vvniasfo0Fz8l8jLJGZppHvMIjPv6mgKwd8kvloSH2ChsYHcXkPcpa5XcibQEh8hvMI-rhvO_aumhaq_BDKZAiQCIsVFW8p0b214IRbP7e_kzXkgERaWbH_6UTR8dB3LKvJiahbdhoNpvgh7MSVoFkxnUpo4vbAnicC6ohI3q5GQ9vOrJEQ9nkfpWZLPBvuZEBh-VJBOXbi1A3TXHmC8qgiDuR8bISXvFpyGHOguP_EpydJ4vE93lTIlLX3TBYx38KAauo5hU6J16oPlD8i9My1V_iMy9mHQqaGA9uOcg_XFCuoy67CSwDU_ympohLHChHha-rh-LsTdBoBhcu-WZyTxGtDMShZSgyuaLa6xnrFlQ33ofQQ4TF1k5EXJONInoWTACQaDt9VYOyHTKYCXp9s6aqBn5WKp-IEdqRaOZ4kpeGvZQb3eYV4Qs6i3JN5qGFlumzp9X3l_BivdRHME7hZcD19eJ5hQmbwvsePnhu64sYQnaP16d5u6JMq99TvN1YHjiI-0aO9gGdsD9B9E6Czneog5oRtULo2L4FggOnpLb_pDj961xrCt-rND3vuJcNoCaQzLy9qr8WYVl6XOYJyxVo8OiiFJjdA718KEVjBWtUqaOgNMjshbrKa7GHnvRomKsZpIWj6BpWTXl4eLGT6SvtTgDGzrQfIEchLgLGTU2mQ82YDoDTUZEKhiGuRWHi9pHf6bakLqLJyVI35L08_mFfgBRMzCCzb5RPbi8cMKiTTi0r0T1LTzV4CBes7hnV6y5LryJJQ9KId_hOwByJsvEjoEbX7j9jpxFIybLO3WWvQdBC_8Cn_qkJ7Q7Rxk5YswLwg1d0Zm0CFhzhmh9Iku3tMvNlW5FYBYr_HwXoW9TkYdS8x3kgAwZYchPZZ4BSMZgEwEdV0e5xrEWLPbwHnA5PY0hSniI2_NA3YnjE1qujOcUkpdiXFxRYq3eUWQqq66_eY9ttwWYxzO8Bgw7r1b_imGKNbTJgz_GSoPoTSDi9vQ3_tV9rcwOW8ANrz25Az1YnLj0wwAYlh9q0SvPmMAdTE39KxBXgsOSDRT0ZJtKCKvDzn5E8bkw2QdbA-GeUdQ0V3LbwEJ_OTHgZTps4ppeLskBCJKHEMy3hP5Z0w8Mim8LK4lR5gj6abpJ_7D4VQCZ9SUXjJsoMHuT8n9gmb8DwRDp6EJh1jBRBE-E-VVyaTPskko1VmWMwSigZdQJ83- -zhMycMAmq9q7eF1l3E9TL8RitzXUmkRVn8ObHXDgImYVBtXuLFEgc_YJ1X-mq9bQpGT7s0LCYK6g2wMIm_tyxYPVHr4SzyqkP4o-3tJ5r1HNLiEhm9aCBlwMao2U5tU__rBhgFve_NZxUBUNmNpNwBbXDe8511wS96rUweZ0xJydZZ16wYOFOZh7fzvjDsqVNT_m00]--></g></svg>