<svg xmlns="http://www.w3.org/2000/svg" xmlns:xlink="http://www.w3.org/1999/xlink" contentStyleType="text/css" data-diagram-type="DESCRIPTION" height="338px" preserveAspectRatio="none" style="width:2477px;height:338px;background:#FFFFFF;" version="1.1" viewBox="0 0 2477 338" width="2477px" zoomAndPan="magnify"><title>CMD-repo - Combined CLI+Code (LOD1)</title><defs/><g><g class="title" data-source-line="8"><text fill="#000000" font-family="Arial" font-size="22" font-weight="bold" lengthAdjust="spacing" textLength="421.04" x="1023.4986" y="35.6357">CMD-repo - Combined CLI+Code (LOD1)</text></g><!--cluster CLI Layer--><g class="cluster" data-entity="CLI Layer" data-source-line="20" data-uid="ent0007" id="cluster_CLI Layer"><path d="M1261.96,122.4379 L1326.7598,122.4379 A3.75,3.75 0 0 1 1329.2598,124.9379 L1336.2598,144.5365 L1637.96,144.5365 A2.5,2.5 0 0 1 1640.46,147.0365 L1640.46,328.8279 A2.5,2.5 0 0 1 1637.96,331.3279 L1261.96,331.3279 A2.5,2.5 0 0 1 1259.46,328.8279 L1259.46,124.9379 A2.5,2.5 0 0 1 1261.96,122.4379" fill="#E6F3FF" style="stroke:#000000;stroke-width:1;"/><line style="stroke:#000000;stroke-width:1;" x1="1259.46" x2="1336.2598" y1="144.5365" y2="144.5365"/><text fill="#000000" font-family="Arial" font-size="14" font-weight="bold" lengthAdjust="spacing" textLength="63.7998" x="1263.46" y="137.5697">CLI Layer</text></g><!--cluster Code Layer--><g class="cluster" data-entity="Code Layer" data-source-line="27" data-uid="ent0012" id="cluster_Code Layer"><path d="M1666.96,123.0679 L1744.208,123.0679 A3.75,3.75 0 0 1 1746.708,125.5679 L1753.708,145.1665 L2212.96,145.1665 A2.5,2.5 0 0 1 2215.46,147.6665 L2215.46,328.4579 A2.5,2.5 0 0 1 2212.96,330.9579 L1666.96,330.9579 A2.5,2.5 0 0 1 1664.46,328.4579 L1664.46,125.5679 A2.5,2.5 0 0 1 1666.96,123.0679" fill="#FFE6E6" style="stroke:#000000;stroke-width:1;"/><line style="stroke:#000000;stroke-width:1;" x1="1664.46" x2="1753.708" y1="145.1665" y2="145.1665"/><text fill="#000000" font-family="Arial" font-size="14" font-weight="bold" lengthAdjust="spacing" textLength="76.248" x="1668.46" y="138.1997">Code Layer</text></g><!--entity maestro repo--><g class="entity" data-entity="maestro repo" data-source-line="21" data-uid="ent0008" id="entity_maestro repo"><ellipse cx="1355.4649" cy="176.1228" fill="#FFFFFF" rx="60.6249" ry="14.525" style="stroke:#000000;stroke-width:1;"/><text fill="#000000" font-family="Arial" font-size="14" lengthAdjust="spacing" textLength="82.4824" x="1314.2237" y="180.6721">maestro repo</text></g><!--entity maestro repo analyze--><g class="entity" data-entity="maestro repo analyze" data-source-line="22" data-uid="ent0009" id="entity_maestro repo analyze"><ellipse cx="1532.4576" cy="176.1134" fill="#FFFFFF" rx="81.4276" ry="18.6855" style="stroke:#000000;stroke-width:1;"/><text fill="#000000" font-family="Arial" font-size="14" lengthAdjust="spacing" textLength="134.627" x="1465.1441" y="180.6627">maestro repo analyze</text></g><!--entity maestro repo resolve--><g class="entity" data-entity="maestro repo resolve" data-source-line="23" data-uid="ent0010" id="entity_maestro repo resolve"><ellipse cx="1355.4611" cy="296.9061" fill="#FFFFFF" rx="80.0911" ry="18.4182" style="stroke:#000000;stroke-width:1;"/><text fill="#000000" font-family="Arial" font-size="14" lengthAdjust="spacing" textLength="131.5029" x="1289.7097" y="301.4554">maestro repo resolve</text></g><!--entity maestro repo status--><g class="entity" data-entity="maestro repo status" data-source-line="24" data-uid="ent0011" id="entity_maestro repo status"><ellipse cx="1547.4616" cy="296.9082" fill="#FFFFFF" rx="76.8016" ry="17.7603" style="stroke:#000000;stroke-width:1;"/><text fill="#000000" font-family="Arial" font-size="14" lengthAdjust="spacing" textLength="123.7236" x="1485.5998" y="301.4575">maestro repo status</text></g><!--entity handle_repo_command--><g class="entity" data-entity="handle_repo_command" data-source-line="28" data-uid="ent0013" id="entity_handle_repo_command"><rect fill="#FFFFFF" height="36.0986" rx="2.5" ry="2.5" style="stroke:#000000;stroke-width:1;" width="167.1025" x="1680.91" y="158.0679"/><text fill="#000000" font-family="Arial" font-size="14" lengthAdjust="spacing" textLength="147.1025" x="1690.91" y="181.1997">handle_repo_command</text></g><!--entity scan_upp_repo_v2--><g class="entity" data-entity="scan_upp_repo_v2" data-source-line="29" data-uid="ent0014" id="entity_scan_upp_repo_v2"><rect fill="#FFFFFF" height="36.0986" rx="2.5" ry="2.5" style="stroke:#000000;stroke-width:1;" width="139.0957" x="1882.91" y="158.0679"/><text fill="#000000" font-family="Arial" font-size="14" lengthAdjust="spacing" textLength="119.0957" x="1892.91" y="181.1997">scan_upp_repo_v2</text></g><!--entity write_repo_artifacts--><g class="entity" data-entity="write_repo_artifacts" data-source-line="30" data-uid="ent0015" id="entity_write_repo_artifacts"><rect fill="#FFFFFF" height="36.0986" rx="2.5" ry="2.5" style="stroke:#000000;stroke-width:1;" width="142.165" x="2057.38" y="158.0679"/><text fill="#000000" font-family="Arial" font-size="14" lengthAdjust="spacing" textLength="122.165" x="2067.38" y="181.1997">write_repo_artifacts</text></g><!--entity load_repo_index--><g class="entity" data-entity="load_repo_index" data-source-line="31" data-uid="ent0016" id="entity_load_repo_index"><rect fill="#FFFFFF" height="36.0986" rx="2.5" ry="2.5" style="stroke:#000000;stroke-width:1;" width="123.5303" x="1702.69" y="278.8579"/><text fill="#000000" font-family="Arial" font-size="14" lengthAdjust="spacing" textLength="103.5303" x="1712.69" y="301.9897">load_repo_index</text></g><!--entity find_repo_root--><g class="entity" data-entity="find_repo_root" data-source-line="32" data-uid="ent0017" id="entity_find_repo_root"><rect fill="#FFFFFF" height="36.0986" rx="2.5" ry="2.5" style="stroke:#000000;stroke-width:1;" width="110.2891" x="1861.31" y="278.8579"/><text fill="#000000" font-family="Arial" font-size="14" lengthAdjust="spacing" textLength="90.2891" x="1871.31" y="301.9897">find_repo_root</text></g><!--entity NOTE_ANCHOR--><g class="entity" data-entity="N1" data-source-line="17" data-uid="ent0006" id="entity_N1"><path d="M2234.88,163.6479 L2234.88,188.5966 L2470.0372,188.5966 L2470.0372,173.6479 L2460.0372,163.6479 L2234.88,163.6479" fill="#FFFFCC" style="stroke:#CCCCCC;stroke-width:1;"/><path d="M2460.0372,163.6479 L2460.0372,173.6479 L2470.0372,173.6479 L2460.0372,163.6479" fill="#FFFFCC" style="stroke:#CCCCCC;stroke-width:1;"/><text fill="#000000" font-family="Arial" font-size="13" font-weight="bold" lengthAdjust="spacing" textLength="214.1572" x="2240.88" y="180.8417">Combined CLI + Code view (LOD1)</text></g><!--link NOTE_ANCHOR to GMN3--><!--SRC=[ZLH1Rjim4Bph5LldqZg81IU03-t9aQN6W6C5hcz6833YoYPCaG99sNMBVAIdlgqlAKbRWU8gHGXUj3kxdDaTw8FPO8bGSS94eBTCL4IH4fv8lbqhMGiQIIuLN2J-j10K2r9paqXXviHs62j6U2i_LahkJyKt_hIISsdmLYgAweI8_3b7T96mgC0mmn6Y-ycLmah25KIoV682AKIpwMKaASB7MJePVWg2McDED4AFY7mZLG-8XdcwZBFnFBfB5y66MN0x8Ep3eDXwOq0Mhp80_VutMQiSF_Vxi5fHcUjmBzMsu7Almzrro5IObpHiY0ropWO7Kd9uF_JnCK11mR48ZbmSuQ5_lAqIBi7ht37SdyJs-wtIoiwEhArkXvsH0rhf5_4ekKaI-6cxlSob9AYDak1OzDvA01647txWsm25MlBTVm3Q45FhNl3SvkOKDEII91x58qzEOMw8MDiTzpP4K8wPQv7biYpjP-yrGkT4P7LL7J6xwxFqNZ5pgYVAi8BaHfz1k2JqY622ulUpR663nwoIqdW1VYySYqwBn3jhAU5DuhuxZ38CJqeQMQ8Ob1IwWjOEx-zHrTPgtU5_RTLbyMO9NiUVNxzXXdID2kwOCBhHapvfL3lhma6pNyhSkAGwsDMxlJ81rjkUWVrDO0MEynThLSc9GGr9khYTJh95_91cazGsjNUr6Wn2UwVt3xFuFfulnyjfEizcyUHhl73JwKpuyJIbxZrbTCWzwSpQWZBg7dJb9oNHIx0zaRy0]--></g></svg>