<svg xmlns="http://www.w3.org/2000/svg" xmlns:xlink="http://www.w3.org/1999/xlink" contentStyleType="text/css" data-diagram-type="DESCRIPTION" height="618px" preserveAspectRatio="none" style="width:2674px;height:618px;background:#FFFFFF;" version="1.1" viewBox="0 0 2674 618" width="2674px" zoomAndPan="magnify"><title>CMD-repo - repo deep internal flow (observed) (LOD2: Code Detail)</title><defs/><g><g class="title" data-source-line="8"><text fill="#000000" font-family="Arial" font-size="22" font-weight="bold" lengthAdjust="spacing" textLength="697.9414" x="983.9124" y="35.6357">CMD-repo - repo deep internal flow (observed) (LOD2: Code Detail)</text></g><!--entity NOTE_ANCHOR--><!--entity handle_repo_command--><g class="entity" data-entity="handle_repo_command" data-source-line="16" data-uid="ent0006" id="entity_handle_repo_command"><rect fill="#E6F3FF" height="52.1973" rx="2.5" ry="2.5" style="stroke:#000000;stroke-width:1;" width="174.8408" x="1265.95" y="109.2579"/><text fill="#000000" font-family="Arial" font-size="14" lengthAdjust="spacing" textLength="146.2959" x="1275.95" y="132.3897">Main command handler</text><text fill="#000000" font-family="Arial" font-size="14" lengthAdjust="spacing" textLength="154.8408" x="1275.95" y="148.4883">maestro.commands.repo</text></g><!--entity scan_upp_repo_v2--><g class="entity" data-entity="scan_upp_repo_v2" data-source-line="17" data-uid="ent0007" id="entity_scan_upp_repo_v2"><rect fill="#E6F3FF" height="52.1973" rx="2.5" ry="2.5" style="stroke:#000000;stroke-width:1;" width="156.1787" x="582.28" y="238.7279"/><text fill="#000000" font-family="Arial" font-size="14" lengthAdjust="spacing" textLength="120.6133" x="592.28" y="261.8597">Repository scanner</text><text fill="#000000" font-family="Arial" font-size="14" lengthAdjust="spacing" textLength="136.1787" x="592.28" y="277.9583">maestro.repo.scanner</text></g><!--entity write_repo_artifacts--><g class="entity" data-entity="write_repo_artifacts" data-source-line="18" data-uid="ent0008" id="entity_write_repo_artifacts"><rect fill="#E6F3FF" height="52.1973" rx="2.5" ry="2.5" style="stroke:#000000;stroke-width:1;" width="174.8408" x="572.95" y="415.5679"/><text fill="#000000" font-family="Arial" font-size="14" lengthAdjust="spacing" textLength="111.248" x="582.95" y="438.6997">Write scan results</text><text fill="#000000" font-family="Arial" font-size="14" lengthAdjust="spacing" textLength="154.8408" x="582.95" y="454.7983">maestro.commands.repo</text></g><!--entity load_repo_index--><g class="entity" data-entity="load_repo_index" data-source-line="19" data-uid="ent0009" id="entity_load_repo_index"><rect fill="#E6F3FF" height="52.1973" rx="2.5" ry="2.5" style="stroke:#000000;stroke-width:1;" width="174.8408" x="716.95" y="320.9279"/><text fill="#000000" font-family="Arial" font-size="14" lengthAdjust="spacing" textLength="100.4131" x="726.95" y="344.0597">Load repo index</text><text fill="#000000" font-family="Arial" font-size="14" lengthAdjust="spacing" textLength="154.8408" x="726.95" y="360.1583">maestro.commands.repo</text></g><!--entity find_repo_root--><g class="entity" data-entity="find_repo_root" data-source-line="20" data-uid="ent0010" id="entity_find_repo_root"><rect fill="#E6F3FF" height="52.1973" rx="2.5" ry="2.5" style="stroke:#000000;stroke-width:1;" width="174.8408" x="843.95" y="238.7279"/><text fill="#000000" font-family="Arial" font-size="14" lengthAdjust="spacing" textLength="87.1582" x="853.95" y="261.8597">Find repo root</text><text fill="#000000" font-family="Arial" font-size="14" lengthAdjust="spacing" textLength="154.8408" x="853.95" y="277.9583">maestro.commands.repo</text></g><!--entity update_global_repo_index--><g class="entity" data-entity="update_global_repo_index" data-source-line="21" data-uid="ent0011" id="entity_update_global_repo_index"><rect fill="#E6F3FF" height="52.1973" rx="2.5" ry="2.5" style="stroke:#000000;stroke-width:1;" width="153.082" x="2409.83" y="238.7279"/><text fill="#000000" font-family="Arial" font-size="14" lengthAdjust="spacing" textLength="123.7578" x="2419.83" y="261.8597">Update global index</text><text fill="#000000" font-family="Arial" font-size="14" lengthAdjust="spacing" textLength="133.082" x="2419.83" y="277.9583">maestro.global_index</text></g><!--entity build_repo_hierarchy--><g class="entity" data-entity="build_repo_hierarchy" data-source-line="22" data-uid="ent0012" id="entity_build_repo_hierarchy"><rect fill="#E6F3FF" height="52.1973" rx="2.5" ry="2.5" style="stroke:#000000;stroke-width:1;" width="174.8408" x="1053.95" y="238.7279"/><text fill="#000000" font-family="Arial" font-size="14" lengthAdjust="spacing" textLength="92.5996" x="1063.95" y="261.8597">Build hierarchy</text><text fill="#000000" font-family="Arial" font-size="14" lengthAdjust="spacing" textLength="154.8408" x="1063.95" y="277.9583">maestro.commands.repo</text></g><!--entity load_hierarchy--><g class="entity" data-entity="load_hierarchy" data-source-line="23" data-uid="ent0013" id="entity_load_hierarchy"><rect fill="#E6F3FF" height="52.1973" rx="2.5" ry="2.5" style="stroke:#000000;stroke-width:1;" width="174.8408" x="1036.95" y="415.5679"/><text fill="#000000" font-family="Arial" font-size="14" lengthAdjust="spacing" textLength="92.6133" x="1046.95" y="438.6997">Load hierarchy</text><text fill="#000000" font-family="Arial" font-size="14" lengthAdjust="spacing" textLength="154.8408" x="1046.95" y="454.7983">maestro.commands.repo</text></g><!--entity load_hierarchy_overrides--><g class="entity" data-entity="load_hierarchy_overrides" data-source-line="24" data-uid="ent0014" id="entity_load_hierarchy_overrides"><rect fill="#E6F3FF" height="52.1973" rx="2.5" ry="2.5" style="stroke:#000000;stroke-width:1;" width="174.8408" x="1193.95" y="320.9279"/><text fill="#000000" font-family="Arial" font-size="14" lengthAdjust="spacing" textLength="154.082" x="1203.95" y="344.0597">Load hierarchy overrides</text><text fill="#000000" font-family="Arial" font-size="14" lengthAdjust="spacing" textLength="154.8408" x="1203.95" y="360.1583">maestro.commands.repo</text></g><!--entity merge_hierarchy_overrides--><g class="entity" data-entity="merge_hierarchy_overrides" data-source-line="25" data-uid="ent0015" id="entity_merge_hierarchy_overrides"><rect fill="#E6F3FF" height="52.1973" rx="2.5" ry="2.5" style="stroke:#000000;stroke-width:1;" width="182.6201" x="1334.06" y="238.7279"/><text fill="#000000" font-family="Arial" font-size="14" lengthAdjust="spacing" textLength="162.6201" x="1344.06" y="261.8597">Merge hierarchy overrides</text><text fill="#000000" font-family="Arial" font-size="14" lengthAdjust="spacing" textLength="154.8408" x="1344.06" y="277.9583">maestro.commands.repo</text></g><!--entity handle_repo_pkg--><g class="entity" data-entity="handle_repo_pkg" data-source-line="26" data-uid="ent0016" id="entity_handle_repo_pkg"><rect fill="#E6F3FF" height="52.1973" rx="2.5" ry="2.5" style="stroke:#000000;stroke-width:1;" width="174.8408" x="1551.95" y="238.7279"/><text fill="#000000" font-family="Arial" font-size="14" lengthAdjust="spacing" textLength="149.4131" x="1561.95" y="261.8597">Package subcommands</text><text fill="#000000" font-family="Arial" font-size="14" lengthAdjust="spacing" textLength="154.8408" x="1561.95" y="277.9583">maestro.commands.repo</text></g><!--entity handle_repo_hier--><g class="entity" data-entity="handle_repo_hier" data-source-line="27" data-uid="ent0017" id="entity_handle_repo_hier"><rect fill="#E6F3FF" height="52.1973" rx="2.5" ry="2.5" style="stroke:#000000;stroke-width:1;" width="174.8408" x="1761.95" y="238.7279"/><text fill="#000000" font-family="Arial" font-size="14" lengthAdjust="spacing" textLength="154.834" x="1771.95" y="261.8597">Hierarchy subcommands</text><text fill="#000000" font-family="Arial" font-size="14" lengthAdjust="spacing" textLength="154.8408" x="1771.95" y="277.9583">maestro.commands.repo</text></g><!--entity handle_repo_rules--><g class="entity" data-entity="handle_repo_rules" data-source-line="28" data-uid="ent0018" id="entity_handle_repo_rules"><rect fill="#E6F3FF" height="52.1973" rx="2.5" ry="2.5" style="stroke:#000000;stroke-width:1;" width="174.8408" x="1971.95" y="238.7279"/><text fill="#000000" font-family="Arial" font-size="14" lengthAdjust="spacing" textLength="130.7236" x="1981.95" y="261.8597">Rules subcommands</text><text fill="#000000" font-family="Arial" font-size="14" lengthAdjust="spacing" textLength="154.8408" x="1981.95" y="277.9583">maestro.commands.repo</text></g><!--entity handle_repo_conventions--><g class="entity" data-entity="handle_repo_conventions" data-source-line="29" data-uid="ent0019" id="entity_handle_repo_conventions"><rect fill="#E6F3FF" height="52.1973" rx="2.5" ry="2.5" style="stroke:#000000;stroke-width:1;" width="192.7578" x="2181.99" y="238.7279"/><text fill="#000000" font-family="Arial" font-size="14" lengthAdjust="spacing" textLength="172.7578" x="2191.99" y="261.8597">Conventions subcommands</text><text fill="#000000" font-family="Arial" font-size="14" lengthAdjust="spacing" textLength="154.8408" x="2191.99" y="277.9583">maestro.commands.repo</text></g><!--entity maestro_repo_store--><g class="entity" data-entity="maestro_repo_store" data-source-line="30" data-uid="ent0020" id="entity_maestro_repo_store"><path d="M744.74,566.2179 C744.74,556.2179 817.3777,556.2179 817.3777,556.2179 C817.3777,556.2179 890.0154,556.2179 890.0154,566.2179 L890.0154,591.3165 C890.0154,601.3165 817.3777,601.3165 817.3777,601.3165 C817.3777,601.3165 744.74,601.3165 744.74,591.3165 L744.74,566.2179" fill="#FFE6E6" style="stroke:#000000;stroke-width:1;"/><path d="M744.74,566.2179 C744.74,576.2179 817.3777,576.2179 817.3777,576.2179 C817.3777,576.2179 890.0154,576.2179 890.0154,566.2179" fill="none" style="stroke:#000000;stroke-width:1;"/><text fill="#000000" font-family="Arial" font-size="14" lengthAdjust="spacing" textLength="125.2754" x="754.74" y="593.3497">.maestro/repo/ store</text></g><!--entity repo_rules_store--><g class="entity" data-entity="repo_rules_store" data-source-line="31" data-uid="ent0021" id="entity_repo_rules_store"><path d="M1998.02,429.1179 C1998.02,419.1179 2059.3784,419.1179 2059.3784,419.1179 C2059.3784,419.1179 2120.7368,419.1179 2120.7368,429.1179 L2120.7368,454.2165 C2120.7368,464.2165 2059.3784,464.2165 2059.3784,464.2165 C2059.3784,464.2165 1998.02,464.2165 1998.02,454.2165 L1998.02,429.1179" fill="#FFE6E6" style="stroke:#000000;stroke-width:1;"/><path d="M1998.02,429.1179 C1998.02,439.1179 2059.3784,439.1179 2059.3784,439.1179 C2059.3784,439.1179 2120.7368,439.1179 2120.7368,429.1179" fill="none" style="stroke:#000000;stroke-width:1;"/><text fill="#000000" font-family="Arial" font-size="14" lengthAdjust="spacing" textLength="102.7168" x="2008.02" y="456.2497">Repo rules store</text></g><!--entity global_index_store--><g class="entity" data-entity="global_index_store" data-source-line="32" data-uid="ent0022" id="entity_global_index_store"><path d="M2419.95,429.1179 C2419.95,419.1179 2486.3704,419.1179 2486.3704,419.1179 C2486.3704,419.1179 2552.7908,419.1179 2552.7908,429.1179 L2552.7908,454.2165 C2552.7908,464.2165 2486.3704,464.2165 2486.3704,464.2165 C2486.3704,464.2165 2419.95,464.2165 2419.95,454.2165 L2419.95,429.1179" fill="#FFE6E6" style="stroke:#000000;stroke-width:1;"/><path d="M2419.95,429.1179 C2419.95,439.1179 2486.3704,439.1179 2486.3704,439.1179 C2486.3704,439.1179 2552.7908,439.1179 2552.7908,429.1179" fill="none" style="stroke:#000000;stroke-width:1;"/><text fill="#000000" font-family="Arial" font-size="14" lengthAdjust="spacing" textLength="112.8408" x="2429.95" y="456.2497">Global index store</text></g><!--entity filesystem--><g class="entity" data-entity="filesystem" data-source-line="33" data-uid="ent0023" id="entity_filesystem"><ellipse cx="2632.3731" cy="105.8079" fill="#FFFFFF" rx="8" ry="8" style="stroke:#000000;stroke-width:1;"/><path d="M2632.3731,113.8079 L2632.3731,140.8079 M2619.3731,121.8079 L2645.3731,121.8079 M2632.3731,140.8079 L2619.3731,155.8079 M2632.3731,140.8079 L2645.3731,155.8079" fill="none" style="stroke:#000000;stroke-width:1;"/><text fill="#000000" font-family="Arial" font-size="14" lengthAdjust="spacing" textLength="70.7861" x="2596.98" y="170.9397">File system</text></g><!--entity editor--><g class="entity" data-entity="editor" data-source-line="34" data-uid="ent0024" id="entity_editor"><ellipse cx="1849.3743" cy="412.1179" fill="#FFFFFF" rx="8" ry="8" style="stroke:#000000;stroke-width:1;"/><path d="M1849.3743,420.1179 L1849.3743,447.1179 M1836.3743,428.1179 L1862.3743,428.1179 M1849.3743,447.1179 L1836.3743,462.1179 M1849.3743,447.1179 L1862.3743,462.1179" fill="none" style="stroke:#000000;stroke-width:1;"/><text fill="#000000" font-family="Arial" font-size="14" lengthAdjust="spacing" textLength="90.2686" x="1804.24" y="477.2497">External editor</text></g><!--entity handle_repo_refresh_all--><g class="entity" data-entity="handle_repo_refresh_all" data-source-line="41" data-uid="ent0031" id="entity_handle_repo_refresh_all"><ellipse cx="2486.3695" cy="105.8079" fill="#FFFFFF" rx="8" ry="8" style="stroke:#000000;stroke-width:1;"/><path d="M2486.3695,113.8079 L2486.3695,140.8079 M2473.3695,121.8079 L2499.3695,121.8079 M2486.3695,140.8079 L2473.3695,155.8079 M2486.3695,140.8079 L2499.3695,155.8079" fill="none" style="stroke:#000000;stroke-width:1;"/><text fill="#000000" font-family="Arial" font-size="14" lengthAdjust="spacing" textLength="150.999" x="2410.87" y="170.9397">handle_repo_refresh_all</text></g><!--link NOTE_ANCHOR to GMN3--><!--link handle_repo_command to find_repo_root--><g class="link" data-entity-1="handle_repo_command" data-entity-2="find_repo_root" data-source-line="35" data-uid="lnk25" id="link_handle_repo_command_find_repo_root"><path d="M1291.88,161.8879 C1277.7,167.4179 1262.6,173.0079 1248.37,177.7279 C1171.92,203.0879 1089.1401,225.2094 1025.0901,241.2594" fill="none" id="handle_repo_command-to-find_repo_root" style="stroke:#333333;stroke-width:1;"/><polygon fill="#333333" points="1019.27,242.7179,1028.9724,244.4103,1024.12,241.5025,1027.0278,236.6502,1019.27,242.7179" style="stroke:#333333;stroke-width:1;"/></g><!--link handle_repo_command to scan_upp_repo_v2--><g class="link" data-entity-1="handle_repo_command" data-entity-2="scan_upp_repo_v2" data-source-line="36" data-uid="lnk26" id="link_handle_repo_command_scan_upp_repo_v2"><path d="M1297.99,161.9079 C1282.27,168.1379 1264.92,174.0479 1248.37,177.7279 C1038.42,224.3879 972.29,149.0379 765.37,207.7279 C741.91,214.3779 722.9204,223.74 703.7104,235.22" fill="none" id="handle_repo_command-to-scan_upp_repo_v2" style="stroke:#333333;stroke-width:1;"/><polygon fill="#333333" points="698.56,238.2979,708.3375,237.1146,702.852,235.7329,704.2337,230.2474,698.56,238.2979" style="stroke:#333333;stroke-width:1;"/></g><!--link scan_upp_repo_v2 to write_repo_artifacts--><g class="link" data-entity-1="scan_upp_repo_v2" data-entity-2="write_repo_artifacts" data-source-line="37" data-uid="lnk27" id="link_scan_upp_repo_v2_write_repo_artifacts"><path d="M660.37,291.2479 C660.37,324.3979 660.37,376.0479 660.37,409.2179" fill="none" id="scan_upp_repo_v2-to-write_repo_artifacts" style="stroke:#333333;stroke-width:1;"/><polygon fill="#333333" points="660.37,415.2179,664.37,406.2179,660.37,410.2179,656.37,406.2179,660.37,415.2179" style="stroke:#333333;stroke-width:1;"/></g><!--link write_repo_artifacts to maestro_repo_store--><g class="link" data-entity-1="write_repo_artifacts" data-entity-2="maestro_repo_store" data-source-line="38" data-uid="lnk28" id="link_write_repo_artifacts_maestro_repo_store"><path d="M689.9,468.0779 C719.31,493.3779 759.4222,527.8941 787.3222,551.9041" fill="none" id="write_repo_artifacts-to-maestro_repo_store" style="stroke:#333333;stroke-width:1;stroke-dasharray:7,7;"/><polygon fill="#333333" points="791.87,555.8179,787.6574,546.9154,788.0801,552.5564,782.4391,552.9791,791.87,555.8179" style="stroke:#333333;stroke-width:1;"/><text fill="#000000" font-family="Arial" font-size="13" lengthAdjust="spacing" textLength="25.3018" x="753.94" y="523.4117">data</text></g><!--link handle_repo_command to load_repo_index--><g class="link" data-entity-1="handle_repo_command" data-entity-2="load_repo_index" data-source-line="39" data-uid="lnk29" id="link_handle_repo_command_load_repo_index"><path d="M1295.59,161.8879 C1280.46,167.8079 1264,173.5779 1248.37,177.7279 C1156.79,202.0379 895.31,173.7179 826.37,238.7279 C804.24,259.5979 800.9799,290.3012 801.7999,314.8812" fill="none" id="handle_repo_command-to-load_repo_index" style="stroke:#333333;stroke-width:1;"/><polygon fill="#333333" points="802,320.8779,805.6977,311.7495,801.8333,315.8806,797.7021,312.0162,802,320.8779" style="stroke:#333333;stroke-width:1;"/></g><!--link load_repo_index to maestro_repo_store--><g class="link" data-entity-1="load_repo_index" data-entity-2="maestro_repo_store" data-source-line="40" data-uid="lnk30" id="link_load_repo_index_maestro_repo_store"><path d="M805.81,373.4879 C808.39,418.9379 813.3803,507.2575 815.8003,549.9375" fill="none" id="load_repo_index-to-maestro_repo_store" style="stroke:#333333;stroke-width:1;stroke-dasharray:7,7;"/><polygon fill="#333333" points="816.14,555.9279,819.6241,546.7158,815.8569,550.9359,811.6369,547.1687,816.14,555.9279" style="stroke:#333333;stroke-width:1;"/><text fill="#000000" font-family="Arial" font-size="13" lengthAdjust="spacing" textLength="25.3018" x="812.71" y="446.8617">data</text></g><!--link handle_repo_refresh_all to update_global_repo_index--><g class="link" data-entity-1="handle_repo_refresh_all" data-entity-2="update_global_repo_index" data-source-line="41" data-uid="lnk32" id="link_handle_repo_refresh_all_update_global_repo_index"><path d="M2486.37,174.2579 C2486.37,194.9479 2486.37,214.0179 2486.37,232.3679" fill="none" id="handle_repo_refresh_all-to-update_global_repo_index" style="stroke:#333333;stroke-width:1;"/><polygon fill="#333333" points="2486.37,238.3679,2490.37,229.3679,2486.37,233.3679,2482.37,229.3679,2486.37,238.3679" style="stroke:#333333;stroke-width:1;"/></g><!--link update_global_repo_index to global_index_store--><g class="link" data-entity-1="update_global_repo_index" data-entity-2="global_index_store" data-source-line="42" data-uid="lnk33" id="link_update_global_repo_index_global_index_store"><path d="M2486.37,291.2479 C2486.37,325.6279 2486.37,380.3679 2486.37,412.8079" fill="none" id="update_global_repo_index-to-global_index_store" style="stroke:#333333;stroke-width:1;stroke-dasharray:7,7;"/><polygon fill="#333333" points="2486.37,418.8079,2490.37,409.8079,2486.37,413.8079,2482.37,409.8079,2486.37,418.8079" style="stroke:#333333;stroke-width:1;"/><text fill="#000000" font-family="Arial" font-size="13" lengthAdjust="spacing" textLength="25.3018" x="2487.37" y="352.2117">data</text></g><!--link handle_repo_command to build_repo_hierarchy--><g class="link" data-entity-1="handle_repo_command" data-entity-2="build_repo_hierarchy" data-source-line="43" data-uid="lnk34" id="link_handle_repo_command_build_repo_hierarchy"><path d="M1310.98,161.8479 C1274.01,184.0779 1225.7923,213.0664 1188.8323,235.2864" fill="none" id="handle_repo_command-to-build_repo_hierarchy" style="stroke:#333333;stroke-width:1;"/><polygon fill="#333333" points="1183.69,238.3779,1193.4644,237.1688,1187.9752,235.8016,1189.3424,230.3125,1183.69,238.3779" style="stroke:#333333;stroke-width:1;"/></g><!--link build_repo_hierarchy to load_hierarchy--><g class="link" data-entity-1="build_repo_hierarchy" data-entity-2="load_hierarchy" data-source-line="44" data-uid="lnk35" id="link_build_repo_hierarchy_load_hierarchy"><path d="M1138.9,291.2479 C1135.68,324.3979 1130.6497,376.0759 1127.4297,409.2459" fill="none" id="build_repo_hierarchy-to-load_hierarchy" style="stroke:#333333;stroke-width:1;"/><polygon fill="#333333" points="1126.85,415.2179,1131.7009,406.6464,1127.3331,410.2412,1123.7383,405.8735,1126.85,415.2179" style="stroke:#333333;stroke-width:1;"/></g><!--link handle_repo_command to load_hierarchy_overrides--><g class="link" data-entity-1="handle_repo_command" data-entity-2="load_hierarchy_overrides" data-source-line="45" data-uid="lnk36" id="link_handle_repo_command_load_hierarchy_overrides"><path d="M1343.87,161.9379 C1336.26,182.5979 1325.4,212.4579 1316.37,238.7279 C1306.76,266.7079 1298.1356,293.2923 1291.1756,315.0823" fill="none" id="handle_repo_command-to-load_hierarchy_overrides" style="stroke:#333333;stroke-width:1;"/><polygon fill="#333333" points="1289.35,320.7979,1295.8988,313.4416,1290.8713,316.0349,1288.2781,311.0075,1289.35,320.7979" style="stroke:#333333;stroke-width:1;"/></g><!--link load_hierarchy_overrides to maestro_repo_store--><g class="link" data-entity-1="load_hierarchy_overrides" data-entity-2="maestro_repo_store" data-source-line="46" data-uid="lnk37" id="link_load_hierarchy_overrides_maestro_repo_store"><path d="M1278.44,373.4579 C1273.59,403.4679 1261.05,452.7579 1229.37,480.2179 C1179.18,523.7379 1000.4244,553.613 896.1744,567.903" fill="none" id="load_hierarchy_overrides-to-maestro_repo_store" style="stroke:#333333;stroke-width:1;stroke-dasharray:7,7;"/><polygon fill="#333333" points="890.23,568.7179,899.6898,571.4586,895.1837,568.0388,898.6034,563.5327,890.23,568.7179" style="stroke:#333333;stroke-width:1;"/><text fill="#000000" font-family="Arial" font-size="13" lengthAdjust="spacing" textLength="25.3018" x="1273" y="446.8617">data</text></g><!--link handle_repo_command to merge_hierarchy_overrides--><g class="link" data-entity-1="handle_repo_command" data-entity-2="merge_hierarchy_overrides" data-source-line="47" data-uid="lnk38" id="link_handle_repo_command_merge_hierarchy_overrides"><path d="M1367.77,161.8479 C1380.33,184.0779 1395.4993,210.9336 1408.0493,233.1536" fill="none" id="handle_repo_command-to-merge_hierarchy_overrides" style="stroke:#333333;stroke-width:1;"/><polygon fill="#333333" points="1411,238.3779,1410.0568,228.5743,1408.5411,234.0243,1403.0911,232.5086,1411,238.3779" style="stroke:#333333;stroke-width:1;"/></g><!--link handle_repo_command to handle_repo_pkg--><g class="link" data-entity-1="handle_repo_command" data-entity-2="handle_repo_pkg" data-source-line="48" data-uid="lnk39" id="link_handle_repo_command_handle_repo_pkg"><path d="M1410.56,161.8479 C1460.44,184.0779 1526.9498,213.7151 1576.7998,235.9351" fill="none" id="handle_repo_command-to-handle_repo_pkg" style="stroke:#333333;stroke-width:1;"/><polygon fill="#333333" points="1582.28,238.3779,1575.6881,231.0602,1577.7131,236.3422,1572.4311,238.3672,1582.28,238.3779" style="stroke:#333333;stroke-width:1;"/></g><!--link handle_repo_command to handle_repo_hier--><g class="link" data-entity-1="handle_repo_command" data-entity-2="handle_repo_hier" data-source-line="49" data-uid="lnk40" id="link_handle_repo_command_handle_repo_hier"><path d="M1441.19,158.9279 C1531.48,182.1279 1665.4688,216.5647 1755.7588,239.7647" fill="none" id="handle_repo_command-to-handle_repo_hier" style="stroke:#333333;stroke-width:1;"/><polygon fill="#333333" points="1761.57,241.2579,1753.8486,235.1439,1756.7273,240.0135,1751.8577,242.8922,1761.57,241.2579" style="stroke:#333333;stroke-width:1;"/></g><!--link handle_repo_command to handle_repo_rules--><g class="link" data-entity-1="handle_repo_command" data-entity-2="handle_repo_rules" data-source-line="50" data-uid="lnk41" id="link_handle_repo_command_handle_repo_rules"><path d="M1441.05,149.4379 C1558.38,167.3579 1772.77,201.5979 1954.37,238.7279 C1959.97,239.8679 1959.871,239.8048 1965.671,241.0848" fill="none" id="handle_repo_command-to-handle_repo_rules" style="stroke:#333333;stroke-width:1;"/><polygon fill="#333333" points="1971.53,242.3779,1963.6035,236.5323,1966.6475,241.3003,1961.8795,244.3443,1971.53,242.3779" style="stroke:#333333;stroke-width:1;"/></g><!--link handle_repo_command to handle_repo_conventions--><g class="link" data-entity-1="handle_repo_command" data-entity-2="handle_repo_conventions" data-source-line="51" data-uid="lnk42" id="link_handle_repo_command_handle_repo_conventions"><path d="M1441.07,144.7779 C1590.25,159.6979 1902.69,193.4979 2164.37,238.7279 C2170.06,239.7079 2170.0078,239.6555 2175.8878,240.7855" fill="none" id="handle_repo_command-to-handle_repo_conventions" style="stroke:#333333;stroke-width:1;"/><polygon fill="#333333" points="2181.78,241.9179,2173.6966,236.2912,2176.8698,240.9742,2172.1868,244.1475,2181.78,241.9179" style="stroke:#333333;stroke-width:1;"/></g><!--link handle_repo_rules to repo_rules_store--><g class="link" data-entity-1="handle_repo_rules" data-entity-2="repo_rules_store" data-source-line="52" data-uid="lnk43" id="link_handle_repo_rules_repo_rules_store"><path d="M2059.37,291.2479 C2059.37,325.6279 2059.37,380.3679 2059.37,412.8079" fill="none" id="handle_repo_rules-to-repo_rules_store" style="stroke:#333333;stroke-width:1;stroke-dasharray:7,7;"/><polygon fill="#333333" points="2059.37,418.8079,2063.37,409.8079,2059.37,413.8079,2055.37,409.8079,2059.37,418.8079" style="stroke:#333333;stroke-width:1;"/><text fill="#000000" font-family="Arial" font-size="13" lengthAdjust="spacing" textLength="25.3018" x="2060.37" y="352.2117">data</text></g><!--link handle_repo_hier to editor--><g class="link" data-entity-1="handle_repo_hier" data-entity-2="editor" data-source-line="53" data-uid="lnk44" id="link_handle_repo_hier_editor"><path d="M1849.37,291.2479 C1849.37,320.5179 1849.37,362.8779 1849.37,396.6279" fill="none" id="handle_repo_hier-to-editor" style="stroke:#333333;stroke-width:1;"/><polygon fill="#333333" points="1849.37,402.6279,1853.37,393.6279,1849.37,397.6279,1845.37,393.6279,1849.37,402.6279" style="stroke:#333333;stroke-width:1;"/></g><!--SRC=[dLRRRjiu47tNLt3JbpP096mAv24B54XikGdWI-3DOX-oXK1Bj4s48WsISffVwLE_hL_I6L9oLONoAX4CsoBF71uEDKVpXzsoaf6Te5n6vf7B7TMq92kQFswqgcGnKa9fycxYhXQYO6jQ2JjHqiufC5nfJaLh_afhzLG7VtHNQtAkBBjMkc2wHepSrKM4H00gijmAHaQpyPbcEqNEYFif6DiHBYtJaWgo5kg9l5Shm_IU5H_8- -bYV7v9HgfWPCmivU9355M6vTGmSa9blbNwX513velxDBkQZsuMosZB0TqUa22BQBxPMgBMlyqGSdhwjwfqpYvFJyd3Gw5oapmf_OX2JB8_JxXEyh986jbn3bBYPreAyWhiboyHamL17L6aMMwft40kJcPmVYHNPKbXTWjVWkd_P4cPiHh3tOI9aSpjqaColC-Qi7VfnUGZ77ABTWdpXbkbdud9gPHjKYUi7dMS-3-hTZlFkZyF4VwhEMGGaN1e1XuWSqpb4w8z7TMMhsbkJOXrgcZX7m8k2_Rr6AK0g6Tqq13R16OycrRA7YDR0zAJ8JB4zS-keB3XZL0hU2Wxwloe5-BuAeVEwl7ZAgyhBk2eETDKvzldOp9N2FLq1tnl6WSnkYo-WekeFTCQgiaCPyqECI7-6TCRzje5IWmQki8Ts0-5DKorQfY6LjJkSHDYl3ceVGCdgWwMQ2L0_ni8jGiCC8wKt3DfkP9luirRuGqxFDPqvPmshaaIn2R4WBSmVpP-t7EuOJJyz2AzQ4KlNLNw7HyYV-scD-vpg_vQaUq2xCI2rS0h1xm0CcAUZMLbNV6mZBjj4EdN-et32ZHAX_9_ev39dfrzwjX6Bwphfz4BWqLKo2EZe776yQTGbYy9vgbNHSSmeww13cVLR0sUlyse48wvp-sYNXl4jG9dzZyx2DbV5FJ4mtv_uOwc9U0aKQ-9lItzlPRL6z4nea4uv1y4T6Ks2DcoWUYbxM0oNjHj81NEzP2wBYdVWGcs3ZPWwHuo8rqBXlVGXkt_J9gMCC464TigpuntSLcGxW1qM8D2TnLqRY-7VclGUjl5WysWwX_VlfCfApQmqnjOqJJg5tNpIXhF90L7cyPkh3BuQiAUhrRWsrzi8FyYUwu4590XayNo-dQSBTExHJPU02by7XxYE87FxUnkcixI-VtL_UrYdatJyUTqYGa9JhYiDA6udhOc4Kvq1gvKSAnOW-7rJaQ7mNP6VW80]--></g></svg>