<svg xmlns="http://www.w3.org/2000/svg" xmlns:xlink="http://www.w3.org/1999/xlink" contentStyleType="text/css" data-diagram-type="DESCRIPTION" height="616px" preserveAspectRatio="none" style="width:848px;height:616px;background:#FFFFFF;" version="1.1" viewBox="0 0 848 616" width="848px" zoomAndPan="magnify"><title>CMD-rules - rules command surface (LOD1: CLI Flow)</title><defs/><g><g class="title" data-source-line="8"><text fill="#000000" font-family="Arial" font-size="22" font-weight="bold" lengthAdjust="spacing" textLength="561.0752" x="139.0846" y="35.6357">CMD-rules - rules command surface (LOD1: CLI Flow)</text></g><!--entity NOTE_ANCHOR--><!--entity cmd_rules_entry--><g class="entity" data-entity="cmd_rules_entry" data-source-line="16" data-uid="ent0006" id="entity_cmd_rules_entry"><rect fill="#FFFFFF" height="36.0986" rx="2.5" ry="2.5" style="stroke:#000000;stroke-width:1;" width="104.8066" x="626.92" y="59.1979"/><text fill="#000000" font-family="Arial" font-size="14" lengthAdjust="spacing" textLength="84.8066" x="636.92" y="82.3297">maestro rules</text></g><!--entity subcmd_list--><g class="entity" data-entity="subcmd_list" data-source-line="17" data-uid="ent0007" id="entity_subcmd_list"><ellipse cx="644.3171" cy="383.7735" fill="#FFFFFF" rx="16.2071" ry="13.5657" style="stroke:#000000;stroke-width:1;"/><text fill="#000000" font-family="Arial" font-size="14" lengthAdjust="spacing" textLength="17.1104" x="635.7619" y="388.3229">list</text></g><!--entity subcmd_edit--><g class="entity" data-entity="subcmd_edit" data-source-line="18" data-uid="ent0008" id="entity_subcmd_edit"><ellipse cx="741.321" cy="383.7813" fill="#FFFFFF" rx="18.961" ry="14.3835" style="stroke:#000000;stroke-width:1;"/><text fill="#000000" font-family="Arial" font-size="14" lengthAdjust="spacing" textLength="22.5723" x="730.0349" y="388.3306">edit</text></g><!--entity handle_rules_list--><g class="entity" data-entity="handle_rules_list" data-source-line="19" data-uid="ent0009" id="entity_handle_rules_list"><rect fill="#FFFFFF" height="46.0986" rx="2.5" ry="2.5" style="stroke:#000000;stroke-width:1;" width="145.0684" x="516.78" y="458.1579"/><rect fill="#FFFFFF" height="10" style="stroke:#000000;stroke-width:1;" width="15" x="641.8484" y="463.1579"/><rect fill="#FFFFFF" height="2" style="stroke:#000000;stroke-width:1;" width="4" x="639.8484" y="465.1579"/><rect fill="#FFFFFF" height="2" style="stroke:#000000;stroke-width:1;" width="4" x="639.8484" y="469.1579"/><text fill="#000000" font-family="Arial" font-size="14" lengthAdjust="spacing" textLength="105.0684" x="531.78" y="491.2897">handle_rules_list</text></g><!--entity handle_rules_file--><g class="entity" data-entity="handle_rules_file" data-source-line="20" data-uid="ent0010" id="entity_handle_rules_file"><rect fill="#FFFFFF" height="46.0986" rx="2.5" ry="2.5" style="stroke:#000000;stroke-width:1;" width="145.8545" x="696.39" y="458.1579"/><rect fill="#FFFFFF" height="10" style="stroke:#000000;stroke-width:1;" width="15" x="822.2445" y="463.1579"/><rect fill="#FFFFFF" height="2" style="stroke:#000000;stroke-width:1;" width="4" x="820.2445" y="465.1579"/><rect fill="#FFFFFF" height="2" style="stroke:#000000;stroke-width:1;" width="4" x="820.2445" y="469.1579"/><text fill="#000000" font-family="Arial" font-size="14" lengthAdjust="spacing" textLength="105.8545" x="711.39" y="491.2897">handle_rules_file</text></g><!--entity load_session--><g class="entity" data-entity="load_session" data-source-line="21" data-uid="ent0011" id="entity_load_session"><rect fill="#FFFFFF" height="46.0986" rx="2.5" ry="2.5" style="stroke:#000000;stroke-width:1;" width="122.5029" x="618.07" y="157.1979"/><rect fill="#FFFFFF" height="10" style="stroke:#000000;stroke-width:1;" width="15" x="720.5729" y="162.1979"/><rect fill="#FFFFFF" height="2" style="stroke:#000000;stroke-width:1;" width="4" x="718.5729" y="164.1979"/><rect fill="#FFFFFF" height="2" style="stroke:#000000;stroke-width:1;" width="4" x="718.5729" y="168.1979"/><text fill="#000000" font-family="Arial" font-size="14" lengthAdjust="spacing" textLength="82.5029" x="633.07" y="190.3297">Load session</text></g><!--entity validate_session--><g class="entity" data-entity="validate_session" data-source-line="22" data-uid="ent0012" id="entity_validate_session"><rect fill="#FFFFFF" height="46.0986" rx="2.5" ry="2.5" style="stroke:#000000;stroke-width:1;" width="194.8613" x="581.89" y="263.2979"/><rect fill="#FFFFFF" height="10" style="stroke:#000000;stroke-width:1;" width="15" x="756.7513" y="268.2979"/><rect fill="#FFFFFF" height="2" style="stroke:#000000;stroke-width:1;" width="4" x="754.7513" y="270.2979"/><rect fill="#FFFFFF" height="2" style="stroke:#000000;stroke-width:1;" width="4" x="754.7513" y="274.2979"/><text fill="#000000" font-family="Arial" font-size="14" lengthAdjust="spacing" textLength="154.8613" x="596.89" y="296.4297">Validate session schema</text></g><!--entity execute_rules_op--><g class="entity" data-entity="execute_rules_op" data-source-line="23" data-uid="ent0013" id="entity_execute_rules_op"><rect fill="#FFFFFF" height="46.0986" rx="2.5" ry="2.5" style="stroke:#000000;stroke-width:1;" width="187.0889" x="585.77" y="564.2579"/><rect fill="#FFFFFF" height="10" style="stroke:#000000;stroke-width:1;" width="15" x="752.8589" y="569.2579"/><rect fill="#FFFFFF" height="2" style="stroke:#000000;stroke-width:1;" width="4" x="750.8589" y="571.2579"/><rect fill="#FFFFFF" height="2" style="stroke:#000000;stroke-width:1;" width="4" x="750.8589" y="575.2579"/><text fill="#000000" font-family="Arial" font-size="14" lengthAdjust="spacing" textLength="147.0889" x="600.77" y="597.3897">Execute rules operation</text></g><!--link cmd_rules_entry to load_session--><g class="link" data-entity-1="cmd_rules_entry" data-entity-2="load_session" data-source-line="24" data-uid="lnk14" id="link_cmd_rules_entry_load_session"><path d="M679.32,95.3779 C679.32,112.2679 679.32,132.1579 679.32,150.6979" fill="none" id="cmd_rules_entry-to-load_session" style="stroke:#333333;stroke-width:1;"/><polygon fill="#333333" points="679.32,156.6979,683.32,147.6979,679.32,151.6979,675.32,147.6979,679.32,156.6979" style="stroke:#333333;stroke-width:1;"/></g><!--link load_session to validate_session--><g class="link" data-entity-1="load_session" data-entity-2="validate_session" data-source-line="25" data-uid="lnk15" id="link_load_session_validate_session"><path d="M679.32,203.5779 C679.32,221.1379 679.32,239.4979 679.32,257.0479" fill="none" id="load_session-to-validate_session" style="stroke:#333333;stroke-width:1;"/><polygon fill="#333333" points="679.32,263.0479,683.32,254.0479,679.32,258.0479,675.32,254.0479,679.32,263.0479" style="stroke:#333333;stroke-width:1;"/></g><!--link validate_session to subcmd_list--><g class="link" data-entity-1="validate_session" data-entity-2="subcmd_list" data-source-line="26" data-uid="lnk16" id="link_validate_session_subcmd_list"><path d="M671.2,309.4779 C664.25,328.4179 656.5766,349.365 650.9266,364.765" fill="none" id="validate_session-to-subcmd_list" style="stroke:#333333;stroke-width:1;"/><polygon fill="#333333" points="648.86,370.3979,655.7151,363.3263,650.5822,365.7038,648.2047,360.5708,648.86,370.3979" style="stroke:#333333;stroke-width:1;"/></g><!--link validate_session to subcmd_edit--><g class="link" data-entity-1="validate_session" data-entity-2="subcmd_edit" data-source-line="27" data-uid="lnk17" id="link_validate_session_subcmd_edit"><path d="M693.7,309.4779 C706,328.4179 720.0001,349.9672 730.0101,365.3672" fill="none" id="validate_session-to-subcmd_edit" style="stroke:#333333;stroke-width:1;"/><polygon fill="#333333" points="733.28,370.3979,731.7289,360.6719,730.5551,366.2056,725.0213,365.0318,733.28,370.3979" style="stroke:#333333;stroke-width:1;"/></g><!--link subcmd_list to handle_rules_list--><g class="link" data-entity-1="subcmd_list" data-entity-2="handle_rules_list" data-source-line="28" data-uid="lnk18" id="link_subcmd_list_handle_rules_list"><path d="M637.57,396.4779 C628.8,411.7079 616.2658,433.4393 605.1958,452.6493" fill="none" id="subcmd_list-to-handle_rules_list" style="stroke:#333333;stroke-width:1;"/><polygon fill="#333333" points="602.2,457.8479,610.1594,452.0471,604.6965,453.5157,603.2279,448.0528,602.2,457.8479" style="stroke:#333333;stroke-width:1;"/></g><!--link subcmd_edit to handle_rules_file--><g class="link" data-entity-1="subcmd_edit" data-entity-2="handle_rules_file" data-source-line="29" data-uid="lnk19" id="link_subcmd_edit_handle_rules_file"><path d="M745.21,398.0479 C749.75,413.5179 755.6304,433.5607 761.0804,452.1307" fill="none" id="subcmd_edit-to-handle_rules_file" style="stroke:#333333;stroke-width:1;"/><polygon fill="#333333" points="762.77,457.8879,764.0737,448.1257,761.362,453.0902,756.3974,450.3785,762.77,457.8879" style="stroke:#333333;stroke-width:1;"/></g><!--link handle_rules_list to execute_rules_op--><g class="link" data-entity-1="handle_rules_list" data-entity-2="execute_rules_op" data-source-line="30" data-uid="lnk20" id="link_handle_rules_list_execute_rules_op"><path d="M608.63,504.5379 C623.81,522.1079 640.9476,541.9175 656.1176,559.4775" fill="none" id="handle_rules_list-to-execute_rules_op" style="stroke:#333333;stroke-width:1;"/><polygon fill="#333333" points="660.04,564.0179,657.1833,554.5924,656.7713,560.2342,651.1295,559.8222,660.04,564.0179" style="stroke:#333333;stroke-width:1;"/></g><!--link handle_rules_file to execute_rules_op--><g class="link" data-entity-1="handle_rules_file" data-entity-2="execute_rules_op" data-source-line="31" data-uid="lnk21" id="link_handle_rules_file_execute_rules_op"><path d="M750.01,504.5379 C734.83,522.1079 717.6939,541.9188 702.5139,559.4788" fill="none" id="handle_rules_file-to-execute_rules_op" style="stroke:#333333;stroke-width:1;"/><polygon fill="#333333" points="698.59,564.0179,707.5019,559.8252,701.8599,560.2353,701.4498,554.5933,698.59,564.0179" style="stroke:#333333;stroke-width:1;"/></g><!--SRC=[bLDDRzim3BtxLt3PPGkG6DrkFGn8tGGRa2N0DknI504hqR4GMJGaELd__MJ5JPKu6r1T1FAzH_53VEShgWaQZSfaRgTCWnPhU4AnsrfkZInOiuNtYtWIXgGIM-qNRFmAGuIPLQWJV6Oj7thnvtWISCMUxjXAiZsZYEUISIs9mCgyyfgW-7u_iQqc1nCuteBh6eq4rzeI1S67vVh-vXQAvJTOQ3vypBBMaK17C48ZAhOZG0UhzQ_vPhOglgv_P9MITEOm8G-mQbjvuF8C0HYFVt9h1TsEn_3m85cu_C1sLuQdNBx_b2kRYrhcfpodGglfCzOQti1zVCmebDJbaMMMX4Up3SMFQYJdBHyhZtK4_IPQ6pBUFh_MgfNpaU7QfuxKsQyeINM6TdOMEjcm2N5WL8MEQkeZdq8DlF-Kb4hJKD9vKycICSoDd5Di8bi7nwPtfCJVg9N4C9GU0oV23yQesVVODTty3ucscsNyAToGHV_o5XsnFZLkiejMmcJovJoXr8ZeuEbBHsIb0_WV8SuW8KTisFA4FMJ43WyqaJUeTo2yJZjkWwRowZBCzs5vJ5o7pWuhiR_9-vNSz2kPdpexhIMaHlhF_m80]--></g></svg>