<svg xmlns="http://www.w3.org/2000/svg" xmlns:xlink="http://www.w3.org/1999/xlink" contentStyleType="text/css" data-diagram-type="DESCRIPTION" height="747px" preserveAspectRatio="none" style="width:3798px;height:747px;background:#FFFFFF;" version="1.1" viewBox="0 0 3798 747" width="3798px" zoomAndPan="magnify"><title>CMD-understand - understand deep internal flow (observed) (LOD1: Code Functions)</title><defs/><g><g class="title" data-source-line="8"><text fill="#000000" font-family="Arial" font-size="22" font-weight="bold" lengthAdjust="spacing" textLength="887.3584" x="1451.1512" y="35.6357">CMD-understand - understand deep internal flow (observed) (LOD1: Code Functions)</text></g><!--entity NOTE_ANCHOR--><!--entity main_entry--><g class="entity" data-entity="main_entry" data-source-line="16" data-uid="ent0006" id="entity_main_entry"><rect fill="#FFFFFF" height="52.1973" rx="2.5" ry="2.5" style="stroke:#000000;stroke-width:1;" width="132.8066" x="1327.49" y="150.0479"/><text fill="#000000" font-family="Arial" font-size="14" lengthAdjust="spacing" textLength="69.2549" x="1337.49" y="173.1797">main_entry</text><text fill="#000000" font-family="Arial" font-size="14" lengthAdjust="spacing" textLength="112.8066" x="1337.49" y="189.2783">(maestro/main.py)</text></g><!--entity add_understand_parser--><g class="entity" data-entity="add_understand_parser" data-source-line="17" data-uid="ent0007" id="entity_add_understand_parser"><rect fill="#FFFFFF" height="52.1973" rx="2.5" ry="2.5" style="stroke:#000000;stroke-width:1;" width="266.6611" x="1167.56" y="290.9679"/><text fill="#000000" font-family="Arial" font-size="14" lengthAdjust="spacing" textLength="148.668" x="1177.56" y="314.0997">add_understand_parser</text><text fill="#000000" font-family="Arial" font-size="14" lengthAdjust="spacing" textLength="205.4268" x="1177.56" y="330.1983">(maestro/commands/understand/</text><text fill="#000000" font-family="Arial" font-size="14" lengthAdjust="spacing" text-decoration="underline" textLength="17.8965" x="1382.9868" y="330.1983">init</text><text fill="#000000" font-family="Arial" font-size="14" lengthAdjust="spacing" textLength="23.3379" x="1400.8832" y="330.1983">.py)</text></g><!--entity handle_understand_dump--><g class="entity" data-entity="handle_understand_dump" data-source-line="18" data-uid="ent0008" id="entity_handle_understand_dump"><rect fill="#FFFFFF" height="52.1973" rx="2.5" ry="2.5" style="stroke:#000000;stroke-width:1;" width="237.875" x="1274.95" y="415.6179"/><text fill="#000000" font-family="Arial" font-size="14" lengthAdjust="spacing" textLength="162.6885" x="1284.95" y="438.7497">handle_understand_dump</text><text fill="#000000" font-family="Arial" font-size="14" lengthAdjust="spacing" textLength="217.875" x="1284.95" y="454.8483">(maestro/understand/command.py)</text></g><!--entity gather_all--><g class="entity" data-entity="gather_all" data-source-line="19" data-uid="ent0009" id="entity_gather_all"><rect fill="#FFFFFF" height="52.1973" rx="2.5" ry="2.5" style="stroke:#000000;stroke-width:1;" width="249.5508" x="2545.11" y="290.9679"/><text fill="#000000" font-family="Arial" font-size="14" lengthAdjust="spacing" textLength="61.4893" x="2555.11" y="314.0997">gather_all</text><text fill="#000000" font-family="Arial" font-size="14" lengthAdjust="spacing" textLength="229.5508" x="2555.11" y="330.1983">(maestro/understand/introspector.py)</text></g><!--entity gather_identity--><g class="entity" data-entity="gather_identity" data-source-line="20" data-uid="ent0010" id="entity_gather_identity"><rect fill="#FFFFFF" height="52.1973" rx="2.5" ry="2.5" style="stroke:#000000;stroke-width:1;" width="249.5508" x="1548.11" y="415.6179"/><text fill="#000000" font-family="Arial" font-size="14" lengthAdjust="spacing" textLength="91.8408" x="1558.11" y="438.7497">gather_identity</text><text fill="#000000" font-family="Arial" font-size="14" lengthAdjust="spacing" textLength="229.5508" x="1558.11" y="454.8483">(maestro/understand/introspector.py)</text></g><!--entity gather_authority_model--><g class="entity" data-entity="gather_authority_model" data-source-line="21" data-uid="ent0011" id="entity_gather_authority_model"><rect fill="#FFFFFF" height="52.1973" rx="2.5" ry="2.5" style="stroke:#000000;stroke-width:1;" width="249.5508" x="1833.11" y="415.6179"/><text fill="#000000" font-family="Arial" font-size="14" lengthAdjust="spacing" textLength="147.0957" x="1843.11" y="438.7497">gather_authority_model</text><text fill="#000000" font-family="Arial" font-size="14" lengthAdjust="spacing" textLength="229.5508" x="1843.11" y="454.8483">(maestro/understand/introspector.py)</text></g><!--entity gather_rule_gates--><g class="entity" data-entity="gather_rule_gates" data-source-line="22" data-uid="ent0012" id="entity_gather_rule_gates"><rect fill="#FFFFFF" height="52.1973" rx="2.5" ry="2.5" style="stroke:#000000;stroke-width:1;" width="249.5508" x="2118.11" y="415.6179"/><text fill="#000000" font-family="Arial" font-size="14" lengthAdjust="spacing" textLength="112.8613" x="2128.11" y="438.7497">gather_rule_gates</text><text fill="#000000" font-family="Arial" font-size="14" lengthAdjust="spacing" textLength="229.5508" x="2128.11" y="454.8483">(maestro/understand/introspector.py)</text></g><!--entity gather_mutation_boundaries--><g class="entity" data-entity="gather_mutation_boundaries" data-source-line="23" data-uid="ent0013" id="entity_gather_mutation_boundaries"><rect fill="#FFFFFF" height="52.1973" rx="2.5" ry="2.5" style="stroke:#000000;stroke-width:1;" width="249.5508" x="2403.11" y="415.6179"/><text fill="#000000" font-family="Arial" font-size="14" lengthAdjust="spacing" textLength="178.2402" x="2413.11" y="438.7497">gather_mutation_boundaries</text><text fill="#000000" font-family="Arial" font-size="14" lengthAdjust="spacing" textLength="229.5508" x="2413.11" y="454.8483">(maestro/understand/introspector.py)</text></g><!--entity gather_automation_long_run--><g class="entity" data-entity="gather_automation_long_run" data-source-line="24" data-uid="ent0014" id="entity_gather_automation_long_run"><rect fill="#FFFFFF" height="52.1973" rx="2.5" ry="2.5" style="stroke:#000000;stroke-width:1;" width="249.5508" x="2688.11" y="415.6179"/><text fill="#000000" font-family="Arial" font-size="14" lengthAdjust="spacing" textLength="179.0264" x="2698.11" y="438.7497">gather_automation_long_run</text><text fill="#000000" font-family="Arial" font-size="14" lengthAdjust="spacing" textLength="229.5508" x="2698.11" y="454.8483">(maestro/understand/introspector.py)</text></g><!--entity gather_directory_semantics--><g class="entity" data-entity="gather_directory_semantics" data-source-line="25" data-uid="ent0015" id="entity_gather_directory_semantics"><rect fill="#FFFFFF" height="52.1973" rx="2.5" ry="2.5" style="stroke:#000000;stroke-width:1;" width="249.5508" x="2973.11" y="415.6179"/><text fill="#000000" font-family="Arial" font-size="14" lengthAdjust="spacing" textLength="171.9717" x="2983.11" y="438.7497">gather_directory_semantics</text><text fill="#000000" font-family="Arial" font-size="14" lengthAdjust="spacing" textLength="229.5508" x="2983.11" y="454.8483">(maestro/understand/introspector.py)</text></g><!--entity gather_contracts--><g class="entity" data-entity="gather_contracts" data-source-line="26" data-uid="ent0016" id="entity_gather_contracts"><rect fill="#FFFFFF" height="52.1973" rx="2.5" ry="2.5" style="stroke:#000000;stroke-width:1;" width="249.5508" x="3258.11" y="415.6179"/><text fill="#000000" font-family="Arial" font-size="14" lengthAdjust="spacing" textLength="104.2822" x="3268.11" y="438.7497">gather_contracts</text><text fill="#000000" font-family="Arial" font-size="14" lengthAdjust="spacing" textLength="229.5508" x="3268.11" y="454.8483">(maestro/understand/introspector.py)</text></g><!--entity gather_evidence_index--><g class="entity" data-entity="gather_evidence_index" data-source-line="27" data-uid="ent0017" id="entity_gather_evidence_index"><rect fill="#FFFFFF" height="52.1973" rx="2.5" ry="2.5" style="stroke:#000000;stroke-width:1;" width="249.5508" x="3543.11" y="415.6179"/><text fill="#000000" font-family="Arial" font-size="14" lengthAdjust="spacing" textLength="144.7783" x="3553.11" y="438.7497">gather_evidence_index</text><text fill="#000000" font-family="Arial" font-size="14" lengthAdjust="spacing" textLength="229.5508" x="3553.11" y="454.8483">(maestro/understand/introspector.py)</text></g><!--entity render--><g class="entity" data-entity="render" data-source-line="28" data-uid="ent0018" id="entity_render"><rect fill="#FFFFFF" height="52.1973" rx="2.5" ry="2.5" style="stroke:#000000;stroke-width:1;" width="229.3232" x="2961.23" y="150.0479"/><text fill="#000000" font-family="Arial" font-size="14" lengthAdjust="spacing" textLength="40.4688" x="2971.23" y="173.1797">render</text><text fill="#000000" font-family="Arial" font-size="14" lengthAdjust="spacing" textLength="209.3232" x="2971.23" y="189.2783">(maestro/understand/renderer.py)</text></g><!--entity _render_identity--><g class="entity" data-entity="_render_identity" data-source-line="29" data-uid="ent0019" id="entity__render_identity"><rect fill="#FFFFFF" height="52.1973" rx="2.5" ry="2.5" style="stroke:#000000;stroke-width:1;" width="229.3232" x="2829.23" y="290.9679"/><text fill="#000000" font-family="Arial" font-size="14" lengthAdjust="spacing" textLength="100.3994" x="2839.23" y="314.0997">_render_identity</text><text fill="#000000" font-family="Arial" font-size="14" lengthAdjust="spacing" textLength="209.3232" x="2839.23" y="330.1983">(maestro/understand/renderer.py)</text></g><!--entity _render_authority_model--><g class="entity" data-entity="_render_authority_model" data-source-line="30" data-uid="ent0020" id="entity__render_authority_model"><rect fill="#FFFFFF" height="52.1973" rx="2.5" ry="2.5" style="stroke:#000000;stroke-width:1;" width="229.3232" x="3093.23" y="290.9679"/><text fill="#000000" font-family="Arial" font-size="14" lengthAdjust="spacing" textLength="155.6543" x="3103.23" y="314.0997">_render_authority_model</text><text fill="#000000" font-family="Arial" font-size="14" lengthAdjust="spacing" textLength="209.3232" x="3103.23" y="330.1983">(maestro/understand/renderer.py)</text></g><!--entity project_introspector_class--><g class="entity" data-entity="project_introspector_class" data-source-line="34" data-uid="ent0024" id="entity_project_introspector_class"><ellipse cx="1125.8869" cy="536.8079" fill="#FFFFFF" rx="8" ry="8" style="stroke:#000000;stroke-width:1;"/><path d="M1125.8869,544.8079 L1125.8869,571.8079 M1112.8869,552.8079 L1138.8869,552.8079 M1125.8869,571.8079 L1112.8869,586.8079 M1125.8869,571.8079 L1138.8869,586.8079" fill="none" style="stroke:#000000;stroke-width:1;"/><text fill="#000000" font-family="Arial" font-size="14" lengthAdjust="spacing" textLength="162.6338" x="1044.57" y="601.9397">project_introspector_class</text></g><!--entity markdown_renderer_class--><g class="entity" data-entity="markdown_renderer_class" data-source-line="35" data-uid="ent0026" id="entity_markdown_renderer_class"><ellipse cx="1324.8924" cy="536.8079" fill="#FFFFFF" rx="8" ry="8" style="stroke:#000000;stroke-width:1;"/><path d="M1324.8924,544.8079 L1324.8924,571.8079 M1311.8924,552.8079 L1337.8924,552.8079 M1324.8924,571.8079 L1311.8924,586.8079 M1324.8924,571.8079 L1337.8924,586.8079" fill="none" style="stroke:#000000;stroke-width:1;"/><text fill="#000000" font-family="Arial" font-size="14" lengthAdjust="spacing" textLength="164.9648" x="1242.41" y="601.9397">markdown_renderer_class</text></g><!--entity _render_rule_gates--><g class="entity" data-entity="_render_rule_gates" data-source-line="47" data-uid="ent0039" id="entity__render_rule_gates"><ellipse cx="3417.89" cy="287.5179" fill="#FFFFFF" rx="8" ry="8" style="stroke:#000000;stroke-width:1;"/><path d="M3417.89,295.5179 L3417.89,322.5179 M3404.89,303.5179 L3430.89,303.5179 M3417.89,322.5179 L3404.89,337.5179 M3417.89,322.5179 L3430.89,337.5179" fill="none" style="stroke:#000000;stroke-width:1;"/><text fill="#000000" font-family="Arial" font-size="14" lengthAdjust="spacing" textLength="121.4199" x="3357.18" y="352.6497">_render_rule_gates</text></g><!--entity pathlib--><g class="entity" data-entity="pathlib" data-source-line="48" data-uid="ent0041" id="entity_pathlib"><ellipse cx="1462.8874" cy="536.8079" fill="#FFFFFF" rx="8" ry="8" style="stroke:#000000;stroke-width:1;"/><path d="M1462.8874,544.8079 L1462.8874,571.8079 M1449.8874,552.8079 L1475.8874,552.8079 M1462.8874,571.8079 L1449.8874,586.8079 M1462.8874,571.8079 L1475.8874,586.8079" fill="none" style="stroke:#000000;stroke-width:1;"/><text fill="#000000" font-family="Arial" font-size="14" lengthAdjust="spacing" textLength="41.2549" x="1442.26" y="601.9397">pathlib</text></g><!--entity filesystem--><g class="entity" data-entity="filesystem" data-source-line="49" data-uid="ent0043" id="entity_filesystem"><ellipse cx="1462.8872" cy="673.9079" fill="#FFFFFF" rx="8" ry="8" style="stroke:#000000;stroke-width:1;"/><path d="M1462.8872,681.9079 L1462.8872,708.9079 M1449.8872,689.9079 L1475.8872,689.9079 M1462.8872,708.9079 L1449.8872,723.9079 M1462.8872,708.9079 L1475.8872,723.9079" fill="none" style="stroke:#000000;stroke-width:1;"/><text fill="#000000" font-family="Arial" font-size="14" lengthAdjust="spacing" textLength="62.2344" x="1431.77" y="739.0397">filesystem</text></g><!--entity docs_understanding_snapshot_md--><g class="entity" data-entity="docs_understanding_snapshot_md" data-source-line="50" data-uid="ent0045" id="entity_docs_understanding_snapshot_md"><ellipse cx="1627.8883" cy="536.8079" fill="#FFFFFF" rx="8" ry="8" style="stroke:#000000;stroke-width:1;"/><path d="M1627.8883,544.8079 L1627.8883,571.8079 M1614.8883,552.8079 L1640.8883,552.8079 M1627.8883,571.8079 L1614.8883,586.8079 M1627.8883,571.8079 L1640.8883,586.8079" fill="none" style="stroke:#000000;stroke-width:1;"/><text fill="#000000" font-family="Arial" font-size="14" lengthAdjust="spacing" textLength="217.9365" x="1518.92" y="601.9397">docs_understanding_snapshot_md</text></g><!--link NOTE_ANCHOR to GMN3--><!--link main_entry to add_understand_parser--><g class="link" data-entity-1="main_entry" data-entity-2="add_understand_parser" data-source-line="31" data-uid="lnk21" id="link_main_entry_add_understand_parser"><path d="M1376.83,202.6279 C1360.05,227.6879 1337.9174,260.7517 1321.1774,285.7617" fill="none" id="main_entry-to-add_understand_parser" style="stroke:#333333;stroke-width:1;"/><polygon fill="#333333" points="1317.84,290.7479,1326.1702,285.4935,1320.6212,286.5927,1319.522,281.0437,1317.84,290.7479" style="stroke:#333333;stroke-width:1;"/></g><!--link add_understand_parser to handle_understand_dump--><g class="link" data-entity-1="add_understand_parser" data-entity-2="handle_understand_dump" data-source-line="32" data-uid="lnk22" id="link_add_understand_parser_handle_understand_dump"><path d="M1320.16,343.4779 C1336.12,364.5279 1355.0653,389.5065 1371.0153,410.5465" fill="none" id="add_understand_parser-to-handle_understand_dump" style="stroke:#333333;stroke-width:1;"/><polygon fill="#333333" points="1374.64,415.3279,1372.3906,405.7393,1371.6194,411.3434,1366.0154,410.5722,1374.64,415.3279" style="stroke:#333333;stroke-width:1;"/></g><!--link main_entry to handle_understand_dump--><g class="link" data-entity-1="main_entry" data-entity-2="handle_understand_dump" data-source-line="33" data-uid="lnk23" id="link_main_entry_handle_understand_dump"><path d="M1413.46,202.5779 C1427.22,222.1479 1444.44,250.4979 1451.89,278.5179 C1460.69,311.6279 1461.99,322.8679 1451.89,355.6179 C1445.04,377.8279 1433.9837,394.7694 1421.0237,410.6494" fill="none" id="main_entry-to-handle_understand_dump" style="stroke:#333333;stroke-width:1;"/><polygon fill="#333333" points="1417.23,415.2979,1426.0195,410.8543,1420.3914,411.4242,1419.8216,405.7961,1417.23,415.2979" style="stroke:#333333;stroke-width:1;"/></g><!--link handle_understand_dump to project_introspector_class--><g class="link" data-entity-1="handle_understand_dump" data-entity-2="project_introspector_class" data-source-line="34" data-uid="lnk25" id="link_handle_understand_dump_project_introspector_class"><path d="M1338.03,468.2779 C1300.3,485.5479 1255.3056,506.1306 1213.0756,525.4606" fill="none" id="handle_understand_dump-to-project_introspector_class" style="stroke:#333333;stroke-width:1;"/><polygon fill="#333333" points="1207.62,527.9579,1217.4683,527.8491,1212.1664,525.8768,1214.1386,520.5749,1207.62,527.9579" style="stroke:#333333;stroke-width:1;"/></g><!--link handle_understand_dump to markdown_renderer_class--><g class="link" data-entity-1="handle_understand_dump" data-entity-2="markdown_renderer_class" data-source-line="35" data-uid="lnk27" id="link_handle_understand_dump_markdown_renderer_class"><path d="M1379.59,468.1279 C1369.96,485.2479 1360.0317,502.8985 1349.1917,522.1685" fill="none" id="handle_understand_dump-to-markdown_renderer_class" style="stroke:#333333;stroke-width:1;"/><polygon fill="#333333" points="1346.25,527.3979,1354.1488,521.5149,1348.7014,523.04,1347.1763,517.5926,1346.25,527.3979" style="stroke:#333333;stroke-width:1;"/></g><!--link render to gather_all--><g class="link" data-entity-1="render" data-entity-2="gather_all" data-source-line="36" data-uid="lnk28" id="link_render_gather_all"><path d="M3001.42,202.6279 C2928.4,227.6079 2823.3469,263.5556 2750.2469,288.5656" fill="none" id="render-to-gather_all" style="stroke:#333333;stroke-width:1;"/><polygon fill="#333333" points="2744.57,290.5079,2754.3802,291.3791,2749.3008,288.8893,2751.7906,283.8098,2744.57,290.5079" style="stroke:#333333;stroke-width:1;"/></g><!--link gather_all to gather_identity--><g class="link" data-entity-1="gather_all" data-entity-2="gather_identity" data-source-line="37" data-uid="lnk29" id="link_gather_all_gather_identity"><path d="M2544.77,329.9779 C2378.08,346.3979 2074.16,378.2279 1815.89,415.6179 C1810.03,416.4579 1809.9689,416.4467 1803.9189,417.3867" fill="none" id="gather_all-to-gather_identity" style="stroke:#333333;stroke-width:1;"/><polygon fill="#333333" points="1797.99,418.3079,1807.4974,420.8787,1802.9307,417.5402,1806.2692,412.9735,1797.99,418.3079" style="stroke:#333333;stroke-width:1;"/></g><!--link gather_all to gather_authority_model--><g class="link" data-entity-1="gather_all" data-entity-2="gather_authority_model" data-source-line="38" data-uid="lnk30" id="link_gather_all_gather_authority_model"><path d="M2544.71,339.3779 C2429.4,359.0479 2253.58,389.1279 2100.89,415.6179 C2095.05,416.6279 2094.9911,416.6386 2088.9611,417.6886" fill="none" id="gather_all-to-gather_authority_model" style="stroke:#333333;stroke-width:1;"/><polygon fill="#333333" points="2083.05,418.7179,2092.6028,421.1146,2087.9759,417.8601,2091.2304,413.2332,2083.05,418.7179" style="stroke:#333333;stroke-width:1;"/></g><!--link gather_all to gather_rule_gates--><g class="link" data-entity-1="gather_all" data-entity-2="gather_rule_gates" data-source-line="39" data-uid="lnk31" id="link_gather_all_gather_rule_gates"><path d="M2580.9,343.6279 C2507.82,364.6179 2410.5867,392.5409 2337.5367,413.5309" fill="none" id="gather_all-to-gather_rule_gates" style="stroke:#333333;stroke-width:1;"/><polygon fill="#333333" points="2331.77,415.1879,2341.5246,416.5468,2336.5756,413.807,2339.3153,408.8579,2331.77,415.1879" style="stroke:#333333;stroke-width:1;"/></g><!--link gather_all to gather_mutation_boundaries--><g class="link" data-entity-1="gather_all" data-entity-2="gather_mutation_boundaries" data-source-line="40" data-uid="lnk32" id="link_gather_all_gather_mutation_boundaries"><path d="M2640.47,343.4779 C2616.1,364.5279 2586.1708,390.3659 2561.8108,411.4059" fill="none" id="gather_all-to-gather_mutation_boundaries" style="stroke:#333333;stroke-width:1;"/><polygon fill="#333333" points="2557.27,415.3279,2566.6958,412.4722,2561.054,412.0596,2561.4665,406.4178,2557.27,415.3279" style="stroke:#333333;stroke-width:1;"/></g><!--link gather_all to gather_automation_long_run--><g class="link" data-entity-1="gather_all" data-entity-2="gather_automation_long_run" data-source-line="41" data-uid="lnk33" id="link_gather_all_gather_automation_long_run"><path d="M2699.52,343.4779 C2724.06,364.5279 2754.2158,390.3816 2778.7458,411.4216" fill="none" id="gather_all-to-gather_automation_long_run" style="stroke:#333333;stroke-width:1;"/><polygon fill="#333333" points="2783.3,415.3279,2779.0728,406.4323,2779.5048,412.0726,2773.8645,412.5046,2783.3,415.3279" style="stroke:#333333;stroke-width:1;"/></g><!--link gather_all to gather_directory_semantics--><g class="link" data-entity-1="gather_all" data-entity-2="gather_directory_semantics" data-source-line="42" data-uid="lnk34" id="link_gather_all_gather_directory_semantics"><path d="M2759.09,343.6279 C2832.34,364.6179 2929.8123,392.5444 3003.0323,413.5344" fill="none" id="gather_all-to-gather_directory_semantics" style="stroke:#333333;stroke-width:1;"/><polygon fill="#333333" points="3008.8,415.1879,3001.2508,408.8626,3003.9936,413.81,2999.0462,416.5528,3008.8,415.1879" style="stroke:#333333;stroke-width:1;"/></g><!--link gather_all to gather_contracts--><g class="link" data-entity-1="gather_all" data-entity-2="gather_contracts" data-source-line="43" data-uid="lnk35" id="link_gather_all_gather_contracts"><path d="M2760.03,343.6279 C2777.17,347.9979 2795.02,352.2079 2811.89,355.6179 C3000.18,393.5679 3050.15,385.6679 3239.89,415.6179 C3245.74,416.5379 3245.8006,416.5178 3251.8406,417.5178" fill="none" id="gather_all-to-gather_contracts" style="stroke:#333333;stroke-width:1;"/><polygon fill="#333333" points="3257.76,418.4979,3249.5342,413.0815,3252.8272,417.6812,3248.2275,420.9741,3257.76,418.4979" style="stroke:#333333;stroke-width:1;"/></g><!--link gather_all to gather_evidence_index--><g class="link" data-entity-1="gather_all" data-entity-2="gather_evidence_index" data-source-line="44" data-uid="lnk36" id="link_gather_all_gather_evidence_index"><path d="M2756.85,343.6179 C2774.92,348.2079 2793.92,352.5079 2811.89,355.6179 C3125.25,409.7979 3209.52,374.7479 3524.89,415.6179 C3530.76,416.3779 3530.8223,416.3456 3536.8823,417.2256" fill="none" id="gather_all-to-gather_evidence_index" style="stroke:#333333;stroke-width:1;"/><polygon fill="#333333" points="3542.82,418.0879,3534.4882,412.836,3537.8719,417.3693,3533.3386,420.753,3542.82,418.0879" style="stroke:#333333;stroke-width:1;"/></g><!--link render to _render_identity--><g class="link" data-entity-1="render" data-entity-2="_render_identity" data-source-line="45" data-uid="lnk37" id="link_render__render_identity"><path d="M3051.68,202.6279 C3027.86,227.6879 2995.8425,261.3879 2972.0825,286.3979" fill="none" id="render-to-_render_identity" style="stroke:#333333;stroke-width:1;"/><polygon fill="#333333" points="2967.95,290.7479,2977.0488,286.978,2971.3938,287.1229,2971.2488,281.4679,2967.95,290.7479" style="stroke:#333333;stroke-width:1;"/></g><!--link render to _render_authority_model--><g class="link" data-entity-1="render" data-entity-2="_render_authority_model" data-source-line="46" data-uid="lnk38" id="link_render__render_authority_model"><path d="M3100.1,202.6279 C3123.92,227.6879 3155.9375,261.3879 3179.6975,286.3979" fill="none" id="render-to-_render_authority_model" style="stroke:#333333;stroke-width:1;"/><polygon fill="#333333" points="3183.83,290.7479,3180.5312,281.4679,3180.3862,287.1229,3174.7312,286.978,3183.83,290.7479" style="stroke:#333333;stroke-width:1;"/></g><!--link render to _render_rule_gates--><g class="link" data-entity-1="render" data-entity-2="_render_rule_gates" data-source-line="47" data-uid="lnk40" id="link_render__render_rule_gates"><path d="M3147.12,202.6879 C3200.61,222.3079 3275.43,250.6779 3339.89,278.5179 C3345.41,280.8979 3345.658,280.9526 3351.338,283.5626" fill="none" id="render-to-_render_rule_gates" style="stroke:#333333;stroke-width:1;"/><polygon fill="#333333" points="3356.79,286.0679,3350.2822,278.6754,3352.2467,283.9802,3346.9419,285.9447,3356.79,286.0679" style="stroke:#333333;stroke-width:1;"/></g><!--link handle_understand_dump to pathlib--><g class="link" data-entity-1="handle_understand_dump" data-entity-2="pathlib" data-source-line="48" data-uid="lnk42" id="link_handle_understand_dump_pathlib"><path d="M1408.19,468.1279 C1417.9,485.3879 1427.9564,503.2796 1438.8564,522.6396" fill="none" id="handle_understand_dump-to-pathlib" style="stroke:#333333;stroke-width:1;"/><polygon fill="#333333" points="1441.8,527.8679,1440.8701,518.063,1439.347,523.5109,1433.899,521.9878,1441.8,527.8679" style="stroke:#333333;stroke-width:1;"/></g><!--link pathlib to filesystem--><g class="link" data-entity-1="pathlib" data-entity-2="filesystem" data-source-line="49" data-uid="lnk44" id="link_pathlib_filesystem"><path d="M1462.89,605.3479 C1462.89,623.9279 1462.89,640.2179 1462.89,658.7479" fill="none" id="pathlib-to-filesystem" style="stroke:#333333;stroke-width:1;"/><polygon fill="#333333" points="1462.89,664.7479,1466.89,655.7479,1462.89,659.7479,1458.89,655.7479,1462.89,664.7479" style="stroke:#333333;stroke-width:1;"/></g><!--link handle_understand_dump to docs_understanding_snapshot_md--><g class="link" data-entity-1="handle_understand_dump" data-entity-2="docs_understanding_snapshot_md" data-source-line="50" data-uid="lnk46" id="link_handle_understand_dump_docs_understanding_snapshot_md"><path d="M1442.66,468.2779 C1475.34,485.4079 1513.6257,505.4725 1550.3157,524.7025" fill="none" id="handle_understand_dump-to-docs_understanding_snapshot_md" style="stroke:#333333;stroke-width:1;"/><polygon fill="#333333" points="1555.63,527.4879,1549.5154,519.767,1551.2014,525.1667,1545.8016,526.8527,1555.63,527.4879" style="stroke:#333333;stroke-width:1;"/></g><!--SRC=[dLRDRXen4BxlKxZf9K62LL8fXrIgH84qaVYfqjneP1dRW8lNNjbUKbwbfpvRdwJZPM4DcBImGc9tPhvlVZnZpJitvnb7kIH29NOXL4uCoT24qCNCw4AnZfRQeFVtvHDOC3ubXNJtMhaX0OQs4KG6-hOn-hK2VoYVG3dKZd_MXd5JMNJAPzyY5WHO9KuuoL5dq6s2ZXlhY6AeYO8FndcEX7BSA2BHLEfNTAadbfibPrVeiZ_gNj-XZcOStHUAEg6LlKgImd9AB4SNHD6vDXU8M3GSFVTmUzXv63qbSm60KA0WIcJ4REwGdkve46eqlkd2K7xNQA3nc6bgqrTj5ZuMcovlKc5Ich5qDuiMXPXQAv99T3BYvINXaBgFAKaCfw2TGPakCZXQp9Kpg-_gCYFSEgDJBspbgwionzeYn176SEq7mxb0_G8AghCC53QjZLACXH8Euorrb2JqCWUnvA4DAx8yS1EmLnwtv75io3uZqDy64odZZD0YHjiS0DfiQMjGX0fQG47_hKxdso1ZyHKE-WrqE8FJF2VMNOA82rD0fU2TszFPQso4E2iSyGE49tvIYH7dU8YGnCkaixMTr6e6SQcpIhLF4d75X2dHAsmvz9mJz8oi8YGHLnIkK4EeEyF15XgXvKlVS9J3H3B-ytJkNNpem73F46TSwtZDjXQ4SBmM_MEI3eZsOJ7A_vgZeypxGrHVYwZP_7JaAejAI_iZjzCUwn6hkBX4v4R_WDHnU7YOIcBjMwYCc0NJhmflqgyWwy_I9BZtwjTGiorzNBrVlxXLS9d43M9tmL671wCSjunDOjoo7gcu_c0ijkMBDEY1xl2UFZ09wlDM4q0qKaoIwh-KJONaTcKTpzv2-hqYK0YecrKajtFjSCQIzKuZ-JIwqlIgx66fyT-ms2olqysUbVgjowyeEtv1rieOYejXPpc19YzWBpgcs5b_ZYvcVeditVPkosp-_FgD-fpDu0GUmBlTP3MgDaNK9OuCgi51ERWKK5r87rRBlJZM6wTVrJwYvGtSUhb6pi1f8rWgWHH-ut6hbSBlSV2rtnlqXi_jvyVH4FTxtI-z9r-YgAAiq0RgQOspgIo3njIV7_Ejuk5L9fsjCAp8Nm00]--></g></svg>