<svg xmlns="http://www.w3.org/2000/svg" xmlns:xlink="http://www.w3.org/1999/xlink" contentStyleType="text/css" data-diagram-type="DESCRIPTION" height="468px" preserveAspectRatio="none" style="width:4300px;height:468px;background:#FFFFFF;" version="1.1" viewBox="0 0 4300 468" width="4300px" zoomAndPan="magnify"><title>CMD-session - session deep internal flow (observed) (LOD2: Code Detail)</title><defs/><g><g class="title" data-source-line="8"><text fill="#000000" font-family="Arial" font-size="22" font-weight="bold" lengthAdjust="spacing" textLength="766.4551" x="1762.3613" y="35.6357">CMD-session - session deep internal flow (observed) (LOD2: Code Detail)</text></g><!--entity NOTE_ANCHOR--><!--entity handle_session_new--><g class="entity" data-entity="handle_session_new" data-source-line="16" data-uid="ent0006" id="entity_handle_session_new"><rect fill="#E6F3FF" height="52.1973" rx="2.5" ry="2.5" style="stroke:#000000;stroke-width:1;" width="254.2266" x="2103.15" y="158.6579"/><text fill="#000000" font-family="Arial" font-size="14" lengthAdjust="spacing" textLength="130.7646" x="2113.15" y="181.7897">handle_session_new</text><text fill="#000000" font-family="Arial" font-size="14" lengthAdjust="spacing" textLength="234.2266" x="2113.15" y="197.8883">maestro.modules.command_handlers</text></g><!--entity handle_session_list--><g class="entity" data-entity="handle_session_list" data-source-line="17" data-uid="ent0007" id="entity_handle_session_list"><rect fill="#E6F3FF" height="52.1973" rx="2.5" ry="2.5" style="stroke:#000000;stroke-width:1;" width="254.2266" x="3259.15" y="158.6579"/><text fill="#000000" font-family="Arial" font-size="14" lengthAdjust="spacing" textLength="122.1924" x="3269.15" y="181.7897">handle_session_list</text><text fill="#000000" font-family="Arial" font-size="14" lengthAdjust="spacing" textLength="234.2266" x="3269.15" y="197.8883">maestro.modules.command_handlers</text></g><!--entity handle_session_set--><g class="entity" data-entity="handle_session_set" data-source-line="18" data-uid="ent0008" id="entity_handle_session_set"><rect fill="#E6F3FF" height="52.1973" rx="2.5" ry="2.5" style="stroke:#000000;stroke-width:1;" width="254.2266" x="2392.15" y="158.6579"/><text fill="#000000" font-family="Arial" font-size="14" lengthAdjust="spacing" textLength="123.7578" x="2402.15" y="181.7897">handle_session_set</text><text fill="#000000" font-family="Arial" font-size="14" lengthAdjust="spacing" textLength="234.2266" x="2402.15" y="197.8883">maestro.modules.command_handlers</text></g><!--entity handle_session_get--><g class="entity" data-entity="handle_session_get" data-source-line="19" data-uid="ent0009" id="entity_handle_session_get"><rect fill="#E6F3FF" height="52.1973" rx="2.5" ry="2.5" style="stroke:#000000;stroke-width:1;" width="254.2266" x="3548.15" y="158.6579"/><text fill="#000000" font-family="Arial" font-size="14" lengthAdjust="spacing" textLength="124.5439" x="3558.15" y="181.7897">handle_session_get</text><text fill="#000000" font-family="Arial" font-size="14" lengthAdjust="spacing" textLength="234.2266" x="3558.15" y="197.8883">maestro.modules.command_handlers</text></g><!--entity handle_session_remove--><g class="entity" data-entity="handle_session_remove" data-source-line="20" data-uid="ent0010" id="entity_handle_session_remove"><rect fill="#E6F3FF" height="52.1973" rx="2.5" ry="2.5" style="stroke:#000000;stroke-width:1;" width="254.2266" x="2681.15" y="158.6579"/><text fill="#000000" font-family="Arial" font-size="14" lengthAdjust="spacing" textLength="151.7646" x="2691.15" y="181.7897">handle_session_remove</text><text fill="#000000" font-family="Arial" font-size="14" lengthAdjust="spacing" textLength="234.2266" x="2691.15" y="197.8883">maestro.modules.command_handlers</text></g><!--entity handle_session_details--><g class="entity" data-entity="handle_session_details" data-source-line="21" data-uid="ent0011" id="entity_handle_session_details"><rect fill="#E6F3FF" height="52.1973" rx="2.5" ry="2.5" style="stroke:#000000;stroke-width:1;" width="254.2266" x="3837.15" y="158.6579"/><text fill="#000000" font-family="Arial" font-size="14" lengthAdjust="spacing" textLength="145.5508" x="3847.15" y="181.7897">handle_session_details</text><text fill="#000000" font-family="Arial" font-size="14" lengthAdjust="spacing" textLength="234.2266" x="3847.15" y="197.8883">maestro.modules.command_handlers</text></g><!--entity handle_wsession_breadcrumbs--><g class="entity" data-entity="handle_wsession_breadcrumbs" data-source-line="22" data-uid="ent0012" id="entity_handle_wsession_breadcrumbs"><rect fill="#E6F3FF" height="52.1973" rx="2.5" ry="2.5" style="stroke:#000000;stroke-width:1;" width="231.6338" x="1258.44" y="158.6579"/><text fill="#000000" font-family="Arial" font-size="14" lengthAdjust="spacing" textLength="196.8955" x="1268.44" y="181.7897">handle_wsession_breadcrumbs</text><text fill="#000000" font-family="Arial" font-size="14" lengthAdjust="spacing" textLength="211.6338" x="1268.44" y="197.8883">maestro.commands.work_session</text></g><!--entity handle_wsession_timeline--><g class="entity" data-entity="handle_wsession_timeline" data-source-line="23" data-uid="ent0013" id="entity_handle_wsession_timeline"><rect fill="#E6F3FF" height="52.1973" rx="2.5" ry="2.5" style="stroke:#000000;stroke-width:1;" width="231.6338" x="1525.44" y="158.6579"/><text fill="#000000" font-family="Arial" font-size="14" lengthAdjust="spacing" textLength="163.4336" x="1535.44" y="181.7897">handle_wsession_timeline</text><text fill="#000000" font-family="Arial" font-size="14" lengthAdjust="spacing" textLength="211.6338" x="1535.44" y="197.8883">maestro.commands.work_session</text></g><!--entity handle_wsession_stats--><g class="entity" data-entity="handle_wsession_stats" data-source-line="24" data-uid="ent0014" id="entity_handle_wsession_stats"><rect fill="#E6F3FF" height="52.1973" rx="2.5" ry="2.5" style="stroke:#000000;stroke-width:1;" width="231.6338" x="1258.44" y="294.5979"/><text fill="#000000" font-family="Arial" font-size="14" lengthAdjust="spacing" textLength="144.7578" x="1268.44" y="317.7297">handle_wsession_stats</text><text fill="#000000" font-family="Arial" font-size="14" lengthAdjust="spacing" textLength="211.6338" x="1268.44" y="333.8283">maestro.commands.work_session</text></g><!--entity get_session_path_by_name--><g class="entity" data-entity="get_session_path_by_name" data-source-line="25" data-uid="ent0015" id="entity_get_session_path_by_name"><rect fill="#E6F3FF" height="52.1973" rx="2.5" ry="2.5" style="stroke:#000000;stroke-width:1;" width="254.2266" x="2392.15" y="294.5979"/><text fill="#000000" font-family="Arial" font-size="14" lengthAdjust="spacing" textLength="175.1299" x="2402.15" y="317.7297">get_session_path_by_name</text><text fill="#000000" font-family="Arial" font-size="14" lengthAdjust="spacing" textLength="234.2266" x="2402.15" y="333.8283">maestro.modules.command_handlers</text></g><!--entity create_session--><g class="entity" data-entity="create_session" data-source-line="26" data-uid="ent0016" id="entity_create_session"><rect fill="#E6F3FF" height="52.1973" rx="2.5" ry="2.5" style="stroke:#000000;stroke-width:1;" width="254.2266" x="1814.15" y="294.5979"/><text fill="#000000" font-family="Arial" font-size="14" lengthAdjust="spacing" textLength="94.165" x="1824.15" y="317.7297">create_session</text><text fill="#000000" font-family="Arial" font-size="14" lengthAdjust="spacing" textLength="234.2266" x="1824.15" y="333.8283">maestro.modules.command_handlers</text></g><!--entity set_active_session_name--><g class="entity" data-entity="set_active_session_name" data-source-line="27" data-uid="ent0017" id="entity_set_active_session_name"><rect fill="#E6F3FF" height="52.1973" rx="2.5" ry="2.5" style="stroke:#000000;stroke-width:1;" width="254.2266" x="2103.15" y="294.5979"/><text fill="#000000" font-family="Arial" font-size="14" lengthAdjust="spacing" textLength="161.0957" x="2113.15" y="317.7297">set_active_session_name</text><text fill="#000000" font-family="Arial" font-size="14" lengthAdjust="spacing" textLength="234.2266" x="2113.15" y="333.8283">maestro.modules.command_handlers</text></g><!--entity list_sessions--><g class="entity" data-entity="list_sessions" data-source-line="28" data-uid="ent0018" id="entity_list_sessions"><rect fill="#E6F3FF" height="52.1973" rx="2.5" ry="2.5" style="stroke:#000000;stroke-width:1;" width="254.2266" x="2970.15" y="294.5979"/><text fill="#000000" font-family="Arial" font-size="14" lengthAdjust="spacing" textLength="79.3652" x="2980.15" y="317.7297">list_sessions</text><text fill="#000000" font-family="Arial" font-size="14" lengthAdjust="spacing" textLength="234.2266" x="2980.15" y="333.8283">maestro.modules.command_handlers</text></g><!--entity get_active_session_name--><g class="entity" data-entity="get_active_session_name" data-source-line="29" data-uid="ent0019" id="entity_get_active_session_name"><rect fill="#E6F3FF" height="52.1973" rx="2.5" ry="2.5" style="stroke:#000000;stroke-width:1;" width="254.2266" x="3259.15" y="294.5979"/><text fill="#000000" font-family="Arial" font-size="14" lengthAdjust="spacing" textLength="161.8818" x="3269.15" y="317.7297">get_active_session_name</text><text fill="#000000" font-family="Arial" font-size="14" lengthAdjust="spacing" textLength="234.2266" x="3269.15" y="333.8283">maestro.modules.command_handlers</text></g><!--entity get_session_details--><g class="entity" data-entity="get_session_details" data-source-line="30" data-uid="ent0020" id="entity_get_session_details"><rect fill="#E6F3FF" height="52.1973" rx="2.5" ry="2.5" style="stroke:#000000;stroke-width:1;" width="254.2266" x="3548.15" y="294.5979"/><text fill="#000000" font-family="Arial" font-size="14" lengthAdjust="spacing" textLength="122.9717" x="3558.15" y="317.7297">get_session_details</text><text fill="#000000" font-family="Arial" font-size="14" lengthAdjust="spacing" textLength="234.2266" x="3558.15" y="333.8283">maestro.modules.command_handlers</text></g><!--entity load_session--><g class="entity" data-entity="load_session" data-source-line="31" data-uid="ent0021" id="entity_load_session"><rect fill="#E6F3FF" height="52.1973" rx="2.5" ry="2.5" style="stroke:#000000;stroke-width:1;" width="167.8477" x="4126.33" y="294.5979"/><text fill="#000000" font-family="Arial" font-size="14" lengthAdjust="spacing" textLength="81.7236" x="4136.33" y="317.7297">load_session</text><text fill="#000000" font-family="Arial" font-size="14" lengthAdjust="spacing" textLength="147.8477" x="4136.33" y="333.8283">maestro.session_model</text></g><!--entity list_build_targets--><g class="entity" data-entity="list_build_targets" data-source-line="32" data-uid="ent0022" id="entity_list_build_targets"><rect fill="#E6F3FF" height="52.1973" rx="2.5" ry="2.5" style="stroke:#000000;stroke-width:1;" width="254.2266" x="3837.15" y="294.5979"/><text fill="#000000" font-family="Arial" font-size="14" lengthAdjust="spacing" textLength="105.0615" x="3847.15" y="317.7297">list_build_targets</text><text fill="#000000" font-family="Arial" font-size="14" lengthAdjust="spacing" textLength="234.2266" x="3847.15" y="333.8283">maestro.modules.command_handlers</text></g><!--entity edit_root_task_in_editor--><g class="entity" data-entity="edit_root_task_in_editor" data-source-line="33" data-uid="ent0023" id="entity_edit_root_task_in_editor"><rect fill="#E6F3FF" height="52.1973" rx="2.5" ry="2.5" style="stroke:#000000;stroke-width:1;" width="254.2266" x="1525.15" y="294.5979"/><text fill="#000000" font-family="Arial" font-size="14" lengthAdjust="spacing" textLength="149.4336" x="1535.15" y="317.7297">edit_root_task_in_editor</text><text fill="#000000" font-family="Arial" font-size="14" lengthAdjust="spacing" textLength="234.2266" x="1535.15" y="333.8283">maestro.modules.command_handlers</text></g><!--entity remove_session--><g class="entity" data-entity="remove_session" data-source-line="34" data-uid="ent0024" id="entity_remove_session"><rect fill="#E6F3FF" height="52.1973" rx="2.5" ry="2.5" style="stroke:#000000;stroke-width:1;" width="254.2266" x="2681.15" y="294.5979"/><text fill="#000000" font-family="Arial" font-size="14" lengthAdjust="spacing" textLength="101.9375" x="2691.15" y="317.7297">remove_session</text><text fill="#000000" font-family="Arial" font-size="14" lengthAdjust="spacing" textLength="234.2266" x="2691.15" y="333.8283">maestro.modules.command_handlers</text></g><!--entity session_json_store--><g class="entity" data-entity="session_json_store" data-source-line="35" data-uid="ent0025" id="entity_session_json_store"><path d="M3171.33,416.7979 C3171.33,406.7979 3241.2538,406.7979 3241.2538,406.7979 C3241.2538,406.7979 3311.1777,406.7979 3311.1777,416.7979 L3311.1777,441.8965 C3311.1777,451.8965 3241.2538,451.8965 3241.2538,451.8965 C3241.2538,451.8965 3171.33,451.8965 3171.33,441.8965 L3171.33,416.7979" fill="#FFE6E6" style="stroke:#000000;stroke-width:1;"/><path d="M3171.33,416.7979 C3171.33,426.7979 3241.2538,426.7979 3241.2538,426.7979 C3241.2538,426.7979 3311.1777,426.7979 3311.1777,416.7979" fill="none" style="stroke:#000000;stroke-width:1;"/><text fill="#000000" font-family="Arial" font-size="14" lengthAdjust="spacing" textLength="119.8477" x="3181.33" y="443.9297">session_json_store</text></g><!--entity config_json_store--><g class="entity" data-entity="config_json_store" data-source-line="36" data-uid="ent0026" id="entity_config_json_store"><path d="M2165.39,416.7979 C2165.39,406.7979 2230.2587,406.7979 2230.2587,406.7979 C2230.2587,406.7979 2295.1273,406.7979 2295.1273,416.7979 L2295.1273,441.8965 C2295.1273,451.8965 2230.2587,451.8965 2230.2587,451.8965 C2230.2587,451.8965 2165.39,451.8965 2165.39,441.8965 L2165.39,416.7979" fill="#FFE6E6" style="stroke:#000000;stroke-width:1;"/><path d="M2165.39,416.7979 C2165.39,426.7979 2230.2587,426.7979 2230.2587,426.7979 C2230.2587,426.7979 2295.1273,426.7979 2295.1273,416.7979" fill="none" style="stroke:#000000;stroke-width:1;"/><text fill="#000000" font-family="Arial" font-size="14" lengthAdjust="spacing" textLength="109.7373" x="2175.39" y="443.9297">config_json_store</text></g><!--link NOTE_ANCHOR to GMN3--><!--link handle_session_new to get_session_path_by_name--><g class="link" data-entity-1="handle_session_new" data-entity-2="get_session_path_by_name" data-source-line="37" data-uid="lnk27" id="link_handle_session_new_get_session_path_by_name"><path d="M2285.3,211.2679 C2336.72,235.0979 2407.6263,267.9648 2458.9763,291.7648" fill="none" id="handle_session_new-to-get_session_path_by_name" style="stroke:#333333;stroke-width:1;"/><polygon fill="#333333" points="2464.42,294.2879,2457.9365,286.8741,2459.8836,292.1853,2454.5724,294.1324,2464.42,294.2879" style="stroke:#333333;stroke-width:1;"/></g><!--link handle_session_new to create_session--><g class="link" data-entity-1="handle_session_new" data-entity-2="create_session" data-source-line="38" data-uid="lnk28" id="link_handle_session_new_create_session"><path d="M2175.22,211.2679 C2123.8,235.0979 2052.8939,267.9652 2001.5339,291.7652" fill="none" id="handle_session_new-to-create_session" style="stroke:#333333;stroke-width:1;"/><polygon fill="#333333" points="1996.09,294.2879,2005.9376,294.1331,2000.6266,292.1856,2002.5741,286.8746,1996.09,294.2879" style="stroke:#333333;stroke-width:1;"/></g><!--link handle_session_new to set_active_session_name--><g class="link" data-entity-1="handle_session_new" data-entity-2="set_active_session_name" data-source-line="39" data-uid="lnk29" id="link_handle_session_new_set_active_session_name"><path d="M2230.26,211.2679 C2230.26,235.0979 2230.26,264.4879 2230.26,288.2879" fill="none" id="handle_session_new-to-set_active_session_name" style="stroke:#333333;stroke-width:1;"/><polygon fill="#333333" points="2230.26,294.2879,2234.26,285.2879,2230.26,289.2879,2226.26,285.2879,2230.26,294.2879" style="stroke:#333333;stroke-width:1;"/></g><!--link handle_session_list to list_sessions--><g class="link" data-entity-1="handle_session_list" data-entity-2="list_sessions" data-source-line="40" data-uid="lnk30" id="link_handle_session_list_list_sessions"><path d="M3331.22,211.2679 C3279.8,235.0979 3208.8939,267.9652 3157.5339,291.7652" fill="none" id="handle_session_list-to-list_sessions" style="stroke:#333333;stroke-width:1;"/><polygon fill="#333333" points="3152.09,294.2879,3161.9376,294.1331,3156.6266,292.1856,3158.5741,286.8746,3152.09,294.2879" style="stroke:#333333;stroke-width:1;"/></g><!--link handle_session_list to get_active_session_name--><g class="link" data-entity-1="handle_session_list" data-entity-2="get_active_session_name" data-source-line="41" data-uid="lnk31" id="link_handle_session_list_get_active_session_name"><path d="M3386.26,211.2679 C3386.26,235.0979 3386.26,264.4879 3386.26,288.2879" fill="none" id="handle_session_list-to-get_active_session_name" style="stroke:#333333;stroke-width:1;"/><polygon fill="#333333" points="3386.26,294.2879,3390.26,285.2879,3386.26,289.2879,3382.26,285.2879,3386.26,294.2879" style="stroke:#333333;stroke-width:1;"/></g><!--link handle_session_list to get_session_details--><g class="link" data-entity-1="handle_session_list" data-entity-2="get_session_details" data-source-line="42" data-uid="lnk32" id="link_handle_session_list_get_session_details"><path d="M3441.3,211.2679 C3492.72,235.0979 3563.6263,267.9648 3614.9763,291.7648" fill="none" id="handle_session_list-to-get_session_details" style="stroke:#333333;stroke-width:1;"/><polygon fill="#333333" points="3620.42,294.2879,3613.9365,286.8741,3615.8836,292.1853,3610.5724,294.1324,3620.42,294.2879" style="stroke:#333333;stroke-width:1;"/></g><!--link handle_session_set to list_sessions--><g class="link" data-entity-1="handle_session_set" data-entity-2="list_sessions" data-source-line="43" data-uid="lnk33" id="link_handle_session_set_list_sessions"><path d="M2588.27,211.2479 C2611.85,219.3979 2638.51,228.0079 2663.26,234.5979 C2719.88,249.6879 2857.3493,275.9408 2963.8993,295.5708" fill="none" id="handle_session_set-to-list_sessions" style="stroke:#333333;stroke-width:1;"/><polygon fill="#333333" points="2969.8,296.6579,2961.6737,291.0934,2964.8828,295.7519,2960.2242,298.961,2969.8,296.6579" style="stroke:#333333;stroke-width:1;"/></g><!--link handle_session_set to get_session_path_by_name--><g class="link" data-entity-1="handle_session_set" data-entity-2="get_session_path_by_name" data-source-line="44" data-uid="lnk34" id="link_handle_session_set_get_session_path_by_name"><path d="M2519.26,211.2679 C2519.26,235.0979 2519.26,264.4879 2519.26,288.2879" fill="none" id="handle_session_set-to-get_session_path_by_name" style="stroke:#333333;stroke-width:1;"/><polygon fill="#333333" points="2519.26,294.2879,2523.26,285.2879,2519.26,289.2879,2515.26,285.2879,2519.26,294.2879" style="stroke:#333333;stroke-width:1;"/></g><!--link handle_session_set to set_active_session_name--><g class="link" data-entity-1="handle_session_set" data-entity-2="set_active_session_name" data-source-line="45" data-uid="lnk35" id="link_handle_session_set_set_active_session_name"><path d="M2464.22,211.2679 C2412.8,235.0979 2341.8939,267.9652 2290.5339,291.7652" fill="none" id="handle_session_set-to-set_active_session_name" style="stroke:#333333;stroke-width:1;"/><polygon fill="#333333" points="2285.09,294.2879,2294.9376,294.1331,2289.6266,292.1856,2291.5741,286.8746,2285.09,294.2879" style="stroke:#333333;stroke-width:1;"/></g><!--link handle_session_get to get_active_session_name--><g class="link" data-entity-1="handle_session_get" data-entity-2="get_active_session_name" data-source-line="46" data-uid="lnk36" id="link_handle_session_get_get_active_session_name"><path d="M3620.22,211.2679 C3568.8,235.0979 3497.8939,267.9652 3446.5339,291.7652" fill="none" id="handle_session_get-to-get_active_session_name" style="stroke:#333333;stroke-width:1;"/><polygon fill="#333333" points="3441.09,294.2879,3450.9376,294.1331,3445.6266,292.1856,3447.5741,286.8746,3441.09,294.2879" style="stroke:#333333;stroke-width:1;"/></g><!--link handle_session_get to get_session_details--><g class="link" data-entity-1="handle_session_get" data-entity-2="get_session_details" data-source-line="47" data-uid="lnk37" id="link_handle_session_get_get_session_details"><path d="M3675.26,211.2679 C3675.26,235.0979 3675.26,264.4879 3675.26,288.2879" fill="none" id="handle_session_get-to-get_session_details" style="stroke:#333333;stroke-width:1;"/><polygon fill="#333333" points="3675.26,294.2879,3679.26,285.2879,3675.26,289.2879,3671.26,285.2879,3675.26,294.2879" style="stroke:#333333;stroke-width:1;"/></g><!--link handle_session_remove to get_session_path_by_name--><g class="link" data-entity-1="handle_session_remove" data-entity-2="get_session_path_by_name" data-source-line="48" data-uid="lnk38" id="link_handle_session_remove_get_session_path_by_name"><path d="M2753.22,211.2679 C2701.8,235.0979 2630.8939,267.9652 2579.5339,291.7652" fill="none" id="handle_session_remove-to-get_session_path_by_name" style="stroke:#333333;stroke-width:1;"/><polygon fill="#333333" points="2574.09,294.2879,2583.9376,294.1331,2578.6266,292.1856,2580.5741,286.8746,2574.09,294.2879" style="stroke:#333333;stroke-width:1;"/></g><!--link handle_session_remove to remove_session--><g class="link" data-entity-1="handle_session_remove" data-entity-2="remove_session" data-source-line="49" data-uid="lnk39" id="link_handle_session_remove_remove_session"><path d="M2808.26,211.2679 C2808.26,235.0979 2808.26,264.4879 2808.26,288.2879" fill="none" id="handle_session_remove-to-remove_session" style="stroke:#333333;stroke-width:1;"/><polygon fill="#333333" points="2808.26,294.2879,2812.26,285.2879,2808.26,289.2879,2804.26,285.2879,2808.26,294.2879" style="stroke:#333333;stroke-width:1;"/></g><!--link handle_session_details to list_sessions--><g class="link" data-entity-1="handle_session_details" data-entity-2="list_sessions" data-source-line="50" data-uid="lnk40" id="link_handle_session_details_list_sessions"><path d="M3899.18,211.2779 C3874.77,219.9279 3846.56,228.8579 3820.26,234.5979 C3567.51,289.8379 3497.51,259.0379 3241.26,294.5979 C3235.85,295.3479 3236.2742,295.272 3230.7142,296.102" fill="none" id="handle_session_details-to-list_sessions" style="stroke:#333333;stroke-width:1;"/><polygon fill="#333333" points="3224.78,296.9879,3234.2719,299.6152,3229.7252,296.2496,3233.0908,291.7029,3224.78,296.9879" style="stroke:#333333;stroke-width:1;"/></g><!--link handle_session_details to get_session_details--><g class="link" data-entity-1="handle_session_details" data-entity-2="get_session_details" data-source-line="51" data-uid="lnk41" id="link_handle_session_details_get_session_details"><path d="M3909.22,211.2679 C3857.8,235.0979 3786.8939,267.9652 3735.5339,291.7652" fill="none" id="handle_session_details-to-get_session_details" style="stroke:#333333;stroke-width:1;"/><polygon fill="#333333" points="3730.09,294.2879,3739.9376,294.1331,3734.6266,292.1856,3736.5741,286.8746,3730.09,294.2879" style="stroke:#333333;stroke-width:1;"/></g><!--link handle_session_details to load_session--><g class="link" data-entity-1="handle_session_details" data-entity-2="load_session" data-source-line="52" data-uid="lnk42" id="link_handle_session_details_load_session"><path d="M4011.11,211.2679 C4054.88,235.0979 4114.6005,267.6186 4158.3105,291.4186" fill="none" id="handle_session_details-to-load_session" style="stroke:#333333;stroke-width:1;"/><polygon fill="#333333" points="4163.58,294.2879,4157.5886,286.471,4159.1888,291.8968,4153.7629,293.497,4163.58,294.2879" style="stroke:#333333;stroke-width:1;"/></g><!--link handle_session_details to list_build_targets--><g class="link" data-entity-1="handle_session_details" data-entity-2="list_build_targets" data-source-line="53" data-uid="lnk43" id="link_handle_session_details_list_build_targets"><path d="M3964.26,211.2679 C3964.26,235.0979 3964.26,264.4879 3964.26,288.2879" fill="none" id="handle_session_details-to-list_build_targets" style="stroke:#333333;stroke-width:1;"/><polygon fill="#333333" points="3964.26,294.2879,3968.26,285.2879,3964.26,289.2879,3960.26,285.2879,3964.26,294.2879" style="stroke:#333333;stroke-width:1;"/></g><!--link create_session to session_json_store--><g class="link" data-entity-1="create_session" data-entity-2="session_json_store" data-source-line="54" data-uid="lnk44" id="link_create_session_session_json_store"><path d="M2068.75,344.6379 C2074.32,345.4079 2079.84,346.1379 2085.26,346.7979 C2494.91,396.8179 2984.2743,418.8106 3164.9843,425.6606" fill="none" id="create_session-to-session_json_store" style="stroke:#333333;stroke-width:1;"/><polygon fill="#333333" points="3170.98,425.8879,3162.138,421.5498,3165.9836,425.6985,3161.8349,429.5441,3170.98,425.8879" style="stroke:#333333;stroke-width:1;"/></g><!--link set_active_session_name to config_json_store--><g class="link" data-entity-1="set_active_session_name" data-entity-2="config_json_store" data-source-line="55" data-uid="lnk45" id="link_set_active_session_name_config_json_store"><path d="M2230.26,347.2479 C2230.26,365.3579 2230.26,383.4179 2230.26,400.6179" fill="none" id="set_active_session_name-to-config_json_store" style="stroke:#333333;stroke-width:1;"/><polygon fill="#333333" points="2230.26,406.6179,2234.26,397.6179,2230.26,401.6179,2226.26,397.6179,2230.26,406.6179" style="stroke:#333333;stroke-width:1;"/></g><!--link get_session_details to session_json_store--><g class="link" data-entity-1="get_session_details" data-entity-2="session_json_store" data-source-line="56" data-uid="lnk46" id="link_get_session_details_session_json_store"><path d="M3571.3,347.2479 C3490.93,366.9979 3387.6867,392.366 3317.3267,409.656" fill="none" id="get_session_details-to-session_json_store" style="stroke:#333333;stroke-width:1;"/><polygon fill="#333333" points="3311.5,411.0879,3321.1945,412.8246,3316.3555,409.8947,3319.2854,405.0557,3311.5,411.0879" style="stroke:#333333;stroke-width:1;"/></g><!--link load_session to session_json_store--><g class="link" data-entity-1="load_session" data-entity-2="session_json_store" data-source-line="57" data-uid="lnk47" id="link_load_session_session_json_store"><path d="M4125.86,343.6579 C4120.26,344.8179 4114.69,345.8779 4109.26,346.7979 C3815.31,396.8379 3465.753,417.8681 3317.473,425.0381" fill="none" id="load_session-to-session_json_store" style="stroke:#333333;stroke-width:1;"/><polygon fill="#333333" points="3311.48,425.3279,3320.6627,428.8885,3316.4742,425.0864,3320.2763,420.8978,3311.48,425.3279" style="stroke:#333333;stroke-width:1;"/></g><!--link remove_session to session_json_store--><g class="link" data-entity-1="remove_session" data-entity-2="session_json_store" data-source-line="58" data-uid="lnk48" id="link_remove_session_session_json_store"><path d="M2911.97,347.2479 C2992.03,366.9679 3094.8241,392.283 3165.0241,409.573" fill="none" id="remove_session-to-session_json_store" style="stroke:#333333;stroke-width:1;"/><polygon fill="#333333" points="3170.85,411.0079,3163.0678,404.9716,3165.9951,409.8121,3161.1546,412.7394,3170.85,411.0079" style="stroke:#333333;stroke-width:1;"/></g><!--SRC=[dLVDRjiu4BxhAMRJInl04j02ERH00STMDbtuPv6cfpGGQ74iSqEH1adRoAKFigTzjdsIKhBaIWhPo18CsAQ-RxxXS6P8_c4sc2DiEM4Yq4zCR8aYEQn8-fGfkHDq8hbKyEQcV1e8Yckou-P62hCWri9OCS8RxyTAoKD5_b0-ZPSBQV1QAeggGapAfujmEM5HWM668qpcqv56hPaKC8Bw5qNS0XC6bI0SrbmUuArSQLHxfE_WxMmvVVyH9f8YJD4Gnjy5mKvZIZJ21H7fHgeB81eMo_iu6IycjykxOCCikZaWh7EWMBOn8DUjDm2Nbr_bJgNuyV8I7XweJ7LqaEgfS4H7-_SHKr6QqwZXV9XQRy9dadCu3_xu6A2WK7WJ10fJGqHcutAn8O9oJ2fy8l3mNUG4jL4op2NTSTJMI9vRM7B4AbrE-YKHtiHNDn_imllDSwRDCFi5iuU0ne7sBR67-Moe-QoNUOMvtECmXIEtXmWjKraFKwd8lv4vrD2LGa9JjSjN3QrAGuT5ujPMcq8kUXyrmtBaJE0GgPhRHqSROWRDfoIw56ngdCAx9MQJh9uJORjapmNoqLrIgOsfEIrcJu4soMNMrav2KiFsZNRGVm8UjakeQ08rg6y2jpY- -0_tFkllVNEbpYj21zCP7adeoyMjYLO1-J4a3PmtpAiTupGnH5dnisBT8hhC8sKcKL8Q2z9F2HD9CI9LJn4VtILrR8fd9doRT39BYI6hSkkl8_gFBkjQAgmIkJjSd4BYg_YgmKsbMBEiItqnUc8wjjdHwBEtwdtuTX7xK9vI35nxSO5lrPONbPrfrP7jWMEtVjM16jGtLZM-PnGoF6jw6VQUNRMLd-DxWz9Ety2pWRyQlIQmXyyjkut-ygf-grq4dStck1pTiWfyMqQPwTrI2bpTqsEurHazc4vxyA2EvtwEQ-UnFzxRQu8e3_x5_vU7_sWZSupqYijeYljeVknRKLv_7_jNrErVuVOP76Fsy3z4fJxSHCt3JI7H-J_GV6jZAins1rft5kyzwjGgYy3-_-z_C4EQeO9RUx7JTO2NrQtkrzNFTcGebuhQ6o3yzNMvWBLKEJ5Wxv2MNiwbBexe4n3ECdk0E32pWRkuRTHU2jL8Rp5bQvPM6LXO_H65ls9P38P5XhHjtIxdSNBxxJePpwnH-tbu2CF8VhxC_vx5ytXnFxx_ibmaitZwPtmNvXISByergAaAjr8P7V4o4abg5v7P2TiDpzAhy4nEWyqm_mG0]--></g></svg>