<svg xmlns="http://www.w3.org/2000/svg" xmlns:xlink="http://www.w3.org/1999/xlink" contentStyleType="text/css" data-diagram-type="DESCRIPTION" height="740px" preserveAspectRatio="none" style="width:2265px;height:740px;background:#FFFFFF;" version="1.1" viewBox="0 0 2265 740" width="2265px" zoomAndPan="magnify"><title>CMD-task - task deep internal flow (observed) (LOD1: Code Functions)</title><defs/><g><g class="title" data-source-line="8"><text fill="#000000" font-family="Arial" font-size="22" font-weight="bold" lengthAdjust="spacing" textLength="735.8506" x="760.0912" y="35.6357">CMD-task - task deep internal flow (observed) (LOD1: Code Functions)</text></g><!--entity NOTE_ANCHOR--><!--entity main_entry--><g class="entity" data-entity="main_entry" data-source-line="16" data-uid="ent0006" id="entity_main_entry"><rect fill="#FFFFFF" height="52.1973" rx="2.5" ry="2.5" style="stroke:#000000;stroke-width:1;" width="132.8066" x="1247.88" y="160.8979"/><text fill="#000000" font-family="Arial" font-size="14" lengthAdjust="spacing" textLength="69.2549" x="1257.88" y="184.0297">main_entry</text><text fill="#000000" font-family="Arial" font-size="14" lengthAdjust="spacing" textLength="112.8066" x="1257.88" y="200.1283">(maestro/main.py)</text></g><!--entity handle_task_command--><g class="entity" data-entity="handle_task_command" data-source-line="17" data-uid="ent0007" id="entity_handle_task_command"><rect fill="#FFFFFF" height="52.1973" rx="2.5" ry="2.5" style="stroke:#000000;stroke-width:1;" width="200.4961" x="1214.04" y="296.8479"/><text fill="#000000" font-family="Arial" font-size="14" lengthAdjust="spacing" textLength="144.7578" x="1224.04" y="319.9797">handle_task_command</text><text fill="#000000" font-family="Arial" font-size="14" lengthAdjust="spacing" textLength="180.4961" x="1224.04" y="336.0783">(maestro/commands/task.py)</text></g><!--entity list_tasks--><g class="entity" data-entity="list_tasks" data-source-line="18" data-uid="ent0008" id="entity_list_tasks"><rect fill="#FFFFFF" height="52.1973" rx="2.5" ry="2.5" style="stroke:#000000;stroke-width:1;" width="200.4961" x="392.04" y="409.0479"/><text fill="#000000" font-family="Arial" font-size="14" lengthAdjust="spacing" textLength="57.5723" x="402.04" y="432.1797">list_tasks</text><text fill="#000000" font-family="Arial" font-size="14" lengthAdjust="spacing" textLength="180.4961" x="402.04" y="448.2783">(maestro/commands/task.py)</text></g><!--entity show_task--><g class="entity" data-entity="show_task" data-source-line="19" data-uid="ent0009" id="entity_show_task"><rect fill="#FFFFFF" height="52.1973" rx="2.5" ry="2.5" style="stroke:#000000;stroke-width:1;" width="200.4961" x="627.04" y="409.0479"/><text fill="#000000" font-family="Arial" font-size="14" lengthAdjust="spacing" textLength="66.1445" x="637.04" y="432.1797">show_task</text><text fill="#000000" font-family="Arial" font-size="14" lengthAdjust="spacing" textLength="180.4961" x="637.04" y="448.2783">(maestro/commands/task.py)</text></g><!--entity add_task--><g class="entity" data-entity="add_task" data-source-line="20" data-uid="ent0010" id="entity_add_task"><rect fill="#FFFFFF" height="52.1973" rx="2.5" ry="2.5" style="stroke:#000000;stroke-width:1;" width="200.4961" x="862.04" y="409.0479"/><text fill="#000000" font-family="Arial" font-size="14" lengthAdjust="spacing" textLength="56.8203" x="872.04" y="432.1797">add_task</text><text fill="#000000" font-family="Arial" font-size="14" lengthAdjust="spacing" textLength="180.4961" x="872.04" y="448.2783">(maestro/commands/task.py)</text></g><!--entity remove_task--><g class="entity" data-entity="remove_task" data-source-line="21" data-uid="ent0011" id="entity_remove_task"><rect fill="#FFFFFF" height="52.1973" rx="2.5" ry="2.5" style="stroke:#000000;stroke-width:1;" width="200.4961" x="1097.04" y="409.0479"/><text fill="#000000" font-family="Arial" font-size="14" lengthAdjust="spacing" textLength="80.1445" x="1107.04" y="432.1797">remove_task</text><text fill="#000000" font-family="Arial" font-size="14" lengthAdjust="spacing" textLength="180.4961" x="1107.04" y="448.2783">(maestro/commands/task.py)</text></g><!--entity edit_task--><g class="entity" data-entity="edit_task" data-source-line="22" data-uid="ent0012" id="entity_edit_task"><rect fill="#FFFFFF" height="52.1973" rx="2.5" ry="2.5" style="stroke:#000000;stroke-width:1;" width="200.4961" x="1567.04" y="409.0479"/><text fill="#000000" font-family="Arial" font-size="14" lengthAdjust="spacing" textLength="56.0342" x="1577.04" y="432.1797">edit_task</text><text fill="#000000" font-family="Arial" font-size="14" lengthAdjust="spacing" textLength="180.4961" x="1577.04" y="448.2783">(maestro/commands/task.py)</text></g><!--entity set_task_status--><g class="entity" data-entity="set_task_status" data-source-line="23" data-uid="ent0013" id="entity_set_task_status"><rect fill="#FFFFFF" height="52.1973" rx="2.5" ry="2.5" style="stroke:#000000;stroke-width:1;" width="200.4961" x="1332.04" y="409.0479"/><text fill="#000000" font-family="Arial" font-size="14" lengthAdjust="spacing" textLength="97.2754" x="1342.04" y="432.1797">set_task_status</text><text fill="#000000" font-family="Arial" font-size="14" lengthAdjust="spacing" textLength="180.4961" x="1342.04" y="448.2783">(maestro/commands/task.py)</text></g><!--entity set_task_context--><g class="entity" data-entity="set_task_context" data-source-line="24" data-uid="ent0014" id="entity_set_task_context"><rect fill="#FFFFFF" height="52.1973" rx="2.5" ry="2.5" style="stroke:#000000;stroke-width:1;" width="200.4961" x="1802.04" y="409.0479"/><text fill="#000000" font-family="Arial" font-size="14" lengthAdjust="spacing" textLength="105.0615" x="1812.04" y="432.1797">set_task_context</text><text fill="#000000" font-family="Arial" font-size="14" lengthAdjust="spacing" textLength="180.4961" x="1812.04" y="448.2783">(maestro/commands/task.py)</text></g><!--entity handle_task_discuss--><g class="entity" data-entity="handle_task_discuss" data-source-line="25" data-uid="ent0015" id="entity_handle_task_discuss"><rect fill="#FFFFFF" height="52.1973" rx="2.5" ry="2.5" style="stroke:#000000;stroke-width:1;" width="221.5029" x="2037.53" y="409.0479"/><text fill="#000000" font-family="Arial" font-size="14" lengthAdjust="spacing" textLength="129.9717" x="2047.53" y="432.1797">handle_task_discuss</text><text fill="#000000" font-family="Arial" font-size="14" lengthAdjust="spacing" textLength="201.5029" x="2047.53" y="448.2783">(maestro/commands/discuss.py)</text></g><!--entity render_task_table--><g class="entity" data-entity="render_task_table" data-source-line="26" data-uid="ent0016" id="entity_render_task_table"><rect fill="#FFFFFF" height="52.1973" rx="2.5" ry="2.5" style="stroke:#000000;stroke-width:1;" width="240.9922" x="371.79" y="533.6879"/><text fill="#000000" font-family="Arial" font-size="14" lengthAdjust="spacing" textLength="112.0752" x="381.79" y="556.8197">render_task_table</text><text fill="#000000" font-family="Arial" font-size="14" lengthAdjust="spacing" textLength="220.9922" x="381.79" y="572.9183">(maestro/display/table_renderer.py)</text></g><!--entity json_store--><g class="entity" data-entity="json_store" data-source-line="37" data-uid="ent0027" id="entity_json_store"><ellipse cx="1197.2864" cy="530.2379" fill="#FFFFFF" rx="8" ry="8" style="stroke:#000000;stroke-width:1;"/><path d="M1197.2864,538.2379 L1197.2864,565.2379 M1184.2864,546.2379 L1210.2864,546.2379 M1197.2864,565.2379 L1184.2864,580.2379 M1197.2864,565.2379 L1210.2864,580.2379" fill="none" style="stroke:#000000;stroke-width:1;"/><text fill="#000000" font-family="Arial" font-size="14" lengthAdjust="spacing" textLength="64.5928" x="1164.99" y="595.3697">json_store</text></g><!--entity markdown_writer--><g class="entity" data-entity="markdown_writer" data-source-line="40" data-uid="ent0031" id="entity_markdown_writer"><ellipse cx="1604.283" cy="530.2379" fill="#FFFFFF" rx="8" ry="8" style="stroke:#000000;stroke-width:1;"/><path d="M1604.283,538.2379 L1604.283,565.2379 M1591.283,546.2379 L1617.283,546.2379 M1604.283,565.2379 L1591.283,580.2379 M1604.283,565.2379 L1617.283,580.2379" fill="none" style="stroke:#000000;stroke-width:1;"/><text fill="#000000" font-family="Arial" font-size="14" lengthAdjust="spacing" textLength="106.5859" x="1550.99" y="595.3697">markdown_writer</text></g><!--entity editor_actor--><g class="entity" data-entity="editor_actor" data-source-line="41" data-uid="ent0033" id="entity_editor_actor"><ellipse cx="1729.2853" cy="530.2379" fill="#FFFFFF" rx="8" ry="8" style="stroke:#000000;stroke-width:1;"/><path d="M1729.2853,538.2379 L1729.2853,565.2379 M1716.2853,546.2379 L1742.2853,546.2379 M1729.2853,565.2379 L1716.2853,580.2379 M1729.2853,565.2379 L1742.2853,580.2379" fill="none" style="stroke:#000000;stroke-width:1;"/><text fill="#000000" font-family="Arial" font-size="14" lengthAdjust="spacing" textLength="73.9307" x="1692.32" y="595.3697">editor_actor</text></g><!--entity settings--><g class="entity" data-entity="settings" data-source-line="42" data-uid="ent0035" id="entity_settings"><ellipse cx="1902.284" cy="530.2379" fill="#FFFFFF" rx="8" ry="8" style="stroke:#000000;stroke-width:1;"/><path d="M1902.284,538.2379 L1902.284,565.2379 M1889.284,546.2379 L1915.284,546.2379 M1902.284,565.2379 L1889.284,580.2379 M1902.284,565.2379 L1915.284,580.2379" fill="none" style="stroke:#000000;stroke-width:1;"/><text fill="#000000" font-family="Arial" font-size="14" lengthAdjust="spacing" textLength="48.248" x="1878.16" y="595.3697">settings</text></g><!--entity maestro_tasks_json--><g class="entity" data-entity="maestro_tasks_json" data-source-line="43" data-uid="ent0037" id="entity_maestro_tasks_json"><ellipse cx="1114.2815" cy="667.3379" fill="#FFFFFF" rx="8" ry="8" style="stroke:#000000;stroke-width:1;"/><path d="M1114.2815,675.3379 L1114.2815,702.3379 M1101.2815,683.3379 L1127.2815,683.3379 M1114.2815,702.3379 L1101.2815,717.3379 M1114.2815,702.3379 L1127.2815,717.3379" fill="none" style="stroke:#000000;stroke-width:1;"/><text fill="#000000" font-family="Arial" font-size="14" lengthAdjust="spacing" textLength="124.5029" x="1052.03" y="732.4697">maestro_tasks_json</text></g><!--entity maestro_phases_json--><g class="entity" data-entity="maestro_phases_json" data-source-line="44" data-uid="ent0039" id="entity_maestro_phases_json"><ellipse cx="1280.2858" cy="667.3379" fill="#FFFFFF" rx="8" ry="8" style="stroke:#000000;stroke-width:1;"/><path d="M1280.2858,675.3379 L1280.2858,702.3379 M1267.2858,683.3379 L1293.2858,683.3379 M1280.2858,702.3379 L1267.2858,717.3379 M1280.2858,702.3379 L1293.2858,717.3379" fill="none" style="stroke:#000000;stroke-width:1;"/><text fill="#000000" font-family="Arial" font-size="14" lengthAdjust="spacing" textLength="136.9717" x="1211.8" y="732.4697">maestro_phases_json</text></g><!--entity docs_phases_md--><g class="entity" data-entity="docs_phases_md" data-source-line="45" data-uid="ent0041" id="entity_docs_phases_md"><ellipse cx="1604.2887" cy="667.3379" fill="#FFFFFF" rx="8" ry="8" style="stroke:#000000;stroke-width:1;"/><path d="M1604.2887,675.3379 L1604.2887,702.3379 M1591.2887,683.3379 L1617.2887,683.3379 M1604.2887,702.3379 L1591.2887,717.3379 M1604.2887,702.3379 L1617.2887,717.3379" fill="none" style="stroke:#000000;stroke-width:1;"/><text fill="#000000" font-family="Arial" font-size="14" lengthAdjust="spacing" textLength="109.7373" x="1549.42" y="732.4697">docs_phases_md</text></g><!--entity settings_json--><g class="entity" data-entity="settings_json" data-source-line="46" data-uid="ent0043" id="entity_settings_json"><ellipse cx="1902.2884" cy="667.3379" fill="#FFFFFF" rx="8" ry="8" style="stroke:#000000;stroke-width:1;"/><path d="M1902.2884,675.3379 L1902.2884,702.3379 M1889.2884,683.3379 L1915.2884,683.3379 M1902.2884,702.3379 L1889.2884,717.3379 M1902.2884,702.3379 L1915.2884,717.3379" fill="none" style="stroke:#000000;stroke-width:1;"/><text fill="#000000" font-family="Arial" font-size="14" lengthAdjust="spacing" textLength="81.7168" x="1861.43" y="732.4697">settings_json</text></g><!--link NOTE_ANCHOR to GMN3--><!--link main_entry to handle_task_command--><g class="link" data-entity-1="main_entry" data-entity-2="handle_task_command" data-source-line="27" data-uid="lnk17" id="link_main_entry_handle_task_command"><path d="M1314.28,213.5079 C1314.28,237.3479 1314.28,266.7279 1314.28,290.5279" fill="none" id="main_entry-to-handle_task_command" style="stroke:#333333;stroke-width:1;"/><polygon fill="#333333" points="1314.28,296.5279,1318.28,287.5279,1314.28,291.5279,1310.28,287.5279,1314.28,296.5279" style="stroke:#333333;stroke-width:1;"/></g><!--link handle_task_command to list_tasks--><g class="link" data-entity-1="handle_task_command" data-entity-2="list_tasks" data-source-line="28" data-uid="lnk18" id="link_handle_task_command_list_tasks"><path d="M1213.76,333.1679 C1076.62,346.4079 823.44,373.2279 609.28,409.0479 C603.96,409.9379 604.4094,409.8138 598.9094,410.8338" fill="none" id="handle_task_command-to-list_tasks" style="stroke:#333333;stroke-width:1;"/><polygon fill="#333333" points="593.01,411.9279,602.5885,414.2197,597.9262,411.0161,601.1297,406.3538,593.01,411.9279" style="stroke:#333333;stroke-width:1;"/></g><!--link handle_task_command to show_task--><g class="link" data-entity-1="handle_task_command" data-entity-2="show_task" data-source-line="29" data-uid="lnk19" id="link_handle_task_command_show_task"><path d="M1213.71,341.1879 C1118.43,357.7579 971.39,383.9079 844.28,409.0479 C838.88,410.1079 839.229,410.0289 833.639,411.1689" fill="none" id="handle_task_command-to-show_task" style="stroke:#333333;stroke-width:1;"/><polygon fill="#333333" points="827.76,412.3679,837.3778,414.4888,832.6592,411.3687,835.7792,406.6501,827.76,412.3679" style="stroke:#333333;stroke-width:1;"/></g><!--link handle_task_command to add_task--><g class="link" data-entity-1="handle_task_command" data-entity-2="add_task" data-source-line="30" data-uid="lnk20" id="link_handle_task_command_add_task"><path d="M1232.64,349.5079 C1175.88,367.2779 1106.246,389.0753 1049.516,406.8353" fill="none" id="handle_task_command-to-add_task" style="stroke:#333333;stroke-width:1;"/><polygon fill="#333333" points="1043.79,408.6279,1053.574,409.7563,1048.5616,407.134,1051.1839,402.1217,1043.79,408.6279" style="stroke:#333333;stroke-width:1;"/></g><!--link handle_task_command to remove_task--><g class="link" data-entity-1="handle_task_command" data-entity-2="remove_task" data-source-line="31" data-uid="lnk21" id="link_handle_task_command_remove_task"><path d="M1287.15,349.5079 C1268.25,367.3079 1247.508,386.8344 1228.638,404.6044" fill="none" id="handle_task_command-to-remove_task" style="stroke:#333333;stroke-width:1;"/><polygon fill="#333333" points="1224.27,408.7179,1233.5643,405.4598,1227.91,405.29,1228.0798,399.6357,1224.27,408.7179" style="stroke:#333333;stroke-width:1;"/></g><!--link handle_task_command to edit_task--><g class="link" data-entity-1="handle_task_command" data-entity-2="edit_task" data-source-line="32" data-uid="lnk22" id="link_handle_task_command_edit_task"><path d="M1396.16,349.5079 C1453.08,367.2779 1522.9326,389.0799 1579.8226,406.8399" fill="none" id="handle_task_command-to-edit_task" style="stroke:#333333;stroke-width:1;"/><polygon fill="#333333" points="1585.55,408.6279,1578.1509,402.1276,1580.7772,407.1379,1575.7669,409.7641,1585.55,408.6279" style="stroke:#333333;stroke-width:1;"/></g><!--link handle_task_command to set_task_status--><g class="link" data-entity-1="handle_task_command" data-entity-2="set_task_status" data-source-line="33" data-uid="lnk23" id="link_handle_task_command_set_task_status"><path d="M1341.65,349.5079 C1360.72,367.3079 1381.6436,386.854 1400.6836,404.624" fill="none" id="handle_task_command-to-set_task_status" style="stroke:#333333;stroke-width:1;"/><polygon fill="#333333" points="1405.07,408.7179,1401.2196,399.6528,1401.4147,405.3063,1395.7612,405.5014,1405.07,408.7179" style="stroke:#333333;stroke-width:1;"/></g><!--link handle_task_command to set_task_context--><g class="link" data-entity-1="handle_task_command" data-entity-2="set_task_context" data-source-line="34" data-uid="lnk24" id="link_handle_task_command_set_task_context"><path d="M1414.61,341.0979 C1510.09,357.6479 1657.71,383.8379 1785.28,409.0479 C1790.69,410.1079 1790.341,410.0289 1795.931,411.1689" fill="none" id="handle_task_command-to-set_task_context" style="stroke:#333333;stroke-width:1;"/><polygon fill="#333333" points="1801.81,412.3679,1793.7908,406.6501,1796.9108,411.3687,1792.1922,414.4888,1801.81,412.3679" style="stroke:#333333;stroke-width:1;"/></g><!--link handle_task_command to handle_task_discuss--><g class="link" data-entity-1="handle_task_command" data-entity-2="handle_task_discuss" data-source-line="35" data-uid="lnk25" id="link_handle_task_command_handle_task_discuss"><path d="M1414.86,333.7079 C1552.09,347.5779 1805.51,375.0879 2020.28,409.0479 C2025.88,409.9279 2025.6881,409.8533 2031.4581,410.8533" fill="none" id="handle_task_command-to-handle_task_discuss" style="stroke:#333333;stroke-width:1;"/><polygon fill="#333333" points="2037.37,411.8779,2029.1853,406.3997,2032.4434,411.024,2027.8191,414.2822,2037.37,411.8779" style="stroke:#333333;stroke-width:1;"/></g><!--link list_tasks to render_task_table--><g class="link" data-entity-1="list_tasks" data-entity-2="render_task_table" data-source-line="36" data-uid="lnk26" id="link_list_tasks_render_task_table"><path d="M492.28,461.5579 C492.28,482.6079 492.28,506.3679 492.28,527.4079" fill="none" id="list_tasks-to-render_task_table" style="stroke:#333333;stroke-width:1;"/><polygon fill="#333333" points="492.28,533.4079,496.28,524.4079,492.28,528.4079,488.28,524.4079,492.28,533.4079" style="stroke:#333333;stroke-width:1;"/></g><!--link add_task to json_store--><g class="link" data-entity-1="add_task" data-entity-2="json_store" data-source-line="37" data-uid="lnk28" id="link_add_task_json_store"><path d="M1011.26,461.7079 C1057.27,485.7179 1119.4908,518.1919 1159.2708,538.9519" fill="none" id="add_task-to-json_store" style="stroke:#333333;stroke-width:1;"/><polygon fill="#333333" points="1164.59,541.7279,1158.4618,534.0178,1160.1573,539.4146,1154.7605,541.1101,1164.59,541.7279" style="stroke:#333333;stroke-width:1;"/></g><!--link remove_task to json_store--><g class="link" data-entity-1="remove_task" data-entity-2="json_store" data-source-line="38" data-uid="lnk29" id="link_remove_task_json_store"><path d="M1197.28,461.5579 C1197.28,478.6779 1197.28,495.5579 1197.28,514.8279" fill="none" id="remove_task-to-json_store" style="stroke:#333333;stroke-width:1;"/><polygon fill="#333333" points="1197.28,520.8279,1201.28,511.8279,1197.28,515.8279,1193.28,511.8279,1197.28,520.8279" style="stroke:#333333;stroke-width:1;"/></g><!--link set_task_status to json_store--><g class="link" data-entity-1="set_task_status" data-entity-2="json_store" data-source-line="39" data-uid="lnk30" id="link_set_task_status_json_store"><path d="M1383.31,461.7079 C1337.3,485.7179 1275.0792,518.1919 1235.2992,538.9519" fill="none" id="set_task_status-to-json_store" style="stroke:#333333;stroke-width:1;"/><polygon fill="#333333" points="1229.98,541.7279,1239.8095,541.1101,1234.4127,539.4146,1236.1082,534.0178,1229.98,541.7279" style="stroke:#333333;stroke-width:1;"/></g><!--link edit_task to markdown_writer--><g class="link" data-entity-1="edit_task" data-entity-2="markdown_writer" data-source-line="40" data-uid="lnk32" id="link_edit_task_markdown_writer"><path d="M1654.23,461.5579 C1645.44,478.6779 1636.4218,496.221 1626.5218,515.491" fill="none" id="edit_task-to-markdown_writer" style="stroke:#333333;stroke-width:1;"/><polygon fill="#333333" points="1623.78,520.8279,1631.4507,514.6504,1626.0649,516.3804,1624.3348,510.9946,1623.78,520.8279" style="stroke:#333333;stroke-width:1;"/></g><!--link edit_task to editor_actor--><g class="link" data-entity-1="edit_task" data-entity-2="editor_actor" data-source-line="41" data-uid="lnk34" id="link_edit_task_editor_actor"><path d="M1680.13,461.5579 C1688.79,478.6779 1697.6434,496.203 1707.3834,515.473" fill="none" id="edit_task-to-editor_actor" style="stroke:#333333;stroke-width:1;"/><polygon fill="#333333" points="1710.09,520.8279,1709.6,510.9912,1707.8345,516.3655,1702.4602,514.6,1710.09,520.8279" style="stroke:#333333;stroke-width:1;"/></g><!--link set_task_context to settings--><g class="link" data-entity-1="set_task_context" data-entity-2="settings" data-source-line="42" data-uid="lnk36" id="link_set_task_context_settings"><path d="M1902.28,461.5579 C1902.28,478.6779 1902.28,495.5579 1902.28,514.8279" fill="none" id="set_task_context-to-settings" style="stroke:#333333;stroke-width:1;"/><polygon fill="#333333" points="1902.28,520.8279,1906.28,511.8279,1902.28,515.8279,1898.28,511.8279,1902.28,520.8279" style="stroke:#333333;stroke-width:1;"/></g><!--link json_store to maestro_tasks_json--><g class="link" data-entity-1="json_store" data-entity-2="maestro_tasks_json" data-source-line="43" data-uid="lnk38" id="link_json_store_maestro_tasks_json"><path d="M1173.94,598.7779 C1162.53,617.3579 1151.982,634.5363 1140.592,653.0663" fill="none" id="json_store-to-maestro_tasks_json" style="stroke:#333333;stroke-width:1;"/><polygon fill="#333333" points="1137.45,658.1779,1145.5707,652.6052,1140.0683,653.9182,1138.7552,648.4159,1137.45,658.1779" style="stroke:#333333;stroke-width:1;"/></g><!--link json_store to maestro_phases_json--><g class="link" data-entity-1="json_store" data-entity-2="maestro_phases_json" data-source-line="44" data-uid="lnk40" id="link_json_store_maestro_phases_json"><path d="M1220.63,598.7779 C1232.04,617.3579 1242.588,634.5363 1253.978,653.0663" fill="none" id="json_store-to-maestro_phases_json" style="stroke:#333333;stroke-width:1;"/><polygon fill="#333333" points="1257.12,658.1779,1255.8148,648.4159,1254.5017,653.9182,1248.9993,652.6052,1257.12,658.1779" style="stroke:#333333;stroke-width:1;"/></g><!--link markdown_writer to docs_phases_md--><g class="link" data-entity-1="markdown_writer" data-entity-2="docs_phases_md" data-source-line="45" data-uid="lnk42" id="link_markdown_writer_docs_phases_md"><path d="M1604.28,598.7779 C1604.28,617.3579 1604.28,633.6479 1604.28,652.1779" fill="none" id="markdown_writer-to-docs_phases_md" style="stroke:#333333;stroke-width:1;"/><polygon fill="#333333" points="1604.28,658.1779,1608.28,649.1779,1604.28,653.1779,1600.28,649.1779,1604.28,658.1779" style="stroke:#333333;stroke-width:1;"/></g><!--link settings to settings_json--><g class="link" data-entity-1="settings" data-entity-2="settings_json" data-source-line="46" data-uid="lnk44" id="link_settings_settings_json"><path d="M1902.28,598.7779 C1902.28,617.3579 1902.28,633.6479 1902.28,652.1779" fill="none" id="settings-to-settings_json" style="stroke:#333333;stroke-width:1;"/><polygon fill="#333333" points="1902.28,658.1779,1906.28,649.1779,1902.28,653.1779,1898.28,649.1779,1902.28,658.1779" style="stroke:#333333;stroke-width:1;"/></g><!--SRC=[bLPHJzim47xFhxYn5q1g8vYq1oPDOgKC9cWdu8sXoCJNrcjYPxRJmb_PqtxRVidERjAw8L6xA4hak-_xV3vVV7bdPvWZ51aJCZ9p8GkcMGxFB9rFjIeb7wXCQNX_wQy0mN72oinUAcb7Z1JEjM1Pu3_NMYqhyWT_1SwHilX5QOwwGWpyrKIq1K6eo0gR8GnkBtgMcJdqmByuOW52MjIIPJ39r18ErRD1lK1-18StuukJCnWeZd1PojGA9SrH59K6KsOG3fXCPqeV03Cm6ZyCa_FHu6fy5yq44KA3fCX0Y-dCWffiUG2EZ-zLgLCyEpw6nqUkKXClbPwxM4oyE8s5ZjESntNa_PIYwR-oF8F_m3uzHIWvk3YYI6DgcPnIEWvosi84fTMlF-HXpj1OhM9dx1UlHtvT6qJ8cp79CqpS94cgyfo6WK1bCR4FebPguOIIcJ3MEyrEfGqq530pjVJMdVmrCgGpplTZry2Gh35N2zoF7s132UJ2xYUmHcwj7bUsn5XcozqvRE1RfLBwKF75xgzL4RegXGkJbgOrjihLMYoLRplVaWw2bTkovmm3JOBJqVGQUtkoGg8Eqj-WHfiIXrxlSskTjjWyDgZ4BiYcsBeGwuBg0eGLquNP54Ld88qTtuchTxCBsBP7cuHKaJUJNI_MktyQ9IaSfJ4ArjXqDG9lkjShzuwSwJbNIvaijQ1ZlU5r8wKJbj8pQYwqNhqLScgYpGoLhg-krTeIv-n253Fg3HMa4Ot7kMEx1kKygYVScdt5NlMD32UjRMEue3OZVUDmOseUYvEuxcMnwsok6LJRGwD-KLBJU6kYth2YD_f9rpSFrNiNZpFBuaO27FsjQPUIrTJLJRp9jvFP6ctrjyvkw_u6XX-77ttw_lx-0pV8fxGhLvGrKwTnNBL_kA3uRwjOeK1jgBHTlkb_OPt5rG-4Y_OJB4wft0i5LfTs1lIFOE3R_NZaHU_f4A1UAbv8DvJAgK5di1H4U5RqS0HmtzTwued8q7XnKs1AC_mg1HKz0DsFZ_r-JFVrxVURuUrmz73-S3qU9JV3Yw_3ktxEeTNXirrJNSJQcZZpcKXIcblGng5nz2ezWxKnJFC_]--></g></svg>