<svg xmlns="http://www.w3.org/2000/svg" xmlns:xlink="http://www.w3.org/1999/xlink" contentStyleType="text/css" data-diagram-type="DESCRIPTION" height="1255px" preserveAspectRatio="none" style="width:967px;height:1255px;background:#FFFFFF;" version="1.1" viewBox="0 0 967 1255" width="967px" zoomAndPan="magnify"><title>CMD-discuss - discuss command surface (LOD1: CLI Flow)</title><defs/><g><g class="title" data-source-line="8"><text fill="#000000" font-family="Arial" font-size="22" font-weight="bold" lengthAdjust="spacing" textLength="619.7705" x="169.2979" y="35.6357">CMD-discuss - discuss command surface (LOD1: CLI Flow)</text></g><!--entity NOTE_ANCHOR--><!--entity cli_parse--><g class="entity" data-entity="cli_parse" data-source-line="16" data-uid="ent0006" id="entity_cli_parse"><rect fill="#FFFFFF" height="36.0986" rx="2.5" ry="2.5" style="stroke:#000000;stroke-width:1;" width="172.5029" x="689.91" y="66.6679"/><text fill="#000000" font-family="Arial" font-size="14" lengthAdjust="spacing" textLength="152.5029" x="699.91" y="89.7997">Parse discuss command</text></g><!--entity session_check--><g class="entity" data-entity="session_check" data-source-line="17" data-uid="ent0007" id="entity_session_check"><rect fill="#FFFFFF" height="46.0986" rx="2.5" ry="2.5" style="stroke:#000000;stroke-width:1;" width="188.6338" x="681.85" y="172.1379"/><rect fill="#FFFFFF" height="10" style="stroke:#000000;stroke-width:1;" width="15" x="850.4838" y="177.1379"/><rect fill="#FFFFFF" height="2" style="stroke:#000000;stroke-width:1;" width="4" x="848.4838" y="179.1379"/><rect fill="#FFFFFF" height="2" style="stroke:#000000;stroke-width:1;" width="4" x="848.4838" y="183.1379"/><text fill="#000000" font-family="Arial" font-size="14" lengthAdjust="spacing" textLength="148.6338" x="696.85" y="205.2697">Check session provided</text></g><!--entity load_session--><g class="entity" data-entity="load_session" data-source-line="18" data-uid="ent0008" id="entity_load_session"><rect fill="#FFFFFF" height="46.0986" rx="2.5" ry="2.5" style="stroke:#000000;stroke-width:1;" width="122.5029" x="621.91" y="278.2379"/><rect fill="#FFFFFF" height="10" style="stroke:#000000;stroke-width:1;" width="15" x="724.4129" y="283.2379"/><rect fill="#FFFFFF" height="2" style="stroke:#000000;stroke-width:1;" width="4" x="722.4129" y="285.2379"/><rect fill="#FFFFFF" height="2" style="stroke:#000000;stroke-width:1;" width="4" x="722.4129" y="289.2379"/><text fill="#000000" font-family="Arial" font-size="14" lengthAdjust="spacing" textLength="82.5029" x="636.91" y="311.3697">Load session</text></g><!--entity validate_session--><g class="entity" data-entity="validate_session" data-source-line="19" data-uid="ent0009" id="entity_validate_session"><rect fill="#FFFFFF" height="46.0986" rx="2.5" ry="2.5" style="stroke:#000000;stroke-width:1;" width="194.8613" x="585.73" y="384.3379"/><rect fill="#FFFFFF" height="10" style="stroke:#000000;stroke-width:1;" width="15" x="760.5913" y="389.3379"/><rect fill="#FFFFFF" height="2" style="stroke:#000000;stroke-width:1;" width="4" x="758.5913" y="391.3379"/><rect fill="#FFFFFF" height="2" style="stroke:#000000;stroke-width:1;" width="4" x="758.5913" y="395.3379"/><text fill="#000000" font-family="Arial" font-size="14" lengthAdjust="spacing" textLength="154.8613" x="600.73" y="417.4697">Validate session schema</text></g><!--entity route_discuss--><g class="entity" data-entity="route_discuss" data-source-line="20" data-uid="ent0010" id="entity_route_discuss"><rect fill="#FFFFFF" height="46.0986" rx="2.5" ry="2.5" style="stroke:#000000;stroke-width:1;" width="194.0889" x="586.12" y="490.4379"/><rect fill="#FFFFFF" height="10" style="stroke:#000000;stroke-width:1;" width="15" x="760.2089" y="495.4379"/><rect fill="#FFFFFF" height="2" style="stroke:#000000;stroke-width:1;" width="4" x="758.2089" y="497.4379"/><rect fill="#FFFFFF" height="2" style="stroke:#000000;stroke-width:1;" width="4" x="758.2089" y="501.4379"/><text fill="#000000" font-family="Arial" font-size="14" lengthAdjust="spacing" textLength="154.0889" x="601.12" y="523.5697">Route to discuss handler</text></g><!--entity read_docs_truth--><g class="entity" data-entity="read_docs_truth" data-source-line="21" data-uid="ent0011" id="entity_read_docs_truth"><rect fill="#FFFFFF" height="46.0986" rx="2.5" ry="2.5" style="stroke:#000000;stroke-width:1;" width="138.834" x="613.75" y="596.5379"/><rect fill="#FFFFFF" height="10" style="stroke:#000000;stroke-width:1;" width="15" x="732.584" y="601.5379"/><rect fill="#FFFFFF" height="2" style="stroke:#000000;stroke-width:1;" width="4" x="730.584" y="603.5379"/><rect fill="#FFFFFF" height="2" style="stroke:#000000;stroke-width:1;" width="4" x="730.584" y="607.5379"/><text fill="#000000" font-family="Arial" font-size="14" lengthAdjust="spacing" textLength="98.834" x="628.75" y="629.6697">Read docs truth</text></g><!--entity init_ai_interface--><g class="entity" data-entity="init_ai_interface" data-source-line="22" data-uid="ent0012" id="entity_init_ai_interface"><rect fill="#FFFFFF" height="46.0986" rx="2.5" ry="2.5" style="stroke:#000000;stroke-width:1;" width="234.5371" x="565.9" y="702.6379"/><rect fill="#FFFFFF" height="10" style="stroke:#000000;stroke-width:1;" width="15" x="780.4371" y="707.6379"/><rect fill="#FFFFFF" height="2" style="stroke:#000000;stroke-width:1;" width="4" x="778.4371" y="709.6379"/><rect fill="#FFFFFF" height="2" style="stroke:#000000;stroke-width:1;" width="4" x="778.4371" y="713.6379"/><text fill="#000000" font-family="Arial" font-size="14" lengthAdjust="spacing" textLength="194.5371" x="580.9" y="735.7697">Initialize AI discussion interface</text></g><!--entity load_ai_config--><g class="entity" data-entity="load_ai_config" data-source-line="23" data-uid="ent0013" id="entity_load_ai_config"><rect fill="#FFFFFF" height="46.0986" rx="2.5" ry="2.5" style="stroke:#000000;stroke-width:1;" width="172.3164" x="597.01" y="808.7379"/><rect fill="#FFFFFF" height="10" style="stroke:#000000;stroke-width:1;" width="15" x="749.3264" y="813.7379"/><rect fill="#FFFFFF" height="2" style="stroke:#000000;stroke-width:1;" width="4" x="747.3264" y="815.7379"/><rect fill="#FFFFFF" height="2" style="stroke:#000000;stroke-width:1;" width="4" x="747.3264" y="819.7379"/><text fill="#000000" font-family="Arial" font-size="14" lengthAdjust="spacing" textLength="132.3164" x="612.01" y="841.8697">Load AI configuration</text></g><!--entity invoke_ai_engine--><g class="entity" data-entity="invoke_ai_engine" data-source-line="24" data-uid="ent0014" id="entity_invoke_ai_engine"><rect fill="#FFFFFF" height="46.0986" rx="2.5" ry="2.5" style="stroke:#000000;stroke-width:1;" width="144.2959" x="611.02" y="914.8379"/><rect fill="#FFFFFF" height="10" style="stroke:#000000;stroke-width:1;" width="15" x="735.3159" y="919.8379"/><rect fill="#FFFFFF" height="2" style="stroke:#000000;stroke-width:1;" width="4" x="733.3159" y="921.8379"/><rect fill="#FFFFFF" height="2" style="stroke:#000000;stroke-width:1;" width="4" x="733.3159" y="925.8379"/><text fill="#000000" font-family="Arial" font-size="14" lengthAdjust="spacing" textLength="104.2959" x="626.02" y="947.9697">Invoke AI engine</text></g><!--entity output_discussion--><g class="entity" data-entity="output_discussion" data-source-line="25" data-uid="ent0015" id="entity_output_discussion"><rect fill="#FFFFFF" height="36.0986" rx="2.5" ry="2.5" style="stroke:#000000;stroke-width:1;" width="188.875" x="588.73" y="1020.9279"/><text fill="#000000" font-family="Arial" font-size="14" lengthAdjust="spacing" textLength="168.875" x="598.73" y="1044.0597">Output discussion to stdout</text></g><!--entity handle_user_input--><g class="entity" data-entity="handle_user_input" data-source-line="26" data-uid="ent0016" id="entity_handle_user_input"><rect fill="#FFFFFF" height="36.0986" rx="2.5" ry="2.5" style="stroke:#000000;stroke-width:1;" width="129.7373" x="618.29" y="1117.0279"/><text fill="#000000" font-family="Arial" font-size="14" lengthAdjust="spacing" textLength="109.7373" x="628.29" y="1140.1597">Handle user input</text></g><!--entity exit_success--><g class="entity" data-entity="exit_success" data-source-line="27" data-uid="ent0017" id="entity_exit_success"><rect fill="#FFFFFF" height="36.0986" rx="2.5" ry="2.5" style="stroke:#000000;stroke-width:1;" width="122.6963" x="621.82" y="1213.1279"/><text fill="#000000" font-family="Arial" font-size="14" lengthAdjust="spacing" textLength="102.6963" x="631.82" y="1236.2597">Exit successfully</text></g><!--entity hard_stop_no_session--><g class="entity" data-entity="hard_stop_no_session" data-source-line="28" data-uid="ent0018" id="entity_hard_stop_no_session"><rect fill="#FFFFFF" height="46.0986" rx="2.5" ry="2.5" style="stroke:#000000;stroke-width:1;" width="182.4063" x="778.96" y="278.2379"/><rect fill="#FFFFFF" height="10" style="stroke:#000000;stroke-width:1;" width="15" x="941.3663" y="283.2379"/><rect fill="#FFFFFF" height="2" style="stroke:#000000;stroke-width:1;" width="4" x="939.3663" y="285.2379"/><rect fill="#FFFFFF" height="2" style="stroke:#000000;stroke-width:1;" width="4" x="939.3663" y="289.2379"/><text fill="#000000" font-family="Arial" font-size="14" lengthAdjust="spacing" textLength="142.4063" x="793.96" y="311.3697">Hard stop if no session</text></g><!--link cli_parse to session_check--><g class="link" data-entity-1="cli_parse" data-entity-2="session_check" data-source-line="29" data-uid="lnk19" id="link_cli_parse_session_check"><path d="M776.16,103.1479 C776.16,121.8279 776.16,145.5579 776.16,165.9179" fill="none" id="cli_parse-to-session_check" style="stroke:#333333;stroke-width:1;"/><polygon fill="#333333" points="776.16,171.9179,780.16,162.9179,776.16,166.9179,772.16,162.9179,776.16,171.9179" style="stroke:#333333;stroke-width:1;"/></g><!--link session_check to load_session--><g class="link" data-entity-1="session_check" data-entity-2="load_session" data-source-line="30" data-uid="lnk20" id="link_session_check_load_session"><path d="M756.21,218.5279 C740.52,236.0879 722.7563,255.9624 707.0763,273.5224" fill="none" id="session_check-to-load_session" style="stroke:#333333;stroke-width:1;"/><polygon fill="#333333" points="703.08,277.9979,712.0581,273.9489,706.4102,274.2683,706.0908,268.6205,703.08,277.9979" style="stroke:#333333;stroke-width:1;"/></g><!--link session_check to hard_stop_no_session--><g class="link" data-entity-1="session_check" data-entity-2="hard_stop_no_session" data-source-line="31" data-uid="lnk21" id="link_session_check_hard_stop_no_session"><path d="M796.33,218.5279 C812.19,236.0879 830.1598,255.9839 846.0098,273.5439" fill="none" id="session_check-to-hard_stop_no_session" style="stroke:#333333;stroke-width:1;"/><polygon fill="#333333" points="850.03,277.9979,846.969,268.6368,846.6798,274.2862,841.0303,273.9971,850.03,277.9979" style="stroke:#333333;stroke-width:1;"/></g><!--link load_session to validate_session--><g class="link" data-entity-1="load_session" data-entity-2="validate_session" data-source-line="32" data-uid="lnk22" id="link_load_session_validate_session"><path d="M683.16,324.6179 C683.16,342.1879 683.16,360.5379 683.16,378.0979" fill="none" id="load_session-to-validate_session" style="stroke:#333333;stroke-width:1;"/><polygon fill="#333333" points="683.16,384.0979,687.16,375.0979,683.16,379.0979,679.16,375.0979,683.16,384.0979" style="stroke:#333333;stroke-width:1;"/></g><!--link validate_session to route_discuss--><g class="link" data-entity-1="validate_session" data-entity-2="route_discuss" data-source-line="33" data-uid="lnk23" id="link_validate_session_route_discuss"><path d="M683.16,430.7179 C683.16,448.2879 683.16,466.6379 683.16,484.1979" fill="none" id="validate_session-to-route_discuss" style="stroke:#333333;stroke-width:1;"/><polygon fill="#333333" points="683.16,490.1979,687.16,481.1979,683.16,485.1979,679.16,481.1979,683.16,490.1979" style="stroke:#333333;stroke-width:1;"/></g><!--link route_discuss to read_docs_truth--><g class="link" data-entity-1="route_discuss" data-entity-2="read_docs_truth" data-source-line="34" data-uid="lnk24" id="link_route_discuss_read_docs_truth"><path d="M683.16,536.8179 C683.16,554.3879 683.16,572.7379 683.16,590.2879" fill="none" id="route_discuss-to-read_docs_truth" style="stroke:#333333;stroke-width:1;"/><polygon fill="#333333" points="683.16,596.2879,687.16,587.2879,683.16,591.2879,679.16,587.2879,683.16,596.2879" style="stroke:#333333;stroke-width:1;"/></g><!--link read_docs_truth to init_ai_interface--><g class="link" data-entity-1="read_docs_truth" data-entity-2="init_ai_interface" data-source-line="35" data-uid="lnk25" id="link_read_docs_truth_init_ai_interface"><path d="M683.16,642.9179 C683.16,660.4779 683.16,678.8379 683.16,696.3879" fill="none" id="read_docs_truth-to-init_ai_interface" style="stroke:#333333;stroke-width:1;"/><polygon fill="#333333" points="683.16,702.3879,687.16,693.3879,683.16,697.3879,679.16,693.3879,683.16,702.3879" style="stroke:#333333;stroke-width:1;"/></g><!--link init_ai_interface to load_ai_config--><g class="link" data-entity-1="init_ai_interface" data-entity-2="load_ai_config" data-source-line="36" data-uid="lnk26" id="link_init_ai_interface_load_ai_config"><path d="M683.16,749.0179 C683.16,766.5779 683.16,784.9379 683.16,802.4879" fill="none" id="init_ai_interface-to-load_ai_config" style="stroke:#333333;stroke-width:1;"/><polygon fill="#333333" points="683.16,808.4879,687.16,799.4879,683.16,803.4879,679.16,799.4879,683.16,808.4879" style="stroke:#333333;stroke-width:1;"/></g><!--link load_ai_config to invoke_ai_engine--><g class="link" data-entity-1="load_ai_config" data-entity-2="invoke_ai_engine" data-source-line="37" data-uid="lnk27" id="link_load_ai_config_invoke_ai_engine"><path d="M683.16,855.1179 C683.16,872.6779 683.16,891.0379 683.16,908.5879" fill="none" id="load_ai_config-to-invoke_ai_engine" style="stroke:#333333;stroke-width:1;"/><polygon fill="#333333" points="683.16,914.5879,687.16,905.5879,683.16,909.5879,679.16,905.5879,683.16,914.5879" style="stroke:#333333;stroke-width:1;"/></g><!--link invoke_ai_engine to output_discussion--><g class="link" data-entity-1="invoke_ai_engine" data-entity-2="output_discussion" data-source-line="38" data-uid="lnk28" id="link_invoke_ai_engine_output_discussion"><path d="M683.16,961.3679 C683.16,979.2979 683.16,998.0579 683.16,1014.5179" fill="none" id="invoke_ai_engine-to-output_discussion" style="stroke:#333333;stroke-width:1;"/><polygon fill="#333333" points="683.16,1020.5179,687.16,1011.5179,683.16,1015.5179,679.16,1011.5179,683.16,1020.5179" style="stroke:#333333;stroke-width:1;"/></g><!--link output_discussion to handle_user_input--><g class="link" data-entity-1="output_discussion" data-entity-2="handle_user_input" data-source-line="39" data-uid="lnk29" id="link_output_discussion_handle_user_input"><path d="M683.16,1057.2379 C683.16,1074.1079 683.16,1093.6679 683.16,1110.6079" fill="none" id="output_discussion-to-handle_user_input" style="stroke:#333333;stroke-width:1;"/><polygon fill="#333333" points="683.16,1116.6079,687.16,1107.6079,683.16,1111.6079,679.16,1107.6079,683.16,1116.6079" style="stroke:#333333;stroke-width:1;"/></g><!--link handle_user_input to exit_success--><g class="link" data-entity-1="handle_user_input" data-entity-2="exit_success" data-source-line="40" data-uid="lnk30" id="link_handle_user_input_exit_success"><path d="M683.16,1153.3379 C683.16,1170.2079 683.16,1189.7679 683.16,1206.7079" fill="none" id="handle_user_input-to-exit_success" style="stroke:#333333;stroke-width:1;"/><polygon fill="#333333" points="683.16,1212.7079,687.16,1203.7079,683.16,1207.7079,679.16,1203.7079,683.16,1212.7079" style="stroke:#333333;stroke-width:1;"/></g><!--SRC=[bLGzRzim4DtrAwxkqXfmXBHRXWAkao01Khj8Yov1GB0KPH6cU099EKr_VO-K55EIbseotmV9EpxVEr_9MaAZkJAPEoZJSCjh-Ct5OM-nDSK6DLfuVnk_H578ahVQtwBnMquxhAtYEk7Nrk9BR_uSluJSefTVqHRIzefD_AQASvSWLUQLrn8stwvNXNAYTGvMCFmIMDVS5E1QMt8XuSF3xlho2ZOFzt2hyULZbhLE2kuaBBWH5Te5S0VRtSyRjjvkxdQFMQKAEG8CtGMisbSUi1mn0Clb3soja5VB9Jmz5IXS_eBsKD9HBZz-ofNDHLtaoLqlX5ONhxpMy5_gv-TCKbdXBbbcfV3SxAa9Y-_SKYsJwcDDv6HDO3D26pJIU5XiAYaEuAHp2Wqq5ezKRQVlGIQ29FKy82y6DYer0Qm7Kk4lhbN1gLd3_exsgddq77lkdEyHMp9vV2kZeXgqx9x61fBrpCWbwLgXX-1jwwjEJ1WB68jOAhytobD4rL_AwlrmKhYaCbx6hCGT5CaOL-mDdNM2t09DgVQjvNxK4h9rpFZS8nxYcTBibHbE2M0mT63wehlMDwrFRqYTSRwWFaGlHfwT-DHy5pi7b75BXpIzfUid2oYBQ6gv-QCy_Ls4e8SfMwrVeqKIodeqBUUEMmg3nmPKIMaSvQ8YZWME6Jozyn13MAs-J48sMaL-5AqvVVQ4r1DLiwnDWQWQ1skqwlX9bYRhg9cdPOQSoZh5OxpiTveaOWf4rVpjPqZVf-c3pv2e6xroD-YqBC_EkPimAKoST65Dq-vucVVpPZZ-eYvW3j7ewWoJWLTpwRp5OHEN3vRc5Ku_qy7t3m00]--></g></svg>