<svg xmlns="http://www.w3.org/2000/svg" xmlns:xlink="http://www.w3.org/1999/xlink" contentStyleType="text/css" data-diagram-type="DESCRIPTION" height="494px" preserveAspectRatio="none" style="width:1708px;height:494px;background:#FFFFFF;" version="1.1" viewBox="0 0 1708 494" width="1708px" zoomAndPan="magnify"><title>CMD-wsession - wsession deep internal flow (observed) (LOD0: Code Modules)</title><defs/><g><g class="title" data-source-line="8"><text fill="#000000" font-family="Arial" font-size="22" font-weight="bold" lengthAdjust="spacing" textLength="829.9951" x="434.5524" y="35.6357">CMD-wsession - wsession deep internal flow (observed) (LOD0: Code Modules)</text></g><!--cluster Code Modules--><g class="cluster" data-entity="Code Modules" data-source-line="16" data-uid="ent0006" id="cluster_Code Modules"><path d="M1291.6,129.4779 L1388.2689,129.4779 A3.75,3.75 0 0 1 1390.7689,131.9779 L1397.7689,151.5765 L1698.6,151.5765 A2.5,2.5 0 0 1 1701.1,154.0765 L1701.1,485.4979 A2.5,2.5 0 0 1 1698.6,487.9979 L1291.6,487.9979 A2.5,2.5 0 0 1 1289.1,485.4979 L1289.1,131.9779 A2.5,2.5 0 0 1 1291.6,129.4779" fill="#FFFFFF" style="stroke:#000000;stroke-width:1;"/><line style="stroke:#000000;stroke-width:1;" x1="1289.1" x2="1397.7689" y1="151.5765" y2="151.5765"/><text fill="#000000" font-family="Arial" font-size="14" font-weight="bold" lengthAdjust="spacing" textLength="95.6689" x="1293.1" y="144.6097">Code Modules</text></g><!--entity breadcrumb--><g class="entity" data-entity="breadcrumb" data-source-line="17" data-uid="ent0007" id="entity_breadcrumb"><rect fill="#FFFFFF" height="46.0986" rx="2.5" ry="2.5" style="stroke:#000000;stroke-width:1;" width="114.7031" x="1304.75" y="164.4779"/><rect fill="#FFFFFF" height="10" style="stroke:#000000;stroke-width:1;" width="15" x="1399.4531" y="169.4779"/><rect fill="#FFFFFF" height="2" style="stroke:#000000;stroke-width:1;" width="4" x="1397.4531" y="171.4779"/><rect fill="#FFFFFF" height="2" style="stroke:#000000;stroke-width:1;" width="4" x="1397.4531" y="175.4779"/><text fill="#000000" font-family="Arial" font-size="14" lengthAdjust="spacing" textLength="74.7031" x="1319.75" y="197.6097">breadcrumb</text></g><!--entity work_session--><g class="entity" data-entity="work_session" data-source-line="18" data-uid="ent0008" id="entity_work_session"><rect fill="#FFFFFF" height="46.0986" rx="2.5" ry="2.5" style="stroke:#000000;stroke-width:1;" width="124.8135" x="1454.69" y="164.4779"/><rect fill="#FFFFFF" height="10" style="stroke:#000000;stroke-width:1;" width="15" x="1559.5035" y="169.4779"/><rect fill="#FFFFFF" height="2" style="stroke:#000000;stroke-width:1;" width="4" x="1557.5035" y="171.4779"/><rect fill="#FFFFFF" height="2" style="stroke:#000000;stroke-width:1;" width="4" x="1557.5035" y="175.4779"/><text fill="#000000" font-family="Arial" font-size="14" lengthAdjust="spacing" textLength="84.8135" x="1469.69" y="197.6097">work_session</text></g><!--entity main--><g class="entity" data-entity="main" data-source-line="19" data-uid="ent0009" id="entity_main"><rect fill="#FFFFFF" height="46.0986" rx="2.5" ry="2.5" style="stroke:#000000;stroke-width:1;" width="70.3447" x="1614.92" y="164.4779"/><rect fill="#FFFFFF" height="10" style="stroke:#000000;stroke-width:1;" width="15" x="1665.2647" y="169.4779"/><rect fill="#FFFFFF" height="2" style="stroke:#000000;stroke-width:1;" width="4" x="1663.2647" y="171.4779"/><rect fill="#FFFFFF" height="2" style="stroke:#000000;stroke-width:1;" width="4" x="1663.2647" y="175.4779"/><text fill="#000000" font-family="Arial" font-size="14" lengthAdjust="spacing" textLength="30.3447" x="1629.92" y="197.6097">main</text></g><!--entity session_stats--><g class="entity" data-entity="session_stats" data-source-line="20" data-uid="ent0010" id="entity_session_stats"><rect fill="#FFFFFF" height="46.0986" rx="2.5" ry="2.5" style="stroke:#000000;stroke-width:1;" width="124.8203" x="1304.69" y="319.7979"/><rect fill="#FFFFFF" height="10" style="stroke:#000000;stroke-width:1;" width="15" x="1409.5103" y="324.7979"/><rect fill="#FFFFFF" height="2" style="stroke:#000000;stroke-width:1;" width="4" x="1407.5103" y="326.7979"/><rect fill="#FFFFFF" height="2" style="stroke:#000000;stroke-width:1;" width="4" x="1407.5103" y="330.7979"/><text fill="#000000" font-family="Arial" font-size="14" lengthAdjust="spacing" textLength="84.8203" x="1319.69" y="352.9297">session_stats</text></g><!--entity detail--><g class="entity" data-entity="detail" data-source-line="21" data-uid="ent0011" id="entity_detail"><rect fill="#FFFFFF" height="46.0986" rx="2.5" ry="2.5" style="stroke:#000000;stroke-width:1;" width="73.4688" x="1464.36" y="319.7979"/><rect fill="#FFFFFF" height="10" style="stroke:#000000;stroke-width:1;" width="15" x="1517.8288" y="324.7979"/><rect fill="#FFFFFF" height="2" style="stroke:#000000;stroke-width:1;" width="4" x="1515.8288" y="326.7979"/><rect fill="#FFFFFF" height="2" style="stroke:#000000;stroke-width:1;" width="4" x="1515.8288" y="330.7979"/><text fill="#000000" font-family="Arial" font-size="14" lengthAdjust="spacing" textLength="33.4688" x="1479.36" y="352.9297">detail</text></g><!--entity table--><g class="entity" data-entity="table" data-source-line="22" data-uid="ent0012" id="entity_table"><rect fill="#FFFFFF" height="46.0986" rx="2.5" ry="2.5" style="stroke:#000000;stroke-width:1;" width="70.3584" x="1572.92" y="319.7979"/><rect fill="#FFFFFF" height="10" style="stroke:#000000;stroke-width:1;" width="15" x="1623.2784" y="324.7979"/><rect fill="#FFFFFF" height="2" style="stroke:#000000;stroke-width:1;" width="4" x="1621.2784" y="326.7979"/><rect fill="#FFFFFF" height="2" style="stroke:#000000;stroke-width:1;" width="4" x="1621.2784" y="330.7979"/><text fill="#000000" font-family="Arial" font-size="14" lengthAdjust="spacing" textLength="30.3584" x="1587.92" y="352.9297">table</text></g><!--entity tree--><g class="entity" data-entity="tree" data-source-line="23" data-uid="ent0013" id="entity_tree"><rect fill="#FFFFFF" height="46.0986" rx="2.5" ry="2.5" style="stroke:#000000;stroke-width:1;" width="64.124" x="1335.04" y="425.8979"/><rect fill="#FFFFFF" height="10" style="stroke:#000000;stroke-width:1;" width="15" x="1379.164" y="430.8979"/><rect fill="#FFFFFF" height="2" style="stroke:#000000;stroke-width:1;" width="4" x="1377.164" y="432.8979"/><rect fill="#FFFFFF" height="2" style="stroke:#000000;stroke-width:1;" width="4" x="1377.164" y="436.8979"/><text fill="#000000" font-family="Arial" font-size="14" lengthAdjust="spacing" textLength="24.124" x="1350.04" y="459.0297">tree</text></g><!--entity NOTE_ANCHOR--><!--link NOTE_ANCHOR to GMN3--><!--SRC=[fLJDRjim3BxxARZiqWQelH-WXzwon5qx9CxGzXOKXc8nYLPPCYGvGJViHNRQi-r9HYbEQmSPWc22WL3aHuhIzuLlt0fBX4eoeIBx95J532jXpegdfT6ruaCjjO6trs6r41mNh9RkMYkNCQemC8B9LdnWZDuqoH_3QWKpxV2JDXnDWnY6jOyur0IX8YUSH1XEHXSRYzOAhU02NaoEM85G3erY4XPIR-1CposQDV9pE1jFH- -kOAWvmaJpMg8zZwBQOi4iGe-fOgLD3vY5RFgGveDiU3EzYrQ2u6s7elx0YENAWLvq8W3z_hskJO5N_JxCPbmNDjbey-GxiSdwGo9CKfGyQVSV5zHF_CnA2IVY7nyZL1nyFr5KqOkn9LsZVRqU_A2c2brMMg5oq9iRPBmmTJaFztpTTc6-XxmvBm3RZYwq9FK4Y3UweGQVMyUS3PYEfmlcw9YG0RKrks77vX93D5XxGODDZ8nJRl8psh8fSN6Gp7HDvAj0fzyJfUltoKvVYLURfoVVKPDxJrpLHELXDp6sBRF7TCdGEgCJQhnaYcz3koxZwXdsziVg_6VwgonyScTtB7KjRCsa-CuS7PLuFdo9vlV4P4zqo6wCqzAtAlBvBzQn0a6MIKUaFd_VqVdV_NCQ-9cLNgQNGKX_Vls6CV8b6hWX_TYTeARDS88lzzCCAZHMMESLHrEiew7jQ0iJRIFSQjTJ_CrIZ2JJi4H5wPlDuZYXxtRoTPnEqknXy70xpV9nElgStiKbXuE1y3gxL8ELDlGOCZIT5tI4uCoXzUdDJOOlplQB_0K0]--></g></svg>