<svg xmlns="http://www.w3.org/2000/svg" xmlns:xlink="http://www.w3.org/1999/xlink" contentStyleType="text/css" data-diagram-type="DESCRIPTION" height="869px" preserveAspectRatio="none" style="width:2397px;height:869px;background:#FFFFFF;" version="1.1" viewBox="0 0 2397 869" width="2397px" zoomAndPan="magnify"><title>CMD-issues - issues deep internal flow (observed) (LOD2: Code Detail)</title><defs/><g><g class="title" data-source-line="8"><text fill="#000000" font-family="Arial" font-size="22" font-weight="bold" lengthAdjust="spacing" textLength="739.5781" x="824.4003" y="35.6357">CMD-issues - issues deep internal flow (observed) (LOD2: Code Detail)</text></g><!--entity NOTE_ANCHOR--><!--entity main_entry--><g class="entity" data-entity="main_entry" data-source-line="16" data-uid="ent0006" id="entity_main_entry"><rect fill="#E6F3FF" height="52.1973" rx="2.5" ry="2.5" style="stroke:#000000;stroke-width:1;" width="123.4824" x="1267.05" y="169.5579"/><text fill="#000000" font-family="Arial" font-size="14" lengthAdjust="spacing" textLength="39.6689" x="1277.05" y="192.6897">main()</text><text fill="#000000" font-family="Arial" font-size="14" lengthAdjust="spacing" textLength="103.4824" x="1277.05" y="208.7883">maestro/main.py</text></g><!--entity handle_issues_command--><g class="entity" data-entity="handle_issues_command" data-source-line="17" data-uid="ent0007" id="entity_handle_issues_command"><rect fill="#E6F3FF" height="52.1973" rx="2.5" ry="2.5" style="stroke:#000000;stroke-width:1;" width="205.1787" x="1226.2" y="312.9779"/><text fill="#000000" font-family="Arial" font-size="14" lengthAdjust="spacing" textLength="168.0889" x="1236.2" y="336.1097">handle_issues_command()</text><text fill="#000000" font-family="Arial" font-size="14" lengthAdjust="spacing" textLength="185.1787" x="1236.2" y="352.2083">maestro/commands/issues.py</text></g><!--entity find_repo_root--><g class="entity" data-entity="find_repo_root" data-source-line="18" data-uid="ent0008" id="entity_find_repo_root"><rect fill="#E6F3FF" height="52.1973" rx="2.5" ry="2.5" style="stroke:#000000;stroke-width:1;" width="205.1787" x="266.2" y="425.1779"/><text fill="#000000" font-family="Arial" font-size="14" lengthAdjust="spacing" textLength="107.3994" x="276.2" y="448.3097">_find_repo_root()</text><text fill="#000000" font-family="Arial" font-size="14" lengthAdjust="spacing" textLength="185.1787" x="276.2" y="464.4083">maestro/commands/issues.py</text></g><!--entity handle_list--><g class="entity" data-entity="handle_list" data-source-line="19" data-uid="ent0009" id="entity_handle_list"><rect fill="#E6F3FF" height="52.1973" rx="2.5" ry="2.5" style="stroke:#000000;stroke-width:1;" width="205.1787" x="506.2" y="425.1779"/><text fill="#000000" font-family="Arial" font-size="14" lengthAdjust="spacing" textLength="84.0479" x="516.2" y="448.3097">_handle_list()</text><text fill="#000000" font-family="Arial" font-size="14" lengthAdjust="spacing" textLength="185.1787" x="516.2" y="464.4083">maestro/commands/issues.py</text></g><!--entity handle_show--><g class="entity" data-entity="handle_show" data-source-line="20" data-uid="ent0010" id="entity_handle_show"><rect fill="#E6F3FF" height="52.1973" rx="2.5" ry="2.5" style="stroke:#000000;stroke-width:1;" width="205.1787" x="746.2" y="425.1779"/><text fill="#000000" font-family="Arial" font-size="14" lengthAdjust="spacing" textLength="99.6201" x="756.2" y="448.3097">_handle_show()</text><text fill="#000000" font-family="Arial" font-size="14" lengthAdjust="spacing" textLength="185.1787" x="756.2" y="464.4083">maestro/commands/issues.py</text></g><!--entity handle_state--><g class="entity" data-entity="handle_state" data-source-line="21" data-uid="ent0011" id="entity_handle_state"><rect fill="#E6F3FF" height="52.1973" rx="2.5" ry="2.5" style="stroke:#000000;stroke-width:1;" width="205.1787" x="986.2" y="425.1779"/><text fill="#000000" font-family="Arial" font-size="14" lengthAdjust="spacing" textLength="97.2891" x="996.2" y="448.3097">_handle_state()</text><text fill="#000000" font-family="Arial" font-size="14" lengthAdjust="spacing" textLength="185.1787" x="996.2" y="464.4083">maestro/commands/issues.py</text></g><!--entity handle_rollback--><g class="entity" data-entity="handle_rollback" data-source-line="22" data-uid="ent0012" id="entity_handle_rollback"><rect fill="#E6F3FF" height="52.1973" rx="2.5" ry="2.5" style="stroke:#000000;stroke-width:1;" width="205.1787" x="1226.2" y="425.1779"/><text fill="#000000" font-family="Arial" font-size="14" lengthAdjust="spacing" textLength="115.1787" x="1236.2" y="448.3097">_handle_rollback()</text><text fill="#000000" font-family="Arial" font-size="14" lengthAdjust="spacing" textLength="185.1787" x="1236.2" y="464.4083">maestro/commands/issues.py</text></g><!--entity handle_react--><g class="entity" data-entity="handle_react" data-source-line="23" data-uid="ent0013" id="entity_handle_react"><rect fill="#E6F3FF" height="52.1973" rx="2.5" ry="2.5" style="stroke:#000000;stroke-width:1;" width="205.1787" x="1466.2" y="425.1779"/><text fill="#000000" font-family="Arial" font-size="14" lengthAdjust="spacing" textLength="98.0615" x="1476.2" y="448.3097">_handle_react()</text><text fill="#000000" font-family="Arial" font-size="14" lengthAdjust="spacing" textLength="185.1787" x="1476.2" y="464.4083">maestro/commands/issues.py</text></g><!--entity handle_analyze--><g class="entity" data-entity="handle_analyze" data-source-line="24" data-uid="ent0014" id="entity_handle_analyze"><rect fill="#E6F3FF" height="52.1973" rx="2.5" ry="2.5" style="stroke:#000000;stroke-width:1;" width="205.1787" x="1706.2" y="425.1779"/><text fill="#000000" font-family="Arial" font-size="14" lengthAdjust="spacing" textLength="115.1924" x="1716.2" y="448.3097">_handle_analyze()</text><text fill="#000000" font-family="Arial" font-size="14" lengthAdjust="spacing" textLength="185.1787" x="1716.2" y="464.4083">maestro/commands/issues.py</text></g><!--entity handle_decide--><g class="entity" data-entity="handle_decide" data-source-line="25" data-uid="ent0015" id="entity_handle_decide"><rect fill="#E6F3FF" height="52.1973" rx="2.5" ry="2.5" style="stroke:#000000;stroke-width:1;" width="205.1787" x="1946.2" y="425.1779"/><text fill="#000000" font-family="Arial" font-size="14" lengthAdjust="spacing" textLength="108.1924" x="1956.2" y="448.3097">_handle_decide()</text><text fill="#000000" font-family="Arial" font-size="14" lengthAdjust="spacing" textLength="185.1787" x="1956.2" y="464.4083">maestro/commands/issues.py</text></g><!--entity handle_fix--><g class="entity" data-entity="handle_fix" data-source-line="26" data-uid="ent0016" id="entity_handle_fix"><rect fill="#E6F3FF" height="52.1973" rx="2.5" ry="2.5" style="stroke:#000000;stroke-width:1;" width="205.1787" x="2186.2" y="425.1779"/><text fill="#000000" font-family="Arial" font-size="14" lengthAdjust="spacing" textLength="80.9375" x="2196.2" y="448.3097">_handle_fix()</text><text fill="#000000" font-family="Arial" font-size="14" lengthAdjust="spacing" textLength="185.1787" x="2196.2" y="464.4083">maestro/commands/issues.py</text></g><!--entity list_issues--><g class="entity" data-entity="list_issues" data-source-line="27" data-uid="ent0017" id="entity_list_issues"><rect fill="#E6F3FF" height="52.1973" rx="2.5" ry="2.5" style="stroke:#000000;stroke-width:1;" width="208.3027" x="498.64" y="537.3779"/><text fill="#000000" font-family="Arial" font-size="14" lengthAdjust="spacing" textLength="73.9033" x="508.64" y="560.5097">list_issues()</text><text fill="#000000" font-family="Arial" font-size="14" lengthAdjust="spacing" textLength="188.3027" x="508.64" y="576.6083">maestro/issues/issue_store.py</text></g><!--entity load_issue--><g class="entity" data-entity="load_issue" data-source-line="28" data-uid="ent0018" id="entity_load_issue"><rect fill="#E6F3FF" height="52.1973" rx="2.5" ry="2.5" style="stroke:#000000;stroke-width:1;" width="208.3027" x="741.64" y="537.3779"/><text fill="#000000" font-family="Arial" font-size="14" lengthAdjust="spacing" textLength="76.2617" x="751.64" y="560.5097">load_issue()</text><text fill="#000000" font-family="Arial" font-size="14" lengthAdjust="spacing" textLength="188.3027" x="751.64" y="576.6083">maestro/issues/issue_store.py</text></g><!--entity update_issue_state--><g class="entity" data-entity="update_issue_state" data-source-line="29" data-uid="ent0019" id="entity_update_issue_state"><rect fill="#E6F3FF" height="52.1973" rx="2.5" ry="2.5" style="stroke:#000000;stroke-width:1;" width="208.3027" x="984.64" y="537.3779"/><text fill="#000000" font-family="Arial" font-size="14" lengthAdjust="spacing" textLength="130.751" x="994.64" y="560.5097">update_issue_state()</text><text fill="#000000" font-family="Arial" font-size="14" lengthAdjust="spacing" textLength="188.3027" x="994.64" y="576.6083">maestro/issues/issue_store.py</text></g><!--entity rollback_issue_state--><g class="entity" data-entity="rollback_issue_state" data-source-line="30" data-uid="ent0020" id="entity_rollback_issue_state"><rect fill="#E6F3FF" height="52.1973" rx="2.5" ry="2.5" style="stroke:#000000;stroke-width:1;" width="208.3027" x="1227.64" y="537.3779"/><text fill="#000000" font-family="Arial" font-size="14" lengthAdjust="spacing" textLength="136.1719" x="1237.64" y="560.5097">rollback_issue_state()</text><text fill="#000000" font-family="Arial" font-size="14" lengthAdjust="spacing" textLength="188.3027" x="1237.64" y="576.6083">maestro/issues/issue_store.py</text></g><!--entity update_issue_metadata--><g class="entity" data-entity="update_issue_metadata" data-source-line="31" data-uid="ent0021" id="entity_update_issue_metadata"><rect fill="#E6F3FF" height="52.1973" rx="2.5" ry="2.5" style="stroke:#000000;stroke-width:1;" width="208.3027" x="1425.64" y="169.5579"/><text fill="#000000" font-family="Arial" font-size="14" lengthAdjust="spacing" textLength="158.7715" x="1435.64" y="192.6897">update_issue_metadata()</text><text fill="#000000" font-family="Arial" font-size="14" lengthAdjust="spacing" textLength="188.3027" x="1435.64" y="208.7883">maestro/issues/issue_store.py</text></g><!--entity update_issue_priority--><g class="entity" data-entity="update_issue_priority" data-source-line="32" data-uid="ent0022" id="entity_update_issue_priority"><rect fill="#E6F3FF" height="52.1973" rx="2.5" ry="2.5" style="stroke:#000000;stroke-width:1;" width="208.3027" x="1668.64" y="169.5579"/><text fill="#000000" font-family="Arial" font-size="14" lengthAdjust="spacing" textLength="142.4063" x="1678.64" y="192.6897">update_issue_priority()</text><text fill="#000000" font-family="Arial" font-size="14" lengthAdjust="spacing" textLength="188.3027" x="1678.64" y="208.7883">maestro/issues/issue_store.py</text></g><!--entity update_issue_section--><g class="entity" data-entity="update_issue_section" data-source-line="33" data-uid="ent0023" id="entity_update_issue_section"><rect fill="#E6F3FF" height="52.1973" rx="2.5" ry="2.5" style="stroke:#000000;stroke-width:1;" width="208.3027" x="2078.64" y="537.3779"/><text fill="#000000" font-family="Arial" font-size="14" lengthAdjust="spacing" textLength="144.7578" x="2088.64" y="560.5097">update_issue_section()</text><text fill="#000000" font-family="Arial" font-size="14" lengthAdjust="spacing" textLength="188.3027" x="2088.64" y="576.6083">maestro/issues/issue_store.py</text></g><!--entity can_transition--><g class="entity" data-entity="can_transition" data-source-line="34" data-uid="ent0024" id="entity_can_transition"><rect fill="#E6F3FF" height="52.1973" rx="2.5" ry="2.5" style="stroke:#000000;stroke-width:1;" width="174.8408" x="1001.37" y="662.0179"/><text fill="#000000" font-family="Arial" font-size="14" lengthAdjust="spacing" textLength="96.4893" x="1011.37" y="685.1497">can_transition()</text><text fill="#000000" font-family="Arial" font-size="14" lengthAdjust="spacing" textLength="154.8408" x="1011.37" y="701.2483">maestro/issues/model.py</text></g><!--entity match_solutions--><g class="entity" data-entity="match_solutions" data-source-line="35" data-uid="ent0025" id="entity_match_solutions"><rect fill="#E6F3FF" height="52.1973" rx="2.5" ry="2.5" style="stroke:#000000;stroke-width:1;" width="239.4473" x="1471.06" y="537.3779"/><text fill="#000000" font-family="Arial" font-size="14" lengthAdjust="spacing" textLength="110.4893" x="1481.06" y="560.5097">match_solutions()</text><text fill="#000000" font-family="Arial" font-size="14" lengthAdjust="spacing" textLength="219.4473" x="1481.06" y="576.6083">maestro/solutions/solution_store.py</text></g><!--entity external_command_client--><g class="entity" data-entity="external_command_client" data-source-line="36" data-uid="ent0026" id="entity_external_command_client"><rect fill="#FFFFFF" height="46.0986" rx="2.5" ry="2.5" style="stroke:#000000;stroke-width:1;" width="191.7305" x="1745.92" y="540.4179"/><rect fill="#FFFFFF" height="10" style="stroke:#000000;stroke-width:1;" width="15" x="1917.6505" y="545.4179"/><rect fill="#FFFFFF" height="2" style="stroke:#000000;stroke-width:1;" width="4" x="1915.6505" y="547.4179"/><rect fill="#FFFFFF" height="2" style="stroke:#000000;stroke-width:1;" width="4" x="1915.6505" y="551.4179"/><text fill="#000000" font-family="Arial" font-size="14" lengthAdjust="spacing" textLength="151.7305" x="1760.92" y="573.5497">ExternalCommandClient</text></g><!--entity docs_issues_md--><g class="entity" data-entity="docs_issues_md" data-source-line="37" data-uid="ent0027" id="entity_docs_issues_md"><path d="M782.88,675.5679 C782.88,665.5679 845.7902,665.5679 845.7902,665.5679 C845.7902,665.5679 908.7003,665.5679 908.7003,675.5679 L908.7003,700.6665 C908.7003,710.6665 845.7902,710.6665 845.7902,710.6665 C845.7902,710.6665 782.88,710.6665 782.88,700.6665 L782.88,675.5679" fill="#FFE6E6" style="stroke:#000000;stroke-width:1;"/><path d="M782.88,675.5679 C782.88,685.5679 845.7902,685.5679 845.7902,685.5679 C845.7902,685.5679 908.7003,685.5679 908.7003,675.5679" fill="none" style="stroke:#000000;stroke-width:1;"/><text fill="#000000" font-family="Arial" font-size="14" lengthAdjust="spacing" textLength="105.8203" x="792.88" y="702.6997">docs/issues/*.md</text></g><!--entity docs_solutions_md--><g class="entity" data-entity="docs_solutions_md" data-source-line="38" data-uid="ent0028" id="entity_docs_solutions_md"><path d="M1520.09,675.5679 C1520.09,665.5679 1590.7863,665.5679 1590.7863,665.5679 C1590.7863,665.5679 1661.4826,665.5679 1661.4826,675.5679 L1661.4826,700.6665 C1661.4826,710.6665 1590.7863,710.6665 1590.7863,710.6665 C1590.7863,710.6665 1520.09,710.6665 1520.09,700.6665 L1520.09,675.5679" fill="#FFE6E6" style="stroke:#000000;stroke-width:1;"/><path d="M1520.09,675.5679 C1520.09,685.5679 1590.7863,685.5679 1590.7863,685.5679 C1590.7863,685.5679 1661.4826,685.5679 1661.4826,675.5679" fill="none" style="stroke:#000000;stroke-width:1;"/><text fill="#000000" font-family="Arial" font-size="14" lengthAdjust="spacing" textLength="121.3926" x="1530.09" y="702.6997">docs/solutions/*.md</text></g><!--entity docs_sessions_md--><g class="entity" data-entity="docs_sessions_md" data-source-line="39" data-uid="ent0029" id="entity_docs_sessions_md"><path d="M2024.48,675.5679 C2024.48,665.5679 2094.7832,665.5679 2094.7832,665.5679 C2094.7832,665.5679 2165.0864,665.5679 2165.0864,675.5679 L2165.0864,700.6665 C2165.0864,710.6665 2094.7832,710.6665 2094.7832,710.6665 C2094.7832,710.6665 2024.48,710.6665 2024.48,700.6665 L2024.48,675.5679" fill="#FFE6E6" style="stroke:#000000;stroke-width:1;"/><path d="M2024.48,675.5679 C2024.48,685.5679 2094.7832,685.5679 2094.7832,685.5679 C2094.7832,685.5679 2165.0864,685.5679 2165.0864,675.5679" fill="none" style="stroke:#000000;stroke-width:1;"/><text fill="#000000" font-family="Arial" font-size="14" lengthAdjust="spacing" textLength="120.6064" x="2034.48" y="702.6997">docs/sessions/*.md</text></g><!--entity file_system--><g class="entity" data-entity="file_system" data-source-line="40" data-uid="ent0030" id="entity_file_system"><ellipse cx="1590.792" cy="795.6679" fill="#FFFFFF" rx="8" ry="8" style="stroke:#000000;stroke-width:1;"/><path d="M1590.792,803.6679 L1590.792,830.6679 M1577.792,811.6679 L1603.792,811.6679 M1590.792,830.6679 L1577.792,845.6679 M1590.792,830.6679 L1603.792,845.6679" fill="none" style="stroke:#000000;stroke-width:1;"/><text fill="#000000" font-family="Arial" font-size="14" lengthAdjust="spacing" textLength="73.124" x="1554.23" y="860.7997">File System</text></g><!--entity external_ai--><g class="entity" data-entity="external_ai" data-source-line="41" data-uid="ent0031" id="entity_external_ai"><ellipse cx="1841.7839" cy="658.5679" fill="#FFFFFF" rx="8" ry="8" style="stroke:#000000;stroke-width:1;"/><path d="M1841.7839,666.5679 L1841.7839,693.5679 M1828.7839,674.5679 L1854.7839,674.5679 M1841.7839,693.5679 L1828.7839,708.5679 M1841.7839,693.5679 L1854.7839,708.5679" fill="none" style="stroke:#000000;stroke-width:1;"/><text fill="#000000" font-family="Arial" font-size="14" lengthAdjust="spacing" textLength="119.0479" x="1782.26" y="723.6997">External AI Service</text></g><!--link NOTE_ANCHOR to GMN3--><!--link main_entry to handle_issues_command--><g class="link" data-entity-1="main_entry" data-entity-2="handle_issues_command" data-source-line="42" data-uid="lnk32" id="link_main_entry_handle_issues_command"><path d="M1328.79,221.9379 C1328.79,247.5279 1328.79,280.8579 1328.79,306.5379" fill="none" id="main_entry-to-handle_issues_command" style="stroke:#333333;stroke-width:1;"/><polygon fill="#333333" points="1328.79,312.5379,1332.79,303.5379,1328.79,307.5379,1324.79,303.5379,1328.79,312.5379" style="stroke:#333333;stroke-width:1;"/></g><!--link handle_issues_command to find_repo_root--><g class="link" data-entity-1="handle_issues_command" data-entity-2="find_repo_root" data-source-line="43" data-uid="lnk33" id="link_handle_issues_command_find_repo_root"><path d="M1225.87,346.9979 C1067.06,358.4679 752.97,384.2879 488.79,425.1779 C483.21,426.0379 483.4178,425.9399 477.6678,426.9599" fill="none" id="handle_issues_command-to-find_repo_root" style="stroke:#333333;stroke-width:1;"/><polygon fill="#333333" points="471.76,428.0079,481.3203,430.3744,476.6831,427.1345,479.923,422.4974,471.76,428.0079" style="stroke:#333333;stroke-width:1;"/></g><!--link handle_issues_command to handle_list--><g class="link" data-entity-1="handle_issues_command" data-entity-2="handle_list" data-source-line="44" data-uid="lnk34" id="link_handle_issues_command_handle_list"><path d="M1225.75,352.6179 C1105.97,367.6679 902.5,394.7279 728.79,425.1779 C723.23,426.1479 723.4347,426.0685 717.6947,427.1585" fill="none" id="handle_issues_command-to-handle_list" style="stroke:#333333;stroke-width:1;"/><polygon fill="#333333" points="711.8,428.2779,721.3882,430.5286,716.7122,427.345,719.8957,422.669,711.8,428.2779" style="stroke:#333333;stroke-width:1;"/></g><!--link handle_issues_command to handle_show--><g class="link" data-entity-1="handle_issues_command" data-entity-2="handle_show" data-source-line="45" data-uid="lnk35" id="link_handle_issues_command_handle_show"><path d="M1225.82,363.7179 C1144.83,382.3079 1038.3777,406.7448 957.4377,425.3348" fill="none" id="handle_issues_command-to-handle_show" style="stroke:#333333;stroke-width:1;"/><polygon fill="#333333" points="951.59,426.6779,961.257,428.5617,956.4631,425.5586,959.4662,420.7647,951.59,426.6779" style="stroke:#333333;stroke-width:1;"/></g><!--link handle_issues_command to handle_state--><g class="link" data-entity-1="handle_issues_command" data-entity-2="handle_state" data-source-line="46" data-uid="lnk36" id="link_handle_issues_command_handle_state"><path d="M1273.12,365.6379 C1234.35,383.4379 1188.3124,404.5735 1149.6024,422.3535" fill="none" id="handle_issues_command-to-handle_state" style="stroke:#333333;stroke-width:1;"/><polygon fill="#333333" points="1144.15,424.8579,1153.9981,424.7362,1148.6936,422.7709,1150.659,417.4664,1144.15,424.8579" style="stroke:#333333;stroke-width:1;"/></g><!--link handle_issues_command to handle_rollback--><g class="link" data-entity-1="handle_issues_command" data-entity-2="handle_rollback" data-source-line="47" data-uid="lnk37" id="link_handle_issues_command_handle_rollback"><path d="M1328.79,365.6379 C1328.79,383.4379 1328.79,401.0779 1328.79,418.8579" fill="none" id="handle_issues_command-to-handle_rollback" style="stroke:#333333;stroke-width:1;"/><polygon fill="#333333" points="1328.79,424.8579,1332.79,415.8579,1328.79,419.8579,1324.79,415.8579,1328.79,424.8579" style="stroke:#333333;stroke-width:1;"/></g><!--link handle_issues_command to handle_react--><g class="link" data-entity-1="handle_issues_command" data-entity-2="handle_react" data-source-line="48" data-uid="lnk38" id="link_handle_issues_command_handle_react"><path d="M1384.45,365.6379 C1423.22,383.4379 1469.2676,404.5735 1507.9776,422.3535" fill="none" id="handle_issues_command-to-handle_react" style="stroke:#333333;stroke-width:1;"/><polygon fill="#333333" points="1513.43,424.8579,1506.921,417.4664,1508.8864,422.7709,1503.5819,424.7362,1513.43,424.8579" style="stroke:#333333;stroke-width:1;"/></g><!--link handle_issues_command to handle_analyze--><g class="link" data-entity-1="handle_issues_command" data-entity-2="handle_analyze" data-source-line="49" data-uid="lnk39" id="link_handle_issues_command_handle_analyze"><path d="M1431.76,363.7179 C1512.75,382.3079 1619.1922,406.7449 1700.1422,425.3349" fill="none" id="handle_issues_command-to-handle_analyze" style="stroke:#333333;stroke-width:1;"/><polygon fill="#333333" points="1705.99,426.6779,1698.1136,420.7649,1701.1168,425.5587,1696.323,428.562,1705.99,426.6779" style="stroke:#333333;stroke-width:1;"/></g><!--link handle_issues_command to handle_decide--><g class="link" data-entity-1="handle_issues_command" data-entity-2="handle_decide" data-source-line="50" data-uid="lnk40" id="link_handle_issues_command_handle_decide"><path d="M1431.83,352.6179 C1551.61,367.6679 1755.08,394.7279 1928.79,425.1779 C1934.34,426.1479 1934.1353,426.0685 1939.8753,427.1585" fill="none" id="handle_issues_command-to-handle_decide" style="stroke:#333333;stroke-width:1;"/><polygon fill="#333333" points="1945.77,428.2779,1937.6743,422.669,1940.8578,427.345,1936.1818,430.5286,1945.77,428.2779" style="stroke:#333333;stroke-width:1;"/></g><!--link handle_issues_command to handle_fix--><g class="link" data-entity-1="handle_issues_command" data-entity-2="handle_fix" data-source-line="51" data-uid="lnk41" id="link_handle_issues_command_handle_fix"><path d="M1431.71,346.9979 C1590.52,358.4679 1904.61,384.2879 2168.79,425.1779 C2174.36,426.0379 2174.1622,425.9399 2179.9122,426.9599" fill="none" id="handle_issues_command-to-handle_fix" style="stroke:#333333;stroke-width:1;"/><polygon fill="#333333" points="2185.82,428.0079,2177.657,422.4974,2180.8969,427.1345,2176.2597,430.3744,2185.82,428.0079" style="stroke:#333333;stroke-width:1;"/></g><!--link handle_list to list_issues--><g class="link" data-entity-1="handle_list" data-entity-2="list_issues" data-source-line="52" data-uid="lnk42" id="link_handle_list_list_issues"><path d="M607.4,477.8379 C606.43,495.6379 605.467,513.2868 604.497,531.0568" fill="none" id="handle_list-to-list_issues" style="stroke:#333333;stroke-width:1;"/><polygon fill="#333333" points="604.17,537.0479,608.6546,528.2793,604.4425,532.0553,600.6665,527.8432,604.17,537.0479" style="stroke:#333333;stroke-width:1;"/></g><!--link list_issues to docs_issues_md--><g class="link" data-entity-1="list_issues" data-entity-2="docs_issues_md" data-source-line="53" data-uid="lnk43" id="link_list_issues_docs_issues_md"><path d="M653.43,590.0379 C697.39,612.2179 755.004,641.2936 796.774,662.3836" fill="none" id="list_issues-to-docs_issues_md" style="stroke:#333333;stroke-width:1;"/><polygon fill="#333333" points="802.13,665.0879,795.8988,657.4607,797.6667,662.8343,792.2931,664.6021,802.13,665.0879" style="stroke:#333333;stroke-width:1;"/></g><!--link handle_show to load_issue--><g class="link" data-entity-1="handle_show" data-entity-2="load_issue" data-source-line="54" data-uid="lnk44" id="link_handle_show_load_issue"><path d="M848.09,477.8379 C847.61,495.6379 847.122,513.28 846.642,531.05" fill="none" id="handle_show-to-load_issue" style="stroke:#333333;stroke-width:1;"/><polygon fill="#333333" points="846.48,537.0479,850.7216,528.1591,846.615,532.0497,842.7245,527.9431,846.48,537.0479" style="stroke:#333333;stroke-width:1;"/></g><!--link load_issue to docs_issues_md--><g class="link" data-entity-1="load_issue" data-entity-2="docs_issues_md" data-source-line="55" data-uid="lnk45" id="link_load_issue_docs_issues_md"><path d="M845.79,589.8879 C845.79,612.1979 845.79,638.2979 845.79,659.4279" fill="none" id="load_issue-to-docs_issues_md" style="stroke:#333333;stroke-width:1;"/><polygon fill="#333333" points="845.79,665.4279,849.79,656.4279,845.79,660.4279,841.79,656.4279,845.79,665.4279" style="stroke:#333333;stroke-width:1;"/></g><!--link handle_state to update_issue_state--><g class="link" data-entity-1="handle_state" data-entity-2="update_issue_state" data-source-line="56" data-uid="lnk46" id="link_handle_state_update_issue_state"><path d="M1088.79,477.8379 C1088.79,495.6379 1088.79,513.2779 1088.79,531.0479" fill="none" id="handle_state-to-update_issue_state" style="stroke:#333333;stroke-width:1;"/><polygon fill="#333333" points="1088.79,537.0479,1092.79,528.0479,1088.79,532.0479,1084.79,528.0479,1088.79,537.0479" style="stroke:#333333;stroke-width:1;"/></g><!--link update_issue_state to can_transition--><g class="link" data-entity-1="update_issue_state" data-entity-2="can_transition" data-source-line="57" data-uid="lnk47" id="link_update_issue_state_can_transition"><path d="M1088.79,589.8879 C1088.79,610.9379 1088.79,634.6979 1088.79,655.7379" fill="none" id="update_issue_state-to-can_transition" style="stroke:#333333;stroke-width:1;"/><polygon fill="#333333" points="1088.79,661.7379,1092.79,652.7379,1088.79,656.7379,1084.79,652.7379,1088.79,661.7379" style="stroke:#333333;stroke-width:1;"/></g><!--link handle_rollback to rollback_issue_state--><g class="link" data-entity-1="handle_rollback" data-entity-2="rollback_issue_state" data-source-line="58" data-uid="lnk48" id="link_handle_rollback_rollback_issue_state"><path d="M1329.48,477.8379 C1329.97,495.6379 1330.4446,513.2801 1330.9346,531.0501" fill="none" id="handle_rollback-to-rollback_issue_state" style="stroke:#333333;stroke-width:1;"/><polygon fill="#333333" points="1331.1,537.0479,1334.8504,527.941,1330.9622,532.0498,1326.8534,528.1615,1331.1,537.0479" style="stroke:#333333;stroke-width:1;"/></g><!--link handle_react to match_solutions--><g class="link" data-entity-1="handle_react" data-entity-2="match_solutions" data-source-line="59" data-uid="lnk49" id="link_handle_react_match_solutions"><path d="M1573.89,477.8379 C1577.44,495.6379 1580.9978,513.3935 1584.5378,531.1635" fill="none" id="handle_react-to-match_solutions" style="stroke:#333333;stroke-width:1;"/><polygon fill="#333333" points="1585.71,537.0479,1587.8746,527.4398,1584.7331,532.1442,1580.0287,529.0028,1585.71,537.0479" style="stroke:#333333;stroke-width:1;"/></g><!--link match_solutions to docs_solutions_md--><g class="link" data-entity-1="match_solutions" data-entity-2="docs_solutions_md" data-source-line="60" data-uid="lnk50" id="link_match_solutions_docs_solutions_md"><path d="M1590.79,589.8879 C1590.79,612.1979 1590.79,638.2979 1590.79,659.4279" fill="none" id="match_solutions-to-docs_solutions_md" style="stroke:#333333;stroke-width:1;"/><polygon fill="#333333" points="1590.79,665.4279,1594.79,656.4279,1590.79,660.4279,1586.79,656.4279,1590.79,665.4279" style="stroke:#333333;stroke-width:1;"/></g><!--link handle_analyze to external_command_client--><g class="link" data-entity-1="handle_analyze" data-entity-2="external_command_client" data-source-line="61" data-uid="lnk51" id="link_handle_analyze_external_command_client"><path d="M1816.44,477.8379 C1822.08,496.6579 1827.9494,516.2498 1833.3494,534.2898" fill="none" id="handle_analyze-to-external_command_client" style="stroke:#333333;stroke-width:1;"/><polygon fill="#333333" points="1835.07,540.0379,1836.3211,530.2688,1833.6362,535.2478,1828.6571,532.5629,1835.07,540.0379" style="stroke:#333333;stroke-width:1;"/></g><!--link external_command_client to external_ai--><g class="link" data-entity-1="external_command_client" data-entity-2="external_ai" data-source-line="62" data-uid="lnk52" id="link_external_command_client_external_ai"><path d="M1841.79,586.9679 C1841.79,604.3979 1841.79,622.9279 1841.79,643.3479" fill="none" id="external_command_client-to-external_ai" style="stroke:#333333;stroke-width:1;"/><polygon fill="#333333" points="1841.79,649.3479,1845.79,640.3479,1841.79,644.3479,1837.79,640.3479,1841.79,649.3479" style="stroke:#333333;stroke-width:1;"/></g><!--link handle_fix to update_issue_section--><g class="link" data-entity-1="handle_fix" data-entity-2="update_issue_section" data-source-line="63" data-uid="lnk53" id="link_handle_fix_update_issue_section"><path d="M2264.2,477.8379 C2247.08,495.6379 2228.5004,514.9545 2211.4004,532.7245" fill="none" id="handle_fix-to-update_issue_section" style="stroke:#333333;stroke-width:1;"/><polygon fill="#333333" points="2207.24,537.0479,2216.3628,533.3364,2210.707,533.4451,2210.5983,527.7892,2207.24,537.0479" style="stroke:#333333;stroke-width:1;"/></g><!--link update_issue_section to docs_sessions_md--><g class="link" data-entity-1="update_issue_section" data-entity-2="docs_sessions_md" data-source-line="64" data-uid="lnk54" id="link_update_issue_section_docs_sessions_md"><path d="M2164.55,589.8879 C2148.55,612.1979 2129.0077,639.4228 2113.8477,660.5528" fill="none" id="update_issue_section-to-docs_sessions_md" style="stroke:#333333;stroke-width:1;"/><polygon fill="#333333" points="2110.35,665.4279,2118.8466,660.447,2113.2647,661.3653,2112.3465,655.7835,2110.35,665.4279" style="stroke:#333333;stroke-width:1;"/></g><!--link docs_issues_md to file_system--><g class="link" data-entity-1="docs_issues_md" data-entity-2="file_system" data-source-line="65" data-uid="lnk55" id="link_docs_issues_md_file_system"><path d="M908.99,707.8379 C932.36,714.3479 959.15,721.3579 983.79,726.6679 C1197.93,772.8779 1452.9272,806.9469 1547.9772,818.9369" fill="none" id="docs_issues_md-to-file_system" style="stroke:#333333;stroke-width:1;"/><polygon fill="#333333" points="1553.93,819.6879,1545.5014,814.5929,1548.9693,819.0621,1544.5002,822.53,1553.93,819.6879" style="stroke:#333333;stroke-width:1;"/></g><!--link docs_solutions_md to file_system--><g class="link" data-entity-1="docs_solutions_md" data-entity-2="file_system" data-source-line="66" data-uid="lnk56" id="link_docs_solutions_md_file_system"><path d="M1590.79,711.1279 C1590.79,731.4679 1590.79,756.1079 1590.79,780.3679" fill="none" id="docs_solutions_md-to-file_system" style="stroke:#333333;stroke-width:1;"/><polygon fill="#333333" points="1590.79,786.3679,1594.79,777.3679,1590.79,781.3679,1586.79,777.3679,1590.79,786.3679" style="stroke:#333333;stroke-width:1;"/></g><!--link docs_sessions_md to file_system--><g class="link" data-entity-1="docs_sessions_md" data-entity-2="file_system" data-source-line="67" data-uid="lnk57" id="link_docs_sessions_md_file_system"><path d="M2024.18,708.0479 C1915.54,737.1679 1717.0255,790.3848 1633.5455,812.7548" fill="none" id="docs_sessions_md-to-file_system" style="stroke:#333333;stroke-width:1;"/><polygon fill="#333333" points="1627.75,814.3079,1637.4786,815.842,1632.5796,813.0137,1635.4079,808.1146,1627.75,814.3079" style="stroke:#333333;stroke-width:1;"/></g><!--SRC=[dLVDRkCs4BxpAQRUIs9iB3GBvB052hYsqasHsCKcFQKBWP7ec8Wa2YHjh_THUkgpzKawr9yfcPRa60523R_lquZap71-qckMCCXYobEYtdYQKKaJUA7XswiKcpIQYLX8-72R_on4n5Pq4-jRaUe5HOMfv3IsvgTIYbr9_fJ_hCc5qEmt8ICcIyGi_xKHBYSGHJJNCOFPm_oAAxLX2gwW74ICPS1JpMHAOrZ5OWSNuaKnkMNH9LpSB-VNds4c8WPpfYcFBmdPA1PInM14qt0jv0YeWiNooG-cYzcNvLUoveYs3Icw1fA_hZM8LMC6O3n-51iPii_ZCJm_Ho9Ktax8D-E8yhRN7fTUc4JUmVL9YCvCzZI9uIpqjs-4fH4ONmYHBDGqVSKr6IMuZnUNVwS9PKfBuPddIRRFlygC0vPgkOSF_itj9znFYxccQHIpe7XH48eaGOCjLPgKL_fIgZfvhXS4Avv6WMIP2AGGUe1qa-3KBDyUSwM7-shGNMfgBNR3rGowKqrJpSwGC_0kFIdYsCJdSCcAqQdAQ7Z64kRmBZsA0RZ_SSPtbuGkpOY568p39Gjyb-AAVnykXs2NbZbDvV6tjGfByGytLKXMoLa4fvwWKJ4zKAx6kzGsMOJdAQXuhQDuMlMOvrAlJjRv-Yvch_y99cryfE_uX8hQ-uvCSY6vth_Z7HMrVn_GpaNwdfqecAutX3GDjAIfuYUq4omUSQNQHBlq4gh3TQ14l368njckZVMewNABMgjZV6KYnH848_zxKQHdHSZDOexcdCpAcQgM164-HypklUILEg-KvKUD9qcKquonga99P2uB_er_qsOTF6yIQtiNbodbefPccud94IyierkE2_cuLvebPK4p2Jv_hY3LEi3q3Xxndi93rbm5oebLkA-kVdLNNEAkmmRVBACTGAiyzgDCsHk0Cd7T3wkomG2aAJpziBAQz0EB6j6Fm-HFxEk3cR8IER6Jkfbh7aTYtnLoQfsqYPM_EuXvVZJpnucPE7ArGJP3dBGl0mRYoiAaKU8DgXNEf1tUjTjs595MNJUWKw5zmjxaO21OXVXuAOhCI9pfyk3X8LX9AsCKeN88qEEyu4POuTy65Br2p5RELi7VuibBysR1F1yt3AUl9L2Fi17ev3hh2ZGV1sfKzGEgGH-leqp0aQLFZ7AlE1M6NOzgrlPdh-hxFDC5ciwfsbppFCass6EvZ8rMwcHpLwTsitF__VCltBFebKduWczLrGukorOJvbWv7gXyYyGkXOn9XTd1R3NsffOFHRjgFlCNs5w3IT6WvKQl0PjI1Nyyvg9_cV74QnUzZvMjMT8-WabSrPHTiM25zGPzGL7yUtwUJ3pyktluyzv_y1TFqwUxvIAuz-U_-ryDsZcHBtT5DVvAhRmuNua0qqt4JUmfGo-NPrORxMN-7m00]--></g></svg>