<svg xmlns="http://www.w3.org/2000/svg" xmlns:xlink="http://www.w3.org/1999/xlink" contentStyleType="text/css" data-diagram-type="DESCRIPTION" height="621px" preserveAspectRatio="none" style="width:2381px;height:621px;background:#FFFFFF;" version="1.1" viewBox="0 0 2381 621" width="2381px" zoomAndPan="magnify"><title>CMD-phase - phase deep internal flow (observed) (LOD1: Code Functions)</title><defs/><g><g class="title" data-source-line="8"><text fill="#000000" font-family="Arial" font-size="22" font-weight="bold" lengthAdjust="spacing" textLength="774.9521" x="798.8904" y="35.6357">CMD-phase - phase deep internal flow (observed) (LOD1: Code Functions)</text></g><!--entity NOTE_ANCHOR--><!--entity main_entry--><g class="entity" data-entity="main_entry" data-source-line="16" data-uid="ent0006" id="entity_main_entry"><rect fill="#FFFFFF" height="52.1973" rx="2.5" ry="2.5" style="stroke:#000000;stroke-width:1;" width="132.8066" x="1326.58" y="171.5079"/><text fill="#000000" font-family="Arial" font-size="14" lengthAdjust="spacing" textLength="69.2549" x="1336.58" y="194.6397">main_entry</text><text fill="#000000" font-family="Arial" font-size="14" lengthAdjust="spacing" textLength="112.8066" x="1336.58" y="210.7383">(maestro/main.py)</text></g><!--entity handle_phase_command--><g class="entity" data-entity="handle_phase_command" data-source-line="17" data-uid="ent0007" id="entity_handle_phase_command"><rect fill="#FFFFFF" height="52.1973" rx="2.5" ry="2.5" style="stroke:#000000;stroke-width:1;" width="212.9648" x="1286.5" y="314.9279"/><text fill="#000000" font-family="Arial" font-size="14" lengthAdjust="spacing" textLength="157.2266" x="1296.5" y="338.0597">handle_phase_command</text><text fill="#000000" font-family="Arial" font-size="14" lengthAdjust="spacing" textLength="192.9648" x="1296.5" y="354.1583">(maestro/commands/phase.py)</text></g><!--entity list_phases--><g class="entity" data-entity="list_phases" data-source-line="18" data-uid="ent0008" id="entity_list_phases"><rect fill="#FFFFFF" height="52.1973" rx="2.5" ry="2.5" style="stroke:#000000;stroke-width:1;" width="212.9648" x="198.5" y="427.1179"/><text fill="#000000" font-family="Arial" font-size="14" lengthAdjust="spacing" textLength="70.041" x="208.5" y="450.2497">list_phases</text><text fill="#000000" font-family="Arial" font-size="14" lengthAdjust="spacing" textLength="192.9648" x="208.5" y="466.3483">(maestro/commands/phase.py)</text></g><!--entity show_phase--><g class="entity" data-entity="show_phase" data-source-line="19" data-uid="ent0009" id="entity_show_phase"><rect fill="#FFFFFF" height="52.1973" rx="2.5" ry="2.5" style="stroke:#000000;stroke-width:1;" width="212.9648" x="914.5" y="427.1179"/><text fill="#000000" font-family="Arial" font-size="14" lengthAdjust="spacing" textLength="78.6133" x="924.5" y="450.2497">show_phase</text><text fill="#000000" font-family="Arial" font-size="14" lengthAdjust="spacing" textLength="192.9648" x="924.5" y="466.3483">(maestro/commands/phase.py)</text></g><!--entity add_phase--><g class="entity" data-entity="add_phase" data-source-line="20" data-uid="ent0010" id="entity_add_phase"><rect fill="#FFFFFF" height="52.1973" rx="2.5" ry="2.5" style="stroke:#000000;stroke-width:1;" width="212.9648" x="506.5" y="427.1179"/><text fill="#000000" font-family="Arial" font-size="14" lengthAdjust="spacing" textLength="69.2891" x="516.5" y="450.2497">add_phase</text><text fill="#000000" font-family="Arial" font-size="14" lengthAdjust="spacing" textLength="192.9648" x="516.5" y="466.3483">(maestro/commands/phase.py)</text></g><!--entity remove_phase--><g class="entity" data-entity="remove_phase" data-source-line="21" data-uid="ent0011" id="entity_remove_phase"><rect fill="#FFFFFF" height="52.1973" rx="2.5" ry="2.5" style="stroke:#000000;stroke-width:1;" width="212.9648" x="1162.5" y="427.1179"/><text fill="#000000" font-family="Arial" font-size="14" lengthAdjust="spacing" textLength="92.6133" x="1172.5" y="450.2497">remove_phase</text><text fill="#000000" font-family="Arial" font-size="14" lengthAdjust="spacing" textLength="192.9648" x="1172.5" y="466.3483">(maestro/commands/phase.py)</text></g><!--entity edit_phase--><g class="entity" data-entity="edit_phase" data-source-line="22" data-uid="ent0012" id="entity_edit_phase"><rect fill="#FFFFFF" height="52.1973" rx="2.5" ry="2.5" style="stroke:#000000;stroke-width:1;" width="212.9648" x="1410.5" y="427.1179"/><text fill="#000000" font-family="Arial" font-size="14" lengthAdjust="spacing" textLength="68.5029" x="1420.5" y="450.2497">edit_phase</text><text fill="#000000" font-family="Arial" font-size="14" lengthAdjust="spacing" textLength="192.9648" x="1420.5" y="466.3483">(maestro/commands/phase.py)</text></g><!--entity set_phase_status--><g class="entity" data-entity="set_phase_status" data-source-line="23" data-uid="ent0013" id="entity_set_phase_status"><rect fill="#FFFFFF" height="52.1973" rx="2.5" ry="2.5" style="stroke:#000000;stroke-width:1;" width="212.9648" x="1658.5" y="427.1179"/><text fill="#000000" font-family="Arial" font-size="14" lengthAdjust="spacing" textLength="109.7441" x="1668.5" y="450.2497">set_phase_status</text><text fill="#000000" font-family="Arial" font-size="14" lengthAdjust="spacing" textLength="192.9648" x="1668.5" y="466.3483">(maestro/commands/phase.py)</text></g><!--entity set_phase_context--><g class="entity" data-entity="set_phase_context" data-source-line="24" data-uid="ent0014" id="entity_set_phase_context"><rect fill="#FFFFFF" height="52.1973" rx="2.5" ry="2.5" style="stroke:#000000;stroke-width:1;" width="212.9648" x="1906.5" y="427.1179"/><text fill="#000000" font-family="Arial" font-size="14" lengthAdjust="spacing" textLength="117.5303" x="1916.5" y="450.2497">set_phase_context</text><text fill="#000000" font-family="Arial" font-size="14" lengthAdjust="spacing" textLength="192.9648" x="1916.5" y="466.3483">(maestro/commands/phase.py)</text></g><!--entity handle_phase_discuss--><g class="entity" data-entity="handle_phase_discuss" data-source-line="25" data-uid="ent0015" id="entity_handle_phase_discuss"><rect fill="#FFFFFF" height="52.1973" rx="2.5" ry="2.5" style="stroke:#000000;stroke-width:1;" width="221.5029" x="2154.23" y="427.1179"/><text fill="#000000" font-family="Arial" font-size="14" lengthAdjust="spacing" textLength="142.4404" x="2164.23" y="450.2497">handle_phase_discuss</text><text fill="#000000" font-family="Arial" font-size="14" lengthAdjust="spacing" textLength="201.5029" x="2164.23" y="466.3483">(maestro/commands/discuss.py)</text></g><!--entity get_all_tracks--><g class="entity" data-entity="get_all_tracks" data-source-line="26" data-uid="ent0016" id="entity_get_all_tracks"><rect fill="#FFFFFF" height="52.1973" rx="2.5" ry="2.5" style="stroke:#000000;stroke-width:1;" width="219.9648" x="12" y="551.7679"/><text fill="#000000" font-family="Arial" font-size="14" lengthAdjust="spacing" textLength="86.3789" x="22" y="574.8997">get_all_tracks</text><text fill="#000000" font-family="Arial" font-size="14" lengthAdjust="spacing" textLength="199.9648" x="22" y="590.9983">(maestro/data/common_utils.py)</text></g><!--entity parse_todo_md--><g class="entity" data-entity="parse_todo_md" data-source-line="27" data-uid="ent0017" id="entity_parse_todo_md"><rect fill="#FFFFFF" height="52.1973" rx="2.5" ry="2.5" style="stroke:#000000;stroke-width:1;" width="245.6475" x="898.16" y="551.7679"/><text fill="#000000" font-family="Arial" font-size="14" lengthAdjust="spacing" textLength="97.2891" x="908.16" y="574.8997">parse_todo_md</text><text fill="#000000" font-family="Arial" font-size="14" lengthAdjust="spacing" textLength="225.6475" x="908.16" y="590.9983">(maestro/data/markdown_parser.py)</text></g><!--entity parse_phase_md--><g class="entity" data-entity="parse_phase_md" data-source-line="28" data-uid="ent0018" id="entity_parse_phase_md"><rect fill="#FFFFFF" height="52.1973" rx="2.5" ry="2.5" style="stroke:#000000;stroke-width:1;" width="245.6475" x="1179.16" y="551.7679"/><text fill="#000000" font-family="Arial" font-size="14" lengthAdjust="spacing" textLength="108.1855" x="1189.16" y="574.8997">parse_phase_md</text><text fill="#000000" font-family="Arial" font-size="14" lengthAdjust="spacing" textLength="225.6475" x="1189.16" y="590.9983">(maestro/data/markdown_parser.py)</text></g><!--entity extract_phase_block--><g class="entity" data-entity="extract_phase_block" data-source-line="29" data-uid="ent0019" id="entity_extract_phase_block"><rect fill="#FFFFFF" height="52.1973" rx="2.5" ry="2.5" style="stroke:#000000;stroke-width:1;" width="240.1855" x="1493.89" y="171.5079"/><text fill="#000000" font-family="Arial" font-size="14" lengthAdjust="spacing" textLength="128.4131" x="1503.89" y="194.6397">extract_phase_block</text><text fill="#000000" font-family="Arial" font-size="14" lengthAdjust="spacing" textLength="220.1855" x="1503.89" y="210.7383">(maestro/data/markdown_writer.py)</text></g><!--entity replace_phase_block--><g class="entity" data-entity="replace_phase_block" data-source-line="30" data-uid="ent0020" id="entity_replace_phase_block"><rect fill="#FFFFFF" height="52.1973" rx="2.5" ry="2.5" style="stroke:#000000;stroke-width:1;" width="240.1855" x="1768.89" y="171.5079"/><text fill="#000000" font-family="Arial" font-size="14" lengthAdjust="spacing" textLength="132.3164" x="1778.89" y="194.6397">replace_phase_block</text><text fill="#000000" font-family="Arial" font-size="14" lengthAdjust="spacing" textLength="220.1855" x="1778.89" y="210.7383">(maestro/data/markdown_writer.py)</text></g><!--entity get_settings--><g class="entity" data-entity="get_settings" data-source-line="41" data-uid="ent0031" id="entity_get_settings"><ellipse cx="304.978" cy="548.3179" fill="#FFFFFF" rx="8" ry="8" style="stroke:#000000;stroke-width:1;"/><path d="M304.978,556.3179 L304.978,583.3179 M291.978,564.3179 L317.978,564.3179 M304.978,583.3179 L291.978,598.3179 M304.978,583.3179 L317.978,598.3179" fill="none" style="stroke:#000000;stroke-width:1;"/><text fill="#000000" font-family="Arial" font-size="14" lengthAdjust="spacing" textLength="75.4961" x="267.23" y="613.4497">get_settings</text></g><!--entity file_system--><g class="entity" data-entity="file_system" data-source-line="42" data-uid="ent0033" id="entity_file_system"><ellipse cx="1494.9803" cy="548.3179" fill="#FFFFFF" rx="8" ry="8" style="stroke:#000000;stroke-width:1;"/><path d="M1494.9803,556.3179 L1494.9803,583.3179 M1481.9803,564.3179 L1507.9803,564.3179 M1494.9803,583.3179 L1481.9803,598.3179 M1494.9803,583.3179 L1507.9803,598.3179" fill="none" style="stroke:#000000;stroke-width:1;"/><text fill="#000000" font-family="Arial" font-size="14" lengthAdjust="spacing" textLength="70.0205" x="1459.97" y="613.4497">file_system</text></g><!--entity json_store--><g class="entity" data-entity="json_store" data-source-line="46" data-uid="ent0038" id="entity_json_store"><ellipse cx="409.9864" cy="548.3179" fill="#FFFFFF" rx="8" ry="8" style="stroke:#000000;stroke-width:1;"/><path d="M409.9864,556.3179 L409.9864,583.3179 M396.9864,564.3179 L422.9864,564.3179 M409.9864,583.3179 L396.9864,598.3179 M409.9864,583.3179 L422.9864,598.3179" fill="none" style="stroke:#000000;stroke-width:1;"/><text fill="#000000" font-family="Arial" font-size="14" lengthAdjust="spacing" textLength="64.5928" x="377.69" y="613.4497">json_store</text></g><!--entity load_track--><g class="entity" data-entity="load_track" data-source-line="47" data-uid="ent0040" id="entity_load_track"><ellipse cx="509.9864" cy="548.3179" fill="#FFFFFF" rx="8" ry="8" style="stroke:#000000;stroke-width:1;"/><path d="M509.9864,556.3179 L509.9864,583.3179 M496.9864,564.3179 L522.9864,564.3179 M509.9864,583.3179 L496.9864,598.3179 M509.9864,583.3179 L522.9864,598.3179" fill="none" style="stroke:#000000;stroke-width:1;"/><text fill="#000000" font-family="Arial" font-size="14" lengthAdjust="spacing" textLength="64.5928" x="477.69" y="613.4497">load_track</text></g><!--entity load_phase--><g class="entity" data-entity="load_phase" data-source-line="48" data-uid="ent0042" id="entity_load_phase"><ellipse cx="612.9797" cy="548.3179" fill="#FFFFFF" rx="8" ry="8" style="stroke:#000000;stroke-width:1;"/><path d="M612.9797,556.3179 L612.9797,583.3179 M599.9797,564.3179 L625.9797,564.3179 M612.9797,583.3179 L599.9797,598.3179 M612.9797,583.3179 L625.9797,598.3179" fill="none" style="stroke:#000000;stroke-width:1;"/><text fill="#000000" font-family="Arial" font-size="14" lengthAdjust="spacing" textLength="72.3994" x="576.78" y="613.4497">load_phase</text></g><!--entity save_phase--><g class="entity" data-entity="save_phase" data-source-line="49" data-uid="ent0044" id="entity_save_phase"><ellipse cx="721.9815" cy="548.3179" fill="#FFFFFF" rx="8" ry="8" style="stroke:#000000;stroke-width:1;"/><path d="M721.9815,556.3179 L721.9815,583.3179 M708.9815,564.3179 L734.9815,564.3179 M721.9815,583.3179 L708.9815,598.3179 M721.9815,583.3179 L734.9815,598.3179" fill="none" style="stroke:#000000;stroke-width:1;"/><text fill="#000000" font-family="Arial" font-size="14" lengthAdjust="spacing" textLength="75.5029" x="684.23" y="613.4497">save_phase</text></g><!--entity save_track--><g class="entity" data-entity="save_track" data-source-line="50" data-uid="ent0046" id="entity_save_track"><ellipse cx="828.9781" cy="548.3179" fill="#FFFFFF" rx="8" ry="8" style="stroke:#000000;stroke-width:1;"/><path d="M828.9781,556.3179 L828.9781,583.3179 M815.9781,564.3179 L841.9781,564.3179 M828.9781,583.3179 L815.9781,598.3179 M828.9781,583.3179 L841.9781,598.3179" fill="none" style="stroke:#000000;stroke-width:1;"/><text fill="#000000" font-family="Arial" font-size="14" lengthAdjust="spacing" textLength="67.6963" x="795.13" y="613.4497">save_track</text></g><!--link NOTE_ANCHOR to GMN3--><!--link main_entry to handle_phase_command--><g class="link" data-entity-1="main_entry" data-entity-2="handle_phase_command" data-source-line="31" data-uid="lnk21" id="link_main_entry_handle_phase_command"><path d="M1392.98,223.8879 C1392.98,249.4679 1392.98,282.8079 1392.98,308.4779" fill="none" id="main_entry-to-handle_phase_command" style="stroke:#333333;stroke-width:1;"/><polygon fill="#333333" points="1392.98,314.4779,1396.98,305.4779,1392.98,309.4779,1388.98,305.4779,1392.98,314.4779" style="stroke:#333333;stroke-width:1;"/></g><!--link handle_phase_command to list_phases--><g class="link" data-entity-1="handle_phase_command" data-entity-2="list_phases" data-source-line="32" data-uid="lnk22" id="link_handle_phase_command_list_phases"><path d="M1286.03,350.6379 C1116.68,364.6079 776.54,393.9879 488.98,427.1179 C464,429.9979 443.106,432.6548 417.856,436.0648" fill="none" id="handle_phase_command-to-list_phases" style="stroke:#333333;stroke-width:1;"/><polygon fill="#333333" points="411.91,436.8679,421.3644,439.6274,416.865,436.1987,420.2937,431.6993,411.91,436.8679" style="stroke:#333333;stroke-width:1;"/></g><!--link handle_phase_command to show_phase--><g class="link" data-entity-1="handle_phase_command" data-entity-2="show_phase" data-source-line="33" data-uid="lnk23" id="link_handle_phase_command_show_phase"><path d="M1306.7,367.5779 C1246.71,385.3479 1172.8229,407.2436 1112.8729,425.0036" fill="none" id="handle_phase_command-to-show_phase" style="stroke:#333333;stroke-width:1;"/><polygon fill="#333333" points="1107.12,426.7079,1116.8855,427.9867,1111.9141,425.2876,1114.6131,420.3162,1107.12,426.7079" style="stroke:#333333;stroke-width:1;"/></g><!--link handle_phase_command to add_phase--><g class="link" data-entity-1="handle_phase_command" data-entity-2="add_phase" data-source-line="34" data-uid="lnk24" id="link_handle_phase_command_add_phase"><path d="M1286.16,357.1179 C1137.21,378.1579 874.631,415.2585 725.701,436.2985" fill="none" id="handle_phase_command-to-add_phase" style="stroke:#333333;stroke-width:1;"/><polygon fill="#333333" points="719.76,437.1379,729.2311,439.8396,724.7108,436.4384,728.112,431.9182,719.76,437.1379" style="stroke:#333333;stroke-width:1;"/></g><!--link handle_phase_command to remove_phase--><g class="link" data-entity-1="handle_phase_command" data-entity-2="remove_phase" data-source-line="35" data-uid="lnk25" id="link_handle_phase_command_remove_phase"><path d="M1364.22,367.5779 C1344.19,385.3879 1322.0643,405.0415 1302.0743,422.8115" fill="none" id="handle_phase_command-to-remove_phase" style="stroke:#333333;stroke-width:1;"/><polygon fill="#333333" points="1297.59,426.7979,1306.974,423.8079,1301.3269,423.4759,1301.659,417.8288,1297.59,426.7979" style="stroke:#333333;stroke-width:1;"/></g><!--link handle_phase_command to edit_phase--><g class="link" data-entity-1="handle_phase_command" data-entity-2="edit_phase" data-source-line="36" data-uid="lnk26" id="link_handle_phase_command_edit_phase"><path d="M1421.74,367.5779 C1441.77,385.3879 1463.8947,405.0426 1483.8947,422.8126" fill="none" id="handle_phase_command-to-edit_phase" style="stroke:#333333;stroke-width:1;"/><polygon fill="#333333" points="1488.38,426.7979,1484.3088,417.8298,1484.6422,423.4768,1478.9952,423.8103,1488.38,426.7979" style="stroke:#333333;stroke-width:1;"/></g><!--link handle_phase_command to set_phase_status--><g class="link" data-entity-1="handle_phase_command" data-entity-2="set_phase_status" data-source-line="37" data-uid="lnk27" id="link_handle_phase_command_set_phase_status"><path d="M1479.26,367.5779 C1539.25,385.3479 1613.1371,407.2438 1673.0971,425.0038" fill="none" id="handle_phase_command-to-set_phase_status" style="stroke:#333333;stroke-width:1;"/><polygon fill="#333333" points="1678.85,426.7079,1671.3566,420.3165,1674.0559,425.2878,1669.0846,427.9871,1678.85,426.7079" style="stroke:#333333;stroke-width:1;"/></g><!--link handle_phase_command to set_phase_context--><g class="link" data-entity-1="handle_phase_command" data-entity-2="set_phase_context" data-source-line="38" data-uid="lnk28" id="link_handle_phase_command_set_phase_context"><path d="M1499.58,359.3679 C1600.13,375.9579 1755.01,402.0779 1888.98,427.1179 C1894.6,428.1679 1894.4588,428.1302 1900.2588,429.2502" fill="none" id="handle_phase_command-to-set_phase_context" style="stroke:#333333;stroke-width:1;"/><polygon fill="#333333" points="1906.15,430.3879,1898.0717,424.754,1901.2407,429.4398,1896.5548,432.6089,1906.15,430.3879" style="stroke:#333333;stroke-width:1;"/></g><!--link handle_phase_command to handle_phase_discuss--><g class="link" data-entity-1="handle_phase_command" data-entity-2="handle_phase_discuss" data-source-line="39" data-uid="lnk29" id="link_handle_phase_command_handle_phase_discuss"><path d="M1499.91,351.5479 C1644.76,365.0779 1911.19,392.1279 2136.98,427.1179 C2142.58,427.9879 2142.3847,427.9232 2148.1547,428.9032" fill="none" id="handle_phase_command-to-handle_phase_discuss" style="stroke:#333333;stroke-width:1;"/><polygon fill="#333333" points="2154.07,429.9079,2145.8669,424.4573,2149.1406,429.0706,2144.5273,432.3444,2154.07,429.9079" style="stroke:#333333;stroke-width:1;"/></g><!--link list_phases to get_all_tracks--><g class="link" data-entity-1="list_phases" data-entity-2="get_all_tracks" data-source-line="40" data-uid="lnk30" id="link_list_phases_get_all_tracks"><path d="M267.06,479.6379 C235.76,500.6079 196.5237,526.9068 165.1537,547.9368" fill="none" id="list_phases-to-get_all_tracks" style="stroke:#333333;stroke-width:1;"/><polygon fill="#333333" points="160.17,551.2779,169.8729,549.5888,164.3231,548.4937,165.4182,542.9438,160.17,551.2779" style="stroke:#333333;stroke-width:1;"/></g><!--link list_phases to get_settings--><g class="link" data-entity-1="list_phases" data-entity-2="get_settings" data-source-line="41" data-uid="lnk32" id="link_list_phases_get_settings"><path d="M304.98,479.6379 C304.98,496.7579 304.98,513.6379 304.98,532.9079" fill="none" id="list_phases-to-get_settings" style="stroke:#333333;stroke-width:1;"/><polygon fill="#333333" points="304.98,538.9079,308.98,529.9079,304.98,533.9079,300.98,529.9079,304.98,538.9079" style="stroke:#333333;stroke-width:1;"/></g><!--link show_phase to file_system--><g class="link" data-entity-1="show_phase" data-entity-2="file_system" data-source-line="42" data-uid="lnk34" id="link_show_phase_file_system"><path d="M1127.85,475.8579 C1133.65,477.0279 1139.38,478.1879 1144.98,479.3179 C1276.98,506.0079 1318.36,485.9079 1441.98,539.3179 C1447.99,541.9179 1448.9291,542.0349 1454.6291,545.6649" fill="none" id="show_phase-to-file_system" style="stroke:#333333;stroke-width:1;"/><polygon fill="#333333" points="1459.69,548.8879,1454.2473,540.6795,1455.4726,546.202,1449.95,547.4273,1459.69,548.8879" style="stroke:#333333;stroke-width:1;"/></g><!--link show_phase to parse_phase_md--><g class="link" data-entity-1="show_phase" data-entity-2="parse_phase_md" data-source-line="43" data-uid="lnk35" id="link_show_phase_parse_phase_md"><path d="M1079.55,479.7779 C1127.64,500.7779 1189.9209,527.9578 1237.9909,548.9378" fill="none" id="show_phase-to-parse_phase_md" style="stroke:#333333;stroke-width:1;"/><polygon fill="#333333" points="1243.49,551.3379,1236.8414,544.0717,1238.9074,549.3378,1233.6414,551.4038,1243.49,551.3379" style="stroke:#333333;stroke-width:1;"/></g><!--link show_phase to parse_todo_md--><g class="link" data-entity-1="show_phase" data-entity-2="parse_todo_md" data-source-line="44" data-uid="lnk36" id="link_show_phase_parse_todo_md"><path d="M1020.98,479.6379 C1020.98,500.6779 1020.98,524.4479 1020.98,545.4879" fill="none" id="show_phase-to-parse_todo_md" style="stroke:#333333;stroke-width:1;"/><polygon fill="#333333" points="1020.98,551.4879,1024.98,542.4879,1020.98,546.4879,1016.98,542.4879,1020.98,551.4879" style="stroke:#333333;stroke-width:1;"/></g><!--link add_phase to get_settings--><g class="link" data-entity-1="add_phase" data-entity-2="get_settings" data-source-line="45" data-uid="lnk37" id="link_add_phase_get_settings"><path d="M516.79,479.7779 C468.47,494.2979 409.77,514.5479 359.98,539.3179 C354.29,542.1479 353.5721,542.2925 348.0021,545.8125" fill="none" id="add_phase-to-get_settings" style="stroke:#333333;stroke-width:1;"/><polygon fill="#333333" points="342.93,549.0179,352.675,547.5912,347.1567,546.3467,348.4012,540.8285,342.93,549.0179" style="stroke:#333333;stroke-width:1;"/></g><!--link add_phase to json_store--><g class="link" data-entity-1="add_phase" data-entity-2="json_store" data-source-line="46" data-uid="lnk39" id="link_add_phase_json_store"><path d="M563.06,479.7679 C532.66,495.8579 493.38,517.6379 459.98,539.3179 C454.25,543.0479 453.1565,543.6707 447.4565,547.8307" fill="none" id="add_phase-to-json_store" style="stroke:#333333;stroke-width:1;"/><polygon fill="#333333" points="442.61,551.3679,452.2379,549.2932,446.6488,548.4203,447.5217,542.8312,442.61,551.3679" style="stroke:#333333;stroke-width:1;"/></g><!--link add_phase to load_track--><g class="link" data-entity-1="add_phase" data-entity-2="load_track" data-source-line="47" data-uid="lnk41" id="link_add_phase_load_track"><path d="M591.64,479.6379 C577.26,496.7579 561.8982,515.0428 545.7182,534.3128" fill="none" id="add_phase-to-load_track" style="stroke:#333333;stroke-width:1;"/><polygon fill="#333333" points="541.86,538.9079,550.7107,534.5874,545.0752,535.0787,544.584,529.4432,541.86,538.9079" style="stroke:#333333;stroke-width:1;"/></g><!--link add_phase to load_phase--><g class="link" data-entity-1="add_phase" data-entity-2="load_phase" data-source-line="48" data-uid="lnk43" id="link_add_phase_load_phase"><path d="M612.98,479.6379 C612.98,496.7579 612.98,513.6379 612.98,532.9079" fill="none" id="add_phase-to-load_phase" style="stroke:#333333;stroke-width:1;"/><polygon fill="#333333" points="612.98,538.9079,616.98,529.9079,612.98,533.9079,608.98,529.9079,612.98,538.9079" style="stroke:#333333;stroke-width:1;"/></g><!--link add_phase to save_phase--><g class="link" data-entity-1="add_phase" data-entity-2="save_phase" data-source-line="49" data-uid="lnk45" id="link_add_phase_save_phase"><path d="M635.57,479.6379 C650.78,496.7579 667.1337,515.1535 684.2637,534.4235" fill="none" id="add_phase-to-save_phase" style="stroke:#333333;stroke-width:1;"/><polygon fill="#333333" points="688.25,538.9079,685.2601,529.5238,684.9281,535.1709,679.281,534.8389,688.25,538.9079" style="stroke:#333333;stroke-width:1;"/></g><!--link add_phase to save_track--><g class="link" data-entity-1="add_phase" data-entity-2="save_track" data-source-line="50" data-uid="lnk47" id="link_add_phase_save_track"><path d="M666.88,479.6979 C699.42,495.6779 741.34,517.3679 776.98,539.3179 C782.86,542.9379 784.0254,543.5659 789.8654,547.6559" fill="none" id="add_phase-to-save_track" style="stroke:#333333;stroke-width:1;"/><polygon fill="#333333" points="794.78,551.0979,789.7027,542.6586,790.6845,548.2296,785.1135,549.2114,794.78,551.0979" style="stroke:#333333;stroke-width:1;"/></g><!--SRC=[dLRTJjim5BxFKvon6q2YqJPf5qoQnDgmCK4xCUuOYapijbuTkxATThpAhlPiUv8TvwTnWWDbKIN8ET_vV79-_SekMSvWBGYNaLbnkIQQv71FijL2gqBIiH9Am-lpyl4GbCr98UovadPAaE5CSo8y_PdMQbiRloiVJpbLbdrIcZ9T8yRbqqU4d41KPBaL3CPNavFraXW69r3zfOojWKlBj2G2va9juL3T6wOtZ1x1uULiykOKneeoE2zaPhcIvYYA2iCoPtr0PBPK-W28WUdi9adFfkCli-jeoT705qZq3JHVB2seUKS3S7pyNHKwOwV7nt1xIrLcugtIA-UBYJTlOwxZBAVnplTHXkwC7aWku2NWkxk8IGhEaoZIBBD4BZ0a1pccCMNIweSVyZ0dp5YjOYSShH-EoYzh4RxTaaWgM5gUacOgp_7TOwWb9gxSQBX2LZwhuCPMMlCycGVsESnIRIlnynGjrcSWbEvBi8FwzfhbQiFsfV3HFWkZtExBqM8xaM2rC3MMs6AFaFOjmcmPjZ3xPLz2LviCLX3b9YjCqCDQ5QwXMkdpBl1G8aHgDKu3dv4IIqfQ9TF2Sj5ITaryCfmjU8fLLAKvxNFbHA-esigqHEaTNSVeCLlb-Klf6gjEYVno7ZSnlXSgMmsIRZMt7cd0j5l2EE0pzZ_C0TEedI5mSl8nF0P2mXBjz_aWoElaGKpRh8EGJZCEehns6tQetqfx89ik6OG6Qz-BJmdgLND8ZKTQBXScQiDMwkOSsSs3iIplgtfL6DGs9RyBzEC3kwgV1dlHMALPJo4KeTK7X1HLwBiAGtPv2oWggceH2pOFxk5aWtjRbflOlUCstho9cyj1xAuARhasmSVNqRh0BHoGuRAj27eRUd1SGlFFSvO3Wm8UYrx6jEjXU2nwZgcgixZDfQFfl7Kk7uEN8NTTIzudxyja_Ftz1ouPNJ0DNp07fadAhBwTmGJzlwfzXJNJ1ilSPG-lSsrAgWkUS_S3RDwwqQJ0wi8keN3jyFNxh4iwghy9A7V3KE6yAWnPF47AbI0MgSvdrvyk9kbrycsMJhgaJKJBxkguEiSxgkVJquSWAVvkRqUZ67yNLzykawjaUdDsSp6RffV9v7DoFSef11Lb2XjJTwAs9XPbUDCCAv5Jzn7El8xvU2VqS_SF]--></g></svg>