<svg xmlns="http://www.w3.org/2000/svg" xmlns:xlink="http://www.w3.org/1999/xlink" contentStyleType="text/css" data-diagram-type="DESCRIPTION" height="484px" preserveAspectRatio="none" style="width:1902px;height:484px;background:#FFFFFF;" version="1.1" viewBox="0 0 1902 484" width="1902px" zoomAndPan="magnify"><title>CMD-discuss - discuss deep internal flow (observed) (LOD0: Code Modules)</title><defs/><g><g class="title" data-source-line="8"><text fill="#000000" font-family="Arial" font-size="22" font-weight="bold" lengthAdjust="spacing" textLength="795.7705" x="548.6347" y="35.6357">CMD-discuss - discuss deep internal flow (observed) (LOD0: Code Modules)</text></g><!--cluster Code Modules--><g class="cluster" data-entity="Code Modules" data-source-line="16" data-uid="ent0006" id="cluster_Code Modules"><path d="M1261.54,148.5179 L1358.2089,148.5179 A3.75,3.75 0 0 1 1360.7089,151.0179 L1367.7089,170.6165 L1892.54,170.6165 A2.5,2.5 0 0 1 1895.04,173.1165 L1895.04,474.6379 A2.5,2.5 0 0 1 1892.54,477.1379 L1261.54,477.1379 A2.5,2.5 0 0 1 1259.04,474.6379 L1259.04,151.0179 A2.5,2.5 0 0 1 1261.54,148.5179" fill="#FFFFFF" style="stroke:#000000;stroke-width:1;"/><line style="stroke:#000000;stroke-width:1;" x1="1259.04" x2="1367.7089" y1="170.6165" y2="170.6165"/><text fill="#000000" font-family="Arial" font-size="14" font-weight="bold" lengthAdjust="spacing" textLength="95.6689" x="1263.04" y="163.6497">Code Modules</text></g><!--entity actions--><g class="entity" data-entity="actions" data-source-line="17" data-uid="ent0007" id="entity_actions"><rect fill="#FFFFFF" height="46.0986" rx="2.5" ry="2.5" style="stroke:#000000;stroke-width:1;" width="84.3584" x="1289.86" y="183.5179"/><rect fill="#FFFFFF" height="10" style="stroke:#000000;stroke-width:1;" width="15" x="1354.2184" y="188.5179"/><rect fill="#FFFFFF" height="2" style="stroke:#000000;stroke-width:1;" width="4" x="1352.2184" y="190.5179"/><rect fill="#FFFFFF" height="2" style="stroke:#000000;stroke-width:1;" width="4" x="1352.2184" y="194.5179"/><text fill="#000000" font-family="Arial" font-size="14" lengthAdjust="spacing" textLength="44.3584" x="1304.86" y="216.6497">actions</text></g><!--entity contracts--><g class="entity" data-entity="contracts" data-source-line="18" data-uid="ent0008" id="entity_contracts"><rect fill="#FFFFFF" height="46.0986" rx="2.5" ry="2.5" style="stroke:#000000;stroke-width:1;" width="96.7998" x="1409.64" y="183.5179"/><rect fill="#FFFFFF" height="10" style="stroke:#000000;stroke-width:1;" width="15" x="1486.4398" y="188.5179"/><rect fill="#FFFFFF" height="2" style="stroke:#000000;stroke-width:1;" width="4" x="1484.4398" y="190.5179"/><rect fill="#FFFFFF" height="2" style="stroke:#000000;stroke-width:1;" width="4" x="1484.4398" y="194.5179"/><text fill="#000000" font-family="Arial" font-size="14" lengthAdjust="spacing" textLength="56.7998" x="1424.64" y="216.6497">contracts</text></g><!--entity discussion_router--><g class="entity" data-entity="discussion_router" data-source-line="19" data-uid="ent0009" id="entity_discussion_router"><rect fill="#FFFFFF" height="46.0986" rx="2.5" ry="2.5" style="stroke:#000000;stroke-width:1;" width="149.7236" x="1541.18" y="183.5179"/><rect fill="#FFFFFF" height="10" style="stroke:#000000;stroke-width:1;" width="15" x="1670.9036" y="188.5179"/><rect fill="#FFFFFF" height="2" style="stroke:#000000;stroke-width:1;" width="4" x="1668.9036" y="190.5179"/><rect fill="#FFFFFF" height="2" style="stroke:#000000;stroke-width:1;" width="4" x="1668.9036" y="194.5179"/><text fill="#000000" font-family="Arial" font-size="14" lengthAdjust="spacing" textLength="109.7236" x="1556.18" y="216.6497">discussion_router</text></g><!--entity manager--><g class="entity" data-entity="manager" data-source-line="20" data-uid="ent0010" id="entity_manager"><rect fill="#FFFFFF" height="46.0986" rx="2.5" ry="2.5" style="stroke:#000000;stroke-width:1;" width="95.2549" x="1725.41" y="183.5179"/><rect fill="#FFFFFF" height="10" style="stroke:#000000;stroke-width:1;" width="15" x="1800.6649" y="188.5179"/><rect fill="#FFFFFF" height="2" style="stroke:#000000;stroke-width:1;" width="4" x="1798.6649" y="190.5179"/><rect fill="#FFFFFF" height="2" style="stroke:#000000;stroke-width:1;" width="4" x="1798.6649" y="194.5179"/><text fill="#000000" font-family="Arial" font-size="14" lengthAdjust="spacing" textLength="55.2549" x="1740.41" y="216.6497">manager</text></g><!--entity breadcrumb--><g class="entity" data-entity="breadcrumb" data-source-line="21" data-uid="ent0011" id="entity_breadcrumb"><rect fill="#FFFFFF" height="46.0986" rx="2.5" ry="2.5" style="stroke:#000000;stroke-width:1;" width="114.7031" x="1274.69" y="308.9379"/><rect fill="#FFFFFF" height="10" style="stroke:#000000;stroke-width:1;" width="15" x="1369.3931" y="313.9379"/><rect fill="#FFFFFF" height="2" style="stroke:#000000;stroke-width:1;" width="4" x="1367.3931" y="315.9379"/><rect fill="#FFFFFF" height="2" style="stroke:#000000;stroke-width:1;" width="4" x="1367.3931" y="319.9379"/><text fill="#000000" font-family="Arial" font-size="14" lengthAdjust="spacing" textLength="74.7031" x="1289.69" y="342.0697">breadcrumb</text></g><!--entity discuss--><g class="entity" data-entity="discuss" data-source-line="22" data-uid="ent0012" id="entity_discuss"><rect fill="#FFFFFF" height="46.0986" rx="2.5" ry="2.5" style="stroke:#000000;stroke-width:1;" width="86.6826" x="1424.7" y="308.9379"/><rect fill="#FFFFFF" height="10" style="stroke:#000000;stroke-width:1;" width="15" x="1491.3826" y="313.9379"/><rect fill="#FFFFFF" height="2" style="stroke:#000000;stroke-width:1;" width="4" x="1489.3826" y="315.9379"/><rect fill="#FFFFFF" height="2" style="stroke:#000000;stroke-width:1;" width="4" x="1489.3826" y="319.9379"/><text fill="#000000" font-family="Arial" font-size="14" lengthAdjust="spacing" textLength="46.6826" x="1439.7" y="342.0697">discuss</text></g><!--entity markdown_parser--><g class="entity" data-entity="markdown_parser" data-source-line="23" data-uid="ent0013" id="entity_markdown_parser"><rect fill="#FFFFFF" height="46.0986" rx="2.5" ry="2.5" style="stroke:#000000;stroke-width:1;" width="152.0479" x="1546.01" y="308.9379"/><rect fill="#FFFFFF" height="10" style="stroke:#000000;stroke-width:1;" width="15" x="1678.0579" y="313.9379"/><rect fill="#FFFFFF" height="2" style="stroke:#000000;stroke-width:1;" width="4" x="1676.0579" y="315.9379"/><rect fill="#FFFFFF" height="2" style="stroke:#000000;stroke-width:1;" width="4" x="1676.0579" y="319.9379"/><text fill="#000000" font-family="Arial" font-size="14" lengthAdjust="spacing" textLength="112.0479" x="1561.01" y="342.0697">markdown_parser</text></g><!--entity markdown_writer--><g class="entity" data-entity="markdown_writer" data-source-line="24" data-uid="ent0014" id="entity_markdown_writer"><rect fill="#FFFFFF" height="46.0986" rx="2.5" ry="2.5" style="stroke:#000000;stroke-width:1;" width="146.5859" x="1732.75" y="308.9379"/><rect fill="#FFFFFF" height="10" style="stroke:#000000;stroke-width:1;" width="15" x="1859.3359" y="313.9379"/><rect fill="#FFFFFF" height="2" style="stroke:#000000;stroke-width:1;" width="4" x="1857.3359" y="315.9379"/><rect fill="#FFFFFF" height="2" style="stroke:#000000;stroke-width:1;" width="4" x="1857.3359" y="319.9379"/><text fill="#000000" font-family="Arial" font-size="14" lengthAdjust="spacing" textLength="106.5859" x="1747.75" y="342.0697">markdown_writer</text></g><!--entity discussion--><g class="entity" data-entity="discussion" data-source-line="25" data-uid="ent0015" id="entity_discussion"><rect fill="#FFFFFF" height="46.0986" rx="2.5" ry="2.5" style="stroke:#000000;stroke-width:1;" width="105.3652" x="1279.36" y="415.0379"/><rect fill="#FFFFFF" height="10" style="stroke:#000000;stroke-width:1;" width="15" x="1364.7252" y="420.0379"/><rect fill="#FFFFFF" height="2" style="stroke:#000000;stroke-width:1;" width="4" x="1362.7252" y="422.0379"/><rect fill="#FFFFFF" height="2" style="stroke:#000000;stroke-width:1;" width="4" x="1362.7252" y="426.0379"/><text fill="#000000" font-family="Arial" font-size="14" lengthAdjust="spacing" textLength="65.3652" x="1294.36" y="448.1697">discussion</text></g><!--entity main--><g class="entity" data-entity="main" data-source-line="26" data-uid="ent0016" id="entity_main"><rect fill="#FFFFFF" height="46.0986" rx="2.5" ry="2.5" style="stroke:#000000;stroke-width:1;" width="70.3447" x="1419.87" y="415.0379"/><rect fill="#FFFFFF" height="10" style="stroke:#000000;stroke-width:1;" width="15" x="1470.2147" y="420.0379"/><rect fill="#FFFFFF" height="2" style="stroke:#000000;stroke-width:1;" width="4" x="1468.2147" y="422.0379"/><rect fill="#FFFFFF" height="2" style="stroke:#000000;stroke-width:1;" width="4" x="1468.2147" y="426.0379"/><text fill="#000000" font-family="Arial" font-size="14" lengthAdjust="spacing" textLength="30.3447" x="1434.87" y="448.1697">main</text></g><!--entity NOTE_ANCHOR--><!--link NOTE_ANCHOR to GMN3--><!--SRC=[bLJDRjim3BxxARZkqWPej7L03zqfIzorGtw6BhUWC1I9QOJOaa792OfXBxBJdcrFCjfnMjjDKKpmGQ8-aX_9pteNrfWXvAaqDl8ROtD9CeEbL9i7SeNLGvSwWlVNrMeWDAvaaOPhPyDKSeG16PasxWT4RbSxVwfMutBg0dvnf95gnB1QNSGn4eoAWWafmd0oEjV6gy9xE8V3JYFcO6n0iZA5LUfsSEgM7ccB-WnEnxFHXoiOEeqmSRf8qPz5KU5HIOzm8grQEpe1wM4wcyV9O3gycTr5QyFmfi4oEo3pi0xWLgqRW5xlXoj8uLMl1uk5TigBdQDDoSIBxOKm95IcHODzNp6T_gFCKlW_-FrzX5P3oIQASkwMVE0YciMTm4-cf5oMEuisS8Kg66TzLMAzRmCK3vJuPWzvEhL1DHFsJdW-tEiA_CBQTigaPNvxQBrl0vQ4KYigicM5UJuUJTvCsKr46-rsDc4f-QU4BTih3ZioeUkmjxrMVwVmRbnZws3yT_sAzhf9SNLKDl6MPMOhuPHd5i_sepWeMPIwBfMGrCcIqj3F2nRDKIjhOn-a8wbCeW_a1DFa8MWl3ghA7-5v-vQtDEB5j1iHMiQtOcaPfEYqkuprqjJI-wl_OFbEn9VnPTNKlx__m1WrQmrkk9V-qDnP_IJ0YBDFwaoG8tdZGpa5VaEQZTs_AoNnpx2z0CBSGQ0Yh84V3m_VE2X_YqM_B_YxdNmVnvDuEX_CRsVJP1oFliPt_Kp3qOkgGGVNCZ85BzAATA9uHeOxXBvqhoiPFXcR7Va7]--></g></svg>