<svg xmlns="http://www.w3.org/2000/svg" xmlns:xlink="http://www.w3.org/1999/xlink" contentStyleType="text/css" data-diagram-type="DESCRIPTION" height="374px" preserveAspectRatio="none" style="width:2519px;height:374px;background:#FFFFFF;" version="1.1" viewBox="0 0 2519 374" width="2519px" zoomAndPan="magnify"><title>CMD-issues - Combined CLI+Code (LOD2)</title><defs/><g><g class="title" data-source-line="8"><text fill="#000000" font-family="Arial" font-size="22" font-weight="bold" lengthAdjust="spacing" textLength="441.8584" x="1034.2544" y="35.6357">CMD-issues - Combined CLI+Code (LOD2)</text></g><!--cluster CLI Layer--><g class="cluster" data-entity="CLI Layer" data-source-line="20" data-uid="ent0007" id="cluster_CLI Layer"><path d="M1238.29,147.8079 L1303.0898,147.8079 A3.75,3.75 0 0 1 1305.5898,150.3079 L1312.5898,169.9065 L1805.29,169.9065 A2.5,2.5 0 0 1 1807.79,172.4065 L1807.79,364.5579 A2.5,2.5 0 0 1 1805.29,367.0579 L1238.29,367.0579 A2.5,2.5 0 0 1 1235.79,364.5579 L1235.79,150.3079 A2.5,2.5 0 0 1 1238.29,147.8079" fill="#E6F3FF" style="stroke:#000000;stroke-width:1;"/><line style="stroke:#000000;stroke-width:1;" x1="1235.79" x2="1312.5898" y1="169.9065" y2="169.9065"/><text fill="#000000" font-family="Arial" font-size="14" font-weight="bold" lengthAdjust="spacing" textLength="63.7998" x="1239.79" y="162.9397">CLI Layer</text></g><!--cluster Code Layer--><g class="cluster" data-entity="Code Layer" data-source-line="28" data-uid="ent0013" id="cluster_Code Layer"><path d="M1834.29,149.3179 L1911.538,149.3179 A3.75,3.75 0 0 1 1914.038,151.8179 L1921.038,171.4165 L2255.29,171.4165 A2.5,2.5 0 0 1 2257.79,173.9165 L2257.79,363.1879 A2.5,2.5 0 0 1 2255.29,365.6879 L1834.29,365.6879 A2.5,2.5 0 0 1 1831.79,363.1879 L1831.79,151.8179 A2.5,2.5 0 0 1 1834.29,149.3179" fill="#FFE6E6" style="stroke:#000000;stroke-width:1;"/><line style="stroke:#000000;stroke-width:1;" x1="1831.79" x2="1921.038" y1="171.4165" y2="171.4165"/><text fill="#000000" font-family="Arial" font-size="14" font-weight="bold" lengthAdjust="spacing" textLength="76.248" x="1835.79" y="164.4497">Code Layer</text></g><!--entity maestro issues list--><g class="entity" data-entity="maestro issues list" data-source-line="21" data-uid="ent0008" id="entity_maestro issues list"><ellipse cx="1324.795" cy="202.3668" fill="#FFFFFF" rx="73.245" ry="17.049" style="stroke:#000000;stroke-width:1;"/><text fill="#000000" font-family="Arial" font-size="14" lengthAdjust="spacing" textLength="115.1445" x="1267.2227" y="206.9162">maestro issues list</text></g><!--entity maestro issues add--><g class="entity" data-entity="maestro issues add" data-source-line="22" data-uid="ent0009" id="entity_maestro issues add"><ellipse cx="1508.7874" cy="202.3633" fill="#FFFFFF" rx="75.8274" ry="17.5655" style="stroke:#000000;stroke-width:1;"/><text fill="#000000" font-family="Arial" font-size="14" lengthAdjust="spacing" textLength="121.3926" x="1448.0911" y="206.9126">maestro issues add</text></g><!--entity maestro issues remove--><g class="entity" data-entity="maestro issues remove" data-source-line="23" data-uid="ent0010" id="entity_maestro issues remove"><ellipse cx="1705.7881" cy="202.3675" fill="#FFFFFF" rx="85.7981" ry="19.5596" style="stroke:#000000;stroke-width:1;"/><text fill="#000000" font-family="Arial" font-size="14" lengthAdjust="spacing" textLength="144.7168" x="1633.4297" y="206.9168">maestro issues remove</text></g><!--entity maestro issues show--><g class="entity" data-entity="maestro issues show" data-source-line="24" data-uid="ent0011" id="entity_maestro issues show"><ellipse cx="1331.7862" cy="331.6391" fill="#FFFFFF" rx="79.7562" ry="18.3512" style="stroke:#000000;stroke-width:1;"/><text fill="#000000" font-family="Arial" font-size="14" lengthAdjust="spacing" textLength="130.7168" x="1266.4278" y="336.1884">maestro issues show</text></g><!--entity maestro issues resolve--><g class="entity" data-entity="maestro issues resolve" data-source-line="25" data-uid="ent0012" id="entity_maestro issues resolve"><ellipse cx="1531.7909" cy="331.642" fill="#FFFFFF" rx="85.1209" ry="19.4242" style="stroke:#000000;stroke-width:1;"/><text fill="#000000" font-family="Arial" font-size="14" lengthAdjust="spacing" textLength="143.165" x="1460.2084" y="336.1914">maestro issues resolve</text></g><!--entity main--><g class="entity" data-entity="main" data-source-line="29" data-uid="ent0014" id="entity_main"><rect fill="#FFFFFF" height="36.0986" rx="2.5" ry="2.5" style="stroke:#000000;stroke-width:1;" width="50.3447" x="1847.62" y="184.3179"/><text fill="#000000" font-family="Arial" font-size="14" lengthAdjust="spacing" textLength="30.3447" x="1857.62" y="207.4497">main</text></g><!--entity handle_issues_command--><g class="entity" data-entity="handle_issues_command" data-source-line="30" data-uid="ent0015" id="entity_handle_issues_command"><rect fill="#FFFFFF" height="36.0986" rx="2.5" ry="2.5" style="stroke:#000000;stroke-width:1;" width="178.7646" x="1933.41" y="184.3179"/><text fill="#000000" font-family="Arial" font-size="14" lengthAdjust="spacing" textLength="158.7646" x="1943.41" y="207.4497">handle_issues_command</text></g><!--entity _handle_list--><g class="entity" data-entity="_handle_list" data-source-line="31" data-uid="ent0016" id="entity__handle_list"><rect fill="#FFFFFF" height="36.0986" rx="2.5" ry="2.5" style="stroke:#000000;stroke-width:1;" width="94.7236" x="2147.43" y="184.3179"/><text fill="#000000" font-family="Arial" font-size="14" lengthAdjust="spacing" textLength="74.7236" x="2157.43" y="207.4497">_handle_list</text></g><!--entity _handle_show--><g class="entity" data-entity="_handle_show" data-source-line="32" data-uid="ent0017" id="entity__handle_show"><rect fill="#FFFFFF" height="36.0986" rx="2.5" ry="2.5" style="stroke:#000000;stroke-width:1;" width="110.2959" x="1847.64" y="313.5879"/><text fill="#000000" font-family="Arial" font-size="14" lengthAdjust="spacing" textLength="90.2959" x="1857.64" y="336.7197">_handle_show</text></g><!--entity _handle_state--><g class="entity" data-entity="_handle_state" data-source-line="33" data-uid="ent0018" id="entity__handle_state"><rect fill="#FFFFFF" height="36.0986" rx="2.5" ry="2.5" style="stroke:#000000;stroke-width:1;" width="107.9648" x="1992.81" y="313.5879"/><text fill="#000000" font-family="Arial" font-size="14" lengthAdjust="spacing" textLength="87.9648" x="2002.81" y="336.7197">_handle_state</text></g><!--entity NOTE_ANCHOR--><g class="entity" data-entity="N1" data-source-line="17" data-uid="ent0006" id="entity_N1"><path d="M2277.21,189.8879 L2277.21,214.8366 L2512.3672,214.8366 L2512.3672,199.8879 L2502.3672,189.8879 L2277.21,189.8879" fill="#FFFFCC" style="stroke:#CCCCCC;stroke-width:1;"/><path d="M2502.3672,189.8879 L2502.3672,199.8879 L2512.3672,199.8879 L2502.3672,189.8879" fill="#FFFFCC" style="stroke:#CCCCCC;stroke-width:1;"/><text fill="#000000" font-family="Arial" font-size="13" font-weight="bold" lengthAdjust="spacing" textLength="214.1572" x="2283.21" y="207.0817">Combined CLI + Code view (LOD2)</text></g><!--link NOTE_ANCHOR to GMN3--><!--SRC=[bLJTRfim6BtFKtnBRpQwWjfAkTYkCW9hf_nCRNSLLSZ5Nu8LOoFR45NJNcHNUxOzoMm7CjgXIBEumD-Vppa-yCOKM29Kd30nqZicAg982KyatssLh0MD9PSApbA_UXKKDwJc9fN2B8cTC5MCy5v-gfJSjytNVlMIIsdmarGKLLiH-_MwOWY4hHePPZX2l9XTCArhr701iIoVc40AyVpsF9OKuUryDRjwDnhL6dEY4SP4v8LKOo0Qbgk799ikuvlLtQXWjhWV4FPeK6nR692R5nc08BYNjShnGn30UarbhgEzLBiDbtiTDLSHKr5UqkWlj33dB7mc9OV_ANvy7A6Wu92C3dWSw4iFeCyKpi5pRHZkMy91q6kjh89aQxcxsZbvHal_B9carsaAt-sqepObGMsKX5PFphGPdyWJIa-b5PQomLCLkf3xqnEqv6x4Zpu9HxLZaQR999bu5WfpGyIM-p5CZ5-62Y8en-mmECjbMTh0gvgiBUfu3wGwn4CfGym1ghygZfj1voIDTPhmtd5xwv_cCchnPBfM6vAZCqGBDImflDXPKnpRc32e1E4HHQnwJPdRXrLj_JOK_DTNGpxlnFMeV__y1NEaMrHmOq_L7VhLaqRLM1lEY24BedPKxWLKgBJLqD449deOm640P_sFq5nP5Ii9HjMcS1RGyENU3_tctiF8Vog7lYYmpDztCMkAsZ0fkh1LxfX2hOyPsDZVXSLYXzfdlGx3o3wtYw_pP94i7wOFjwjbDazcdvCxLpsOy79thGwlCZhYNeaijmSpQc_Ttr8hJtmCzcN-0m00]--></g></svg>