<svg xmlns="http://www.w3.org/2000/svg" xmlns:xlink="http://www.w3.org/1999/xlink" contentStyleType="text/css" data-diagram-type="DESCRIPTION" height="344px" preserveAspectRatio="none" style="width:2256px;height:344px;background:#FFFFFF;" version="1.1" viewBox="0 0 2256 344" width="2256px" zoomAndPan="magnify"><title>CMD-task - Combined CLI+Code (LOD2)</title><defs/><g><g class="title" data-source-line="8"><text fill="#000000" font-family="Arial" font-size="22" font-weight="bold" lengthAdjust="spacing" textLength="417.3984" x="914.8244" y="35.6357">CMD-task - Combined CLI+Code (LOD2)</text></g><!--cluster CLI Layer--><g class="cluster" data-entity="CLI Layer" data-source-line="20" data-uid="ent0007" id="cluster_CLI Layer"><path d="M1211.97,124.0579 L1276.7698,124.0579 A3.75,3.75 0 0 1 1279.2698,126.5579 L1286.2698,146.1565 L1573.97,146.1565 A2.5,2.5 0 0 1 1576.47,148.6565 L1576.47,335.0279 A2.5,2.5 0 0 1 1573.97,337.5279 L1211.97,337.5279 A2.5,2.5 0 0 1 1209.47,335.0279 L1209.47,126.5579 A2.5,2.5 0 0 1 1211.97,124.0579" fill="#E6F3FF" style="stroke:#000000;stroke-width:1;"/><line style="stroke:#000000;stroke-width:1;" x1="1209.47" x2="1286.2698" y1="146.1565" y2="146.1565"/><text fill="#000000" font-family="Arial" font-size="14" font-weight="bold" lengthAdjust="spacing" textLength="63.7998" x="1213.47" y="139.1897">CLI Layer</text></g><!--cluster Code Layer--><g class="cluster" data-entity="Code Layer" data-source-line="27" data-uid="ent0012" id="cluster_Code Layer"><path d="M1602.97,121.9279 L1680.218,121.9279 A3.75,3.75 0 0 1 1682.718,124.4279 L1689.718,144.0265 L1992.97,144.0265 A2.5,2.5 0 0 1 1995.47,146.5265 L1995.47,334.7279 A2.5,2.5 0 0 1 1992.97,337.2279 L1602.97,337.2279 A2.5,2.5 0 0 1 1600.47,334.7279 L1600.47,124.4279 A2.5,2.5 0 0 1 1602.97,121.9279" fill="#FFE6E6" style="stroke:#000000;stroke-width:1;"/><line style="stroke:#000000;stroke-width:1;" x1="1600.47" x2="1689.718" y1="144.0265" y2="144.0265"/><text fill="#000000" font-family="Arial" font-size="14" font-weight="bold" lengthAdjust="spacing" textLength="76.248" x="1604.47" y="137.0597">Code Layer</text></g><!--entity maestro task--><g class="entity" data-entity="maestro task" data-source-line="21" data-uid="ent0008" id="entity_maestro task"><ellipse cx="1295.4659" cy="174.9813" fill="#FFFFFF" rx="59.6659" ry="14.3835" style="stroke:#000000;stroke-width:1;"/><text fill="#000000" font-family="Arial" font-size="14" lengthAdjust="spacing" textLength="80.1377" x="1255.3971" y="179.5306">maestro task</text></g><!--entity maestro task list--><g class="entity" data-entity="maestro task list" data-source-line="22" data-uid="ent0009" id="entity_maestro task list"><ellipse cx="1457.4697" cy="174.9738" fill="#FFFFFF" rx="67.6297" ry="15.9259" style="stroke:#000000;stroke-width:1;"/><text fill="#000000" font-family="Arial" font-size="14" lengthAdjust="spacing" textLength="101.1377" x="1406.9008" y="179.5231">maestro task list</text></g><!--entity maestro task add--><g class="entity" data-entity="maestro task add" data-source-line="23" data-uid="ent0010" id="entity_maestro task add"><ellipse cx="1295.4722" cy="303.1783" fill="#FFFFFF" rx="70.1022" ry="16.4204" style="stroke:#000000;stroke-width:1;"/><text fill="#000000" font-family="Arial" font-size="14" lengthAdjust="spacing" textLength="107.3857" x="1241.7794" y="307.7276">maestro task add</text></g><!--entity maestro task remove--><g class="entity" data-entity="maestro task remove" data-source-line="24" data-uid="ent0011" id="entity_maestro task remove"><ellipse cx="1480.4732" cy="303.1785" fill="#FFFFFF" rx="79.7532" ry="18.3506" style="stroke:#000000;stroke-width:1;"/><text fill="#000000" font-family="Arial" font-size="14" lengthAdjust="spacing" textLength="130.71" x="1415.1183" y="307.7278">maestro task remove</text></g><!--entity main--><g class="entity" data-entity="main" data-source-line="28" data-uid="ent0013" id="entity_main"><rect fill="#FFFFFF" height="36.0986" rx="2.5" ry="2.5" style="stroke:#000000;stroke-width:1;" width="50.3447" x="1616.3" y="156.9279"/><text fill="#000000" font-family="Arial" font-size="14" lengthAdjust="spacing" textLength="30.3447" x="1626.3" y="180.0597">main</text></g><!--entity handle_task_command--><g class="entity" data-entity="handle_task_command" data-source-line="29" data-uid="ent0014" id="entity_handle_task_command"><rect fill="#FFFFFF" height="36.0986" rx="2.5" ry="2.5" style="stroke:#000000;stroke-width:1;" width="164.7578" x="1702.09" y="156.9279"/><text fill="#000000" font-family="Arial" font-size="14" lengthAdjust="spacing" textLength="144.7578" x="1712.09" y="180.0597">handle_task_command</text></g><!--entity list_tasks--><g class="entity" data-entity="list_tasks" data-source-line="30" data-uid="ent0015" id="entity_list_tasks"><rect fill="#FFFFFF" height="36.0986" rx="2.5" ry="2.5" style="stroke:#000000;stroke-width:1;" width="77.5723" x="1901.68" y="156.9279"/><text fill="#000000" font-family="Arial" font-size="14" lengthAdjust="spacing" textLength="57.5723" x="1911.68" y="180.0597">list_tasks</text></g><!--entity show_task--><g class="entity" data-entity="show_task" data-source-line="31" data-uid="ent0016" id="entity_show_task"><rect fill="#FFFFFF" height="36.0986" rx="2.5" ry="2.5" style="stroke:#000000;stroke-width:1;" width="86.1445" x="1616.4" y="285.1279"/><text fill="#000000" font-family="Arial" font-size="14" lengthAdjust="spacing" textLength="66.1445" x="1626.4" y="308.2597">show_task</text></g><!--entity add_task--><g class="entity" data-entity="add_task" data-source-line="32" data-uid="ent0017" id="entity_add_task"><rect fill="#FFFFFF" height="36.0986" rx="2.5" ry="2.5" style="stroke:#000000;stroke-width:1;" width="76.8203" x="1737.06" y="285.1279"/><text fill="#000000" font-family="Arial" font-size="14" lengthAdjust="spacing" textLength="56.8203" x="1747.06" y="308.2597">add_task</text></g><!--entity NOTE_ANCHOR--><g class="entity" data-entity="N1" data-source-line="17" data-uid="ent0006" id="entity_N1"><path d="M2013.89,162.5079 L2013.89,187.4566 L2249.0472,187.4566 L2249.0472,172.5079 L2239.0472,162.5079 L2013.89,162.5079" fill="#FFFFCC" style="stroke:#CCCCCC;stroke-width:1;"/><path d="M2239.0472,162.5079 L2239.0472,172.5079 L2249.0472,172.5079 L2239.0472,162.5079" fill="#FFFFCC" style="stroke:#CCCCCC;stroke-width:1;"/><text fill="#000000" font-family="Arial" font-size="13" font-weight="bold" lengthAdjust="spacing" textLength="214.1572" x="2019.89" y="179.7017">Combined CLI + Code view (LOD2)</text></g><!--link NOTE_ANCHOR to GMN3--><!--SRC=[ZLDBRjim4Dth55Ddqpg8XIH05ktAbQKcXIqNINP6OD3Ys29CaIf9MGsANAIhdgqdwP2L0yLnW1A40CxdpPitetUkn0gXbaoeo6w5gfbX5QnOiTqOtIYUQAaDd6JXz28uhbaZNQQLonaXZ8rWikSV6wFRBlaod9uprmu_QyFHT159E8SHnqXGLEI4amZ9R7BccDt26IIwMWc579BfpMcYESBxwNnoyI6A6ei5imW3fefIcm4m2_dyFbsEy-HwVXkLWeBx1aM5mOXDwK2lNtW0XiCxtPW2Fmw7i5XmNTYurMQxbhgryUuY5YOkAXxlYOqAAKQFh9Bm_w4F3n4g3fv5z8-B9tmUYlUxX5C8VUu4jbspms4ljIRjs8Rwzh5JzeZK-abwbLrc6Vmaj6TTAeRM6GsUnU0j1qXXtTjUnldRJeELtk4WUkgJyjJthB8ilKgl0Yk3XMDg8mE6K8ENff8fBd7fKPU5hYfw7aHuci5l3nosrErotsBFJimxyrCdjyJrqScdEzeK5MRltpJ_tNdSiGWGeuh3mPk6UJoqRcWfNbbUp_xO7ku52wp-_FeDK-GRD70jbBDxTlELHREZLPamnsRCRBbk5THeB2dasm2XW1Om5AT_6Mlmg_a9TXSaJqsZCuqh_KGjVBsRvm7qZaIqK8aVXDk7gcYQ4bf12IjD7vy0r1ay5ruBYJQ0sneBgl2z4GO9bEvYCHh5T6zctwRfBCtln_StytmvJITVqbilwb57a7QVwXaRPsCPb5WML5jmvj3wz4wUvDdOb_al]--></g></svg>