<svg xmlns="http://www.w3.org/2000/svg" xmlns:xlink="http://www.w3.org/1999/xlink" contentStyleType="text/css" data-diagram-type="DESCRIPTION" height="788px" preserveAspectRatio="none" style="width:2391px;height:788px;background:#FFFFFF;" version="1.1" viewBox="0 0 2391 788" width="2391px" zoomAndPan="magnify"><title>CMD-wsession - wsession deep internal flow (observed) (LOD1: Code Functions)</title><defs/><g><g class="title" data-source-line="8"><text fill="#000000" font-family="Arial" font-size="22" font-weight="bold" lengthAdjust="spacing" textLength="845.8721" x="768.5209" y="35.6357">CMD-wsession - wsession deep internal flow (observed) (LOD1: Code Functions)</text></g><!--entity NOTE_ANCHOR--><!--entity main_entry--><g class="entity" data-entity="main_entry" data-source-line="16" data-uid="ent0006" id="entity_main_entry"><rect fill="#FFFFFF" height="52.1973" rx="2.5" ry="2.5" style="stroke:#000000;stroke-width:1;" width="132.8066" x="1304.69" y="161.4279"/><text fill="#000000" font-family="Arial" font-size="14" lengthAdjust="spacing" textLength="69.2549" x="1314.69" y="184.5597">main_entry</text><text fill="#000000" font-family="Arial" font-size="14" lengthAdjust="spacing" textLength="112.8066" x="1314.69" y="200.6583">(maestro/main.py)</text></g><!--entity add_wsession_parser--><g class="entity" data-entity="add_wsession_parser" data-source-line="17" data-uid="ent0007" id="entity_add_wsession_parser"><rect fill="#FFFFFF" height="52.1973" rx="2.5" ry="2.5" style="stroke:#000000;stroke-width:1;" width="259.6338" x="283.28" y="319.7979"/><text fill="#000000" font-family="Arial" font-size="14" lengthAdjust="spacing" textLength="136.1924" x="293.28" y="342.9297">add_wsession_parser</text><text fill="#000000" font-family="Arial" font-size="14" lengthAdjust="spacing" textLength="239.6338" x="293.28" y="359.0283">(maestro/commands/work_session.py)</text></g><!--entity handle_wsession_list--><g class="entity" data-entity="handle_wsession_list" data-source-line="18" data-uid="ent0008" id="entity_handle_wsession_list"><rect fill="#FFFFFF" height="52.1973" rx="2.5" ry="2.5" style="stroke:#000000;stroke-width:1;" width="259.6338" x="578.28" y="319.7979"/><text fill="#000000" font-family="Arial" font-size="14" lengthAdjust="spacing" textLength="132.3027" x="588.28" y="342.9297">handle_wsession_list</text><text fill="#000000" font-family="Arial" font-size="14" lengthAdjust="spacing" textLength="239.6338" x="588.28" y="359.0283">(maestro/commands/work_session.py)</text></g><!--entity handle_wsession_show--><g class="entity" data-entity="handle_wsession_show" data-source-line="19" data-uid="ent0009" id="entity_handle_wsession_show"><rect fill="#FFFFFF" height="52.1973" rx="2.5" ry="2.5" style="stroke:#000000;stroke-width:1;" width="259.6338" x="946.28" y="319.7979"/><text fill="#000000" font-family="Arial" font-size="14" lengthAdjust="spacing" textLength="147.875" x="956.28" y="342.9297">handle_wsession_show</text><text fill="#000000" font-family="Arial" font-size="14" lengthAdjust="spacing" textLength="239.6338" x="956.28" y="359.0283">(maestro/commands/work_session.py)</text></g><!--entity handle_wsession_tree--><g class="entity" data-entity="handle_wsession_tree" data-source-line="20" data-uid="ent0010" id="entity_handle_wsession_tree"><rect fill="#FFFFFF" height="52.1973" rx="2.5" ry="2.5" style="stroke:#000000;stroke-width:1;" width="259.6338" x="1241.28" y="319.7979"/><text fill="#000000" font-family="Arial" font-size="14" lengthAdjust="spacing" textLength="139.3164" x="1251.28" y="342.9297">handle_wsession_tree</text><text fill="#000000" font-family="Arial" font-size="14" lengthAdjust="spacing" textLength="239.6338" x="1251.28" y="359.0283">(maestro/commands/work_session.py)</text></g><!--entity handle_wsession_breadcrumbs--><g class="entity" data-entity="handle_wsession_breadcrumbs" data-source-line="21" data-uid="ent0011" id="entity_handle_wsession_breadcrumbs"><rect fill="#FFFFFF" height="52.1973" rx="2.5" ry="2.5" style="stroke:#000000;stroke-width:1;" width="259.6338" x="1536.28" y="319.7979"/><text fill="#000000" font-family="Arial" font-size="14" lengthAdjust="spacing" textLength="196.8955" x="1546.28" y="342.9297">handle_wsession_breadcrumbs</text><text fill="#000000" font-family="Arial" font-size="14" lengthAdjust="spacing" textLength="239.6338" x="1546.28" y="359.0283">(maestro/commands/work_session.py)</text></g><!--entity handle_wsession_timeline--><g class="entity" data-entity="handle_wsession_timeline" data-source-line="22" data-uid="ent0012" id="entity_handle_wsession_timeline"><rect fill="#FFFFFF" height="52.1973" rx="2.5" ry="2.5" style="stroke:#000000;stroke-width:1;" width="259.6338" x="1831.28" y="319.7979"/><text fill="#000000" font-family="Arial" font-size="14" lengthAdjust="spacing" textLength="163.4336" x="1841.28" y="342.9297">handle_wsession_timeline</text><text fill="#000000" font-family="Arial" font-size="14" lengthAdjust="spacing" textLength="239.6338" x="1841.28" y="359.0283">(maestro/commands/work_session.py)</text></g><!--entity handle_wsession_stats--><g class="entity" data-entity="handle_wsession_stats" data-source-line="23" data-uid="ent0013" id="entity_handle_wsession_stats"><rect fill="#FFFFFF" height="52.1973" rx="2.5" ry="2.5" style="stroke:#000000;stroke-width:1;" width="259.6338" x="2126.28" y="319.7979"/><text fill="#000000" font-family="Arial" font-size="14" lengthAdjust="spacing" textLength="144.7578" x="2136.28" y="342.9297">handle_wsession_stats</text><text fill="#000000" font-family="Arial" font-size="14" lengthAdjust="spacing" textLength="239.6338" x="2136.28" y="359.0283">(maestro/commands/work_session.py)</text></g><!--entity _resolve_session_id--><g class="entity" data-entity="_resolve_session_id" data-source-line="24" data-uid="ent0014" id="entity__resolve_session_id"><rect fill="#FFFFFF" height="52.1973" rx="2.5" ry="2.5" style="stroke:#000000;stroke-width:1;" width="259.6338" x="1392.28" y="444.4379"/><text fill="#000000" font-family="Arial" font-size="14" lengthAdjust="spacing" textLength="126.8545" x="1402.28" y="467.5697">_resolve_session_id</text><text fill="#000000" font-family="Arial" font-size="14" lengthAdjust="spacing" textLength="239.6338" x="1402.28" y="483.6683">(maestro/commands/work_session.py)</text></g><!--entity export_session_json--><g class="entity" data-entity="export_session_json" data-source-line="25" data-uid="ent0015" id="entity_export_session_json"><rect fill="#FFFFFF" height="52.1973" rx="2.5" ry="2.5" style="stroke:#000000;stroke-width:1;" width="259.6338" x="688.28" y="444.4379"/><text fill="#000000" font-family="Arial" font-size="14" lengthAdjust="spacing" textLength="127.6338" x="698.28" y="467.5697">export_session_json</text><text fill="#000000" font-family="Arial" font-size="14" lengthAdjust="spacing" textLength="239.6338" x="698.28" y="483.6683">(maestro/commands/work_session.py)</text></g><!--entity export_session_markdown--><g class="entity" data-entity="export_session_markdown" data-source-line="26" data-uid="ent0016" id="entity_export_session_markdown"><rect fill="#FFFFFF" height="52.1973" rx="2.5" ry="2.5" style="stroke:#000000;stroke-width:1;" width="259.6338" x="1687.28" y="444.4379"/><text fill="#000000" font-family="Arial" font-size="14" lengthAdjust="spacing" textLength="166.5303" x="1697.28" y="467.5697">export_session_markdown</text><text fill="#000000" font-family="Arial" font-size="14" lengthAdjust="spacing" textLength="239.6338" x="1697.28" y="483.6683">(maestro/commands/work_session.py)</text></g><!--entity _filter_hierarchy_by_status--><g class="entity" data-entity="_filter_hierarchy_by_status" data-source-line="27" data-uid="ent0017" id="entity__filter_hierarchy_by_status"><rect fill="#FFFFFF" height="52.1973" rx="2.5" ry="2.5" style="stroke:#000000;stroke-width:1;" width="259.6338" x="1472.28" y="161.4279"/><text fill="#000000" font-family="Arial" font-size="14" lengthAdjust="spacing" textLength="167.3096" x="1482.28" y="184.5597">_filter_hierarchy_by_status</text><text fill="#000000" font-family="Arial" font-size="14" lengthAdjust="spacing" textLength="239.6338" x="1482.28" y="200.6583">(maestro/commands/work_session.py)</text></g><!--entity _print_breadcrumb_counts--><g class="entity" data-entity="_print_breadcrumb_counts" data-source-line="28" data-uid="ent0018" id="entity__print_breadcrumb_counts"><rect fill="#FFFFFF" height="52.1973" rx="2.5" ry="2.5" style="stroke:#000000;stroke-width:1;" width="259.6338" x="1767.28" y="161.4279"/><text fill="#000000" font-family="Arial" font-size="14" lengthAdjust="spacing" textLength="166.5439" x="1777.28" y="184.5597">_print_breadcrumb_counts</text><text fill="#000000" font-family="Arial" font-size="14" lengthAdjust="spacing" textLength="239.6338" x="1777.28" y="200.6583">(maestro/commands/work_session.py)</text></g><!--entity list_sessions--><g class="entity" data-entity="list_sessions" data-source-line="29" data-uid="ent0019" id="entity_list_sessions"><rect fill="#FFFFFF" height="52.1973" rx="2.5" ry="2.5" style="stroke:#000000;stroke-width:1;" width="187.2754" x="531.46" y="581.5379"/><text fill="#000000" font-family="Arial" font-size="14" lengthAdjust="spacing" textLength="79.3652" x="541.46" y="604.6697">list_sessions</text><text fill="#000000" font-family="Arial" font-size="14" lengthAdjust="spacing" textLength="167.2754" x="541.46" y="620.7683">(maestro/work_session.py)</text></g><!--entity load_session--><g class="entity" data-entity="load_session" data-source-line="30" data-uid="ent0020" id="entity_load_session"><rect fill="#FFFFFF" height="52.1973" rx="2.5" ry="2.5" style="stroke:#000000;stroke-width:1;" width="187.2754" x="982.46" y="444.4379"/><text fill="#000000" font-family="Arial" font-size="14" lengthAdjust="spacing" textLength="81.7236" x="992.46" y="467.5697">load_session</text><text fill="#000000" font-family="Arial" font-size="14" lengthAdjust="spacing" textLength="167.2754" x="992.46" y="483.6683">(maestro/work_session.py)</text></g><!--entity docs_sessions_dir--><g class="entity" data-entity="docs_sessions_dir" data-source-line="39" data-uid="ent0029" id="entity_docs_sessions_dir"><ellipse cx="625.0959" cy="715.1879" fill="#FFFFFF" rx="8" ry="8" style="stroke:#000000;stroke-width:1;"/><path d="M625.0959,723.1879 L625.0959,750.1879 M612.0959,731.1879 L638.0959,731.1879 M625.0959,750.1879 L612.0959,765.1879 M625.0959,750.1879 L638.0959,765.1879" fill="none" style="stroke:#000000;stroke-width:1;"/><text fill="#000000" font-family="Arial" font-size="14" lengthAdjust="spacing" textLength="115.1719" x="567.51" y="780.3197">docs_sessions_dir</text></g><!--entity session_table_formatter--><g class="entity" data-entity="session_table_formatter" data-source-line="40" data-uid="ent0031" id="entity_session_table_formatter"><ellipse cx="507.0965" cy="440.9879" fill="#FFFFFF" rx="8" ry="8" style="stroke:#000000;stroke-width:1;"/><path d="M507.0965,448.9879 L507.0965,475.9879 M494.0965,456.9879 L520.0965,456.9879 M507.0965,475.9879 L494.0965,490.9879 M507.0965,475.9879 L520.0965,490.9879" fill="none" style="stroke:#000000;stroke-width:1;"/><text fill="#000000" font-family="Arial" font-size="14" lengthAdjust="spacing" textLength="149.4131" x="432.39" y="506.1197">session_table_formatter</text></g><!--entity session_detail_formatter--><g class="entity" data-entity="session_detail_formatter" data-source-line="43" data-uid="ent0035" id="entity_session_detail_formatter"><ellipse cx="1281.1017" cy="440.9879" fill="#FFFFFF" rx="8" ry="8" style="stroke:#000000;stroke-width:1;"/><path d="M1281.1017,448.9879 L1281.1017,475.9879 M1268.1017,456.9879 L1294.1017,456.9879 M1281.1017,475.9879 L1268.1017,490.9879 M1281.1017,475.9879 L1294.1017,490.9879" fill="none" style="stroke:#000000;stroke-width:1;"/><text fill="#000000" font-family="Arial" font-size="14" lengthAdjust="spacing" textLength="152.5234" x="1204.84" y="506.1197">session_detail_formatter</text></g><!--entity file_system--><g class="entity" data-entity="file_system" data-source-line="45" data-uid="ent0038" id="entity_file_system"><ellipse cx="1470.1003" cy="578.0879" fill="#FFFFFF" rx="8" ry="8" style="stroke:#000000;stroke-width:1;"/><path d="M1470.1003,586.0879 L1470.1003,613.0879 M1457.1003,594.0879 L1483.1003,594.0879 M1470.1003,613.0879 L1457.1003,628.0879 M1470.1003,613.0879 L1483.1003,628.0879" fill="none" style="stroke:#000000;stroke-width:1;"/><text fill="#000000" font-family="Arial" font-size="14" lengthAdjust="spacing" textLength="70.0205" x="1435.09" y="643.2197">file_system</text></g><!--entity list_breadcrumbs--><g class="entity" data-entity="list_breadcrumbs" data-source-line="46" data-uid="ent0040" id="entity_list_breadcrumbs"><ellipse cx="990.0998" cy="578.0879" fill="#FFFFFF" rx="8" ry="8" style="stroke:#000000;stroke-width:1;"/><path d="M990.0998,586.0879 L990.0998,613.0879 M977.0998,594.0879 L1003.0998,594.0879 M990.0998,613.0879 L977.0998,628.0879 M990.0998,613.0879 L1003.0998,628.0879" fill="none" style="stroke:#000000;stroke-width:1;"/><text fill="#000000" font-family="Arial" font-size="14" lengthAdjust="spacing" textLength="106.5996" x="936.8" y="643.2197">list_breadcrumbs</text></g><!--entity calculate_session_stats--><g class="entity" data-entity="calculate_session_stats" data-source-line="47" data-uid="ent0042" id="entity_calculate_session_stats"><ellipse cx="828.1007" cy="578.0879" fill="#FFFFFF" rx="8" ry="8" style="stroke:#000000;stroke-width:1;"/><path d="M828.1007,586.0879 L828.1007,613.0879 M815.1007,594.0879 L841.1007,594.0879 M828.1007,613.0879 L815.1007,628.0879 M828.1007,613.0879 L841.1007,628.0879" fill="none" style="stroke:#000000;stroke-width:1;"/><text fill="#000000" font-family="Arial" font-size="14" lengthAdjust="spacing" textLength="147.8613" x="754.17" y="643.2197">calculate_session_stats</text></g><!--link NOTE_ANCHOR to GMN3--><!--link main_entry to add_wsession_parser--><g class="link" data-entity-1="main_entry" data-entity-2="add_wsession_parser" data-source-line="31" data-uid="lnk21" id="link_main_entry_add_wsession_parser"><path d="M1349.21,213.9079 C1333.66,230.0579 1311.3,249.7579 1287.1,259.7979 C1137.56,321.7979 721.71,299.5779 561.1,319.7979 C555.28,320.5279 555.2819,320.4946 549.2919,321.3346" fill="none" id="main_entry-to-add_wsession_parser" style="stroke:#333333;stroke-width:1;"/><polygon fill="#333333" points="543.35,322.1679,552.8183,324.8792,548.3015,321.4735,551.7073,316.9567,543.35,322.1679" style="stroke:#333333;stroke-width:1;"/></g><!--link main_entry to handle_wsession_list--><g class="link" data-entity-1="main_entry" data-entity-2="handle_wsession_list" data-source-line="32" data-uid="lnk22" id="link_main_entry_handle_wsession_list"><path d="M1348.31,214.1079 C1332.69,229.9179 1310.62,249.1579 1287.1,259.7979 C1247.03,277.9179 1002.3164,309.726 844.2064,328.886" fill="none" id="main_entry-to-handle_wsession_list" style="stroke:#333333;stroke-width:1;"/><polygon fill="#333333" points="838.25,329.6079,847.6658,332.4961,843.2137,329.0063,846.7034,324.5542,838.25,329.6079" style="stroke:#333333;stroke-width:1;"/></g><!--link main_entry to handle_wsession_show--><g class="link" data-entity-1="main_entry" data-entity-2="handle_wsession_show" data-source-line="33" data-uid="lnk23" id="link_main_entry_handle_wsession_show"><path d="M1345.55,213.9779 C1329.71,228.7579 1308.38,246.9379 1287.1,259.7979 C1246.27,284.4579 1202.6668,302.7597 1162.0168,317.3597" fill="none" id="main_entry-to-handle_wsession_show" style="stroke:#333333;stroke-width:1;"/><polygon fill="#333333" points="1156.37,319.3879,1166.1923,320.1102,1161.0757,317.6977,1163.4882,312.5811,1156.37,319.3879" style="stroke:#333333;stroke-width:1;"/></g><!--link main_entry to handle_wsession_tree--><g class="link" data-entity-1="main_entry" data-entity-2="handle_wsession_tree" data-source-line="34" data-uid="lnk24" id="link_main_entry_handle_wsession_tree"><path d="M1371.1,213.9979 C1371.1,243.0779 1371.1,284.3579 1371.1,313.4379" fill="none" id="main_entry-to-handle_wsession_tree" style="stroke:#333333;stroke-width:1;"/><polygon fill="#333333" points="1371.1,319.4379,1375.1,310.4379,1371.1,314.4379,1367.1,310.4379,1371.1,319.4379" style="stroke:#333333;stroke-width:1;"/></g><!--link main_entry to handle_wsession_breadcrumbs--><g class="link" data-entity-1="main_entry" data-entity-2="handle_wsession_breadcrumbs" data-source-line="35" data-uid="lnk25" id="link_main_entry_handle_wsession_breadcrumbs"><path d="M1396.65,213.9779 C1412.49,228.7579 1433.82,246.9379 1455.1,259.7979 C1495.92,284.4579 1539.5332,302.7597 1580.1832,317.3597" fill="none" id="main_entry-to-handle_wsession_breadcrumbs" style="stroke:#333333;stroke-width:1;"/><polygon fill="#333333" points="1585.83,319.3879,1578.7118,312.5811,1581.1243,317.6977,1576.0077,320.1102,1585.83,319.3879" style="stroke:#333333;stroke-width:1;"/></g><!--link main_entry to handle_wsession_timeline--><g class="link" data-entity-1="main_entry" data-entity-2="handle_wsession_timeline" data-source-line="36" data-uid="lnk26" id="link_main_entry_handle_wsession_timeline"><path d="M1393.96,213.9479 C1409.6,229.6979 1431.68,248.9179 1455.1,259.7979 C1601.41,327.7579 1654.01,292.9779 1813.1,319.7979 C1819.01,320.7879 1819.1335,320.8105 1825.2435,321.8405" fill="none" id="main_entry-to-handle_wsession_timeline" style="stroke:#333333;stroke-width:1;"/><polygon fill="#333333" points="1831.16,322.8379,1822.9501,317.3974,1826.2296,322.0067,1821.6203,325.2861,1831.16,322.8379" style="stroke:#333333;stroke-width:1;"/></g><!--link main_entry to handle_wsession_stats--><g class="link" data-entity-1="main_entry" data-entity-2="handle_wsession_stats" data-source-line="37" data-uid="lnk27" id="link_main_entry_handle_wsession_stats"><path d="M1393.02,213.8279 C1408.58,229.9479 1430.94,249.6479 1455.1,259.7979 C1723.81,372.6479 1819.1,282.0679 2108.1,319.7979 C2113.91,320.5579 2113.9109,320.5252 2119.9009,321.3852" fill="none" id="main_entry-to-handle_wsession_stats" style="stroke:#333333;stroke-width:1;"/><polygon fill="#333333" points="2125.84,322.2379,2117.4998,316.9994,2120.8907,321.5273,2116.3629,324.9182,2125.84,322.2379" style="stroke:#333333;stroke-width:1;"/></g><!--link handle_wsession_list to list_sessions--><g class="link" data-entity-1="handle_wsession_list" data-entity-2="list_sessions" data-source-line="38" data-uid="lnk28" id="link_handle_wsession_list_list_sessions"><path d="M695.89,372.1879 C688.12,388.8979 678.22,411.4479 671.1,431.9879 C653.07,483.9779 639.4378,540.9099 631.8278,575.2599" fill="none" id="handle_wsession_list-to-list_sessions" style="stroke:#333333;stroke-width:1;"/><polygon fill="#333333" points="630.53,581.1179,636.382,573.1961,631.6115,576.2362,628.5714,571.4657,630.53,581.1179" style="stroke:#333333;stroke-width:1;"/></g><!--link list_sessions to docs_sessions_dir--><g class="link" data-entity-1="list_sessions" data-entity-2="docs_sessions_dir" data-source-line="39" data-uid="lnk30" id="link_list_sessions_docs_sessions_dir"><path d="M625.1,634.0479 C625.1,654.3079 625.1,676.9779 625.1,699.9279" fill="none" id="list_sessions-to-docs_sessions_dir" style="stroke:#333333;stroke-width:1;"/><polygon fill="#333333" points="625.1,705.9279,629.1,696.9279,625.1,700.9279,621.1,696.9279,625.1,705.9279" style="stroke:#333333;stroke-width:1;"/></g><!--link handle_wsession_list to session_table_formatter--><g class="link" data-entity-1="handle_wsession_list" data-entity-2="session_table_formatter" data-source-line="40" data-uid="lnk32" id="link_handle_wsession_list_session_table_formatter"><path d="M666.45,372.3079 C638.39,389.4279 606.0118,409.1826 574.4318,428.4526" fill="none" id="handle_wsession_list-to-session_table_formatter" style="stroke:#333333;stroke-width:1;"/><polygon fill="#333333" points="569.31,431.5779,579.0762,430.3044,573.5781,428.9734,574.9091,423.4754,569.31,431.5779" style="stroke:#333333;stroke-width:1;"/></g><!--link handle_wsession_show to _resolve_session_id--><g class="link" data-entity-1="handle_wsession_show" data-entity-2="_resolve_session_id" data-source-line="41" data-uid="lnk33" id="link_handle_wsession_show__resolve_session_id"><path d="M1169.05,372.4579 C1245.38,393.4479 1347.1747,421.4371 1423.4747,442.4171" fill="none" id="handle_wsession_show-to-_resolve_session_id" style="stroke:#333333;stroke-width:1;"/><polygon fill="#333333" points="1429.26,444.0079,1421.6426,437.7649,1424.4389,442.6822,1419.5216,445.4786,1429.26,444.0079" style="stroke:#333333;stroke-width:1;"/></g><!--link handle_wsession_show to load_session--><g class="link" data-entity-1="handle_wsession_show" data-entity-2="load_session" data-source-line="42" data-uid="lnk34" id="link_handle_wsession_show_load_session"><path d="M1076.1,372.3079 C1076.1,393.3579 1076.1,417.1179 1076.1,438.1579" fill="none" id="handle_wsession_show-to-load_session" style="stroke:#333333;stroke-width:1;"/><polygon fill="#333333" points="1076.1,444.1579,1080.1,435.1579,1076.1,439.1579,1072.1,435.1579,1076.1,444.1579" style="stroke:#333333;stroke-width:1;"/></g><!--link handle_wsession_show to session_detail_formatter--><g class="link" data-entity-1="handle_wsession_show" data-entity-2="session_detail_formatter" data-source-line="43" data-uid="lnk36" id="link_handle_wsession_show_session_detail_formatter"><path d="M1118.57,372.3079 C1147.19,389.4279 1180.2911,409.2275 1212.5011,428.4975" fill="none" id="handle_wsession_show-to-session_detail_formatter" style="stroke:#333333;stroke-width:1;"/><polygon fill="#333333" points="1217.65,431.5779,1211.9802,423.5247,1213.3592,429.0109,1207.8731,430.3899,1217.65,431.5779" style="stroke:#333333;stroke-width:1;"/></g><!--link handle_wsession_show to export_session_json--><g class="link" data-entity-1="handle_wsession_show" data-entity-2="export_session_json" data-source-line="44" data-uid="lnk37" id="link_handle_wsession_show_export_session_json"><path d="M1022.33,372.4579 C978.17,393.4479 921.359,420.4522 877.219,441.4322" fill="none" id="handle_wsession_show-to-export_session_json" style="stroke:#333333;stroke-width:1;"/><polygon fill="#333333" points="871.8,444.0079,881.6457,443.757,876.3159,441.8614,878.2114,436.5316,871.8,444.0079" style="stroke:#333333;stroke-width:1;"/></g><!--link export_session_json to file_system--><g class="link" data-entity-1="export_session_json" data-entity-2="file_system" data-source-line="45" data-uid="lnk39" id="link_export_session_json_file_system"><path d="M914.76,497.0979 C931.51,501.2779 948.78,505.4379 965.1,509.0879 C1140.45,548.3879 1346.2889,585.1587 1428.8289,599.5287" fill="none" id="export_session_json-to-file_system" style="stroke:#333333;stroke-width:1;"/><polygon fill="#333333" points="1434.74,600.5579,1426.5594,595.0735,1429.8141,599.7003,1425.1873,602.9549,1434.74,600.5579" style="stroke:#333333;stroke-width:1;"/></g><!--link export_session_json to list_breadcrumbs--><g class="link" data-entity-1="export_session_json" data-entity-2="list_breadcrumbs" data-source-line="46" data-uid="lnk41" id="link_export_session_json_list_breadcrumbs"><path d="M850.45,496.9479 C876.24,517.2079 908.0214,542.1718 937.2414,565.1218" fill="none" id="export_session_json-to-list_breadcrumbs" style="stroke:#333333;stroke-width:1;"/><polygon fill="#333333" points="941.96,568.8279,937.3528,560.123,938.0278,565.7395,932.4114,566.4145,941.96,568.8279" style="stroke:#333333;stroke-width:1;"/></g><!--link export_session_json to calculate_session_stats--><g class="link" data-entity-1="export_session_json" data-entity-2="calculate_session_stats" data-source-line="47" data-uid="lnk43" id="link_export_session_json_calculate_session_stats"><path d="M819.98,496.9479 C821.48,517.2079 823.1568,539.8942 824.8568,562.8442" fill="none" id="export_session_json-to-calculate_session_stats" style="stroke:#333333;stroke-width:1;"/><polygon fill="#333333" points="825.3,568.8279,828.6242,559.557,824.9306,563.8415,820.6461,560.1479,825.3,568.8279" style="stroke:#333333;stroke-width:1;"/></g><!--link export_session_json to list_sessions--><g class="link" data-entity-1="export_session_json" data-entity-2="list_sessions" data-source-line="48" data-uid="lnk44" id="link_export_session_json_list_sessions"><path d="M781.8,496.9479 C747.4,521.0279 700.9251,553.5566 666.4751,577.6766" fill="none" id="export_session_json-to-list_sessions" style="stroke:#333333;stroke-width:1;"/><polygon fill="#333333" points="661.56,581.1179,671.2268,579.2327,665.6559,578.2501,666.6384,572.6793,661.56,581.1179" style="stroke:#333333;stroke-width:1;"/></g><!--link handle_wsession_show to export_session_markdown--><g class="link" data-entity-1="handle_wsession_show" data-entity-2="export_session_markdown" data-source-line="49" data-uid="lnk45" id="link_handle_wsession_show_export_session_markdown"><path d="M1206.4,369.2479 C1212.38,370.1879 1218.3,371.1079 1224.1,371.9879 C1421.39,402.0179 1473.17,394.0579 1669.1,431.9879 C1686.66,435.3979 1699.4321,438.1811 1717.2821,442.5511" fill="none" id="handle_wsession_show-to-export_session_markdown" style="stroke:#333333;stroke-width:1;"/><polygon fill="#333333" points="1723.11,443.9779,1715.3193,437.9524,1718.2534,442.7889,1713.417,445.723,1723.11,443.9779" style="stroke:#333333;stroke-width:1;"/></g><!--link export_session_markdown to file_system--><g class="link" data-entity-1="export_session_markdown" data-entity-2="file_system" data-source-line="50" data-uid="lnk46" id="link_export_session_markdown_file_system"><path d="M1751.42,497.1079 C1678.33,525.5679 1568.5312,568.3211 1510.8912,590.7611" fill="none" id="export_session_markdown-to-file_system" style="stroke:#333333;stroke-width:1;"/><polygon fill="#333333" points="1505.3,592.9379,1515.138,593.4002,1509.9594,591.1239,1512.2357,585.9453,1505.3,592.9379" style="stroke:#333333;stroke-width:1;"/></g><!--SRC=[fLVTRjem5BxFKtZTJOi4KJUf5xsOn2XTExKmjRrZLMJY0_5mR6GxCFOekzgpxKbccmGS5XAW4LAJu_DzEVyzUQSJI07D6QOyK3FAvrZY58rnF9jAaN7I4qn8zFxMNPu6WGdEcBuLN0-mOUXAYfbttfLIB7FmHtTvXmEXuREG16IkqNFNhaQL4KOhq5GpGBt7c_PIWL9KSDH6cri2C4UKQv0SCpHXOedEnLY1N02vGESFmvlBQzGJ1D1jncDj8EeY2385CLQ0pZ2F4o7F45PeC7pfHzr1xsxu52JK07m1DnOYIQU9Hc9IEa6erNeMcOpXkjL2en4HiGgNGiwiBIfSV0Yf3EEKXBu7dTXOr5dXbA4ZzLzV0-04MNk2G4AiCP-Qy9ob9gKHS2rNt_bvYa5fAK8hxCnN5yw_hOQFmuH4nLiYamqJEOyW5ccAELaR61N658mLM9ywCKW6Mmr6bJwOkmfSHwuIiJoPt8BhoBK4E9dSWkl8nn8mYMMMZjN9x_0uQlsWAJ3At-1BJb2R2OtrwPuuj4yVIL22BQ10HfGSJ5w1zQdXvrn8lJdyeGG_cBe2MqETOZaZOdaoVO4l1MP2cHbxKK91OXadgsYySk7B3ez-3KVfLNDfHgnNPL5i1lKHMTv7uB_4TdW1z9ah2KlA9HQ1IN7GIEBf1jlnYDhjJvMpRKUbSaGrwBX9qw3Z1aQ3Zj_mJNH5ppQPvZgloYcdNevuwScTs_zZ6qb4gDnFjR4CZytvHCWKQrE5GLMm7A2gZ_SgbxAwLwiG4D2OiaECgEhu2fdJDMrbZ5qf3UbU7HT2Fu_x56FCuenXlNL_dQfQuasc3lLdCsBsoF_pQxqJCPXKhaJzXLcXk5kAxBDPZ1QNOR6dXNPhiqlErYmhwSmpin1LYytUiwRPsPUQvW_QUMxYUIDycqyBBZqrGHTKPPZHNzWkgQ4T0fOY_tias3QMG-Stny7NFM7ncxic0bUHOQa-BNvNKDfUz-xKTlVlN_MlN27z_Vq7FG2PWaHtfdvKKL33VCb7Nv-70pG7gKpPsuepNmEb6bf_8hWlWoNLIM5Jn_MBAPayIuRK_4QZJYSql_l7Rm_zn_xWfVjoFnn43_sRB_sdJafGvO6BJW6LOFj7XSmP7SNc5PIOxbKMddlIsmZzYFm3]--></g></svg>