<svg xmlns="http://www.w3.org/2000/svg" xmlns:xlink="http://www.w3.org/1999/xlink" contentStyleType="text/css" data-diagram-type="DESCRIPTION" height="757px" preserveAspectRatio="none" style="width:2447px;height:757px;background:#FFFFFF;" version="1.1" viewBox="0 0 2447 757" width="2447px" zoomAndPan="magnify"><title>CMD-issues - issues deep internal flow (observed) (LOD1: Code Functions)</title><defs/><g><g class="title" data-source-line="8"><text fill="#000000" font-family="Arial" font-size="22" font-weight="bold" lengthAdjust="spacing" textLength="784.7705" x="826.6362" y="35.6357">CMD-issues - issues deep internal flow (observed) (LOD1: Code Functions)</text></g><!--entity NOTE_ANCHOR--><!--entity main_entry--><g class="entity" data-entity="main_entry" data-source-line="16" data-uid="ent0006" id="entity_main_entry"><rect fill="#FFFFFF" height="52.1973" rx="2.5" ry="2.5" style="stroke:#000000;stroke-width:1;" width="132.8066" x="1267.38" y="169.5579"/><text fill="#000000" font-family="Arial" font-size="14" lengthAdjust="spacing" textLength="39.6689" x="1277.38" y="192.6897">main()</text><text fill="#000000" font-family="Arial" font-size="14" lengthAdjust="spacing" textLength="112.8066" x="1277.38" y="208.7883">(maestro/main.py)</text></g><!--entity handle_issues_command--><g class="entity" data-entity="handle_issues_command" data-source-line="17" data-uid="ent0007" id="entity_handle_issues_command"><rect fill="#FFFFFF" height="52.1973" rx="2.5" ry="2.5" style="stroke:#000000;stroke-width:1;" width="214.5029" x="1226.54" y="312.9779"/><text fill="#000000" font-family="Arial" font-size="14" lengthAdjust="spacing" textLength="168.0889" x="1236.54" y="336.1097">handle_issues_command()</text><text fill="#000000" font-family="Arial" font-size="14" lengthAdjust="spacing" textLength="194.5029" x="1236.54" y="352.2083">(maestro/commands/issues.py)</text></g><!--entity find_repo_root--><g class="entity" data-entity="find_repo_root" data-source-line="18" data-uid="ent0008" id="entity_find_repo_root"><rect fill="#FFFFFF" height="52.1973" rx="2.5" ry="2.5" style="stroke:#000000;stroke-width:1;" width="214.5029" x="226.54" y="425.1779"/><text fill="#000000" font-family="Arial" font-size="14" lengthAdjust="spacing" textLength="107.3994" x="236.54" y="448.3097">_find_repo_root()</text><text fill="#000000" font-family="Arial" font-size="14" lengthAdjust="spacing" textLength="194.5029" x="236.54" y="464.4083">(maestro/commands/issues.py)</text></g><!--entity handle_list--><g class="entity" data-entity="handle_list" data-source-line="19" data-uid="ent0009" id="entity_handle_list"><rect fill="#FFFFFF" height="52.1973" rx="2.5" ry="2.5" style="stroke:#000000;stroke-width:1;" width="214.5029" x="476.54" y="425.1779"/><text fill="#000000" font-family="Arial" font-size="14" lengthAdjust="spacing" textLength="84.0479" x="486.54" y="448.3097">_handle_list()</text><text fill="#000000" font-family="Arial" font-size="14" lengthAdjust="spacing" textLength="194.5029" x="486.54" y="464.4083">(maestro/commands/issues.py)</text></g><!--entity handle_show--><g class="entity" data-entity="handle_show" data-source-line="20" data-uid="ent0010" id="entity_handle_show"><rect fill="#FFFFFF" height="52.1973" rx="2.5" ry="2.5" style="stroke:#000000;stroke-width:1;" width="214.5029" x="726.54" y="425.1779"/><text fill="#000000" font-family="Arial" font-size="14" lengthAdjust="spacing" textLength="99.6201" x="736.54" y="448.3097">_handle_show()</text><text fill="#000000" font-family="Arial" font-size="14" lengthAdjust="spacing" textLength="194.5029" x="736.54" y="464.4083">(maestro/commands/issues.py)</text></g><!--entity handle_state--><g class="entity" data-entity="handle_state" data-source-line="21" data-uid="ent0011" id="entity_handle_state"><rect fill="#FFFFFF" height="52.1973" rx="2.5" ry="2.5" style="stroke:#000000;stroke-width:1;" width="214.5029" x="976.54" y="425.1779"/><text fill="#000000" font-family="Arial" font-size="14" lengthAdjust="spacing" textLength="97.2891" x="986.54" y="448.3097">_handle_state()</text><text fill="#000000" font-family="Arial" font-size="14" lengthAdjust="spacing" textLength="194.5029" x="986.54" y="464.4083">(maestro/commands/issues.py)</text></g><!--entity handle_rollback--><g class="entity" data-entity="handle_rollback" data-source-line="22" data-uid="ent0012" id="entity_handle_rollback"><rect fill="#FFFFFF" height="52.1973" rx="2.5" ry="2.5" style="stroke:#000000;stroke-width:1;" width="214.5029" x="1226.54" y="425.1779"/><text fill="#000000" font-family="Arial" font-size="14" lengthAdjust="spacing" textLength="115.1787" x="1236.54" y="448.3097">_handle_rollback()</text><text fill="#000000" font-family="Arial" font-size="14" lengthAdjust="spacing" textLength="194.5029" x="1236.54" y="464.4083">(maestro/commands/issues.py)</text></g><!--entity handle_react--><g class="entity" data-entity="handle_react" data-source-line="23" data-uid="ent0013" id="entity_handle_react"><rect fill="#FFFFFF" height="52.1973" rx="2.5" ry="2.5" style="stroke:#000000;stroke-width:1;" width="214.5029" x="1476.54" y="425.1779"/><text fill="#000000" font-family="Arial" font-size="14" lengthAdjust="spacing" textLength="98.0615" x="1486.54" y="448.3097">_handle_react()</text><text fill="#000000" font-family="Arial" font-size="14" lengthAdjust="spacing" textLength="194.5029" x="1486.54" y="464.4083">(maestro/commands/issues.py)</text></g><!--entity handle_analyze--><g class="entity" data-entity="handle_analyze" data-source-line="24" data-uid="ent0014" id="entity_handle_analyze"><rect fill="#FFFFFF" height="52.1973" rx="2.5" ry="2.5" style="stroke:#000000;stroke-width:1;" width="214.5029" x="1726.54" y="425.1779"/><text fill="#000000" font-family="Arial" font-size="14" lengthAdjust="spacing" textLength="115.1924" x="1736.54" y="448.3097">_handle_analyze()</text><text fill="#000000" font-family="Arial" font-size="14" lengthAdjust="spacing" textLength="194.5029" x="1736.54" y="464.4083">(maestro/commands/issues.py)</text></g><!--entity handle_decide--><g class="entity" data-entity="handle_decide" data-source-line="25" data-uid="ent0015" id="entity_handle_decide"><rect fill="#FFFFFF" height="52.1973" rx="2.5" ry="2.5" style="stroke:#000000;stroke-width:1;" width="214.5029" x="1976.54" y="425.1779"/><text fill="#000000" font-family="Arial" font-size="14" lengthAdjust="spacing" textLength="108.1924" x="1986.54" y="448.3097">_handle_decide()</text><text fill="#000000" font-family="Arial" font-size="14" lengthAdjust="spacing" textLength="194.5029" x="1986.54" y="464.4083">(maestro/commands/issues.py)</text></g><!--entity handle_fix--><g class="entity" data-entity="handle_fix" data-source-line="26" data-uid="ent0016" id="entity_handle_fix"><rect fill="#FFFFFF" height="52.1973" rx="2.5" ry="2.5" style="stroke:#000000;stroke-width:1;" width="214.5029" x="2226.54" y="425.1779"/><text fill="#000000" font-family="Arial" font-size="14" lengthAdjust="spacing" textLength="80.9375" x="2236.54" y="448.3097">_handle_fix()</text><text fill="#000000" font-family="Arial" font-size="14" lengthAdjust="spacing" textLength="194.5029" x="2236.54" y="464.4083">(maestro/commands/issues.py)</text></g><!--entity list_issues--><g class="entity" data-entity="list_issues" data-source-line="27" data-uid="ent0017" id="entity_list_issues"><rect fill="#FFFFFF" height="52.1973" rx="2.5" ry="2.5" style="stroke:#000000;stroke-width:1;" width="217.627" x="470.97" y="549.8179"/><text fill="#000000" font-family="Arial" font-size="14" lengthAdjust="spacing" textLength="73.9033" x="480.97" y="572.9497">list_issues()</text><text fill="#000000" font-family="Arial" font-size="14" lengthAdjust="spacing" textLength="197.627" x="480.97" y="589.0483">(maestro/issues/issue_store.py)</text></g><!--entity load_issue--><g class="entity" data-entity="load_issue" data-source-line="28" data-uid="ent0018" id="entity_load_issue"><rect fill="#FFFFFF" height="52.1973" rx="2.5" ry="2.5" style="stroke:#000000;stroke-width:1;" width="217.627" x="723.97" y="549.8179"/><text fill="#000000" font-family="Arial" font-size="14" lengthAdjust="spacing" textLength="76.2617" x="733.97" y="572.9497">load_issue()</text><text fill="#000000" font-family="Arial" font-size="14" lengthAdjust="spacing" textLength="197.627" x="733.97" y="589.0483">(maestro/issues/issue_store.py)</text></g><!--entity update_issue_state--><g class="entity" data-entity="update_issue_state" data-source-line="29" data-uid="ent0019" id="entity_update_issue_state"><rect fill="#FFFFFF" height="52.1973" rx="2.5" ry="2.5" style="stroke:#000000;stroke-width:1;" width="217.627" x="976.97" y="549.8179"/><text fill="#000000" font-family="Arial" font-size="14" lengthAdjust="spacing" textLength="130.751" x="986.97" y="572.9497">update_issue_state()</text><text fill="#000000" font-family="Arial" font-size="14" lengthAdjust="spacing" textLength="197.627" x="986.97" y="589.0483">(maestro/issues/issue_store.py)</text></g><!--entity rollback_issue_state--><g class="entity" data-entity="rollback_issue_state" data-source-line="30" data-uid="ent0020" id="entity_rollback_issue_state"><rect fill="#FFFFFF" height="52.1973" rx="2.5" ry="2.5" style="stroke:#000000;stroke-width:1;" width="217.627" x="1229.97" y="549.8179"/><text fill="#000000" font-family="Arial" font-size="14" lengthAdjust="spacing" textLength="136.1719" x="1239.97" y="572.9497">rollback_issue_state()</text><text fill="#000000" font-family="Arial" font-size="14" lengthAdjust="spacing" textLength="197.627" x="1239.97" y="589.0483">(maestro/issues/issue_store.py)</text></g><!--entity docs_issues_md--><g class="entity" data-entity="docs_issues_md" data-source-line="42" data-uid="ent0032" id="entity_docs_issues_md"><ellipse cx="706.7877" cy="683.4679" fill="#FFFFFF" rx="8" ry="8" style="stroke:#000000;stroke-width:1;"/><path d="M706.7877,691.4679 L706.7877,718.4679 M693.7877,699.4679 L719.7877,699.4679 M706.7877,718.4679 L693.7877,733.4679 M706.7877,718.4679 L719.7877,733.4679" fill="none" style="stroke:#000000;stroke-width:1;"/><text fill="#000000" font-family="Arial" font-size="14" lengthAdjust="spacing" textLength="104.2754" x="654.65" y="748.5997">docs_issues_md</text></g><!--entity can_transition--><g class="entity" data-entity="can_transition" data-source-line="46" data-uid="ent0037" id="entity_can_transition"><ellipse cx="1085.7925" cy="683.4679" fill="#FFFFFF" rx="8" ry="8" style="stroke:#000000;stroke-width:1;"/><path d="M1085.7925,691.4679 L1085.7925,718.4679 M1072.7925,699.4679 L1098.7925,699.4679 M1085.7925,718.4679 L1072.7925,733.4679 M1085.7925,718.4679 L1098.7925,733.4679" fill="none" style="stroke:#000000;stroke-width:1;"/><text fill="#000000" font-family="Arial" font-size="14" lengthAdjust="spacing" textLength="87.165" x="1042.21" y="748.5997">can_transition</text></g><!--entity match_solutions--><g class="entity" data-entity="match_solutions" data-source-line="48" data-uid="ent0040" id="entity_match_solutions"><ellipse cx="1583.7925" cy="546.3679" fill="#FFFFFF" rx="8" ry="8" style="stroke:#000000;stroke-width:1;"/><path d="M1583.7925,554.3679 L1583.7925,581.3679 M1570.7925,562.3679 L1596.7925,562.3679 M1583.7925,581.3679 L1570.7925,596.3679 M1583.7925,581.3679 L1596.7925,596.3679" fill="none" style="stroke:#000000;stroke-width:1;"/><text fill="#000000" font-family="Arial" font-size="14" lengthAdjust="spacing" textLength="101.165" x="1533.21" y="611.4997">match_solutions</text></g><!--entity docs_solutions_md--><g class="entity" data-entity="docs_solutions_md" data-source-line="49" data-uid="ent0042" id="entity_docs_solutions_md"><ellipse cx="1583.7838" cy="683.4679" fill="#FFFFFF" rx="8" ry="8" style="stroke:#000000;stroke-width:1;"/><path d="M1583.7838,691.4679 L1583.7838,718.4679 M1570.7838,699.4679 L1596.7838,699.4679 M1583.7838,718.4679 L1570.7838,733.4679 M1583.7838,718.4679 L1596.7838,733.4679" fill="none" style="stroke:#000000;stroke-width:1;"/><text fill="#000000" font-family="Arial" font-size="14" lengthAdjust="spacing" textLength="119.8477" x="1523.86" y="748.5997">docs_solutions_md</text></g><!--entity external_command_client--><g class="entity" data-entity="external_command_client" data-source-line="50" data-uid="ent0044" id="entity_external_command_client"><ellipse cx="1833.7851" cy="546.3679" fill="#FFFFFF" rx="8" ry="8" style="stroke:#000000;stroke-width:1;"/><path d="M1833.7851,554.3679 L1833.7851,581.3679 M1820.7851,562.3679 L1846.7851,562.3679 M1833.7851,581.3679 L1820.7851,596.3679 M1833.7851,581.3679 L1846.7851,596.3679" fill="none" style="stroke:#000000;stroke-width:1;"/><text fill="#000000" font-family="Arial" font-size="14" lengthAdjust="spacing" textLength="159.5303" x="1754.02" y="611.4997">external_command_client</text></g><!--link NOTE_ANCHOR to GMN3--><!--link main_entry to handle_issues_command--><g class="link" data-entity-1="main_entry" data-entity-2="handle_issues_command" data-source-line="31" data-uid="lnk21" id="link_main_entry_handle_issues_command"><path d="M1333.79,221.9379 C1333.79,247.5179 1333.79,280.8579 1333.79,306.5379" fill="none" id="main_entry-to-handle_issues_command" style="stroke:#333333;stroke-width:1;"/><polygon fill="#333333" points="1333.79,312.5379,1337.79,303.5379,1333.79,307.5379,1329.79,303.5379,1333.79,312.5379" style="stroke:#333333;stroke-width:1;"/></g><!--link handle_issues_command to find_repo_root--><g class="link" data-entity-1="handle_issues_command" data-entity-2="find_repo_root" data-source-line="32" data-uid="lnk22" id="link_handle_issues_command_find_repo_root"><path d="M1226.28,347.0079 C1060.78,358.4779 733.93,384.2779 458.79,425.1779 C453.1,426.0179 453.1848,425.9402 447.3148,426.9402" fill="none" id="handle_issues_command-to-find_repo_root" style="stroke:#333333;stroke-width:1;"/><polygon fill="#333333" points="441.4,427.9479,450.9439,430.3796,446.329,427.1082,449.6004,422.4932,441.4,427.9479" style="stroke:#333333;stroke-width:1;"/></g><!--link handle_issues_command to handle_list--><g class="link" data-entity-1="handle_issues_command" data-entity-2="handle_list" data-source-line="33" data-uid="lnk23" id="link_handle_issues_command_handle_list"><path d="M1226.2,352.6379 C1101.42,367.6979 889.67,394.7279 708.79,425.1779 C703.11,426.1279 703.2042,426.0799 697.3442,427.1399" fill="none" id="handle_issues_command-to-handle_list" style="stroke:#333333;stroke-width:1;"/><polygon fill="#333333" points="691.44,428.2079,701.0083,430.542,696.3602,427.3179,699.5843,422.6697,691.44,428.2079" style="stroke:#333333;stroke-width:1;"/></g><!--link handle_issues_command to handle_show--><g class="link" data-entity-1="handle_issues_command" data-entity-2="handle_show" data-source-line="34" data-uid="lnk24" id="link_handle_issues_command_handle_show"><path d="M1226.22,363.7779 C1141.98,382.3479 1031.2193,406.7561 947.0293,425.3161" fill="none" id="handle_issues_command-to-handle_show" style="stroke:#333333;stroke-width:1;"/><polygon fill="#333333" points="941.17,426.6079,950.8201,428.5765,946.0528,425.5314,949.0978,420.7641,941.17,426.6079" style="stroke:#333333;stroke-width:1;"/></g><!--link handle_issues_command to handle_state--><g class="link" data-entity-1="handle_issues_command" data-entity-2="handle_state" data-source-line="35" data-uid="lnk25" id="link_handle_issues_command_handle_state"><path d="M1275.8,365.6379 C1235.42,383.4379 1187.2704,404.6581 1146.9504,422.4281" fill="none" id="handle_issues_command-to-handle_state" style="stroke:#333333;stroke-width:1;"/><polygon fill="#333333" points="1141.46,424.8479,1151.3088,424.8785,1146.0354,422.8314,1148.0825,417.5579,1141.46,424.8479" style="stroke:#333333;stroke-width:1;"/></g><!--link handle_issues_command to handle_rollback--><g class="link" data-entity-1="handle_issues_command" data-entity-2="handle_rollback" data-source-line="36" data-uid="lnk26" id="link_handle_issues_command_handle_rollback"><path d="M1333.79,365.6379 C1333.79,383.4379 1333.79,401.0779 1333.79,418.8479" fill="none" id="handle_issues_command-to-handle_rollback" style="stroke:#333333;stroke-width:1;"/><polygon fill="#333333" points="1333.79,424.8479,1337.79,415.8479,1333.79,419.8479,1329.79,415.8479,1333.79,424.8479" style="stroke:#333333;stroke-width:1;"/></g><!--link handle_issues_command to handle_react--><g class="link" data-entity-1="handle_issues_command" data-entity-2="handle_react" data-source-line="37" data-uid="lnk27" id="link_handle_issues_command_handle_react"><path d="M1391.77,365.6379 C1432.16,383.4379 1480.3096,404.6581 1520.6296,422.4281" fill="none" id="handle_issues_command-to-handle_react" style="stroke:#333333;stroke-width:1;"/><polygon fill="#333333" points="1526.12,424.8479,1519.4975,417.5579,1521.5446,422.8314,1516.2712,424.8785,1526.12,424.8479" style="stroke:#333333;stroke-width:1;"/></g><!--link handle_issues_command to handle_analyze--><g class="link" data-entity-1="handle_issues_command" data-entity-2="handle_analyze" data-source-line="38" data-uid="lnk28" id="link_handle_issues_command_handle_analyze"><path d="M1441.36,363.7779 C1525.6,382.3479 1636.3507,406.7561 1720.5407,425.3161" fill="none" id="handle_issues_command-to-handle_analyze" style="stroke:#333333;stroke-width:1;"/><polygon fill="#333333" points="1726.4,426.6079,1718.4722,420.7641,1721.5172,425.5314,1716.7499,428.5765,1726.4,426.6079" style="stroke:#333333;stroke-width:1;"/></g><!--link handle_issues_command to handle_decide--><g class="link" data-entity-1="handle_issues_command" data-entity-2="handle_decide" data-source-line="39" data-uid="lnk29" id="link_handle_issues_command_handle_decide"><path d="M1441.37,352.6379 C1566.16,367.6979 1777.91,394.7279 1958.79,425.1779 C1964.46,426.1279 1964.3758,426.0799 1970.2358,427.1399" fill="none" id="handle_issues_command-to-handle_decide" style="stroke:#333333;stroke-width:1;"/><polygon fill="#333333" points="1976.14,428.2079,1967.9957,422.6697,1971.2198,427.3179,1966.5717,430.542,1976.14,428.2079" style="stroke:#333333;stroke-width:1;"/></g><!--link handle_issues_command to handle_fix--><g class="link" data-entity-1="handle_issues_command" data-entity-2="handle_fix" data-source-line="40" data-uid="lnk30" id="link_handle_issues_command_handle_fix"><path d="M1441.3,347.0079 C1606.79,358.4779 1933.65,384.2779 2208.79,425.1779 C2214.48,426.0179 2214.3952,425.9402 2220.2652,426.9402" fill="none" id="handle_issues_command-to-handle_fix" style="stroke:#333333;stroke-width:1;"/><polygon fill="#333333" points="2226.18,427.9479,2217.9796,422.4932,2221.251,427.1082,2216.6361,430.3796,2226.18,427.9479" style="stroke:#333333;stroke-width:1;"/></g><!--link handle_list to list_issues--><g class="link" data-entity-1="handle_list" data-entity-2="list_issues" data-source-line="41" data-uid="lnk31" id="link_handle_list_list_issues"><path d="M582.96,477.6879 C582.27,498.7379 581.4938,522.501 580.8138,543.541" fill="none" id="handle_list-to-list_issues" style="stroke:#333333;stroke-width:1;"/><polygon fill="#333333" points="580.62,549.5379,584.9086,540.6718,580.7815,544.5405,576.9128,540.4133,580.62,549.5379" style="stroke:#333333;stroke-width:1;"/></g><!--link list_issues to docs_issues_md--><g class="link" data-entity-1="list_issues" data-entity-2="docs_issues_md" data-source-line="42" data-uid="lnk33" id="link_list_issues_docs_issues_md"><path d="M603.68,602.3279 C622.72,622.5879 645.5608,646.8858 667.1308,669.8358" fill="none" id="list_issues-to-docs_issues_md" style="stroke:#333333;stroke-width:1;"/><polygon fill="#333333" points="671.24,674.2079,667.991,664.9103,667.8157,670.5645,662.1616,670.3892,671.24,674.2079" style="stroke:#333333;stroke-width:1;"/></g><!--link handle_show to load_issue--><g class="link" data-entity-1="handle_show" data-entity-2="load_issue" data-source-line="43" data-uid="lnk34" id="link_handle_show_load_issue"><path d="M833.58,477.6879 C833.41,498.7379 833.2185,522.498 833.0485,543.538" fill="none" id="handle_show-to-load_issue" style="stroke:#333333;stroke-width:1;"/><polygon fill="#333333" points="833,549.5379,837.0726,540.5705,833.0404,544.538,829.0728,540.5058,833,549.5379" style="stroke:#333333;stroke-width:1;"/></g><!--link load_issue to docs_issues_md--><g class="link" data-entity-1="load_issue" data-entity-2="docs_issues_md" data-source-line="44" data-uid="lnk35" id="link_load_issue_docs_issues_md"><path d="M809.09,602.3279 C790.2,622.5879 767.5529,646.8706 746.1429,669.8206" fill="none" id="load_issue-to-docs_issues_md" style="stroke:#333333;stroke-width:1;"/><polygon fill="#333333" points="742.05,674.2079,751.1142,670.3555,745.4607,670.5518,745.2645,664.8983,742.05,674.2079" style="stroke:#333333;stroke-width:1;"/></g><!--link handle_state to update_issue_state--><g class="link" data-entity-1="handle_state" data-entity-2="update_issue_state" data-source-line="45" data-uid="lnk36" id="link_handle_state_update_issue_state"><path d="M1084.2,477.6879 C1084.55,498.7379 1084.9331,522.4986 1085.2731,543.5386" fill="none" id="handle_state-to-update_issue_state" style="stroke:#333333;stroke-width:1;"/><polygon fill="#333333" points="1085.37,549.5379,1089.2241,540.4744,1085.2892,544.5385,1081.2251,540.6037,1085.37,549.5379" style="stroke:#333333;stroke-width:1;"/></g><!--link update_issue_state to can_transition--><g class="link" data-entity-1="update_issue_state" data-entity-2="can_transition" data-source-line="46" data-uid="lnk38" id="link_update_issue_state_can_transition"><path d="M1085.79,602.3279 C1085.79,622.5879 1085.79,645.2579 1085.79,668.2079" fill="none" id="update_issue_state-to-can_transition" style="stroke:#333333;stroke-width:1;"/><polygon fill="#333333" points="1085.79,674.2079,1089.79,665.2079,1085.79,669.2079,1081.79,665.2079,1085.79,674.2079" style="stroke:#333333;stroke-width:1;"/></g><!--link handle_rollback to rollback_issue_state--><g class="link" data-entity-1="handle_rollback" data-entity-2="rollback_issue_state" data-source-line="47" data-uid="lnk39" id="link_handle_rollback_rollback_issue_state"><path d="M1334.82,477.6879 C1335.68,498.7379 1336.6578,522.5027 1337.5078,543.5427" fill="none" id="handle_rollback-to-rollback_issue_state" style="stroke:#333333;stroke-width:1;"/><polygon fill="#333333" points="1337.75,549.5379,1341.3834,540.3837,1337.5482,544.5419,1333.39,540.7067,1337.75,549.5379" style="stroke:#333333;stroke-width:1;"/></g><!--link handle_react to match_solutions--><g class="link" data-entity-1="handle_react" data-entity-2="match_solutions" data-source-line="48" data-uid="lnk41" id="link_handle_react_match_solutions"><path d="M1583.79,477.6879 C1583.79,494.8079 1583.79,511.6879 1583.79,530.9579" fill="none" id="handle_react-to-match_solutions" style="stroke:#333333;stroke-width:1;"/><polygon fill="#333333" points="1583.79,536.9579,1587.79,527.9579,1583.79,531.9579,1579.79,527.9579,1583.79,536.9579" style="stroke:#333333;stroke-width:1;"/></g><!--link match_solutions to docs_solutions_md--><g class="link" data-entity-1="match_solutions" data-entity-2="docs_solutions_md" data-source-line="49" data-uid="lnk43" id="link_match_solutions_docs_solutions_md"><path d="M1583.79,614.9079 C1583.79,633.4879 1583.79,649.7779 1583.79,668.3079" fill="none" id="match_solutions-to-docs_solutions_md" style="stroke:#333333;stroke-width:1;"/><polygon fill="#333333" points="1583.79,674.3079,1587.79,665.3079,1583.79,669.3079,1579.79,665.3079,1583.79,674.3079" style="stroke:#333333;stroke-width:1;"/></g><!--link handle_analyze to external_command_client--><g class="link" data-entity-1="handle_analyze" data-entity-2="external_command_client" data-source-line="50" data-uid="lnk45" id="link_handle_analyze_external_command_client"><path d="M1833.79,477.6879 C1833.79,494.8079 1833.79,511.6879 1833.79,530.9579" fill="none" id="handle_analyze-to-external_command_client" style="stroke:#333333;stroke-width:1;"/><polygon fill="#333333" points="1833.79,536.9579,1837.79,527.9579,1833.79,531.9579,1829.79,527.9579,1833.79,536.9579" style="stroke:#333333;stroke-width:1;"/></g><!--SRC=[dLRRJXin47tVhvZIbn0rMK4b7gXKYOPGg7AfW3vHj39hXrZnsf7jJQ2VqgT-Mx-ajlSI9p4isrMasEDppiwEP-nvf-Sa8x1aYF98BIXV8eaoU43fub6AdEE1O4B2-mltU0XCPYXd-a9mFK56uKnInBprCod5kYH_T8-tE16QV14I4raY1kxPHOISCAX8Kyq83CRdFQfKJXJqe1nWGfP0kIQI8mOp9jRG4G-Ao1N1Xz0PJS-FJc4WC86BdAUQ2guEeoXN94MAm07YwLp80q0A9jFRON8s6LnEhwCvDGJVm8rt8EdZN8EORQq0TBit8fSfEUrsuUuEYrJ5Qo4NrXSLhuvZAkCqm_76-tvg_Ea_eun1A_JzVKGu1kjB54cIQiGVJLWEChELdSEVl9CXehGKiJNqby-7xhli925SosUVCqSSCv8KhqXIaMN6i2LIsbHSkb7f1Pc-T3AZ72UIB4KYXT1l4jscRAcLxsDKwJR-MNn8Hyt5kesEnGTrDDAabP0bX9IaOCoMNnknYXFK8oXj5If722aXKrFFlrfzPKa9gM6Ich9g8rOmGbep-jH6oC1z5PiRPG9lgHIcui_ibv2a5l8eMqe2uSByPg6QuUlaIsoo8wa8kwdrYju-qzUjykH_b4FSQ7EQGA_t-ON386Xr-9qwVndeLt4ZojLeCyfzG2EiBgrcfAkRHbXL4et0CjqRSJQRlVYu9Jy_lR5RivTC9PVLksE3Lb0t6RaPlaQqSNJhWTpRDpbaYdYY9UAAsYiusWcrWmJJpO-qGsL8f_D42PQxkppQcM_ShasUv-LEE11vAdg6Ai19ogZ9wwYuwXcP1M_wuShi47TtlPtlt_Sl7qXGZymz_YetM9EmFNsZHcPw1sRPrQ29LuUj7cqysBCqYI4Q5r6rx7fKirP7STMvnRQFiurFbMvstb_cfaKA6RSweHTxCzi_3a-69sxd_lx-0oE27uc4I_DMLUtWj6mMuHnfD4PoWSMQmv98PQh8RhNfBZqVYeRJVkOdM1s3FSf0orpFmVIK2hxTED4VTjoFNLZAdUZsC_oXicsYN9XjWLTBHAbw1MQc2pQ-657pkxlhzsFpknf_7mt7mydjsUtLT9ACXkTVXzSM7LnmuQwerb-fLSnS919JbfZQWbMMNePdK1lzCFy3]--></g></svg>