<svg xmlns="http://www.w3.org/2000/svg" xmlns:xlink="http://www.w3.org/1999/xlink" contentStyleType="text/css" data-diagram-type="DESCRIPTION" height="519px" preserveAspectRatio="none" style="width:1954px;height:519px;background:#FFFFFF;" version="1.1" viewBox="0 0 1954 519" width="1954px" zoomAndPan="magnify"><title>CMD-log - log deep internal flow (observed) (LOD2: Code Detail)</title><defs/><g><g class="title" data-source-line="8"><text fill="#000000" font-family="Arial" font-size="22" font-weight="bold" lengthAdjust="spacing" textLength="668.5723" x="638.4729" y="35.6357">CMD-log - log deep internal flow (observed) (LOD2: Code Detail)</text></g><!--entity NOTE_ANCHOR--><!--entity main_entry--><g class="entity" data-entity="main_entry" data-source-line="16" data-uid="ent0006" id="entity_main_entry"><rect fill="#E6F3FF" height="52.1973" rx="2.5" ry="2.5" style="stroke:#000000;stroke-width:1;" width="123.4824" x="667.3" y="68.7479"/><text fill="#000000" font-family="Arial" font-size="14" lengthAdjust="spacing" textLength="69.2549" x="677.3" y="91.8797">main_entry</text><text fill="#000000" font-family="Arial" font-size="14" lengthAdjust="spacing" textLength="103.4824" x="677.3" y="107.9783">maestro/main.py</text></g><!--entity handle_log_list--><g class="entity" data-entity="handle_log_list" data-source-line="17" data-uid="ent0007" id="entity_handle_log_list"><rect fill="#E6F3FF" height="52.1973" rx="2.5" ry="2.5" style="stroke:#000000;stroke-width:1;" width="272.9023" x="284.59" y="205.8379"/><text fill="#000000" font-family="Arial" font-size="14" lengthAdjust="spacing" textLength="93.4063" x="294.59" y="228.9697">handle_log_list</text><text fill="#000000" font-family="Arial" font-size="14" lengthAdjust="spacing" textLength="252.9023" x="294.59" y="245.0683">maestro/modules/command_handlers.py</text></g><!--entity handle_log_list_work--><g class="entity" data-entity="handle_log_list_work" data-source-line="18" data-uid="ent0008" id="entity_handle_log_list_work"><rect fill="#E6F3FF" height="52.1973" rx="2.5" ry="2.5" style="stroke:#000000;stroke-width:1;" width="272.9023" x="1208.59" y="205.8379"/><text fill="#000000" font-family="Arial" font-size="14" lengthAdjust="spacing" textLength="130.751" x="1218.59" y="228.9697">handle_log_list_work</text><text fill="#000000" font-family="Arial" font-size="14" lengthAdjust="spacing" textLength="252.9023" x="1218.59" y="245.0683">maestro/modules/command_handlers.py</text></g><!--entity handle_log_list_plan--><g class="entity" data-entity="handle_log_list_plan" data-source-line="19" data-uid="ent0009" id="entity_handle_log_list_plan"><rect fill="#E6F3FF" height="52.1973" rx="2.5" ry="2.5" style="stroke:#000000;stroke-width:1;" width="272.9023" x="592.59" y="205.8379"/><text fill="#000000" font-family="Arial" font-size="14" lengthAdjust="spacing" textLength="127.6611" x="602.59" y="228.9697">handle_log_list_plan</text><text fill="#000000" font-family="Arial" font-size="14" lengthAdjust="spacing" textLength="252.9023" x="602.59" y="245.0683">maestro/modules/command_handlers.py</text></g><!--entity load_session--><g class="entity" data-entity="load_session" data-source-line="20" data-uid="ent0010" id="entity_load_session"><rect fill="#E6F3FF" height="52.1973" rx="2.5" ry="2.5" style="stroke:#000000;stroke-width:1;" width="272.9023" x="1516.59" y="205.8379"/><text fill="#000000" font-family="Arial" font-size="14" lengthAdjust="spacing" textLength="81.7236" x="1526.59" y="228.9697">load_session</text><text fill="#000000" font-family="Arial" font-size="14" lengthAdjust="spacing" textLength="252.9023" x="1526.59" y="245.0683">maestro/modules/command_handlers.py</text></g><!--entity get_maestro_dir--><g class="entity" data-entity="get_maestro_dir" data-source-line="21" data-uid="ent0011" id="entity_get_maestro_dir"><rect fill="#E6F3FF" height="52.1973" rx="2.5" ry="2.5" style="stroke:#000000;stroke-width:1;" width="272.9023" x="900.59" y="205.8379"/><text fill="#000000" font-family="Arial" font-size="14" lengthAdjust="spacing" textLength="101.165" x="910.59" y="228.9697">get_maestro_dir</text><text fill="#000000" font-family="Arial" font-size="14" lengthAdjust="spacing" textLength="252.9023" x="910.59" y="245.0683">maestro/modules/command_handlers.py</text></g><!--entity session_class--><g class="entity" data-entity="session_class" data-source-line="22" data-uid="ent0012" id="entity_session_class"><rect fill="#FFFFFF" height="46.0986" rx="2.5" ry="2.5" style="stroke:#000000;stroke-width:1;" width="127.1514" x="1435.46" y="330.4879"/><rect fill="#FFFFFF" height="10" style="stroke:#000000;stroke-width:1;" width="15" x="1542.6114" y="335.4879"/><rect fill="#FFFFFF" height="2" style="stroke:#000000;stroke-width:1;" width="4" x="1540.6114" y="337.4879"/><rect fill="#FFFFFF" height="2" style="stroke:#000000;stroke-width:1;" width="4" x="1540.6114" y="341.4879"/><text fill="#000000" font-family="Arial" font-size="14" lengthAdjust="spacing" textLength="87.1514" x="1450.46" y="363.6197">session_class</text></g><!--entity subtask_class--><g class="entity" data-entity="subtask_class" data-source-line="23" data-uid="ent0013" id="entity_subtask_class"><rect fill="#FFFFFF" height="46.0986" rx="2.5" ry="2.5" style="stroke:#000000;stroke-width:1;" width="127.9307" x="1435.07" y="452.0879"/><rect fill="#FFFFFF" height="10" style="stroke:#000000;stroke-width:1;" width="15" x="1543.0007" y="457.0879"/><rect fill="#FFFFFF" height="2" style="stroke:#000000;stroke-width:1;" width="4" x="1541.0007" y="459.0879"/><rect fill="#FFFFFF" height="2" style="stroke:#000000;stroke-width:1;" width="4" x="1541.0007" y="463.0879"/><text fill="#000000" font-family="Arial" font-size="14" lengthAdjust="spacing" textLength="87.9307" x="1450.07" y="485.2197">subtask_class</text></g><!--entity maestro_utils--><g class="entity" data-entity="maestro_utils" data-source-line="24" data-uid="ent0014" id="entity_maestro_utils"><rect fill="#FFFFFF" height="46.0986" rx="2.5" ry="2.5" style="stroke:#000000;stroke-width:1;" width="123.2549" x="667.41" y="330.4879"/><rect fill="#FFFFFF" height="10" style="stroke:#000000;stroke-width:1;" width="15" x="770.6649" y="335.4879"/><rect fill="#FFFFFF" height="2" style="stroke:#000000;stroke-width:1;" width="4" x="768.6649" y="337.4879"/><rect fill="#FFFFFF" height="2" style="stroke:#000000;stroke-width:1;" width="4" x="768.6649" y="341.4879"/><text fill="#000000" font-family="Arial" font-size="14" lengthAdjust="spacing" textLength="83.2549" x="682.41" y="363.6197">maestro_utils</text></g><!--entity docs_sessions_dir--><g class="entity" data-entity="docs_sessions_dir" data-source-line="25" data-uid="ent0015" id="entity_docs_sessions_dir"><path d="M969.45,340.9879 C969.45,330.9879 1037.0359,330.9879 1037.0359,330.9879 C1037.0359,330.9879 1104.6219,330.9879 1104.6219,340.9879 L1104.6219,366.0865 C1104.6219,376.0865 1037.0359,376.0865 1037.0359,376.0865 C1037.0359,376.0865 969.45,376.0865 969.45,366.0865 L969.45,340.9879" fill="#FFE6E6" style="stroke:#000000;stroke-width:1;"/><path d="M969.45,340.9879 C969.45,350.9879 1037.0359,350.9879 1037.0359,350.9879 C1037.0359,350.9879 1104.6219,350.9879 1104.6219,340.9879" fill="none" style="stroke:#000000;stroke-width:1;"/><text fill="#000000" font-family="Arial" font-size="14" lengthAdjust="spacing" textLength="115.1719" x="979.45" y="368.1197">docs_sessions_dir</text></g><!--entity file_system--><g class="entity" data-entity="file_system" data-source-line="26" data-uid="ent0016" id="entity_file_system"><ellipse cx="1037.0403" cy="445.5879" fill="#FFFFFF" rx="8" ry="8" style="stroke:#000000;stroke-width:1;"/><path d="M1037.0403,453.5879 L1037.0403,480.5879 M1024.0403,461.5879 L1050.0403,461.5879 M1037.0403,480.5879 L1024.0403,495.5879 M1037.0403,480.5879 L1050.0403,495.5879" fill="none" style="stroke:#000000;stroke-width:1;"/><text fill="#000000" font-family="Arial" font-size="14" lengthAdjust="spacing" textLength="70.0205" x="1002.03" y="510.7197">file_system</text></g><!--entity pathlib--><g class="entity" data-entity="pathlib" data-source-line="27" data-uid="ent0017" id="entity_pathlib"><ellipse cx="1851.0374" cy="65.2979" fill="#FFFFFF" rx="8" ry="8" style="stroke:#000000;stroke-width:1;"/><path d="M1851.0374,73.2979 L1851.0374,100.2979 M1838.0374,81.2979 L1864.0374,81.2979 M1851.0374,100.2979 L1838.0374,115.2979 M1851.0374,100.2979 L1864.0374,115.2979" fill="none" style="stroke:#000000;stroke-width:1;"/><text fill="#000000" font-family="Arial" font-size="14" lengthAdjust="spacing" textLength="41.2549" x="1830.41" y="130.4297">pathlib</text></g><!--entity os--><g class="entity" data-entity="os" data-source-line="28" data-uid="ent0018" id="entity_os"><ellipse cx="1921.04" cy="65.2979" fill="#FFFFFF" rx="8" ry="8" style="stroke:#000000;stroke-width:1;"/><path d="M1921.04,73.2979 L1921.04,100.2979 M1908.04,81.2979 L1934.04,81.2979 M1921.04,100.2979 L1908.04,115.2979 M1921.04,100.2979 L1934.04,115.2979" fill="none" style="stroke:#000000;stroke-width:1;"/><text fill="#000000" font-family="Arial" font-size="14" lengthAdjust="spacing" textLength="14.7861" x="1913.6469" y="130.4297">os</text></g><!--entity command_handlers--><g class="entity" data-entity="command_handlers" data-source-line="44" data-uid="ent0034" id="entity_command_handlers"><ellipse cx="1886.039" cy="202.3879" fill="#FFFFFF" rx="8" ry="8" style="stroke:#000000;stroke-width:1;"/><path d="M1886.039,210.3879 L1886.039,237.3879 M1873.039,218.3879 L1899.039,218.3879 M1886.039,237.3879 L1873.039,252.3879 M1886.039,237.3879 L1899.039,252.3879" fill="none" style="stroke:#000000;stroke-width:1;"/><text fill="#000000" font-family="Arial" font-size="14" lengthAdjust="spacing" textLength="122.958" x="1824.56" y="267.5197">command_handlers</text></g><!--link main_entry to handle_log_list--><g class="link" data-entity-1="main_entry" data-entity-2="handle_log_list" data-source-line="29" data-uid="lnk19" id="link_main_entry_handle_log_list"><path d="M676.06,121.3879 C667.39,125.4679 658.48,129.5879 650.04,133.3879 C593.69,158.7679 534.3776,183.928 488.1076,203.228" fill="none" id="main_entry-to-handle_log_list" style="stroke:#333333;stroke-width:1;"/><polygon fill="#333333" points="482.57,205.5379,492.4162,205.7648,487.1846,203.613,489.3365,198.3814,482.57,205.5379" style="stroke:#333333;stroke-width:1;"/></g><!--link main_entry to handle_log_list_work--><g class="link" data-entity-1="main_entry" data-entity-2="handle_log_list_work" data-source-line="30" data-uid="lnk20" id="link_main_entry_handle_log_list_work"><path d="M791.2,108.3279 C880.03,126.3179 1048.35,160.9379 1191.04,193.3879 C1207.54,197.1479 1219.1663,199.8551 1236.1763,203.9451" fill="none" id="main_entry-to-handle_log_list_work" style="stroke:#333333;stroke-width:1;"/><polygon fill="#333333" points="1242.01,205.3479,1234.1945,199.3546,1237.1486,204.1789,1232.3243,207.133,1242.01,205.3479" style="stroke:#333333;stroke-width:1;"/></g><!--link main_entry to handle_log_list_plan--><g class="link" data-entity-1="main_entry" data-entity-2="handle_log_list_plan" data-source-line="31" data-uid="lnk21" id="link_main_entry_handle_log_list_plan"><path d="M729.04,121.2579 C729.04,145.4079 729.04,175.5279 729.04,199.6479" fill="none" id="main_entry-to-handle_log_list_plan" style="stroke:#333333;stroke-width:1;"/><polygon fill="#333333" points="729.04,205.6479,733.04,196.6479,729.04,200.6479,725.04,196.6479,729.04,205.6479" style="stroke:#333333;stroke-width:1;"/></g><!--link handle_log_list to docs_sessions_dir--><g class="link" data-entity-1="handle_log_list" data-entity-2="docs_sessions_dir" data-source-line="32" data-uid="lnk22" id="link_handle_log_list_docs_sessions_dir"><path d="M521.89,258.4979 C539.56,262.6979 557.8,266.8579 575.04,270.4879 C714.34,299.8179 872.816,326.3861 963.136,340.8961" fill="none" id="handle_log_list-to-docs_sessions_dir" style="stroke:#333333;stroke-width:1;"/><polygon fill="#333333" points="969.06,341.8479,960.8084,336.4709,964.1233,341.0548,959.5395,344.3697,969.06,341.8479" style="stroke:#333333;stroke-width:1;"/></g><!--link handle_log_list to maestro_utils--><g class="link" data-entity-1="handle_log_list" data-entity-2="maestro_utils" data-source-line="33" data-uid="lnk23" id="link_handle_log_list_maestro_utils"><path d="M486.73,258.4479 C541.41,279.6879 612.9368,307.4563 665.3768,327.8163" fill="none" id="handle_log_list-to-maestro_utils" style="stroke:#333333;stroke-width:1;"/><polygon fill="#333333" points="670.97,329.9879,664.0279,323.0016,666.309,328.1782,661.1324,330.4593,670.97,329.9879" style="stroke:#333333;stroke-width:1;"/></g><!--link handle_log_list_work to docs_sessions_dir--><g class="link" data-entity-1="handle_log_list_work" data-entity-2="docs_sessions_dir" data-source-line="34" data-uid="lnk24" id="link_handle_log_list_work_docs_sessions_dir"><path d="M1279.34,258.4479 C1224.13,279.8879 1151.6431,308.0361 1099.1831,328.4061" fill="none" id="handle_log_list_work-to-docs_sessions_dir" style="stroke:#333333;stroke-width:1;"/><polygon fill="#333333" points="1093.59,330.5779,1103.4276,331.0489,1098.251,328.768,1100.5319,323.5914,1093.59,330.5779" style="stroke:#333333;stroke-width:1;"/></g><!--link handle_log_list_work to session_class--><g class="link" data-entity-1="handle_log_list_work" data-entity-2="session_class" data-source-line="35" data-uid="lnk25" id="link_handle_log_list_work_session_class"><path d="M1377.7,258.3079 C1405.07,279.5579 1439.0413,305.9476 1465.3213,326.3576" fill="none" id="handle_log_list_work-to-session_class" style="stroke:#333333;stroke-width:1;"/><polygon fill="#333333" points="1470.06,330.0379,1465.4054,321.3583,1466.1111,326.971,1460.4984,327.6766,1470.06,330.0379" style="stroke:#333333;stroke-width:1;"/></g><!--link handle_log_list_work to maestro_utils--><g class="link" data-entity-1="handle_log_list_work" data-entity-2="maestro_utils" data-source-line="36" data-uid="lnk26" id="link_handle_log_list_work_maestro_utils"><path d="M1244.18,258.4979 C1226.52,262.6979 1208.27,266.8579 1191.04,270.4879 C1048.54,300.4879 885.7245,327.6492 796.8545,341.8792" fill="none" id="handle_log_list_work-to-maestro_utils" style="stroke:#333333;stroke-width:1;"/><polygon fill="#333333" points="790.93,342.8279,800.4492,345.3546,795.8671,342.0373,799.1844,337.4552,790.93,342.8279" style="stroke:#333333;stroke-width:1;"/></g><!--link handle_log_list_plan to docs_sessions_dir--><g class="link" data-entity-1="handle_log_list_plan" data-entity-2="docs_sessions_dir" data-source-line="37" data-uid="lnk27" id="link_handle_log_list_plan_docs_sessions_dir"><path d="M794.73,258.4479 C849.94,279.8879 922.4267,308.0364 974.8967,328.4064" fill="none" id="handle_log_list_plan-to-docs_sessions_dir" style="stroke:#333333;stroke-width:1;"/><polygon fill="#333333" points="980.49,330.5779,973.5477,323.5918,975.8289,328.7683,970.6524,331.0496,980.49,330.5779" style="stroke:#333333;stroke-width:1;"/></g><!--link handle_log_list_plan to maestro_utils--><g class="link" data-entity-1="handle_log_list_plan" data-entity-2="maestro_utils" data-source-line="38" data-uid="lnk28" id="link_handle_log_list_plan_maestro_utils"><path d="M729.04,258.3079 C729.04,279.5579 729.04,303.6279 729.04,324.0379" fill="none" id="handle_log_list_plan-to-maestro_utils" style="stroke:#333333;stroke-width:1;"/><polygon fill="#333333" points="729.04,330.0379,733.04,321.0379,729.04,325.0379,725.04,321.0379,729.04,330.0379" style="stroke:#333333;stroke-width:1;"/></g><!--link load_session to docs_sessions_dir--><g class="link" data-entity-1="load_session" data-entity-2="docs_sessions_dir" data-source-line="39" data-uid="lnk29" id="link_load_session_docs_sessions_dir"><path d="M1552.18,258.4979 C1534.52,262.6979 1516.27,266.8579 1499.04,270.4879 C1359.73,299.8179 1201.2641,326.3863 1110.9341,340.8963" fill="none" id="load_session-to-docs_sessions_dir" style="stroke:#333333;stroke-width:1;"/><polygon fill="#333333" points="1105.01,341.8479,1114.5305,344.3698,1109.9467,341.0549,1113.2617,336.4711,1105.01,341.8479" style="stroke:#333333;stroke-width:1;"/></g><!--link get_maestro_dir to docs_sessions_dir--><g class="link" data-entity-1="get_maestro_dir" data-entity-2="docs_sessions_dir" data-source-line="40" data-uid="lnk30" id="link_get_maestro_dir_docs_sessions_dir"><path d="M1037.04,258.3079 C1037.04,279.8379 1037.04,304.3979 1037.04,324.8179" fill="none" id="get_maestro_dir-to-docs_sessions_dir" style="stroke:#333333;stroke-width:1;"/><polygon fill="#333333" points="1037.04,330.8179,1041.04,321.8179,1037.04,325.8179,1033.04,321.8179,1037.04,330.8179" style="stroke:#333333;stroke-width:1;"/></g><!--link load_session to session_class--><g class="link" data-entity-1="load_session" data-entity-2="session_class" data-source-line="41" data-uid="lnk31" id="link_load_session_session_class"><path d="M1620.38,258.3079 C1593.01,279.5579 1559.0387,305.9476 1532.7587,326.3576" fill="none" id="load_session-to-session_class" style="stroke:#333333;stroke-width:1;"/><polygon fill="#333333" points="1528.02,330.0379,1537.5816,327.6766,1531.9689,326.971,1532.6746,321.3583,1528.02,330.0379" style="stroke:#333333;stroke-width:1;"/></g><!--link session_class to subtask_class--><g class="link" data-entity-1="session_class" data-entity-2="subtask_class" data-source-line="42" data-uid="lnk32" id="link_session_class_subtask_class"><path d="M1499.04,377.0379 C1499.04,398.4179 1499.04,424.3979 1499.04,445.7479" fill="none" id="session_class-to-subtask_class" style="stroke:#333333;stroke-width:1;"/><polygon fill="#333333" points="1499.04,451.7479,1503.04,442.7479,1499.04,446.7479,1495.04,442.7479,1499.04,451.7479" style="stroke:#333333;stroke-width:1;"/></g><!--link docs_sessions_dir to file_system--><g class="link" data-entity-1="docs_sessions_dir" data-entity-2="file_system" data-source-line="43" data-uid="lnk33" id="link_docs_sessions_dir_file_system"><path d="M1037.04,376.4779 C1037.04,393.1979 1037.04,410.6379 1037.04,430.3579" fill="none" id="docs_sessions_dir-to-file_system" style="stroke:#333333;stroke-width:1;"/><polygon fill="#333333" points="1037.04,436.3579,1041.04,427.3579,1037.04,431.3579,1033.04,427.3579,1037.04,436.3579" style="stroke:#333333;stroke-width:1;"/></g><!--link pathlib to command_handlers--><g class="link" data-entity-1="pathlib" data-entity-2="command_handlers" data-source-line="44" data-uid="lnk35" id="link_pathlib_command_handlers"><path d="M1860.88,133.8379 C1865.69,152.4079 1869.9662,168.8894 1874.7662,187.4294" fill="none" id="pathlib-to-command_handlers" style="stroke:#333333;stroke-width:1;"/><polygon fill="#333333" points="1876.27,193.2379,1877.8866,183.5226,1875.0168,188.3974,1870.142,185.5277,1876.27,193.2379" style="stroke:#333333;stroke-width:1;"/></g><!--link os to command_handlers--><g class="link" data-entity-1="os" data-entity-2="command_handlers" data-source-line="45" data-uid="lnk36" id="link_os_command_handlers"><path d="M1911.2,133.8379 C1906.38,152.4079 1902.1138,168.8894 1897.3138,187.4294" fill="none" id="os-to-command_handlers" style="stroke:#333333;stroke-width:1;"/><polygon fill="#333333" points="1895.81,193.2379,1901.938,185.5277,1897.0632,188.3974,1894.1934,183.5226,1895.81,193.2379" style="stroke:#333333;stroke-width:1;"/></g><!--SRC=[dLN1Rjim3BthAxZqqWP8ZBL03pqCwD8KEsmfiEtM5ePYCOaGMJGaEKN-VfBYjBBZhLvr22BoyP6I7irFReCbGgMurCnkfQwuuIKiUR5T6wgrc94Y0sVtSIK8WIjUAtTFsYsuPxWragl4VsiClJJ1Lt4bpWKv_4f6e6aGixYwYBuYF8evwHJ2xCVTHD4Q9X1-1M85KZiqcYjOANg1SrfQD3iK5t3-_U7kyWPc913kq76fBXYhBHRS8eouBZPaHi0jB1v-p_FRnUpRmq-saHwT6hGl2enSRnpGgkK168z_KMqAl1cFuV5HK66p5pBRK8ZDTfUPD5bHYgmfUbhuIgPxNYeO3dr-PgW5X2eOCrWuhjV-7aQbVxiSjJFx9rrojCvG5cpJQX_FzEQ7i_dr_PL_noHwmxLGcFjCkPBM9HGaQeKsAwWiFIO_08qzqdO21t3duPWVJX2ZXsJnOjOVpnAY-x8euYAtQAsa_s1Fe_fOr-ZoXYiNqWmdxWI-SdjyHTg_DeoQj7cXkBKng6LfGUkbutQRGbDB2ZqchPrKjj5NOc62ExwCRHMKVJox3KL6z8arzFNyUdxDUE5ybuzMqZ-7tLk7PGn8zaT8nTr6oMLqD_-FBZhKH9ObifzCldJV-Hrt5Djxc20Lrcs303mvOo-gVM-zQXz4zWPjl-zVOVzE71jWME9NQ9kn9Vf-fgvy-r4dHEq3jdO7Vqkrfr8Bc5HFZNYYlTjfZ6o__J075Avwny1yvyU6ZeCWxFqms7tEZeCf2sCgVDtZ7ORDjAhz43Yn-6_zaE1IG6UV3ea_]--></g></svg>