<svg xmlns="http://www.w3.org/2000/svg" xmlns:xlink="http://www.w3.org/1999/xlink" contentStyleType="text/css" data-diagram-type="DESCRIPTION" height="351px" preserveAspectRatio="none" style="width:2555px;height:351px;background:#FFFFFF;" version="1.1" viewBox="0 0 2555 351" width="2555px" zoomAndPan="magnify"><title>CMD-wsession - Combined CLI+Code (LOD1)</title><defs/><g><g class="title" data-source-line="8"><text fill="#000000" font-family="Arial" font-size="22" font-weight="bold" lengthAdjust="spacing" textLength="472.4092" x="1037.064" y="35.6357">CMD-wsession - Combined CLI+Code (LOD1)</text></g><!--cluster CLI Layer--><g class="cluster" data-entity="CLI Layer" data-source-line="20" data-uid="ent0007" id="cluster_CLI Layer"><path d="M1229.46,122.0879 L1294.2598,122.0879 A3.75,3.75 0 0 1 1296.7598,124.5879 L1303.7598,144.1865 L1807.46,144.1865 A2.5,2.5 0 0 1 1809.96,146.6865 L1809.96,341.5379 A2.5,2.5 0 0 1 1807.46,344.0379 L1229.46,344.0379 A2.5,2.5 0 0 1 1226.96,341.5379 L1226.96,124.5879 A2.5,2.5 0 0 1 1229.46,122.0879" fill="#E6F3FF" style="stroke:#000000;stroke-width:1;"/><line style="stroke:#000000;stroke-width:1;" x1="1226.96" x2="1303.7598" y1="144.1865" y2="144.1865"/><text fill="#000000" font-family="Arial" font-size="14" font-weight="bold" lengthAdjust="spacing" textLength="63.7998" x="1230.96" y="137.2197">CLI Layer</text></g><!--cluster Code Layer--><g class="cluster" data-entity="Code Layer" data-source-line="28" data-uid="ent0013" id="cluster_Code Layer"><path d="M1836.46,123.9379 L1913.708,123.9379 A3.75,3.75 0 0 1 1916.208,126.4379 L1923.208,146.0365 L2291.46,146.0365 A2.5,2.5 0 0 1 2293.96,148.5365 L2293.96,335.2479 A2.5,2.5 0 0 1 2291.46,337.7479 L1836.46,337.7479 A2.5,2.5 0 0 1 1833.96,335.2479 L1833.96,126.4379 A2.5,2.5 0 0 1 1836.46,123.9379" fill="#FFE6E6" style="stroke:#000000;stroke-width:1;"/><line style="stroke:#000000;stroke-width:1;" x1="1833.96" x2="1923.208" y1="146.0365" y2="146.0365"/><text fill="#000000" font-family="Arial" font-size="14" font-weight="bold" lengthAdjust="spacing" textLength="76.248" x="1837.96" y="139.0697">Code Layer</text></g><!--entity maestro wsession--><g class="entity" data-entity="maestro wsession" data-source-line="21" data-uid="ent0008" id="entity_maestro wsession"><ellipse cx="1314.9589" cy="176.9836" fill="#FFFFFF" rx="71.9789" ry="16.7958" style="stroke:#000000;stroke-width:1;"/><text fill="#000000" font-family="Arial" font-size="14" lengthAdjust="spacing" textLength="112.041" x="1258.9384" y="181.5329">maestro wsession</text></g><!--entity maestro wsession list--><g class="entity" data-entity="maestro wsession list" data-source-line="22" data-uid="ent0009" id="entity_maestro wsession list"><ellipse cx="1502.9581" cy="176.9875" fill="#FFFFFF" rx="80.7481" ry="18.5496" style="stroke:#000000;stroke-width:1;"/><text fill="#000000" font-family="Arial" font-size="14" lengthAdjust="spacing" textLength="133.041" x="1436.4376" y="181.5368">maestro wsession list</text></g><!--entity maestro wsession show--><g class="entity" data-entity="maestro wsession show" data-source-line="23" data-uid="ent0010" id="entity_maestro wsession show"><ellipse cx="1705.956" cy="176.9891" fill="#FFFFFF" rx="87.506" ry="19.9012" style="stroke:#000000;stroke-width:1;"/><text fill="#000000" font-family="Arial" font-size="14" lengthAdjust="spacing" textLength="148.6133" x="1631.6494" y="181.5384">maestro wsession show</text></g><!--entity maestro wsession tree--><g class="entity" data-entity="maestro wsession tree" data-source-line="24" data-uid="ent0011" id="entity_maestro wsession tree"><ellipse cx="1326.9589" cy="303.7016" fill="#FFFFFF" rx="83.7689" ry="19.1538" style="stroke:#000000;stroke-width:1;"/><text fill="#000000" font-family="Arial" font-size="14" lengthAdjust="spacing" textLength="140.0547" x="1256.9316" y="308.2509">maestro wsession tree</text></g><!--entity maestro wsession breadcrumbs--><g class="entity" data-entity="maestro wsession breadcrumbs" data-source-line="25" data-uid="ent0012" id="entity_maestro wsession breadcrumbs"><ellipse cx="1554.9585" cy="303.6975" fill="#FFFFFF" rx="109.6985" ry="24.3397" style="stroke:#000000;stroke-width:1;"/><text fill="#000000" font-family="Arial" font-size="14" lengthAdjust="spacing" textLength="197.6338" x="1456.1416" y="308.2469">maestro wsession breadcrumbs</text></g><!--entity main--><g class="entity" data-entity="main" data-source-line="29" data-uid="ent0014" id="entity_main"><rect fill="#FFFFFF" height="36.0986" rx="2.5" ry="2.5" style="stroke:#000000;stroke-width:1;" width="50.3447" x="1849.79" y="158.9379"/><text fill="#000000" font-family="Arial" font-size="14" lengthAdjust="spacing" textLength="30.3447" x="1859.79" y="182.0697">main</text></g><!--entity add_wsession_parser--><g class="entity" data-entity="add_wsession_parser" data-source-line="30" data-uid="ent0015" id="entity_add_wsession_parser"><rect fill="#FFFFFF" height="36.0986" rx="2.5" ry="2.5" style="stroke:#000000;stroke-width:1;" width="156.1924" x="1934.87" y="158.9379"/><text fill="#000000" font-family="Arial" font-size="14" lengthAdjust="spacing" textLength="136.1924" x="1944.87" y="182.0697">add_wsession_parser</text></g><!--entity handle_wsession_list--><g class="entity" data-entity="handle_wsession_list" data-source-line="31" data-uid="ent0016" id="entity_handle_wsession_list"><rect fill="#FFFFFF" height="36.0986" rx="2.5" ry="2.5" style="stroke:#000000;stroke-width:1;" width="152.3027" x="2125.81" y="158.9379"/><text fill="#000000" font-family="Arial" font-size="14" lengthAdjust="spacing" textLength="132.3027" x="2135.81" y="182.0697">handle_wsession_list</text></g><!--entity handle_wsession_show--><g class="entity" data-entity="handle_wsession_show" data-source-line="32" data-uid="ent0017" id="entity_handle_wsession_show"><rect fill="#FFFFFF" height="36.0986" rx="2.5" ry="2.5" style="stroke:#000000;stroke-width:1;" width="167.875" x="1850.03" y="285.6479"/><text fill="#000000" font-family="Arial" font-size="14" lengthAdjust="spacing" textLength="147.875" x="1860.03" y="308.7797">handle_wsession_show</text></g><!--entity handle_wsession_tree--><g class="entity" data-entity="handle_wsession_tree" data-source-line="33" data-uid="ent0018" id="entity_handle_wsession_tree"><rect fill="#FFFFFF" height="36.0986" rx="2.5" ry="2.5" style="stroke:#000000;stroke-width:1;" width="159.3164" x="2053.3" y="285.6479"/><text fill="#000000" font-family="Arial" font-size="14" lengthAdjust="spacing" textLength="139.3164" x="2063.3" y="308.7797">handle_wsession_tree</text></g><!--entity NOTE_ANCHOR--><g class="entity" data-entity="N1" data-source-line="17" data-uid="ent0006" id="entity_N1"><path d="M2313.38,164.5079 L2313.38,189.4566 L2548.5372,189.4566 L2548.5372,174.5079 L2538.5372,164.5079 L2313.38,164.5079" fill="#FFFFCC" style="stroke:#CCCCCC;stroke-width:1;"/><path d="M2538.5372,164.5079 L2538.5372,174.5079 L2548.5372,174.5079 L2538.5372,164.5079" fill="#FFFFCC" style="stroke:#CCCCCC;stroke-width:1;"/><text fill="#000000" font-family="Arial" font-size="13" font-weight="bold" lengthAdjust="spacing" textLength="214.1572" x="2319.38" y="181.7017">Combined CLI + Code view (LOD1)</text></g><!--link NOTE_ANCHOR to GMN3--><!--SRC=[bLJ1Zfim5Bpp5Q_PIyjgWzALSkWj9T1DbP1gDxTeXHpy4jmO6zacAAhsHthgj_LBQWYa98sGQd6ntxpdcM7WdKanGyWvOSBHUoPoeaW66vBiTqeMWlgIImLtORqw28fRKd0JIc4YOYTC52EyKvye9Skc-R5UdM8a3NwMYg9g47wzhX6tI5YKOvZX2FvY-b1gr9f90G_Wosp315BmvxDxNrA4z_FbTFJ1SGgD2T480oAILAe140tHSXN4ayX_MZuxARFWxe6mbuDYkzI0t5vK05ptHHOgmK-k2-irbOdsIgdsMovBxHq-UanvIKQzBhbXmjdmI38E_mT_VNLGKAZOE2TE5V5HJQAh5kwXrdjWM3QYNRVJcbiVoSxghx1pSaHhmLqm3X_347xOQMT_CeBQA0ajaq5V4JZJfX-XKrds8un2x4Ti51AQg2BRw87prXLJIMxLX64m3iQr6eM98MB7ws6irj0v8fJ6xUpOHatRzaj4IWJb-1VKoko1j3fx82UXRyrxvBYz6QtWOACewd1LUnkmmyXBP9RPQR4kr9OaMENbF7UOKRZQszISMg_2rZZRZZkLuhOlFyBL_j_qtVeYMkjh-hz__e8vqXqgU6B2w5R6ScDjFjYmVdrPHf2ZqjRJIYSmSK7V_bKmXuelbCoaqBBvhctDacxIO8VQPxqU3Ztxp1RVvi4YY5QJrMmPnVDW-YLuheovMQZjQLiLvb8PxV6QT9pOAnWb1dNLtYZnpuTTH_u0]--></g></svg>