<svg xmlns="http://www.w3.org/2000/svg" xmlns:xlink="http://www.w3.org/1999/xlink" contentStyleType="text/css" data-diagram-type="DESCRIPTION" height="721px" preserveAspectRatio="none" style="width:2309px;height:721px;background:#FFFFFF;" version="1.1" viewBox="0 0 2309 721" width="2309px" zoomAndPan="magnify"><title>CMD-root - root deep internal flow (observed) (LOD2: Code Detail)</title><defs/><g><g class="title" data-source-line="8"><text fill="#000000" font-family="Arial" font-size="22" font-weight="bold" lengthAdjust="spacing" textLength="688.123" x="806.1057" y="35.6357">CMD-root - root deep internal flow (observed) (LOD2: Code Detail)</text></g><!--entity NOTE_ANCHOR--><!--entity main_entry--><g class="entity" data-entity="main_entry" data-source-line="16" data-uid="ent0006" id="entity_main_entry"><rect fill="#E6F3FF" height="52.1973" rx="2.5" ry="2.5" style="stroke:#000000;stroke-width:1;" width="104.8066" x="1228.86" y="148.4979"/><text fill="#000000" font-family="Arial" font-size="14" lengthAdjust="spacing" textLength="69.2549" x="1238.86" y="171.6297">main_entry</text><text fill="#000000" font-family="Arial" font-size="14" lengthAdjust="spacing" textLength="84.8066" x="1238.86" y="187.7283">maestro.main</text></g><!--entity handle_root_set--><g class="entity" data-entity="handle_root_set" data-source-line="17" data-uid="ent0007" id="entity_handle_root_set"><rect fill="#E6F3FF" height="52.1973" rx="2.5" ry="2.5" style="stroke:#000000;stroke-width:1;" width="254.2266" x="1443.15" y="276.9679"/><text fill="#000000" font-family="Arial" font-size="14" lengthAdjust="spacing" textLength="100.4131" x="1453.15" y="300.0997">handle_root_set</text><text fill="#000000" font-family="Arial" font-size="14" lengthAdjust="spacing" textLength="234.2266" x="1453.15" y="316.1983">maestro.modules.command_handlers</text></g><!--entity handle_root_get--><g class="entity" data-entity="handle_root_get" data-source-line="18" data-uid="ent0008" id="entity_handle_root_get"><rect fill="#E6F3FF" height="52.1973" rx="2.5" ry="2.5" style="stroke:#000000;stroke-width:1;" width="254.2266" x="865.15" y="276.9679"/><text fill="#000000" font-family="Arial" font-size="14" lengthAdjust="spacing" textLength="101.1992" x="875.15" y="300.0997">handle_root_get</text><text fill="#000000" font-family="Arial" font-size="14" lengthAdjust="spacing" textLength="234.2266" x="875.15" y="316.1983">maestro.modules.command_handlers</text></g><!--entity handle_root_refine--><g class="entity" data-entity="handle_root_refine" data-source-line="19" data-uid="ent0009" id="entity_handle_root_refine"><rect fill="#E6F3FF" height="52.1973" rx="2.5" ry="2.5" style="stroke:#000000;stroke-width:1;" width="254.2266" x="1154.15" y="276.9679"/><text fill="#000000" font-family="Arial" font-size="14" lengthAdjust="spacing" textLength="116.7578" x="1164.15" y="300.0997">handle_root_refine</text><text fill="#000000" font-family="Arial" font-size="14" lengthAdjust="spacing" textLength="234.2266" x="1164.15" y="316.1983">maestro.modules.command_handlers</text></g><!--entity handle_root_discuss--><g class="entity" data-entity="handle_root_discuss" data-source-line="20" data-uid="ent0010" id="entity_handle_root_discuss"><rect fill="#E6F3FF" height="52.1973" rx="2.5" ry="2.5" style="stroke:#000000;stroke-width:1;" width="254.2266" x="1732.15" y="276.9679"/><text fill="#000000" font-family="Arial" font-size="14" lengthAdjust="spacing" textLength="128.4199" x="1742.15" y="300.0997">handle_root_discuss</text><text fill="#000000" font-family="Arial" font-size="14" lengthAdjust="spacing" textLength="234.2266" x="1742.15" y="316.1983">maestro.modules.command_handlers</text></g><!--entity handle_root_show--><g class="entity" data-entity="handle_root_show" data-source-line="21" data-uid="ent0011" id="entity_handle_root_show"><rect fill="#E6F3FF" height="52.1973" rx="2.5" ry="2.5" style="stroke:#000000;stroke-width:1;" width="254.2266" x="576.15" y="276.9679"/><text fill="#000000" font-family="Arial" font-size="14" lengthAdjust="spacing" textLength="114.4199" x="586.15" y="300.0997">handle_root_show</text><text fill="#000000" font-family="Arial" font-size="14" lengthAdjust="spacing" textLength="234.2266" x="586.15" y="316.1983">maestro.modules.command_handlers</text></g><!--entity load_session--><g class="entity" data-entity="load_session" data-source-line="22" data-uid="ent0012" id="entity_load_session"><rect fill="#E6F3FF" height="52.1973" rx="2.5" ry="2.5" style="stroke:#000000;stroke-width:1;" width="167.8477" x="1046.33" y="401.6179"/><text fill="#000000" font-family="Arial" font-size="14" lengthAdjust="spacing" textLength="81.7236" x="1056.33" y="424.7497">load_session</text><text fill="#000000" font-family="Arial" font-size="14" lengthAdjust="spacing" textLength="147.8477" x="1056.33" y="440.8483">maestro.session_model</text></g><!--entity save_session--><g class="entity" data-entity="save_session" data-source-line="23" data-uid="ent0013" id="entity_save_session"><rect fill="#E6F3FF" height="52.1973" rx="2.5" ry="2.5" style="stroke:#000000;stroke-width:1;" width="167.8477" x="1440.33" y="401.6179"/><text fill="#000000" font-family="Arial" font-size="14" lengthAdjust="spacing" textLength="84.8271" x="1450.33" y="424.7497">save_session</text><text fill="#000000" font-family="Arial" font-size="14" lengthAdjust="spacing" textLength="147.8477" x="1450.33" y="440.8483">maestro.session_model</text></g><!--entity session_class--><g class="entity" data-entity="session_class" data-source-line="24" data-uid="ent0014" id="entity_session_class"><rect fill="#FFFFFF" height="46.0986" rx="2.5" ry="2.5" style="stroke:#000000;stroke-width:1;" width="127.1514" x="1642.68" y="404.6679"/><rect fill="#FFFFFF" height="10" style="stroke:#000000;stroke-width:1;" width="15" x="1749.8314" y="409.6679"/><rect fill="#FFFFFF" height="2" style="stroke:#000000;stroke-width:1;" width="4" x="1747.8314" y="411.6679"/><rect fill="#FFFFFF" height="2" style="stroke:#000000;stroke-width:1;" width="4" x="1747.8314" y="415.6679"/><text fill="#000000" font-family="Arial" font-size="14" lengthAdjust="spacing" textLength="87.1514" x="1657.68" y="437.7997">session_class</text></g><!--entity handle_refine_root--><g class="entity" data-entity="handle_refine_root" data-source-line="25" data-uid="ent0015" id="entity_handle_refine_root"><rect fill="#E6F3FF" height="52.1973" rx="2.5" ry="2.5" style="stroke:#000000;stroke-width:1;" width="156.165" x="1249.18" y="401.6179"/><text fill="#000000" font-family="Arial" font-size="14" lengthAdjust="spacing" textLength="116.7578" x="1259.18" y="424.7497">handle_refine_root</text><text fill="#000000" font-family="Arial" font-size="14" lengthAdjust="spacing" textLength="136.165" x="1259.18" y="440.8483">maestro.modules.utils</text></g><!--entity get_engine--><g class="entity" data-entity="get_engine" data-source-line="26" data-uid="ent0016" id="entity_get_engine"><rect fill="#E6F3FF" height="52.1973" rx="2.5" ry="2.5" style="stroke:#000000;stroke-width:1;" width="123.5029" x="1453.51" y="526.2579"/><text fill="#000000" font-family="Arial" font-size="14" lengthAdjust="spacing" textLength="69.2891" x="1463.51" y="549.3897">get_engine</text><text fill="#000000" font-family="Arial" font-size="14" lengthAdjust="spacing" textLength="103.5029" x="1463.51" y="565.4883">maestro.engines</text></g><!--entity get_maestro_dir--><g class="entity" data-entity="get_maestro_dir" data-source-line="27" data-uid="ent0017" id="entity_get_maestro_dir"><rect fill="#E6F3FF" height="52.1973" rx="2.5" ry="2.5" style="stroke:#000000;stroke-width:1;" width="254.2266" x="1947.15" y="401.6179"/><text fill="#000000" font-family="Arial" font-size="14" lengthAdjust="spacing" textLength="101.165" x="1957.15" y="424.7497">get_maestro_dir</text><text fill="#000000" font-family="Arial" font-size="14" lengthAdjust="spacing" textLength="234.2266" x="1957.15" y="440.8483">maestro.modules.command_handlers</text></g><!--entity docs_sessions_dir--><g class="entity" data-entity="docs_sessions_dir" data-source-line="28" data-uid="ent0018" id="entity_docs_sessions_dir"><path d="M1267.67,539.8079 C1267.67,529.8079 1335.2559,529.8079 1335.2559,529.8079 C1335.2559,529.8079 1402.8419,529.8079 1402.8419,539.8079 L1402.8419,564.9065 C1402.8419,574.9065 1335.2559,574.9065 1335.2559,574.9065 C1335.2559,574.9065 1267.67,574.9065 1267.67,564.9065 L1267.67,539.8079" fill="#FFE6E6" style="stroke:#000000;stroke-width:1;"/><path d="M1267.67,539.8079 C1267.67,549.8079 1335.2559,549.8079 1335.2559,549.8079 C1335.2559,549.8079 1402.8419,549.8079 1402.8419,539.8079" fill="none" style="stroke:#000000;stroke-width:1;"/><text fill="#000000" font-family="Arial" font-size="14" lengthAdjust="spacing" textLength="115.1719" x="1277.67" y="566.9397">docs_sessions_dir</text></g><!--entity conversations_dir--><g class="entity" data-entity="conversations_dir" data-source-line="29" data-uid="ent0019" id="entity_conversations_dir"><path d="M1919.4,539.8079 C1919.4,529.8079 1984.2618,529.8079 1984.2618,529.8079 C1984.2618,529.8079 2049.1236,529.8079 2049.1236,539.8079 L2049.1236,564.9065 C2049.1236,574.9065 1984.2618,574.9065 1984.2618,574.9065 C1984.2618,574.9065 1919.4,574.9065 1919.4,564.9065 L1919.4,539.8079" fill="#FFE6E6" style="stroke:#000000;stroke-width:1;"/><path d="M1919.4,539.8079 C1919.4,549.8079 1984.2618,549.8079 1984.2618,549.8079 C1984.2618,549.8079 2049.1236,549.8079 2049.1236,539.8079" fill="none" style="stroke:#000000;stroke-width:1;"/><text fill="#000000" font-family="Arial" font-size="14" lengthAdjust="spacing" textLength="109.7236" x="1929.4" y="566.9397">conversations_dir</text></g><!--entity user_actor--><g class="entity" data-entity="user_actor" data-source-line="30" data-uid="ent0020" id="entity_user_actor"><ellipse cx="2269.2623" cy="398.1679" fill="#FFFFFF" rx="8" ry="8" style="stroke:#000000;stroke-width:1;"/><path d="M2269.2623,406.1679 L2269.2623,433.1679 M2256.2623,414.1679 L2282.2623,414.1679 M2269.2623,433.1679 L2256.2623,448.1679 M2269.2623,433.1679 L2282.2623,448.1679" fill="none" style="stroke:#000000;stroke-width:1;"/><text fill="#000000" font-family="Arial" font-size="14" lengthAdjust="spacing" textLength="66.1445" x="2236.19" y="463.2997">user_actor</text></g><!--entity external_ai--><g class="entity" data-entity="external_ai" data-source-line="31" data-uid="ent0021" id="entity_external_ai"><ellipse cx="1515.2546" cy="647.4579" fill="#FFFFFF" rx="8" ry="8" style="stroke:#000000;stroke-width:1;"/><path d="M1515.2546,655.4579 L1515.2546,682.4579 M1502.2546,663.4579 L1528.2546,663.4579 M1515.2546,682.4579 L1502.2546,697.4579 M1515.2546,682.4579 L1528.2546,697.4579" fill="none" style="stroke:#000000;stroke-width:1;"/><text fill="#000000" font-family="Arial" font-size="14" lengthAdjust="spacing" textLength="68.4893" x="1481.01" y="712.5897">external_ai</text></g><!--link NOTE_ANCHOR to GMN3--><!--link main_entry to handle_root_set--><g class="link" data-entity-1="main_entry" data-entity-2="handle_root_set" data-source-line="32" data-uid="lnk22" id="link_main_entry_handle_root_set"><path d="M1333.93,198.6479 C1384.24,220.6579 1454.4035,251.362 1506.4935,274.162" fill="none" id="main_entry-to-handle_root_set" style="stroke:#333333;stroke-width:1;"/><polygon fill="#333333" points="1511.99,276.5679,1505.3491,269.2947,1507.4096,274.563,1502.1413,276.6234,1511.99,276.5679" style="stroke:#333333;stroke-width:1;"/></g><!--link main_entry to handle_root_get--><g class="link" data-entity-1="main_entry" data-entity-2="handle_root_get" data-source-line="33" data-uid="lnk23" id="link_main_entry_handle_root_get"><path d="M1240.79,201.0179 C1231.26,206.5779 1221.04,212.2179 1211.26,216.9679 C1164.39,239.7379 1115.4011,258.9238 1072.4311,274.4938" fill="none" id="main_entry-to-handle_root_get" style="stroke:#333333;stroke-width:1;"/><polygon fill="#333333" points="1066.79,276.5379,1076.6143,277.2325,1071.4909,274.8345,1073.889,269.7111,1066.79,276.5379" style="stroke:#333333;stroke-width:1;"/></g><!--link main_entry to handle_root_refine--><g class="link" data-entity-1="main_entry" data-entity-2="handle_root_refine" data-source-line="34" data-uid="lnk24" id="link_main_entry_handle_root_refine"><path d="M1281.26,201.1879 C1281.26,223.1279 1281.26,248.5779 1281.26,270.5079" fill="none" id="main_entry-to-handle_root_refine" style="stroke:#333333;stroke-width:1;"/><polygon fill="#333333" points="1281.26,276.5079,1285.26,267.5079,1281.26,271.5079,1277.26,267.5079,1281.26,276.5079" style="stroke:#333333;stroke-width:1;"/></g><!--link main_entry to handle_root_discuss--><g class="link" data-entity-1="main_entry" data-entity-2="handle_root_discuss" data-source-line="35" data-uid="lnk25" id="link_main_entry_handle_root_discuss"><path d="M1334.08,187.1579 C1426.12,207.2879 1612.0587,247.9753 1736.6387,275.2353" fill="none" id="main_entry-to-handle_root_discuss" style="stroke:#333333;stroke-width:1;"/><polygon fill="#333333" points="1742.5,276.5179,1734.5631,270.6865,1737.6156,275.4491,1732.853,278.5016,1742.5,276.5179" style="stroke:#333333;stroke-width:1;"/></g><!--link main_entry to handle_root_show--><g class="link" data-entity-1="main_entry" data-entity-2="handle_root_show" data-source-line="36" data-uid="lnk26" id="link_main_entry_handle_root_show"><path d="M1244.02,201.0379 C1233.77,207.0679 1222.4,212.9179 1211.26,216.9679 C1057.16,272.9679 1008.91,249.5579 847.26,276.9679 C841.88,277.8779 842.304,277.8055 836.754,278.7555" fill="none" id="main_entry-to-handle_root_show" style="stroke:#333333;stroke-width:1;"/><polygon fill="#333333" points="830.84,279.7679,840.3858,282.1921,835.7683,278.9243,839.0361,274.3067,830.84,279.7679" style="stroke:#333333;stroke-width:1;"/></g><!--link handle_root_set to load_session--><g class="link" data-entity-1="handle_root_set" data-entity-2="load_session" data-source-line="37" data-uid="lnk27" id="link_handle_root_set_load_session"><path d="M1455.23,329.6179 C1389.2,345.1179 1305,366.2779 1231.26,389.1679 C1219.73,392.7379 1213.2541,394.8621 1201.5541,399.0821" fill="none" id="handle_root_set-to-load_session" style="stroke:#333333;stroke-width:1;"/><polygon fill="#333333" points="1195.91,401.1179,1205.7333,401.827,1200.6134,399.4214,1203.019,394.3015,1195.91,401.1179" style="stroke:#333333;stroke-width:1;"/></g><!--link handle_root_get to load_session--><g class="link" data-entity-1="handle_root_get" data-entity-2="load_session" data-source-line="38" data-uid="lnk28" id="link_handle_root_get_load_session"><path d="M1020.85,329.4779 C1044.54,350.5279 1073.5455,376.3017 1097.2155,397.3417" fill="none" id="handle_root_get-to-load_session" style="stroke:#333333;stroke-width:1;"/><polygon fill="#333333" points="1101.7,401.3279,1097.6308,392.3589,1097.963,398.006,1092.3159,398.3382,1101.7,401.3279" style="stroke:#333333;stroke-width:1;"/></g><!--link handle_root_refine to load_session--><g class="link" data-entity-1="handle_root_refine" data-entity-2="load_session" data-source-line="39" data-uid="lnk29" id="link_handle_root_refine_load_session"><path d="M1249.97,329.4779 C1224.14,350.4579 1192.3073,376.3151 1166.4273,397.3351" fill="none" id="handle_root_refine-to-load_session" style="stroke:#333333;stroke-width:1;"/><polygon fill="#333333" points="1161.77,401.1179,1171.2778,398.5486,1165.6511,397.9656,1166.2342,392.3388,1161.77,401.1179" style="stroke:#333333;stroke-width:1;"/></g><!--link handle_root_discuss to load_session--><g class="link" data-entity-1="handle_root_discuss" data-entity-2="load_session" data-source-line="40" data-uid="lnk30" id="link_handle_root_discuss_load_session"><path d="M1731.72,326.6379 C1726.16,327.5179 1720.65,328.3579 1715.26,329.1679 C1500.87,361.1179 1441.82,337.7179 1231.26,389.1679 C1218.36,392.3179 1210.4916,394.5929 1197.7016,399.1529" fill="none" id="handle_root_discuss-to-load_session" style="stroke:#333333;stroke-width:1;"/><polygon fill="#333333" points="1192.05,401.1679,1201.8706,401.9131,1196.7596,399.4887,1199.184,394.3777,1192.05,401.1679" style="stroke:#333333;stroke-width:1;"/></g><!--link handle_root_show to load_session--><g class="link" data-entity-1="handle_root_show" data-entity-2="load_session" data-source-line="41" data-uid="lnk31" id="link_handle_root_show_load_session"><path d="M792.25,329.6279 C866.92,351.0779 967.0532,379.8313 1040.3332,400.8813" fill="none" id="handle_root_show-to-load_session" style="stroke:#333333;stroke-width:1;"/><polygon fill="#333333" points="1046.1,402.5379,1038.5542,396.2085,1041.2943,401.1574,1036.3455,403.8976,1046.1,402.5379" style="stroke:#333333;stroke-width:1;"/></g><!--link load_session to docs_sessions_dir--><g class="link" data-entity-1="load_session" data-entity-2="docs_sessions_dir" data-source-line="42" data-uid="lnk32" id="link_load_session_docs_sessions_dir"><path d="M1172.73,454.1279 C1209.91,476.3679 1258.2011,505.2575 1293.5211,526.3875" fill="none" id="load_session-to-docs_sessions_dir" style="stroke:#333333;stroke-width:1;"/><polygon fill="#333333" points="1298.67,529.4679,1293.0001,521.4147,1294.3792,526.9009,1288.893,528.28,1298.67,529.4679" style="stroke:#333333;stroke-width:1;"/></g><!--link handle_root_set to session_class--><g class="link" data-entity-1="handle_root_set" data-entity-2="session_class" data-source-line="43" data-uid="lnk33" id="link_handle_root_set_session_class"><path d="M1598.44,329.4779 C1622.87,351.5079 1653.4343,379.0695 1676.8643,400.1995" fill="none" id="handle_root_set-to-session_class" style="stroke:#333333;stroke-width:1;"/><polygon fill="#333333" points="1681.32,404.2179,1677.3153,395.2199,1677.6069,400.8693,1671.9576,401.1609,1681.32,404.2179" style="stroke:#333333;stroke-width:1;"/></g><!--link handle_root_set to save_session--><g class="link" data-entity-1="handle_root_set" data-entity-2="save_session" data-source-line="44" data-uid="lnk34" id="link_handle_root_set_save_session"><path d="M1560.73,329.4779 C1552.83,350.5279 1543.7767,374.6699 1535.8867,395.7099" fill="none" id="handle_root_set-to-save_session" style="stroke:#333333;stroke-width:1;"/><polygon fill="#333333" points="1533.78,401.3279,1540.6854,394.3054,1535.5356,396.6462,1533.1948,391.4964,1533.78,401.3279" style="stroke:#333333;stroke-width:1;"/></g><!--link save_session to docs_sessions_dir--><g class="link" data-entity-1="save_session" data-entity-2="docs_sessions_dir" data-source-line="45" data-uid="lnk35" id="link_save_session_docs_sessions_dir"><path d="M1485.1,454.1279 C1450.82,476.3679 1406.5831,505.0716 1374.0231,526.2016" fill="none" id="save_session-to-docs_sessions_dir" style="stroke:#333333;stroke-width:1;"/><polygon fill="#333333" points="1368.99,529.4679,1378.7171,527.9239,1373.1842,526.746,1374.3621,521.2131,1368.99,529.4679" style="stroke:#333333;stroke-width:1;"/></g><!--link handle_root_refine to handle_refine_root--><g class="link" data-entity-1="handle_root_refine" data-entity-2="handle_refine_root" data-source-line="46" data-uid="lnk36" id="link_handle_root_refine_handle_refine_root"><path d="M1290.79,329.4779 C1298.68,350.5279 1307.7433,374.6699 1315.6333,395.7099" fill="none" id="handle_root_refine-to-handle_refine_root" style="stroke:#333333;stroke-width:1;"/><polygon fill="#333333" points="1317.74,401.3279,1318.3252,391.4964,1315.9844,396.6462,1310.8346,394.3054,1317.74,401.3279" style="stroke:#333333;stroke-width:1;"/></g><!--link handle_refine_root to get_engine--><g class="link" data-entity-1="handle_refine_root" data-entity-2="get_engine" data-source-line="47" data-uid="lnk37" id="link_handle_refine_root_get_engine"><path d="M1366.21,454.1279 C1398.37,475.1079 1438.7751,501.4591 1471.0051,522.4891" fill="none" id="handle_refine_root-to-get_engine" style="stroke:#333333;stroke-width:1;"/><polygon fill="#333333" points="1476.03,525.7679,1470.6785,517.4998,1471.8426,523.0356,1466.3068,524.1997,1476.03,525.7679" style="stroke:#333333;stroke-width:1;"/></g><!--link get_engine to external_ai--><g class="link" data-entity-1="get_engine" data-entity-2="external_ai" data-source-line="48" data-uid="lnk38" id="link_get_engine_external_ai"><path d="M1515.26,578.7779 C1515.26,595.8979 1515.26,612.7779 1515.26,632.0479" fill="none" id="get_engine-to-external_ai" style="stroke:#333333;stroke-width:1;"/><polygon fill="#333333" points="1515.26,638.0479,1519.26,629.0479,1515.26,633.0479,1511.26,629.0479,1515.26,638.0479" style="stroke:#333333;stroke-width:1;"/></g><!--link handle_root_discuss to get_maestro_dir--><g class="link" data-entity-1="handle_root_discuss" data-entity-2="get_maestro_dir" data-source-line="49" data-uid="lnk39" id="link_handle_root_discuss_get_maestro_dir"><path d="M1904.07,329.6279 C1940.86,350.6179 1987.5189,377.2239 2024.2989,398.2139" fill="none" id="handle_root_discuss-to-get_maestro_dir" style="stroke:#333333;stroke-width:1;"/><polygon fill="#333333" points="2029.51,401.1879,2023.676,393.2529,2025.1674,398.7096,2019.7107,400.201,2029.51,401.1879" style="stroke:#333333;stroke-width:1;"/></g><!--link get_maestro_dir to conversations_dir--><g class="link" data-entity-1="get_maestro_dir" data-entity-2="conversations_dir" data-source-line="50" data-uid="lnk40" id="link_get_maestro_dir_conversations_dir"><path d="M2055.61,454.1279 C2039.24,476.4379 2019.23,503.7107 2003.73,524.8307" fill="none" id="get_maestro_dir-to-conversations_dir" style="stroke:#333333;stroke-width:1;"/><polygon fill="#333333" points="2000.18,529.6679,2008.7297,524.7788,2003.1383,525.6369,2002.2802,520.0455,2000.18,529.6679" style="stroke:#333333;stroke-width:1;"/></g><!--link handle_root_discuss to user_actor--><g class="link" data-entity-1="handle_root_discuss" data-entity-2="user_actor" data-source-line="51" data-uid="lnk41" id="link_handle_root_discuss_user_actor"><path d="M1986.79,321.0479 C2057.63,333.6779 2145.98,354.8379 2219.26,389.1679 C2224.86,391.7879 2225.4736,391.7559 2230.7736,395.3259" fill="none" id="handle_root_discuss-to-user_actor" style="stroke:#333333;stroke-width:1;"/><polygon fill="#333333" points="2235.75,398.6779,2230.5201,390.3323,2231.603,395.8845,2226.0508,396.9674,2235.75,398.6779" style="stroke:#333333;stroke-width:1;"/></g><!--link handle_root_discuss to get_engine--><g class="link" data-entity-1="handle_root_discuss" data-entity-2="get_engine" data-source-line="52" data-uid="lnk42" id="link_handle_root_discuss_get_engine"><path d="M1854.74,329.5979 C1847.12,365.2479 1828.31,429.6679 1787.26,466.2579 C1728.44,518.6979 1643.5014,538.066 1583.1914,545.786" fill="none" id="handle_root_discuss-to-get_engine" style="stroke:#333333;stroke-width:1;"/><polygon fill="#333333" points="1577.24,546.5479,1586.675,549.3728,1582.1995,545.913,1585.6593,541.4375,1577.24,546.5479" style="stroke:#333333;stroke-width:1;"/></g><!--link handle_root_discuss to session_class--><g class="link" data-entity-1="handle_root_discuss" data-entity-2="session_class" data-source-line="53" data-uid="lnk43" id="link_handle_root_discuss_session_class"><path d="M1827.56,329.4779 C1800.07,351.5079 1765.3616,379.3351 1739.0016,400.4651" fill="none" id="handle_root_discuss-to-session_class" style="stroke:#333333;stroke-width:1;"/><polygon fill="#333333" points="1734.32,404.2179,1743.8442,401.7098,1738.2213,401.0906,1738.8405,395.4677,1734.32,404.2179" style="stroke:#333333;stroke-width:1;"/></g><!--link handle_root_discuss to save_session--><g class="link" data-entity-1="handle_root_discuss" data-entity-2="save_session" data-source-line="54" data-uid="lnk44" id="link_handle_root_discuss_save_session"><path d="M1788.56,329.6279 C1742.11,346.4579 1680.03,369.0179 1625.26,389.1679 C1614.72,393.0379 1609.2054,395.0709 1598.3154,399.1109" fill="none" id="handle_root_discuss-to-save_session" style="stroke:#333333;stroke-width:1;"/><polygon fill="#333333" points="1592.69,401.1979,1602.5193,401.8177,1597.3778,399.4588,1599.7368,394.3172,1592.69,401.1979" style="stroke:#333333;stroke-width:1;"/></g><!--link handle_root_discuss to conversations_dir--><g class="link" data-entity-1="handle_root_discuss" data-entity-2="conversations_dir" data-source-line="55" data-uid="lnk45" id="link_handle_root_discuss_conversations_dir"><path d="M1868.68,329.3979 C1881.08,361.8379 1904.26,419.4579 1929.26,466.2579 C1941.19,488.6079 1953.6884,507.8022 1965.3284,524.6422" fill="none" id="handle_root_discuss-to-conversations_dir" style="stroke:#333333;stroke-width:1;"/><polygon fill="#333333" points="1968.74,529.5779,1966.9131,519.8999,1965.897,525.4648,1960.3321,524.4487,1968.74,529.5779" style="stroke:#333333;stroke-width:1;"/></g><!--SRC=[dLPVRzem47_Ff_3eIuT4ehLI7pff4eDqhKHXwlh6giXDZX3LiP5jO7oLFUspxPFix0Hm_W0T4HBa_BkVpp_V7VT1po47ic0quvvwo_Y2IfgJLng_fL8iUJ8GJ4XoSMSV1v70Z2wPlXDSZoaoz6L6cRFUbrAiI-Th-pYBOw7Xgv09o18ni4yTqHO4eZoTQGPay3ZiII4qwH7xbG0iICOrI4uPcJ6n9fVYLO5SGVAHN8ucmwjRCX09a25ech6FdhTK45C5f4DvF1UoGwWYuybp6FN7W_l9apVF4EqQE8P5P9REDH6poWeXtUuFiPGnt7QxP3fDHAo2jP1l9X0LhAw2J0PndWJRiFqOG_4tD6VaFx0lBnxmX9WuF4z2h2bFKOjEZlSN0TToyvFd59IMmZSsUwJz8ha8R-wkyI8Trpdb2OF8x1Cfq8w_I9OC56wUvuY92g1KbhFcTOeuFOiuFKqiOPPnE8ExS3n5dsGgNYfr1d_fULBnkLYV8pcwjL4pGHEy3wKomVUqfI52Uc2MoyMryIYwWlVmkBWT3qQ_41mJ3dbAZvXHLPoYOcbJnTwBFMLJbwNEM5MCFRhj69X0cFXf9KEAzu9bltx8k_J2wvJllAQQruuuePg-scvZwdqhcZ8OwzUmceONteGtZcSi-0hteRhYsR3kF6ciiN5siC_9oFws-Fth5W2_YhOPqSmYd7VFwHwztfTwuHzRJeyl5tTt357MqD4Gi12yUZCo83V3lNfJEGeeEyDHpBQwZu9iaJOGbT8pgusBRprFjMvQ4KujUfN2FBsBS-PcPNajnMQG- -hnd48oAsx-79AjLYTUlMuCff7P1zcSd3wsOHdk8SXXaIieL-X3e6RenVJ0ODOwF8Gh73Qu7H_CEuuGgq_1Tfm9p71ZHe9o7tpp5qiS7Pecd10AzzfKKKeRbBqhgFSkVx4XBRPJT9M_1CDHDrGcbeFpqwvZ6Id-_lv3Hf2a8CazAg2saapAQOxuszqh8WS4LGQJ0XjC1ve2JeCxWOhnqCJ-cQokY5f0J90KFzEfxmVuUNZyFWeVm_5p__bXCev6uV1R-EJd2MbTiBfiNIKiXDGgO3ReA4RvCcpQ-0-1xkL91ZkZgyW_]--></g></svg>