<svg xmlns="http://www.w3.org/2000/svg" xmlns:xlink="http://www.w3.org/1999/xlink" contentStyleType="text/css" data-diagram-type="DESCRIPTION" height="359px" preserveAspectRatio="none" style="width:2161px;height:359px;background:#FFFFFF;" version="1.1" viewBox="0 0 2161 359" width="2161px" zoomAndPan="magnify"><title>CMD-rules - Combined CLI+Code (LOD0)</title><defs/><g><g class="title" data-source-line="8"><text fill="#000000" font-family="Arial" font-size="22" font-weight="bold" lengthAdjust="spacing" textLength="425.9492" x="863.474" y="35.6357">CMD-rules - Combined CLI+Code (LOD0)</text></g><!--cluster CLI Layer--><g class="cluster" data-entity="CLI Layer" data-source-line="20" data-uid="ent0007" id="cluster_CLI Layer"><path d="M1147.82,146.9279 L1212.6198,146.9279 A3.75,3.75 0 0 1 1215.1198,149.4279 L1222.1198,169.0265 L1470.82,169.0265 A2.5,2.5 0 0 1 1473.32,171.5265 L1473.32,348.8679 A2.5,2.5 0 0 1 1470.82,351.3679 L1147.82,351.3679 A2.5,2.5 0 0 1 1145.32,348.8679 L1145.32,149.4279 A2.5,2.5 0 0 1 1147.82,146.9279" fill="#E6F3FF" style="stroke:#000000;stroke-width:1;"/><line style="stroke:#000000;stroke-width:1;" x1="1145.32" x2="1222.1198" y1="169.0265" y2="169.0265"/><text fill="#000000" font-family="Arial" font-size="14" font-weight="bold" lengthAdjust="spacing" textLength="63.7998" x="1149.32" y="162.0597">CLI Layer</text></g><!--cluster Code Layer--><g class="cluster" data-entity="Code Layer" data-source-line="26" data-uid="ent0011" id="cluster_Code Layer"><path d="M1499.82,145.1679 L1577.068,145.1679 A3.75,3.75 0 0 1 1579.568,147.6679 L1586.568,167.2665 L1897.82,167.2665 A2.5,2.5 0 0 1 1900.32,169.7665 L1900.32,350.1879 A2.5,2.5 0 0 1 1897.82,352.6879 L1499.82,352.6879 A2.5,2.5 0 0 1 1497.32,350.1879 L1497.32,147.6679 A2.5,2.5 0 0 1 1499.82,145.1679" fill="#FFE6E6" style="stroke:#000000;stroke-width:1;"/><line style="stroke:#000000;stroke-width:1;" x1="1497.32" x2="1586.568" y1="167.2665" y2="167.2665"/><text fill="#000000" font-family="Arial" font-size="14" font-weight="bold" lengthAdjust="spacing" textLength="76.248" x="1501.32" y="160.2997">Code Layer</text></g><!--entity maestro rules--><g class="entity" data-entity="maestro rules" data-source-line="21" data-uid="ent0008" id="entity_maestro rules"><ellipse cx="1222.3222" cy="198.2203" fill="#FFFFFF" rx="61.4622" ry="14.6924" style="stroke:#000000;stroke-width:1;"/><text fill="#000000" font-family="Arial" font-size="14" lengthAdjust="spacing" textLength="84.8066" x="1179.9189" y="202.7696">maestro rules</text></g><!--entity maestro rules list--><g class="entity" data-entity="maestro rules list" data-source-line="22" data-uid="ent0009" id="entity_maestro rules list"><ellipse cx="1388.3222" cy="198.2223" fill="#FFFFFF" rx="69.4722" ry="16.2944" style="stroke:#000000;stroke-width:1;"/><text fill="#000000" font-family="Arial" font-size="14" lengthAdjust="spacing" textLength="105.8066" x="1335.4188" y="202.7716">maestro rules list</text></g><!--entity maestro rules edit--><g class="entity" data-entity="maestro rules edit" data-source-line="23" data-uid="ent0010" id="entity_maestro rules edit"><ellipse cx="1233.3156" cy="318.641" fill="#FFFFFF" rx="71.6656" ry="16.7331" style="stroke:#000000;stroke-width:1;"/><text fill="#000000" font-family="Arial" font-size="14" lengthAdjust="spacing" textLength="111.2686" x="1177.6813" y="323.1903">maestro rules edit</text></g><!--entity main--><g class="entity" data-entity="main" data-source-line="27" data-uid="ent0012" id="entity_main"><rect fill="#FFFFFF" height="36.0986" rx="2.5" ry="2.5" style="stroke:#000000;stroke-width:1;" width="50.3447" x="1513.15" y="180.1679"/><text fill="#000000" font-family="Arial" font-size="14" lengthAdjust="spacing" textLength="30.3447" x="1523.15" y="203.2997">main</text></g><!--entity handle_rules_list--><g class="entity" data-entity="handle_rules_list" data-source-line="28" data-uid="ent0013" id="entity_handle_rules_list"><rect fill="#FFFFFF" height="36.0986" rx="2.5" ry="2.5" style="stroke:#000000;stroke-width:1;" width="125.0684" x="1598.78" y="180.1679"/><text fill="#000000" font-family="Arial" font-size="14" lengthAdjust="spacing" textLength="105.0684" x="1608.78" y="203.2997">handle_rules_list</text></g><!--entity handle_rules_file--><g class="entity" data-entity="handle_rules_file" data-source-line="29" data-uid="ent0014" id="entity_handle_rules_file"><rect fill="#FFFFFF" height="36.0986" rx="2.5" ry="2.5" style="stroke:#000000;stroke-width:1;" width="125.8545" x="1758.39" y="180.1679"/><text fill="#000000" font-family="Arial" font-size="14" lengthAdjust="spacing" textLength="105.8545" x="1768.39" y="203.2997">handle_rules_file</text></g><!--entity load_session--><g class="entity" data-entity="load_session" data-source-line="30" data-uid="ent0015" id="entity_load_session"><rect fill="#FFFFFF" height="36.0986" rx="2.5" ry="2.5" style="stroke:#000000;stroke-width:1;" width="101.7236" x="1513.46" y="300.5879"/><text fill="#000000" font-family="Arial" font-size="14" lengthAdjust="spacing" textLength="81.7236" x="1523.46" y="323.7197">load_session</text></g><!--entity save_session--><g class="entity" data-entity="save_session" data-source-line="31" data-uid="ent0016" id="entity_save_session"><rect fill="#FFFFFF" height="36.0986" rx="2.5" ry="2.5" style="stroke:#000000;stroke-width:1;" width="104.8271" x="1649.91" y="300.5879"/><text fill="#000000" font-family="Arial" font-size="14" lengthAdjust="spacing" textLength="84.8271" x="1659.91" y="323.7197">save_session</text></g><!--entity NOTE_ANCHOR--><g class="entity" data-entity="N1" data-source-line="17" data-uid="ent0006" id="entity_N1"><path d="M1919.74,185.7479 L1919.74,210.6966 L2154.8972,210.6966 L2154.8972,195.7479 L2144.8972,185.7479 L1919.74,185.7479" fill="#FFFFCC" style="stroke:#CCCCCC;stroke-width:1;"/><path d="M2144.8972,185.7479 L2144.8972,195.7479 L2154.8972,195.7479 L2144.8972,185.7479" fill="#FFFFCC" style="stroke:#CCCCCC;stroke-width:1;"/><text fill="#000000" font-family="Arial" font-size="13" font-weight="bold" lengthAdjust="spacing" textLength="214.1572" x="1925.74" y="202.9417">Combined CLI + Code view (LOD0)</text></g><!--link NOTE_ANCHOR to GMN3--><!--SRC=[bLDBRjim4Dth55Ddqog8r2I05-tAbQN6W28NgNT68D3Yo29CaGP9oJ2ANAIhdgqdAKN_5DSfK48RyWtdVOPwPogi4TQSCE7f5HDheaWD2rAibaesWaQIImLNYLkz2eebQRX9f30PiHr6YX7UmqTAoSt-yhrRFJ2J1hz8HL7jAoAtpYikYR1Ldc668qIFunlLSDHm0v6i5qmWXIYTN4UI8hnFf-EF7polqLWGZJ0WegYa6W3Ha4rdSJxAeeVfarSnMzm_49OP55jM1cJv2W7m_U-oKGL-ydsOpwaiTBYHQbLokT5XUnSo5HOr3O_AWeApO4jg3lzH-_pieQ3GwV1sQZh9juw-xnEkmJbj6MxsTds_TtLjuoDBwxohJSaMhVchU9ZS9mdyiDsEoTG4jL4Id8p1cmXmfiq_OAJCmYzzuaxUWJb9uc4yTCmA2qF4ahiMJ0nU7rL4K8wvQveVED_2IyRn3EUIq5oZraoUjzQanHFqie-NOtbnrd5htuPmq-xsTkBjRLZ8khO2SjseaXJOpN0d9QWfz3T_Z_7IephauWX___m5AT8bAdXWmkW3yNIXKRLswa4O73AdhFCbrTQEemkRYHEx_Jbn3TrB-mpjdGrWBS6enbJTw3G4jgdzvlF0zWl2oUEtD7wCizbeDfbcUHgFlyPFdPkBWBLrkjfrLaQ7t8dE2niCeyJimjWxYOw7_KJ-0000]--></g></svg>