<svg xmlns="http://www.w3.org/2000/svg" xmlns:xlink="http://www.w3.org/1999/xlink" contentStyleType="text/css" data-diagram-type="DESCRIPTION" height="366px" preserveAspectRatio="none" style="width:1633px;height:366px;background:#FFFFFF;" version="1.1" viewBox="0 0 1633 366" width="1633px" zoomAndPan="magnify"><title>CMD-issues - issues deep internal flow (observed) (LOD0: Code Modules)</title><defs/><g><g class="title" data-source-line="8"><text fill="#000000" font-family="Arial" font-size="22" font-weight="bold" lengthAdjust="spacing" textLength="768.8936" x="427.9482" y="35.6357">CMD-issues - issues deep internal flow (observed) (LOD0: Code Modules)</text></g><!--cluster Code Modules--><g class="cluster" data-entity="Code Modules" data-source-line="16" data-uid="ent0006" id="cluster_Code Modules"><path d="M1251.29,122.0079 L1347.9589,122.0079 A3.75,3.75 0 0 1 1350.4589,124.5079 L1357.4589,144.1065 L1624.29,144.1065 A2.5,2.5 0 0 1 1626.79,146.6065 L1626.79,356.9779 A2.5,2.5 0 0 1 1624.29,359.4779 L1251.29,359.4779 A2.5,2.5 0 0 1 1248.79,356.9779 L1248.79,124.5079 A2.5,2.5 0 0 1 1251.29,122.0079" fill="#FFFFFF" style="stroke:#000000;stroke-width:1;"/><line style="stroke:#000000;stroke-width:1;" x1="1248.79" x2="1357.4589" y1="144.1065" y2="144.1065"/><text fill="#000000" font-family="Arial" font-size="14" font-weight="bold" lengthAdjust="spacing" textLength="95.6689" x="1252.79" y="137.1397">Code Modules</text></g><!--entity client--><g class="entity" data-entity="client" data-source-line="17" data-uid="ent0007" id="entity_client"><rect fill="#FFFFFF" height="46.0986" rx="2.5" ry="2.5" style="stroke:#000000;stroke-width:1;" width="72.6826" x="1267.45" y="157.0079"/><rect fill="#FFFFFF" height="10" style="stroke:#000000;stroke-width:1;" width="15" x="1320.1326" y="162.0079"/><rect fill="#FFFFFF" height="2" style="stroke:#000000;stroke-width:1;" width="4" x="1318.1326" y="164.0079"/><rect fill="#FFFFFF" height="2" style="stroke:#000000;stroke-width:1;" width="4" x="1318.1326" y="168.0079"/><text fill="#000000" font-family="Arial" font-size="14" lengthAdjust="spacing" textLength="32.6826" x="1282.45" y="190.1397">client</text></g><!--entity issues--><g class="entity" data-entity="issues" data-source-line="18" data-uid="ent0008" id="entity_issues"><rect fill="#FFFFFF" height="46.0986" rx="2.5" ry="2.5" style="stroke:#000000;stroke-width:1;" width="79.6826" x="1374.95" y="157.0079"/><rect fill="#FFFFFF" height="10" style="stroke:#000000;stroke-width:1;" width="15" x="1434.6326" y="162.0079"/><rect fill="#FFFFFF" height="2" style="stroke:#000000;stroke-width:1;" width="4" x="1432.6326" y="164.0079"/><rect fill="#FFFFFF" height="2" style="stroke:#000000;stroke-width:1;" width="4" x="1432.6326" y="168.0079"/><text fill="#000000" font-family="Arial" font-size="14" lengthAdjust="spacing" textLength="39.6826" x="1389.95" y="190.1397">issues</text></g><!--entity issue_store--><g class="entity" data-entity="issue_store" data-source-line="19" data-uid="ent0009" id="entity_issue_store"><rect fill="#FFFFFF" height="46.0986" rx="2.5" ry="2.5" style="stroke:#000000;stroke-width:1;" width="111.5928" x="1489.99" y="157.0079"/><rect fill="#FFFFFF" height="10" style="stroke:#000000;stroke-width:1;" width="15" x="1581.5828" y="162.0079"/><rect fill="#FFFFFF" height="2" style="stroke:#000000;stroke-width:1;" width="4" x="1579.5828" y="164.0079"/><rect fill="#FFFFFF" height="2" style="stroke:#000000;stroke-width:1;" width="4" x="1579.5828" y="168.0079"/><text fill="#000000" font-family="Arial" font-size="14" lengthAdjust="spacing" textLength="71.5928" x="1504.99" y="190.1397">issue_store</text></g><!--entity model--><g class="entity" data-entity="model" data-source-line="20" data-uid="ent0010" id="entity_model"><rect fill="#FFFFFF" height="46.0986" rx="2.5" ry="2.5" style="stroke:#000000;stroke-width:1;" width="78.1309" x="1264.72" y="297.3779"/><rect fill="#FFFFFF" height="10" style="stroke:#000000;stroke-width:1;" width="15" x="1322.8509" y="302.3779"/><rect fill="#FFFFFF" height="2" style="stroke:#000000;stroke-width:1;" width="4" x="1320.8509" y="304.3779"/><rect fill="#FFFFFF" height="2" style="stroke:#000000;stroke-width:1;" width="4" x="1320.8509" y="308.3779"/><text fill="#000000" font-family="Arial" font-size="14" lengthAdjust="spacing" textLength="38.1309" x="1279.72" y="330.5097">model</text></g><!--entity main--><g class="entity" data-entity="main" data-source-line="21" data-uid="ent0011" id="entity_main"><rect fill="#FFFFFF" height="46.0986" rx="2.5" ry="2.5" style="stroke:#000000;stroke-width:1;" width="70.3447" x="1377.62" y="297.3779"/><rect fill="#FFFFFF" height="10" style="stroke:#000000;stroke-width:1;" width="15" x="1427.9647" y="302.3779"/><rect fill="#FFFFFF" height="2" style="stroke:#000000;stroke-width:1;" width="4" x="1425.9647" y="304.3779"/><rect fill="#FFFFFF" height="2" style="stroke:#000000;stroke-width:1;" width="4" x="1425.9647" y="308.3779"/><text fill="#000000" font-family="Arial" font-size="14" lengthAdjust="spacing" textLength="30.3447" x="1392.62" y="330.5097">main</text></g><!--entity solution_store--><g class="entity" data-entity="solution_store" data-source-line="22" data-uid="ent0012" id="entity_solution_store"><rect fill="#FFFFFF" height="46.0986" rx="2.5" ry="2.5" style="stroke:#000000;stroke-width:1;" width="127.165" x="1483.21" y="297.3779"/><rect fill="#FFFFFF" height="10" style="stroke:#000000;stroke-width:1;" width="15" x="1590.375" y="302.3779"/><rect fill="#FFFFFF" height="2" style="stroke:#000000;stroke-width:1;" width="4" x="1588.375" y="304.3779"/><rect fill="#FFFFFF" height="2" style="stroke:#000000;stroke-width:1;" width="4" x="1588.375" y="308.3779"/><text fill="#000000" font-family="Arial" font-size="14" lengthAdjust="spacing" textLength="87.165" x="1498.21" y="330.5097">solution_store</text></g><!--entity NOTE_ANCHOR--><!--link NOTE_ANCHOR to GMN3--><!--SRC=[bLJDRjim3BxxARZiqWQhjNL03zqfIzorGtw6jZi5HQ1QJ294bWn9Jb0CUv6Tzcnxab6suzfjjcw2WL3yIEhJ9pAl_1epX5nngIEtaJhdbcTmpzFDoff2Yw5HniBhYtAr8WGkUQ7yXT5-ogd2m4gkMlZ0MhEhaz-NgmLEZSUFnWgqTSImN4yZ3f6WgCXBhn26az69TAv01oTG6m8n1wazMiqLB9NPmP6vTsYtA8xXQ3mRlJs7eH484oCAXUuuYWg7ANS8FQxJjR4zu0wcizjaCPWEBsVNqLfIUDkXYHjOkLfxCCiE0j3ltvZ2fdZUxyDyBapgsCxOJM3YsFQKISlIJB17xd5ARE87dYduh-YxkmYrWC0bYd9IYg_e2kshzU0R4KfDbXkDsaClLP9-o_jLPXUkJYZXoZm0Bvmt5XzZgdqtC2CEgWmfhISWzLc5XORhGCwemakZMsTqNT7tgD9UuVAWzCcMdagNueVzymV8E3fl3QDJCww5OxMg-GCq5WdxrzmgaBMktwGtst-iKUeJilV6ItbxFHphAXDgFFEyL8nBLhL1o6wi9clxZkq7YOMn2fsug8WlmZxE2-hPGyvEQ_vnMC8u9sV9MVboltxyX36A5Lguf5FT_WLdzUp2Y7i-uNOZp4v3ZjP9vyDJqx2tE5Jp7wxv0RQdO34tu6tXrq13xk3pJLdqQx1ZLifIlqG_piIRlUzHvSfDdT90w5o3m9B-b8WB5QLlFezZHj_LvCiucIJJsy7jrMow62UZJybrY3u8b7BlKmDVwnrJfHABb0wMWdjgIqglvHasphRClm40]--></g></svg>