<svg xmlns="http://www.w3.org/2000/svg" xmlns:xlink="http://www.w3.org/1999/xlink" contentStyleType="text/css" data-diagram-type="DESCRIPTION" height="830px" preserveAspectRatio="none" style="width:2644px;height:830px;background:#FFFFFF;" version="1.1" viewBox="0 0 2644 830" width="2644px" zoomAndPan="magnify"><title>CMD-session - session command surface (LOD1: CLI Flow)</title><defs/><g><g class="title" data-source-line="8"><text fill="#000000" font-family="Arial" font-size="22" font-weight="bold" lengthAdjust="spacing" textLength="619.7705" x="1007.6934" y="35.6357">CMD-session - session command surface (LOD1: CLI Flow)</text></g><!--entity NOTE_ANCHOR--><!--entity parse_session_command--><g class="entity" data-entity="parse_session_command" data-source-line="16" data-uid="ent0006" id="entity_parse_session_command"><rect fill="#FFFFFF" height="46.0986" rx="2.5" ry="2.5" style="stroke:#000000;stroke-width:1;" width="193.2891" x="1208.14" y="61.6779"/><rect fill="#FFFFFF" height="10" style="stroke:#000000;stroke-width:1;" width="15" x="1381.4291" y="66.6779"/><rect fill="#FFFFFF" height="2" style="stroke:#000000;stroke-width:1;" width="4" x="1379.4291" y="68.6779"/><rect fill="#FFFFFF" height="2" style="stroke:#000000;stroke-width:1;" width="4" x="1379.4291" y="72.6779"/><text fill="#000000" font-family="Arial" font-size="14" lengthAdjust="spacing" textLength="153.2891" x="1223.14" y="94.8097">Parse session command</text></g><!--entity determine_session_command--><g class="entity" data-entity="determine_session_command" data-source-line="17" data-uid="ent0007" id="entity_determine_session_command"><rect fill="#FFFFFF" height="46.0986" rx="2.5" ry="2.5" style="stroke:#000000;stroke-width:1;" width="240.6416" x="1184.47" y="172.1479"/><rect fill="#FFFFFF" height="10" style="stroke:#000000;stroke-width:1;" width="15" x="1405.1116" y="177.1479"/><rect fill="#FFFFFF" height="2" style="stroke:#000000;stroke-width:1;" width="4" x="1403.1116" y="179.1479"/><rect fill="#FFFFFF" height="2" style="stroke:#000000;stroke-width:1;" width="4" x="1403.1116" y="183.1479"/><text fill="#000000" font-family="Arial" font-size="14" lengthAdjust="spacing" textLength="200.6416" x="1199.47" y="205.2797">Determine command is 'session'</text></g><!--entity parse_session_subcommands--><g class="entity" data-entity="parse_session_subcommands" data-source-line="18" data-uid="ent0008" id="entity_parse_session_subcommands"><rect fill="#FFFFFF" height="46.0986" rx="2.5" ry="2.5" style="stroke:#000000;stroke-width:1;" width="222.8613" x="1193.36" y="278.2479"/><rect fill="#FFFFFF" height="10" style="stroke:#000000;stroke-width:1;" width="15" x="1396.2213" y="283.2479"/><rect fill="#FFFFFF" height="2" style="stroke:#000000;stroke-width:1;" width="4" x="1394.2213" y="285.2479"/><rect fill="#FFFFFF" height="2" style="stroke:#000000;stroke-width:1;" width="4" x="1394.2213" y="289.2479"/><text fill="#000000" font-family="Arial" font-size="14" lengthAdjust="spacing" textLength="182.8613" x="1208.36" y="311.3797">Parse session subcommands</text></g><!--entity session_subcommand_route--><g class="entity" data-entity="session_subcommand_route" data-source-line="19" data-uid="ent0009" id="entity_session_subcommand_route"><rect fill="#FFFFFF" height="46.0986" rx="2.5" ry="2.5" style="stroke:#000000;stroke-width:1;" width="197.9648" x="1205.81" y="384.3479"/><rect fill="#FFFFFF" height="10" style="stroke:#000000;stroke-width:1;" width="15" x="1383.7748" y="389.3479"/><rect fill="#FFFFFF" height="2" style="stroke:#000000;stroke-width:1;" width="4" x="1381.7748" y="391.3479"/><rect fill="#FFFFFF" height="2" style="stroke:#000000;stroke-width:1;" width="4" x="1381.7748" y="395.3479"/><text fill="#000000" font-family="Arial" font-size="14" lengthAdjust="spacing" textLength="157.9648" x="1220.81" y="417.4797">Check subcommand type</text></g><!--entity handle_session_new--><g class="entity" data-entity="handle_session_new" data-source-line="20" data-uid="ent0010" id="entity_handle_session_new"><rect fill="#FFFFFF" height="46.0986" rx="2.5" ry="2.5" style="stroke:#000000;stroke-width:1;" width="227.5781" x="12" y="490.4479"/><rect fill="#FFFFFF" height="10" style="stroke:#000000;stroke-width:1;" width="15" x="219.5781" y="495.4479"/><rect fill="#FFFFFF" height="2" style="stroke:#000000;stroke-width:1;" width="4" x="217.5781" y="497.4479"/><rect fill="#FFFFFF" height="2" style="stroke:#000000;stroke-width:1;" width="4" x="217.5781" y="501.4479"/><text fill="#000000" font-family="Arial" font-size="14" lengthAdjust="spacing" textLength="187.5781" x="27" y="523.5797">Route to handle_session_new</text></g><!--entity handle_session_list--><g class="entity" data-entity="handle_session_list" data-source-line="21" data-uid="ent0011" id="entity_handle_session_list"><rect fill="#FFFFFF" height="46.0986" rx="2.5" ry="2.5" style="stroke:#000000;stroke-width:1;" width="219.0059" x="274.29" y="490.4479"/><rect fill="#FFFFFF" height="10" style="stroke:#000000;stroke-width:1;" width="15" x="473.2959" y="495.4479"/><rect fill="#FFFFFF" height="2" style="stroke:#000000;stroke-width:1;" width="4" x="471.2959" y="497.4479"/><rect fill="#FFFFFF" height="2" style="stroke:#000000;stroke-width:1;" width="4" x="471.2959" y="501.4479"/><text fill="#000000" font-family="Arial" font-size="14" lengthAdjust="spacing" textLength="179.0059" x="289.29" y="523.5797">Route to handle_session_list</text></g><!--entity handle_session_set--><g class="entity" data-entity="handle_session_set" data-source-line="22" data-uid="ent0012" id="entity_handle_session_set"><rect fill="#FFFFFF" height="46.0986" rx="2.5" ry="2.5" style="stroke:#000000;stroke-width:1;" width="220.5713" x="528.5" y="490.4479"/><rect fill="#FFFFFF" height="10" style="stroke:#000000;stroke-width:1;" width="15" x="729.0713" y="495.4479"/><rect fill="#FFFFFF" height="2" style="stroke:#000000;stroke-width:1;" width="4" x="727.0713" y="497.4479"/><rect fill="#FFFFFF" height="2" style="stroke:#000000;stroke-width:1;" width="4" x="727.0713" y="501.4479"/><text fill="#000000" font-family="Arial" font-size="14" lengthAdjust="spacing" textLength="180.5713" x="543.5" y="523.5797">Route to handle_session_set</text></g><!--entity handle_session_get--><g class="entity" data-entity="handle_session_get" data-source-line="23" data-uid="ent0013" id="entity_handle_session_get"><rect fill="#FFFFFF" height="46.0986" rx="2.5" ry="2.5" style="stroke:#000000;stroke-width:1;" width="221.3574" x="784.11" y="490.4479"/><rect fill="#FFFFFF" height="10" style="stroke:#000000;stroke-width:1;" width="15" x="985.4674" y="495.4479"/><rect fill="#FFFFFF" height="2" style="stroke:#000000;stroke-width:1;" width="4" x="983.4674" y="497.4479"/><rect fill="#FFFFFF" height="2" style="stroke:#000000;stroke-width:1;" width="4" x="983.4674" y="501.4479"/><text fill="#000000" font-family="Arial" font-size="14" lengthAdjust="spacing" textLength="181.3574" x="799.11" y="523.5797">Route to handle_session_get</text></g><!--entity handle_session_remove--><g class="entity" data-entity="handle_session_remove" data-source-line="24" data-uid="ent0014" id="entity_handle_session_remove"><rect fill="#FFFFFF" height="46.0986" rx="2.5" ry="2.5" style="stroke:#000000;stroke-width:1;" width="248.5781" x="1040.5" y="490.4479"/><rect fill="#FFFFFF" height="10" style="stroke:#000000;stroke-width:1;" width="15" x="1269.0781" y="495.4479"/><rect fill="#FFFFFF" height="2" style="stroke:#000000;stroke-width:1;" width="4" x="1267.0781" y="497.4479"/><rect fill="#FFFFFF" height="2" style="stroke:#000000;stroke-width:1;" width="4" x="1267.0781" y="501.4479"/><text fill="#000000" font-family="Arial" font-size="14" lengthAdjust="spacing" textLength="208.5781" x="1055.5" y="523.5797">Route to handle_session_remove</text></g><!--entity handle_session_details--><g class="entity" data-entity="handle_session_details" data-source-line="25" data-uid="ent0015" id="entity_handle_session_details"><rect fill="#FFFFFF" height="46.0986" rx="2.5" ry="2.5" style="stroke:#000000;stroke-width:1;" width="242.3643" x="1323.61" y="490.4479"/><rect fill="#FFFFFF" height="10" style="stroke:#000000;stroke-width:1;" width="15" x="1545.9743" y="495.4479"/><rect fill="#FFFFFF" height="2" style="stroke:#000000;stroke-width:1;" width="4" x="1543.9743" y="497.4479"/><rect fill="#FFFFFF" height="2" style="stroke:#000000;stroke-width:1;" width="4" x="1543.9743" y="501.4479"/><text fill="#000000" font-family="Arial" font-size="14" lengthAdjust="spacing" textLength="202.3643" x="1338.61" y="523.5797">Route to handle_session_details</text></g><!--entity handle_wsession_breadcrumbs--><g class="entity" data-entity="handle_wsession_breadcrumbs" data-source-line="26" data-uid="ent0016" id="entity_handle_wsession_breadcrumbs"><rect fill="#FFFFFF" height="46.0986" rx="2.5" ry="2.5" style="stroke:#000000;stroke-width:1;" width="293.709" x="1600.93" y="490.4479"/><rect fill="#FFFFFF" height="10" style="stroke:#000000;stroke-width:1;" width="15" x="1874.639" y="495.4479"/><rect fill="#FFFFFF" height="2" style="stroke:#000000;stroke-width:1;" width="4" x="1872.639" y="497.4479"/><rect fill="#FFFFFF" height="2" style="stroke:#000000;stroke-width:1;" width="4" x="1872.639" y="501.4479"/><text fill="#000000" font-family="Arial" font-size="14" lengthAdjust="spacing" textLength="253.709" x="1615.93" y="523.5797">Route to handle_wsession_breadcrumbs</text></g><!--entity handle_wsession_timeline--><g class="entity" data-entity="handle_wsession_timeline" data-source-line="27" data-uid="ent0017" id="entity_handle_wsession_timeline"><rect fill="#FFFFFF" height="46.0986" rx="2.5" ry="2.5" style="stroke:#000000;stroke-width:1;" width="260.2471" x="1929.67" y="490.4479"/><rect fill="#FFFFFF" height="10" style="stroke:#000000;stroke-width:1;" width="15" x="2169.9171" y="495.4479"/><rect fill="#FFFFFF" height="2" style="stroke:#000000;stroke-width:1;" width="4" x="2167.9171" y="497.4479"/><rect fill="#FFFFFF" height="2" style="stroke:#000000;stroke-width:1;" width="4" x="2167.9171" y="501.4479"/><text fill="#000000" font-family="Arial" font-size="14" lengthAdjust="spacing" textLength="220.2471" x="1944.67" y="523.5797">Route to handle_wsession_timeline</text></g><!--entity handle_wsession_stats--><g class="entity" data-entity="handle_wsession_stats" data-source-line="28" data-uid="ent0018" id="entity_handle_wsession_stats"><rect fill="#FFFFFF" height="46.0986" rx="2.5" ry="2.5" style="stroke:#000000;stroke-width:1;" width="241.5713" x="2225" y="490.4479"/><rect fill="#FFFFFF" height="10" style="stroke:#000000;stroke-width:1;" width="15" x="2446.5713" y="495.4479"/><rect fill="#FFFFFF" height="2" style="stroke:#000000;stroke-width:1;" width="4" x="2444.5713" y="497.4479"/><rect fill="#FFFFFF" height="2" style="stroke:#000000;stroke-width:1;" width="4" x="2444.5713" y="501.4479"/><text fill="#000000" font-family="Arial" font-size="14" lengthAdjust="spacing" textLength="201.5713" x="2240" y="523.5797">Route to handle_wsession_stats</text></g><!--entity show_session_help--><g class="entity" data-entity="show_session_help" data-source-line="29" data-uid="ent0019" id="entity_show_session_help"><rect fill="#FFFFFF" height="36.0986" rx="2.5" ry="2.5" style="stroke:#000000;stroke-width:1;" width="136.7373" x="2501.42" y="495.4479"/><text fill="#000000" font-family="Arial" font-size="14" lengthAdjust="spacing" textLength="116.7373" x="2511.42" y="518.5797">Show session help</text></g><!--entity execute_session_operation--><g class="entity" data-entity="execute_session_operation" data-source-line="30" data-uid="ent0020" id="entity_execute_session_operation"><rect fill="#FFFFFF" height="36.0986" rx="2.5" ry="2.5" style="stroke:#000000;stroke-width:1;" width="184.2129" x="1072.68" y="596.5379"/><text fill="#000000" font-family="Arial" font-size="14" lengthAdjust="spacing" textLength="164.2129" x="1082.68" y="619.6697">Execute session operation</text></g><!--entity read_write_session_files--><g class="entity" data-entity="read_write_session_files" data-source-line="31" data-uid="ent0021" id="entity_read_write_session_files"><rect fill="#FFFFFF" height="36.0986" rx="2.5" ry="2.5" style="stroke:#000000;stroke-width:1;" width="167.0615" x="1081.26" y="692.6379"/><text fill="#000000" font-family="Arial" font-size="14" lengthAdjust="spacing" textLength="147.0615" x="1091.26" y="715.7697">Read/write session files</text></g><!--entity output_results--><g class="entity" data-entity="output_results" data-source-line="32" data-uid="ent0022" id="entity_output_results"><rect fill="#FFFFFF" height="36.0986" rx="2.5" ry="2.5" style="stroke:#000000;stroke-width:1;" width="164.7441" x="1082.42" y="788.7379"/><text fill="#000000" font-family="Arial" font-size="14" lengthAdjust="spacing" textLength="144.7441" x="1092.42" y="811.8697">Output results to stdout</text></g><!--link parse_session_command to determine_session_command--><g class="link" data-entity-1="parse_session_command" data-entity-2="determine_session_command" data-source-line="33" data-uid="lnk23" id="link_parse_session_command_determine_session_command"><path d="M1304.79,108.1979 C1304.79,126.8179 1304.79,147.1379 1304.79,165.7479" fill="none" id="parse_session_command-to-determine_session_command" style="stroke:#333333;stroke-width:1;"/><polygon fill="#333333" points="1304.79,171.7479,1308.79,162.7479,1304.79,166.7479,1300.79,162.7479,1304.79,171.7479" style="stroke:#333333;stroke-width:1;"/></g><!--link determine_session_command to parse_session_subcommands--><g class="link" data-entity-1="determine_session_command" data-entity-2="parse_session_subcommands" data-source-line="34" data-uid="lnk24" id="link_determine_session_command_parse_session_subcommands"><path d="M1304.79,218.5279 C1304.79,236.0879 1304.79,254.4479 1304.79,271.9979" fill="none" id="determine_session_command-to-parse_session_subcommands" style="stroke:#333333;stroke-width:1;"/><polygon fill="#333333" points="1304.79,277.9979,1308.79,268.9979,1304.79,272.9979,1300.79,268.9979,1304.79,277.9979" style="stroke:#333333;stroke-width:1;"/></g><!--link parse_session_subcommands to session_subcommand_route--><g class="link" data-entity-1="parse_session_subcommands" data-entity-2="session_subcommand_route" data-source-line="35" data-uid="lnk25" id="link_parse_session_subcommands_session_subcommand_route"><path d="M1304.79,324.6279 C1304.79,342.1879 1304.79,360.5479 1304.79,378.0979" fill="none" id="parse_session_subcommands-to-session_subcommand_route" style="stroke:#333333;stroke-width:1;"/><polygon fill="#333333" points="1304.79,384.0979,1308.79,375.0979,1304.79,379.0979,1300.79,375.0979,1304.79,384.0979" style="stroke:#333333;stroke-width:1;"/></g><!--link session_subcommand_route to handle_session_new--><g class="link" data-entity-1="session_subcommand_route" data-entity-2="handle_session_new" data-source-line="36" data-uid="lnk26" id="link_session_subcommand_route_handle_session_new"><path d="M1205.52,413.2279 C1019.1,422.9579 604.12,447.6979 256.79,490.4479 C251.3,491.1179 251.6209,491.0181 245.9609,491.8181" fill="none" id="session_subcommand_route-to-handle_session_new" style="stroke:#333333;stroke-width:1;"/><polygon fill="#333333" points="240.02,492.6579,249.4912,495.3589,244.9708,491.9581,248.3716,487.4377,240.02,492.6579" style="stroke:#333333;stroke-width:1;"/></g><!--link session_subcommand_route to handle_session_list--><g class="link" data-entity-1="session_subcommand_route" data-entity-2="handle_session_list" data-source-line="37" data-uid="lnk27" id="link_session_subcommand_route_handle_session_list"><path d="M1205.5,416.4379 C1054.92,429.1479 759.94,455.9879 510.79,490.4479 C505.14,491.2279 505.2815,491.1639 499.4415,492.0539" fill="none" id="session_subcommand_route-to-handle_session_list" style="stroke:#333333;stroke-width:1;"/><polygon fill="#333333" points="493.51,492.9579,503.0099,495.5563,498.4529,492.2046,501.8046,487.6476,493.51,492.9579" style="stroke:#333333;stroke-width:1;"/></g><!--link session_subcommand_route to handle_session_set--><g class="link" data-entity-1="session_subcommand_route" data-entity-2="handle_session_set" data-source-line="38" data-uid="lnk28" id="link_session_subcommand_route_handle_session_set"><path d="M1205.54,422.9479 C1097.52,438.9179 919.74,465.6079 766.79,490.4479 C761.11,491.3679 761.2181,491.3298 755.3481,492.3098" fill="none" id="session_subcommand_route-to-handle_session_set" style="stroke:#333333;stroke-width:1;"/><polygon fill="#333333" points="749.43,493.2979,758.9658,495.7612,754.3617,492.4745,757.6485,487.8704,749.43,493.2979" style="stroke:#333333;stroke-width:1;"/></g><!--link session_subcommand_route to handle_session_get--><g class="link" data-entity-1="session_subcommand_route" data-entity-2="handle_session_get" data-source-line="39" data-uid="lnk29" id="link_session_subcommand_route_handle_session_get"><path d="M1216.08,430.9179 C1147.2,448.4079 1057.9857,471.062 989.1457,488.532" fill="none" id="session_subcommand_route-to-handle_session_get" style="stroke:#333333;stroke-width:1;"/><polygon fill="#333333" points="983.33,490.0079,993.0374,491.6711,988.1764,488.778,991.0696,483.9169,983.33,490.0079" style="stroke:#333333;stroke-width:1;"/></g><!--link session_subcommand_route to handle_session_remove--><g class="link" data-entity-1="session_subcommand_route" data-entity-2="handle_session_remove" data-source-line="40" data-uid="lnk30" id="link_session_subcommand_route_handle_session_remove"><path d="M1274.76,430.7279 C1251.13,448.2879 1223.1954,469.0684 1199.5854,486.6184" fill="none" id="session_subcommand_route-to-handle_session_remove" style="stroke:#333333;stroke-width:1;"/><polygon fill="#333333" points="1194.77,490.1979,1204.3793,488.039,1198.7828,487.215,1199.6068,481.6185,1194.77,490.1979" style="stroke:#333333;stroke-width:1;"/></g><!--link session_subcommand_route to handle_session_details--><g class="link" data-entity-1="session_subcommand_route" data-entity-2="handle_session_details" data-source-line="41" data-uid="lnk31" id="link_session_subcommand_route_handle_session_details"><path d="M1334.82,430.7279 C1358.44,448.2879 1386.3846,469.0684 1409.9946,486.6184" fill="none" id="session_subcommand_route-to-handle_session_details" style="stroke:#333333;stroke-width:1;"/><polygon fill="#333333" points="1414.81,490.1979,1409.9732,481.6185,1410.7972,487.215,1405.2007,488.039,1414.81,490.1979" style="stroke:#333333;stroke-width:1;"/></g><!--link session_subcommand_route to handle_wsession_breadcrumbs--><g class="link" data-entity-1="session_subcommand_route" data-entity-2="handle_wsession_breadcrumbs" data-source-line="42" data-uid="lnk32" id="link_session_subcommand_route_handle_wsession_breadcrumbs"><path d="M1400.64,430.9179 C1475.06,448.4079 1571.909,471.1658 1646.279,488.6358" fill="none" id="session_subcommand_route-to-handle_wsession_breadcrumbs" style="stroke:#333333;stroke-width:1;"/><polygon fill="#333333" points="1652.12,490.0079,1644.2732,484.0557,1647.2525,488.8644,1642.4438,491.8437,1652.12,490.0079" style="stroke:#333333;stroke-width:1;"/></g><!--link session_subcommand_route to handle_wsession_timeline--><g class="link" data-entity-1="session_subcommand_route" data-entity-2="handle_wsession_timeline" data-source-line="43" data-uid="lnk33" id="link_session_subcommand_route_handle_wsession_timeline"><path d="M1404.21,421.4079 C1524.48,437.2579 1733.07,465.0479 1911.79,490.4479 C1917.58,491.2679 1917.5513,491.2624 1923.5213,492.1224" fill="none" id="session_subcommand_route-to-handle_wsession_timeline" style="stroke:#333333;stroke-width:1;"/><polygon fill="#333333" points="1929.46,492.9779,1921.1223,487.7355,1924.5111,492.2649,1919.9816,495.6537,1929.46,492.9779" style="stroke:#333333;stroke-width:1;"/></g><!--link session_subcommand_route to handle_wsession_stats--><g class="link" data-entity-1="session_subcommand_route" data-entity-2="handle_wsession_stats" data-source-line="44" data-uid="lnk34" id="link_session_subcommand_route_handle_wsession_stats"><path d="M1404.24,415.2179 C1570.83,427.1379 1916.68,454.0079 2207.79,490.4479 C2213.33,491.1379 2213.0352,491.0758 2218.7452,491.8558" fill="none" id="session_subcommand_route-to-handle_wsession_stats" style="stroke:#333333;stroke-width:1;"/><polygon fill="#333333" points="2224.69,492.6679,2216.3142,487.4865,2219.736,491.9911,2215.2314,495.4129,2224.69,492.6679" style="stroke:#333333;stroke-width:1;"/></g><!--link session_subcommand_route to show_session_help--><g class="link" data-entity-1="session_subcommand_route" data-entity-2="show_session_help" data-source-line="45" data-uid="lnk35" id="link_session_subcommand_route_show_session_help"><path d="M1404.08,409.2379 C1607.81,412.3079 2087.29,426.3579 2483.79,490.4479 C2491.4,491.6779 2493.4564,491.9504 2501.2764,493.7104" fill="none" id="session_subcommand_route-to-show_session_help" style="stroke:#333333;stroke-width:1;"/><polygon fill="#333333" points="2507.13,495.0279,2499.2279,489.1493,2502.252,493.93,2497.4713,496.9541,2507.13,495.0279" style="stroke:#333333;stroke-width:1;"/></g><!--link handle_session_new to execute_session_operation--><g class="link" data-entity-1="handle_session_new" data-entity-2="execute_session_operation" data-source-line="46" data-uid="lnk36" id="link_handle_session_new_execute_session_operation"><path d="M240.02,534.2879 C245.68,535.0879 251.3,535.8479 256.79,536.5379 C553.83,574.0779 901.9312,597.8622 1066.3812,607.9022" fill="none" id="handle_session_new-to-execute_session_operation" style="stroke:#333333;stroke-width:1;"/><polygon fill="#333333" points="1072.37,608.2679,1063.6305,603.7268,1067.3793,607.9632,1063.143,611.712,1072.37,608.2679" style="stroke:#333333;stroke-width:1;"/></g><!--link handle_session_list to execute_session_operation--><g class="link" data-entity-1="handle_session_list" data-entity-2="execute_session_operation" data-source-line="47" data-uid="lnk37" id="link_handle_session_list_execute_session_operation"><path d="M493.53,533.9279 C499.36,534.8379 505.14,535.7179 510.79,536.5379 C710.33,565.5979 939.3818,590.5713 1066.2818,603.6813" fill="none" id="handle_session_list-to-execute_session_operation" style="stroke:#333333;stroke-width:1;"/><polygon fill="#333333" points="1072.25,604.2979,1063.7087,599.3942,1067.2765,603.784,1062.8866,607.3518,1072.25,604.2979" style="stroke:#333333;stroke-width:1;"/></g><!--link handle_session_set to execute_session_operation--><g class="link" data-entity-1="handle_session_set" data-entity-2="execute_session_operation" data-source-line="48" data-uid="lnk38" id="link_handle_session_set_execute_session_operation"><path d="M749.38,535.3279 C845.2,553.3779 976.3438,578.0867 1066.4438,595.0667" fill="none" id="handle_session_set-to-execute_session_operation" style="stroke:#333333;stroke-width:1;"/><polygon fill="#333333" points="1072.34,596.1779,1064.2365,590.5803,1067.4265,595.2519,1062.7549,598.4419,1072.34,596.1779" style="stroke:#333333;stroke-width:1;"/></g><!--link handle_session_get to execute_session_operation--><g class="link" data-entity-1="handle_session_get" data-entity-2="execute_session_operation" data-source-line="49" data-uid="lnk39" id="link_handle_session_get_execute_session_operation"><path d="M956.06,536.9779 C1004.91,554.9079 1066.7174,577.6007 1111.5674,594.0607" fill="none" id="handle_session_get-to-execute_session_operation" style="stroke:#333333;stroke-width:1;"/><polygon fill="#333333" points="1117.2,596.1279,1110.1292,589.272,1112.5061,594.4052,1107.3729,596.7822,1117.2,596.1279" style="stroke:#333333;stroke-width:1;"/></g><!--link handle_session_remove to execute_session_operation--><g class="link" data-entity-1="handle_session_remove" data-entity-2="execute_session_operation" data-source-line="50" data-uid="lnk40" id="link_handle_session_remove_execute_session_operation"><path d="M1164.79,536.9779 C1164.79,554.9079 1164.79,573.6679 1164.79,590.1279" fill="none" id="handle_session_remove-to-execute_session_operation" style="stroke:#333333;stroke-width:1;"/><polygon fill="#333333" points="1164.79,596.1279,1168.79,587.1279,1164.79,591.1279,1160.79,587.1279,1164.79,596.1279" style="stroke:#333333;stroke-width:1;"/></g><!--link handle_session_details to execute_session_operation--><g class="link" data-entity-1="handle_session_details" data-entity-2="execute_session_operation" data-source-line="51" data-uid="lnk41" id="link_handle_session_details_execute_session_operation"><path d="M1381.25,536.9779 C1330.59,554.9079 1266.3062,577.6661 1219.7962,594.1261" fill="none" id="handle_session_details-to-execute_session_operation" style="stroke:#333333;stroke-width:1;"/><polygon fill="#333333" points="1214.14,596.1279,1223.9589,596.896,1218.8535,594.4597,1221.2898,589.3544,1214.14,596.1279" style="stroke:#333333;stroke-width:1;"/></g><!--link handle_wsession_breadcrumbs to execute_session_operation--><g class="link" data-entity-1="handle_wsession_breadcrumbs" data-entity-2="execute_session_operation" data-source-line="52" data-uid="lnk42" id="link_handle_wsession_breadcrumbs_execute_session_operation"><path d="M1615.13,537.0379 C1505.76,555.6279 1359.3552,580.5228 1262.8952,596.9128" fill="none" id="handle_wsession_breadcrumbs-to-execute_session_operation" style="stroke:#333333;stroke-width:1;"/><polygon fill="#333333" points="1256.98,597.9179,1266.5229,600.3537,1261.9093,597.0803,1265.1828,592.4667,1256.98,597.9179" style="stroke:#333333;stroke-width:1;"/></g><!--link handle_wsession_timeline to execute_session_operation--><g class="link" data-entity-1="handle_wsession_timeline" data-entity-2="execute_session_operation" data-source-line="53" data-uid="lnk43" id="link_handle_wsession_timeline_execute_session_operation"><path d="M1929.49,534.2379 C1923.51,535.0379 1917.59,535.8079 1911.79,536.5379 C1676.53,566.1879 1404.4855,592.056 1263.2055,604.866" fill="none" id="handle_wsession_timeline-to-execute_session_operation" style="stroke:#333333;stroke-width:1;"/><polygon fill="#333333" points="1257.23,605.4079,1266.5544,608.5788,1262.2096,604.9563,1265.832,600.6115,1257.23,605.4079" style="stroke:#333333;stroke-width:1;"/></g><!--link handle_wsession_stats to execute_session_operation--><g class="link" data-entity-1="handle_wsession_stats" data-entity-2="execute_session_operation" data-source-line="54" data-uid="lnk44" id="link_handle_wsession_stats_execute_session_operation"><path d="M2224.71,534.4379 C2218.99,535.1879 2213.33,535.8979 2207.79,536.5379 C1857.91,577.3379 1445.3329,600.2568 1263.1129,609.1068" fill="none" id="handle_wsession_stats-to-execute_session_operation" style="stroke:#333333;stroke-width:1;"/><polygon fill="#333333" points="1257.12,609.3979,1266.3034,612.9565,1262.1141,609.1553,1265.9154,604.966,1257.12,609.3979" style="stroke:#333333;stroke-width:1;"/></g><!--link execute_session_operation to read_write_session_files--><g class="link" data-entity-1="execute_session_operation" data-entity-2="read_write_session_files" data-source-line="55" data-uid="lnk45" id="link_execute_session_operation_read_write_session_files"><path d="M1164.79,632.8479 C1164.79,649.7179 1164.79,669.2779 1164.79,686.2179" fill="none" id="execute_session_operation-to-read_write_session_files" style="stroke:#333333;stroke-width:1;"/><polygon fill="#333333" points="1164.79,692.2179,1168.79,683.2179,1164.79,687.2179,1160.79,683.2179,1164.79,692.2179" style="stroke:#333333;stroke-width:1;"/></g><!--link read_write_session_files to output_results--><g class="link" data-entity-1="read_write_session_files" data-entity-2="output_results" data-source-line="56" data-uid="lnk46" id="link_read_write_session_files_output_results"><path d="M1164.79,728.9479 C1164.79,745.8179 1164.79,765.3779 1164.79,782.3179" fill="none" id="read_write_session_files-to-output_results" style="stroke:#333333;stroke-width:1;"/><polygon fill="#333333" points="1164.79,788.3179,1168.79,779.3179,1164.79,783.3179,1160.79,779.3179,1164.79,788.3179" style="stroke:#333333;stroke-width:1;"/></g><!--SRC=[bPPDRzim38Rl_XLSTkWM83MwtNeOqAKjDg1BXhQteWWKcx65o98XoV7wxoVB7rCQERDyIlZoUIs9fi0FEiS2eMI4yaZjAI-990LiIRBFfAXukXHCIFXuRnyd8yKTgPY-5rolY76uaPGmHx-HKjGT_DK-ZhWI6hyBcQBiCfRsUP_XMuJ9YZJL367vwtQXK2agE2oW_vM8eY0y1LN97KaGFZsiRw-kOVdm4-wPg3z7KQKm8GfXHdYI2pa3ec2rVhxRtAoMFzQFKKvJF0fminQGDCirYDsH0Z2VFubA9dWzdyFBIoeI5TT2xdVcLIe-V8cfZ9CYZPsrNYQCNhwHWa5GzkjhX6PRpLgYo6oo51ovXjbl8irUtktUxgbib4sdR3h5HMzHeomen-7Gg8AB3hYm7ccVSixdU0cgsdOvohCCHtKjbZacUmS5_LQYnK_1ZVaap24uz6CJ02qWDpBxzpAEjVKu3K-X6LNQXpVnARn2Bsx2K-ZCJsVJQ8c5EA3Fe5McU9ZQ4ygKpwIJphdKVUvM8aaJMHNR8okVFibFqmAP-IAzPhquoKbfelrhiaeaCT64P-QgcJtbeXw-y1nPsNwR9ZgSIHDraRi_c3GlxYbHeYJQ_B8ejkf03wfhyMXE9gubTLnsb66xvkRODbOSJApe6gmhNLRQf2fpLQlc39HEpN5O0s75JIT6tki25ejlPow1KSLouvq_gbXkjEN714jvcZmattPr2D3qSKX-5fZVDMe8qhVb5CRRVq7Wq6j1LDjQPv7JjZgjhKqSRo9FSSC8Kzqm80i5slg6CLs1fq6-2WUIVOa3CLlZ_p2ZYkNEN6v-mLBlRhHsS6EuyyvjTmSpvt4xkJN_pVHsk8hxZx6VleeKJaDc51i5oieCThwWEx_z1G00]--></g></svg>