<svg xmlns="http://www.w3.org/2000/svg" xmlns:xlink="http://www.w3.org/1999/xlink" contentStyleType="text/css" data-diagram-type="DESCRIPTION" height="1063px" preserveAspectRatio="none" style="width:853px;height:1063px;background:#FFFFFF;" version="1.1" viewBox="0 0 853 1063" width="853px" zoomAndPan="magnify"><title>CMD-tu - tu command surface (LOD1: CLI Flow)</title><defs/><g><g class="title" data-source-line="8"><text fill="#000000" font-family="Arial" font-size="22" font-weight="bold" lengthAdjust="spacing" textLength="497.4385" x="173.2844" y="35.6357">CMD-tu - tu command surface (LOD1: CLI Flow)</text></g><!--entity NOTE_ANCHOR--><!--entity cli_invocation--><g class="entity" data-entity="cli_invocation" data-source-line="16" data-uid="ent0006" id="entity_cli_invocation"><rect fill="#FFFFFF" height="36.0986" rx="2.5" ry="2.5" style="stroke:#000000;stroke-width:1;" width="163.958" x="638.81" y="66.6679"/><text fill="#000000" font-family="Arial" font-size="14" lengthAdjust="spacing" textLength="143.958" x="648.81" y="89.7997">Maestro CLI Invocation</text></g><!--entity argparse--><g class="entity" data-entity="argparse" data-source-line="17" data-uid="ent0007" id="entity_argparse"><rect fill="#FFFFFF" height="46.0986" rx="2.5" ry="2.5" style="stroke:#000000;stroke-width:1;" width="172.2822" x="634.64" y="172.1379"/><rect fill="#FFFFFF" height="10" style="stroke:#000000;stroke-width:1;" width="15" x="786.9222" y="177.1379"/><rect fill="#FFFFFF" height="2" style="stroke:#000000;stroke-width:1;" width="4" x="784.9222" y="179.1379"/><rect fill="#FFFFFF" height="2" style="stroke:#000000;stroke-width:1;" width="4" x="784.9222" y="183.1379"/><text fill="#000000" font-family="Arial" font-size="14" lengthAdjust="spacing" textLength="132.2822" x="649.64" y="205.2697">Parse CLI arguments</text></g><!--entity determine_tu--><g class="entity" data-entity="determine_tu" data-source-line="18" data-uid="ent0008" id="entity_determine_tu"><rect fill="#FFFFFF" height="46.0986" rx="2.5" ry="2.5" style="stroke:#000000;stroke-width:1;" width="204.8486" x="618.36" y="278.2379"/><rect fill="#FFFFFF" height="10" style="stroke:#000000;stroke-width:1;" width="15" x="803.2086" y="283.2379"/><rect fill="#FFFFFF" height="2" style="stroke:#000000;stroke-width:1;" width="4" x="801.2086" y="285.2379"/><rect fill="#FFFFFF" height="2" style="stroke:#000000;stroke-width:1;" width="4" x="801.2086" y="289.2379"/><text fill="#000000" font-family="Arial" font-size="14" lengthAdjust="spacing" textLength="164.8486" x="633.36" y="311.3697">Determine command is 'tu'</text></g><!--entity route_tu_handler--><g class="entity" data-entity="route_tu_handler" data-source-line="19" data-uid="ent0009" id="entity_route_tu_handler"><rect fill="#FFFFFF" height="46.0986" rx="2.5" ry="2.5" style="stroke:#000000;stroke-width:1;" width="166.0684" x="637.75" y="384.3379"/><rect fill="#FFFFFF" height="10" style="stroke:#000000;stroke-width:1;" width="15" x="783.8184" y="389.3379"/><rect fill="#FFFFFF" height="2" style="stroke:#000000;stroke-width:1;" width="4" x="781.8184" y="391.3379"/><rect fill="#FFFFFF" height="2" style="stroke:#000000;stroke-width:1;" width="4" x="781.8184" y="395.3379"/><text fill="#000000" font-family="Arial" font-size="14" lengthAdjust="spacing" textLength="126.0684" x="652.75" y="417.4697">Route to TU handler</text></g><!--entity analyze_project--><g class="entity" data-entity="analyze_project" data-source-line="20" data-uid="ent0010" id="entity_analyze_project"><rect fill="#FFFFFF" height="46.0986" rx="2.5" ry="2.5" style="stroke:#000000;stroke-width:1;" width="194.0684" x="623.75" y="490.4379"/><rect fill="#FFFFFF" height="10" style="stroke:#000000;stroke-width:1;" width="15" x="797.8184" y="495.4379"/><rect fill="#FFFFFF" height="2" style="stroke:#000000;stroke-width:1;" width="4" x="795.8184" y="497.4379"/><rect fill="#FFFFFF" height="2" style="stroke:#000000;stroke-width:1;" width="4" x="795.8184" y="501.4379"/><text fill="#000000" font-family="Arial" font-size="14" lengthAdjust="spacing" textLength="154.0684" x="638.75" y="523.5697">Analyze project structure</text></g><!--entity read_source--><g class="entity" data-entity="read_source" data-source-line="21" data-uid="ent0011" id="entity_read_source"><rect fill="#FFFFFF" height="46.0986" rx="2.5" ry="2.5" style="stroke:#000000;stroke-width:1;" width="182.4131" x="629.58" y="596.5379"/><rect fill="#FFFFFF" height="10" style="stroke:#000000;stroke-width:1;" width="15" x="791.9931" y="601.5379"/><rect fill="#FFFFFF" height="2" style="stroke:#000000;stroke-width:1;" width="4" x="789.9931" y="603.5379"/><rect fill="#FFFFFF" height="2" style="stroke:#000000;stroke-width:1;" width="4" x="789.9931" y="607.5379"/><text fill="#000000" font-family="Arial" font-size="14" lengthAdjust="spacing" textLength="142.4131" x="644.58" y="629.6697">Read source code files</text></g><!--entity perform_indexing--><g class="entity" data-entity="perform_indexing" data-source-line="22" data-uid="ent0012" id="entity_perform_indexing"><rect fill="#FFFFFF" height="46.0986" rx="2.5" ry="2.5" style="stroke:#000000;stroke-width:1;" width="240.7715" x="600.4" y="702.6379"/><rect fill="#FFFFFF" height="10" style="stroke:#000000;stroke-width:1;" width="15" x="821.1715" y="707.6379"/><rect fill="#FFFFFF" height="2" style="stroke:#000000;stroke-width:1;" width="4" x="819.1715" y="709.6379"/><rect fill="#FFFFFF" height="2" style="stroke:#000000;stroke-width:1;" width="4" x="819.1715" y="713.6379"/><text fill="#000000" font-family="Arial" font-size="14" lengthAdjust="spacing" textLength="200.7715" x="615.4" y="735.7697">Perform translation unit indexing</text></g><!--entity write_index--><g class="entity" data-entity="write_index" data-source-line="23" data-uid="ent0013" id="entity_write_index"><rect fill="#FFFFFF" height="46.0986" rx="2.5" ry="2.5" style="stroke:#000000;stroke-width:1;" width="176.1719" x="632.7" y="808.7279"/><rect fill="#FFFFFF" height="10" style="stroke:#000000;stroke-width:1;" width="15" x="788.8719" y="813.7279"/><rect fill="#FFFFFF" height="2" style="stroke:#000000;stroke-width:1;" width="4" x="786.8719" y="815.7279"/><rect fill="#FFFFFF" height="2" style="stroke:#000000;stroke-width:1;" width="4" x="786.8719" y="819.7279"/><text fill="#000000" font-family="Arial" font-size="14" lengthAdjust="spacing" textLength="136.1719" x="647.7" y="841.8597">Write index to storage</text></g><!--entity output_progress--><g class="entity" data-entity="output_progress" data-source-line="24" data-uid="ent0014" id="entity_output_progress"><rect fill="#FFFFFF" height="46.0986" rx="2.5" ry="2.5" style="stroke:#000000;stroke-width:1;" width="252.4473" x="594.56" y="914.8279"/><rect fill="#FFFFFF" height="10" style="stroke:#000000;stroke-width:1;" width="15" x="827.0073" y="919.8279"/><rect fill="#FFFFFF" height="2" style="stroke:#000000;stroke-width:1;" width="4" x="825.0073" y="921.8279"/><rect fill="#FFFFFF" height="2" style="stroke:#000000;stroke-width:1;" width="4" x="825.0073" y="925.8279"/><text fill="#000000" font-family="Arial" font-size="14" lengthAdjust="spacing" textLength="212.4473" x="609.56" y="947.9597">Output analysis progress to stdout</text></g><!--entity exit_ok--><g class="entity" data-entity="exit_ok" data-source-line="25" data-uid="ent0015" id="entity_exit_ok"><rect fill="#FFFFFF" height="36.0986" rx="2.5" ry="2.5" style="stroke:#000000;stroke-width:1;" width="122.6963" x="659.44" y="1020.9279"/><text fill="#000000" font-family="Arial" font-size="14" lengthAdjust="spacing" textLength="102.6963" x="669.44" y="1044.0597">Exit successfully</text></g><!--link cli_invocation to argparse--><g class="link" data-entity-1="cli_invocation" data-entity-2="argparse" data-source-line="26" data-uid="lnk16" id="link_cli_invocation_argparse"><path d="M720.78,103.1479 C720.78,121.8279 720.78,145.5479 720.78,165.9179" fill="none" id="cli_invocation-to-argparse" style="stroke:#333333;stroke-width:1;"/><polygon fill="#333333" points="720.78,171.9179,724.78,162.9179,720.78,166.9179,716.78,162.9179,720.78,171.9179" style="stroke:#333333;stroke-width:1;"/></g><!--link argparse to determine_tu--><g class="link" data-entity-1="argparse" data-entity-2="determine_tu" data-source-line="27" data-uid="lnk17" id="link_argparse_determine_tu"><path d="M720.78,218.5179 C720.78,236.0879 720.78,254.4379 720.78,271.9979" fill="none" id="argparse-to-determine_tu" style="stroke:#333333;stroke-width:1;"/><polygon fill="#333333" points="720.78,277.9979,724.78,268.9979,720.78,272.9979,716.78,268.9979,720.78,277.9979" style="stroke:#333333;stroke-width:1;"/></g><!--link determine_tu to route_tu_handler--><g class="link" data-entity-1="determine_tu" data-entity-2="route_tu_handler" data-source-line="28" data-uid="lnk18" id="link_determine_tu_route_tu_handler"><path d="M720.78,324.6179 C720.78,342.1879 720.78,360.5379 720.78,378.0879" fill="none" id="determine_tu-to-route_tu_handler" style="stroke:#333333;stroke-width:1;"/><polygon fill="#333333" points="720.78,384.0879,724.78,375.0879,720.78,379.0879,716.78,375.0879,720.78,384.0879" style="stroke:#333333;stroke-width:1;"/></g><!--link route_tu_handler to analyze_project--><g class="link" data-entity-1="route_tu_handler" data-entity-2="analyze_project" data-source-line="29" data-uid="lnk19" id="link_route_tu_handler_analyze_project"><path d="M720.78,430.7179 C720.78,448.2779 720.78,466.6379 720.78,484.1879" fill="none" id="route_tu_handler-to-analyze_project" style="stroke:#333333;stroke-width:1;"/><polygon fill="#333333" points="720.78,490.1879,724.78,481.1879,720.78,485.1879,716.78,481.1879,720.78,490.1879" style="stroke:#333333;stroke-width:1;"/></g><!--link analyze_project to read_source--><g class="link" data-entity-1="analyze_project" data-entity-2="read_source" data-source-line="30" data-uid="lnk20" id="link_analyze_project_read_source"><path d="M720.78,536.8179 C720.78,554.3779 720.78,572.7379 720.78,590.2879" fill="none" id="analyze_project-to-read_source" style="stroke:#333333;stroke-width:1;"/><polygon fill="#333333" points="720.78,596.2879,724.78,587.2879,720.78,591.2879,716.78,587.2879,720.78,596.2879" style="stroke:#333333;stroke-width:1;"/></g><!--link read_source to perform_indexing--><g class="link" data-entity-1="read_source" data-entity-2="perform_indexing" data-source-line="31" data-uid="lnk21" id="link_read_source_perform_indexing"><path d="M720.78,642.9179 C720.78,660.4779 720.78,678.8379 720.78,696.3879" fill="none" id="read_source-to-perform_indexing" style="stroke:#333333;stroke-width:1;"/><polygon fill="#333333" points="720.78,702.3879,724.78,693.3879,720.78,697.3879,716.78,693.3879,720.78,702.3879" style="stroke:#333333;stroke-width:1;"/></g><!--link perform_indexing to write_index--><g class="link" data-entity-1="perform_indexing" data-entity-2="write_index" data-source-line="32" data-uid="lnk22" id="link_perform_indexing_write_index"><path d="M720.78,749.0179 C720.78,766.5779 720.78,784.9279 720.78,802.4879" fill="none" id="perform_indexing-to-write_index" style="stroke:#333333;stroke-width:1;"/><polygon fill="#333333" points="720.78,808.4879,724.78,799.4879,720.78,803.4879,716.78,799.4879,720.78,808.4879" style="stroke:#333333;stroke-width:1;"/></g><!--link write_index to output_progress--><g class="link" data-entity-1="write_index" data-entity-2="output_progress" data-source-line="33" data-uid="lnk23" id="link_write_index_output_progress"><path d="M720.78,855.1179 C720.78,872.6779 720.78,891.0279 720.78,908.5879" fill="none" id="write_index-to-output_progress" style="stroke:#333333;stroke-width:1;"/><polygon fill="#333333" points="720.78,914.5879,724.78,905.5879,720.78,909.5879,716.78,905.5879,720.78,914.5879" style="stroke:#333333;stroke-width:1;"/></g><!--link output_progress to exit_ok--><g class="link" data-entity-1="output_progress" data-entity-2="exit_ok" data-source-line="34" data-uid="lnk24" id="link_output_progress_exit_ok"><path d="M720.78,961.3679 C720.78,979.2979 720.78,998.0479 720.78,1014.5179" fill="none" id="output_progress-to-exit_ok" style="stroke:#333333;stroke-width:1;"/><polygon fill="#333333" points="720.78,1020.5179,724.78,1011.5179,720.78,1015.5179,716.78,1011.5179,720.78,1020.5179" style="stroke:#333333;stroke-width:1;"/></g><!--SRC=[ZLJ1Rjim3BtxAxZiq2r0OdIxzJ0WIrkiG9iCMuSTYiBGPDhH8ai69INjldwqx6IAsyDqC2I-zsJoqVGRly46eTL2cSnjbMa5YGP-2RcjoGPJBgss16-luqeO9LOYQ7zjZLy9lc51IkW4Nn3P_I3-65S2hgp7pvPAf86nZ6lCU2q9PcLUUOsmlBkS-G0pu8UqJIDC2IvG9IJ2kzlrvVa5B6zlu5hR_Vii2mwbS0WJOUJ6qWI4WzNw_gfOh9PVrj-oZIhn960u0o1LRppOwWG1c4w_sq0IBwPJU7WehNJvtjAsubUvVFSXLvJBfipx3ETIg_cpQ3JyB_7nCKCkfiiWomYb5wRcWYTt0fqd6ykwCJihXLVMn59OMgXZA6C_MclGU9Xy5SHbTn91TMWuvgA2Jsq7fTnBz4YDCdWqL3auy-4iAie3MlYGghxPm5Pv2_S_OCCYZRszrCMPMmp1LBCmGZ__uG-Fx6yk4BYk87qWx7FhqM90Jrw6WjiStUSakMULqjXNH0mLFNHY059bgG5FmZWT_O5Wb0TbIdnIfexYjcSLXs1wmqzIN614kZATjoJgFjDz1_MYLB4ElWs-hyEnXrn8JUXSBo_PcAYsaLOSqBJNLq-SeGjIShmAMZz70QVc2xlDJjiDizcdV_qyR6Bqf6Vf8Q8lEZGEz3UFkZ4wzpSbtYVxYBsmTXo8hDJ9P1-niK-ZS-GShEa7LsFrwjnUxNZEJPpSxipJkplFXu-z6FuUtKYo1_EcXEEEH_98LuPjP0_o4h4To4MtdxU1ftmSIAVvBm00]--></g></svg>