<svg xmlns="http://www.w3.org/2000/svg" xmlns:xlink="http://www.w3.org/1999/xlink" contentStyleType="text/css" data-diagram-type="DESCRIPTION" height="745px" preserveAspectRatio="none" style="width:1791px;height:745px;background:#FFFFFF;" version="1.1" viewBox="0 0 1791 745" width="1791px" zoomAndPan="magnify"><title>CMD-rules - rules deep internal flow (observed) (LOD2: Code Detail)</title><defs/><g><g class="title" data-source-line="8"><text fill="#000000" font-family="Arial" font-size="22" font-weight="bold" lengthAdjust="spacing" textLength="707.7598" x="537.1948" y="35.6357">CMD-rules - rules deep internal flow (observed) (LOD2: Code Detail)</text></g><!--entity NOTE_ANCHOR--><!--entity main_entry--><g class="entity" data-entity="main_entry" data-source-line="16" data-uid="ent0006" id="entity_main_entry"><rect fill="#E6F3FF" height="52.1973" rx="2.5" ry="2.5" style="stroke:#000000;stroke-width:1;" width="139.041" x="1222.93" y="147.7879"/><text fill="#000000" font-family="Arial" font-size="14" lengthAdjust="spacing" textLength="119.041" x="1232.93" y="170.9197">maestro.main.main</text><text fill="#000000" font-family="Arial" font-size="14" lengthAdjust="spacing" textLength="84.8066" x="1232.93" y="187.0183">maestro.main</text></g><!--entity handle_rules_list--><g class="entity" data-entity="handle_rules_list" data-source-line="17" data-uid="ent0007" id="entity_handle_rules_list"><rect fill="#E6F3FF" height="52.1973" rx="2.5" ry="2.5" style="stroke:#000000;stroke-width:1;" width="254.2266" x="1036.34" y="276.2579"/><text fill="#000000" font-family="Arial" font-size="14" lengthAdjust="spacing" textLength="105.0684" x="1046.34" y="299.3897">handle_rules_list</text><text fill="#000000" font-family="Arial" font-size="14" lengthAdjust="spacing" textLength="234.2266" x="1046.34" y="315.4883">maestro.modules.command_handlers</text></g><!--entity handle_rules_file--><g class="entity" data-entity="handle_rules_file" data-source-line="18" data-uid="ent0008" id="entity_handle_rules_file"><rect fill="#E6F3FF" height="52.1973" rx="2.5" ry="2.5" style="stroke:#000000;stroke-width:1;" width="254.2266" x="1450.34" y="276.2579"/><text fill="#000000" font-family="Arial" font-size="14" lengthAdjust="spacing" textLength="105.8545" x="1460.34" y="299.3897">handle_rules_file</text><text fill="#000000" font-family="Arial" font-size="14" lengthAdjust="spacing" textLength="234.2266" x="1460.34" y="315.4883">maestro.modules.command_handlers</text></g><!--entity load_session--><g class="entity" data-entity="load_session" data-source-line="19" data-uid="ent0009" id="entity_load_session"><rect fill="#E6F3FF" height="52.1973" rx="2.5" ry="2.5" style="stroke:#000000;stroke-width:1;" width="167.8477" x="1185.53" y="400.8979"/><text fill="#000000" font-family="Arial" font-size="14" lengthAdjust="spacing" textLength="81.7236" x="1195.53" y="424.0297">load_session</text><text fill="#000000" font-family="Arial" font-size="14" lengthAdjust="spacing" textLength="147.8477" x="1195.53" y="440.1283">maestro.session_model</text></g><!--entity save_session--><g class="entity" data-entity="save_session" data-source-line="20" data-uid="ent0010" id="entity_save_session"><rect fill="#E6F3FF" height="52.1973" rx="2.5" ry="2.5" style="stroke:#000000;stroke-width:1;" width="167.8477" x="1388.53" y="400.8979"/><text fill="#000000" font-family="Arial" font-size="14" lengthAdjust="spacing" textLength="84.8271" x="1398.53" y="424.0297">save_session</text><text fill="#000000" font-family="Arial" font-size="14" lengthAdjust="spacing" textLength="147.8477" x="1398.53" y="440.1283">maestro.session_model</text></g><!--entity session_class--><g class="entity" data-entity="session_class" data-source-line="21" data-uid="ent0011" id="entity_session_class"><rect fill="#FFFFFF" height="46.0986" rx="2.5" ry="2.5" style="stroke:#000000;stroke-width:1;" width="89.8066" x="1325.55" y="279.3079"/><rect fill="#FFFFFF" height="10" style="stroke:#000000;stroke-width:1;" width="15" x="1395.3566" y="284.3079"/><rect fill="#FFFFFF" height="2" style="stroke:#000000;stroke-width:1;" width="4" x="1393.3566" y="286.3079"/><rect fill="#FFFFFF" height="2" style="stroke:#000000;stroke-width:1;" width="4" x="1393.3566" y="290.3079"/><text fill="#000000" font-family="Arial" font-size="14" lengthAdjust="spacing" textLength="49.8066" x="1340.55" y="312.4397">Session</text></g><!--entity file_system--><g class="entity" data-entity="file_system" data-source-line="22" data-uid="ent0012" id="entity_file_system"><ellipse cx="1269.452" cy="671.6479" fill="#FFFFFF" rx="8" ry="8" style="stroke:#000000;stroke-width:1;"/><path d="M1269.452,679.6479 L1269.452,706.6479 M1256.452,687.6479 L1282.452,687.6479 M1269.452,706.6479 L1256.452,721.6479 M1269.452,706.6479 L1282.452,721.6479" fill="none" style="stroke:#000000;stroke-width:1;"/><text fill="#000000" font-family="Arial" font-size="14" lengthAdjust="spacing" textLength="73.124" x="1232.89" y="736.7797">File System</text></g><!--entity user_editor--><g class="entity" data-entity="user_editor" data-source-line="23" data-uid="ent0013" id="entity_user_editor"><ellipse cx="1577.4484" cy="144.3379" fill="#FFFFFF" rx="8" ry="8" style="stroke:#000000;stroke-width:1;"/><path d="M1577.4484,152.3379 L1577.4484,179.3379 M1564.4484,160.3379 L1590.4484,160.3379 M1577.4484,179.3379 L1564.4484,194.3379 M1577.4484,179.3379 L1590.4484,194.3379" fill="none" style="stroke:#000000;stroke-width:1;"/><text fill="#000000" font-family="Arial" font-size="14" lengthAdjust="spacing" textLength="103.7969" x="1525.55" y="209.4697">User's $EDITOR</text></g><!--entity subprocess_actor--><g class="entity" data-entity="subprocess_actor" data-source-line="24" data-uid="ent0014" id="entity_subprocess_actor"><ellipse cx="1723.4497" cy="397.4479" fill="#FFFFFF" rx="8" ry="8" style="stroke:#000000;stroke-width:1;"/><path d="M1723.4497,405.4479 L1723.4497,432.4479 M1710.4497,413.4479 L1736.4497,413.4479 M1723.4497,432.4479 L1710.4497,447.4479 M1723.4497,432.4479 L1736.4497,447.4479" fill="none" style="stroke:#000000;stroke-width:1;"/><text fill="#000000" font-family="Arial" font-size="14" lengthAdjust="spacing" textLength="121.3994" x="1662.75" y="462.5797">subprocess module</text></g><!--entity os_actor--><g class="entity" data-entity="os_actor" data-source-line="25" data-uid="ent0015" id="entity_os_actor"><ellipse cx="1723.4564" cy="534.5479" fill="#FFFFFF" rx="8" ry="8" style="stroke:#000000;stroke-width:1;"/><path d="M1723.4564,542.5479 L1723.4564,569.5479 M1710.4564,550.5479 L1736.4564,550.5479 M1723.4564,569.5479 L1710.4564,584.5479 M1723.4564,569.5479 L1736.4564,584.5479" fill="none" style="stroke:#000000;stroke-width:1;"/><text fill="#000000" font-family="Arial" font-size="14" lengthAdjust="spacing" textLength="64.5928" x="1691.16" y="599.6797">os module</text></g><!--entity docs_sessions_dir--><g class="entity" data-entity="docs_sessions_dir" data-source-line="26" data-uid="ent0016" id="entity_docs_sessions_dir"><path d="M1185.91,551.5479 C1185.91,541.5479 1269.451,541.5479 1269.451,541.5479 C1269.451,541.5479 1352.992,541.5479 1352.992,551.5479 L1352.992,576.6465 C1352.992,586.6465 1269.451,586.6465 1269.451,586.6465 C1269.451,586.6465 1185.91,586.6465 1185.91,576.6465 L1185.91,551.5479" fill="#FFE6E6" style="stroke:#000000;stroke-width:1;"/><path d="M1185.91,551.5479 C1185.91,561.5479 1269.451,561.5479 1269.451,561.5479 C1269.451,561.5479 1352.992,561.5479 1352.992,551.5479" fill="none" style="stroke:#000000;stroke-width:1;"/><text fill="#000000" font-family="Arial" font-size="14" lengthAdjust="spacing" textLength="147.082" x="1195.91" y="578.6797">docs/sessions/&lt;name&gt;/</text></g><!--link NOTE_ANCHOR to GMN3--><!--link main_entry to handle_rules_list--><g class="link" data-entity-1="main_entry" data-entity-2="handle_rules_list" data-source-line="27" data-uid="lnk17" id="link_main_entry_handle_rules_list"><path d="M1266.35,200.4779 C1243.97,222.4179 1216.1746,249.6676 1193.8046,271.5976" fill="none" id="main_entry-to-handle_rules_list" style="stroke:#333333;stroke-width:1;"/><polygon fill="#333333" points="1189.52,275.7979,1198.747,272.3538,1193.0905,272.2976,1193.1467,266.641,1189.52,275.7979" style="stroke:#333333;stroke-width:1;"/></g><!--link main_entry to handle_rules_file--><g class="link" data-entity-1="main_entry" data-entity-2="handle_rules_file" data-source-line="28" data-uid="lnk18" id="link_main_entry_handle_rules_file"><path d="M1350.13,200.4779 C1399.57,222.4179 1464.9557,251.4342 1514.3757,273.3642" fill="none" id="main_entry-to-handle_rules_file" style="stroke:#333333;stroke-width:1;"/><polygon fill="#333333" points="1519.86,275.7979,1513.256,268.4912,1515.2898,273.7698,1510.0111,275.8036,1519.86,275.7979" style="stroke:#333333;stroke-width:1;"/></g><!--link handle_rules_list to load_session--><g class="link" data-entity-1="handle_rules_list" data-entity-2="load_session" data-source-line="29" data-uid="lnk19" id="link_handle_rules_list_load_session"><path d="M1185.42,328.7679 C1203.61,349.8179 1225.4059,375.039 1243.5959,396.079" fill="none" id="handle_rules_list-to-load_session" style="stroke:#333333;stroke-width:1;"/><polygon fill="#333333" points="1247.52,400.6179,1244.6598,391.1934,1244.2499,396.8354,1238.608,396.4256,1247.52,400.6179" style="stroke:#333333;stroke-width:1;"/></g><!--link load_session to docs_sessions_dir--><g class="link" data-entity-1="load_session" data-entity-2="docs_sessions_dir" data-source-line="30" data-uid="lnk20" id="link_load_session_docs_sessions_dir"><path d="M1269.45,453.4079 C1269.45,478.7879 1269.45,511.3779 1269.45,535.3679" fill="none" id="load_session-to-docs_sessions_dir" style="stroke:#333333;stroke-width:1;"/><polygon fill="#333333" points="1269.45,541.3679,1273.45,532.3679,1269.45,536.3679,1265.45,532.3679,1269.45,541.3679" style="stroke:#333333;stroke-width:1;"/></g><!--link handle_rules_list to file_system--><g class="link" data-entity-1="handle_rules_list" data-entity-2="file_system" data-source-line="31" data-uid="lnk21" id="link_handle_rules_list_file_system"><path d="M1157.63,328.7579 C1146.69,382.1279 1127.67,508.7479 1168.45,602.6479 C1181.71,633.1679 1204.7425,655.2745 1227.8425,672.6245" fill="none" id="handle_rules_list-to-file_system" style="stroke:#333333;stroke-width:1;"/><polygon fill="#333333" points="1232.64,676.2279,1227.846,667.6245,1228.6421,673.2251,1223.0415,674.0212,1232.64,676.2279" style="stroke:#333333;stroke-width:1;"/></g><!--link handle_rules_file to load_session--><g class="link" data-entity-1="handle_rules_file" data-entity-2="load_session" data-source-line="32" data-uid="lnk22" id="link_handle_rules_file_load_session"><path d="M1513.26,328.9179 C1460.55,349.9079 1391.8244,377.2683 1339.1344,398.2483" fill="none" id="handle_rules_file-to-load_session" style="stroke:#333333;stroke-width:1;"/><polygon fill="#333333" points="1333.56,400.4679,1343.4013,400.8547,1338.2053,398.6182,1340.4418,393.4222,1333.56,400.4679" style="stroke:#333333;stroke-width:1;"/></g><!--link handle_rules_file to file_system--><g class="link" data-entity-1="handle_rules_file" data-entity-2="file_system" data-source-line="33" data-uid="lnk23" id="link_handle_rules_file_file_system"><path d="M1583.25,328.8679 C1589.46,362.2679 1595.67,421.7079 1573.45,465.5479 C1515.66,579.5879 1379.3613,651.9753 1311.8413,682.3653" fill="none" id="handle_rules_file-to-file_system" style="stroke:#333333;stroke-width:1;"/><polygon fill="#333333" points="1306.37,684.8279,1316.2187,684.7815,1310.9295,682.7757,1312.9353,677.4864,1306.37,684.8279" style="stroke:#333333;stroke-width:1;"/></g><!--link handle_rules_file to save_session--><g class="link" data-entity-1="handle_rules_file" data-entity-2="save_session" data-source-line="34" data-uid="lnk24" id="link_handle_rules_file_save_session"><path d="M1555.7,328.7679 C1537.68,349.8179 1516.0917,375.0197 1498.0817,396.0597" fill="none" id="handle_rules_file-to-save_session" style="stroke:#333333;stroke-width:1;"/><polygon fill="#333333" points="1494.18,400.6179,1503.0713,396.3818,1497.4314,396.8194,1496.9938,391.1795,1494.18,400.6179" style="stroke:#333333;stroke-width:1;"/></g><!--link handle_rules_file to subprocess_actor--><g class="link" data-entity-1="handle_rules_file" data-entity-2="subprocess_actor" data-source-line="35" data-uid="lnk25" id="link_handle_rules_file_subprocess_actor"><path d="M1607.7,328.7679 C1628.08,345.8879 1650.7366,364.9077 1673.6666,384.1777" fill="none" id="handle_rules_file-to-subprocess_actor" style="stroke:#333333;stroke-width:1;"/><polygon fill="#333333" points="1678.26,388.0379,1673.9434,379.1853,1674.4322,384.821,1668.7965,385.3098,1678.26,388.0379" style="stroke:#333333;stroke-width:1;"/></g><!--link subprocess_actor to os_actor--><g class="link" data-entity-1="subprocess_actor" data-entity-2="os_actor" data-source-line="36" data-uid="lnk26" id="link_subprocess_actor_os_actor"><path d="M1723.45,465.9979 C1723.45,484.5679 1723.45,500.8579 1723.45,519.3979" fill="none" id="subprocess_actor-to-os_actor" style="stroke:#333333;stroke-width:1;"/><polygon fill="#333333" points="1723.45,525.3979,1727.45,516.3979,1723.45,520.3979,1719.45,516.3979,1723.45,525.3979" style="stroke:#333333;stroke-width:1;"/></g><!--link session_class to load_session--><g class="link" data-entity-1="session_class" data-entity-2="load_session" data-source-line="37" data-uid="lnk27" id="link_session_class_load_session"><path d="M1351.93,325.8479 C1334.5,347.0079 1312.2642,374.0162 1294.1142,396.0562" fill="none" id="session_class-to-load_session" style="stroke:#333333;stroke-width:1;"/><polygon fill="#333333" points="1290.3,400.6879,1299.109,396.2832,1293.4785,396.8281,1292.9335,391.1976,1290.3,400.6879" style="stroke:#333333;stroke-width:1;"/></g><!--link session_class to save_session--><g class="link" data-entity-1="session_class" data-entity-2="save_session" data-source-line="38" data-uid="lnk28" id="link_session_class_save_session"><path d="M1389.16,325.8479 C1406.76,347.0079 1429.2334,374.0348 1447.5634,396.0748" fill="none" id="session_class-to-save_session" style="stroke:#333333;stroke-width:1;"/><polygon fill="#333333" points="1451.4,400.6879,1448.7205,391.2105,1448.2029,396.8436,1442.5697,396.3259,1451.4,400.6879" style="stroke:#333333;stroke-width:1;"/></g><!--link docs_sessions_dir to file_system--><g class="link" data-entity-1="docs_sessions_dir" data-entity-2="file_system" data-source-line="39" data-uid="lnk29" id="link_docs_sessions_dir_file_system"><path d="M1269.45,587.1079 C1269.45,607.4479 1269.45,632.0879 1269.45,656.3479" fill="none" id="docs_sessions_dir-to-file_system" style="stroke:#333333;stroke-width:1;"/><polygon fill="#333333" points="1269.45,662.3479,1273.45,653.3479,1269.45,657.3479,1265.45,653.3479,1269.45,662.3479" style="stroke:#333333;stroke-width:1;"/></g><!--link user_editor to handle_rules_file--><g class="link" data-entity-1="user_editor" data-entity-2="handle_rules_file" data-source-line="40" data-uid="lnk30" id="link_user_editor_handle_rules_file"><path d="M1577.45,212.8279 C1577.45,233.1979 1577.45,251.7679 1577.45,269.8479" fill="none" id="user_editor-to-handle_rules_file" style="stroke:#333333;stroke-width:1;"/><polygon fill="#333333" points="1577.45,275.8479,1581.45,266.8479,1577.45,270.8479,1573.45,266.8479,1577.45,275.8479" style="stroke:#333333;stroke-width:1;"/></g><!--SRC=[dLNTRjem5BxFKvpHIMkHIBHMwaKtLM8GjaejJ2sxObLauWD4TMnaErIyogxsR7kI7Pk41G9hjmW1EUVpv-_u_FYDNM2Ei1Giau5vokIIQPR3bALFSwqAoNjAA0qd0__K41ndh11seAGTCcBeweo9ch-hjNek5r_uf-OSAekVbEQeIqJFF_k8Go885TZC2eJUNR-Z2u46Eh3vvOXBoAH5BPc0cL3FSAgc1lKA-HcStexwvrVGKnoXZvPbuYm82eCfCmWj9jE5qYrW1eQZSPnqXxqle_jWaH6wRf0a37GsNrXGinqFGBlze0gTubMx3PC9Lwc9dfL-Sa9Cj3gFCXsbEO-smiEKj8HhbWlu5_3ZOu2IWrCI11fJo-ISpgELCpHMgp2dNFglxx9kyh6vFmbAgzTm4byEBYYdDOO5arnWulTBH6PiZK7nKaMU4ohPGBNnh8rrBvBFCe7_G-xM7I8NYl74e36PgeLT6XBYH-79whX3F8Qjy3KyTToMX-GlbQJJXTR3nhN1bgjJmOm9M6gfbbi35yZ3sbZCFSW5bXZ_Na6-KUM-C_0sxj-CH_SUHUMg4-GP-IkKAQPBhLBQ0pR7kDbpQqqyhaAh7PIgl9nPDlLzu0knL6oYZv9w-phoOEUfGZO9ptn3nfVnPL0hgaxdkbaDVmMum8Dc0JbSFLd1JkQSjw7d24lzP9krrDZdCEHbadf578Fi9sNVu57RfEpKJLDeqxqZePck_JXgnNGaBPjf9t1sSDZ5AngEqeyxzquZR_K-giPlv8Qncs0bdtiDbmMDkWCsccYl8yWvD2mxu_3eUDuMgrF-wyTFk4K-HmrVQ3zJHJ0gBmi8ex3iVQ2JGvUEDJKVcoFTBtyaR6uSDx8_mEeSD2uLM5tOXMjK0o6HqcSo2OalZ6xkljx6T_5mt1tVZ8R9RTp_7D-xa0uw_9bKInspjYOINdIIKgOowbaQcRIyZAItDTPFv3S0]--></g></svg>