<svg xmlns="http://www.w3.org/2000/svg" xmlns:xlink="http://www.w3.org/1999/xlink" contentStyleType="text/css" data-diagram-type="DESCRIPTION" height="770px" preserveAspectRatio="none" style="width:1780px;height:770px;background:#FFFFFF;" version="1.1" viewBox="0 0 1780 770" width="1780px" zoomAndPan="magnify"><title>CMD-rules - rules deep internal flow (observed) (LOD1: Code Functions)</title><defs/><g><g class="title" data-source-line="8"><text fill="#000000" font-family="Arial" font-size="22" font-weight="bold" lengthAdjust="spacing" textLength="752.9521" x="509.3754" y="35.6357">CMD-rules - rules deep internal flow (observed) (LOD1: Code Functions)</text></g><!--entity NOTE_ANCHOR--><!--entity main_entry--><g class="entity" data-entity="main_entry" data-source-line="16" data-uid="ent0006" id="entity_main_entry"><rect fill="#FFFFFF" height="52.1973" rx="2.5" ry="2.5" style="stroke:#000000;stroke-width:1;" width="139.041" x="1222.93" y="147.7879"/><text fill="#000000" font-family="Arial" font-size="14" lengthAdjust="spacing" textLength="119.041" x="1232.93" y="170.9197">maestro.main.main</text><text fill="#000000" font-family="Arial" font-size="14" lengthAdjust="spacing" textLength="94.1309" x="1232.93" y="187.0183">(maestro.main)</text></g><!--entity handle_rules_list--><g class="entity" data-entity="handle_rules_list" data-source-line="17" data-uid="ent0007" id="entity_handle_rules_list"><rect fill="#FFFFFF" height="52.1973" rx="2.5" ry="2.5" style="stroke:#000000;stroke-width:1;" width="263.5508" x="1020.68" y="288.7079"/><text fill="#000000" font-family="Arial" font-size="14" lengthAdjust="spacing" textLength="105.0684" x="1030.68" y="311.8397">handle_rules_list</text><text fill="#000000" font-family="Arial" font-size="14" lengthAdjust="spacing" textLength="243.5508" x="1030.68" y="327.9383">(maestro.modules.command_handlers)</text></g><!--entity handle_rules_file--><g class="entity" data-entity="handle_rules_file" data-source-line="18" data-uid="ent0008" id="entity_handle_rules_file"><rect fill="#FFFFFF" height="52.1973" rx="2.5" ry="2.5" style="stroke:#000000;stroke-width:1;" width="263.5508" x="1440.68" y="288.7079"/><text fill="#000000" font-family="Arial" font-size="14" lengthAdjust="spacing" textLength="105.8545" x="1450.68" y="311.8397">handle_rules_file</text><text fill="#000000" font-family="Arial" font-size="14" lengthAdjust="spacing" textLength="243.5508" x="1450.68" y="327.9383">(maestro.modules.command_handlers)</text></g><!--entity load_session--><g class="entity" data-entity="load_session" data-source-line="19" data-uid="ent0009" id="entity_load_session"><rect fill="#FFFFFF" height="52.1973" rx="2.5" ry="2.5" style="stroke:#000000;stroke-width:1;" width="177.1719" x="1167.87" y="425.7979"/><text fill="#000000" font-family="Arial" font-size="14" lengthAdjust="spacing" textLength="81.7236" x="1177.87" y="448.9297">load_session</text><text fill="#000000" font-family="Arial" font-size="14" lengthAdjust="spacing" textLength="157.1719" x="1177.87" y="465.0283">(maestro.session_model)</text></g><!--entity save_session--><g class="entity" data-entity="save_session" data-source-line="20" data-uid="ent0010" id="entity_save_session"><rect fill="#FFFFFF" height="52.1973" rx="2.5" ry="2.5" style="stroke:#000000;stroke-width:1;" width="177.1719" x="1379.87" y="425.7979"/><text fill="#000000" font-family="Arial" font-size="14" lengthAdjust="spacing" textLength="84.8271" x="1389.87" y="448.9297">save_session</text><text fill="#000000" font-family="Arial" font-size="14" lengthAdjust="spacing" textLength="157.1719" x="1389.87" y="465.0283">(maestro.session_model)</text></g><!--entity docs_sessions_dir--><g class="entity" data-entity="docs_sessions_dir" data-source-line="24" data-uid="ent0014" id="entity_docs_sessions_dir"><ellipse cx="1256.4559" cy="559.4479" fill="#FFFFFF" rx="8" ry="8" style="stroke:#000000;stroke-width:1;"/><path d="M1256.4559,567.4479 L1256.4559,594.4479 M1243.4559,575.4479 L1269.4559,575.4479 M1256.4559,594.4479 L1243.4559,609.4479 M1256.4559,594.4479 L1269.4559,609.4479" fill="none" style="stroke:#000000;stroke-width:1;"/><text fill="#000000" font-family="Arial" font-size="14" lengthAdjust="spacing" textLength="115.1719" x="1198.87" y="624.5797">docs_sessions_dir</text></g><!--entity file_system--><g class="entity" data-entity="file_system" data-source-line="25" data-uid="ent0016" id="entity_file_system"><ellipse cx="1256.4503" cy="696.5479" fill="#FFFFFF" rx="8" ry="8" style="stroke:#000000;stroke-width:1;"/><path d="M1256.4503,704.5479 L1256.4503,731.5479 M1243.4503,712.5479 L1269.4503,712.5479 M1256.4503,731.5479 L1243.4503,746.5479 M1256.4503,731.5479 L1269.4503,746.5479" fill="none" style="stroke:#000000;stroke-width:1;"/><text fill="#000000" font-family="Arial" font-size="14" lengthAdjust="spacing" textLength="70.0205" x="1221.44" y="761.6797">file_system</text></g><!--entity subprocess_actor--><g class="entity" data-entity="subprocess_actor" data-source-line="29" data-uid="ent0021" id="entity_subprocess_actor"><ellipse cx="1718.4515" cy="422.3479" fill="#FFFFFF" rx="8" ry="8" style="stroke:#000000;stroke-width:1;"/><path d="M1718.4515,430.3479 L1718.4515,457.3479 M1705.4515,438.3479 L1731.4515,438.3479 M1718.4515,457.3479 L1705.4515,472.3479 M1718.4515,457.3479 L1731.4515,472.3479" fill="none" style="stroke:#000000;stroke-width:1;"/><text fill="#000000" font-family="Arial" font-size="14" lengthAdjust="spacing" textLength="110.5029" x="1663.2" y="487.4797">subprocess_actor</text></g><!--entity os_actor--><g class="entity" data-entity="os_actor" data-source-line="30" data-uid="ent0023" id="entity_os_actor"><ellipse cx="1718.4481" cy="559.4479" fill="#FFFFFF" rx="8" ry="8" style="stroke:#000000;stroke-width:1;"/><path d="M1718.4481,567.4479 L1718.4481,594.4479 M1705.4481,575.4479 L1731.4481,575.4479 M1718.4481,594.4479 L1705.4481,609.4479 M1718.4481,594.4479 L1731.4481,609.4479" fill="none" style="stroke:#000000;stroke-width:1;"/><text fill="#000000" font-family="Arial" font-size="14" lengthAdjust="spacing" textLength="53.6963" x="1691.6" y="624.5797">os_actor</text></g><!--entity session_class--><g class="entity" data-entity="session_class" data-source-line="31" data-uid="ent0025" id="entity_session_class"><ellipse cx="1362.4557" cy="285.2579" fill="#FFFFFF" rx="8" ry="8" style="stroke:#000000;stroke-width:1;"/><path d="M1362.4557,293.2579 L1362.4557,320.2579 M1349.4557,301.2579 L1375.4557,301.2579 M1362.4557,320.2579 L1349.4557,335.2579 M1362.4557,320.2579 L1375.4557,335.2579" fill="none" style="stroke:#000000;stroke-width:1;"/><text fill="#000000" font-family="Arial" font-size="14" lengthAdjust="spacing" textLength="87.1514" x="1318.88" y="350.3897">session_class</text></g><!--entity user_editor--><g class="entity" data-entity="user_editor" data-source-line="34" data-uid="ent0029" id="entity_user_editor"><ellipse cx="1572.4505" cy="144.3279" fill="#FFFFFF" rx="8" ry="8" style="stroke:#000000;stroke-width:1;"/><path d="M1572.4505,152.3279 L1572.4505,179.3279 M1559.4505,160.3279 L1585.4505,160.3279 M1572.4505,179.3279 L1559.4505,194.3279 M1572.4505,179.3279 L1585.4505,194.3279" fill="none" style="stroke:#000000;stroke-width:1;"/><text fill="#000000" font-family="Arial" font-size="14" lengthAdjust="spacing" textLength="70.041" x="1537.43" y="209.4597">user_editor</text></g><!--link NOTE_ANCHOR to GMN3--><!--link main_entry to handle_rules_list--><g class="link" data-entity-1="main_entry" data-entity-2="handle_rules_list" data-source-line="21" data-uid="lnk11" id="link_main_entry_handle_rules_list"><path d="M1266.77,200.3579 C1241.51,225.4279 1207.4287,259.2513 1182.2287,284.2613" fill="none" id="main_entry-to-handle_rules_list" style="stroke:#333333;stroke-width:1;"/><polygon fill="#333333" points="1177.97,288.4879,1187.1757,284.9871,1181.5189,284.9657,1181.5403,279.3089,1177.97,288.4879" style="stroke:#333333;stroke-width:1;"/></g><!--link main_entry to handle_rules_file--><g class="link" data-entity-1="main_entry" data-entity-2="handle_rules_file" data-source-line="22" data-uid="lnk12" id="link_main_entry_handle_rules_file"><path d="M1343.81,200.3579 C1394.17,225.3479 1465.1549,260.5716 1515.5749,285.5816" fill="none" id="main_entry-to-handle_rules_file" style="stroke:#333333;stroke-width:1;"/><polygon fill="#333333" points="1520.95,288.2479,1514.6649,280.6652,1516.4708,286.026,1511.1099,287.8319,1520.95,288.2479" style="stroke:#333333;stroke-width:1;"/></g><!--link handle_rules_list to load_session--><g class="link" data-entity-1="handle_rules_list" data-entity-2="load_session" data-source-line="23" data-uid="lnk13" id="link_handle_rules_list_load_session"><path d="M1172.01,341.2179 C1190.61,365.3679 1214.7497,396.7336 1233.3197,420.8536" fill="none" id="handle_rules_list-to-load_session" style="stroke:#333333;stroke-width:1;"/><polygon fill="#333333" points="1236.98,425.6079,1234.6591,416.0364,1233.9298,421.646,1228.3201,420.9167,1236.98,425.6079" style="stroke:#333333;stroke-width:1;"/></g><!--link load_session to docs_sessions_dir--><g class="link" data-entity-1="load_session" data-entity-2="docs_sessions_dir" data-source-line="24" data-uid="lnk15" id="link_load_session_docs_sessions_dir"><path d="M1256.45,478.3079 C1256.45,498.5679 1256.45,521.2379 1256.45,544.1879" fill="none" id="load_session-to-docs_sessions_dir" style="stroke:#333333;stroke-width:1;"/><polygon fill="#333333" points="1256.45,550.1879,1260.45,541.1879,1256.45,545.1879,1252.45,541.1879,1256.45,550.1879" style="stroke:#333333;stroke-width:1;"/></g><!--link handle_rules_list to file_system--><g class="link" data-entity-1="handle_rules_list" data-entity-2="file_system" data-source-line="25" data-uid="lnk17" id="link_handle_rules_list_file_system"><path d="M1149.24,341.1379 C1143.42,396.2379 1135.6,529.8779 1181.45,627.5479 C1191.53,649.0179 1203.1315,665.5963 1217.3815,682.7163" fill="none" id="handle_rules_list-to-file_system" style="stroke:#333333;stroke-width:1;"/><polygon fill="#333333" points="1221.22,687.3279,1218.5367,677.8516,1218.0213,683.4849,1212.388,682.9695,1221.22,687.3279" style="stroke:#333333;stroke-width:1;"/></g><!--link handle_rules_file to load_session--><g class="link" data-entity-1="handle_rules_file" data-entity-2="load_session" data-source-line="26" data-uid="lnk18" id="link_handle_rules_file_load_session"><path d="M1512.64,341.3679 C1456.37,365.4279 1378.0871,398.8997 1321.7971,422.9597" fill="none" id="handle_rules_file-to-load_session" style="stroke:#333333;stroke-width:1;"/><polygon fill="#333333" points="1316.28,425.3179,1326.1279,425.4587,1320.8776,423.3527,1322.9836,418.1025,1316.28,425.3179" style="stroke:#333333;stroke-width:1;"/></g><!--link handle_rules_file to file_system--><g class="link" data-entity-1="handle_rules_file" data-entity-2="file_system" data-source-line="27" data-uid="lnk19" id="link_handle_rules_file_file_system"><path d="M1579.67,341.1479 C1588.31,376.6579 1598.78,442.2679 1574.45,490.4479 C1514.15,609.8879 1366.7666,681.2542 1297.2966,709.5542" fill="none" id="handle_rules_file-to-file_system" style="stroke:#333333;stroke-width:1;"/><polygon fill="#333333" points="1291.74,711.8179,1301.584,712.1269,1296.3705,709.9315,1298.5659,704.718,1291.74,711.8179" style="stroke:#333333;stroke-width:1;"/></g><!--link handle_rules_file to save_session--><g class="link" data-entity-1="handle_rules_file" data-entity-2="save_session" data-source-line="28" data-uid="lnk20" id="link_handle_rules_file_save_session"><path d="M1552.89,341.2179 C1534.3,365.3679 1510.149,396.7327 1491.589,420.8527" fill="none" id="handle_rules_file-to-save_session" style="stroke:#333333;stroke-width:1;"/><polygon fill="#333333" points="1487.93,425.6079,1496.5886,420.9145,1490.9792,421.6452,1490.2484,416.0358,1487.93,425.6079" style="stroke:#333333;stroke-width:1;"/></g><!--link handle_rules_file to subprocess_actor--><g class="link" data-entity-1="handle_rules_file" data-entity-2="subprocess_actor" data-source-line="29" data-uid="lnk22" id="link_handle_rules_file_subprocess_actor"><path d="M1599.91,341.2179 C1621.8,361.4679 1648.3863,386.0626 1673.1863,409.0126" fill="none" id="handle_rules_file-to-subprocess_actor" style="stroke:#333333;stroke-width:1;"/><polygon fill="#333333" points="1677.59,413.0879,1673.7012,404.0392,1673.9202,409.6918,1668.2676,409.9108,1677.59,413.0879" style="stroke:#333333;stroke-width:1;"/></g><!--link subprocess_actor to os_actor--><g class="link" data-entity-1="subprocess_actor" data-entity-2="os_actor" data-source-line="30" data-uid="lnk24" id="link_subprocess_actor_os_actor"><path d="M1718.45,490.8979 C1718.45,509.4679 1718.45,525.7579 1718.45,544.2979" fill="none" id="subprocess_actor-to-os_actor" style="stroke:#333333;stroke-width:1;"/><polygon fill="#333333" points="1718.45,550.2979,1722.45,541.2979,1718.45,545.2979,1714.45,541.2979,1718.45,550.2979" style="stroke:#333333;stroke-width:1;"/></g><!--link session_class to load_session--><g class="link" data-entity-1="session_class" data-entity-2="load_session" data-source-line="31" data-uid="lnk26" id="link_session_class_load_session"><path d="M1332.64,353.7979 C1314.64,376.7379 1295.8927,400.6266 1280.0427,420.8366" fill="none" id="session_class-to-load_session" style="stroke:#333333;stroke-width:1;"/><polygon fill="#333333" points="1276.34,425.5579,1285.0415,420.9445,1279.4256,421.6235,1278.7466,416.0075,1276.34,425.5579" style="stroke:#333333;stroke-width:1;"/></g><!--link session_class to save_session--><g class="link" data-entity-1="session_class" data-entity-2="save_session" data-source-line="32" data-uid="lnk27" id="link_session_class_save_session"><path d="M1392.26,353.7979 C1410.26,376.7379 1429.0059,400.6278 1444.8659,420.8378" fill="none" id="session_class-to-save_session" style="stroke:#333333;stroke-width:1;"/><polygon fill="#333333" points="1448.57,425.5579,1446.1605,416.0083,1445.4832,421.6244,1439.8671,420.9471,1448.57,425.5579" style="stroke:#333333;stroke-width:1;"/></g><!--link docs_sessions_dir to file_system--><g class="link" data-entity-1="docs_sessions_dir" data-entity-2="file_system" data-source-line="33" data-uid="lnk28" id="link_docs_sessions_dir_file_system"><path d="M1256.45,627.9879 C1256.45,646.5679 1256.45,662.8579 1256.45,681.3879" fill="none" id="docs_sessions_dir-to-file_system" style="stroke:#333333;stroke-width:1;"/><polygon fill="#333333" points="1256.45,687.3879,1260.45,678.3879,1256.45,682.3879,1252.45,678.3879,1256.45,687.3879" style="stroke:#333333;stroke-width:1;"/></g><!--link user_editor to handle_rules_file--><g class="link" data-entity-1="user_editor" data-entity-2="handle_rules_file" data-source-line="34" data-uid="lnk30" id="link_user_editor_handle_rules_file"><path d="M1572.45,212.8379 C1572.45,236.9479 1572.45,261.4579 1572.45,282.6079" fill="none" id="user_editor-to-handle_rules_file" style="stroke:#333333;stroke-width:1;"/><polygon fill="#333333" points="1572.45,288.6079,1576.45,279.6079,1572.45,283.6079,1568.45,279.6079,1572.45,288.6079" style="stroke:#333333;stroke-width:1;"/></g><!--SRC=[dLJ1RXen4BtlLqpJIuB4hf9AEQHI9GgR9XA1AkL6evMp7i32QwEnbuXVwQdVrY-fRPR4PA5DkqA0PzwyUJFUcNTsWHN2IZAX4hCKQiM8LV38okMSTAruNqjDyFuwF162uupLqbvhPKVCCVH8C1dvUqJwgGd-49x8ET8MFslYI0sY7vxNY4CY72gnmag4_jsWIxL40rtO_dB45GXbaHIJC9Fw2Kxreq5Q8p-3q-5uS7u5VSqHhcjLMg6LEKkIsc393C89K-L2qmam0wFn92zwe_xD-3vP21SG6vJJ1YJc2mjwjkS1w7I-wPfAlEfqO3hbkZJPawQbrsAozKKcA2ihdZrhJqid9zsmIiA_W1yU4bGSl98a8ImjKtFNafEAeR6aqyfTP_ZwhavZsrceplyhK5dQnB4BfhZ48cGgf30sZjMy4L1L3bPiiMIsVAt8exGp8V7_Q7raJ2iruuL1OzmjHeoDfN3CABSqCJ9cC6oDRsE8aSbByw3R_NIWzZy1GXMja83RanaVWjU_73k3ARYW8om-GM4sncALj3Atyno6_9rahoD78FNZYdJfC0KhhQRajI6WzBEtQNifcJ5jeMttdeHMUrfrk2cd0hdO9MvVotQk9SuEZdM-Tcj0XS7sPpVSw_Dijsioltdyh3Py_fYkQZVK1snkTjz6K75eMVO6_-WYygiolymlW_9VFtx24FaS2MvSFhEhODniHaYpj7dvmNKE_NLie3PiZcwPlaZOhbU_d3x2-W88LneirNRXiCwREbBtcKvJnvTcjtTVX_bTFfhq9hVZKJ7C1r_oUr_IGKVeoIxKCvCrcGoYYzBTbE3CkZtXmfjA-i_6k2E_0G00]--></g></svg>