<svg xmlns="http://www.w3.org/2000/svg" xmlns:xlink="http://www.w3.org/1999/xlink" contentStyleType="text/css" data-diagram-type="DESCRIPTION" height="611px" preserveAspectRatio="none" style="width:3320px;height:611px;background:#FFFFFF;" version="1.1" viewBox="0 0 3320 611" width="3320px" zoomAndPan="magnify"><title>CMD-resume - resume deep internal flow (observed) (LOD1: Code Functions)</title><defs/><g><g class="title" data-source-line="8"><text fill="#000000" font-family="Arial" font-size="22" font-weight="bold" lengthAdjust="spacing" textLength="804.3213" x="1253.519" y="35.6357">CMD-resume - resume deep internal flow (observed) (LOD1: Code Functions)</text></g><!--entity NOTE_ANCHOR--><!--entity main_entry--><g class="entity" data-entity="main_entry" data-source-line="16" data-uid="ent0006" id="entity_main_entry"><rect fill="#FFFFFF" height="52.1973" rx="2.5" ry="2.5" style="stroke:#000000;stroke-width:1;" width="132.8066" x="2182.71" y="150.7979"/><text fill="#000000" font-family="Arial" font-size="14" lengthAdjust="spacing" textLength="69.2549" x="2192.71" y="173.9297">main_entry</text><text fill="#000000" font-family="Arial" font-size="14" lengthAdjust="spacing" textLength="112.8066" x="2192.71" y="190.0283">(maestro/main.py)</text></g><!--entity handle_resume_session--><g class="entity" data-entity="handle_resume_session" data-source-line="17" data-uid="ent0007" id="entity_handle_resume_session"><rect fill="#FFFFFF" height="52.1973" rx="2.5" ry="2.5" style="stroke:#000000;stroke-width:1;" width="282.2266" x="2108" y="279.2679"/><text fill="#000000" font-family="Arial" font-size="14" lengthAdjust="spacing" textLength="151.7646" x="2118" y="302.3997">handle_resume_session</text><text fill="#000000" font-family="Arial" font-size="14" lengthAdjust="spacing" textLength="262.2266" x="2118" y="318.4983">(maestro/modules/command_handlers.py)</text></g><!--entity load_session--><g class="entity" data-entity="load_session" data-source-line="18" data-uid="ent0008" id="entity_load_session"><rect fill="#FFFFFF" height="52.1973" rx="2.5" ry="2.5" style="stroke:#000000;stroke-width:1;" width="282.2266" x="1280" y="403.9079"/><text fill="#000000" font-family="Arial" font-size="14" lengthAdjust="spacing" textLength="81.7236" x="1290" y="427.0397">load_session</text><text fill="#000000" font-family="Arial" font-size="14" lengthAdjust="spacing" textLength="262.2266" x="1290" y="443.1383">(maestro/modules/command_handlers.py)</text></g><!--entity save_session--><g class="entity" data-entity="save_session" data-source-line="19" data-uid="ent0009" id="entity_save_session"><rect fill="#FFFFFF" height="52.1973" rx="2.5" ry="2.5" style="stroke:#000000;stroke-width:1;" width="282.2266" x="2351" y="150.7979"/><text fill="#000000" font-family="Arial" font-size="14" lengthAdjust="spacing" textLength="84.8271" x="2361" y="173.9297">save_session</text><text fill="#000000" font-family="Arial" font-size="14" lengthAdjust="spacing" textLength="262.2266" x="2361" y="190.0283">(maestro/modules/command_handlers.py)</text></g><!--entity update_subtask_summary_paths--><g class="entity" data-entity="update_subtask_summary_paths" data-source-line="20" data-uid="ent0010" id="entity_update_subtask_summary_paths"><rect fill="#FFFFFF" height="52.1973" rx="2.5" ry="2.5" style="stroke:#000000;stroke-width:1;" width="282.2266" x="329" y="403.9079"/><text fill="#000000" font-family="Arial" font-size="14" lengthAdjust="spacing" textLength="206.2334" x="339" y="427.0397">update_subtask_summary_paths</text><text fill="#000000" font-family="Arial" font-size="14" lengthAdjust="spacing" textLength="262.2266" x="339" y="443.1383">(maestro/modules/command_handlers.py)</text></g><!--entity has_legacy_plan--><g class="entity" data-entity="has_legacy_plan" data-source-line="21" data-uid="ent0011" id="entity_has_legacy_plan"><rect fill="#FFFFFF" height="52.1973" rx="2.5" ry="2.5" style="stroke:#000000;stroke-width:1;" width="282.2266" x="646" y="403.9079"/><text fill="#000000" font-family="Arial" font-size="14" lengthAdjust="spacing" textLength="105.082" x="656" y="427.0397">has_legacy_plan</text><text fill="#000000" font-family="Arial" font-size="14" lengthAdjust="spacing" textLength="262.2266" x="656" y="443.1383">(maestro/modules/command_handlers.py)</text></g><!--entity migrate_session_if_needed--><g class="entity" data-entity="migrate_session_if_needed" data-source-line="22" data-uid="ent0012" id="entity_migrate_session_if_needed"><rect fill="#FFFFFF" height="52.1973" rx="2.5" ry="2.5" style="stroke:#000000;stroke-width:1;" width="282.2266" x="963" y="403.9079"/><text fill="#000000" font-family="Arial" font-size="14" lengthAdjust="spacing" textLength="171.2266" x="973" y="427.0397">migrate_session_if_needed</text><text fill="#000000" font-family="Arial" font-size="14" lengthAdjust="spacing" textLength="262.2266" x="973" y="443.1383">(maestro/modules/command_handlers.py)</text></g><!--entity load_rules--><g class="entity" data-entity="load_rules" data-source-line="23" data-uid="ent0013" id="entity_load_rules"><rect fill="#FFFFFF" height="52.1973" rx="2.5" ry="2.5" style="stroke:#000000;stroke-width:1;" width="282.2266" x="12" y="403.9079"/><text fill="#000000" font-family="Arial" font-size="14" lengthAdjust="spacing" textLength="64.5996" x="22" y="427.0397">load_rules</text><text fill="#000000" font-family="Arial" font-size="14" lengthAdjust="spacing" textLength="262.2266" x="22" y="443.1383">(maestro/modules/command_handlers.py)</text></g><!--entity get_maestro_dir--><g class="entity" data-entity="get_maestro_dir" data-source-line="24" data-uid="ent0014" id="entity_get_maestro_dir"><rect fill="#FFFFFF" height="52.1973" rx="2.5" ry="2.5" style="stroke:#000000;stroke-width:1;" width="282.2266" x="2928" y="403.9079"/><text fill="#000000" font-family="Arial" font-size="14" lengthAdjust="spacing" textLength="101.165" x="2938" y="427.0397">get_maestro_dir</text><text fill="#000000" font-family="Arial" font-size="14" lengthAdjust="spacing" textLength="262.2266" x="2938" y="443.1383">(maestro/modules/command_handlers.py)</text></g><!--entity build_prompt--><g class="entity" data-entity="build_prompt" data-source-line="25" data-uid="ent0015" id="entity_build_prompt"><rect fill="#FFFFFF" height="52.1973" rx="2.5" ry="2.5" style="stroke:#000000;stroke-width:1;" width="282.2266" x="1914" y="403.9079"/><text fill="#000000" font-family="Arial" font-size="14" lengthAdjust="spacing" textLength="80.9375" x="1924" y="427.0397">build_prompt</text><text fill="#000000" font-family="Arial" font-size="14" lengthAdjust="spacing" textLength="262.2266" x="1924" y="443.1383">(maestro/modules/command_handlers.py)</text></g><!--entity save_prompt_for_traceability--><g class="entity" data-entity="save_prompt_for_traceability" data-source-line="26" data-uid="ent0016" id="entity_save_prompt_for_traceability"><rect fill="#FFFFFF" height="52.1973" rx="2.5" ry="2.5" style="stroke:#000000;stroke-width:1;" width="282.2266" x="1597" y="403.9079"/><text fill="#000000" font-family="Arial" font-size="14" lengthAdjust="spacing" textLength="179.7578" x="1607" y="427.0397">save_prompt_for_traceability</text><text fill="#000000" font-family="Arial" font-size="14" lengthAdjust="spacing" textLength="262.2266" x="1607" y="443.1383">(maestro/modules/command_handlers.py)</text></g><!--entity save_ai_output--><g class="entity" data-entity="save_ai_output" data-source-line="27" data-uid="ent0017" id="entity_save_ai_output"><rect fill="#FFFFFF" height="52.1973" rx="2.5" ry="2.5" style="stroke:#000000;stroke-width:1;" width="282.2266" x="2302" y="403.9079"/><text fill="#000000" font-family="Arial" font-size="14" lengthAdjust="spacing" textLength="94.9648" x="2312" y="427.0397">save_ai_output</text><text fill="#000000" font-family="Arial" font-size="14" lengthAdjust="spacing" textLength="262.2266" x="2312" y="443.1383">(maestro/modules/command_handlers.py)</text></g><!--entity get_engine--><g class="entity" data-entity="get_engine" data-source-line="28" data-uid="ent0018" id="entity_get_engine"><rect fill="#FFFFFF" height="52.1973" rx="2.5" ry="2.5" style="stroke:#000000;stroke-width:1;" width="151.5029" x="2619.36" y="403.9079"/><text fill="#000000" font-family="Arial" font-size="14" lengthAdjust="spacing" textLength="69.2891" x="2629.36" y="427.0397">get_engine</text><text fill="#000000" font-family="Arial" font-size="14" lengthAdjust="spacing" textLength="131.5029" x="2629.36" y="443.1383">(maestro/engines.py)</text></g><!--entity docs_sessions_dir--><g class="entity" data-entity="docs_sessions_dir" data-source-line="31" data-uid="ent0021" id="entity_docs_sessions_dir"><ellipse cx="1421.1159" cy="537.5579" fill="#FFFFFF" rx="8" ry="8" style="stroke:#000000;stroke-width:1;"/><path d="M1421.1159,545.5579 L1421.1159,572.5579 M1408.1159,553.5579 L1434.1159,553.5579 M1421.1159,572.5579 L1408.1159,587.5579 M1421.1159,572.5579 L1434.1159,587.5579" fill="none" style="stroke:#000000;stroke-width:1;"/><text fill="#000000" font-family="Arial" font-size="14" lengthAdjust="spacing" textLength="115.1719" x="1363.53" y="602.6897">docs_sessions_dir</text></g><!--entity session_class--><g class="entity" data-entity="session_class" data-source-line="37" data-uid="ent0028" id="entity_session_class"><ellipse cx="2849.1157" cy="400.4579" fill="#FFFFFF" rx="8" ry="8" style="stroke:#000000;stroke-width:1;"/><path d="M2849.1157,408.4579 L2849.1157,435.4579 M2836.1157,416.4579 L2862.1157,416.4579 M2849.1157,435.4579 L2836.1157,450.4579 M2849.1157,435.4579 L2862.1157,450.4579" fill="none" style="stroke:#000000;stroke-width:1;"/><text fill="#000000" font-family="Arial" font-size="14" lengthAdjust="spacing" textLength="87.1514" x="2805.54" y="465.5897">session_class</text></g><!--entity file_system--><g class="entity" data-entity="file_system" data-source-line="39" data-uid="ent0031" id="entity_file_system"><ellipse cx="2659.1103" cy="537.5579" fill="#FFFFFF" rx="8" ry="8" style="stroke:#000000;stroke-width:1;"/><path d="M2659.1103,545.5579 L2659.1103,572.5579 M2646.1103,553.5579 L2672.1103,553.5579 M2659.1103,572.5579 L2646.1103,587.5579 M2659.1103,572.5579 L2672.1103,587.5579" fill="none" style="stroke:#000000;stroke-width:1;"/><text fill="#000000" font-family="Arial" font-size="14" lengthAdjust="spacing" textLength="70.0205" x="2624.1" y="602.6897">file_system</text></g><!--entity external_ai--><g class="entity" data-entity="external_ai" data-source-line="44" data-uid="ent0037" id="entity_external_ai"><ellipse cx="3279.1146" cy="400.4579" fill="#FFFFFF" rx="8" ry="8" style="stroke:#000000;stroke-width:1;"/><path d="M3279.1146,408.4579 L3279.1146,435.4579 M3266.1146,416.4579 L3292.1146,416.4579 M3279.1146,435.4579 L3266.1146,450.4579 M3279.1146,435.4579 L3292.1146,450.4579" fill="none" style="stroke:#000000;stroke-width:1;"/><text fill="#000000" font-family="Arial" font-size="14" lengthAdjust="spacing" textLength="68.4893" x="3244.87" y="465.5897">external_ai</text></g><!--link NOTE_ANCHOR to GMN3--><!--link main_entry to handle_resume_session--><g class="link" data-entity-1="main_entry" data-entity-2="handle_resume_session" data-source-line="29" data-uid="lnk19" id="link_main_entry_handle_resume_session"><path d="M2249.11,203.4879 C2249.11,225.4279 2249.11,250.8779 2249.11,272.8079" fill="none" id="main_entry-to-handle_resume_session" style="stroke:#333333;stroke-width:1;"/><polygon fill="#333333" points="2249.11,278.8079,2253.11,269.8079,2249.11,273.8079,2245.11,269.8079,2249.11,278.8079" style="stroke:#333333;stroke-width:1;"/></g><!--link handle_resume_session to load_session--><g class="link" data-entity-1="handle_resume_session" data-entity-2="load_session" data-source-line="30" data-uid="lnk20" id="link_handle_resume_session_load_session"><path d="M2107.6,319.8879 C1971.53,333.9479 1760.38,358.5079 1579.11,391.4579 C1560.39,394.8679 1546.3988,397.7492 1527.3488,402.1092" fill="none" id="handle_resume_session-to-load_session" style="stroke:#333333;stroke-width:1;"/><polygon fill="#333333" points="1521.5,403.4479,1531.1656,405.3391,1526.374,402.3323,1529.3807,397.5407,1521.5,403.4479" style="stroke:#333333;stroke-width:1;"/></g><!--link load_session to docs_sessions_dir--><g class="link" data-entity-1="load_session" data-entity-2="docs_sessions_dir" data-source-line="31" data-uid="lnk22" id="link_load_session_docs_sessions_dir"><path d="M1421.11,456.4179 C1421.11,476.6779 1421.11,499.3479 1421.11,522.2979" fill="none" id="load_session-to-docs_sessions_dir" style="stroke:#333333;stroke-width:1;"/><polygon fill="#333333" points="1421.11,528.2979,1425.11,519.2979,1421.11,523.2979,1417.11,519.2979,1421.11,528.2979" style="stroke:#333333;stroke-width:1;"/></g><!--link handle_resume_session to update_subtask_summary_paths--><g class="link" data-entity-1="handle_resume_session" data-entity-2="update_subtask_summary_paths" data-source-line="32" data-uid="lnk23" id="link_handle_resume_session_update_subtask_summary_paths"><path d="M2107.74,310.4979 C1767.78,320.9779 911.76,350.6579 628.11,391.4579 C607.6,394.4079 591.6895,397.4326 571.0995,402.1326" fill="none" id="handle_resume_session-to-update_subtask_summary_paths" style="stroke:#333333;stroke-width:1;"/><polygon fill="#333333" points="565.25,403.4679,574.9145,405.3647,570.1246,402.3551,573.1341,397.5653,565.25,403.4679" style="stroke:#333333;stroke-width:1;"/></g><!--link handle_resume_session to has_legacy_plan--><g class="link" data-entity-1="handle_resume_session" data-entity-2="has_legacy_plan" data-source-line="33" data-uid="lnk24" id="link_handle_resume_session_has_legacy_plan"><path d="M2107.9,307.8179 C1867.73,312.0279 1364.93,328.3379 945.11,391.4579 C924.9,394.4979 909.3091,397.4907 888.9691,402.1407" fill="none" id="handle_resume_session-to-has_legacy_plan" style="stroke:#333333;stroke-width:1;"/><polygon fill="#333333" points="883.12,403.4779,892.7851,405.3715,887.9942,402.3635,891.0022,397.5727,883.12,403.4779" style="stroke:#333333;stroke-width:1;"/></g><!--link handle_resume_session to migrate_session_if_needed--><g class="link" data-entity-1="handle_resume_session" data-entity-2="migrate_session_if_needed" data-source-line="34" data-uid="lnk25" id="link_handle_resume_session_migrate_session_if_needed"><path d="M2107.75,311.9979 C1915.41,321.1579 1560.97,343.3379 1262.11,391.4579 C1242.49,394.6179 1227.5395,397.5523 1207.6995,402.0823" fill="none" id="handle_resume_session-to-migrate_session_if_needed" style="stroke:#333333;stroke-width:1;"/><polygon fill="#333333" points="1201.85,403.4179,1211.5146,405.3141,1206.7246,402.3049,1209.7338,397.5148,1201.85,403.4179" style="stroke:#333333;stroke-width:1;"/></g><!--link handle_resume_session to load_rules--><g class="link" data-entity-1="handle_resume_session" data-entity-2="load_rules" data-source-line="35" data-uid="lnk26" id="link_handle_resume_session_load_rules"><path d="M2107.55,309.0979 C1721.86,317.1079 658.22,343.0379 311.11,391.4579 C290.45,394.3479 274.3795,397.3625 253.6595,402.0925" fill="none" id="handle_resume_session-to-load_rules" style="stroke:#333333;stroke-width:1;"/><polygon fill="#333333" points="247.81,403.4279,257.4745,405.3245,252.6846,402.3151,255.6941,397.5252,247.81,403.4279" style="stroke:#333333;stroke-width:1;"/></g><!--link load_rules to docs_sessions_dir--><g class="link" data-entity-1="load_rules" data-entity-2="docs_sessions_dir" data-source-line="36" data-uid="lnk27" id="link_load_rules_docs_sessions_dir"><path d="M250.86,456.5779 C270.69,461.1079 291.49,465.3779 311.11,468.5579 C710.47,533.2079 1192.0849,557.0858 1357.2649,563.7558" fill="none" id="load_rules-to-docs_sessions_dir" style="stroke:#333333;stroke-width:1;"/><polygon fill="#333333" points="1363.26,563.9979,1354.4287,559.638,1358.2641,563.7961,1354.1059,567.6315,1363.26,563.9979" style="stroke:#333333;stroke-width:1;"/></g><!--link handle_resume_session to session_class--><g class="link" data-entity-1="handle_resume_session" data-entity-2="session_class" data-source-line="37" data-uid="lnk29" id="link_handle_resume_session_session_class"><path d="M2390.71,314.7179 C2497.75,324.4779 2646.66,345.6279 2770.61,391.4579 C2782.28,395.7779 2788.9614,399.4177 2800.1214,405.9477" fill="none" id="handle_resume_session-to-session_class" style="stroke:#333333;stroke-width:1;"/><polygon fill="#333333" points="2805.3,408.9779,2799.5522,400.9802,2800.9845,406.4527,2795.512,407.885,2805.3,408.9779" style="stroke:#333333;stroke-width:1;"/></g><!--link handle_resume_session to session_class--><g class="link" data-entity-1="handle_resume_session" data-entity-2="session_class" data-source-line="48" data-uid="lnk42" id="link_handle_resume_session_session_class"><path d="M2390.67,312.3579 C2505.75,320.8779 2664.6014,339.3997 2799.5914,389.2397" fill="none" id="handle_resume_session-to-session_class-1" style="stroke:#333333;stroke-width:1;"/><polygon fill="#333333" points="2805.22,391.3179,2798.1625,384.4482,2800.5295,389.5861,2795.3916,391.953,2805.22,391.3179" style="stroke:#333333;stroke-width:1;"/></g><!--link handle_resume_session to get_maestro_dir--><g class="link" data-entity-1="handle_resume_session" data-entity-2="get_maestro_dir" data-source-line="38" data-uid="lnk30" id="link_handle_resume_session_get_maestro_dir"><path d="M2390.64,320.2779 C2524.93,334.4979 2732.1,359.0779 2910.11,391.4579 C2928.95,394.8879 2943.0601,397.7843 2962.2301,402.1543" fill="none" id="handle_resume_session-to-get_maestro_dir" style="stroke:#333333;stroke-width:1;"/><polygon fill="#333333" points="2968.08,403.4879,2960.1941,397.5876,2963.2051,402.3766,2958.4161,405.3875,2968.08,403.4879" style="stroke:#333333;stroke-width:1;"/></g><!--link get_maestro_dir to file_system--><g class="link" data-entity-1="get_maestro_dir" data-entity-2="file_system" data-source-line="39" data-uid="lnk32" id="link_get_maestro_dir_file_system"><path d="M2991.51,456.5779 C2902.48,485.9179 2766.0387,530.8805 2700.2887,552.5405" fill="none" id="get_maestro_dir-to-file_system" style="stroke:#333333;stroke-width:1;"/><polygon fill="#333333" points="2694.59,554.4179,2704.3897,555.401,2699.3389,552.8534,2701.8866,547.8027,2694.59,554.4179" style="stroke:#333333;stroke-width:1;"/></g><!--link handle_resume_session to build_prompt--><g class="link" data-entity-1="handle_resume_session" data-entity-2="build_prompt" data-source-line="40" data-uid="lnk33" id="link_handle_resume_session_build_prompt"><path d="M2208.92,331.7779 C2175.73,352.7579 2133.9213,379.1813 2100.6613,400.2113" fill="none" id="handle_resume_session-to-build_prompt" style="stroke:#333333;stroke-width:1;"/><polygon fill="#333333" points="2095.59,403.4179,2105.3346,401.9889,2099.8161,400.7457,2101.0593,395.2272,2095.59,403.4179" style="stroke:#333333;stroke-width:1;"/></g><!--link handle_resume_session to get_engine--><g class="link" data-entity-1="handle_resume_session" data-entity-2="get_engine" data-source-line="41" data-uid="lnk34" id="link_handle_resume_session_get_engine"><path d="M2374.51,331.8779 C2442.53,346.8879 2527.67,367.6079 2602.11,391.4579 C2613.06,394.9679 2618.9505,396.9768 2629.9705,401.2768" fill="none" id="handle_resume_session-to-get_engine" style="stroke:#333333;stroke-width:1;"/><polygon fill="#333333" points="2635.56,403.4579,2628.6297,396.4599,2630.902,401.6403,2625.7216,403.9127,2635.56,403.4579" style="stroke:#333333;stroke-width:1;"/></g><!--link handle_resume_session to save_prompt_for_traceability--><g class="link" data-entity-1="handle_resume_session" data-entity-2="save_prompt_for_traceability" data-source-line="42" data-uid="lnk35" id="link_handle_resume_session_save_prompt_for_traceability"><path d="M2142.61,331.9279 C2055.16,352.9179 1937.7343,381.0977 1850.3143,402.0777" fill="none" id="handle_resume_session-to-save_prompt_for_traceability" style="stroke:#333333;stroke-width:1;"/><polygon fill="#333333" points="1844.48,403.4779,1854.165,405.2671,1849.3419,402.311,1852.298,397.488,1844.48,403.4779" style="stroke:#333333;stroke-width:1;"/></g><!--link save_prompt_for_traceability to docs_sessions_dir--><g class="link" data-entity-1="save_prompt_for_traceability" data-entity-2="docs_sessions_dir" data-source-line="43" data-uid="lnk36" id="link_save_prompt_for_traceability_docs_sessions_dir"><path d="M1678.12,456.5779 C1620.95,480.9479 1540.9697,515.0257 1484.5097,539.0857" fill="none" id="save_prompt_for_traceability-to-docs_sessions_dir" style="stroke:#333333;stroke-width:1;"/><polygon fill="#333333" points="1478.99,541.4379,1488.8377,541.5894,1483.5898,539.4777,1485.7014,534.2298,1478.99,541.4379" style="stroke:#333333;stroke-width:1;"/></g><!--link handle_resume_session to external_ai--><g class="link" data-entity-1="handle_resume_session" data-entity-2="external_ai" data-source-line="44" data-uid="lnk38" id="link_handle_resume_session_external_ai"><path d="M2390.62,309.5879 C2620.45,316.2579 3063.46,335.9579 3210.61,391.4579 C3222.44,395.9279 3229.0307,400.5084 3239.6907,407.9984" fill="none" id="handle_resume_session-to-external_ai" style="stroke:#333333;stroke-width:1;"/><polygon fill="#333333" points="3244.6,411.4479,3239.5356,403.0008,3240.5089,408.5733,3234.9364,409.5466,3244.6,411.4479" style="stroke:#333333;stroke-width:1;"/></g><!--link external_ai to handle_resume_session--><g class="link" data-entity-1="external_ai" data-entity-2="handle_resume_session" data-source-line="45" data-uid="lnk39" id="link_external_ai_handle_resume_session"><path d="M3244.72,391.1279 C3092.05,334.1479 2633.068,315.2114 2396.408,309.1514" fill="none" id="external_ai-to-handle_resume_session" style="stroke:#333333;stroke-width:1;"/><polygon fill="#333333" points="2390.41,308.9979,2399.3047,313.2269,2395.4084,309.1258,2399.5094,305.2295,2390.41,308.9979" style="stroke:#333333;stroke-width:1;"/></g><!--link handle_resume_session to save_ai_output--><g class="link" data-entity-1="handle_resume_session" data-entity-2="save_ai_output" data-source-line="46" data-uid="lnk40" id="link_handle_resume_session_save_ai_output"><path d="M2289.31,331.7779 C2322.49,352.7579 2364.2987,379.1813 2397.5587,400.2113" fill="none" id="handle_resume_session-to-save_ai_output" style="stroke:#333333;stroke-width:1;"/><polygon fill="#333333" points="2402.63,403.4179,2397.1607,395.2272,2398.4039,400.7457,2392.8854,401.9889,2402.63,403.4179" style="stroke:#333333;stroke-width:1;"/></g><!--link handle_resume_session to file_system--><g class="link" data-entity-1="handle_resume_session" data-entity-2="file_system" data-source-line="47" data-uid="lnk41" id="link_handle_resume_session_file_system"><path d="M2247.01,331.7479 C2245.55,367.2279 2248.52,431.4479 2284.11,468.5579 C2331.37,517.8379 2533.5337,549.5072 2617.6837,560.8372" fill="none" id="handle_resume_session-to-file_system" style="stroke:#333333;stroke-width:1;"/><polygon fill="#333333" points="2623.63,561.6379,2615.2442,556.4727,2618.6747,560.9707,2614.1767,564.4012,2623.63,561.6379" style="stroke:#333333;stroke-width:1;"/></g><!--SRC=[dLRTRjem5BxFKtZTJOi4KJkf5vqqYK6wTg8mjRrZbMNYGx1mxCXsOBpAhlPiUvBP2HG7IDOqGY8-Fz_vyR7pVJ0BI05bd30Hw2KJ6L4aHJCIBnCbSq47aak5FjuMZsT1OKvoRcwbC6DY4VgA4Uxf-qh9zTRvK_5uoh4qy5Kg2cfhCIYUGujJILYhm3330GqUXbq5EhV1ksZxGW4on8G19GX7SoxNw5pEDAWLq0jqFfeCBs_GG590jxc83PD2NmH1hY4c6j0P4V52gZD4D1fFdYFS7m_k9e_1Wba7No1iTaYnP66Gd5Sq27KwJp9NCTnqEcWwfJBMuLggfSj5XwkhaAamJccupxuNstnw6v9orChwvIK0GP7B9GWKn8Q8nBRbBBLRYK4OjVafpbC2sYWPEc4lsrmKjUqjVBy54PG3BiDW3LhRzlWGakOST1ZBDBMckBHN-XNs980VWKj2tmFi-_bucgpUbQZlv-Fb6IN6QlAP8Nff_ws_sk2Cc8LkWz-4K-sunXmI4biT9orxNN6jx3zBL16-B12pEHO056WR_5gGe_rK3gZrRXPUFbO21cyXC6Mg3U21guywoncdE5CopKmRID_lQE9ACPvBXOqYCP0PuyniMazW3SvHFCAmp4sMczOHNZqFEmqYOG8yl59GxMaf2_Qt1UfslzISyfFImhvoUFr5eNKttawWYzshHseyLlLkXqUbth9-wFzJNZdD-zVMfUqYnfpefbeEH_rWNTZCcVNL6sqWRK2gJ7XpmEqSD6JVDCrDojPzWb_bfzrETk2zlsim3qv8lU7R6bhTmf8YS9YVP0ZHoZ8AKN04jxOyONKPxcXBw4YC- -hlehXrByijFpWbj3JWZH0fHSUY2ekevJMEUqNNqNMH_T_VVz08Q08AtTc8UbV5P4kqq90Oya3KaigrG9czbPZjdItNCZClWvAiEQRp6QskB8FB938gDmja-PX6tvyigFrDfxrUQ7_t3pz6qKCqVku_tq_6U1GDlqMFhgQJYg8hErS7hOmEUP4qZkqUCdULQEU-hMJmAlGxyWy0]--></g></svg>