<svg xmlns="http://www.w3.org/2000/svg" xmlns:xlink="http://www.w3.org/1999/xlink" contentStyleType="text/css" data-diagram-type="DESCRIPTION" height="1280px" preserveAspectRatio="none" style="width:1172px;height:1280px;background:#FFFFFF;" version="1.1" viewBox="0 0 1172 1280" width="1172px" zoomAndPan="magnify"><title>CMD-settings - settings command surface (LOD1: CLI Flow)</title><defs/><g><g class="title" data-source-line="8"><text fill="#000000" font-family="Arial" font-size="22" font-weight="bold" lengthAdjust="spacing" textLength="624.6045" x="269.5552" y="35.6357">CMD-settings - settings command surface (LOD1: CLI Flow)</text></g><!--entity NOTE_ANCHOR--><!--entity cmd_settings_entry--><g class="entity" data-entity="cmd_settings_entry" data-source-line="16" data-uid="ent0006" id="entity_cmd_settings_entry"><rect fill="#FFFFFF" height="36.0986" rx="2.5" ry="2.5" style="stroke:#000000;stroke-width:1;" width="202.8682" x="839.44" y="74.1479"/><text fill="#000000" font-family="Arial" font-size="14" lengthAdjust="spacing" textLength="182.8682" x="849.44" y="97.2797">settings command entry point</text></g><!--entity parse_args--><g class="entity" data-entity="parse_args" data-source-line="17" data-uid="ent0007" id="entity_parse_args"><rect fill="#FFFFFF" height="46.0986" rx="2.5" ry="2.5" style="stroke:#000000;stroke-width:1;" width="236.0957" x="822.82" y="187.0879"/><rect fill="#FFFFFF" height="10" style="stroke:#000000;stroke-width:1;" width="15" x="1038.9157" y="192.0879"/><rect fill="#FFFFFF" height="2" style="stroke:#000000;stroke-width:1;" width="4" x="1036.9157" y="194.0879"/><rect fill="#FFFFFF" height="2" style="stroke:#000000;stroke-width:1;" width="4" x="1036.9157" y="198.0879"/><text fill="#000000" font-family="Arial" font-size="14" lengthAdjust="spacing" textLength="196.0957" x="837.82" y="220.2197">parse command line arguments</text></g><!--entity determine_settings_cmd--><g class="entity" data-entity="determine_settings_cmd" data-source-line="18" data-uid="ent0008" id="entity_determine_settings_cmd"><rect fill="#FFFFFF" height="46.0986" rx="2.5" ry="2.5" style="stroke:#000000;stroke-width:1;" width="239.0967" x="821.32" y="293.1879"/><rect fill="#FFFFFF" height="10" style="stroke:#000000;stroke-width:1;" width="15" x="1040.4167" y="298.1879"/><rect fill="#FFFFFF" height="2" style="stroke:#000000;stroke-width:1;" width="4" x="1038.4167" y="300.1879"/><rect fill="#FFFFFF" height="2" style="stroke:#000000;stroke-width:1;" width="4" x="1038.4167" y="304.1879"/><text fill="#000000" font-family="Arial" font-size="14" lengthAdjust="spacing" textLength="199.0967" x="836.32" y="326.3197">determine command is 'settings'</text></g><!--entity check_session--><g class="entity" data-entity="check_session" data-source-line="19" data-uid="ent0009" id="entity_check_session"><rect fill="#FFFFFF" height="46.0986" rx="2.5" ry="2.5" style="stroke:#000000;stroke-width:1;" width="210.4131" x="835.67" y="399.2879"/><rect fill="#FFFFFF" height="10" style="stroke:#000000;stroke-width:1;" width="15" x="1026.0831" y="404.2879"/><rect fill="#FFFFFF" height="2" style="stroke:#000000;stroke-width:1;" width="4" x="1024.0831" y="406.2879"/><rect fill="#FFFFFF" height="2" style="stroke:#000000;stroke-width:1;" width="4" x="1024.0831" y="410.2879"/><text fill="#000000" font-family="Arial" font-size="14" lengthAdjust="spacing" textLength="170.4131" x="850.67" y="432.4197">check if session is provided</text></g><!--entity load_session--><g class="entity" data-entity="load_session" data-source-line="20" data-uid="ent0010" id="entity_load_session"><rect fill="#FFFFFF" height="46.0986" rx="2.5" ry="2.5" style="stroke:#000000;stroke-width:1;" width="117.8271" x="775.96" y="505.3879"/><rect fill="#FFFFFF" height="10" style="stroke:#000000;stroke-width:1;" width="15" x="873.7871" y="510.3879"/><rect fill="#FFFFFF" height="2" style="stroke:#000000;stroke-width:1;" width="4" x="871.7871" y="512.3879"/><rect fill="#FFFFFF" height="2" style="stroke:#000000;stroke-width:1;" width="4" x="871.7871" y="516.3879"/><text fill="#000000" font-family="Arial" font-size="14" lengthAdjust="spacing" textLength="77.8271" x="790.96" y="538.5197">load session</text></g><!--entity validate_session--><g class="entity" data-entity="validate_session" data-source-line="21" data-uid="ent0011" id="entity_validate_session"><rect fill="#FFFFFF" height="46.0986" rx="2.5" ry="2.5" style="stroke:#000000;stroke-width:1;" width="192.5234" x="738.61" y="611.4879"/><rect fill="#FFFFFF" height="10" style="stroke:#000000;stroke-width:1;" width="15" x="911.1334" y="616.4879"/><rect fill="#FFFFFF" height="2" style="stroke:#000000;stroke-width:1;" width="4" x="909.1334" y="618.4879"/><rect fill="#FFFFFF" height="2" style="stroke:#000000;stroke-width:1;" width="4" x="909.1334" y="622.4879"/><text fill="#000000" font-family="Arial" font-size="14" lengthAdjust="spacing" textLength="152.5234" x="753.61" y="644.6197">validate session schema</text></g><!--entity route_settings_handler--><g class="entity" data-entity="route_settings_handler" data-source-line="22" data-uid="ent0012" id="entity_route_settings_handler"><rect fill="#FFFFFF" height="46.0986" rx="2.5" ry="2.5" style="stroke:#000000;stroke-width:1;" width="190.2061" x="739.77" y="717.5879"/><rect fill="#FFFFFF" height="10" style="stroke:#000000;stroke-width:1;" width="15" x="909.9761" y="722.5879"/><rect fill="#FFFFFF" height="2" style="stroke:#000000;stroke-width:1;" width="4" x="907.9761" y="724.5879"/><rect fill="#FFFFFF" height="2" style="stroke:#000000;stroke-width:1;" width="4" x="907.9761" y="728.5879"/><text fill="#000000" font-family="Arial" font-size="14" lengthAdjust="spacing" textLength="150.2061" x="754.77" y="750.7197">route to settings handler</text></g><!--entity read_config--><g class="entity" data-entity="read_config" data-source-line="23" data-uid="ent0013" id="entity_read_config"><rect fill="#FFFFFF" height="46.0986" rx="2.5" ry="2.5" style="stroke:#000000;stroke-width:1;" width="180.8613" x="744.44" y="823.6879"/><rect fill="#FFFFFF" height="10" style="stroke:#000000;stroke-width:1;" width="15" x="905.3013" y="828.6879"/><rect fill="#FFFFFF" height="2" style="stroke:#000000;stroke-width:1;" width="4" x="903.3013" y="830.6879"/><rect fill="#FFFFFF" height="2" style="stroke:#000000;stroke-width:1;" width="4" x="903.3013" y="834.6879"/><text fill="#000000" font-family="Arial" font-size="14" lengthAdjust="spacing" textLength="140.8613" x="759.44" y="856.8197">read configuration files</text></g><!--entity process_settings_op--><g class="entity" data-entity="process_settings_op" data-source-line="24" data-uid="ent0014" id="entity_process_settings_op"><rect fill="#FFFFFF" height="46.0986" rx="2.5" ry="2.5" style="stroke:#000000;stroke-width:1;" width="203.4268" x="733.16" y="929.7879"/><rect fill="#FFFFFF" height="10" style="stroke:#000000;stroke-width:1;" width="15" x="916.5868" y="934.7879"/><rect fill="#FFFFFF" height="2" style="stroke:#000000;stroke-width:1;" width="4" x="914.5868" y="936.7879"/><rect fill="#FFFFFF" height="2" style="stroke:#000000;stroke-width:1;" width="4" x="914.5868" y="940.7879"/><text fill="#000000" font-family="Arial" font-size="14" lengthAdjust="spacing" textLength="163.4268" x="748.16" y="962.9197">process settings operation</text></g><!--entity write_config--><g class="entity" data-entity="write_config" data-source-line="25" data-uid="ent0015" id="entity_write_config"><rect fill="#FFFFFF" height="46.0986" rx="2.5" ry="2.5" style="stroke:#000000;stroke-width:1;" width="207.3232" x="731.21" y="1035.8779"/><rect fill="#FFFFFF" height="10" style="stroke:#000000;stroke-width:1;" width="15" x="918.5332" y="1040.8779"/><rect fill="#FFFFFF" height="2" style="stroke:#000000;stroke-width:1;" width="4" x="916.5332" y="1042.8779"/><rect fill="#FFFFFF" height="2" style="stroke:#000000;stroke-width:1;" width="4" x="916.5332" y="1046.8779"/><text fill="#000000" font-family="Arial" font-size="14" lengthAdjust="spacing" textLength="167.3232" x="746.21" y="1069.0097">write configuration updates</text></g><!--entity output_results--><g class="entity" data-entity="output_results" data-source-line="26" data-uid="ent0016" id="entity_output_results"><rect fill="#FFFFFF" height="36.0986" rx="2.5" ry="2.5" style="stroke:#000000;stroke-width:1;" width="161.6406" x="754.05" y="1141.9779"/><text fill="#000000" font-family="Arial" font-size="14" lengthAdjust="spacing" textLength="141.6406" x="764.05" y="1165.1097">output results to stdout</text></g><!--entity exit_ok--><g class="entity" data-entity="exit_ok" data-source-line="27" data-uid="ent0017" id="entity_exit_ok"><rect fill="#FFFFFF" height="36.0986" rx="2.5" ry="2.5" style="stroke:#000000;stroke-width:1;" width="159.2822" x="755.23" y="1238.0779"/><text fill="#000000" font-family="Arial" font-size="14" lengthAdjust="spacing" textLength="139.2822" x="765.23" y="1261.2097">exit with success code</text></g><!--entity hard_stop_no_session--><g class="entity" data-entity="hard_stop_no_session" data-source-line="28" data-uid="ent0018" id="entity_hard_stop_no_session"><rect fill="#FFFFFF" height="46.0986" rx="2.5" ry="2.5" style="stroke:#000000;stroke-width:1;" width="237.6748" x="929.04" y="505.3879"/><rect fill="#FFFFFF" height="10" style="stroke:#000000;stroke-width:1;" width="15" x="1146.7148" y="510.3879"/><rect fill="#FFFFFF" height="2" style="stroke:#000000;stroke-width:1;" width="4" x="1144.7148" y="512.3879"/><rect fill="#FFFFFF" height="2" style="stroke:#000000;stroke-width:1;" width="4" x="1144.7148" y="516.3879"/><text fill="#000000" font-family="Arial" font-size="14" lengthAdjust="spacing" textLength="197.6748" x="944.04" y="538.5197">hard stop if no session provided</text></g><!--link cmd_settings_entry to parse_args--><g class="link" data-entity-1="cmd_settings_entry" data-entity-2="parse_args" data-source-line="29" data-uid="lnk19" id="link_cmd_settings_entry_parse_args"><path d="M940.87,110.5579 C940.87,130.8979 940.87,158.6479 940.87,180.8879" fill="none" id="cmd_settings_entry-to-parse_args" style="stroke:#333333;stroke-width:1;"/><polygon fill="#333333" points="940.87,186.8879,944.87,177.8879,940.87,181.8879,936.87,177.8879,940.87,186.8879" style="stroke:#333333;stroke-width:1;"/></g><!--link parse_args to determine_settings_cmd--><g class="link" data-entity-1="parse_args" data-entity-2="determine_settings_cmd" data-source-line="30" data-uid="lnk20" id="link_parse_args_determine_settings_cmd"><path d="M940.87,233.4779 C940.87,251.0379 940.87,269.3879 940.87,286.9479" fill="none" id="parse_args-to-determine_settings_cmd" style="stroke:#333333;stroke-width:1;"/><polygon fill="#333333" points="940.87,292.9479,944.87,283.9479,940.87,287.9479,936.87,283.9479,940.87,292.9479" style="stroke:#333333;stroke-width:1;"/></g><!--link determine_settings_cmd to check_session--><g class="link" data-entity-1="determine_settings_cmd" data-entity-2="check_session" data-source-line="31" data-uid="lnk21" id="link_determine_settings_cmd_check_session"><path d="M940.87,339.5679 C940.87,357.1379 940.87,375.4879 940.87,393.0479" fill="none" id="determine_settings_cmd-to-check_session" style="stroke:#333333;stroke-width:1;"/><polygon fill="#333333" points="940.87,399.0479,944.87,390.0479,940.87,394.0479,936.87,390.0479,940.87,399.0479" style="stroke:#333333;stroke-width:1;"/></g><!--link check_session to load_session--><g class="link" data-entity-1="check_session" data-entity-2="load_session" data-source-line="32" data-uid="lnk22" id="link_check_session_load_session"><path d="M918.13,445.6679 C900.25,463.2379 879.7308,483.3837 861.8508,500.9437" fill="none" id="check_session-to-load_session" style="stroke:#333333;stroke-width:1;"/><polygon fill="#333333" points="857.57,505.1479,866.7939,501.6955,861.1373,501.6444,861.1884,495.9878,857.57,505.1479" style="stroke:#333333;stroke-width:1;"/></g><!--link check_session to hard_stop_no_session--><g class="link" data-entity-1="check_session" data-entity-2="hard_stop_no_session" data-source-line="33" data-uid="lnk23" id="link_check_session_hard_stop_no_session"><path d="M963.83,445.6679 C981.88,463.2379 1002.6094,483.404 1020.6594,500.964" fill="none" id="check_session-to-hard_stop_no_session" style="stroke:#333333;stroke-width:1;"/><polygon fill="#333333" points="1024.96,505.1479,1021.2983,496.005,1021.3762,501.6613,1015.7198,501.7391,1024.96,505.1479" style="stroke:#333333;stroke-width:1;"/></g><!--link load_session to validate_session--><g class="link" data-entity-1="load_session" data-entity-2="validate_session" data-source-line="34" data-uid="lnk24" id="link_load_session_validate_session"><path d="M834.87,551.7679 C834.87,569.3379 834.87,587.6879 834.87,605.2379" fill="none" id="load_session-to-validate_session" style="stroke:#333333;stroke-width:1;"/><polygon fill="#333333" points="834.87,611.2379,838.87,602.2379,834.87,606.2379,830.87,602.2379,834.87,611.2379" style="stroke:#333333;stroke-width:1;"/></g><!--link validate_session to route_settings_handler--><g class="link" data-entity-1="validate_session" data-entity-2="route_settings_handler" data-source-line="35" data-uid="lnk25" id="link_validate_session_route_settings_handler"><path d="M834.87,657.8679 C834.87,675.4279 834.87,693.7879 834.87,711.3379" fill="none" id="validate_session-to-route_settings_handler" style="stroke:#333333;stroke-width:1;"/><polygon fill="#333333" points="834.87,717.3379,838.87,708.3379,834.87,712.3379,830.87,708.3379,834.87,717.3379" style="stroke:#333333;stroke-width:1;"/></g><!--link route_settings_handler to read_config--><g class="link" data-entity-1="route_settings_handler" data-entity-2="read_config" data-source-line="36" data-uid="lnk26" id="link_route_settings_handler_read_config"><path d="M834.87,763.9679 C834.87,781.5279 834.87,799.8879 834.87,817.4379" fill="none" id="route_settings_handler-to-read_config" style="stroke:#333333;stroke-width:1;"/><polygon fill="#333333" points="834.87,823.4379,838.87,814.4379,834.87,818.4379,830.87,814.4379,834.87,823.4379" style="stroke:#333333;stroke-width:1;"/></g><!--link read_config to process_settings_op--><g class="link" data-entity-1="read_config" data-entity-2="process_settings_op" data-source-line="37" data-uid="lnk27" id="link_read_config_process_settings_op"><path d="M834.87,870.0679 C834.87,887.6279 834.87,905.9879 834.87,923.5379" fill="none" id="read_config-to-process_settings_op" style="stroke:#333333;stroke-width:1;"/><polygon fill="#333333" points="834.87,929.5379,838.87,920.5379,834.87,924.5379,830.87,920.5379,834.87,929.5379" style="stroke:#333333;stroke-width:1;"/></g><!--link process_settings_op to write_config--><g class="link" data-entity-1="process_settings_op" data-entity-2="write_config" data-source-line="38" data-uid="lnk28" id="link_process_settings_op_write_config"><path d="M834.87,976.1679 C834.87,993.7279 834.87,1012.0779 834.87,1029.6379" fill="none" id="process_settings_op-to-write_config" style="stroke:#333333;stroke-width:1;"/><polygon fill="#333333" points="834.87,1035.6379,838.87,1026.6379,834.87,1030.6379,830.87,1026.6379,834.87,1035.6379" style="stroke:#333333;stroke-width:1;"/></g><!--link write_config to output_results--><g class="link" data-entity-1="write_config" data-entity-2="output_results" data-source-line="39" data-uid="lnk29" id="link_write_config_output_results"><path d="M834.87,1082.4179 C834.87,1100.3479 834.87,1119.0979 834.87,1135.5679" fill="none" id="write_config-to-output_results" style="stroke:#333333;stroke-width:1;"/><polygon fill="#333333" points="834.87,1141.5679,838.87,1132.5679,834.87,1136.5679,830.87,1132.5679,834.87,1141.5679" style="stroke:#333333;stroke-width:1;"/></g><!--link output_results to exit_ok--><g class="link" data-entity-1="output_results" data-entity-2="exit_ok" data-source-line="40" data-uid="lnk30" id="link_output_results_exit_ok"><path d="M834.87,1178.2879 C834.87,1195.1579 834.87,1214.7179 834.87,1231.6579" fill="none" id="output_results-to-exit_ok" style="stroke:#333333;stroke-width:1;"/><polygon fill="#333333" points="834.87,1237.6579,838.87,1228.6579,834.87,1232.6579,830.87,1228.6579,834.87,1237.6579" style="stroke:#333333;stroke-width:1;"/></g><!--SRC=[bLLDRzim3BtxLt3PeLk0DEXsws50bxPOWJOTrkrK58OcoROGMJGaELd__IWvZkN4FTGdcUyzVeWq_S5NifRGQAPCvZRADCoo6luolYajjaQiKAE5ZxVnIHX25gpL_XQDNpFoS6KLqmb-PItkzkAlyKd0DNhv7QsGTizOnUUOCPK4iJAll9QmUhXUEEczCgM31HoE7EkQ6G6kjGNZ4ZxTFrvVNCBg_WvkDUu-Prdh96TEmemPNg6T0NEmVlnzar-jLpyUVsML4d9aC9GDM5LM7h0O8G3p-HEsbilB-HoUdmLojzoXtHGKoYstNvRABdajbccsvrohyrTMQtWV_UKbarHOo2RBhEIUcP8kOdPIkZJUlaA3olXO77dCUr8UmOoe3Hewmunkd2wZrsfb931RjZM1BieZ8IURIsL2UcdhmEwboi5P7-OiAW-S8JpbadhXbUGRK0Nrppc59ZXfB6wf1QBBFH3oFPegDJBHgo8p6AQ8MwQLODJ1FeGZdpMBcXwRqj7eaSZZC5eLLQbbDp0H7ShQGoEzf0GvcaALhMK-H2wKbjsT1Z3lm54lB7BAP0Y9ZUoqNISwU0YBJQhUMUNbKSYs2VLrGIFUHqq6Y4ffMayvEVgaNIpP2p96KGVcUp2LoN_AmqxvYhur7jFcA6GK1IZ7JPfSnIprosCJkctmq8rHjmCf3wJSuD2Ja_65nU9REfR3CI9lZDsqEIgEfYnzY_XujaxWoRHJJMIT3Dkn8RBU6AnfSwT8PYavTvSqCJ4JjiWTZKVw4j6ZEHY_HaRVz6vVQbbChikRq6qJ5sPuFrsQDPFEMrpkrufR7XPXymftTQDbM4tTT6DnilXfIqwwtLxq7W-5drFt7vZT2DoPi8lRmN51FvntU1vIR6cj_zJC-3yFzo0KAyFlRCeR176wqly3]--></g></svg>