<svg xmlns="http://www.w3.org/2000/svg" xmlns:xlink="http://www.w3.org/1999/xlink" contentStyleType="text/css" data-diagram-type="DESCRIPTION" height="1036px" preserveAspectRatio="none" style="width:4615px;height:1036px;background:#FFFFFF;" version="1.1" viewBox="0 0 4615 1036" width="4615px" zoomAndPan="magnify"><title>MEGA LOD0 - Spine + Gates + Stores (Workflow-first + Core Commands)</title><defs/><g><g class="title" data-source-line="10"><text fill="#000000" font-family="Arial" font-size="22" font-weight="bold" lengthAdjust="spacing" textLength="759.7412" x="1923.4844" y="35.6357">MEGA LOD0 - Spine + Gates + Stores (Workflow-first + Core Commands)</text></g><!--cluster Spine--><g class="cluster" data-entity="Spine" data-source-line="18" data-uid="ent0006" id="cluster_Spine"><path d="M229.88,290.2979 L268.9972,290.2979 A3.75,3.75 0 0 1 271.4972,292.7979 L278.4972,312.3965 L4606.21,312.3965 A2.5,2.5 0 0 1 4608.71,314.8965 L4608.71,476.7979 A2.5,2.5 0 0 1 4606.21,479.2979 L229.88,479.2979 A2.5,2.5 0 0 1 227.38,476.7979 L227.38,292.7979 A2.5,2.5 0 0 1 229.88,290.2979" fill="#E6F3FF" style="stroke:#000000;stroke-width:1;"/><line style="stroke:#000000;stroke-width:1;" x1="227.38" x2="278.4972" y1="312.3965" y2="312.3965"/><text fill="#000000" font-family="Arial" font-size="14" font-weight="bold" lengthAdjust="spacing" textLength="38.1172" x="231.38" y="305.4297">Spine</text></g><!--cluster Gates / Invariants--><g class="cluster" data-entity="Gates . Invariants" data-source-line="69" data-uid="ent0044" id="cluster_Gates . Invariants"><path d="M13.5,871.2979 L131.2168,871.2979 A3.75,3.75 0 0 1 133.7168,873.7979 L140.7168,893.3965 L1013.22,893.3965 A2.5,2.5 0 0 1 1015.72,895.8965 L1015.72,1006.7979 A2.5,2.5 0 0 1 1013.22,1009.2979 L13.5,1009.2979 A2.5,2.5 0 0 1 11,1006.7979 L11,873.7979 A2.5,2.5 0 0 1 13.5,871.2979" fill="#FFF2CC" style="stroke:#000000;stroke-width:1;"/><line style="stroke:#000000;stroke-width:1;" x1="11" x2="140.7168" y1="893.3965" y2="893.3965"/><text fill="#000000" font-family="Arial" font-size="14" font-weight="bold" lengthAdjust="spacing" textLength="116.7168" x="15" y="886.4297">Gates / Invariants</text></g><!--cluster Stores--><g class="cluster" data-entity="Stores" data-source-line="76" data-uid="ent0049" id="cluster_Stores"><path d="M188.64,57.2979 L233.2123,57.2979 A3.75,3.75 0 0 1 235.7123,59.7979 L242.7123,79.3965 L347.67,79.3965 A2.5,2.5 0 0 1 350.17,81.8965 L350.17,263.7979 A2.5,2.5 0 0 1 347.67,266.2979 L188.64,266.2979 A2.5,2.5 0 0 1 186.14,263.7979 L186.14,59.7979 A2.5,2.5 0 0 1 188.64,57.2979" fill="#F0F0F0" style="stroke:#000000;stroke-width:1;"/><line style="stroke:#000000;stroke-width:1;" x1="186.14" x2="242.7123" y1="79.3965" y2="79.3965"/><text fill="#000000" font-family="Arial" font-size="14" font-weight="bold" lengthAdjust="spacing" textLength="43.5723" x="190.14" y="72.4297">Stores</text></g><!--cluster WF Diagrams--><g class="cluster" data-entity="WF Diagrams" data-source-line="81" data-uid="ent0052" id="cluster_WF Diagrams"><path d="M223.66,547.2979 L314.1219,547.2979 A3.75,3.75 0 0 1 316.6219,549.7979 L323.6219,569.3965 L1737.02,569.3965 A2.5,2.5 0 0 1 1739.52,571.8965 L1739.52,844.7979 A2.5,2.5 0 0 1 1737.02,847.2979 L223.66,847.2979 A2.5,2.5 0 0 1 221.16,844.7979 L221.16,549.7979 A2.5,2.5 0 0 1 223.66,547.2979" fill="#FFFFFF" style="stroke:#000000;stroke-width:1;"/><line style="stroke:#000000;stroke-width:1;" x1="221.16" x2="323.6219" y1="569.3965" y2="569.3965"/><text fill="#000000" font-family="Arial" font-size="14" font-weight="bold" lengthAdjust="spacing" textLength="89.4619" x="225.16" y="562.4297">WF Diagrams</text></g><!--cluster Command Diagrams--><g class="cluster" data-entity="Command Diagrams" data-source-line="100" data-uid="ent0069" id="cluster_Command Diagrams"><path d="M1201.48,871.2979 L1338.6245,871.2979 A3.75,3.75 0 0 1 1341.1245,873.7979 L1348.1245,893.3965 L1763.08,893.3965 A2.5,2.5 0 0 1 1765.58,895.8965 L1765.58,1026.7979 A2.5,2.5 0 0 1 1763.08,1029.2979 L1201.48,1029.2979 A2.5,2.5 0 0 1 1198.98,1026.7979 L1198.98,873.7979 A2.5,2.5 0 0 1 1201.48,871.2979" fill="#FFFFFF" style="stroke:#000000;stroke-width:1;"/><line style="stroke:#000000;stroke-width:1;" x1="1198.98" x2="1348.1245" y1="893.3965" y2="893.3965"/><text fill="#000000" font-family="Arial" font-size="14" font-weight="bold" lengthAdjust="spacing" textLength="136.1445" x="1202.98" y="886.4297">Command Diagrams</text></g><!--entity start--><g class="entity" data-entity="start" data-source-line="19" data-uid="ent0007" id="entity_start"><rect fill="#FFFFFF" height="36.0986" rx="2.5" ry="2.5" style="stroke:#000000;stroke-width:1;" width="49.5654" x="243.38" y="352.2479"/><text fill="#000000" font-family="Arial" font-size="14" lengthAdjust="spacing" textLength="29.5654" x="253.38" y="375.3797">Start</text></g><!--entity gate_forbid--><g class="entity" data-entity="gate_forbid" data-source-line="20" data-uid="ent0008" id="entity_gate_forbid"><polygon fill="#FFFFFF" points="924.3,370.2979,854.66,357.2479,715.38,357.2479,645.74,370.2979,715.38,383.3479,854.66,383.3479,924.3,370.2979" style="stroke:#000000;stroke-width:1;"/><text fill="#000000" font-family="Arial" font-size="14" lengthAdjust="spacing" textLength="139.2822" x="715.3811" y="375.3797">Gate: forbid ./.maestro</text></g><!--entity gate_docs--><g class="entity" data-entity="gate_docs" data-source-line="21" data-uid="ent0009" id="entity_gate_docs"><polygon fill="#FFFFFF" points="1478.24,370.2979,1374.36,357.2479,1166.6,357.2479,1062.72,370.2979,1166.6,383.3479,1374.36,383.3479,1478.24,370.2979" style="stroke:#000000;stroke-width:1;"/><text fill="#000000" font-family="Arial" font-size="14" lengthAdjust="spacing" textLength="207.7578" x="1166.5989" y="375.3797">Gate: repo truth is ./docs/maestro</text></g><!--entity gate_json--><g class="entity" data-entity="gate_json" data-source-line="22" data-uid="ent0010" id="entity_gate_json"><polygon fill="#FFFFFF" points="1845.8,370.2979,1769.16,357.2479,1615.88,357.2479,1539.24,370.2979,1615.88,383.3479,1769.16,383.3479,1845.8,370.2979" style="stroke:#000000;stroke-width:1;"/><text fill="#000000" font-family="Arial" font-size="14" lengthAdjust="spacing" textLength="153.2822" x="1615.8811" y="375.3797">Gate: repo truth is JSON</text></g><!--entity wf_first--><g class="entity" data-entity="wf_first" data-source-line="23" data-uid="ent0011" id="entity_wf_first"><rect fill="#FFFFFF" height="36.0986" rx="2.5" ry="2.5" style="stroke:#000000;stroke-width:1;" width="170.9238" x="1906.8" y="352.2479"/><text fill="#000000" font-family="Arial" font-size="14" lengthAdjust="spacing" textLength="150.9238" x="1916.8" y="375.3797">Decision: workflow-first?</text></g><!--entity wf_edit--><g class="entity" data-entity="wf_edit" data-source-line="24" data-uid="ent0012" id="entity_wf_edit"><a href="../commands/cmd_workflow.md" target="_top" title="../commands/cmd_workflow.md" xlink:actuate="onRequest" xlink:href="../commands/cmd_workflow.md" xlink:show="new" xlink:title="../commands/cmd_workflow.md" xlink:type="simple"><rect fill="#FFFFFF" height="52.1973" rx="2.5" ry="2.5" style="stroke:#000000;stroke-width:1;" width="144.4756" x="2159.73" y="411.1979"/><text fill="#000000" font-family="Arial" font-size="14" lengthAdjust="spacing" textLength="80.917" x="2169.73" y="434.3297">workflow edit</text><text fill="#000000" font-family="Arial" font-size="14" lengthAdjust="spacing" textLength="124.4756" x="2169.73" y="450.4283">maestro workflow ...</text></a></g><!--entity cmd_init--><g class="entity" data-entity="cmd_init" data-source-line="25" data-uid="ent0013" id="entity_cmd_init"><a href="../generated/svg/CMD-init.all_layers.lod0.svg" target="_top" title="../generated/svg/CMD-init.all_layers.lod0.svg" xlink:actuate="onRequest" xlink:href="../generated/svg/CMD-init.all_layers.lod0.svg" xlink:show="new" xlink:title="../generated/svg/CMD-init.all_layers.lod0.svg" xlink:type="simple"><rect fill="#FFFFFF" height="36.0986" rx="2.5" ry="2.5" style="stroke:#000000;stroke-width:1;" width="92.3584" x="2365.2" y="365.2479"/><text fill="#000000" font-family="Arial" font-size="14" lengthAdjust="spacing" textLength="72.3584" x="2375.2" y="388.3797">maestro init</text></a></g><!--entity repo_mode--><g class="entity" data-entity="repo_mode" data-source-line="26" data-uid="ent0014" id="entity_repo_mode"><rect fill="#FFFFFF" height="36.0986" rx="2.5" ry="2.5" style="stroke:#000000;stroke-width:1;" width="205.2061" x="2518.56" y="365.2479"/><text fill="#000000" font-family="Arial" font-size="14" lengthAdjust="spacing" textLength="185.2061" x="2528.56" y="388.3797">Decision: repo resolve mode?</text></g><!--entity repo_lite--><g class="entity" data-entity="repo_lite" data-source-line="27" data-uid="ent0015" id="entity_repo_lite"><a href="../generated/svg/CMD-repo.all_layers.lod0.svg" target="_top" title="../generated/svg/CMD-repo.all_layers.lod0.svg" xlink:actuate="onRequest" xlink:href="../generated/svg/CMD-repo.all_layers.lod0.svg" xlink:show="new" xlink:title="../generated/svg/CMD-repo.all_layers.lod0.svg" xlink:type="simple"><rect fill="#FFFFFF" height="36.0986" rx="2.5" ry="2.5" style="stroke:#000000;stroke-width:1;" width="128.1514" x="2820.39" y="400.2479"/><text fill="#000000" font-family="Arial" font-size="14" lengthAdjust="spacing" textLength="108.1514" x="2830.39" y="423.3797">repo resolve --lite</text></a></g><!--entity repo_deep--><g class="entity" data-entity="repo_deep" data-source-line="28" data-uid="ent0016" id="entity_repo_deep"><a href="../generated/svg/CMD-repo.all_layers.lod0.svg" target="_top" title="../generated/svg/CMD-repo.all_layers.lod0.svg" xlink:actuate="onRequest" xlink:href="../generated/svg/CMD-repo.all_layers.lod0.svg" xlink:show="new" xlink:title="../generated/svg/CMD-repo.all_layers.lod0.svg" xlink:type="simple"><rect fill="#FFFFFF" height="36.0986" rx="2.5" ry="2.5" style="stroke:#000000;stroke-width:1;" width="141.3994" x="2813.77" y="329.2479"/><text fill="#000000" font-family="Arial" font-size="14" lengthAdjust="spacing" textLength="121.3994" x="2823.77" y="352.3797">repo resolve --deep</text></a></g><!--entity gate_conf--><g class="entity" data-entity="gate_conf" data-source-line="29" data-uid="ent0017" id="entity_gate_conf"><polygon fill="#FFFFFF" points="3341.47,399.2979,3260.15,386.2479,3097.49,386.2479,3016.17,399.2979,3097.49,412.3479,3260.15,412.3479,3341.47,399.2979" style="stroke:#000000;stroke-width:1;"/><text fill="#000000" font-family="Arial" font-size="14" lengthAdjust="spacing" textLength="162.6543" x="3097.4971" y="404.3797">Gate: repo_conf.json valid</text></g><!--entity cmd_build--><g class="entity" data-entity="cmd_build" data-source-line="30" data-uid="ent0018" id="entity_cmd_build"><rect fill="#FFFFFF" height="36.0986" rx="2.5" ry="2.5" style="stroke:#000000;stroke-width:1;" width="95.4824" x="3402.47" y="381.2479"/><text fill="#000000" font-family="Arial" font-size="14" lengthAdjust="spacing" textLength="75.4824" x="3412.47" y="404.3797">build / make</text></g><!--entity cmd_work--><g class="entity" data-entity="cmd_work" data-source-line="31" data-uid="ent0019" id="entity_cmd_work"><a href="../generated/svg/CMD-work.all_layers.lod0.svg" target="_top" title="../generated/svg/CMD-work.all_layers.lod0.svg" xlink:actuate="onRequest" xlink:href="../generated/svg/CMD-work.all_layers.lod0.svg" xlink:show="new" xlink:title="../generated/svg/CMD-work.all_layers.lod0.svg" xlink:type="simple"><rect fill="#FFFFFF" height="36.0986" rx="2.5" ry="2.5" style="stroke:#000000;stroke-width:1;" width="104.0205" x="3558.96" y="381.2479"/><text fill="#000000" font-family="Arial" font-size="14" lengthAdjust="spacing" textLength="84.0205" x="3568.96" y="404.3797">maestro work</text></a></g><!--entity cmd_wsession--><g class="entity" data-entity="cmd_wsession" data-source-line="32" data-uid="ent0020" id="entity_cmd_wsession"><a href="../generated/svg/CMD-wsession.all_layers.lod0.svg" target="_top" title="../generated/svg/CMD-wsession.all_layers.lod0.svg" xlink:actuate="onRequest" xlink:href="../generated/svg/CMD-wsession.all_layers.lod0.svg" xlink:show="new" xlink:title="../generated/svg/CMD-wsession.all_layers.lod0.svg" xlink:type="simple"><rect fill="#FFFFFF" height="36.0986" rx="2.5" ry="2.5" style="stroke:#000000;stroke-width:1;" width="132.041" x="3723.98" y="381.2479"/><text fill="#000000" font-family="Arial" font-size="14" lengthAdjust="spacing" textLength="112.041" x="3733.98" y="404.3797">maestro wsession</text></a></g><!--entity gate_branch--><g class="entity" data-entity="gate_branch" data-source-line="33" data-uid="ent0021" id="entity_gate_branch"><polygon fill="#FFFFFF" points="4158.29,399.2979,4097.97,386.2479,3977.34,386.2479,3917.02,399.2979,3977.34,412.3479,4097.97,412.3479,4158.29,399.2979" style="stroke:#000000;stroke-width:1;"/><text fill="#000000" font-family="Arial" font-size="14" lengthAdjust="spacing" textLength="120.6338" x="3977.3369" y="404.3797">Gate: branch guard</text></g><!--entity cmd_tu--><g class="entity" data-entity="cmd_tu" data-source-line="34" data-uid="ent0022" id="entity_cmd_tu"><a href="../generated/svg/CMD-tu.all_layers.lod0.svg" target="_top" title="../generated/svg/CMD-tu.all_layers.lod0.svg" xlink:actuate="onRequest" xlink:href="../generated/svg/CMD-tu.all_layers.lod0.svg" xlink:show="new" xlink:title="../generated/svg/CMD-tu.all_layers.lod0.svg" xlink:type="simple"><rect fill="#FFFFFF" height="36.0986" rx="2.5" ry="2.5" style="stroke:#000000;stroke-width:1;" width="86.1377" x="4219.29" y="381.2479"/><text fill="#000000" font-family="Arial" font-size="14" lengthAdjust="spacing" textLength="66.1377" x="4229.29" y="404.3797">maestro tu</text></a></g><!--entity cmd_convert--><g class="entity" data-entity="cmd_convert" data-source-line="35" data-uid="ent0023" id="entity_cmd_convert"><a href="../generated/svg/CMD-convert.all_layers.lod0.svg" target="_top" title="../generated/svg/CMD-convert.all_layers.lod0.svg" xlink:actuate="onRequest" xlink:href="../generated/svg/CMD-convert.all_layers.lod0.svg" xlink:show="new" xlink:title="../generated/svg/CMD-convert.all_layers.lod0.svg" xlink:type="simple"><rect fill="#FFFFFF" height="36.0986" rx="2.5" ry="2.5" style="stroke:#000000;stroke-width:1;" width="120.3721" x="4366.42" y="381.2479"/><text fill="#000000" font-family="Arial" font-size="14" lengthAdjust="spacing" textLength="100.3721" x="4376.42" y="404.3797">maestro convert</text></a></g><!--entity end--><g class="entity" data-entity="end" data-source-line="36" data-uid="ent0024" id="entity_end"><rect fill="#FFFFFF" height="36.0986" rx="2.5" ry="2.5" style="stroke:#000000;stroke-width:1;" width="44.9102" x="4547.8" y="381.2479"/><text fill="#000000" font-family="Arial" font-size="14" lengthAdjust="spacing" textLength="24.9102" x="4557.8" y="404.3797">End</text></g><!--entity inv_docs--><g class="entity" data-entity="inv_docs" data-source-line="70" data-uid="ent0045" id="entity_inv_docs"><polygon fill="#FFFFFF" points="509.32,980.2979,388.74,967.2479,147.58,967.2479,27,980.2979,147.58,993.3479,388.74,993.3479,509.32,980.2979" style="stroke:#000000;stroke-width:1;"/><text fill="#000000" font-family="Arial" font-size="14" lengthAdjust="spacing" textLength="241.1582" x="147.5791" y="985.3797">REPO_TRUTH_IS_DOCS_MAESTRO</text></g><!--entity inv_json--><g class="entity" data-entity="inv_json" data-source-line="71" data-uid="ent0046" id="entity_inv_json"><polygon fill="#FFFFFF" points="496.08,919.2979,382.12,906.2479,154.2,906.2479,40.23,919.2979,154.2,932.3479,382.12,932.3479,496.08,919.2979" style="stroke:#000000;stroke-width:1;"/><text fill="#000000" font-family="Arial" font-size="14" lengthAdjust="spacing" textLength="227.9238" x="154.1919" y="924.3797">REPO_TRUTH_FORMAT_IS_JSON</text></g><!--entity inv_dot--><g class="entity" data-entity="inv_dot" data-source-line="72" data-uid="ent0047" id="entity_inv_dot"><polygon fill="#FFFFFF" points="999.72,980.2979,892.37,967.2479,677.67,967.2479,570.32,980.2979,677.67,993.3479,892.37,993.3479,999.72,980.2979" style="stroke:#000000;stroke-width:1;"/><text fill="#000000" font-family="Arial" font-size="14" lengthAdjust="spacing" textLength="214.7031" x="677.6716" y="985.3797">FORBID_REPO_DOT_MAESTRO</text></g><!--entity inv_branch--><g class="entity" data-entity="inv_branch" data-source-line="73" data-uid="ent0048" id="entity_inv_branch"><polygon fill="#FFFFFF" points="994.27,919.2979,889.64,906.2479,680.4,906.2479,575.77,919.2979,680.4,932.3479,889.64,932.3479,994.27,919.2979" style="stroke:#000000;stroke-width:1;"/><text fill="#000000" font-family="Arial" font-size="14" lengthAdjust="spacing" textLength="209.248" x="680.394" y="924.3797">BRANCH_GUARD_NO_SWITCH</text></g><!--entity repo_truth--><g class="entity" data-entity="repo_truth" data-source-line="77" data-uid="ent0050" id="entity_repo_truth"><path d="M210.31,198.6979 C210.31,188.6979 268.1616,188.6979 268.1616,188.6979 C268.1616,188.6979 326.0131,188.6979 326.0131,198.6979 L326.0131,239.8951 C326.0131,249.8951 268.1616,249.8951 268.1616,249.8951 C268.1616,249.8951 210.31,249.8951 210.31,239.8951 L210.31,198.6979" fill="#FFFFFF" style="stroke:#000000;stroke-width:1;"/><path d="M210.31,198.6979 C210.31,208.6979 268.1616,208.6979 268.1616,208.6979 C268.1616,208.6979 326.0131,208.6979 326.0131,198.6979" fill="none" style="stroke:#000000;stroke-width:1;"/><text fill="#000000" font-family="Arial" font-size="14" lengthAdjust="spacing" textLength="63.8203" x="220.31" y="225.8297">repo_truth</text><text fill="#000000" font-family="Arial" font-size="14" lengthAdjust="spacing" textLength="95.7031" x="220.31" y="241.9283">./docs/maestro/</text></g><!--entity home_hub--><g class="entity" data-entity="home_hub" data-source-line="78" data-uid="ent0051" id="entity_home_hub"><path d="M202.14,102.6979 C202.14,92.6979 268.1537,92.6979 268.1537,92.6979 C268.1537,92.6979 334.1673,92.6979 334.1673,102.6979 L334.1673,143.8951 C334.1673,153.8951 268.1537,153.8951 268.1537,153.8951 C268.1537,153.8951 202.14,153.8951 202.14,143.8951 L202.14,102.6979" fill="#FFFFFF" style="stroke:#000000;stroke-width:1;"/><path d="M202.14,102.6979 C202.14,112.6979 268.1537,112.6979 268.1537,112.6979 C268.1537,112.6979 334.1673,112.6979 334.1673,102.6979" fill="none" style="stroke:#000000;stroke-width:1;"/><text fill="#000000" font-family="Arial" font-size="14" lengthAdjust="spacing" textLength="66.165" x="212.14" y="129.8297">home_hub</text><text fill="#000000" font-family="Arial" font-size="14" lengthAdjust="spacing" textLength="112.0273" x="212.14" y="145.9283">/.maestro/registry/</text></g><!--entity wf01--><g class="entity" data-entity="wf01" data-source-line="82" data-uid="ent0053" id="entity_wf01"><a href="../generated/svg/WF-01.intent.lod1.svg" target="_top" title="../generated/svg/WF-01.intent.lod1.svg" xlink:actuate="onRequest" xlink:href="../generated/svg/WF-01.intent.lod1.svg" xlink:show="new" xlink:title="../generated/svg/WF-01.intent.lod1.svg" xlink:type="simple"><rect fill="#FFFFFF" height="36.0986" rx="2.5" ry="2.5" style="stroke:#000000;stroke-width:1;" width="62" x="237.16" y="795.2479"/><text fill="#000000" font-family="Arial" font-size="14" lengthAdjust="spacing" textLength="42" x="247.16" y="818.3797">WF-01</text></a></g><!--entity wf02--><g class="entity" data-entity="wf02" data-source-line="83" data-uid="ent0054" id="entity_wf02"><a href="../generated/svg/WF-02.intent.lod1.svg" target="_top" title="../generated/svg/WF-02.intent.lod1.svg" xlink:actuate="onRequest" xlink:href="../generated/svg/WF-02.intent.lod1.svg" xlink:show="new" xlink:title="../generated/svg/WF-02.intent.lod1.svg" xlink:type="simple"><rect fill="#FFFFFF" height="36.0986" rx="2.5" ry="2.5" style="stroke:#000000;stroke-width:1;" width="62" x="237.16" y="724.2479"/><text fill="#000000" font-family="Arial" font-size="14" lengthAdjust="spacing" textLength="42" x="247.16" y="747.3797">WF-02</text></a></g><!--entity wf03--><g class="entity" data-entity="wf03" data-source-line="84" data-uid="ent0055" id="entity_wf03"><a href="../generated/svg/WF-03.intent.lod1.svg" target="_top" title="../generated/svg/WF-03.intent.lod1.svg" xlink:actuate="onRequest" xlink:href="../generated/svg/WF-03.intent.lod1.svg" xlink:show="new" xlink:title="../generated/svg/WF-03.intent.lod1.svg" xlink:type="simple"><rect fill="#FFFFFF" height="36.0986" rx="2.5" ry="2.5" style="stroke:#000000;stroke-width:1;" width="62" x="237.16" y="653.2479"/><text fill="#000000" font-family="Arial" font-size="14" lengthAdjust="spacing" textLength="42" x="247.16" y="676.3797">WF-03</text></a></g><!--entity wf04--><g class="entity" data-entity="wf04" data-source-line="85" data-uid="ent0056" id="entity_wf04"><a href="../generated/svg/WF-04.intent.lod1.svg" target="_top" title="../generated/svg/WF-04.intent.lod1.svg" xlink:actuate="onRequest" xlink:href="../generated/svg/WF-04.intent.lod1.svg" xlink:show="new" xlink:title="../generated/svg/WF-04.intent.lod1.svg" xlink:type="simple"><rect fill="#FFFFFF" height="36.0986" rx="2.5" ry="2.5" style="stroke:#000000;stroke-width:1;" width="62" x="237.16" y="582.2479"/><text fill="#000000" font-family="Arial" font-size="14" lengthAdjust="spacing" textLength="42" x="247.16" y="605.3797">WF-04</text></a></g><!--entity wf05--><g class="entity" data-entity="wf05" data-source-line="86" data-uid="ent0057" id="entity_wf05"><a href="../generated/svg/WF-05.intent.lod1.svg" target="_top" title="../generated/svg/WF-05.intent.lod1.svg" xlink:actuate="onRequest" xlink:href="../generated/svg/WF-05.intent.lod1.svg" xlink:show="new" xlink:title="../generated/svg/WF-05.intent.lod1.svg" xlink:type="simple"><rect fill="#FFFFFF" height="36.0986" rx="2.5" ry="2.5" style="stroke:#000000;stroke-width:1;" width="62" x="754.02" y="795.2479"/><text fill="#000000" font-family="Arial" font-size="14" lengthAdjust="spacing" textLength="42" x="764.02" y="818.3797">WF-05</text></a></g><!--entity wf06--><g class="entity" data-entity="wf06" data-source-line="87" data-uid="ent0058" id="entity_wf06"><a href="../generated/svg/WF-06.intent.lod1.svg" target="_top" title="../generated/svg/WF-06.intent.lod1.svg" xlink:actuate="onRequest" xlink:href="../generated/svg/WF-06.intent.lod1.svg" xlink:show="new" xlink:title="../generated/svg/WF-06.intent.lod1.svg" xlink:type="simple"><rect fill="#FFFFFF" height="36.0986" rx="2.5" ry="2.5" style="stroke:#000000;stroke-width:1;" width="62" x="754.02" y="724.2479"/><text fill="#000000" font-family="Arial" font-size="14" lengthAdjust="spacing" textLength="42" x="764.02" y="747.3797">WF-06</text></a></g><!--entity wf07--><g class="entity" data-entity="wf07" data-source-line="88" data-uid="ent0059" id="entity_wf07"><a href="../generated/svg/WF-07.intent.lod1.svg" target="_top" title="../generated/svg/WF-07.intent.lod1.svg" xlink:actuate="onRequest" xlink:href="../generated/svg/WF-07.intent.lod1.svg" xlink:show="new" xlink:title="../generated/svg/WF-07.intent.lod1.svg" xlink:type="simple"><rect fill="#FFFFFF" height="36.0986" rx="2.5" ry="2.5" style="stroke:#000000;stroke-width:1;" width="62" x="754.02" y="653.2479"/><text fill="#000000" font-family="Arial" font-size="14" lengthAdjust="spacing" textLength="42" x="764.02" y="676.3797">WF-07</text></a></g><!--entity wf08--><g class="entity" data-entity="wf08" data-source-line="89" data-uid="ent0060" id="entity_wf08"><a href="../generated/svg/WF-08.intent.lod1.svg" target="_top" title="../generated/svg/WF-08.intent.lod1.svg" xlink:actuate="onRequest" xlink:href="../generated/svg/WF-08.intent.lod1.svg" xlink:show="new" xlink:title="../generated/svg/WF-08.intent.lod1.svg" xlink:type="simple"><rect fill="#FFFFFF" height="36.0986" rx="2.5" ry="2.5" style="stroke:#000000;stroke-width:1;" width="62" x="754.02" y="582.2479"/><text fill="#000000" font-family="Arial" font-size="14" lengthAdjust="spacing" textLength="42" x="764.02" y="605.3797">WF-08</text></a></g><!--entity wf09--><g class="entity" data-entity="wf09" data-source-line="90" data-uid="ent0061" id="entity_wf09"><a href="../generated/svg/WF-09.intent.lod1.svg" target="_top" title="../generated/svg/WF-09.intent.lod1.svg" xlink:actuate="onRequest" xlink:href="../generated/svg/WF-09.intent.lod1.svg" xlink:show="new" xlink:title="../generated/svg/WF-09.intent.lod1.svg" xlink:type="simple"><rect fill="#FFFFFF" height="36.0986" rx="2.5" ry="2.5" style="stroke:#000000;stroke-width:1;" width="62" x="1239.48" y="795.2479"/><text fill="#000000" font-family="Arial" font-size="14" lengthAdjust="spacing" textLength="42" x="1249.48" y="818.3797">WF-09</text></a></g><!--entity wf10--><g class="entity" data-entity="wf10" data-source-line="91" data-uid="ent0062" id="entity_wf10"><a href="../generated/svg/WF-10.intent.lod1.svg" target="_top" title="../generated/svg/WF-10.intent.lod1.svg" xlink:actuate="onRequest" xlink:href="../generated/svg/WF-10.intent.lod1.svg" xlink:show="new" xlink:title="../generated/svg/WF-10.intent.lod1.svg" xlink:type="simple"><rect fill="#FFFFFF" height="36.0986" rx="2.5" ry="2.5" style="stroke:#000000;stroke-width:1;" width="62" x="1239.48" y="724.2479"/><text fill="#000000" font-family="Arial" font-size="14" lengthAdjust="spacing" textLength="42" x="1249.48" y="747.3797">WF-10</text></a></g><!--entity wf11--><g class="entity" data-entity="wf11" data-source-line="92" data-uid="ent0063" id="entity_wf11"><a href="../generated/svg/WF-11.intent.lod1.svg" target="_top" title="../generated/svg/WF-11.intent.lod1.svg" xlink:actuate="onRequest" xlink:href="../generated/svg/WF-11.intent.lod1.svg" xlink:show="new" xlink:title="../generated/svg/WF-11.intent.lod1.svg" xlink:type="simple"><rect fill="#FFFFFF" height="36.0986" rx="2.5" ry="2.5" style="stroke:#000000;stroke-width:1;" width="62" x="1239.48" y="653.2479"/><text fill="#000000" font-family="Arial" font-size="14" lengthAdjust="spacing" textLength="42" x="1249.48" y="676.3797">WF-11</text></a></g><!--entity wf12--><g class="entity" data-entity="wf12" data-source-line="93" data-uid="ent0064" id="entity_wf12"><a href="../generated/svg/WF-12.intent.lod1.svg" target="_top" title="../generated/svg/WF-12.intent.lod1.svg" xlink:actuate="onRequest" xlink:href="../generated/svg/WF-12.intent.lod1.svg" xlink:show="new" xlink:title="../generated/svg/WF-12.intent.lod1.svg" xlink:type="simple"><rect fill="#FFFFFF" height="36.0986" rx="2.5" ry="2.5" style="stroke:#000000;stroke-width:1;" width="62" x="1239.48" y="582.2479"/><text fill="#000000" font-family="Arial" font-size="14" lengthAdjust="spacing" textLength="42" x="1249.48" y="605.3797">WF-12</text></a></g><!--entity wf13--><g class="entity" data-entity="wf13" data-source-line="94" data-uid="ent0065" id="entity_wf13"><a href="../generated/svg/WF-13.intent.lod1.svg" target="_top" title="../generated/svg/WF-13.intent.lod1.svg" xlink:actuate="onRequest" xlink:href="../generated/svg/WF-13.intent.lod1.svg" xlink:show="new" xlink:title="../generated/svg/WF-13.intent.lod1.svg" xlink:type="simple"><rect fill="#FFFFFF" height="36.0986" rx="2.5" ry="2.5" style="stroke:#000000;stroke-width:1;" width="62" x="1661.52" y="795.2479"/><text fill="#000000" font-family="Arial" font-size="14" lengthAdjust="spacing" textLength="42" x="1671.52" y="818.3797">WF-13</text></a></g><!--entity wf14--><g class="entity" data-entity="wf14" data-source-line="95" data-uid="ent0066" id="entity_wf14"><a href="../generated/svg/WF-14.intent.lod1.svg" target="_top" title="../generated/svg/WF-14.intent.lod1.svg" xlink:actuate="onRequest" xlink:href="../generated/svg/WF-14.intent.lod1.svg" xlink:show="new" xlink:title="../generated/svg/WF-14.intent.lod1.svg" xlink:type="simple"><rect fill="#FFFFFF" height="36.0986" rx="2.5" ry="2.5" style="stroke:#000000;stroke-width:1;" width="62" x="1661.52" y="724.2479"/><text fill="#000000" font-family="Arial" font-size="14" lengthAdjust="spacing" textLength="42" x="1671.52" y="747.3797">WF-14</text></a></g><!--entity wf15--><g class="entity" data-entity="wf15" data-source-line="96" data-uid="ent0067" id="entity_wf15"><a href="../generated/svg/WF-15.intent.lod1.svg" target="_top" title="../generated/svg/WF-15.intent.lod1.svg" xlink:actuate="onRequest" xlink:href="../generated/svg/WF-15.intent.lod1.svg" xlink:show="new" xlink:title="../generated/svg/WF-15.intent.lod1.svg" xlink:type="simple"><rect fill="#FFFFFF" height="36.0986" rx="2.5" ry="2.5" style="stroke:#000000;stroke-width:1;" width="62" x="1661.52" y="653.2479"/><text fill="#000000" font-family="Arial" font-size="14" lengthAdjust="spacing" textLength="42" x="1671.52" y="676.3797">WF-15</text></a></g><!--entity wf16--><g class="entity" data-entity="wf16" data-source-line="97" data-uid="ent0068" id="entity_wf16"><a href="../generated/svg/WF-16.intent.lod1.svg" target="_top" title="../generated/svg/WF-16.intent.lod1.svg" xlink:actuate="onRequest" xlink:href="../generated/svg/WF-16.intent.lod1.svg" xlink:show="new" xlink:title="../generated/svg/WF-16.intent.lod1.svg" xlink:type="simple"><rect fill="#FFFFFF" height="36.0986" rx="2.5" ry="2.5" style="stroke:#000000;stroke-width:1;" width="62" x="1661.52" y="582.2479"/><text fill="#000000" font-family="Arial" font-size="14" lengthAdjust="spacing" textLength="42" x="1671.52" y="605.3797">WF-16</text></a></g><!--entity cmd_workflow_doc--><g class="entity" data-entity="cmd_workflow_doc" data-source-line="101" data-uid="ent0070" id="entity_cmd_workflow_doc"><a href="../commands/cmd_workflow.md" target="_top" title="../commands/cmd_workflow.md" xlink:actuate="onRequest" xlink:href="../commands/cmd_workflow.md" xlink:show="new" xlink:title="../commands/cmd_workflow.md" xlink:type="simple"><rect fill="#FFFFFF" height="36.0986" rx="2.5" ry="2.5" style="stroke:#000000;stroke-width:1;" width="111" x="1214.98" y="977.2479"/><text fill="#000000" font-family="Arial" font-size="14" lengthAdjust="spacing" textLength="91" x="1224.98" y="1000.3797">CMD-workflow</text></a></g><!--entity cmd_repo--><g class="entity" data-entity="cmd_repo" data-source-line="102" data-uid="ent0071" id="entity_cmd_repo"><a href="../generated/svg/CMD-repo.all_layers.lod0.svg" target="_top" title="../generated/svg/CMD-repo.all_layers.lod0.svg" xlink:actuate="onRequest" xlink:href="../generated/svg/CMD-repo.all_layers.lod0.svg" xlink:show="new" xlink:title="../generated/svg/CMD-repo.all_layers.lod0.svg" xlink:type="simple"><rect fill="#FFFFFF" height="36.0986" rx="2.5" ry="2.5" style="stroke:#000000;stroke-width:1;" width="84.5654" x="1228.2" y="906.2479"/><text fill="#000000" font-family="Arial" font-size="14" lengthAdjust="spacing" textLength="64.5654" x="1238.2" y="929.3797">CMD-repo</text></a></g><!--entity cmd_work_doc--><g class="entity" data-entity="cmd_work_doc" data-source-line="103" data-uid="ent0072" id="entity_cmd_work_doc"><a href="../generated/svg/CMD-work.all_layers.lod0.svg" target="_top" title="../generated/svg/CMD-work.all_layers.lod0.svg" xlink:actuate="onRequest" xlink:href="../generated/svg/CMD-work.all_layers.lod0.svg" xlink:show="new" xlink:title="../generated/svg/CMD-work.all_layers.lod0.svg" xlink:type="simple"><rect fill="#FFFFFF" height="36.0986" rx="2.5" ry="2.5" style="stroke:#000000;stroke-width:1;" width="86.1035" x="1649.47" y="977.2479"/><text fill="#000000" font-family="Arial" font-size="14" lengthAdjust="spacing" textLength="66.1035" x="1659.47" y="1000.3797">CMD-work</text></a></g><!--entity cmd_wsession_doc--><g class="entity" data-entity="cmd_wsession_doc" data-source-line="104" data-uid="ent0073" id="entity_cmd_wsession_doc"><a href="../generated/svg/CMD-wsession.all_layers.lod0.svg" target="_top" title="../generated/svg/CMD-wsession.all_layers.lod0.svg" xlink:actuate="onRequest" xlink:href="../generated/svg/CMD-wsession.all_layers.lod0.svg" xlink:show="new" xlink:title="../generated/svg/CMD-wsession.all_layers.lod0.svg" xlink:type="simple"><rect fill="#FFFFFF" height="36.0986" rx="2.5" ry="2.5" style="stroke:#000000;stroke-width:1;" width="114.124" x="1635.46" y="906.2479"/><text fill="#000000" font-family="Arial" font-size="14" lengthAdjust="spacing" textLength="94.124" x="1645.46" y="929.3797">CMD-wsession</text></a></g><!--entity NOTE_ANCHOR--><!--link start to gate_forbid--><g class="link" data-entity-1="start" data-entity-2="gate_forbid" data-source-line="39" data-uid="lnk25" id="link_start_gate_forbid"><path d="M293.3,370.2979 C354.78,370.2979 515.02,370.2979 637.03,370.2979" fill="none" id="start-to-gate_forbid" style="stroke:#333333;stroke-width:1;"/><polygon fill="#333333" points="643.03,370.2979,634.03,366.2979,638.03,370.2979,634.03,374.2979,643.03,370.2979" style="stroke:#333333;stroke-width:1;"/></g><!--link gate_forbid to gate_docs--><g class="link" data-entity-1="gate_forbid" data-entity-2="gate_docs" data-source-line="41" data-uid="lnk26" id="link_gate_forbid_gate_docs"><path d="M926.83,370.2979 C968.09,370.2979 1008.12,370.2979 1052.73,370.2979" fill="none" id="gate_forbid-to-gate_docs" style="stroke:#333333;stroke-width:1;"/><polygon fill="#333333" points="1058.73,370.2979,1049.73,366.2979,1053.73,370.2979,1049.73,374.2979,1058.73,370.2979" style="stroke:#333333;stroke-width:1;"/></g><!--link gate_docs to gate_json--><g class="link" data-entity-1="gate_docs" data-entity-2="gate_json" data-source-line="43" data-uid="lnk27" id="link_gate_docs_gate_json"><path d="M1482.12,370.2979 C1500.44,370.2979 1512.75,370.2979 1530.5,370.2979" fill="none" id="gate_docs-to-gate_json" style="stroke:#333333;stroke-width:1;"/><polygon fill="#333333" points="1536.5,370.2979,1527.5,366.2979,1531.5,370.2979,1527.5,374.2979,1536.5,370.2979" style="stroke:#333333;stroke-width:1;"/></g><!--link gate_json to wf_first--><g class="link" data-entity-1="gate_json" data-entity-2="wf_first" data-source-line="45" data-uid="lnk28" id="link_gate_json_wf_first"><path d="M1848.5,370.2979 C1868.42,370.2979 1882.2,370.2979 1900.4,370.2979" fill="none" id="gate_json-to-wf_first" style="stroke:#333333;stroke-width:1;"/><polygon fill="#333333" points="1906.4,370.2979,1897.4,366.2979,1901.4,370.2979,1897.4,374.2979,1906.4,370.2979" style="stroke:#333333;stroke-width:1;"/></g><!--link wf_first to wf_edit--><g class="link" data-entity-1="wf_first" data-entity-2="wf_edit" data-source-line="47" data-uid="lnk29" id="link_wf_first_wf_edit"><path d="M2058.85,388.7879 C2090.04,397.5779 2121.635,406.4801 2153.565,415.4801" fill="none" id="wf_first-to-wf_edit" style="stroke:#333333;stroke-width:1;"/><polygon fill="#333333" points="2159.34,417.1079,2151.7627,410.8162,2154.5275,415.7514,2149.5924,418.5162,2159.34,417.1079" style="stroke:#333333;stroke-width:1;"/><text fill="#000000" font-family="Arial" font-size="13" lengthAdjust="spacing" textLength="20.23" x="2108.73" y="400.9917">yes</text></g><!--link wf_first to cmd_init--><g class="link" data-entity-1="wf_first" data-entity-2="cmd_init" data-source-line="48" data-uid="lnk30" id="link_wf_first_cmd_init"><path d="M2078.18,372.9479 C2164.88,375.6479 2290.2129,379.551 2358.8929,381.691" fill="none" id="wf_first-to-cmd_init" style="stroke:#333333;stroke-width:1;"/><polygon fill="#333333" points="2364.89,381.8779,2356.0189,377.5995,2359.8924,381.7221,2355.7698,385.5956,2364.89,381.8779" style="stroke:#333333;stroke-width:1;"/><text fill="#000000" font-family="Arial" font-size="13" lengthAdjust="spacing" textLength="14.46" x="2224.96" y="372.7017">no</text></g><!--link wf_edit to cmd_init--><g class="link" data-entity-1="wf_edit" data-entity-2="cmd_init" data-source-line="50" data-uid="lnk31" id="link_wf_edit_cmd_init"><path d="M2304.62,415.4879 C2324.91,409.3179 2340.7,404.5049 2359,398.9349" fill="none" id="wf_edit-to-cmd_init" style="stroke:#333333;stroke-width:1;"/><polygon fill="#333333" points="2364.74,397.1879,2354.9653,395.9818,2359.9567,398.6438,2357.2947,403.6352,2364.74,397.1879" style="stroke:#333333;stroke-width:1;"/></g><!--link cmd_init to repo_mode--><g class="link" data-entity-1="cmd_init" data-entity-2="repo_mode" data-source-line="52" data-uid="lnk32" id="link_cmd_init_repo_mode"><path d="M2457.98,383.2979 C2475.9,383.2979 2491.24,383.2979 2512.46,383.2979" fill="none" id="cmd_init-to-repo_mode" style="stroke:#333333;stroke-width:1;"/><polygon fill="#333333" points="2518.46,383.2979,2509.46,379.2979,2513.46,383.2979,2509.46,387.2979,2518.46,383.2979" style="stroke:#333333;stroke-width:1;"/></g><!--link repo_mode to repo_lite--><g class="link" data-entity-1="repo_mode" data-entity-2="repo_lite" data-source-line="54" data-uid="lnk33" id="link_repo_mode_repo_lite"><path d="M2703.29,401.8079 C2719.92,405.0679 2737.35,408.1179 2753.77,410.2979 C2775.24,413.1479 2792.8493,414.6531 2813.9693,415.8331" fill="none" id="repo_mode-to-repo_lite" style="stroke:#333333;stroke-width:1;"/><polygon fill="#333333" points="2819.96,416.1679,2811.1972,411.672,2814.9678,415.8889,2810.7509,419.6596,2819.96,416.1679" style="stroke:#333333;stroke-width:1;"/><text fill="#000000" font-family="Arial" font-size="13" lengthAdjust="spacing" textLength="16.6182" x="2760.77" y="407.4917">lite</text></g><!--link repo_mode to repo_deep--><g class="link" data-entity-1="repo_mode" data-entity-2="repo_deep" data-source-line="55" data-uid="lnk34" id="link_repo_mode_repo_deep"><path d="M2723.94,369.2779 C2753.89,365.1479 2780.026,361.5455 2807.506,357.7655" fill="none" id="repo_mode-to-repo_deep" style="stroke:#333333;stroke-width:1;"/><polygon fill="#333333" points="2813.45,356.9479,2803.9889,354.2116,2808.4966,357.6292,2805.079,362.137,2813.45,356.9479" style="stroke:#333333;stroke-width:1;"/><text fill="#000000" font-family="Arial" font-size="13" lengthAdjust="spacing" textLength="28.9199" x="2754.77" y="359.2717">deep</text></g><!--link repo_lite to gate_conf--><g class="link" data-entity-1="repo_lite" data-entity-2="gate_conf" data-source-line="57" data-uid="lnk35" id="link_repo_lite_gate_conf"><path d="M2948.9,414.1779 C2981.57,412.0479 3016.4626,409.7872 3054.6026,407.3072" fill="none" id="repo_lite-to-gate_conf" style="stroke:#333333;stroke-width:1;"/><polygon fill="#333333" points="3060.59,406.9179,3051.3494,403.5103,3055.6005,407.2423,3051.8685,411.4934,3060.59,406.9179" style="stroke:#333333;stroke-width:1;"/></g><!--link repo_deep to gate_conf--><g class="link" data-entity-1="repo_deep" data-entity-2="gate_conf" data-source-line="58" data-uid="lnk36" id="link_repo_deep_gate_conf"><path d="M2955.49,359.7579 C2999.58,367.5979 3050.5927,376.6671 3095.7927,384.7071" fill="none" id="repo_deep-to-gate_conf" style="stroke:#333333;stroke-width:1;"/><polygon fill="#333333" points="3101.7,385.7579,3093.5396,380.2435,3096.7773,384.8822,3092.1386,388.1199,3101.7,385.7579" style="stroke:#333333;stroke-width:1;"/></g><!--link gate_conf to cmd_build--><g class="link" data-entity-1="gate_conf" data-entity-2="cmd_build" data-source-line="60" data-uid="lnk37" id="link_gate_conf_cmd_build"><path d="M3344.29,399.2979 C3365.32,399.2979 3379.34,399.2979 3396.14,399.2979" fill="none" id="gate_conf-to-cmd_build" style="stroke:#333333;stroke-width:1;"/><polygon fill="#333333" points="3402.14,399.2979,3393.14,395.2979,3397.14,399.2979,3393.14,403.2979,3402.14,399.2979" style="stroke:#333333;stroke-width:1;"/></g><!--link cmd_build to cmd_work--><g class="link" data-entity-1="cmd_build" data-entity-2="cmd_work" data-source-line="61" data-uid="lnk38" id="link_cmd_build_cmd_work"><path d="M3498.42,399.2979 C3517.34,399.2979 3533.19,399.2979 3552.52,399.2979" fill="none" id="cmd_build-to-cmd_work" style="stroke:#333333;stroke-width:1;"/><polygon fill="#333333" points="3558.52,399.2979,3549.52,395.2979,3553.52,399.2979,3549.52,403.2979,3558.52,399.2979" style="stroke:#333333;stroke-width:1;"/></g><!--link cmd_work to cmd_wsession--><g class="link" data-entity-1="cmd_work" data-entity-2="cmd_wsession" data-source-line="62" data-uid="lnk39" id="link_cmd_work_cmd_wsession"><path d="M3663.17,399.2979 C3682.06,399.2979 3697.73,399.2979 3717.7,399.2979" fill="none" id="cmd_work-to-cmd_wsession" style="stroke:#333333;stroke-width:1;"/><polygon fill="#333333" points="3723.7,399.2979,3714.7,395.2979,3718.7,399.2979,3714.7,403.2979,3723.7,399.2979" style="stroke:#333333;stroke-width:1;"/></g><!--link cmd_wsession to gate_branch--><g class="link" data-entity-1="cmd_wsession" data-entity-2="gate_branch" data-source-line="63" data-uid="lnk40" id="link_cmd_wsession_gate_branch"><path d="M3856.51,399.2979 C3874.56,399.2979 3888.74,399.2979 3908.88,399.2979" fill="none" id="cmd_wsession-to-gate_branch" style="stroke:#333333;stroke-width:1;"/><polygon fill="#333333" points="3914.88,399.2979,3905.88,395.2979,3909.88,399.2979,3905.88,403.2979,3914.88,399.2979" style="stroke:#333333;stroke-width:1;"/></g><!--link gate_branch to cmd_tu--><g class="link" data-entity-1="gate_branch" data-entity-2="cmd_tu" data-source-line="65" data-uid="lnk41" id="link_gate_branch_cmd_tu"><path d="M4160.43,399.2979 C4181.55,399.2979 4196.17,399.2979 4213.2,399.2979" fill="none" id="gate_branch-to-cmd_tu" style="stroke:#333333;stroke-width:1;"/><polygon fill="#333333" points="4219.2,399.2979,4210.2,395.2979,4214.2,399.2979,4210.2,403.2979,4219.2,399.2979" style="stroke:#333333;stroke-width:1;"/></g><!--link cmd_tu to cmd_convert--><g class="link" data-entity-1="cmd_tu" data-entity-2="cmd_convert" data-source-line="66" data-uid="lnk42" id="link_cmd_tu_cmd_convert"><path d="M4305.56,399.2979 C4324.06,399.2979 4340.1,399.2979 4360.21,399.2979" fill="none" id="cmd_tu-to-cmd_convert" style="stroke:#333333;stroke-width:1;"/><polygon fill="#333333" points="4366.21,399.2979,4357.21,395.2979,4361.21,399.2979,4357.21,403.2979,4366.21,399.2979" style="stroke:#333333;stroke-width:1;"/></g><!--link cmd_convert to end--><g class="link" data-entity-1="cmd_convert" data-entity-2="end" data-source-line="67" data-uid="lnk43" id="link_cmd_convert_end"><path d="M4487.27,399.2979 C4508.59,399.2979 4525.29,399.2979 4541.39,399.2979" fill="none" id="cmd_convert-to-end" style="stroke:#333333;stroke-width:1;"/><polygon fill="#333333" points="4547.39,399.2979,4538.39,395.2979,4542.39,399.2979,4538.39,403.2979,4547.39,399.2979" style="stroke:#333333;stroke-width:1;"/></g><!--SRC=[fLTRS-8s57xNhr2pBsqws8ZSUMY7S4coqq07sCd3PiSZi31gR8cHPMYca_xsIiAIxO1tlLio4wHp-NIayqddy9DSauJ0JOmf0-aBPHiiS08NUFaI2PwniCzZBk27aVcKB4AombaiHvp9CLO8FK5nNDBtXE2xtFdCV4hACPVabekGYDoYRpxlBOu5eQn0J5OIIWu5ZTOIXbIGfQIS0I2fZ0by7Dxru1-JGHksu6n36O6_mZiiIQg-Pv8BDVZvYOkNLSnthHKLgLIAlfAhVqc2MPZ-0a2MaYLE2Jp1RBdcuWJY58udys7G6_Vl9rEmfY6f29YAE8-8hoeQ24zFPpmJIz8zFOMVFuTycVgxF83KttPyAlpTojTnUp4FszuhJcBOpEpB5q1O2FNg06pKYU581MssVG8_32z7PwCH_4V5e0y9ioZMMec5D3jAzKWfr-Hl7746J_GvTU6AYmKDeUTx2IQf5DmOHqeNx5M7Be9iE9GYasj8K-LfeZ_mrj9l-NwSJSQ5nr-fIcmb-W5PqbIbkmjtbIJ-Rfnsgy3CgZxM4fAGocUMn-K0eETvrbjRg2Hvdh_CsU0lap2mfbuIgYElW5iqokZ-LBMzdknX8iA8K5i9_NGR-Vt7GKlhF1p7GOnVYKZtoLJAzy35Jiq9AUBoU4jWmaEotwmM1tfQzQjOjrenbQGmrxEwmBH1ay3UBH0IiYaMqBCVMk08Au8bPojFSm1kSKp3WXTQKGrgaT4uX3vCy0jnQJ32u-dI6NLsUb8NjDOrEHK7d99Kfwq0pmMr2-JwfYUp4FfHWb66HUb4zjBZ8SdC1IEpkZ1azZsxL0dO4b4GFf_NWUVg9YiCsNvNwbq3Rm2ODqgnxBVA0mHAaq9ftXVWXeN2F2F03Ot2FHN0ZgpOl05T-4hIgifTxAvwS8sRiIoh0716MbpSKE26XSBSnIxKNyVKvYPreVxAtOs3svIv0uLbLGxSqCMtlmnkvEIQuC3T0YVDMGag57QBv7G3fObpbHd8gMObUVf1cIbQftDSbArzbVRX0zjYrKymcPwOgj_fzqqDS_TWElnp4iodd-RtmSCi64pwi-2nDvpDfnF37Cgs1wMcv3AQJ1zxS-tfQetso4kDyr1cjm-3m3WE9lCZArHAv-rKr_lWxbDlEWZ6as3sz33ltplh_BpUobNQD2DwYstzPxOOOeaNfl4mYJLLyPbLwwbVFBP6Nt5RyuG4wspnpFvrvTiN9A9gyBhtj2QLO9v6S41nf9gl_D17Xut3qwZLHdcXRADZLzrOU9H9mgI-uEZO1TT67GlJgOFfD84vip1dTJ1dJM3EBSnv7Snv4vWB2tDH1tFH1ERImbpMmLmsWRcoC5TrC5TDOAujp7KTp7KJc1iBSrC7SzC01hLp6DIkWK7j9Z2MnQYEnQW9Yv5bCQfZCMh2OcHPZEfOZ9gm65aMepeMeoOiHfR5g8x5g0cBaMKngcCnEiRYyfEK_npxzhjakpJTe5TQEYtGbU3x6dhRgJeeq-_-pvxPnbY9huZjnzlESWTvq79-TO6ljvrlu3y0]--></g></svg>