<svg xmlns="http://www.w3.org/2000/svg" xmlns:xlink="http://www.w3.org/1999/xlink" contentStyleType="text/css" data-diagram-type="DESCRIPTION" height="504px" preserveAspectRatio="none" style="width:2422px;height:504px;background:#FFFFFF;" version="1.1" viewBox="0 0 2422 504" width="2422px" zoomAndPan="magnify"><title>WF-06 - AI-driven task execution with Work Sessions and multi-session resume (LOD0: Spine)</title><defs/><g><g class="title" data-source-line="31"><text fill="#000000" font-family="Arial" font-size="22" font-weight="bold" lengthAdjust="spacing" textLength="984.0811" x="714.5095" y="35.6357">WF-06 - AI-driven task execution with Work Sessions and multi-session resume (LOD0: Spine)</text></g><!--cluster Data Stores--><g class="cluster" data-entity="Data Stores" data-source-line="60" data-uid="ent0014" id="cluster_Data Stores"><path d="M2071.6,188.1279 L2150.4066,188.1279 A3.75,3.75 0 0 1 2152.9066,190.6279 L2159.9066,210.2265 L2412.6,210.2265 A2.5,2.5 0 0 1 2415.1,212.7265 L2415.1,297.8279 A2.5,2.5 0 0 1 2412.6,300.3279 L2071.6,300.3279 A2.5,2.5 0 0 1 2069.1,297.8279 L2069.1,190.6279 A2.5,2.5 0 0 1 2071.6,188.1279" fill="#F0F0F0" style="stroke:#000000;stroke-width:1;"/><line style="stroke:#000000;stroke-width:1;" x1="2069.1" x2="2159.9066" y1="210.2265" y2="210.2265"/><text fill="#000000" font-family="Arial" font-size="14" font-weight="bold" lengthAdjust="spacing" textLength="77.8066" x="2073.1" y="203.2597">Data Stores</text></g><!--cluster Uses Commands--><g class="cluster" data-entity="Uses Commands" data-source-line="67" data-uid="ent0017" id="cluster_Uses Commands"><path d="M1378.6,200.6779 L1493.1928,200.6779 A3.75,3.75 0 0 1 1495.6928,203.1779 L1502.6928,222.7765 L1520.6,222.7765 A2.5,2.5 0 0 1 1523.1,225.2765 L1523.1,495.3879 A2.5,2.5 0 0 1 1520.6,497.8879 L1378.6,497.8879 A2.5,2.5 0 0 1 1376.1,495.3879 L1376.1,203.1779 A2.5,2.5 0 0 1 1378.6,200.6779" fill="#E6F3FF" style="stroke:#000000;stroke-width:1;"/><line style="stroke:#000000;stroke-width:1;" x1="1376.1" x2="1502.6928" y1="222.7765" y2="222.7765"/><text fill="#000000" font-family="Arial" font-size="14" font-weight="bold" lengthAdjust="spacing" textLength="113.5928" x="1380.1" y="215.8097">Uses Commands</text></g><!--entity work_session_store--><g class="entity" data-entity="work_session_store" data-source-line="61" data-uid="ent0015" id="entity_work_session_store"><path d="M2085.24,233.1279 C2085.24,223.1279 2157.1018,223.1279 2157.1018,223.1279 C2157.1018,223.1279 2228.9636,223.1279 2228.9636,233.1279 L2228.9636,274.3251 C2228.9636,284.3251 2157.1018,284.3251 2157.1018,284.3251 C2157.1018,284.3251 2085.24,284.3251 2085.24,274.3251 L2085.24,233.1279" fill="#FFFFFF" style="stroke:#000000;stroke-width:1;"/><path d="M2085.24,233.1279 C2085.24,243.1279 2157.1018,243.1279 2157.1018,243.1279 C2157.1018,243.1279 2228.9636,243.1279 2228.9636,233.1279" fill="none" style="stroke:#000000;stroke-width:1;"/><text fill="#000000" font-family="Arial" font-size="14" lengthAdjust="spacing" textLength="123.7236" x="2095.24" y="260.2597">work_session_store</text><text fill="#000000" font-family="Arial" font-size="14" lengthAdjust="spacing" textLength="99.5996" x="2095.24" y="276.3583">./docs/sessions/</text></g><!--entity ai_transcript_store--><g class="entity" data-entity="ai_transcript_store" data-source-line="62" data-uid="ent0016" id="entity_ai_transcript_store"><path d="M2263.52,233.1279 C2263.52,223.1279 2331.1025,223.1279 2331.1025,223.1279 C2331.1025,223.1279 2398.685,223.1279 2398.685,233.1279 L2398.685,274.3251 C2398.685,284.3251 2331.1025,284.3251 2331.1025,284.3251 C2331.1025,284.3251 2263.52,284.3251 2263.52,274.3251 L2263.52,233.1279" fill="#FFFFFF" style="stroke:#000000;stroke-width:1;"/><path d="M2263.52,233.1279 C2263.52,243.1279 2331.1025,243.1279 2331.1025,243.1279 C2331.1025,243.1279 2398.685,243.1279 2398.685,233.1279" fill="none" style="stroke:#000000;stroke-width:1;"/><text fill="#000000" font-family="Arial" font-size="14" lengthAdjust="spacing" textLength="115.165" x="2273.52" y="260.2597">ai_transcript_store</text><text fill="#000000" font-family="Arial" font-size="14" lengthAdjust="spacing" textLength="85.5996" x="2273.52" y="276.3583">./docs/logs/ai/</text></g><!--entity uses_ai--><g class="entity" data-entity="uses_ai" data-source-line="68" data-uid="ent0018" id="entity_uses_ai"><a href="../generated/svg/CMD-ai.all_layers.lod0.svg" target="_top" title="../generated/svg/CMD-ai.all_layers.lod0.svg" xlink:actuate="onRequest" xlink:href="../generated/svg/CMD-ai.all_layers.lod0.svg" xlink:show="new" xlink:title="../generated/svg/CMD-ai.all_layers.lod0.svg" xlink:type="simple"><rect fill="#FFFFFF" height="36.0986" rx="2.5" ry="2.5" style="stroke:#000000;stroke-width:1;" width="30.8965" x="1391.66" y="235.6779"/><text fill="#000000" font-family="Arial" font-size="14" lengthAdjust="spacing" textLength="10.8965" x="1401.66" y="258.8097">ai</text></a></g><!--entity uses_work--><g class="entity" data-entity="uses_work" data-source-line="69" data-uid="ent0019" id="entity_uses_work"><a href="../generated/svg/CMD-work.all_layers.lod0.svg" target="_top" title="../generated/svg/CMD-work.all_layers.lod0.svg" xlink:actuate="onRequest" xlink:href="../generated/svg/CMD-work.all_layers.lod0.svg" xlink:show="new" xlink:title="../generated/svg/CMD-work.all_layers.lod0.svg" xlink:type="simple"><rect fill="#FFFFFF" height="36.0986" rx="2.5" ry="2.5" style="stroke:#000000;stroke-width:1;" width="49.5586" x="1457.32" y="235.6779"/><text fill="#000000" font-family="Arial" font-size="14" lengthAdjust="spacing" textLength="29.5586" x="1467.32" y="258.8097">work</text></a></g><!--entity uses_wsession--><g class="entity" data-entity="uses_wsession" data-source-line="70" data-uid="ent0020" id="entity_uses_wsession"><a href="../generated/svg/CMD-wsession.all_layers.lod0.svg" target="_top" title="../generated/svg/CMD-wsession.all_layers.lod0.svg" xlink:actuate="onRequest" xlink:href="../generated/svg/CMD-wsession.all_layers.lod0.svg" xlink:show="new" xlink:title="../generated/svg/CMD-wsession.all_layers.lod0.svg" xlink:type="simple"><rect fill="#FFFFFF" height="36.0986" rx="2.5" ry="2.5" style="stroke:#000000;stroke-width:1;" width="77.5791" x="1392.31" y="445.7879"/><text fill="#000000" font-family="Arial" font-size="14" lengthAdjust="spacing" textLength="57.5791" x="1402.31" y="468.9197">wsession</text></a></g><!--entity NOTE_ANCHOR--><g class="entity" data-entity="N1" data-source-line="17" data-uid="ent0006" id="entity_N1"><path d="M1541.85,211.3579 L1541.85,296.1015 L1732.348,296.1015 L1732.348,221.3579 L1722.348,211.3579 L1541.85,211.3579" fill="#FFFFCC" style="stroke:#CCCCCC;stroke-width:1;"/><path d="M1722.348,211.3579 L1722.348,221.3579 L1732.348,221.3579 L1722.348,211.3579" fill="#FFFFCC" style="stroke:#CCCCCC;stroke-width:1;"/><text fill="#000000" font-family="Arial" font-size="13" font-weight="bold" lengthAdjust="spacing" textLength="142.2891" x="1547.85" y="228.5517">Combined view (LOD0)</text><text fill="#000000" font-family="Arial" font-size="13" lengthAdjust="spacing" textLength="3.6118" x="1547.85" y="243.5004">&#160;</text><text fill="#000000" font-family="Arial" font-size="13" lengthAdjust="spacing" textLength="137.998" x="1547.85" y="258.4492">This diagram combines:</text><ellipse cx="1553.35" cy="268.6528" fill="#000000" rx="2.5" ry="2.5"/><text fill="#000000" font-family="Arial" font-size="13" lengthAdjust="spacing" textLength="157.498" x="1559.85" y="273.3979">Intent layer (workflow logic)</text><ellipse cx="1553.35" cy="283.6015" fill="#000000" rx="2.5" ry="2.5"/><text fill="#000000" font-family="Arial" font-size="13" lengthAdjust="spacing" textLength="124.2871" x="1559.85" y="288.3466">Command integration</text></g><g class="entity" data-entity="ACTIVITY_FLOW" data-source-line="38" data-uid="ent0010" id="entity_ACTIVITY_FLOW"><path d="M1767.56,121.6579 L1767.56,385.7863 L2050.6547,385.7863 L2050.6547,131.6579 L2040.6547,121.6579 L1767.56,121.6579" fill="#FFFFCC" style="stroke:#CCCCCC;stroke-width:1;"/><path d="M2040.6547,121.6579 L2040.6547,131.6579 L2050.6547,131.6579 L2040.6547,121.6579" fill="#FFFFCC" style="stroke:#CCCCCC;stroke-width:1;"/><text fill="#000000" font-family="Arial" font-size="13" lengthAdjust="spacing" textLength="221.9966" x="1773.56" y="138.8517">(*) --&gt; "Operator initiates work on task"</text><text fill="#000000" font-family="Arial" font-size="13" lengthAdjust="spacing" textLength="262.0947" x="1773.56" y="153.8004">if "Check if Work Session exists for task" then</text><text fill="#000000" font-family="Arial" font-size="13" lengthAdjust="spacing" textLength="58.1509" x="1780.7836" y="168.7492">--&gt;[yes] ...</text><text fill="#000000" font-family="Arial" font-size="13" lengthAdjust="spacing" textLength="52.3809" x="1780.7836" y="183.6979">--&gt;[no] ...</text><text fill="#000000" font-family="Arial" font-size="13" lengthAdjust="spacing" textLength="28.1899" x="1773.56" y="198.6466">endif</text><text fill="#000000" font-family="Arial" font-size="13" lengthAdjust="spacing" textLength="227.4619" x="1773.56" y="213.5954">if "Does AI emit progress update?" then</text><text fill="#000000" font-family="Arial" font-size="13" lengthAdjust="spacing" textLength="58.1509" x="1780.7836" y="228.5441">--&gt;[yes] ...</text><text fill="#000000" font-family="Arial" font-size="13" lengthAdjust="spacing" textLength="52.3809" x="1780.7836" y="243.4928">--&gt;[no] ...</text><text fill="#000000" font-family="Arial" font-size="13" lengthAdjust="spacing" textLength="28.1899" x="1773.56" y="258.4415">endif</text><text fill="#000000" font-family="Arial" font-size="13" lengthAdjust="spacing" textLength="171.1074" x="1773.56" y="273.3903">if "Continue AI session?" then</text><text fill="#000000" font-family="Arial" font-size="13" lengthAdjust="spacing" textLength="58.1509" x="1780.7836" y="288.339">--&gt;[yes] ...</text><text fill="#000000" font-family="Arial" font-size="13" lengthAdjust="spacing" textLength="52.3809" x="1780.7836" y="303.2877">--&gt;[no] ...</text><text fill="#000000" font-family="Arial" font-size="13" lengthAdjust="spacing" textLength="28.1899" x="1773.56" y="318.2365">endif</text><text fill="#000000" font-family="Arial" font-size="13" lengthAdjust="spacing" textLength="255.6392" x="1773.56" y="333.1852">if "Validate final JSON against schema" then</text><text fill="#000000" font-family="Arial" font-size="13" lengthAdjust="spacing" textLength="58.1509" x="1780.7836" y="348.1339">--&gt;[yes] ...</text><text fill="#000000" font-family="Arial" font-size="13" lengthAdjust="spacing" textLength="52.3809" x="1780.7836" y="363.0827">--&gt;[no] ...</text><text fill="#000000" font-family="Arial" font-size="13" lengthAdjust="spacing" textLength="28.1899" x="1773.56" y="378.0314">endif</text></g><!--link NOTE_ANCHOR to GMN3--><!--link NOTE_ANCHOR to GMN7--><!--SRC=[rLNHRjfA47ttLqpfGnDBsEHMoaCUMd4Xg5obK1NQgAAHDR77PiMoQ-skeT5L__tEBWw1Df7IFlKQ7c1dzkoPcRF7BzoIrWIrHA4YknAgHeDhkCLyLHdTg6AWfJRmSXIUWuo2Icoa6sdb9iW8VIDG7iJxnkXjk_brU0w24-teRsqACct683m_PZn6WhCY9vmak1vrU-VGXO5Utmf51LpX7HaB9rVJOUyqYXfBELg23gfygKq7qC9aEh_C-fF1k-d7Q2aAEbfGV2OOKIqTwF8e0X37CzsOd2xY61QBGkSstMgpAgNUsdJpLofCkYtJG2aHof5ooHsk9Jmxy-Oc8bM0vn3jc7YwP-7eVOKRGTkslZZc47_dIs6X45ZvhkMxH7lXjy4ue8FqRO6JUn8WTINoqv31m6laKpqF1d12gmCMB_x_skYFkuKH6rBWqAw0lb7U-2fXAzmIhhabC2DhUSM2RyIQQOkktIs18Tim_T3m2vZLtDhJw0-KINym7tyUpxzaewlfDRCuYK-Xstq3dMbDF5LkZr322NHamHy2UjUF3kUA4Zg39UKh_-km8TmiOPs5ahU7P60vADu17djnH_O6aYJPBoXz_vy9YhA57ce-ipy6MWi7jT4LzzH2KnTCvktlGGvOLa8rv67RIVqcqcUKmXE1KYYKyCziEW6iMEtMWSrP_FYhkFlPF2aIhzGUFq4ix_eVXp2RJp_4yLSrLXlFPqUZ2_lOmS1hLZrMR6b3T0WpdYpP3YFs_0V-PKmk1s-3w_b1Psr_CkjJlwea3K9hLsqQFF7dn2CS59apg6nkHEr-068hiIcA7SuZYT7tw9KN8WlouST35P_ur7iFydLSdezUZqQX3aEvGrN9G230ivtR30LVgoH9Ar9UsLIaTbEbW_V3Bee4fSo2sTb4wgANS8Ylon6Mh_K1BTo59_1yx5c8RUSEKE_juodaDlu4-lVsNaig7pMOoms_jrImcE3XYyNcBBKvAJH2PxtppC-1xsjsE5URh0kOiXw3q3Tdi7yRy1pPuvGBvX-AUpPatR1pVP2etAVtL_jtKF2B9UrFE7Ai_m00]--></g></svg>