<svg xmlns="http://www.w3.org/2000/svg" xmlns:xlink="http://www.w3.org/1999/xlink" contentStyleType="text/css" data-diagram-type="DESCRIPTION" height="520px" preserveAspectRatio="none" style="width:2071px;height:520px;background:#FFFFFF;" version="1.1" viewBox="0 0 2071 520" width="2071px" zoomAndPan="magnify"><title>WF-04 - Reactive compile error &#8594; Solutions match &#8594; immediate solution-task (LOD0: Spine)</title><defs/><g><g class="title" data-source-line="31"><text fill="#000000" font-family="Arial" font-size="22" font-weight="bold" lengthAdjust="spacing" textLength="966.9473" x="547.7214" y="35.6357">WF-04 - Reactive compile error &#8594; Solutions match &#8594; immediate solution-task (LOD0: Spine)</text></g><!--cluster Data Stores--><g class="cluster" data-entity="Data Stores" data-source-line="57" data-uid="ent0011" id="cluster_Data Stores"><path d="M1797.89,196.0979 L1876.6966,196.0979 A3.75,3.75 0 0 1 1879.1966,198.5979 L1886.1966,218.1965 L2061.89,218.1965 A2.5,2.5 0 0 1 2064.39,220.6965 L2064.39,305.7979 A2.5,2.5 0 0 1 2061.89,308.2979 L1797.89,308.2979 A2.5,2.5 0 0 1 1795.39,305.7979 L1795.39,198.5979 A2.5,2.5 0 0 1 1797.89,196.0979" fill="#F0F0F0" style="stroke:#000000;stroke-width:1;"/><line style="stroke:#000000;stroke-width:1;" x1="1795.39" x2="1886.1966" y1="218.1965" y2="218.1965"/><text fill="#000000" font-family="Arial" font-size="14" font-weight="bold" lengthAdjust="spacing" textLength="77.8066" x="1799.39" y="211.2297">Data Stores</text></g><!--cluster Uses Commands--><g class="cluster" data-entity="Uses Commands" data-source-line="63" data-uid="ent0014" id="cluster_Uses Commands"><path d="M1071.89,208.6479 L1186.4828,208.6479 A3.75,3.75 0 0 1 1188.9828,211.1479 L1195.9828,230.7465 L1263.89,230.7465 A2.5,2.5 0 0 1 1266.39,233.2465 L1266.39,510.8379 A2.5,2.5 0 0 1 1263.89,513.3379 L1071.89,513.3379 A2.5,2.5 0 0 1 1069.39,510.8379 L1069.39,211.1479 A2.5,2.5 0 0 1 1071.89,208.6479" fill="#E6F3FF" style="stroke:#000000;stroke-width:1;"/><line style="stroke:#000000;stroke-width:1;" x1="1069.39" x2="1195.9828" y1="230.7465" y2="230.7465"/><text fill="#000000" font-family="Arial" font-size="14" font-weight="bold" lengthAdjust="spacing" textLength="113.5928" x="1073.39" y="223.7797">Uses Commands</text></g><!--entity issues_store--><g class="entity" data-entity="issues_store" data-source-line="58" data-uid="ent0012" id="entity_issues_store"><path d="M1810.98,241.0979 C1810.98,231.0979 1863.3867,231.0979 1863.3867,231.0979 C1863.3867,231.0979 1915.7935,231.0979 1915.7935,241.0979 L1915.7935,282.2951 C1915.7935,292.2951 1863.3867,292.2951 1863.3867,292.2951 C1863.3867,292.2951 1810.98,292.2951 1810.98,282.2951 L1810.98,241.0979" fill="#FFFFFF" style="stroke:#000000;stroke-width:1;"/><path d="M1810.98,241.0979 C1810.98,251.0979 1863.3867,251.0979 1863.3867,251.0979 C1863.3867,251.0979 1915.7935,251.0979 1915.7935,241.0979" fill="none" style="stroke:#000000;stroke-width:1;"/><text fill="#000000" font-family="Arial" font-size="14" lengthAdjust="spacing" textLength="78.5928" x="1820.98" y="268.2297">issues_store</text><text fill="#000000" font-family="Arial" font-size="14" lengthAdjust="spacing" textLength="84.8135" x="1820.98" y="284.3283">./docs/issues/</text></g><!--entity tasks_store--><g class="entity" data-entity="tasks_store" data-source-line="59" data-uid="ent0013" id="entity_tasks_store"><path d="M1950.49,241.0979 C1950.49,231.0979 1999.3933,231.0979 1999.3933,231.0979 C1999.3933,231.0979 2048.2966,231.0979 2048.2966,241.0979 L2048.2966,282.2951 C2048.2966,292.2951 1999.3933,292.2951 1999.3933,292.2951 C1999.3933,292.2951 1950.49,292.2951 1950.49,282.2951 L1950.49,241.0979" fill="#FFFFFF" style="stroke:#000000;stroke-width:1;"/><path d="M1950.49,241.0979 C1950.49,251.0979 1999.3933,251.0979 1999.3933,251.0979 C1999.3933,251.0979 2048.2966,251.0979 2048.2966,241.0979" fill="none" style="stroke:#000000;stroke-width:1;"/><text fill="#000000" font-family="Arial" font-size="14" lengthAdjust="spacing" textLength="71.5859" x="1960.49" y="268.2297">tasks_store</text><text fill="#000000" font-family="Arial" font-size="14" lengthAdjust="spacing" textLength="77.8066" x="1960.49" y="284.3283">./docs/tasks/</text></g><!--entity uses_make--><g class="entity" data-entity="uses_make" data-source-line="64" data-uid="ent0015" id="entity_uses_make"><a href="../generated/svg/CMD-make.all_layers.lod0.svg" target="_top" title="../generated/svg/CMD-make.all_layers.lod0.svg" xlink:actuate="onRequest" xlink:href="../generated/svg/CMD-make.all_layers.lod0.svg" xlink:show="new" xlink:title="../generated/svg/CMD-make.all_layers.lod0.svg" xlink:type="simple"><rect fill="#FFFFFF" height="36.0986" rx="2.5" ry="2.5" style="stroke:#000000;stroke-width:1;" width="54.2344" x="1085.27" y="243.6479"/><text fill="#000000" font-family="Arial" font-size="14" lengthAdjust="spacing" textLength="34.2344" x="1095.27" y="266.7797">make</text></a></g><!--entity uses_solutions--><g class="entity" data-entity="uses_solutions" data-source-line="65" data-uid="ent0016" id="entity_uses_solutions"><a href="../generated/svg/CMD-solutions.all_layers.lod0.svg" target="_top" title="../generated/svg/CMD-solutions.all_layers.lod0.svg" xlink:actuate="onRequest" xlink:href="../generated/svg/CMD-solutions.all_layers.lod0.svg" xlink:show="new" xlink:title="../generated/svg/CMD-solutions.all_layers.lod0.svg" xlink:type="simple"><rect fill="#FFFFFF" height="36.0986" rx="2.5" ry="2.5" style="stroke:#000000;stroke-width:1;" width="75.2549" x="1174.76" y="243.6479"/><text fill="#000000" font-family="Arial" font-size="14" lengthAdjust="spacing" textLength="55.2549" x="1184.76" y="266.7797">solutions</text></a></g><!--entity uses_work--><g class="entity" data-entity="uses_work" data-source-line="66" data-uid="ent0017" id="entity_uses_work"><a href="../generated/svg/CMD-work.all_layers.lod0.svg" target="_top" title="../generated/svg/CMD-work.all_layers.lod0.svg" xlink:actuate="onRequest" xlink:href="../generated/svg/CMD-work.all_layers.lod0.svg" xlink:show="new" xlink:title="../generated/svg/CMD-work.all_layers.lod0.svg" xlink:type="simple"><rect fill="#FFFFFF" height="36.0986" rx="2.5" ry="2.5" style="stroke:#000000;stroke-width:1;" width="49.5586" x="1087.61" y="461.2379"/><text fill="#000000" font-family="Arial" font-size="14" lengthAdjust="spacing" textLength="29.5586" x="1097.61" y="484.3697">work</text></a></g><!--entity NOTE_ANCHOR--><g class="entity" data-entity="N1" data-source-line="17" data-uid="ent0006" id="entity_N1"><path d="M1285.14,219.3279 L1285.14,304.0715 L1475.638,304.0715 L1475.638,229.3279 L1465.638,219.3279 L1285.14,219.3279" fill="#FFFFCC" style="stroke:#CCCCCC;stroke-width:1;"/><path d="M1465.638,219.3279 L1465.638,229.3279 L1475.638,229.3279 L1465.638,219.3279" fill="#FFFFCC" style="stroke:#CCCCCC;stroke-width:1;"/><text fill="#000000" font-family="Arial" font-size="13" font-weight="bold" lengthAdjust="spacing" textLength="142.2891" x="1291.14" y="236.5217">Combined view (LOD0)</text><text fill="#000000" font-family="Arial" font-size="13" lengthAdjust="spacing" textLength="3.6118" x="1291.14" y="251.4704">&#160;</text><text fill="#000000" font-family="Arial" font-size="13" lengthAdjust="spacing" textLength="137.998" x="1291.14" y="266.4192">This diagram combines:</text><ellipse cx="1296.64" cy="276.6228" fill="#000000" rx="2.5" ry="2.5"/><text fill="#000000" font-family="Arial" font-size="13" lengthAdjust="spacing" textLength="157.498" x="1303.14" y="281.3679">Intent layer (workflow logic)</text><ellipse cx="1296.64" cy="291.5715" fill="#000000" rx="2.5" ry="2.5"/><text fill="#000000" font-family="Arial" font-size="13" lengthAdjust="spacing" textLength="124.2871" x="1303.14" y="296.3166">Command integration</text></g><g class="entity" data-entity="ACTIVITY_FLOW" data-source-line="38" data-uid="ent0010" id="entity_ACTIVITY_FLOW"><path d="M1511.05,122.1579 L1511.05,401.235 L1775.7238,401.235 L1775.7238,132.1579 L1765.7238,122.1579 L1511.05,122.1579" fill="#FFFFCC" style="stroke:#CCCCCC;stroke-width:1;"/><path d="M1765.7238,122.1579 L1765.7238,132.1579 L1775.7238,132.1579 L1765.7238,122.1579" fill="#FFFFCC" style="stroke:#CCCCCC;stroke-width:1;"/><text fill="#000000" font-family="Arial" font-size="13" lengthAdjust="spacing" textLength="243.6738" x="1517.05" y="139.3517">(*) --&gt; "Operator runs maestro make build"</text><text fill="#000000" font-family="Arial" font-size="13" lengthAdjust="spacing" textLength="129.1875" x="1517.05" y="154.3004">if "Branch Guard" then</text><text fill="#000000" font-family="Arial" font-size="13" lengthAdjust="spacing" textLength="58.1509" x="1524.2736" y="169.2492">--&gt;[yes] ...</text><text fill="#000000" font-family="Arial" font-size="13" lengthAdjust="spacing" textLength="52.3809" x="1524.2736" y="184.1979">--&gt;[no] ...</text><text fill="#000000" font-family="Arial" font-size="13" lengthAdjust="spacing" textLength="28.1899" x="1517.05" y="199.1466">endif</text><text fill="#000000" font-family="Arial" font-size="13" lengthAdjust="spacing" textLength="217.3184" x="1517.05" y="214.0954">if "Build fails with compile error?" then</text><text fill="#000000" font-family="Arial" font-size="13" lengthAdjust="spacing" textLength="58.1509" x="1524.2736" y="229.0441">--&gt;[yes] ...</text><text fill="#000000" font-family="Arial" font-size="13" lengthAdjust="spacing" textLength="52.3809" x="1524.2736" y="243.9928">--&gt;[no] ...</text><text fill="#000000" font-family="Arial" font-size="13" lengthAdjust="spacing" textLength="28.1899" x="1517.05" y="258.9415">endif</text><text fill="#000000" font-family="Arial" font-size="13" lengthAdjust="spacing" textLength="177.6201" x="1517.05" y="273.8903">if "Solution match found?" then</text><text fill="#000000" font-family="Arial" font-size="13" lengthAdjust="spacing" textLength="58.1509" x="1524.2736" y="288.839">--&gt;[yes] ...</text><text fill="#000000" font-family="Arial" font-size="13" lengthAdjust="spacing" textLength="52.3809" x="1524.2736" y="303.7877">--&gt;[no] ...</text><text fill="#000000" font-family="Arial" font-size="13" lengthAdjust="spacing" textLength="28.1899" x="1517.05" y="318.7365">endif</text><text fill="#000000" font-family="Arial" font-size="13" lengthAdjust="spacing" textLength="142.9238" x="1517.05" y="333.6852">if "Build succeeds?" then</text><text fill="#000000" font-family="Arial" font-size="13" lengthAdjust="spacing" textLength="58.1509" x="1524.2736" y="348.6339">--&gt;[yes] ...</text><text fill="#000000" font-family="Arial" font-size="13" lengthAdjust="spacing" textLength="52.3809" x="1524.2736" y="363.5827">--&gt;[no] ...</text><text fill="#000000" font-family="Arial" font-size="13" lengthAdjust="spacing" textLength="28.1899" x="1517.05" y="378.5314">endif</text><text fill="#000000" font-family="Arial" font-size="13" lengthAdjust="spacing" textLength="3.6118" x="1517.05" y="393.4801">&#160;</text></g><!--link NOTE_ANCHOR to GMN3--><!--SRC=[rLNTRjem5BxFKvonYnKa4hfMk-Z5AahBLed2LEYgYLMHIKx0mh6HxO2ggRTxW3tYdcJ79k6dQgMgkzaCKfJpy_axltbZPvWZB0JZCZ1pBXTCinmcB9bFjIfasb52QNZRzMV78iMC5S9sbRHzHWXjpPdOqRUrLglI-SYV7MLVMJnJEaLTMdJyUMpn50co2Yot0k6sssmTGnCwAfzmYIdqs3rg0mUzmNch7WI5mOGPX1gJoKpf6Z03_S7e8cxtEvy7ry6CfxWda7GdQ3wTML3PdWQWqHYgGYTuqcZ0U9ogn4GhfUUPK2iJBTz7N4UhBFAKGYujIXlUirp0YotlxWAKAJWEmPg9etlehzv4kEIuAkDhD4X5_z6C6qWvcxgi9Mj3S-BSuDAZWt1fWOEA10WrvKdTMn1mpkXMnuC0B5ToXyMR_xythf4bbY_HPMR1IO5qjORVFt_1K8d21MmWPpQPUHdFSwHSKl9DgMrQPkRhb9_0S479hGV_OAEqEwFBhvUZRt6tDxWb5WUDEZIR7w4sM23LbKBMXOyKZTMAddE4IS55MYDZda7jJBifWKy5qsaDgF2I5E0mnlTexY0Cmur0gkgTYF2iGd1ma34k3AoudUsd_FHre5MHoXfbhk2dVyFF54c2c9fNW6pJlg3cOrFQBEVCCXXIUj7Kg0LRxWS_o3ObnSGl7svCWIOspkYx32DVvxKmyYjfrs3FqtNUOqSlM_ljg8E7u9shDbKzs9AxCMYg2NVqBZvqZxfTJqzZOfcSKd5ghXKy7grB4_l668_3C9gYT9s3QMIMqwXpTTvqkf094Vk5OaAXqbP8Ich8FSHgTCmMTYDw3djZy98Bt9HiiTtRSx1EzmpYGpay0hCdf_XYIPy7wUVOhyhnU7aOcGGbqrp5hUDObwibBliyzds-2JNCKnZGZk2I2LWUGkNg1ht8QPZzjlMXlG9yKT3As8N_8fYqDrUzwbEmjoN-0000]--></g></svg>