<svg xmlns="http://www.w3.org/2000/svg" xmlns:xlink="http://www.w3.org/1999/xlink" contentStyleType="text/css" data-diagram-type="DESCRIPTION" height="1246px" preserveAspectRatio="none" style="width:3715px;height:1246px;background:#FFFFFF;" version="1.1" viewBox="0 0 3715 1246" width="3715px" zoomAndPan="magnify"><title>WF-01 - Existing Repo Bootstrap (Single Main, Compiled Language) (LOD0: Spine)</title><defs/><g><g class="title" data-source-line="31"><text fill="#000000" font-family="Arial" font-size="22" font-weight="bold" lengthAdjust="spacing" textLength="860.4707" x="1423.1306" y="35.6357">WF-01 - Existing Repo Bootstrap (Single Main, Compiled Language) (LOD0: Spine)</text></g><!--cluster Data Stores--><g class="cluster" data-entity="Data Stores" data-source-line="109" data-uid="ent0023" id="cluster_Data Stores"><path d="M2245.6,484.3079 L2324.4066,484.3079 A3.75,3.75 0 0 1 2326.9066,486.8079 L2333.9066,506.4065 L2872.6,506.4065 A2.5,2.5 0 0 1 2875.1,508.9065 L2875.1,1236.8379 A2.5,2.5 0 0 1 2872.6,1239.3379 L2245.6,1239.3379 A2.5,2.5 0 0 1 2243.1,1236.8379 L2243.1,486.8079 A2.5,2.5 0 0 1 2245.6,484.3079" fill="#F0F0F0" style="stroke:#000000;stroke-width:1;"/><line style="stroke:#000000;stroke-width:1;" x1="2243.1" x2="2333.9066" y1="506.4065" y2="506.4065"/><text fill="#000000" font-family="Arial" font-size="14" font-weight="bold" lengthAdjust="spacing" textLength="77.8066" x="2247.1" y="499.4397">Data Stores</text></g><!--cluster Uses Commands--><g class="cluster" data-entity="Uses Commands" data-source-line="121" data-uid="ent0031" id="cluster_Uses Commands"><path d="M2901.6,496.8579 L3016.1928,496.8579 A3.75,3.75 0 0 1 3018.6928,499.3579 L3025.6928,518.9565 L3174.6,518.9565 A2.5,2.5 0 0 1 3177.1,521.4565 L3177.1,1224.2879 A2.5,2.5 0 0 1 3174.6,1226.7879 L2901.6,1226.7879 A2.5,2.5 0 0 1 2899.1,1224.2879 L2899.1,499.3579 A2.5,2.5 0 0 1 2901.6,496.8579" fill="#E6F3FF" style="stroke:#000000;stroke-width:1;"/><line style="stroke:#000000;stroke-width:1;" x1="2899.1" x2="3025.6928" y1="518.9565" y2="518.9565"/><text fill="#000000" font-family="Arial" font-size="14" font-weight="bold" lengthAdjust="spacing" textLength="113.5928" x="2903.1" y="511.9897">Uses Commands</text></g><!--entity repo_truth--><g class="entity" data-entity="repo_truth" data-source-line="110" data-uid="ent0024" id="entity_repo_truth"><path d="M2277.25,529.3079 C2277.25,519.3079 2335.1016,519.3079 2335.1016,519.3079 C2335.1016,519.3079 2392.9531,519.3079 2392.9531,529.3079 L2392.9531,570.5051 C2392.9531,580.5051 2335.1016,580.5051 2335.1016,580.5051 C2335.1016,580.5051 2277.25,580.5051 2277.25,570.5051 L2277.25,529.3079" fill="#FFFFFF" style="stroke:#000000;stroke-width:1;"/><path d="M2277.25,529.3079 C2277.25,539.3079 2335.1016,539.3079 2335.1016,539.3079 C2335.1016,539.3079 2392.9531,539.3079 2392.9531,529.3079" fill="none" style="stroke:#000000;stroke-width:1;"/><text fill="#000000" font-family="Arial" font-size="14" lengthAdjust="spacing" textLength="63.8203" x="2287.25" y="556.4397">repo_truth</text><text fill="#000000" font-family="Arial" font-size="14" lengthAdjust="spacing" textLength="95.7031" x="2287.25" y="572.5383">./docs/maestro/</text></g><!--entity build_log--><g class="entity" data-entity="build_log" data-source-line="111" data-uid="ent0025" id="entity_build_log"><path d="M2428.41,529.3079 C2428.41,519.3079 2485.1063,519.3079 2485.1063,519.3079 C2485.1063,519.3079 2541.8026,519.3079 2541.8026,529.3079 L2541.8026,570.5051 C2541.8026,580.5051 2485.1063,580.5051 2485.1063,580.5051 C2485.1063,580.5051 2428.41,580.5051 2428.41,570.5051 L2428.41,529.3079" fill="#FFFFFF" style="stroke:#000000;stroke-width:1;"/><path d="M2428.41,529.3079 C2428.41,539.3079 2485.1063,539.3079 2485.1063,539.3079 C2485.1063,539.3079 2541.8026,539.3079 2541.8026,529.3079" fill="none" style="stroke:#000000;stroke-width:1;"/><text fill="#000000" font-family="Arial" font-size="14" lengthAdjust="spacing" textLength="56.0479" x="2438.41" y="556.4397">build_log</text><text fill="#000000" font-family="Arial" font-size="14" lengthAdjust="spacing" textLength="93.3926" x="2438.41" y="572.5383">./docs/build.log</text></g><!--entity runtime_log--><g class="entity" data-entity="runtime_log" data-source-line="112" data-uid="ent0026" id="entity_runtime_log"><path d="M2576.86,529.3079 C2576.86,519.3079 2642.108,519.3079 2642.108,519.3079 C2642.108,519.3079 2707.3561,519.3079 2707.3561,529.3079 L2707.3561,570.5051 C2707.3561,580.5051 2642.108,580.5051 2642.108,580.5051 C2642.108,580.5051 2576.86,580.5051 2576.86,570.5051 L2576.86,529.3079" fill="#FFFFFF" style="stroke:#000000;stroke-width:1;"/><path d="M2576.86,529.3079 C2576.86,539.3079 2642.108,539.3079 2642.108,539.3079 C2642.108,539.3079 2707.3561,539.3079 2707.3561,529.3079" fill="none" style="stroke:#000000;stroke-width:1;"/><text fill="#000000" font-family="Arial" font-size="14" lengthAdjust="spacing" textLength="73.1514" x="2586.86" y="556.4397">runtime_log</text><text fill="#000000" font-family="Arial" font-size="14" lengthAdjust="spacing" textLength="110.4961" x="2586.86" y="572.5383">./docs/runtime.log</text></g><!--entity task_store--><g class="entity" data-entity="task_store" data-source-line="113" data-uid="ent0027" id="entity_task_store"><path d="M2258.97,1050.9479 C2258.97,1040.9479 2335.1043,1040.9479 2335.1043,1040.9479 C2335.1043,1040.9479 2411.2386,1040.9479 2411.2386,1050.9479 L2411.2386,1092.1451 C2411.2386,1102.1451 2335.1043,1102.1451 2335.1043,1102.1451 C2335.1043,1102.1451 2258.97,1102.1451 2258.97,1092.1451 L2258.97,1050.9479" fill="#FFFFFF" style="stroke:#000000;stroke-width:1;"/><path d="M2258.97,1050.9479 C2258.97,1060.9479 2335.1043,1060.9479 2335.1043,1060.9479 C2335.1043,1060.9479 2411.2386,1060.9479 2411.2386,1050.9479" fill="none" style="stroke:#000000;stroke-width:1;"/><text fill="#000000" font-family="Arial" font-size="14" lengthAdjust="spacing" textLength="64.5859" x="2268.97" y="1078.0797">task_store</text><text fill="#000000" font-family="Arial" font-size="14" lengthAdjust="spacing" textLength="132.2686" x="2268.97" y="1094.1783">./docs/maestro/tasks/</text></g><!--entity issue_store--><g class="entity" data-entity="issue_store" data-source-line="114" data-uid="ent0028" id="entity_issue_store"><path d="M2446.47,1050.9479 C2446.47,1040.9479 2526.1077,1040.9479 2526.1077,1040.9479 C2526.1077,1040.9479 2605.7454,1040.9479 2605.7454,1050.9479 L2605.7454,1092.1451 C2605.7454,1102.1451 2526.1077,1102.1451 2526.1077,1102.1451 C2526.1077,1102.1451 2446.47,1102.1451 2446.47,1092.1451 L2446.47,1050.9479" fill="#FFFFFF" style="stroke:#000000;stroke-width:1;"/><path d="M2446.47,1050.9479 C2446.47,1060.9479 2526.1077,1060.9479 2526.1077,1060.9479 C2526.1077,1060.9479 2605.7454,1060.9479 2605.7454,1050.9479" fill="none" style="stroke:#000000;stroke-width:1;"/><text fill="#000000" font-family="Arial" font-size="14" lengthAdjust="spacing" textLength="71.5928" x="2456.47" y="1078.0797">issue_store</text><text fill="#000000" font-family="Arial" font-size="14" lengthAdjust="spacing" textLength="139.2754" x="2456.47" y="1094.1783">./docs/maestro/issues/</text></g><!--entity active_tasks_json--><g class="entity" data-entity="active_tasks_json" data-source-line="115" data-uid="ent0029" id="entity_active_tasks_json"><path d="M2640.9,1050.9479 C2640.9,1040.9479 2750.1065,1040.9479 2750.1065,1040.9479 C2750.1065,1040.9479 2859.3131,1040.9479 2859.3131,1050.9479 L2859.3131,1092.1451 C2859.3131,1102.1451 2750.1065,1102.1451 2750.1065,1102.1451 C2750.1065,1102.1451 2640.9,1102.1451 2640.9,1092.1451 L2640.9,1050.9479" fill="#FFFFFF" style="stroke:#000000;stroke-width:1;"/><path d="M2640.9,1050.9479 C2640.9,1060.9479 2750.1065,1060.9479 2750.1065,1060.9479 C2750.1065,1060.9479 2859.3131,1060.9479 2859.3131,1050.9479" fill="none" style="stroke:#000000;stroke-width:1;"/><text fill="#000000" font-family="Arial" font-size="14" lengthAdjust="spacing" textLength="110.5029" x="2650.9" y="1078.0797">active_tasks_json</text><text fill="#000000" font-family="Arial" font-size="14" lengthAdjust="spacing" textLength="198.4131" x="2650.9" y="1094.1783">./docs/maestro/tasks/active.json</text></g><!--entity completed_tasks_json--><g class="entity" data-entity="completed_tasks_json" data-source-line="116" data-uid="ent0030" id="entity_completed_tasks_json"><path d="M2258.89,1172.1379 C2258.89,1162.1379 2382.1068,1162.1379 2382.1068,1162.1379 C2382.1068,1162.1379 2505.3236,1162.1379 2505.3236,1172.1379 L2505.3236,1213.3351 C2505.3236,1223.3351 2382.1068,1223.3351 2382.1068,1223.3351 C2382.1068,1223.3351 2258.89,1223.3351 2258.89,1213.3351 L2258.89,1172.1379" fill="#FFFFFF" style="stroke:#000000;stroke-width:1;"/><path d="M2258.89,1172.1379 C2258.89,1182.1379 2382.1068,1182.1379 2382.1068,1182.1379 C2382.1068,1182.1379 2505.3236,1182.1379 2505.3236,1172.1379" fill="none" style="stroke:#000000;stroke-width:1;"/><text fill="#000000" font-family="Arial" font-size="14" lengthAdjust="spacing" textLength="138.5234" x="2268.89" y="1199.2697">completed_tasks_json</text><text fill="#000000" font-family="Arial" font-size="14" lengthAdjust="spacing" textLength="226.4336" x="2268.89" y="1215.3683">./docs/maestro/tasks/completed.json</text></g><!--entity uses_build--><g class="entity" data-entity="uses_build" data-source-line="122" data-uid="ent0032" id="entity_uses_build"><a href="../generated/svg/CMD-build.all_layers.lod0.svg" target="_top" title="../generated/svg/CMD-build.all_layers.lod0.svg" xlink:actuate="onRequest" xlink:href="../generated/svg/CMD-build.all_layers.lod0.svg" xlink:show="new" xlink:title="../generated/svg/CMD-build.all_layers.lod0.svg" xlink:type="simple"><rect fill="#FFFFFF" height="36.0986" rx="2.5" ry="2.5" style="stroke:#000000;stroke-width:1;" width="49.5791" x="2935.31" y="531.8579"/><text fill="#000000" font-family="Arial" font-size="14" lengthAdjust="spacing" textLength="29.5791" x="2945.31" y="554.9897">build</text></a></g><!--entity uses_discuss--><g class="entity" data-entity="uses_discuss" data-source-line="123" data-uid="ent0033" id="entity_uses_discuss"><a href="../generated/svg/CMD-discuss.all_layers.lod0.svg" target="_top" title="../generated/svg/CMD-discuss.all_layers.lod0.svg" xlink:actuate="onRequest" xlink:href="../generated/svg/CMD-discuss.all_layers.lod0.svg" xlink:show="new" xlink:title="../generated/svg/CMD-discuss.all_layers.lod0.svg" xlink:type="simple"><rect fill="#FFFFFF" height="36.0986" rx="2.5" ry="2.5" style="stroke:#000000;stroke-width:1;" width="66.6826" x="3019.76" y="531.8579"/><text fill="#000000" font-family="Arial" font-size="14" lengthAdjust="spacing" textLength="46.6826" x="3029.76" y="554.9897">discuss</text></a></g><!--entity uses_init--><g class="entity" data-entity="uses_init" data-source-line="124" data-uid="ent0034" id="entity_uses_init"><a href="../generated/svg/CMD-init.all_layers.lod0.svg" target="_top" title="../generated/svg/CMD-init.all_layers.lod0.svg" xlink:actuate="onRequest" xlink:href="../generated/svg/CMD-init.all_layers.lod0.svg" xlink:show="new" xlink:title="../generated/svg/CMD-init.all_layers.lod0.svg" xlink:type="simple"><rect fill="#FFFFFF" height="36.0986" rx="2.5" ry="2.5" style="stroke:#000000;stroke-width:1;" width="37.8965" x="3121.16" y="531.8579"/><text fill="#000000" font-family="Arial" font-size="14" lengthAdjust="spacing" textLength="17.8965" x="3131.16" y="554.9897">init</text></a></g><!--entity uses_reconstruct--><g class="entity" data-entity="uses_reconstruct" data-source-line="125" data-uid="ent0035" id="entity_uses_reconstruct"><a href="../generated/svg/CMD-reconstruct.all_layers.lod0.svg" target="_top" title="../generated/svg/CMD-reconstruct.all_layers.lod0.svg" xlink:actuate="onRequest" xlink:href="../generated/svg/CMD-reconstruct.all_layers.lod0.svg" xlink:show="new" xlink:title="../generated/svg/CMD-reconstruct.all_layers.lod0.svg" xlink:type="simple"><rect fill="#FFFFFF" height="36.0986" rx="2.5" ry="2.5" style="stroke:#000000;stroke-width:1;" width="89.248" x="2915.48" y="1053.4879"/><text fill="#000000" font-family="Arial" font-size="14" lengthAdjust="spacing" textLength="69.248" x="2925.48" y="1076.6197">reconstruct</text></a></g><!--entity uses_run--><g class="entity" data-entity="uses_run" data-source-line="126" data-uid="ent0036" id="entity_uses_run"><a href="../generated/svg/CMD-run.all_layers.lod0.svg" target="_top" title="../generated/svg/CMD-run.all_layers.lod0.svg" xlink:actuate="onRequest" xlink:href="../generated/svg/CMD-run.all_layers.lod0.svg" xlink:show="new" xlink:title="../generated/svg/CMD-run.all_layers.lod0.svg" xlink:type="simple"><rect fill="#FFFFFF" height="36.0986" rx="2.5" ry="2.5" style="stroke:#000000;stroke-width:1;" width="40.2344" x="3039.99" y="1053.4879"/><text fill="#000000" font-family="Arial" font-size="14" lengthAdjust="spacing" textLength="20.2344" x="3049.99" y="1076.6197">run</text></a></g><!--entity uses_task--><g class="entity" data-entity="uses_task" data-source-line="127" data-uid="ent0037" id="entity_uses_task"><a href="../generated/svg/CMD-task.all_layers.lod0.svg" target="_top" title="../generated/svg/CMD-task.all_layers.lod0.svg" xlink:actuate="onRequest" xlink:href="../generated/svg/CMD-task.all_layers.lod0.svg" xlink:show="new" xlink:title="../generated/svg/CMD-task.all_layers.lod0.svg" xlink:type="simple"><rect fill="#FFFFFF" height="36.0986" rx="2.5" ry="2.5" style="stroke:#000000;stroke-width:1;" width="45.6758" x="3115.27" y="1053.4879"/><text fill="#000000" font-family="Arial" font-size="14" lengthAdjust="spacing" textLength="25.6758" x="3125.27" y="1076.6197">task</text></a></g><!--entity uses_work--><g class="entity" data-entity="uses_work" data-source-line="128" data-uid="ent0038" id="entity_uses_work"><a href="../generated/svg/CMD-work.all_layers.lod0.svg" target="_top" title="../generated/svg/CMD-work.all_layers.lod0.svg" xlink:actuate="onRequest" xlink:href="../generated/svg/CMD-work.all_layers.lod0.svg" xlink:show="new" xlink:title="../generated/svg/CMD-work.all_layers.lod0.svg" xlink:type="simple"><rect fill="#FFFFFF" height="36.0986" rx="2.5" ry="2.5" style="stroke:#000000;stroke-width:1;" width="49.5586" x="2935.32" y="1174.6879"/><text fill="#000000" font-family="Arial" font-size="14" lengthAdjust="spacing" textLength="29.5586" x="2945.32" y="1197.8197">work</text></a></g><!--entity NOTE_ANCHOR--><g class="entity" data-entity="N1" data-source-line="17" data-uid="ent0006" id="entity_N1"><path d="M3193.85,507.5279 L3193.85,592.2715 L3384.348,592.2715 L3384.348,517.5279 L3374.348,507.5279 L3193.85,507.5279" fill="#FFFFCC" style="stroke:#CCCCCC;stroke-width:1;"/><path d="M3374.348,507.5279 L3374.348,517.5279 L3384.348,517.5279 L3374.348,507.5279" fill="#FFFFCC" style="stroke:#CCCCCC;stroke-width:1;"/><text fill="#000000" font-family="Arial" font-size="13" font-weight="bold" lengthAdjust="spacing" textLength="142.2891" x="3199.85" y="524.7217">Combined view (LOD0)</text><text fill="#000000" font-family="Arial" font-size="13" lengthAdjust="spacing" textLength="3.6118" x="3199.85" y="539.6704">&#160;</text><text fill="#000000" font-family="Arial" font-size="13" lengthAdjust="spacing" textLength="137.998" x="3199.85" y="554.6192">This diagram combines:</text><ellipse cx="3205.35" cy="564.8228" fill="#000000" rx="2.5" ry="2.5"/><text fill="#000000" font-family="Arial" font-size="13" lengthAdjust="spacing" textLength="157.498" x="3211.85" y="569.5679">Intent layer (workflow logic)</text><ellipse cx="3205.35" cy="579.7715" fill="#000000" rx="2.5" ry="2.5"/><text fill="#000000" font-family="Arial" font-size="13" lengthAdjust="spacing" textLength="124.2871" x="3211.85" y="584.5166">Command integration</text></g><g class="entity" data-entity="ACTIVITY_FLOW" data-source-line="38" data-uid="ent0010" id="entity_ACTIVITY_FLOW"><path d="M3419.48,118.8679 L3419.48,980.9455 L3708.732,980.9455 L3708.732,128.8679 L3698.732,118.8679 L3419.48,118.8679" fill="#FFFFCC" style="stroke:#CCCCCC;stroke-width:1;"/><path d="M3698.732,118.8679 L3698.732,128.8679 L3708.732,128.8679 L3698.732,118.8679" fill="#FFFFCC" style="stroke:#CCCCCC;stroke-width:1;"/><text fill="#000000" font-family="Arial" font-size="13" lengthAdjust="spacing" textLength="268.252" x="3425.48" y="136.0617">(*) --&gt; "Operator starts existing repo bootstrap"</text><text fill="#000000" font-family="Arial" font-size="13" lengthAdjust="spacing" textLength="159.5166" x="3425.48" y="151.0104">if "Verify git repository" then</text><text fill="#000000" font-family="Arial" font-size="13" lengthAdjust="spacing" textLength="58.1509" x="3432.7036" y="165.9592">--&gt;[yes] ...</text><text fill="#000000" font-family="Arial" font-size="13" lengthAdjust="spacing" textLength="52.3809" x="3432.7036" y="180.9079">--&gt;[no] ...</text><text fill="#000000" font-family="Arial" font-size="13" lengthAdjust="spacing" textLength="28.1899" x="3425.48" y="195.8566">endif</text><text fill="#000000" font-family="Arial" font-size="13" lengthAdjust="spacing" textLength="249.1201" x="3425.48" y="210.8054">if "Check if Maestro already initialized" then</text><text fill="#000000" font-family="Arial" font-size="13" lengthAdjust="spacing" textLength="58.1509" x="3432.7036" y="225.7541">--&gt;[yes] ...</text><text fill="#000000" font-family="Arial" font-size="13" lengthAdjust="spacing" textLength="52.3809" x="3432.7036" y="240.7028">--&gt;[no] ...</text><text fill="#000000" font-family="Arial" font-size="13" lengthAdjust="spacing" textLength="28.1899" x="3425.48" y="255.6515">endif</text><text fill="#000000" font-family="Arial" font-size="13" lengthAdjust="spacing" textLength="219.5273" x="3425.48" y="270.6003">if "Validate JSON understanding" then</text><text fill="#000000" font-family="Arial" font-size="13" lengthAdjust="spacing" textLength="58.1509" x="3432.7036" y="285.549">--&gt;[yes] ...</text><text fill="#000000" font-family="Arial" font-size="13" lengthAdjust="spacing" textLength="52.3809" x="3432.7036" y="300.4977">--&gt;[no] ...</text><text fill="#000000" font-family="Arial" font-size="13" lengthAdjust="spacing" textLength="28.1899" x="3425.48" y="315.4465">endif</text><text fill="#000000" font-family="Arial" font-size="13" lengthAdjust="spacing" textLength="194.9492" x="3425.48" y="330.3952">if "Is understanding correct?" then</text><text fill="#000000" font-family="Arial" font-size="13" lengthAdjust="spacing" textLength="58.1509" x="3432.7036" y="345.3439">--&gt;[yes] ...</text><text fill="#000000" font-family="Arial" font-size="13" lengthAdjust="spacing" textLength="52.3809" x="3432.7036" y="360.2927">--&gt;[no] ...</text><text fill="#000000" font-family="Arial" font-size="13" lengthAdjust="spacing" textLength="28.1899" x="3425.48" y="375.2414">endif</text><text fill="#000000" font-family="Arial" font-size="13" lengthAdjust="spacing" textLength="184.8184" x="3425.48" y="390.1901">if "Reconstruction strategy" then</text><text fill="#000000" font-family="Arial" font-size="13" lengthAdjust="spacing" textLength="58.1509" x="3432.7036" y="405.1388">--&gt;[yes] ...</text><text fill="#000000" font-family="Arial" font-size="13" lengthAdjust="spacing" textLength="52.3809" x="3432.7036" y="420.0876">--&gt;[no] ...</text><text fill="#000000" font-family="Arial" font-size="13" lengthAdjust="spacing" textLength="28.1899" x="3425.48" y="435.0363">endif</text><text fill="#000000" font-family="Arial" font-size="13" lengthAdjust="spacing" textLength="216.6011" x="3425.48" y="449.985">if "Are completed tasks correct?" then</text><text fill="#000000" font-family="Arial" font-size="13" lengthAdjust="spacing" textLength="58.1509" x="3432.7036" y="464.9338">--&gt;[yes] ...</text><text fill="#000000" font-family="Arial" font-size="13" lengthAdjust="spacing" textLength="52.3809" x="3432.7036" y="479.8825">--&gt;[no] ...</text><text fill="#000000" font-family="Arial" font-size="13" lengthAdjust="spacing" textLength="28.1899" x="3425.48" y="494.8312">endif</text><text fill="#000000" font-family="Arial" font-size="13" lengthAdjust="spacing" textLength="158.1011" x="3425.48" y="509.78">if "Did build succeed?" then</text><text fill="#000000" font-family="Arial" font-size="13" lengthAdjust="spacing" textLength="58.1509" x="3432.7036" y="524.7287">--&gt;[yes] ...</text><text fill="#000000" font-family="Arial" font-size="13" lengthAdjust="spacing" textLength="52.3809" x="3432.7036" y="539.6774">--&gt;[no] ...</text><text fill="#000000" font-family="Arial" font-size="13" lengthAdjust="spacing" textLength="28.1899" x="3425.48" y="554.6262">endif</text><text fill="#000000" font-family="Arial" font-size="13" lengthAdjust="spacing" textLength="140.0103" x="3425.48" y="569.5749">if "How to fix task?" then</text><text fill="#000000" font-family="Arial" font-size="13" lengthAdjust="spacing" textLength="58.1509" x="3432.7036" y="584.5236">--&gt;[yes] ...</text><text fill="#000000" font-family="Arial" font-size="13" lengthAdjust="spacing" textLength="52.3809" x="3432.7036" y="599.4723">--&gt;[no] ...</text><text fill="#000000" font-family="Arial" font-size="13" lengthAdjust="spacing" textLength="28.1899" x="3425.48" y="614.4211">endif</text><text fill="#000000" font-family="Arial" font-size="13" lengthAdjust="spacing" textLength="190.6455" x="3425.48" y="629.3698">if "Validate engine changes" then</text><text fill="#000000" font-family="Arial" font-size="13" lengthAdjust="spacing" textLength="58.1509" x="3432.7036" y="644.3185">--&gt;[yes] ...</text><text fill="#000000" font-family="Arial" font-size="13" lengthAdjust="spacing" textLength="52.3809" x="3432.7036" y="659.2673">--&gt;[no] ...</text><text fill="#000000" font-family="Arial" font-size="13" lengthAdjust="spacing" textLength="28.1899" x="3425.48" y="674.216">endif</text><text fill="#000000" font-family="Arial" font-size="13" lengthAdjust="spacing" textLength="169.6602" x="3425.48" y="689.1647">if "Did rebuild succeed?" then</text><text fill="#000000" font-family="Arial" font-size="13" lengthAdjust="spacing" textLength="58.1509" x="3432.7036" y="704.1135">--&gt;[yes] ...</text><text fill="#000000" font-family="Arial" font-size="13" lengthAdjust="spacing" textLength="52.3809" x="3432.7036" y="719.0622">--&gt;[no] ...</text><text fill="#000000" font-family="Arial" font-size="13" lengthAdjust="spacing" textLength="28.1899" x="3425.48" y="734.0109">endif</text><text fill="#000000" font-family="Arial" font-size="13" lengthAdjust="spacing" textLength="156.6284" x="3425.48" y="748.9596">if "More active tasks?" then</text><text fill="#000000" font-family="Arial" font-size="13" lengthAdjust="spacing" textLength="58.1509" x="3432.7036" y="763.9084">--&gt;[yes] ...</text><text fill="#000000" font-family="Arial" font-size="13" lengthAdjust="spacing" textLength="52.3809" x="3432.7036" y="778.8571">--&gt;[no] ...</text><text fill="#000000" font-family="Arial" font-size="13" lengthAdjust="spacing" textLength="28.1899" x="3425.48" y="793.8058">endif</text><text fill="#000000" font-family="Arial" font-size="13" lengthAdjust="spacing" textLength="147.2402" x="3425.48" y="808.7546">if "Attempt runtime?" then</text><text fill="#000000" font-family="Arial" font-size="13" lengthAdjust="spacing" textLength="58.1509" x="3432.7036" y="823.7033">--&gt;[yes] ...</text><text fill="#000000" font-family="Arial" font-size="13" lengthAdjust="spacing" textLength="52.3809" x="3432.7036" y="838.652">--&gt;[no] ...</text><text fill="#000000" font-family="Arial" font-size="13" lengthAdjust="spacing" textLength="28.1899" x="3425.48" y="853.6008">endif</text><text fill="#000000" font-family="Arial" font-size="13" lengthAdjust="spacing" textLength="194.9365" x="3425.48" y="868.5495">if "Runtime errors detected?" then</text><text fill="#000000" font-family="Arial" font-size="13" lengthAdjust="spacing" textLength="58.1509" x="3432.7036" y="883.4982">--&gt;[yes] ...</text><text fill="#000000" font-family="Arial" font-size="13" lengthAdjust="spacing" textLength="52.3809" x="3432.7036" y="898.447">--&gt;[no] ...</text><text fill="#000000" font-family="Arial" font-size="13" lengthAdjust="spacing" textLength="28.1899" x="3425.48" y="913.3957">endif</text><text fill="#000000" font-family="Arial" font-size="13" lengthAdjust="spacing" textLength="184.793" x="3425.48" y="928.3444">if "Fix runtime errors now?" then</text><text fill="#000000" font-family="Arial" font-size="13" lengthAdjust="spacing" textLength="58.1509" x="3432.7036" y="943.2931">--&gt;[yes] ...</text><text fill="#000000" font-family="Arial" font-size="13" lengthAdjust="spacing" textLength="52.3809" x="3432.7036" y="958.2419">--&gt;[no] ...</text><text fill="#000000" font-family="Arial" font-size="13" lengthAdjust="spacing" textLength="28.1899" x="3425.48" y="973.1906">endif</text></g><!--link NOTE_ANCHOR to GMN3--><!--link NOTE_ANCHOR to GMN7--><!--link NOTE_ANCHOR to GMN11--><!--link NOTE_ANCHOR to GMN14--><!--link NOTE_ANCHOR to GMN17--><!--SRC=[rLVVRzis47xtNt5r7nORY-Iqm1xoiC9rOYH3R1Tncc9m0u6HJZ8NYHH8ogutz7_VaRBrOuqnryt3fkJ1ujrzl3lU7J-zCalC4FAKST7HJrpaJB4C7bdub2XPY6WaKwdWzTWz3Oq8OrQaPYo5cJ9262hEqePyg9HSRutVkgSXd4g3xwMAK6qrHkxvfyPpJf1Mnt2J8dmQdmxEu1H6Cdla0YEuOHjK6avkPXU3NgTJQ0oPHkWo4IwbwWBJC9tTNGR3wUXgTjjPyWXR2uBs1CMJfG4PjoG0_VvS5Yh4ytuV5ej8XjfVI_KKftAj_TKRdoj_7VlE9OyBWy9u6vQbSB3cmqC7HGJMXqxfYNNtp6rTHRZYkDx6r- -JYFxlbbn3n5bYinQMYlhSci6rGuVKfWLETav0AXCUzfm60MUCThL-483XKZIyUFN_hutBBrmRBXAunLp2UocDDehbS3AdHTARK6W_spJaF7KL99A29TWhatmEyvpIsUly1qjZEBgxlh- - -pqOtym-aHSd_HwSdluAtLcET9AK4csOCXfmbm9bK_2uIq6NR7WCtNjKFDv0merJq9nCDrsWenUa0HPpiK7z09xdLGj2xjx9CHvleKPB39_ihmb3saC2InMoQ4FbnGrL0FyJe-EGxyauOXJuR_FP5EZGgSyD5Iw5THpWjMwZKESeXQ5vTnpSBOPIKCX5Q5i8R8AfeOvCur2XRUGyHKCbQPX-qZ_etWMFuB7WQGIw24F4w4YSAveUHaBClpYttltWOQ98gBiWN5BNeJu-D8Kl4Tn4KjuP7U0AowGVYJCq1hESkgaGXcTuR4MLre0qAkbEYwWMGdDqR6CwCTL657BztM3L5Dex3kqS7j3ZnkBLyFO2vdUp3_t-Pt7559sGaJbDPJ87LesS5uFbOcLBoms95mVTLkcBuQxABh3Z8cRsycdC-9mkDxg5gBgPOJ2dYMpRu_LuOF_WBm8cI_Reo8tDO42Jnom_2yztTqfMZb_VCPvQtZ9p7HCG5QYit8f7AywiahStAskePRTTgomREYrRsrE1jh5yuwXhjzBTMgjbpBKkS8-rastD6tej-xAl0xTHy8UMOeyFfPvdDHpUDtOjr6fA_pjmfLfZFsVT-ThvoTxYT9lNF-fw-AXHxqYRhOZBNyPlnsDN4VPwO8xJb6VhjY0Ah8DoE2uMdkSdA2mvmCZNgyGVJIvEorDdQHeucgZf6AE1Hr8Y7ItGYEkmqBg6tIxi0zwA3u6szA36jM_xGAti44HLtySrS6Dn7tv3vQ1j2j60ByHUs48S0cVBeCQpR_i0hUmGHCikQqJxjW_HolOWVjsIpXJZPzdlvOe-f8JZl-wZOh5OdVawHC4Kby7WBDWnqC3D8ksOTv0Hy_Qo26OqGhbWAQpEeFf4eGOgCgA_RZwweBuBDY-8Ndz8cJ0V9pVLnr5CdDXnwnQV_Xi0]--></g></svg>