<svg xmlns="http://www.w3.org/2000/svg" xmlns:xlink="http://www.w3.org/1999/xlink" contentStyleType="text/css" data-diagram-type="DESCRIPTION" height="1246px" preserveAspectRatio="none" style="width:3140px;height:1246px;background:#FFFFFF;" version="1.1" viewBox="0 0 3140 1246" width="3140px" zoomAndPan="magnify"><title>WF-01 - Existing Repo Bootstrap (Single Main, Compiled Language) (LOD0: Spine)</title><defs/><g><g class="title" data-source-line="8"><text fill="#000000" font-family="Arial" font-size="22" font-weight="bold" lengthAdjust="spacing" textLength="860.4707" x="1135.6306" y="35.6357">WF-01 - Existing Repo Bootstrap (Single Main, Compiled Language) (LOD0: Spine)</text></g><!--cluster Data Stores--><g class="cluster" data-entity="Data Stores" data-source-line="88" data-uid="ent0019" id="cluster_Data Stores"><path d="M1895.6,484.3079 L1974.4066,484.3079 A3.75,3.75 0 0 1 1976.9066,486.8079 L1983.9066,506.4065 L2522.6,506.4065 A2.5,2.5 0 0 1 2525.1,508.9065 L2525.1,1236.8379 A2.5,2.5 0 0 1 2522.6,1239.3379 L1895.6,1239.3379 A2.5,2.5 0 0 1 1893.1,1236.8379 L1893.1,486.8079 A2.5,2.5 0 0 1 1895.6,484.3079" fill="#F0F0F0" style="stroke:#000000;stroke-width:1;"/><line style="stroke:#000000;stroke-width:1;" x1="1893.1" x2="1983.9066" y1="506.4065" y2="506.4065"/><text fill="#000000" font-family="Arial" font-size="14" font-weight="bold" lengthAdjust="spacing" textLength="77.8066" x="1897.1" y="499.4397">Data Stores</text></g><!--cluster Uses Commands--><g class="cluster" data-entity="Uses Commands" data-source-line="100" data-uid="ent0027" id="cluster_Uses Commands"><path d="M2551.6,496.8579 L2666.1928,496.8579 A3.75,3.75 0 0 1 2668.6928,499.3579 L2675.6928,518.9565 L2824.6,518.9565 A2.5,2.5 0 0 1 2827.1,521.4565 L2827.1,1224.2879 A2.5,2.5 0 0 1 2824.6,1226.7879 L2551.6,1226.7879 A2.5,2.5 0 0 1 2549.1,1224.2879 L2549.1,499.3579 A2.5,2.5 0 0 1 2551.6,496.8579" fill="#E6F3FF" style="stroke:#000000;stroke-width:1;"/><line style="stroke:#000000;stroke-width:1;" x1="2549.1" x2="2675.6928" y1="518.9565" y2="518.9565"/><text fill="#000000" font-family="Arial" font-size="14" font-weight="bold" lengthAdjust="spacing" textLength="113.5928" x="2553.1" y="511.9897">Uses Commands</text></g><!--entity repo_truth--><g class="entity" data-entity="repo_truth" data-source-line="89" data-uid="ent0020" id="entity_repo_truth"><path d="M1927.25,529.3079 C1927.25,519.3079 1985.1016,519.3079 1985.1016,519.3079 C1985.1016,519.3079 2042.9531,519.3079 2042.9531,529.3079 L2042.9531,570.5051 C2042.9531,580.5051 1985.1016,580.5051 1985.1016,580.5051 C1985.1016,580.5051 1927.25,580.5051 1927.25,570.5051 L1927.25,529.3079" fill="#FFFFFF" style="stroke:#000000;stroke-width:1;"/><path d="M1927.25,529.3079 C1927.25,539.3079 1985.1016,539.3079 1985.1016,539.3079 C1985.1016,539.3079 2042.9531,539.3079 2042.9531,529.3079" fill="none" style="stroke:#000000;stroke-width:1;"/><text fill="#000000" font-family="Arial" font-size="14" lengthAdjust="spacing" textLength="63.8203" x="1937.25" y="556.4397">repo_truth</text><text fill="#000000" font-family="Arial" font-size="14" lengthAdjust="spacing" textLength="95.7031" x="1937.25" y="572.5383">./docs/maestro/</text></g><!--entity build_log--><g class="entity" data-entity="build_log" data-source-line="90" data-uid="ent0021" id="entity_build_log"><path d="M2078.41,529.3079 C2078.41,519.3079 2135.1063,519.3079 2135.1063,519.3079 C2135.1063,519.3079 2191.8026,519.3079 2191.8026,529.3079 L2191.8026,570.5051 C2191.8026,580.5051 2135.1063,580.5051 2135.1063,580.5051 C2135.1063,580.5051 2078.41,580.5051 2078.41,570.5051 L2078.41,529.3079" fill="#FFFFFF" style="stroke:#000000;stroke-width:1;"/><path d="M2078.41,529.3079 C2078.41,539.3079 2135.1063,539.3079 2135.1063,539.3079 C2135.1063,539.3079 2191.8026,539.3079 2191.8026,529.3079" fill="none" style="stroke:#000000;stroke-width:1;"/><text fill="#000000" font-family="Arial" font-size="14" lengthAdjust="spacing" textLength="56.0479" x="2088.41" y="556.4397">build_log</text><text fill="#000000" font-family="Arial" font-size="14" lengthAdjust="spacing" textLength="93.3926" x="2088.41" y="572.5383">./docs/build.log</text></g><!--entity runtime_log--><g class="entity" data-entity="runtime_log" data-source-line="91" data-uid="ent0022" id="entity_runtime_log"><path d="M2226.86,529.3079 C2226.86,519.3079 2292.108,519.3079 2292.108,519.3079 C2292.108,519.3079 2357.3561,519.3079 2357.3561,529.3079 L2357.3561,570.5051 C2357.3561,580.5051 2292.108,580.5051 2292.108,580.5051 C2292.108,580.5051 2226.86,580.5051 2226.86,570.5051 L2226.86,529.3079" fill="#FFFFFF" style="stroke:#000000;stroke-width:1;"/><path d="M2226.86,529.3079 C2226.86,539.3079 2292.108,539.3079 2292.108,539.3079 C2292.108,539.3079 2357.3561,539.3079 2357.3561,529.3079" fill="none" style="stroke:#000000;stroke-width:1;"/><text fill="#000000" font-family="Arial" font-size="14" lengthAdjust="spacing" textLength="73.1514" x="2236.86" y="556.4397">runtime_log</text><text fill="#000000" font-family="Arial" font-size="14" lengthAdjust="spacing" textLength="110.4961" x="2236.86" y="572.5383">./docs/runtime.log</text></g><!--entity task_store--><g class="entity" data-entity="task_store" data-source-line="92" data-uid="ent0023" id="entity_task_store"><path d="M1908.97,1050.9479 C1908.97,1040.9479 1985.1043,1040.9479 1985.1043,1040.9479 C1985.1043,1040.9479 2061.2386,1040.9479 2061.2386,1050.9479 L2061.2386,1092.1451 C2061.2386,1102.1451 1985.1043,1102.1451 1985.1043,1102.1451 C1985.1043,1102.1451 1908.97,1102.1451 1908.97,1092.1451 L1908.97,1050.9479" fill="#FFFFFF" style="stroke:#000000;stroke-width:1;"/><path d="M1908.97,1050.9479 C1908.97,1060.9479 1985.1043,1060.9479 1985.1043,1060.9479 C1985.1043,1060.9479 2061.2386,1060.9479 2061.2386,1050.9479" fill="none" style="stroke:#000000;stroke-width:1;"/><text fill="#000000" font-family="Arial" font-size="14" lengthAdjust="spacing" textLength="64.5859" x="1918.97" y="1078.0797">task_store</text><text fill="#000000" font-family="Arial" font-size="14" lengthAdjust="spacing" textLength="132.2686" x="1918.97" y="1094.1783">./docs/maestro/tasks/</text></g><!--entity issue_store--><g class="entity" data-entity="issue_store" data-source-line="93" data-uid="ent0024" id="entity_issue_store"><path d="M2096.47,1050.9479 C2096.47,1040.9479 2176.1077,1040.9479 2176.1077,1040.9479 C2176.1077,1040.9479 2255.7454,1040.9479 2255.7454,1050.9479 L2255.7454,1092.1451 C2255.7454,1102.1451 2176.1077,1102.1451 2176.1077,1102.1451 C2176.1077,1102.1451 2096.47,1102.1451 2096.47,1092.1451 L2096.47,1050.9479" fill="#FFFFFF" style="stroke:#000000;stroke-width:1;"/><path d="M2096.47,1050.9479 C2096.47,1060.9479 2176.1077,1060.9479 2176.1077,1060.9479 C2176.1077,1060.9479 2255.7454,1060.9479 2255.7454,1050.9479" fill="none" style="stroke:#000000;stroke-width:1;"/><text fill="#000000" font-family="Arial" font-size="14" lengthAdjust="spacing" textLength="71.5928" x="2106.47" y="1078.0797">issue_store</text><text fill="#000000" font-family="Arial" font-size="14" lengthAdjust="spacing" textLength="139.2754" x="2106.47" y="1094.1783">./docs/maestro/issues/</text></g><!--entity active_tasks_json--><g class="entity" data-entity="active_tasks_json" data-source-line="94" data-uid="ent0025" id="entity_active_tasks_json"><path d="M2290.9,1050.9479 C2290.9,1040.9479 2400.1065,1040.9479 2400.1065,1040.9479 C2400.1065,1040.9479 2509.3131,1040.9479 2509.3131,1050.9479 L2509.3131,1092.1451 C2509.3131,1102.1451 2400.1065,1102.1451 2400.1065,1102.1451 C2400.1065,1102.1451 2290.9,1102.1451 2290.9,1092.1451 L2290.9,1050.9479" fill="#FFFFFF" style="stroke:#000000;stroke-width:1;"/><path d="M2290.9,1050.9479 C2290.9,1060.9479 2400.1065,1060.9479 2400.1065,1060.9479 C2400.1065,1060.9479 2509.3131,1060.9479 2509.3131,1050.9479" fill="none" style="stroke:#000000;stroke-width:1;"/><text fill="#000000" font-family="Arial" font-size="14" lengthAdjust="spacing" textLength="110.5029" x="2300.9" y="1078.0797">active_tasks_json</text><text fill="#000000" font-family="Arial" font-size="14" lengthAdjust="spacing" textLength="198.4131" x="2300.9" y="1094.1783">./docs/maestro/tasks/active.json</text></g><!--entity completed_tasks_json--><g class="entity" data-entity="completed_tasks_json" data-source-line="95" data-uid="ent0026" id="entity_completed_tasks_json"><path d="M1908.89,1172.1379 C1908.89,1162.1379 2032.1068,1162.1379 2032.1068,1162.1379 C2032.1068,1162.1379 2155.3236,1162.1379 2155.3236,1172.1379 L2155.3236,1213.3351 C2155.3236,1223.3351 2032.1068,1223.3351 2032.1068,1223.3351 C2032.1068,1223.3351 1908.89,1223.3351 1908.89,1213.3351 L1908.89,1172.1379" fill="#FFFFFF" style="stroke:#000000;stroke-width:1;"/><path d="M1908.89,1172.1379 C1908.89,1182.1379 2032.1068,1182.1379 2032.1068,1182.1379 C2032.1068,1182.1379 2155.3236,1182.1379 2155.3236,1172.1379" fill="none" style="stroke:#000000;stroke-width:1;"/><text fill="#000000" font-family="Arial" font-size="14" lengthAdjust="spacing" textLength="138.5234" x="1918.89" y="1199.2697">completed_tasks_json</text><text fill="#000000" font-family="Arial" font-size="14" lengthAdjust="spacing" textLength="226.4336" x="1918.89" y="1215.3683">./docs/maestro/tasks/completed.json</text></g><!--entity uses_build--><g class="entity" data-entity="uses_build" data-source-line="101" data-uid="ent0028" id="entity_uses_build"><a href="../generated/svg/CMD-build.all_layers.lod0.svg" target="_top" title="../generated/svg/CMD-build.all_layers.lod0.svg" xlink:actuate="onRequest" xlink:href="../generated/svg/CMD-build.all_layers.lod0.svg" xlink:show="new" xlink:title="../generated/svg/CMD-build.all_layers.lod0.svg" xlink:type="simple"><rect fill="#FFFFFF" height="36.0986" rx="2.5" ry="2.5" style="stroke:#000000;stroke-width:1;" width="49.5791" x="2585.31" y="531.8579"/><text fill="#000000" font-family="Arial" font-size="14" lengthAdjust="spacing" textLength="29.5791" x="2595.31" y="554.9897">build</text></a></g><!--entity uses_discuss--><g class="entity" data-entity="uses_discuss" data-source-line="102" data-uid="ent0029" id="entity_uses_discuss"><a href="../generated/svg/CMD-discuss.all_layers.lod0.svg" target="_top" title="../generated/svg/CMD-discuss.all_layers.lod0.svg" xlink:actuate="onRequest" xlink:href="../generated/svg/CMD-discuss.all_layers.lod0.svg" xlink:show="new" xlink:title="../generated/svg/CMD-discuss.all_layers.lod0.svg" xlink:type="simple"><rect fill="#FFFFFF" height="36.0986" rx="2.5" ry="2.5" style="stroke:#000000;stroke-width:1;" width="66.6826" x="2669.76" y="531.8579"/><text fill="#000000" font-family="Arial" font-size="14" lengthAdjust="spacing" textLength="46.6826" x="2679.76" y="554.9897">discuss</text></a></g><!--entity uses_init--><g class="entity" data-entity="uses_init" data-source-line="103" data-uid="ent0030" id="entity_uses_init"><a href="../generated/svg/CMD-init.all_layers.lod0.svg" target="_top" title="../generated/svg/CMD-init.all_layers.lod0.svg" xlink:actuate="onRequest" xlink:href="../generated/svg/CMD-init.all_layers.lod0.svg" xlink:show="new" xlink:title="../generated/svg/CMD-init.all_layers.lod0.svg" xlink:type="simple"><rect fill="#FFFFFF" height="36.0986" rx="2.5" ry="2.5" style="stroke:#000000;stroke-width:1;" width="37.8965" x="2771.16" y="531.8579"/><text fill="#000000" font-family="Arial" font-size="14" lengthAdjust="spacing" textLength="17.8965" x="2781.16" y="554.9897">init</text></a></g><!--entity uses_reconstruct--><g class="entity" data-entity="uses_reconstruct" data-source-line="104" data-uid="ent0031" id="entity_uses_reconstruct"><a href="../generated/svg/CMD-reconstruct.all_layers.lod0.svg" target="_top" title="../generated/svg/CMD-reconstruct.all_layers.lod0.svg" xlink:actuate="onRequest" xlink:href="../generated/svg/CMD-reconstruct.all_layers.lod0.svg" xlink:show="new" xlink:title="../generated/svg/CMD-reconstruct.all_layers.lod0.svg" xlink:type="simple"><rect fill="#FFFFFF" height="36.0986" rx="2.5" ry="2.5" style="stroke:#000000;stroke-width:1;" width="89.248" x="2565.48" y="1053.4879"/><text fill="#000000" font-family="Arial" font-size="14" lengthAdjust="spacing" textLength="69.248" x="2575.48" y="1076.6197">reconstruct</text></a></g><!--entity uses_run--><g class="entity" data-entity="uses_run" data-source-line="105" data-uid="ent0032" id="entity_uses_run"><a href="../generated/svg/CMD-run.all_layers.lod0.svg" target="_top" title="../generated/svg/CMD-run.all_layers.lod0.svg" xlink:actuate="onRequest" xlink:href="../generated/svg/CMD-run.all_layers.lod0.svg" xlink:show="new" xlink:title="../generated/svg/CMD-run.all_layers.lod0.svg" xlink:type="simple"><rect fill="#FFFFFF" height="36.0986" rx="2.5" ry="2.5" style="stroke:#000000;stroke-width:1;" width="40.2344" x="2689.99" y="1053.4879"/><text fill="#000000" font-family="Arial" font-size="14" lengthAdjust="spacing" textLength="20.2344" x="2699.99" y="1076.6197">run</text></a></g><!--entity uses_task--><g class="entity" data-entity="uses_task" data-source-line="106" data-uid="ent0033" id="entity_uses_task"><a href="../generated/svg/CMD-task.all_layers.lod0.svg" target="_top" title="../generated/svg/CMD-task.all_layers.lod0.svg" xlink:actuate="onRequest" xlink:href="../generated/svg/CMD-task.all_layers.lod0.svg" xlink:show="new" xlink:title="../generated/svg/CMD-task.all_layers.lod0.svg" xlink:type="simple"><rect fill="#FFFFFF" height="36.0986" rx="2.5" ry="2.5" style="stroke:#000000;stroke-width:1;" width="45.6758" x="2765.27" y="1053.4879"/><text fill="#000000" font-family="Arial" font-size="14" lengthAdjust="spacing" textLength="25.6758" x="2775.27" y="1076.6197">task</text></a></g><!--entity uses_work--><g class="entity" data-entity="uses_work" data-source-line="107" data-uid="ent0034" id="entity_uses_work"><a href="../generated/svg/CMD-work.all_layers.lod0.svg" target="_top" title="../generated/svg/CMD-work.all_layers.lod0.svg" xlink:actuate="onRequest" xlink:href="../generated/svg/CMD-work.all_layers.lod0.svg" xlink:show="new" xlink:title="../generated/svg/CMD-work.all_layers.lod0.svg" xlink:type="simple"><rect fill="#FFFFFF" height="36.0986" rx="2.5" ry="2.5" style="stroke:#000000;stroke-width:1;" width="49.5586" x="2585.32" y="1174.6879"/><text fill="#000000" font-family="Arial" font-size="14" lengthAdjust="spacing" textLength="29.5586" x="2595.32" y="1197.8197">work</text></a></g><!--entity NOTE_ANCHOR--><g class="entity" data-entity="ACTIVITY_FLOW" data-source-line="17" data-uid="ent0006" id="entity_ACTIVITY_FLOW"><path d="M2844.48,118.8679 L2844.48,980.9455 L3133.732,980.9455 L3133.732,128.8679 L3123.732,118.8679 L2844.48,118.8679" fill="#FFFFCC" style="stroke:#CCCCCC;stroke-width:1;"/><path d="M3123.732,118.8679 L3123.732,128.8679 L3133.732,128.8679 L3123.732,118.8679" fill="#FFFFCC" style="stroke:#CCCCCC;stroke-width:1;"/><text fill="#000000" font-family="Arial" font-size="13" lengthAdjust="spacing" textLength="268.252" x="2850.48" y="136.0617">(*) --&gt; "Operator starts existing repo bootstrap"</text><text fill="#000000" font-family="Arial" font-size="13" lengthAdjust="spacing" textLength="159.5166" x="2850.48" y="151.0104">if "Verify git repository" then</text><text fill="#000000" font-family="Arial" font-size="13" lengthAdjust="spacing" textLength="58.1509" x="2857.7036" y="165.9592">--&gt;[yes] ...</text><text fill="#000000" font-family="Arial" font-size="13" lengthAdjust="spacing" textLength="52.3809" x="2857.7036" y="180.9079">--&gt;[no] ...</text><text fill="#000000" font-family="Arial" font-size="13" lengthAdjust="spacing" textLength="28.1899" x="2850.48" y="195.8566">endif</text><text fill="#000000" font-family="Arial" font-size="13" lengthAdjust="spacing" textLength="249.1201" x="2850.48" y="210.8054">if "Check if Maestro already initialized" then</text><text fill="#000000" font-family="Arial" font-size="13" lengthAdjust="spacing" textLength="58.1509" x="2857.7036" y="225.7541">--&gt;[yes] ...</text><text fill="#000000" font-family="Arial" font-size="13" lengthAdjust="spacing" textLength="52.3809" x="2857.7036" y="240.7028">--&gt;[no] ...</text><text fill="#000000" font-family="Arial" font-size="13" lengthAdjust="spacing" textLength="28.1899" x="2850.48" y="255.6515">endif</text><text fill="#000000" font-family="Arial" font-size="13" lengthAdjust="spacing" textLength="219.5273" x="2850.48" y="270.6003">if "Validate JSON understanding" then</text><text fill="#000000" font-family="Arial" font-size="13" lengthAdjust="spacing" textLength="58.1509" x="2857.7036" y="285.549">--&gt;[yes] ...</text><text fill="#000000" font-family="Arial" font-size="13" lengthAdjust="spacing" textLength="52.3809" x="2857.7036" y="300.4977">--&gt;[no] ...</text><text fill="#000000" font-family="Arial" font-size="13" lengthAdjust="spacing" textLength="28.1899" x="2850.48" y="315.4465">endif</text><text fill="#000000" font-family="Arial" font-size="13" lengthAdjust="spacing" textLength="194.9492" x="2850.48" y="330.3952">if "Is understanding correct?" then</text><text fill="#000000" font-family="Arial" font-size="13" lengthAdjust="spacing" textLength="58.1509" x="2857.7036" y="345.3439">--&gt;[yes] ...</text><text fill="#000000" font-family="Arial" font-size="13" lengthAdjust="spacing" textLength="52.3809" x="2857.7036" y="360.2927">--&gt;[no] ...</text><text fill="#000000" font-family="Arial" font-size="13" lengthAdjust="spacing" textLength="28.1899" x="2850.48" y="375.2414">endif</text><text fill="#000000" font-family="Arial" font-size="13" lengthAdjust="spacing" textLength="184.8184" x="2850.48" y="390.1901">if "Reconstruction strategy" then</text><text fill="#000000" font-family="Arial" font-size="13" lengthAdjust="spacing" textLength="58.1509" x="2857.7036" y="405.1388">--&gt;[yes] ...</text><text fill="#000000" font-family="Arial" font-size="13" lengthAdjust="spacing" textLength="52.3809" x="2857.7036" y="420.0876">--&gt;[no] ...</text><text fill="#000000" font-family="Arial" font-size="13" lengthAdjust="spacing" textLength="28.1899" x="2850.48" y="435.0363">endif</text><text fill="#000000" font-family="Arial" font-size="13" lengthAdjust="spacing" textLength="216.6011" x="2850.48" y="449.985">if "Are completed tasks correct?" then</text><text fill="#000000" font-family="Arial" font-size="13" lengthAdjust="spacing" textLength="58.1509" x="2857.7036" y="464.9338">--&gt;[yes] ...</text><text fill="#000000" font-family="Arial" font-size="13" lengthAdjust="spacing" textLength="52.3809" x="2857.7036" y="479.8825">--&gt;[no] ...</text><text fill="#000000" font-family="Arial" font-size="13" lengthAdjust="spacing" textLength="28.1899" x="2850.48" y="494.8312">endif</text><text fill="#000000" font-family="Arial" font-size="13" lengthAdjust="spacing" textLength="158.1011" x="2850.48" y="509.78">if "Did build succeed?" then</text><text fill="#000000" font-family="Arial" font-size="13" lengthAdjust="spacing" textLength="58.1509" x="2857.7036" y="524.7287">--&gt;[yes] ...</text><text fill="#000000" font-family="Arial" font-size="13" lengthAdjust="spacing" textLength="52.3809" x="2857.7036" y="539.6774">--&gt;[no] ...</text><text fill="#000000" font-family="Arial" font-size="13" lengthAdjust="spacing" textLength="28.1899" x="2850.48" y="554.6262">endif</text><text fill="#000000" font-family="Arial" font-size="13" lengthAdjust="spacing" textLength="140.0103" x="2850.48" y="569.5749">if "How to fix task?" then</text><text fill="#000000" font-family="Arial" font-size="13" lengthAdjust="spacing" textLength="58.1509" x="2857.7036" y="584.5236">--&gt;[yes] ...</text><text fill="#000000" font-family="Arial" font-size="13" lengthAdjust="spacing" textLength="52.3809" x="2857.7036" y="599.4723">--&gt;[no] ...</text><text fill="#000000" font-family="Arial" font-size="13" lengthAdjust="spacing" textLength="28.1899" x="2850.48" y="614.4211">endif</text><text fill="#000000" font-family="Arial" font-size="13" lengthAdjust="spacing" textLength="190.6455" x="2850.48" y="629.3698">if "Validate engine changes" then</text><text fill="#000000" font-family="Arial" font-size="13" lengthAdjust="spacing" textLength="58.1509" x="2857.7036" y="644.3185">--&gt;[yes] ...</text><text fill="#000000" font-family="Arial" font-size="13" lengthAdjust="spacing" textLength="52.3809" x="2857.7036" y="659.2673">--&gt;[no] ...</text><text fill="#000000" font-family="Arial" font-size="13" lengthAdjust="spacing" textLength="28.1899" x="2850.48" y="674.216">endif</text><text fill="#000000" font-family="Arial" font-size="13" lengthAdjust="spacing" textLength="169.6602" x="2850.48" y="689.1647">if "Did rebuild succeed?" then</text><text fill="#000000" font-family="Arial" font-size="13" lengthAdjust="spacing" textLength="58.1509" x="2857.7036" y="704.1135">--&gt;[yes] ...</text><text fill="#000000" font-family="Arial" font-size="13" lengthAdjust="spacing" textLength="52.3809" x="2857.7036" y="719.0622">--&gt;[no] ...</text><text fill="#000000" font-family="Arial" font-size="13" lengthAdjust="spacing" textLength="28.1899" x="2850.48" y="734.0109">endif</text><text fill="#000000" font-family="Arial" font-size="13" lengthAdjust="spacing" textLength="156.6284" x="2850.48" y="748.9596">if "More active tasks?" then</text><text fill="#000000" font-family="Arial" font-size="13" lengthAdjust="spacing" textLength="58.1509" x="2857.7036" y="763.9084">--&gt;[yes] ...</text><text fill="#000000" font-family="Arial" font-size="13" lengthAdjust="spacing" textLength="52.3809" x="2857.7036" y="778.8571">--&gt;[no] ...</text><text fill="#000000" font-family="Arial" font-size="13" lengthAdjust="spacing" textLength="28.1899" x="2850.48" y="793.8058">endif</text><text fill="#000000" font-family="Arial" font-size="13" lengthAdjust="spacing" textLength="147.2402" x="2850.48" y="808.7546">if "Attempt runtime?" then</text><text fill="#000000" font-family="Arial" font-size="13" lengthAdjust="spacing" textLength="58.1509" x="2857.7036" y="823.7033">--&gt;[yes] ...</text><text fill="#000000" font-family="Arial" font-size="13" lengthAdjust="spacing" textLength="52.3809" x="2857.7036" y="838.652">--&gt;[no] ...</text><text fill="#000000" font-family="Arial" font-size="13" lengthAdjust="spacing" textLength="28.1899" x="2850.48" y="853.6008">endif</text><text fill="#000000" font-family="Arial" font-size="13" lengthAdjust="spacing" textLength="194.9365" x="2850.48" y="868.5495">if "Runtime errors detected?" then</text><text fill="#000000" font-family="Arial" font-size="13" lengthAdjust="spacing" textLength="58.1509" x="2857.7036" y="883.4982">--&gt;[yes] ...</text><text fill="#000000" font-family="Arial" font-size="13" lengthAdjust="spacing" textLength="52.3809" x="2857.7036" y="898.447">--&gt;[no] ...</text><text fill="#000000" font-family="Arial" font-size="13" lengthAdjust="spacing" textLength="28.1899" x="2850.48" y="913.3957">endif</text><text fill="#000000" font-family="Arial" font-size="13" lengthAdjust="spacing" textLength="184.793" x="2850.48" y="928.3444">if "Fix runtime errors now?" then</text><text fill="#000000" font-family="Arial" font-size="13" lengthAdjust="spacing" textLength="58.1509" x="2857.7036" y="943.2931">--&gt;[yes] ...</text><text fill="#000000" font-family="Arial" font-size="13" lengthAdjust="spacing" textLength="52.3809" x="2857.7036" y="958.2419">--&gt;[no] ...</text><text fill="#000000" font-family="Arial" font-size="13" lengthAdjust="spacing" textLength="28.1899" x="2850.48" y="973.1906">endif</text></g><!--link NOTE_ANCHOR to GMN3--><!--link NOTE_ANCHOR to GMN7--><!--link NOTE_ANCHOR to GMN10--><!--link NOTE_ANCHOR to GMN13--><!--SRC=[hLVVRzis47xtNt5p7vOOi-IiG1_wqC9rOYH3R1Tncc9m0u6HJZ9dYHH8ogutz7_VaR8jQOqmrutoOlBkFjwHz-FBBsQ96KAUCYuwUiL5pXJBu8c5gqJ9GaGZcKe5hyRkgsb46BCYDMCfp9GHmb1nbjRaGwNaPcVysdqruLGQ_21LX6gdCNBVVpMUSuAqEeQR5E7pk3-uW3vSVUNQS9707UOIFaXfj54iXxCvRPBUX4Bx3KOootcA4TmoaHGimNCukvrT3jx2FES2ppkTGcF8D4ANYN0fLHUOXkdi_YeOJaVNixlEaaVOs13a8oYUB0t8k241wFNcib0XlktrOB68PAZzZLIhE9KRxQz_zxdoDx7lGl2uC2YCjsLP2aThFZvsK4HWVUYKdf2xmz7zpSFD_P_1-7RscRmuwvr3l_yEkhCS5JDqXzemPJJW_iwKlREd_PrroOR7q7r0nUCj9Dmu1St9TDi5oXL16c0n5rlKZ-1vtc53oFsQ7EFn3cgqn71bVqqOqXaIMAgGHLlWWXjA6VutHgSXFv1nn2ZmF-QpAL2MeABeI44afm7Uw2OAX58f3Ctxq-3kC9I2GYv2mwK0Uy46anElSQYGtCdo50tbi65wfN_IlKiUmLF1qmXq4OQ8qOaurt83HaBClpgttl_aOw98g1mXN5APeZuzD8Kl4Tn4qhqpUi0rbfT-8ixG6CnoggP269xXgHbLMWDIRrMQMh2XvpyvjZ6zc6eY2hdvOR135sfjXxPn3-XpRV5wU7S9y_lPnrxlYxXcYbx8o9pQE9a3ExIS5uFbOcrJopM95mVTPUcBuQxBAh3j8cPsMjLwV4xJaCOMPJSp3ERKaMrvl1eFx1_yGy1aoPxS1BCt653dCSilmlFTJCdAzkkxiLR96sQkOe9K9WShj-FHZZCxo9k7bJdKiDlj7InhEWrRMrE1jh5yvwWhjzBTIgjXpBKkiCNQoNRcDRs6VLdNWJie-4jBqU93gUTP3OVtdLq3zT2b_n_ue5fXFsVT-TRvrKvnckRLZoeVFcdKbjvaDBLiHboz6RyUZrr6sF7070agtzOTGJn71sLpN2mypqzGM7A0aQ_NYJ-QNFRBLsTf6gHiI_EGdZ4QU2Gbqj40ZRWE2wqhsDr66_1EV0oqfGSLhbsrWLhPCOYgciSLS6sp3R-cSjGnXQZ15w8LjX37mDaqgF3igWtGoev1jEooGhIhDaGhQq7yjYETASRFij-hDR5buVYlNTC9wmjVXoYOuZ8ON0Hx1XguNgGTLGyoekfU5i6CMYWNB8Nr1Up9iAN6HKRqr_L75zGFmUO5qUkFAHFcq-GM8iuI-tz6J9pOSUiwd_uN]--></g></svg>