<svg xmlns="http://www.w3.org/2000/svg" xmlns:xlink="http://www.w3.org/1999/xlink" contentStyleType="text/css" data-diagram-type="DESCRIPTION" height="455px" preserveAspectRatio="none" style="width:1495px;height:455px;background:#FFFFFF;" version="1.1" viewBox="0 0 1495 455" width="1495px" zoomAndPan="magnify"><title>WF-04 - Reactive compile error &#8594; Solutions match &#8594; immediate solution-task (LOD0: Spine)</title><defs/><g><g class="title" data-source-line="8"><text fill="#000000" font-family="Arial" font-size="22" font-weight="bold" lengthAdjust="spacing" textLength="966.9473" x="259.7214" y="35.6357">WF-04 - Reactive compile error &#8594; Solutions match &#8594; immediate solution-task (LOD0: Spine)</text></g><!--cluster Data Stores--><g class="cluster" data-entity="Data Stores" data-source-line="36" data-uid="ent0007" id="cluster_Data Stores"><path d="M1221.89,131.2379 L1300.6966,131.2379 A3.75,3.75 0 0 1 1303.1966,133.7379 L1310.1966,153.3365 L1485.89,153.3365 A2.5,2.5 0 0 1 1488.39,155.8365 L1488.39,240.9379 A2.5,2.5 0 0 1 1485.89,243.4379 L1221.89,243.4379 A2.5,2.5 0 0 1 1219.39,240.9379 L1219.39,133.7379 A2.5,2.5 0 0 1 1221.89,131.2379" fill="#F0F0F0" style="stroke:#000000;stroke-width:1;"/><line style="stroke:#000000;stroke-width:1;" x1="1219.39" x2="1310.1966" y1="153.3365" y2="153.3365"/><text fill="#000000" font-family="Arial" font-size="14" font-weight="bold" lengthAdjust="spacing" textLength="77.8066" x="1223.39" y="146.3697">Data Stores</text></g><!--cluster Uses Commands--><g class="cluster" data-entity="Uses Commands" data-source-line="42" data-uid="ent0010" id="cluster_Uses Commands"><path d="M721.89,143.7879 L836.4828,143.7879 A3.75,3.75 0 0 1 838.9828,146.2879 L845.9828,165.8865 L913.89,165.8865 A2.5,2.5 0 0 1 916.39,168.3865 L916.39,445.9779 A2.5,2.5 0 0 1 913.89,448.4779 L721.89,448.4779 A2.5,2.5 0 0 1 719.39,445.9779 L719.39,146.2879 A2.5,2.5 0 0 1 721.89,143.7879" fill="#E6F3FF" style="stroke:#000000;stroke-width:1;"/><line style="stroke:#000000;stroke-width:1;" x1="719.39" x2="845.9828" y1="165.8865" y2="165.8865"/><text fill="#000000" font-family="Arial" font-size="14" font-weight="bold" lengthAdjust="spacing" textLength="113.5928" x="723.39" y="158.9197">Uses Commands</text></g><!--entity issues_store--><g class="entity" data-entity="issues_store" data-source-line="37" data-uid="ent0008" id="entity_issues_store"><path d="M1234.98,176.2379 C1234.98,166.2379 1287.3867,166.2379 1287.3867,166.2379 C1287.3867,166.2379 1339.7935,166.2379 1339.7935,176.2379 L1339.7935,217.4351 C1339.7935,227.4351 1287.3867,227.4351 1287.3867,227.4351 C1287.3867,227.4351 1234.98,227.4351 1234.98,217.4351 L1234.98,176.2379" fill="#FFFFFF" style="stroke:#000000;stroke-width:1;"/><path d="M1234.98,176.2379 C1234.98,186.2379 1287.3867,186.2379 1287.3867,186.2379 C1287.3867,186.2379 1339.7935,186.2379 1339.7935,176.2379" fill="none" style="stroke:#000000;stroke-width:1;"/><text fill="#000000" font-family="Arial" font-size="14" lengthAdjust="spacing" textLength="78.5928" x="1244.98" y="203.3697">issues_store</text><text fill="#000000" font-family="Arial" font-size="14" lengthAdjust="spacing" textLength="84.8135" x="1244.98" y="219.4683">./docs/issues/</text></g><!--entity tasks_store--><g class="entity" data-entity="tasks_store" data-source-line="38" data-uid="ent0009" id="entity_tasks_store"><path d="M1374.49,176.2379 C1374.49,166.2379 1423.3933,166.2379 1423.3933,166.2379 C1423.3933,166.2379 1472.2966,166.2379 1472.2966,176.2379 L1472.2966,217.4351 C1472.2966,227.4351 1423.3933,227.4351 1423.3933,227.4351 C1423.3933,227.4351 1374.49,227.4351 1374.49,217.4351 L1374.49,176.2379" fill="#FFFFFF" style="stroke:#000000;stroke-width:1;"/><path d="M1374.49,176.2379 C1374.49,186.2379 1423.3933,186.2379 1423.3933,186.2379 C1423.3933,186.2379 1472.2966,186.2379 1472.2966,176.2379" fill="none" style="stroke:#000000;stroke-width:1;"/><text fill="#000000" font-family="Arial" font-size="14" lengthAdjust="spacing" textLength="71.5859" x="1384.49" y="203.3697">tasks_store</text><text fill="#000000" font-family="Arial" font-size="14" lengthAdjust="spacing" textLength="77.8066" x="1384.49" y="219.4683">./docs/tasks/</text></g><!--entity uses_make--><g class="entity" data-entity="uses_make" data-source-line="43" data-uid="ent0011" id="entity_uses_make"><a href="../generated/svg/CMD-make.all_layers.lod0.svg" target="_top" title="../generated/svg/CMD-make.all_layers.lod0.svg" xlink:actuate="onRequest" xlink:href="../generated/svg/CMD-make.all_layers.lod0.svg" xlink:show="new" xlink:title="../generated/svg/CMD-make.all_layers.lod0.svg" xlink:type="simple"><rect fill="#FFFFFF" height="36.0986" rx="2.5" ry="2.5" style="stroke:#000000;stroke-width:1;" width="54.2344" x="735.27" y="178.7879"/><text fill="#000000" font-family="Arial" font-size="14" lengthAdjust="spacing" textLength="34.2344" x="745.27" y="201.9197">make</text></a></g><!--entity uses_solutions--><g class="entity" data-entity="uses_solutions" data-source-line="44" data-uid="ent0012" id="entity_uses_solutions"><a href="../generated/svg/CMD-solutions.all_layers.lod0.svg" target="_top" title="../generated/svg/CMD-solutions.all_layers.lod0.svg" xlink:actuate="onRequest" xlink:href="../generated/svg/CMD-solutions.all_layers.lod0.svg" xlink:show="new" xlink:title="../generated/svg/CMD-solutions.all_layers.lod0.svg" xlink:type="simple"><rect fill="#FFFFFF" height="36.0986" rx="2.5" ry="2.5" style="stroke:#000000;stroke-width:1;" width="75.2549" x="824.76" y="178.7879"/><text fill="#000000" font-family="Arial" font-size="14" lengthAdjust="spacing" textLength="55.2549" x="834.76" y="201.9197">solutions</text></a></g><!--entity uses_work--><g class="entity" data-entity="uses_work" data-source-line="45" data-uid="ent0013" id="entity_uses_work"><a href="../generated/svg/CMD-work.all_layers.lod0.svg" target="_top" title="../generated/svg/CMD-work.all_layers.lod0.svg" xlink:actuate="onRequest" xlink:href="../generated/svg/CMD-work.all_layers.lod0.svg" xlink:show="new" xlink:title="../generated/svg/CMD-work.all_layers.lod0.svg" xlink:type="simple"><rect fill="#FFFFFF" height="36.0986" rx="2.5" ry="2.5" style="stroke:#000000;stroke-width:1;" width="49.5586" x="737.61" y="396.3779"/><text fill="#000000" font-family="Arial" font-size="14" lengthAdjust="spacing" textLength="29.5586" x="747.61" y="419.5097">work</text></a></g><!--entity NOTE_ANCHOR--><g class="entity" data-entity="ACTIVITY_FLOW" data-source-line="17" data-uid="ent0006" id="entity_ACTIVITY_FLOW"><path d="M935.05,57.2979 L935.05,336.375 L1199.7238,336.375 L1199.7238,67.2979 L1189.7238,57.2979 L935.05,57.2979" fill="#FFFFCC" style="stroke:#CCCCCC;stroke-width:1;"/><path d="M1189.7238,57.2979 L1189.7238,67.2979 L1199.7238,67.2979 L1189.7238,57.2979" fill="#FFFFCC" style="stroke:#CCCCCC;stroke-width:1;"/><text fill="#000000" font-family="Arial" font-size="13" lengthAdjust="spacing" textLength="243.6738" x="941.05" y="74.4917">(*) --&gt; "Operator runs maestro make build"</text><text fill="#000000" font-family="Arial" font-size="13" lengthAdjust="spacing" textLength="129.1875" x="941.05" y="89.4404">if "Branch Guard" then</text><text fill="#000000" font-family="Arial" font-size="13" lengthAdjust="spacing" textLength="58.1509" x="948.2736" y="104.3892">--&gt;[yes] ...</text><text fill="#000000" font-family="Arial" font-size="13" lengthAdjust="spacing" textLength="52.3809" x="948.2736" y="119.3379">--&gt;[no] ...</text><text fill="#000000" font-family="Arial" font-size="13" lengthAdjust="spacing" textLength="28.1899" x="941.05" y="134.2866">endif</text><text fill="#000000" font-family="Arial" font-size="13" lengthAdjust="spacing" textLength="217.3184" x="941.05" y="149.2354">if "Build fails with compile error?" then</text><text fill="#000000" font-family="Arial" font-size="13" lengthAdjust="spacing" textLength="58.1509" x="948.2736" y="164.1841">--&gt;[yes] ...</text><text fill="#000000" font-family="Arial" font-size="13" lengthAdjust="spacing" textLength="52.3809" x="948.2736" y="179.1328">--&gt;[no] ...</text><text fill="#000000" font-family="Arial" font-size="13" lengthAdjust="spacing" textLength="28.1899" x="941.05" y="194.0815">endif</text><text fill="#000000" font-family="Arial" font-size="13" lengthAdjust="spacing" textLength="177.6201" x="941.05" y="209.0303">if "Solution match found?" then</text><text fill="#000000" font-family="Arial" font-size="13" lengthAdjust="spacing" textLength="58.1509" x="948.2736" y="223.979">--&gt;[yes] ...</text><text fill="#000000" font-family="Arial" font-size="13" lengthAdjust="spacing" textLength="52.3809" x="948.2736" y="238.9277">--&gt;[no] ...</text><text fill="#000000" font-family="Arial" font-size="13" lengthAdjust="spacing" textLength="28.1899" x="941.05" y="253.8765">endif</text><text fill="#000000" font-family="Arial" font-size="13" lengthAdjust="spacing" textLength="142.9238" x="941.05" y="268.8252">if "Build succeeds?" then</text><text fill="#000000" font-family="Arial" font-size="13" lengthAdjust="spacing" textLength="58.1509" x="948.2736" y="283.7739">--&gt;[yes] ...</text><text fill="#000000" font-family="Arial" font-size="13" lengthAdjust="spacing" textLength="52.3809" x="948.2736" y="298.7227">--&gt;[no] ...</text><text fill="#000000" font-family="Arial" font-size="13" lengthAdjust="spacing" textLength="28.1899" x="941.05" y="313.6714">endif</text><text fill="#000000" font-family="Arial" font-size="13" lengthAdjust="spacing" textLength="3.6118" x="941.05" y="328.6201">&#160;</text></g><!--SRC=[fLHDJnin4BtlhvXk3uL8sGq5zS2XA0IsHOAa8b1KfMXbrhCRAruxihs9KCMrFw0_iR-aOvDF11AYcqFaUS_FOy-RUUV6M2DC9HCgiXEXfiom6kvOCQcCRXJlQQaDlC_2jy7WMB96kamhrsUaq3M2oGsyQuoUBpRlXsy3x6k7nzfmD0j6BtnF6SybGQp82ISHRh9svm3QS8ciS6A6KEXwAWX0Ejh0tzz_OAXbuuHM5chcYd68YRf6BfX3i0kqxPYTmCxvuAHp2CEfKBWRHOt5Wbc4cAbYh4qCp49_S7MQT_kzhuFBQ2muRWKKPGn6L6C7kjn205gjeMvCWOUj5en6N1SsdMipAQMUstJsCHKcdPTfk50Yb4FbadjMItWry_OsGiN1vn0zPaBfTdjNPz_FhdxasVdWXhBOQUr2k_qPui4K3NFqHgO9JuFM6Kt_4uIxHaWU4rcK41yRVtduqZ33Oo2dA0B0QupkqTv2aYIhWDBBDIKYogM2buEI2MbXBjnukqP7RnDTLdLHrD8xvEX_yhDDKI1o-mQHzRDFoQsi8iESCCTWIC-BDYRFTlmFVX6N4t0NF2MiRT3crfD-gYGDTNuCfi5fcuIjdTwgJpU6sEE-3JXwY3xuQbFLetLornOjz7HTCyLzUgUVilqi2-aPB1nJ5HKdzbO8UjG5DW_668sI9ArGUUSWJ-siIdiN9ssF9KpANB9xD3QHcdSI0icGMuhBNhDhsLNe9UqLuJK7-2vPQ_lLIx8UUq7nOT4y4ijdk_XqHbslGX_xDPqmsqjjWOePeVFEGMuMioXV-3mFFbzTDQav36X62CKapFPWkTKtUbDJCpFF2bTxW_YqeP6nAVzDCkMkByw1vbr5KtLpIlm3]--></g></svg>