<svg xmlns="http://www.w3.org/2000/svg" xmlns:xlink="http://www.w3.org/1999/xlink" contentStyleType="text/css" data-diagram-type="DESCRIPTION" height="665px" preserveAspectRatio="none" style="width:2082px;height:665px;background:#FFFFFF;" version="1.1" viewBox="0 0 2082 665" width="2082px" zoomAndPan="magnify"><title>WF-05 - Repo Resolve &#8212; packages, conventions, build targets, and derived issues/tasks (LOD0: Spine)</title><defs/><g><g class="title" data-source-line="31"><text fill="#000000" font-family="Arial" font-size="22" font-weight="bold" lengthAdjust="spacing" textLength="1077.0547" x="498.1677" y="35.6357">WF-05 - Repo Resolve &#8212; packages, conventions, build targets, and derived issues/tasks (LOD0: Spine)</text></g><!--cluster Data Stores--><g class="cluster" data-entity="Data Stores" data-source-line="65" data-uid="ent0011" id="cluster_Data Stores"><path d="M1070.89,255.8979 L1149.6966,255.8979 A3.75,3.75 0 0 1 1152.1966,258.3979 L1159.1966,277.9965 L1439.89,277.9965 A2.5,2.5 0 0 1 1442.39,280.4965 L1442.39,655.5279 A2.5,2.5 0 0 1 1439.89,658.0279 L1070.89,658.0279 A2.5,2.5 0 0 1 1068.39,655.5279 L1068.39,258.3979 A2.5,2.5 0 0 1 1070.89,255.8979" fill="#F0F0F0" style="stroke:#000000;stroke-width:1;"/><line style="stroke:#000000;stroke-width:1;" x1="1068.39" x2="1159.1966" y1="277.9965" y2="277.9965"/><text fill="#000000" font-family="Arial" font-size="14" font-weight="bold" lengthAdjust="spacing" textLength="77.8066" x="1072.39" y="271.0297">Data Stores</text></g><!--cluster Uses Commands--><g class="cluster" data-entity="Uses Commands" data-source-line="72" data-uid="ent0015" id="cluster_Uses Commands"><path d="M1948.89,268.4479 L2063.4828,268.4479 A3.75,3.75 0 0 1 2065.9828,270.9479 L2072.9828,290.5465 L2072.89,290.5465 A2.5,2.5 0 0 1 2075.39,293.0465 L2075.39,353.0479 A2.5,2.5 0 0 1 2072.89,355.5479 L1948.89,355.5479 A2.5,2.5 0 0 1 1946.39,353.0479 L1946.39,270.9479 A2.5,2.5 0 0 1 1948.89,268.4479" fill="#E6F3FF" style="stroke:#000000;stroke-width:1;"/><line style="stroke:#000000;stroke-width:1;" x1="1946.39" x2="2072.9828" y1="290.5465" y2="290.5465"/><text fill="#000000" font-family="Arial" font-size="14" font-weight="bold" lengthAdjust="spacing" textLength="113.5928" x="1950.39" y="283.5797">Uses Commands</text></g><!--entity repo_truth--><g class="entity" data-entity="repo_truth" data-source-line="66" data-uid="ent0012" id="entity_repo_truth"><path d="M1084.58,300.8979 C1084.58,290.8979 1158.3866,290.8979 1158.3866,290.8979 C1158.3866,290.8979 1232.1933,290.8979 1232.1933,300.8979 L1232.1933,342.0951 C1232.1933,352.0951 1158.3866,352.0951 1158.3866,352.0951 C1158.3866,352.0951 1084.58,352.0951 1084.58,342.0951 L1084.58,300.8979" fill="#FFFFFF" style="stroke:#000000;stroke-width:1;"/><path d="M1084.58,300.8979 C1084.58,310.8979 1158.3866,310.8979 1158.3866,310.8979 C1158.3866,310.8979 1232.1933,310.8979 1232.1933,300.8979" fill="none" style="stroke:#000000;stroke-width:1;"/><text fill="#000000" font-family="Arial" font-size="14" lengthAdjust="spacing" textLength="63.8203" x="1094.58" y="328.0297">repo_truth</text><text fill="#000000" font-family="Arial" font-size="14" lengthAdjust="spacing" textLength="127.6133" x="1094.58" y="344.1283">./docs/maestro/repo/</text></g><!--entity issue_store--><g class="entity" data-entity="issue_store" data-source-line="67" data-uid="ent0013" id="entity_issue_store"><path d="M1266.75,300.8979 C1266.75,290.8979 1346.3877,290.8979 1346.3877,290.8979 C1346.3877,290.8979 1426.0254,290.8979 1426.0254,300.8979 L1426.0254,342.0951 C1426.0254,352.0951 1346.3877,352.0951 1346.3877,352.0951 C1346.3877,352.0951 1266.75,352.0951 1266.75,342.0951 L1266.75,300.8979" fill="#FFFFFF" style="stroke:#000000;stroke-width:1;"/><path d="M1266.75,300.8979 C1266.75,310.8979 1346.3877,310.8979 1346.3877,310.8979 C1346.3877,310.8979 1426.0254,310.8979 1426.0254,300.8979" fill="none" style="stroke:#000000;stroke-width:1;"/><text fill="#000000" font-family="Arial" font-size="14" lengthAdjust="spacing" textLength="71.5928" x="1276.75" y="328.0297">issue_store</text><text fill="#000000" font-family="Arial" font-size="14" lengthAdjust="spacing" textLength="139.2754" x="1276.75" y="344.1283">./docs/maestro/issues/</text></g><!--entity task_store--><g class="entity" data-entity="task_store" data-source-line="68" data-uid="ent0014" id="entity_task_store"><path d="M1084.26,590.8279 C1084.26,580.8279 1160.3943,580.8279 1160.3943,580.8279 C1160.3943,580.8279 1236.5286,580.8279 1236.5286,590.8279 L1236.5286,632.0251 C1236.5286,642.0251 1160.3943,642.0251 1160.3943,642.0251 C1160.3943,642.0251 1084.26,642.0251 1084.26,632.0251 L1084.26,590.8279" fill="#FFFFFF" style="stroke:#000000;stroke-width:1;"/><path d="M1084.26,590.8279 C1084.26,600.8279 1160.3943,600.8279 1160.3943,600.8279 C1160.3943,600.8279 1236.5286,600.8279 1236.5286,590.8279" fill="none" style="stroke:#000000;stroke-width:1;"/><text fill="#000000" font-family="Arial" font-size="14" lengthAdjust="spacing" textLength="64.5859" x="1094.26" y="617.9597">task_store</text><text fill="#000000" font-family="Arial" font-size="14" lengthAdjust="spacing" textLength="132.2686" x="1094.26" y="634.0583">./docs/maestro/tasks/</text></g><!--entity uses_repo--><g class="entity" data-entity="uses_repo" data-source-line="73" data-uid="ent0016" id="entity_uses_repo"><a href="../generated/svg/CMD-repo.all_layers.lod0.svg" target="_top" title="../generated/svg/CMD-repo.all_layers.lod0.svg" xlink:actuate="onRequest" xlink:href="../generated/svg/CMD-repo.all_layers.lod0.svg" xlink:show="new" xlink:title="../generated/svg/CMD-repo.all_layers.lod0.svg" xlink:type="simple"><rect fill="#FFFFFF" height="36.0986" rx="2.5" ry="2.5" style="stroke:#000000;stroke-width:1;" width="48.0205" x="1963.38" y="303.4479"/><text fill="#000000" font-family="Arial" font-size="14" lengthAdjust="spacing" textLength="28.0205" x="1973.38" y="326.5797">repo</text></a></g><!--entity NOTE_ANCHOR--><g class="entity" data-entity="N1" data-source-line="17" data-uid="ent0006" id="entity_N1"><path d="M1461.14,279.1279 L1461.14,363.8715 L1651.638,363.8715 L1651.638,289.1279 L1641.638,279.1279 L1461.14,279.1279" fill="#FFFFCC" style="stroke:#CCCCCC;stroke-width:1;"/><path d="M1641.638,279.1279 L1641.638,289.1279 L1651.638,289.1279 L1641.638,279.1279" fill="#FFFFCC" style="stroke:#CCCCCC;stroke-width:1;"/><text fill="#000000" font-family="Arial" font-size="13" font-weight="bold" lengthAdjust="spacing" textLength="142.2891" x="1467.14" y="296.3217">Combined view (LOD0)</text><text fill="#000000" font-family="Arial" font-size="13" lengthAdjust="spacing" textLength="3.6118" x="1467.14" y="311.2704">&#160;</text><text fill="#000000" font-family="Arial" font-size="13" lengthAdjust="spacing" textLength="137.998" x="1467.14" y="326.2192">This diagram combines:</text><ellipse cx="1472.64" cy="336.4228" fill="#000000" rx="2.5" ry="2.5"/><text fill="#000000" font-family="Arial" font-size="13" lengthAdjust="spacing" textLength="157.498" x="1479.14" y="341.1679">Intent layer (workflow logic)</text><ellipse cx="1472.64" cy="351.3715" fill="#000000" rx="2.5" ry="2.5"/><text fill="#000000" font-family="Arial" font-size="13" lengthAdjust="spacing" textLength="124.2871" x="1479.14" y="356.1166">Command integration</text></g><g class="entity" data-entity="ACTIVITY_FLOW" data-source-line="38" data-uid="ent0010" id="entity_ACTIVITY_FLOW"><path d="M1686.61,122.1679 L1686.61,520.8348 L1928.172,520.8348 L1928.172,132.1679 L1918.172,122.1679 L1686.61,122.1679" fill="#FFFFCC" style="stroke:#CCCCCC;stroke-width:1;"/><path d="M1918.172,122.1679 L1918.172,132.1679 L1928.172,132.1679 L1918.172,122.1679" fill="#FFFFCC" style="stroke:#CCCCCC;stroke-width:1;"/><text fill="#000000" font-family="Arial" font-size="13" lengthAdjust="spacing" textLength="220.562" x="1692.61" y="139.3617">(*) --&gt; "Operator initiates repo resolve"</text><text fill="#000000" font-family="Arial" font-size="13" lengthAdjust="spacing" textLength="205.8037" x="1692.61" y="154.3104">if "Branch boundary validation" then</text><text fill="#000000" font-family="Arial" font-size="13" lengthAdjust="spacing" textLength="58.1509" x="1699.8336" y="169.2592">--&gt;[yes] ...</text><text fill="#000000" font-family="Arial" font-size="13" lengthAdjust="spacing" textLength="52.3809" x="1699.8336" y="184.2079">--&gt;[no] ...</text><text fill="#000000" font-family="Arial" font-size="13" lengthAdjust="spacing" textLength="28.1899" x="1692.61" y="199.1566">endif</text><text fill="#000000" font-family="Arial" font-size="13" lengthAdjust="spacing" textLength="192.7656" x="1692.61" y="214.1054">if "Validate repository exists" then</text><text fill="#000000" font-family="Arial" font-size="13" lengthAdjust="spacing" textLength="58.1509" x="1699.8336" y="229.0541">--&gt;[yes] ...</text><text fill="#000000" font-family="Arial" font-size="13" lengthAdjust="spacing" textLength="52.3809" x="1699.8336" y="244.0028">--&gt;[no] ...</text><text fill="#000000" font-family="Arial" font-size="13" lengthAdjust="spacing" textLength="28.1899" x="1692.61" y="258.9515">endif</text><text fill="#000000" font-family="Arial" font-size="13" lengthAdjust="spacing" textLength="215.1411" x="1692.61" y="273.9003">if "Check for .maestro/ directory" then</text><text fill="#000000" font-family="Arial" font-size="13" lengthAdjust="spacing" textLength="58.1509" x="1699.8336" y="288.849">--&gt;[yes] ...</text><text fill="#000000" font-family="Arial" font-size="13" lengthAdjust="spacing" textLength="52.3809" x="1699.8336" y="303.7977">--&gt;[no] ...</text><text fill="#000000" font-family="Arial" font-size="13" lengthAdjust="spacing" textLength="28.1899" x="1692.61" y="318.7465">endif</text><text fill="#000000" font-family="Arial" font-size="13" lengthAdjust="spacing" textLength="170.3965" x="1692.61" y="333.6952">if "Convention detection" then</text><text fill="#000000" font-family="Arial" font-size="13" lengthAdjust="spacing" textLength="58.1509" x="1699.8336" y="348.6439">--&gt;[yes] ...</text><text fill="#000000" font-family="Arial" font-size="13" lengthAdjust="spacing" textLength="52.3809" x="1699.8336" y="363.5927">--&gt;[no] ...</text><text fill="#000000" font-family="Arial" font-size="13" lengthAdjust="spacing" textLength="28.1899" x="1692.61" y="378.5414">endif</text><text fill="#000000" font-family="Arial" font-size="13" lengthAdjust="spacing" textLength="154.4956" x="1692.61" y="393.4901">if "Violation detection" then</text><text fill="#000000" font-family="Arial" font-size="13" lengthAdjust="spacing" textLength="58.1509" x="1699.8336" y="408.4388">--&gt;[yes] ...</text><text fill="#000000" font-family="Arial" font-size="13" lengthAdjust="spacing" textLength="52.3809" x="1699.8336" y="423.3876">--&gt;[no] ...</text><text fill="#000000" font-family="Arial" font-size="13" lengthAdjust="spacing" textLength="28.1899" x="1692.61" y="438.3363">endif</text><text fill="#000000" font-family="Arial" font-size="13" lengthAdjust="spacing" textLength="200.7065" x="1692.61" y="453.285">if "Task creation policy check" then</text><text fill="#000000" font-family="Arial" font-size="13" lengthAdjust="spacing" textLength="58.1509" x="1699.8336" y="468.2338">--&gt;[yes] ...</text><text fill="#000000" font-family="Arial" font-size="13" lengthAdjust="spacing" textLength="52.3809" x="1699.8336" y="483.1825">--&gt;[no] ...</text><text fill="#000000" font-family="Arial" font-size="13" lengthAdjust="spacing" textLength="28.1899" x="1692.61" y="498.1312">endif</text><text fill="#000000" font-family="Arial" font-size="13" lengthAdjust="spacing" textLength="3.6118" x="1692.61" y="513.08">&#160;</text></g><!--link NOTE_ANCHOR to GMN3--><!--SRC=[rLNRRjD047ttLqpJ1vg8s2bLUUW3KfesebARe3PjXK9bRUoniyfcDzfTEqIe4X_15_8bp6wS6nG92W_WH9RiFNDsPlRCyPuTunHX9XYNWPbmEMEQJM74aackLI7JZX9AmtxNNrk853DM2DjLqlOOCRGrPs9hlQsrcbV1H_xQMkmfYwTAfwWhHCTVtoEUIe9GWULM8DntcwrZQ497JKTSOWgNR87QmC5b_wnL3uB2OC8CGet9PAnq3PY1Ndzm7hTxdRVzws3CKznv8MbFq3mVMr3PpWf0et6Z2ftWIQC1ms6g4XFDbPvaGirDLBwAk8xcMUHJ2hcqA6suO5C1lunyU0XGfk1o29QPk7GF_TRh2akEywg-HeEMw3yOSmCfPxdhMh84cXCN1XUU7OHh2noiaW2XSfxKFOA8funsTNaGWULARcMnz_zhunfdYcv6YHBXw-SlCACubgDvIRsI9RM7IgQ7KS552fRf72qzkfvG0hoaddDZ2ZIHPMPIQUi4RcRKvNhm3ogctHbSt5qCtiVTo_uzPN7Gg4Ep-GPg_HdI0LEdkEIMCui6j6kENZQdHbYUGUrKksc1aUiiqmiecU2f5qODI0wIOE08Xmiq3n26uVg5LAjdoefd5T_TCXxzPePJ0Wl0ZznOypo-pXYJ2MHKHpXbQAnM4QbVO-AOdqcv5WATkIMcvnVBbM1_WsX0OeD4uv9ifWHF5f2uqd-VRoEIIljGEsEMmGrr3EaKzhijzuDFXAMJOYFlcUwuOgiBE_uWmyXhSjLljnHvDzs0TcBznCJ6yVyGN4sJ3z_2xSIxKVj9k9_2PVG65Jm6Bvp6IUl1fiXRGnAl3CwLUVwwUzJj-ZATN9ZCHLMdfwElXOdzH0o7OHZbADsyO1gPCeywLsTDjnOo8MBlfoOKAcs5j4XZ-5ZDdy3iIICuB-bJ8xqLUDiT3il3o2GecUOgRXtxVUDg4kELHSLR3XLNrXHEK-YJuN3919I7i29nhb5C2UmLGodzuJQpWfpedM3ItbvThZylLDhAc7RCvni0]--></g></svg>