<svg xmlns="http://www.w3.org/2000/svg" xmlns:xlink="http://www.w3.org/1999/xlink" contentStyleType="text/css" data-diagram-type="DESCRIPTION" height="500px" preserveAspectRatio="none" style="width:1846px;height:500px;background:#FFFFFF;" version="1.1" viewBox="0 0 1846 500" width="1846px" zoomAndPan="magnify"><title>WF-06 - AI-driven task execution with Work Sessions and multi-session resume (LOD0: Spine)</title><defs/><g><g class="title" data-source-line="8"><text fill="#000000" font-family="Arial" font-size="22" font-weight="bold" lengthAdjust="spacing" textLength="984.0811" x="426.5095" y="35.6357">WF-06 - AI-driven task execution with Work Sessions and multi-session resume (LOD0: Spine)</text></g><!--cluster Data Stores--><g class="cluster" data-entity="Data Stores" data-source-line="39" data-uid="ent0010" id="cluster_Data Stores"><path d="M1495.6,183.7579 L1574.4066,183.7579 A3.75,3.75 0 0 1 1576.9066,186.2579 L1583.9066,205.8565 L1836.6,205.8565 A2.5,2.5 0 0 1 1839.1,208.3565 L1839.1,293.4579 A2.5,2.5 0 0 1 1836.6,295.9579 L1495.6,295.9579 A2.5,2.5 0 0 1 1493.1,293.4579 L1493.1,186.2579 A2.5,2.5 0 0 1 1495.6,183.7579" fill="#F0F0F0" style="stroke:#000000;stroke-width:1;"/><line style="stroke:#000000;stroke-width:1;" x1="1493.1" x2="1583.9066" y1="205.8565" y2="205.8565"/><text fill="#000000" font-family="Arial" font-size="14" font-weight="bold" lengthAdjust="spacing" textLength="77.8066" x="1497.1" y="198.8897">Data Stores</text></g><!--cluster Uses Commands--><g class="cluster" data-entity="Uses Commands" data-source-line="46" data-uid="ent0013" id="cluster_Uses Commands"><path d="M1028.6,196.3079 L1143.1928,196.3079 A3.75,3.75 0 0 1 1145.6928,198.8079 L1152.6928,218.4065 L1170.6,218.4065 A2.5,2.5 0 0 1 1173.1,220.9065 L1173.1,491.0179 A2.5,2.5 0 0 1 1170.6,493.5179 L1028.6,493.5179 A2.5,2.5 0 0 1 1026.1,491.0179 L1026.1,198.8079 A2.5,2.5 0 0 1 1028.6,196.3079" fill="#E6F3FF" style="stroke:#000000;stroke-width:1;"/><line style="stroke:#000000;stroke-width:1;" x1="1026.1" x2="1152.6928" y1="218.4065" y2="218.4065"/><text fill="#000000" font-family="Arial" font-size="14" font-weight="bold" lengthAdjust="spacing" textLength="113.5928" x="1030.1" y="211.4397">Uses Commands</text></g><!--entity work_session_store--><g class="entity" data-entity="work_session_store" data-source-line="40" data-uid="ent0011" id="entity_work_session_store"><path d="M1509.24,228.7579 C1509.24,218.7579 1581.1018,218.7579 1581.1018,218.7579 C1581.1018,218.7579 1652.9636,218.7579 1652.9636,228.7579 L1652.9636,269.9551 C1652.9636,279.9551 1581.1018,279.9551 1581.1018,279.9551 C1581.1018,279.9551 1509.24,279.9551 1509.24,269.9551 L1509.24,228.7579" fill="#FFFFFF" style="stroke:#000000;stroke-width:1;"/><path d="M1509.24,228.7579 C1509.24,238.7579 1581.1018,238.7579 1581.1018,238.7579 C1581.1018,238.7579 1652.9636,238.7579 1652.9636,228.7579" fill="none" style="stroke:#000000;stroke-width:1;"/><text fill="#000000" font-family="Arial" font-size="14" lengthAdjust="spacing" textLength="123.7236" x="1519.24" y="255.8897">work_session_store</text><text fill="#000000" font-family="Arial" font-size="14" lengthAdjust="spacing" textLength="99.5996" x="1519.24" y="271.9883">./docs/sessions/</text></g><!--entity ai_transcript_store--><g class="entity" data-entity="ai_transcript_store" data-source-line="41" data-uid="ent0012" id="entity_ai_transcript_store"><path d="M1687.52,228.7579 C1687.52,218.7579 1755.1025,218.7579 1755.1025,218.7579 C1755.1025,218.7579 1822.685,218.7579 1822.685,228.7579 L1822.685,269.9551 C1822.685,279.9551 1755.1025,279.9551 1755.1025,279.9551 C1755.1025,279.9551 1687.52,279.9551 1687.52,269.9551 L1687.52,228.7579" fill="#FFFFFF" style="stroke:#000000;stroke-width:1;"/><path d="M1687.52,228.7579 C1687.52,238.7579 1755.1025,238.7579 1755.1025,238.7579 C1755.1025,238.7579 1822.685,238.7579 1822.685,228.7579" fill="none" style="stroke:#000000;stroke-width:1;"/><text fill="#000000" font-family="Arial" font-size="14" lengthAdjust="spacing" textLength="115.165" x="1697.52" y="255.8897">ai_transcript_store</text><text fill="#000000" font-family="Arial" font-size="14" lengthAdjust="spacing" textLength="85.5996" x="1697.52" y="271.9883">./docs/logs/ai/</text></g><!--entity uses_ai--><g class="entity" data-entity="uses_ai" data-source-line="47" data-uid="ent0014" id="entity_uses_ai"><a href="../generated/svg/CMD-ai.all_layers.lod0.svg" target="_top" title="../generated/svg/CMD-ai.all_layers.lod0.svg" xlink:actuate="onRequest" xlink:href="../generated/svg/CMD-ai.all_layers.lod0.svg" xlink:show="new" xlink:title="../generated/svg/CMD-ai.all_layers.lod0.svg" xlink:type="simple"><rect fill="#FFFFFF" height="36.0986" rx="2.5" ry="2.5" style="stroke:#000000;stroke-width:1;" width="30.8965" x="1041.66" y="231.3079"/><text fill="#000000" font-family="Arial" font-size="14" lengthAdjust="spacing" textLength="10.8965" x="1051.66" y="254.4397">ai</text></a></g><!--entity uses_work--><g class="entity" data-entity="uses_work" data-source-line="48" data-uid="ent0015" id="entity_uses_work"><a href="../generated/svg/CMD-work.all_layers.lod0.svg" target="_top" title="../generated/svg/CMD-work.all_layers.lod0.svg" xlink:actuate="onRequest" xlink:href="../generated/svg/CMD-work.all_layers.lod0.svg" xlink:show="new" xlink:title="../generated/svg/CMD-work.all_layers.lod0.svg" xlink:type="simple"><rect fill="#FFFFFF" height="36.0986" rx="2.5" ry="2.5" style="stroke:#000000;stroke-width:1;" width="49.5586" x="1107.32" y="231.3079"/><text fill="#000000" font-family="Arial" font-size="14" lengthAdjust="spacing" textLength="29.5586" x="1117.32" y="254.4397">work</text></a></g><!--entity uses_wsession--><g class="entity" data-entity="uses_wsession" data-source-line="49" data-uid="ent0016" id="entity_uses_wsession"><a href="../generated/svg/CMD-wsession.all_layers.lod0.svg" target="_top" title="../generated/svg/CMD-wsession.all_layers.lod0.svg" xlink:actuate="onRequest" xlink:href="../generated/svg/CMD-wsession.all_layers.lod0.svg" xlink:show="new" xlink:title="../generated/svg/CMD-wsession.all_layers.lod0.svg" xlink:type="simple"><rect fill="#FFFFFF" height="36.0986" rx="2.5" ry="2.5" style="stroke:#000000;stroke-width:1;" width="77.5791" x="1042.31" y="441.4179"/><text fill="#000000" font-family="Arial" font-size="14" lengthAdjust="spacing" textLength="57.5791" x="1052.31" y="464.5497">wsession</text></a></g><!--entity NOTE_ANCHOR--><g class="entity" data-entity="ACTIVITY_FLOW" data-source-line="17" data-uid="ent0006" id="entity_ACTIVITY_FLOW"><path d="M1191.56,117.2879 L1191.56,381.4163 L1474.6547,381.4163 L1474.6547,127.2879 L1464.6547,117.2879 L1191.56,117.2879" fill="#FFFFCC" style="stroke:#CCCCCC;stroke-width:1;"/><path d="M1464.6547,117.2879 L1464.6547,127.2879 L1474.6547,127.2879 L1464.6547,117.2879" fill="#FFFFCC" style="stroke:#CCCCCC;stroke-width:1;"/><text fill="#000000" font-family="Arial" font-size="13" lengthAdjust="spacing" textLength="221.9966" x="1197.56" y="134.4817">(*) --&gt; "Operator initiates work on task"</text><text fill="#000000" font-family="Arial" font-size="13" lengthAdjust="spacing" textLength="262.0947" x="1197.56" y="149.4304">if "Check if Work Session exists for task" then</text><text fill="#000000" font-family="Arial" font-size="13" lengthAdjust="spacing" textLength="58.1509" x="1204.7836" y="164.3792">--&gt;[yes] ...</text><text fill="#000000" font-family="Arial" font-size="13" lengthAdjust="spacing" textLength="52.3809" x="1204.7836" y="179.3279">--&gt;[no] ...</text><text fill="#000000" font-family="Arial" font-size="13" lengthAdjust="spacing" textLength="28.1899" x="1197.56" y="194.2766">endif</text><text fill="#000000" font-family="Arial" font-size="13" lengthAdjust="spacing" textLength="227.4619" x="1197.56" y="209.2254">if "Does AI emit progress update?" then</text><text fill="#000000" font-family="Arial" font-size="13" lengthAdjust="spacing" textLength="58.1509" x="1204.7836" y="224.1741">--&gt;[yes] ...</text><text fill="#000000" font-family="Arial" font-size="13" lengthAdjust="spacing" textLength="52.3809" x="1204.7836" y="239.1228">--&gt;[no] ...</text><text fill="#000000" font-family="Arial" font-size="13" lengthAdjust="spacing" textLength="28.1899" x="1197.56" y="254.0715">endif</text><text fill="#000000" font-family="Arial" font-size="13" lengthAdjust="spacing" textLength="171.1074" x="1197.56" y="269.0203">if "Continue AI session?" then</text><text fill="#000000" font-family="Arial" font-size="13" lengthAdjust="spacing" textLength="58.1509" x="1204.7836" y="283.969">--&gt;[yes] ...</text><text fill="#000000" font-family="Arial" font-size="13" lengthAdjust="spacing" textLength="52.3809" x="1204.7836" y="298.9177">--&gt;[no] ...</text><text fill="#000000" font-family="Arial" font-size="13" lengthAdjust="spacing" textLength="28.1899" x="1197.56" y="313.8665">endif</text><text fill="#000000" font-family="Arial" font-size="13" lengthAdjust="spacing" textLength="255.6392" x="1197.56" y="328.8152">if "Validate final JSON against schema" then</text><text fill="#000000" font-family="Arial" font-size="13" lengthAdjust="spacing" textLength="58.1509" x="1204.7836" y="343.7639">--&gt;[yes] ...</text><text fill="#000000" font-family="Arial" font-size="13" lengthAdjust="spacing" textLength="52.3809" x="1204.7836" y="358.7127">--&gt;[no] ...</text><text fill="#000000" font-family="Arial" font-size="13" lengthAdjust="spacing" textLength="28.1899" x="1197.56" y="373.6614">endif</text></g><!--link NOTE_ANCHOR to GMN3--><!--SRC=[dLHHJzim47xFhxXr3uDAJSgGUE1XKvTIqGbQH0je0XGTYPDQTUp8TjgXYV- -injAowZ4S5uIt-NpTxxllazsnae6bK0k0pFdiaAD9JnWEY-qgcKMAw4qV1xujP6HiHnhOGTAsX4IGazp51lndjPgsVnywDT6SAGi-w5qndIJ4VlrEkCj4fGLM6u5Wvj1fti47UWDEvdc2oR1efa3-ytIsd8bOSdj36wKdiE46KCx1b1cK19jtZ6hBT3Cr4H_xspSxnx3fEAIxGT1RLYAXa4BPJfJkWLeO3IUdYIzKNmwlWncF6DR6vBuWkR5p8BAjo80xVP4rJfbn-qstDvcAZNHabZbGYrDjFWQSHqjyyYN4t9fcRJX8vO2tfrvVnymAinn25PCY6uldWwlXzDVoU1iV4CizjhxqEbyWzQuOXejtIUNt7Aqp80x1DJg0bkKotDenJEMpjtRvWtIxN9Z3UJqkqy6qe-aFy1XtpuoSmzX6Autf7h-9e8yRw3xYixi3O6Lt4AbLK5DC51N6P7v_Z78c7J8PSqSRDFQ3o9Te-2E2EHSee2Va_48iA3nC1PCIjE2_ukxxirEaJXfTsbviPpsBlimcOulskqxEPGBnsT5emFhs4R3AneJB4YhVRG84-eiCor2xBe7_X0cbOCFNiwkqKbpFubngNSoZBpGcbqJUR7_cxY5Wpon6gL9DQ_iAo2X2XCXN-6yaHWy1L-S44cGBoylLLpHgH2higHPTNMS70qE1mDVXsQfHLa8Jy33qvoQ13cDLHX61PDEsIoBpAA8ulD-1tc8GYG27vaseL1PDwGGZSiMbglr1StFmWuy5tiNOdDp6wZFVhCBkOdlG7zgvbgm_4s3ELcG8KblCUwRJbaSH2Pb4ZLNIVSeSNsWUKqs-sh2CeCnwT4BVN40prxZd8TCKLfqFkgBUpTaLPDpNGYKzkhy33AEXRDpxnSpjZvXqx7-0W00]--></g></svg>