<svg xmlns="http://www.w3.org/2000/svg" xmlns:xlink="http://www.w3.org/1999/xlink" contentStyleType="text/css" data-diagram-type="DESCRIPTION" height="455px" preserveAspectRatio="none" style="width:1690px;height:455px;background:#FFFFFF;" version="1.1" viewBox="0 0 1690 455" width="1690px" zoomAndPan="magnify"><title>WF-13 - Read-only &#8594; Adopt bridge (home hub to repo truth) (LOD0: Spine)</title><defs/><g><g class="title" data-source-line="8"><text fill="#000000" font-family="Arial" font-size="22" font-weight="bold" lengthAdjust="spacing" textLength="778.4971" x="451.5665" y="35.6357">WF-13 - Read-only &#8594; Adopt bridge (home hub to repo truth) (LOD0: Spine)</text></g><!--cluster Data Stores--><g class="cluster" data-entity="Data Stores" data-source-line="36" data-uid="ent0007" id="cluster_Data Stores"><path d="M1339.13,131.2379 L1417.9366,131.2379 A3.75,3.75 0 0 1 1420.4366,133.7379 L1427.4366,153.3365 L1681.13,153.3365 A2.5,2.5 0 0 1 1683.63,155.8365 L1683.63,240.9379 A2.5,2.5 0 0 1 1681.13,243.4379 L1339.13,243.4379 A2.5,2.5 0 0 1 1336.63,240.9379 L1336.63,133.7379 A2.5,2.5 0 0 1 1339.13,131.2379" fill="#F0F0F0" style="stroke:#000000;stroke-width:1;"/><line style="stroke:#000000;stroke-width:1;" x1="1336.63" x2="1427.4366" y1="153.3365" y2="153.3365"/><text fill="#000000" font-family="Arial" font-size="14" font-weight="bold" lengthAdjust="spacing" textLength="77.8066" x="1340.63" y="146.3697">Data Stores</text></g><!--cluster Uses Commands--><g class="cluster" data-entity="Uses Commands" data-source-line="43" data-uid="ent0010" id="cluster_Uses Commands"><path d="M787.13,143.7879 L901.7228,143.7879 A3.75,3.75 0 0 1 904.2228,146.2879 L911.2228,165.8865 L941.13,165.8865 A2.5,2.5 0 0 1 943.63,168.3865 L943.63,445.9779 A2.5,2.5 0 0 1 941.13,448.4779 L787.13,448.4779 A2.5,2.5 0 0 1 784.63,445.9779 L784.63,146.2879 A2.5,2.5 0 0 1 787.13,143.7879" fill="#E6F3FF" style="stroke:#000000;stroke-width:1;"/><line style="stroke:#000000;stroke-width:1;" x1="784.63" x2="911.2228" y1="165.8865" y2="165.8865"/><text fill="#000000" font-family="Arial" font-size="14" font-weight="bold" lengthAdjust="spacing" textLength="113.5928" x="788.63" y="158.9197">Uses Commands</text></g><!--entity home_hub--><g class="entity" data-entity="home_hub" data-source-line="37" data-uid="ent0008" id="entity_home_hub"><path d="M1352.66,176.2379 C1352.66,166.2379 1434.6288,166.2379 1434.6288,166.2379 C1434.6288,166.2379 1516.5975,166.2379 1516.5975,176.2379 L1516.5975,217.4351 C1516.5975,227.4351 1434.6288,227.4351 1434.6288,227.4351 C1434.6288,227.4351 1352.66,227.4351 1352.66,217.4351 L1352.66,176.2379" fill="#FFFFFF" style="stroke:#000000;stroke-width:1;"/><path d="M1352.66,176.2379 C1352.66,186.2379 1434.6288,186.2379 1434.6288,186.2379 C1434.6288,186.2379 1516.5975,186.2379 1516.5975,176.2379" fill="none" style="stroke:#000000;stroke-width:1;"/><text fill="#000000" font-family="Arial" font-size="14" lengthAdjust="spacing" textLength="66.165" x="1362.66" y="203.3697">home_hub</text><text fill="#000000" font-family="Arial" font-size="14" lengthAdjust="spacing" textLength="143.9375" x="1362.66" y="219.4683">$HOME/.maestro/repo/</text></g><!--entity repo_truth--><g class="entity" data-entity="repo_truth" data-source-line="38" data-uid="ent0009" id="entity_repo_truth"><path d="M1551.78,176.2379 C1551.78,166.2379 1609.6316,166.2379 1609.6316,166.2379 C1609.6316,166.2379 1667.4831,166.2379 1667.4831,176.2379 L1667.4831,217.4351 C1667.4831,227.4351 1609.6316,227.4351 1609.6316,227.4351 C1609.6316,227.4351 1551.78,227.4351 1551.78,217.4351 L1551.78,176.2379" fill="#FFFFFF" style="stroke:#000000;stroke-width:1;"/><path d="M1551.78,176.2379 C1551.78,186.2379 1609.6316,186.2379 1609.6316,186.2379 C1609.6316,186.2379 1667.4831,186.2379 1667.4831,176.2379" fill="none" style="stroke:#000000;stroke-width:1;"/><text fill="#000000" font-family="Arial" font-size="14" lengthAdjust="spacing" textLength="63.8203" x="1561.78" y="203.3697">repo_truth</text><text fill="#000000" font-family="Arial" font-size="14" lengthAdjust="spacing" textLength="95.7031" x="1561.78" y="219.4683">./docs/maestro/</text></g><!--entity uses_init--><g class="entity" data-entity="uses_init" data-source-line="44" data-uid="ent0011" id="entity_uses_init"><a href="../generated/svg/CMD-init.all_layers.lod0.svg" target="_top" title="../generated/svg/CMD-init.all_layers.lod0.svg" xlink:actuate="onRequest" xlink:href="../generated/svg/CMD-init.all_layers.lod0.svg" xlink:show="new" xlink:title="../generated/svg/CMD-init.all_layers.lod0.svg" xlink:type="simple"><rect fill="#FFFFFF" height="36.0986" rx="2.5" ry="2.5" style="stroke:#000000;stroke-width:1;" width="37.8965" x="800.68" y="178.7879"/><text fill="#000000" font-family="Arial" font-size="14" lengthAdjust="spacing" textLength="17.8965" x="810.68" y="201.9197">init</text></a></g><!--entity uses_make--><g class="entity" data-entity="uses_make" data-source-line="45" data-uid="ent0012" id="entity_uses_make"><a href="../generated/svg/CMD-make.all_layers.lod0.svg" target="_top" title="../generated/svg/CMD-make.all_layers.lod0.svg" xlink:actuate="onRequest" xlink:href="../generated/svg/CMD-make.all_layers.lod0.svg" xlink:show="new" xlink:title="../generated/svg/CMD-make.all_layers.lod0.svg" xlink:type="simple"><rect fill="#FFFFFF" height="36.0986" rx="2.5" ry="2.5" style="stroke:#000000;stroke-width:1;" width="54.2344" x="873.51" y="178.7879"/><text fill="#000000" font-family="Arial" font-size="14" lengthAdjust="spacing" textLength="34.2344" x="883.51" y="201.9197">make</text></a></g><!--entity uses_repo--><g class="entity" data-entity="uses_repo" data-source-line="46" data-uid="ent0013" id="entity_uses_repo"><a href="../generated/svg/CMD-repo.all_layers.lod0.svg" target="_top" title="../generated/svg/CMD-repo.all_layers.lod0.svg" xlink:actuate="onRequest" xlink:href="../generated/svg/CMD-repo.all_layers.lod0.svg" xlink:show="new" xlink:title="../generated/svg/CMD-repo.all_layers.lod0.svg" xlink:type="simple"><rect fill="#FFFFFF" height="36.0986" rx="2.5" ry="2.5" style="stroke:#000000;stroke-width:1;" width="48.0205" x="800.62" y="396.3779"/><text fill="#000000" font-family="Arial" font-size="14" lengthAdjust="spacing" textLength="28.0205" x="810.62" y="419.5097">repo</text></a></g><!--entity NOTE_ANCHOR--><g class="entity" data-entity="ACTIVITY_FLOW" data-source-line="17" data-uid="ent0006" id="entity_ACTIVITY_FLOW"><path d="M963.13,57.2979 L963.13,336.375 L1318.1437,336.375 L1318.1437,67.2979 L1308.1437,57.2979 L963.13,57.2979" fill="#FFFFCC" style="stroke:#CCCCCC;stroke-width:1;"/><path d="M1308.1437,57.2979 L1308.1437,67.2979 L1318.1437,67.2979 L1308.1437,57.2979" fill="#FFFFCC" style="stroke:#CCCCCC;stroke-width:1;"/><text fill="#000000" font-family="Arial" font-size="13" lengthAdjust="spacing" textLength="334.0137" x="969.13" y="74.4917">(*) --&gt; "User runs Maestro command in non-adopted repo"</text><text fill="#000000" font-family="Arial" font-size="13" lengthAdjust="spacing" textLength="144.3711" x="969.13" y="89.4404">if "Read-only guard" then</text><text fill="#000000" font-family="Arial" font-size="13" lengthAdjust="spacing" textLength="58.1509" x="976.3536" y="104.3892">--&gt;[yes] ...</text><text fill="#000000" font-family="Arial" font-size="13" lengthAdjust="spacing" textLength="52.3809" x="976.3536" y="119.3379">--&gt;[no] ...</text><text fill="#000000" font-family="Arial" font-size="13" lengthAdjust="spacing" textLength="28.1899" x="969.13" y="134.2866">endif</text><text fill="#000000" font-family="Arial" font-size="13" lengthAdjust="spacing" textLength="173.9893" x="969.13" y="149.2354">if "Adopt this repository?" then</text><text fill="#000000" font-family="Arial" font-size="13" lengthAdjust="spacing" textLength="58.1509" x="976.3536" y="164.1841">--&gt;[yes] ...</text><text fill="#000000" font-family="Arial" font-size="13" lengthAdjust="spacing" textLength="52.3809" x="976.3536" y="179.1328">--&gt;[no] ...</text><text fill="#000000" font-family="Arial" font-size="13" lengthAdjust="spacing" textLength="28.1899" x="969.13" y="194.0815">endif</text><text fill="#000000" font-family="Arial" font-size="13" lengthAdjust="spacing" textLength="178.3057" x="969.13" y="209.0303">if "Decide import strategy" then</text><text fill="#000000" font-family="Arial" font-size="13" lengthAdjust="spacing" textLength="58.1509" x="976.3536" y="223.979">--&gt;[yes] ...</text><text fill="#000000" font-family="Arial" font-size="13" lengthAdjust="spacing" textLength="52.3809" x="976.3536" y="238.9277">--&gt;[no] ...</text><text fill="#000000" font-family="Arial" font-size="13" lengthAdjust="spacing" textLength="28.1899" x="969.13" y="253.8765">endif</text><text fill="#000000" font-family="Arial" font-size="13" lengthAdjust="spacing" textLength="135.7065" x="969.13" y="268.8252">if "RepoConf gate" then</text><text fill="#000000" font-family="Arial" font-size="13" lengthAdjust="spacing" textLength="58.1509" x="976.3536" y="283.7739">--&gt;[yes] ...</text><text fill="#000000" font-family="Arial" font-size="13" lengthAdjust="spacing" textLength="52.3809" x="976.3536" y="298.7227">--&gt;[no] ...</text><text fill="#000000" font-family="Arial" font-size="13" lengthAdjust="spacing" textLength="28.1899" x="969.13" y="313.6714">endif</text><text fill="#000000" font-family="Arial" font-size="13" lengthAdjust="spacing" textLength="3.6118" x="969.13" y="328.6201">&#160;</text></g><!--SRC=[dLHTQzim57tthxZp1ci3jfi5zj27ZImVjD0aenyheor6iMHRH9QC92U4qTVzWFt4_P9TAKcJZ0RQAY-HpzNHqRtdtdUsP1M3MX0k0pFZiYQQL30bsQpGgf6qfuJIy7xerqu4PJbfX1qgQSS46RgQ4x63TxLMY_NXZbyxu5XPzarfolGwekVN_n7FYS2em78h6DmEetO78hXaX4PAYYNy_Vq7kbJL5gQQquB1KQbGMjbCmIhGh5PWTMFBOpYwcFHFJk6gvf8T1q5ZM4OCWv38h5Gw169WFBaUfDrnxsno6PISihqF4kM1vaLfGULx242hTQKQdR7JLWlkxgZAJB9GUfOBjJ39_5F2TRB84wy-vj8oQUCbgGIyEFBX8M2IWjCGh9IWt6xl-lp7-VNFT7WnkKKLHwrZYA8l4DuOfa4tqi28C6ErWanL5K42Bf53HiHbZ56Vdn1FyXp2RKwBXcWQ0jf48WQEysx9p0F4SVpqGQhD7eNnV4soAeKjkV7SXbkbbr_VnjLdcQi1hsgbBU0pY6N5ycrSboYcfsGE1PAydcAR_1eDIj1cOPzO0bVuF6P2jEc9-y4lZAK8JBspd1DJTEAz_70s6GsIk5fL8t6fIRpZDY5xvnoSUjVUopZn7jcSz8UsUF0OV7GLnyfl_smreWyCz5QbToe7duUTuT2hr2opH1ROKo6Nt7fUR0cJkXrwE8wJWadcSauJCo-ItgWVEImcGgI2B9asiL3q94OGtRd7M94PspAwtI56Xxs4qHlrYT6tzG56XnrWV5otZc3vipqycAFVfEzYjySRvkt4P4mIpLNQxk2zs3ZO8QbLgM-XT3Lqueh214S3bqJ0l0sRE3U2oEvmshIwVzvhBgWRd1RV1P7sPdG1b9F2JSmS9-IXktOdnZy0]--></g></svg>