<svg xmlns="http://www.w3.org/2000/svg" xmlns:xlink="http://www.w3.org/1999/xlink" contentStyleType="text/css" data-diagram-type="DESCRIPTION" height="388px" preserveAspectRatio="none" style="width:2496px;height:388px;background:#FFFFFF;" version="1.1" viewBox="0 0 2496 388" width="2496px" zoomAndPan="magnify"><title>WF-10 - Repo Resolve levels &#8212; Lite vs Deep, convention acceptance, and violation policy (LOD0: Spine)</title><defs/><g><g class="title" data-source-line="8"><text fill="#000000" font-family="Arial" font-size="22" font-weight="bold" lengthAdjust="spacing" textLength="1088.0332" x="699.5334" y="35.6357">WF-10 - Repo Resolve levels &#8212; Lite vs Deep, convention acceptance, and violation policy (LOD0: Spine)</text></g><!--cluster Data Stores--><g class="cluster" data-entity="Data Stores" data-source-line="39" data-uid="ent0010" id="cluster_Data Stores"><path d="M1925.6,183.3779 L2004.4066,183.3779 A3.75,3.75 0 0 1 2006.9066,185.8779 L2013.9066,205.4765 L2287.6,205.4765 A2.5,2.5 0 0 1 2290.1,207.9765 L2290.1,293.0679 A2.5,2.5 0 0 1 2287.6,295.5679 L1925.6,295.5679 A2.5,2.5 0 0 1 1923.1,293.0679 L1923.1,185.8779 A2.5,2.5 0 0 1 1925.6,183.3779" fill="#F0F0F0" style="stroke:#000000;stroke-width:1;"/><line style="stroke:#000000;stroke-width:1;" x1="1923.1" x2="2013.9066" y1="205.4765" y2="205.4765"/><text fill="#000000" font-family="Arial" font-size="14" font-weight="bold" lengthAdjust="spacing" textLength="77.8066" x="1927.1" y="198.5097">Data Stores</text></g><!--cluster Uses Commands--><g class="cluster" data-entity="Uses Commands" data-source-line="46" data-uid="ent0013" id="cluster_Uses Commands"><path d="M2316.6,195.9279 L2431.1928,195.9279 A3.75,3.75 0 0 1 2433.6928,198.4279 L2440.6928,218.0265 L2486.6,218.0265 A2.5,2.5 0 0 1 2489.1,220.5265 L2489.1,280.5279 A2.5,2.5 0 0 1 2486.6,283.0279 L2316.6,283.0279 A2.5,2.5 0 0 1 2314.1,280.5279 L2314.1,198.4279 A2.5,2.5 0 0 1 2316.6,195.9279" fill="#E6F3FF" style="stroke:#000000;stroke-width:1;"/><line style="stroke:#000000;stroke-width:1;" x1="2314.1" x2="2440.6928" y1="218.0265" y2="218.0265"/><text fill="#000000" font-family="Arial" font-size="14" font-weight="bold" lengthAdjust="spacing" textLength="113.5928" x="2318.1" y="211.0597">Uses Commands</text></g><!--entity repo_truth--><g class="entity" data-entity="repo_truth" data-source-line="40" data-uid="ent0011" id="entity_repo_truth"><path d="M1939.25,228.3779 C1939.25,218.3779 1997.1016,218.3779 1997.1016,218.3779 C1997.1016,218.3779 2054.9531,218.3779 2054.9531,228.3779 L2054.9531,269.5751 C2054.9531,279.5751 1997.1016,279.5751 1997.1016,279.5751 C1997.1016,279.5751 1939.25,279.5751 1939.25,269.5751 L1939.25,228.3779" fill="#FFFFFF" style="stroke:#000000;stroke-width:1;"/><path d="M1939.25,228.3779 C1939.25,238.3779 1997.1016,238.3779 1997.1016,238.3779 C1997.1016,238.3779 2054.9531,238.3779 2054.9531,228.3779" fill="none" style="stroke:#000000;stroke-width:1;"/><text fill="#000000" font-family="Arial" font-size="14" lengthAdjust="spacing" textLength="63.8203" x="1949.25" y="255.5097">repo_truth</text><text fill="#000000" font-family="Arial" font-size="14" lengthAdjust="spacing" textLength="95.7031" x="1949.25" y="271.6083">./docs/maestro/</text></g><!--entity issue_tracker--><g class="entity" data-entity="issue_tracker" data-source-line="41" data-uid="ent0012" id="entity_issue_tracker"><path d="M2089.62,228.3779 C2089.62,218.3779 2182.099,218.3779 2182.099,218.3779 C2182.099,218.3779 2274.578,218.3779 2274.578,228.3779 L2274.578,269.5751 C2274.578,279.5751 2182.099,279.5751 2182.099,279.5751 C2182.099,279.5751 2089.62,279.5751 2089.62,269.5751 L2089.62,228.3779" fill="#FFFFFF" style="stroke:#000000;stroke-width:1;"/><path d="M2089.62,228.3779 C2089.62,238.3779 2182.099,238.3779 2182.099,238.3779 C2182.099,238.3779 2274.578,238.3779 2274.578,228.3779" fill="none" style="stroke:#000000;stroke-width:1;"/><text fill="#000000" font-family="Arial" font-size="14" lengthAdjust="spacing" textLength="83.2549" x="2099.62" y="255.5097">issue_tracker</text><text fill="#000000" font-family="Arial" font-size="14" lengthAdjust="spacing" textLength="164.958" x="2099.62" y="271.6083">./docs/maestro/issues.json</text></g><!--entity uses_issues--><g class="entity" data-entity="uses_issues" data-source-line="47" data-uid="ent0014" id="entity_uses_issues"><a href="../generated/svg/CMD-issues.all_layers.lod0.svg" target="_top" title="../generated/svg/CMD-issues.all_layers.lod0.svg" xlink:actuate="onRequest" xlink:href="../generated/svg/CMD-issues.all_layers.lod0.svg" xlink:show="new" xlink:title="../generated/svg/CMD-issues.all_layers.lod0.svg" xlink:type="simple"><rect fill="#FFFFFF" height="36.0986" rx="2.5" ry="2.5" style="stroke:#000000;stroke-width:1;" width="59.6826" x="2330.26" y="230.9279"/><text fill="#000000" font-family="Arial" font-size="14" lengthAdjust="spacing" textLength="39.6826" x="2340.26" y="254.0597">issues</text></a></g><!--entity uses_repo--><g class="entity" data-entity="uses_repo" data-source-line="48" data-uid="ent0015" id="entity_uses_repo"><a href="../generated/svg/CMD-repo.all_layers.lod0.svg" target="_top" title="../generated/svg/CMD-repo.all_layers.lod0.svg" xlink:actuate="onRequest" xlink:href="../generated/svg/CMD-repo.all_layers.lod0.svg" xlink:show="new" xlink:title="../generated/svg/CMD-repo.all_layers.lod0.svg" xlink:type="simple"><rect fill="#FFFFFF" height="36.0986" rx="2.5" ry="2.5" style="stroke:#000000;stroke-width:1;" width="48.0205" x="2425.09" y="230.9279"/><text fill="#000000" font-family="Arial" font-size="14" lengthAdjust="spacing" textLength="28.0205" x="2435.09" y="254.0597">repo</text></a></g><!--entity NOTE_ANCHOR--><g class="entity" data-entity="ACTIVITY_FLOW" data-source-line="17" data-uid="ent0006" id="entity_ACTIVITY_FLOW"><path d="M1656.43,116.9079 L1656.43,381.0363 L1903.7747,381.0363 L1903.7747,126.9079 L1893.7747,116.9079 L1656.43,116.9079" fill="#FFFFCC" style="stroke:#CCCCCC;stroke-width:1;"/><path d="M1893.7747,116.9079 L1893.7747,126.9079 L1903.7747,126.9079 L1893.7747,116.9079" fill="#FFFFCC" style="stroke:#CCCCCC;stroke-width:1;"/><text fill="#000000" font-family="Arial" font-size="13" lengthAdjust="spacing" textLength="226.3447" x="1662.43" y="134.1017">(*) --&gt; "Operator requests repo resolve"</text><text fill="#000000" font-family="Arial" font-size="13" lengthAdjust="spacing" textLength="221.6729" x="1662.43" y="149.0504">if "Select resolve level (lite/deep)" then</text><text fill="#000000" font-family="Arial" font-size="13" lengthAdjust="spacing" textLength="58.1509" x="1669.6536" y="163.9992">--&gt;[yes] ...</text><text fill="#000000" font-family="Arial" font-size="13" lengthAdjust="spacing" textLength="52.3809" x="1669.6536" y="178.9479">--&gt;[no] ...</text><text fill="#000000" font-family="Arial" font-size="13" lengthAdjust="spacing" textLength="28.1899" x="1662.43" y="193.8966">endif</text><text fill="#000000" font-family="Arial" font-size="13" lengthAdjust="spacing" textLength="226.0273" x="1662.43" y="208.8454">if "Propose convention rule packs" then</text><text fill="#000000" font-family="Arial" font-size="13" lengthAdjust="spacing" textLength="58.1509" x="1669.6536" y="223.7941">--&gt;[yes] ...</text><text fill="#000000" font-family="Arial" font-size="13" lengthAdjust="spacing" textLength="52.3809" x="1669.6536" y="238.7428">--&gt;[no] ...</text><text fill="#000000" font-family="Arial" font-size="13" lengthAdjust="spacing" textLength="28.1899" x="1662.43" y="253.6915">endif</text><text fill="#000000" font-family="Arial" font-size="13" lengthAdjust="spacing" textLength="213.04" x="1662.43" y="268.6403">if "Convention acceptance gate" then</text><text fill="#000000" font-family="Arial" font-size="13" lengthAdjust="spacing" textLength="58.1509" x="1669.6536" y="283.589">--&gt;[yes] ...</text><text fill="#000000" font-family="Arial" font-size="13" lengthAdjust="spacing" textLength="52.3809" x="1669.6536" y="298.5377">--&gt;[no] ...</text><text fill="#000000" font-family="Arial" font-size="13" lengthAdjust="spacing" textLength="28.1899" x="1662.43" y="313.4865">endif</text><text fill="#000000" font-family="Arial" font-size="13" lengthAdjust="spacing" textLength="187.7192" x="1662.43" y="328.4352">if "Policy enforcement gate" then</text><text fill="#000000" font-family="Arial" font-size="13" lengthAdjust="spacing" textLength="58.1509" x="1669.6536" y="343.3839">--&gt;[yes] ...</text><text fill="#000000" font-family="Arial" font-size="13" lengthAdjust="spacing" textLength="52.3809" x="1669.6536" y="358.3327">--&gt;[no] ...</text><text fill="#000000" font-family="Arial" font-size="13" lengthAdjust="spacing" textLength="28.1899" x="1662.43" y="373.2814">endif</text></g><!--link NOTE_ANCHOR to GMN3--><!--link NOTE_ANCHOR to GMN7--><!--SRC=[dLHHRzis47xthxXv3qcCMd9M80_PKC2rvIM0OmUnks980u4Hpp8RYjH8Ia5G5EYFw5EVzjlwItQavDXU4s0BBHWIx_ZnkxllxYUtnWAXb4oeZhqJgcI65N3BihlSw4hnaPRQmC-Ji7OyEAvO9Tr4ApTZX30qWiaT-z0OVTyUVXtMZd6c7RxLXgDfFKPX_TlZAHBarN72IOJta_xn0FfmXQMcFwjbZI2nHcdX-vUlC1KEeROmHYnVGQPLZSe9hO1b6PQEgGnV0LCSQg4b2vPIIv4zmE5qFXwSmg8K2eywdSfYnYn2buwijUa2ip2RBvDqE1kTpQywQy5nRqCHUJ0YNplGgpqBGA-tq9N9yBJNW-jhhZCRtsjpjvBwtiRrBx4myVqg3h55GZcY73smGi9_zhovwI05vJbq6YP4TpXQdlznllmpdKpdxud5OUy8-lqtq9sNQ9YZv1hygqBhBBrGEasJpYwvYXLq5oWnSvlT9ibmA2d1CQVi7dM1PAJ86JpgzGFQ6uYYw753wSqtKHEh5lNIw59JNdTAOoegR4brjo-373rLPSYPmnTIR0I1QgMfPWL1lmZiiI3FAiEBUq0hAEHiU3M6nN9-sUjzK6VCS5WuNNf2IiDj9IG7RaIDXhhGKM6GxvJSPu_bfDOnSymVfAfr2NxWV_29Bk1ak0s2zhLEdQdS-eEAuY2nWf4AZ8w3ohVslMF2sWffdsv2yyF9OBNHHwjL0Ddpxdpk77ZXaG2tBrlExonQ6EcYeBxqh9EJoUl99B0s52XJkTpSRmCuzQPDcszgfoYASrHUqSXZM-Vnw6BSR_amALF97j3OI6e-YCXChRA7wyFTeeP6U0RJsvv1_DnsdSJLa-sVr3GkL1W0_fjkg8zZcw5YHkZqU13kJTjMIvjvblfMItshHGM7EGb8A2QXFeRDHF3peVBw38Ci1FQ_eSkAviobPCgzkvW25optavYKtupQ7mVBSq9EJfAJ4EltRt_357bEIZsZ4MKtCJUZksWwrS91EmduARGYQgRGTZ3OjftXDo-LDmTaQZJoAuYYb0HAJwWLFUSNbzFa8fajXylp-IoT9kFVaokVk2SD8LURe_vQusmi0-aqeoi4wPxaGyVRI4QFcxiP-GS0]--></g></svg>