<svg xmlns="http://www.w3.org/2000/svg" xmlns:xlink="http://www.w3.org/1999/xlink" contentStyleType="text/css" data-diagram-type="DESCRIPTION" height="272px" preserveAspectRatio="none" style="width:2298px;height:272px;background:#FFFFFF;" version="1.1" viewBox="0 0 2298 272" width="2298px" zoomAndPan="magnify"><title>WF-14 - Branch safety guardrails &#8212; branch-bound state, no branch switching during work (LOD0: Spine)</title><defs/><g><g class="title" data-source-line="8"><text fill="#000000" font-family="Arial" font-size="22" font-weight="bold" lengthAdjust="spacing" textLength="1093.9951" x="597.5974" y="35.6357">WF-14 - Branch safety guardrails &#8212; branch-bound state, no branch switching during work (LOD0: Spine)</text></g><!--cluster Data Stores--><g class="cluster" data-entity="Data Stores" data-source-line="34" data-uid="ent0013" id="cluster_Data Stores"><path d="M1717.69,127.5979 L1796.4966,127.5979 A3.75,3.75 0 0 1 1798.9966,130.0979 L1805.9966,149.6965 L2135.69,149.6965 A2.5,2.5 0 0 1 2138.19,152.1965 L2138.19,237.2979 A2.5,2.5 0 0 1 2135.69,239.7979 L1717.69,239.7979 A2.5,2.5 0 0 1 1715.19,237.2979 L1715.19,130.0979 A2.5,2.5 0 0 1 1717.69,127.5979" fill="#F0F0F0" style="stroke:#000000;stroke-width:1;"/><line style="stroke:#000000;stroke-width:1;" x1="1715.19" x2="1805.9966" y1="149.6965" y2="149.6965"/><text fill="#000000" font-family="Arial" font-size="14" font-weight="bold" lengthAdjust="spacing" textLength="77.8066" x="1719.19" y="142.7297">Data Stores</text></g><!--cluster Uses Commands--><g class="cluster" data-entity="Uses Commands" data-source-line="41" data-uid="ent0016" id="cluster_Uses Commands"><path d="M2164.69,140.1479 L2279.2828,140.1479 A3.75,3.75 0 0 1 2281.7828,142.6479 L2288.7828,162.2465 L2288.69,162.2465 A2.5,2.5 0 0 1 2291.19,164.7465 L2291.19,224.7479 A2.5,2.5 0 0 1 2288.69,227.2479 L2164.69,227.2479 A2.5,2.5 0 0 1 2162.19,224.7479 L2162.19,142.6479 A2.5,2.5 0 0 1 2164.69,140.1479" fill="#E6F3FF" style="stroke:#000000;stroke-width:1;"/><line style="stroke:#000000;stroke-width:1;" x1="2162.19" x2="2288.7828" y1="162.2465" y2="162.2465"/><text fill="#000000" font-family="Arial" font-size="14" font-weight="bold" lengthAdjust="spacing" textLength="113.5928" x="2166.19" y="155.2797">Uses Commands</text></g><!--entity session_store--><g class="entity" data-entity="session_store" data-source-line="35" data-uid="ent0014" id="entity_session_store"><path d="M1731.36,172.5979 C1731.36,162.5979 1847.1871,162.5979 1847.1871,162.5979 C1847.1871,162.5979 1963.0143,162.5979 1963.0143,172.5979 L1963.0143,213.7951 C1963.0143,223.7951 1847.1871,223.7951 1847.1871,223.7951 C1847.1871,223.7951 1731.36,223.7951 1731.36,213.7951 L1731.36,172.5979" fill="#FFFFFF" style="stroke:#000000;stroke-width:1;"/><path d="M1731.36,172.5979 C1731.36,182.5979 1847.1871,182.5979 1847.1871,182.5979 C1847.1871,182.5979 1963.0143,182.5979 1963.0143,172.5979" fill="none" style="stroke:#000000;stroke-width:1;"/><text fill="#000000" font-family="Arial" font-size="14" lengthAdjust="spacing" textLength="86.3789" x="1741.36" y="199.7297">session_store</text><text fill="#000000" font-family="Arial" font-size="14" lengthAdjust="spacing" textLength="211.6543" x="1741.36" y="215.8283">./docs/maestro/session_store.json</text></g><!--entity docs_truth_store--><g class="entity" data-entity="docs_truth_store" data-source-line="36" data-uid="ent0015" id="entity_docs_truth_store"><path d="M1998.05,172.5979 C1998.05,162.5979 2060.1911,162.5979 2060.1911,162.5979 C2060.1911,162.5979 2122.3322,162.5979 2122.3322,172.5979 L2122.3322,213.7951 C2122.3322,223.7951 2060.1911,223.7951 2060.1911,223.7951 C2060.1911,223.7951 1998.05,223.7951 1998.05,213.7951 L1998.05,172.5979" fill="#FFFFFF" style="stroke:#000000;stroke-width:1;"/><path d="M1998.05,172.5979 C1998.05,182.5979 2060.1911,182.5979 2060.1911,182.5979 C2060.1911,182.5979 2122.3322,182.5979 2122.3322,172.5979" fill="none" style="stroke:#000000;stroke-width:1;"/><text fill="#000000" font-family="Arial" font-size="14" lengthAdjust="spacing" textLength="104.2822" x="2008.05" y="199.7297">docs_truth_store</text><text fill="#000000" font-family="Arial" font-size="14" lengthAdjust="spacing" textLength="95.7031" x="2008.05" y="215.8283">./docs/maestro/</text></g><!--entity uses_work--><g class="entity" data-entity="uses_work" data-source-line="42" data-uid="ent0017" id="entity_uses_work"><a href="../generated/svg/CMD-work.all_layers.lod0.svg" target="_top" title="../generated/svg/CMD-work.all_layers.lod0.svg" xlink:actuate="onRequest" xlink:href="../generated/svg/CMD-work.all_layers.lod0.svg" xlink:show="new" xlink:title="../generated/svg/CMD-work.all_layers.lod0.svg" xlink:type="simple"><rect fill="#FFFFFF" height="36.0986" rx="2.5" ry="2.5" style="stroke:#000000;stroke-width:1;" width="49.5586" x="2201.41" y="175.1479"/><text fill="#000000" font-family="Arial" font-size="14" lengthAdjust="spacing" textLength="29.5586" x="2211.41" y="198.2797">work</text></a></g><!--entity NOTE_ANCHOR--><g class="entity" data-entity="ACTIVITY_FLOW" data-source-line="17" data-uid="ent0006" id="entity_ACTIVITY_FLOW"><path d="M1461.84,120.9279 L1461.84,265.4664 L1696.5465,265.4664 L1696.5465,130.9279 L1686.5465,120.9279 L1461.84,120.9279" fill="#FFFFCC" style="stroke:#CCCCCC;stroke-width:1;"/><path d="M1686.5465,120.9279 L1686.5465,130.9279 L1696.5465,130.9279 L1686.5465,120.9279" fill="#FFFFCC" style="stroke:#CCCCCC;stroke-width:1;"/><text fill="#000000" font-family="Arial" font-size="13" lengthAdjust="spacing" textLength="200.3066" x="1467.84" y="138.1217">(*) --&gt; "User initiates work session"</text><text fill="#000000" font-family="Arial" font-size="13" lengthAdjust="spacing" textLength="213.7065" x="1467.84" y="153.0704">if "Check if inside Git repository" then</text><text fill="#000000" font-family="Arial" font-size="13" lengthAdjust="spacing" textLength="58.1509" x="1475.0636" y="168.0192">--&gt;[yes] ...</text><text fill="#000000" font-family="Arial" font-size="13" lengthAdjust="spacing" textLength="52.3809" x="1475.0636" y="182.9679">--&gt;[no] ...</text><text fill="#000000" font-family="Arial" font-size="13" lengthAdjust="spacing" textLength="28.1899" x="1467.84" y="197.9166">endif</text><text fill="#000000" font-family="Arial" font-size="13" lengthAdjust="spacing" textLength="206.4766" x="1467.84" y="212.8654">if "Check for branch mismatch" then</text><text fill="#000000" font-family="Arial" font-size="13" lengthAdjust="spacing" textLength="58.1509" x="1475.0636" y="227.8141">--&gt;[yes] ...</text><text fill="#000000" font-family="Arial" font-size="13" lengthAdjust="spacing" textLength="52.3809" x="1475.0636" y="242.7628">--&gt;[no] ...</text><text fill="#000000" font-family="Arial" font-size="13" lengthAdjust="spacing" textLength="28.1899" x="1467.84" y="257.7115">endif</text></g><!--link NOTE_ANCHOR to GMN3--><!--link NOTE_ANCHOR to GMN7--><!--SRC=[fPJDRjim3CVlVWhEEwmD5ZjPYnrw693cOotG9KEJhHZImc1isj5YIu4a9mY60dk8FU6UP9IJDHzhWHQJ3xP5wYzI_56lx9GAWdcEGdfc9kGSDHOmmNYMQLNAfArofU5rhnex7WcbMEQsfwJj8okqjC1ynzxIMYqtYq-giMFiAqldIYUaDnxjQXnwF1O4UtbMs9pWfbTlda8TpZNAU0e6Kx8ho4hKYKQH6_ZzynTCAcDzubJ0MBJq5gJQJ8DP2XjFXSmWARLxBPMUmT7LeDCuW-5SI3hslD9GZ8R0TqkKzW4Dz0UZRjJgjoy6rzvK9BGt8Jbsq2ARMb3fdWMWLXkgKiTqLgl1U9oes8HkppHNInCkteL2Xyiqh58BXBGaRR328eTdUzxTUSIfkXYyTIGSRgizklnwEVeMzQu6Dnp5KUqOwlKFu7ynf458OGMVZ5cdRyWOeQJFVY85lpsbUEQ-X3Gkqu_2WgQvCi8glVA10PBi2avml29p1q4GF4n8zVUVenBfdcRADTqKeX2cG2x5I-KUKdtop1qr3HxLsL-qhZim70q-rsgtiik4QkQ7KGCyIEk_X2-OG6PDpPag0giEazmfq9mHnupPwg156FBMP7nMRhW7Vh1smeP9XT-cBf5nNhSo22ic2YHZjGhthC5tmmLqbT-RtfDpgoEhIpjzGh5QV-ZbtNjl73bCqFPZcmRpPA2jYW9buXBflk-Tz7fL8ffYYpBZnlKTPfKwjvQ9AkZ6uo08CvAa6SGaD8iiR7_gr9qjm3oFSboHDa6kaaR0HgRyVeDtJkcZVTPTCAsowZJtppiicg69IQ8MAcgUHkkgHEjx8zhU6q6Hm80hBYJci6W-t1N_t2zyDcN1VOUMJvWZUjakyvBR-ddx2CpuJjpjx3y0]--></g></svg>