<svg xmlns="http://www.w3.org/2000/svg" xmlns:xlink="http://www.w3.org/1999/xlink" contentStyleType="text/css" data-diagram-type="DESCRIPTION" height="250px" preserveAspectRatio="none" style="width:2468px;height:250px;background:#FFFFFF;" version="1.1" viewBox="0 0 2468 250" width="2468px" zoomAndPan="magnify"><title>WF-15 - Work &#8596; wsession Cookie Protocol (File-based Polling, Multi-process Safe) (LOD0: Spine)</title><defs/><g><g class="title" data-source-line="31"><text fill="#000000" font-family="Arial" font-size="22" font-weight="bold" lengthAdjust="spacing" textLength="1018.2305" x="720.4348" y="35.6357">WF-15 - Work &#8596; wsession Cookie Protocol (File-based Polling, Multi-process Safe) (LOD0: Spine)</text></g><!--cluster Data Stores--><g class="cluster" data-entity="Data Stores" data-source-line="45" data-uid="ent0011" id="cluster_Data Stores"><path d="M1617.6,128.4379 L1696.4066,128.4379 A3.75,3.75 0 0 1 1698.9066,130.9379 L1705.9066,150.5365 L2239.6,150.5365 A2.5,2.5 0 0 1 2242.1,153.0365 L2242.1,238.1379 A2.5,2.5 0 0 1 2239.6,240.6379 L1617.6,240.6379 A2.5,2.5 0 0 1 1615.1,238.1379 L1615.1,130.9379 A2.5,2.5 0 0 1 1617.6,128.4379" fill="#F0F0F0" style="stroke:#000000;stroke-width:1;"/><line style="stroke:#000000;stroke-width:1;" x1="1615.1" x2="1705.9066" y1="150.5365" y2="150.5365"/><text fill="#000000" font-family="Arial" font-size="14" font-weight="bold" lengthAdjust="spacing" textLength="77.8066" x="1619.1" y="143.5697">Data Stores</text></g><!--cluster Uses Commands--><g class="cluster" data-entity="Uses Commands" data-source-line="52" data-uid="ent0014" id="cluster_Uses Commands"><path d="M2268.6,140.9879 L2383.1928,140.9879 A3.75,3.75 0 0 1 2385.6928,143.4879 L2392.6928,163.0865 L2458.6,163.0865 A2.5,2.5 0 0 1 2461.1,165.5865 L2461.1,225.5879 A2.5,2.5 0 0 1 2458.6,228.0879 L2268.6,228.0879 A2.5,2.5 0 0 1 2266.1,225.5879 L2266.1,143.4879 A2.5,2.5 0 0 1 2268.6,140.9879" fill="#E6F3FF" style="stroke:#000000;stroke-width:1;"/><line style="stroke:#000000;stroke-width:1;" x1="2266.1" x2="2392.6928" y1="163.0865" y2="163.0865"/><text fill="#000000" font-family="Arial" font-size="14" font-weight="bold" lengthAdjust="spacing" textLength="113.5928" x="2270.1" y="156.1197">Uses Commands</text></g><!--entity session_store--><g class="entity" data-entity="session_store" data-source-line="46" data-uid="ent0012" id="entity_session_store"><path d="M1631.48,173.4379 C1631.48,163.4379 1769.107,163.4379 1769.107,163.4379 C1769.107,163.4379 1906.7339,163.4379 1906.7339,173.4379 L1906.7339,214.6351 C1906.7339,224.6351 1769.107,224.6351 1769.107,224.6351 C1769.107,224.6351 1631.48,224.6351 1631.48,214.6351 L1631.48,173.4379" fill="#FFFFFF" style="stroke:#000000;stroke-width:1;"/><path d="M1631.48,173.4379 C1631.48,183.4379 1769.107,183.4379 1769.107,183.4379 C1769.107,183.4379 1906.7339,183.4379 1906.7339,173.4379" fill="none" style="stroke:#000000;stroke-width:1;"/><text fill="#000000" font-family="Arial" font-size="14" lengthAdjust="spacing" textLength="86.3789" x="1641.48" y="200.5697">session_store</text><text fill="#000000" font-family="Arial" font-size="14" lengthAdjust="spacing" textLength="255.2539" x="1641.48" y="216.6683">docs/sessions/&lt;session_id&gt;/session.json</text></g><!--entity breadcrumb_store--><g class="entity" data-entity="breadcrumb_store" data-source-line="47" data-uid="ent0013" id="entity_breadcrumb_store"><path d="M1942.2,173.4379 C1942.2,163.4379 2084.1028,163.4379 2084.1028,163.4379 C2084.1028,163.4379 2226.0057,163.4379 2226.0057,173.4379 L2226.0057,214.6351 C2226.0057,224.6351 2084.1028,224.6351 2084.1028,224.6351 C2084.1028,224.6351 1942.2,224.6351 1942.2,214.6351 L1942.2,173.4379" fill="#FFFFFF" style="stroke:#000000;stroke-width:1;"/><path d="M1942.2,173.4379 C1942.2,183.4379 2084.1028,183.4379 2084.1028,183.4379 C2084.1028,183.4379 2226.0057,183.4379 2226.0057,173.4379" fill="none" style="stroke:#000000;stroke-width:1;"/><text fill="#000000" font-family="Arial" font-size="14" lengthAdjust="spacing" textLength="113.6133" x="1952.2" y="200.5697">breadcrumb_store</text><text fill="#000000" font-family="Arial" font-size="14" lengthAdjust="spacing" textLength="263.8057" x="1952.2" y="216.6683">docs/sessions/&lt;session_id&gt;/breadcrumbs/</text></g><!--entity uses_work--><g class="entity" data-entity="uses_work" data-source-line="53" data-uid="ent0015" id="entity_uses_work"><a href="../generated/svg/CMD-work.all_layers.lod0.svg" target="_top" title="../generated/svg/CMD-work.all_layers.lod0.svg" xlink:actuate="onRequest" xlink:href="../generated/svg/CMD-work.all_layers.lod0.svg" xlink:show="new" xlink:title="../generated/svg/CMD-work.all_layers.lod0.svg" xlink:type="simple"><rect fill="#FFFFFF" height="36.0986" rx="2.5" ry="2.5" style="stroke:#000000;stroke-width:1;" width="49.5586" x="2282.32" y="175.9879"/><text fill="#000000" font-family="Arial" font-size="14" lengthAdjust="spacing" textLength="29.5586" x="2292.32" y="199.1197">work</text></a></g><!--entity uses_wsession--><g class="entity" data-entity="uses_wsession" data-source-line="54" data-uid="ent0016" id="entity_uses_wsession"><a href="../generated/svg/CMD-wsession.all_layers.lod0.svg" target="_top" title="../generated/svg/CMD-wsession.all_layers.lod0.svg" xlink:actuate="onRequest" xlink:href="../generated/svg/CMD-wsession.all_layers.lod0.svg" xlink:show="new" xlink:title="../generated/svg/CMD-wsession.all_layers.lod0.svg" xlink:type="simple"><rect fill="#FFFFFF" height="36.0986" rx="2.5" ry="2.5" style="stroke:#000000;stroke-width:1;" width="77.5791" x="2367.31" y="175.9879"/><text fill="#000000" font-family="Arial" font-size="14" lengthAdjust="spacing" textLength="57.5791" x="2377.31" y="199.1197">wsession</text></a></g><!--entity NOTE_ANCHOR--><g class="entity" data-entity="N1" data-source-line="17" data-uid="ent0006" id="entity_N1"><path d="M1085.85,151.6679 L1085.85,236.4115 L1276.348,236.4115 L1276.348,161.6679 L1266.348,151.6679 L1085.85,151.6679" fill="#FFFFCC" style="stroke:#CCCCCC;stroke-width:1;"/><path d="M1266.348,151.6679 L1266.348,161.6679 L1276.348,161.6679 L1266.348,151.6679" fill="#FFFFCC" style="stroke:#CCCCCC;stroke-width:1;"/><text fill="#000000" font-family="Arial" font-size="13" font-weight="bold" lengthAdjust="spacing" textLength="142.2891" x="1091.85" y="168.8617">Combined view (LOD0)</text><text fill="#000000" font-family="Arial" font-size="13" lengthAdjust="spacing" textLength="3.6118" x="1091.85" y="183.8104">&#160;</text><text fill="#000000" font-family="Arial" font-size="13" lengthAdjust="spacing" textLength="137.998" x="1091.85" y="198.7592">This diagram combines:</text><ellipse cx="1097.35" cy="208.9628" fill="#000000" rx="2.5" ry="2.5"/><text fill="#000000" font-family="Arial" font-size="13" lengthAdjust="spacing" textLength="157.498" x="1103.85" y="213.7079">Intent layer (workflow logic)</text><ellipse cx="1097.35" cy="223.9115" fill="#000000" rx="2.5" ry="2.5"/><text fill="#000000" font-family="Arial" font-size="13" lengthAdjust="spacing" textLength="124.2871" x="1103.85" y="228.6566">Command integration</text></g><g class="entity" data-entity="ACTIVITY_FLOW" data-source-line="38" data-uid="ent0010" id="entity_ACTIVITY_FLOW"><path d="M1311.66,144.1979 L1311.66,243.8902 L1596.5384,243.8902 L1596.5384,154.1979 L1586.5384,144.1979 L1311.66,144.1979" fill="#FFFFCC" style="stroke:#CCCCCC;stroke-width:1;"/><path d="M1586.5384,144.1979 L1586.5384,154.1979 L1596.5384,154.1979 L1586.5384,144.1979" fill="#FFFFCC" style="stroke:#CCCCCC;stroke-width:1;"/><text fill="#000000" font-family="Arial" font-size="13" lengthAdjust="spacing" textLength="263.8784" x="1317.66" y="161.3917">(*) --&gt; "User initiates maestro work command"</text><text fill="#000000" font-family="Arial" font-size="13" lengthAdjust="spacing" textLength="224.5737" x="1317.66" y="176.3404">if "Validate breadcrumb message" then</text><text fill="#000000" font-family="Arial" font-size="13" lengthAdjust="spacing" textLength="58.1509" x="1324.8836" y="191.2892">--&gt;[yes] ...</text><text fill="#000000" font-family="Arial" font-size="13" lengthAdjust="spacing" textLength="52.3809" x="1324.8836" y="206.2379">--&gt;[no] ...</text><text fill="#000000" font-family="Arial" font-size="13" lengthAdjust="spacing" textLength="28.1899" x="1317.66" y="221.1866">endif</text><text fill="#000000" font-family="Arial" font-size="13" lengthAdjust="spacing" textLength="3.6118" x="1317.66" y="236.1354">&#160;</text></g><!--link NOTE_ANCHOR to GMN3--><!--SRC=[rLHDRnen4BtlhvXk3mLKTaEZz11LaIZ9gf4IY0f9LD5ePNPd5nUlZMm3YgfS-mlw2_jBEdQMhoYLqbjhE83d-VdD-CsyibEi4EQ2SHcO6PTpfba54vRDIgqMCkyfeJIyJlpQGUHOi8MmYPAspuYXgpaJE_6krcfL7pxqQoVOLnO_AfsZhX4zlvuYdXD1gC1oAn1katRd2DhGKzM4IypXWjsZDj2u69mUD8DWOJ1Z1Y5aCfig7G8pq1-Cpj9kl_Tfy3cOyXptDYJT2PgNKmkgs8i0j5f3jT0P7hTQC1xdAZFnIkbP8TJAnCjtCTVngeYzf8XBYz96zwmIy6BatLs0CWUd8NXKukHs_DMR39SSLtL-hHQ5w3kQSWCvPwMhMlO8DCVk69nxTX2kBD1OYm2XIfurFOA8AqQtEXr4OBcIEofU_V_UkAMauTUFdx0oQ0obHoch6KUuqiggJ0be95nWUq96oU5A2S5b-HOkIJrlpxNAw1GCMO7Dnx8Vmt1E1Mu6_w1PkhtH-Stvw4kQN0nkIKMZrOHs-mJ2QqFlpoMtd5aqK34qLYjm5pd7E0U4XES5X3TCy9nGCD78yamlgWbKL0DMOWXa1qauSApZUpHt44NHPaEgzN-InWldpet6ERqMKK1uoYo3eLKQJKXlTk0-y9smT2cR-6wj7oer3lLL-fhKUoR-i8xo_6Iz6tqpIlhktZkwHxfDvmMyMx29FU_Jqy53yCPLbYgy_R5DakfjrgtbqZnxdnmcYKzJOsQPBCcXeIk_PwSvPLB_6EDn5CKbIgHMn3msopBkNPwsNInYGgI-aqqaL7uGKP1SiCzO9x73kdRzdvZN9NoU_Q4sby3YMPUVBMc4IkzpFqx6usKdDXbAfhbAEqS-gus8DFEjbyxhrekg70RKGLmo0SiER0OKFSsY8glxUUIJ_6lg-OBQwKemQQylBpRZiQ11GIRUtBJNHhy1]--></g></svg>