<svg xmlns="http://www.w3.org/2000/svg" xmlns:xlink="http://www.w3.org/1999/xlink" contentStyleType="text/css" data-diagram-type="DESCRIPTION" height="520px" preserveAspectRatio="none" style="width:2265px;height:520px;background:#FFFFFF;" version="1.1" viewBox="0 0 2265 520" width="2265px" zoomAndPan="magnify"><title>WF-13 - Read-only &#8594; Adopt bridge (home hub to repo truth) (LOD0: Spine)</title><defs/><g><g class="title" data-source-line="31"><text fill="#000000" font-family="Arial" font-size="22" font-weight="bold" lengthAdjust="spacing" textLength="778.4971" x="739.0665" y="35.6357">WF-13 - Read-only &#8594; Adopt bridge (home hub to repo truth) (LOD0: Spine)</text></g><!--cluster Data Stores--><g class="cluster" data-entity="Data Stores" data-source-line="57" data-uid="ent0011" id="cluster_Data Stores"><path d="M1914.13,196.0979 L1992.9366,196.0979 A3.75,3.75 0 0 1 1995.4366,198.5979 L2002.4366,218.1965 L2256.13,218.1965 A2.5,2.5 0 0 1 2258.63,220.6965 L2258.63,305.7979 A2.5,2.5 0 0 1 2256.13,308.2979 L1914.13,308.2979 A2.5,2.5 0 0 1 1911.63,305.7979 L1911.63,198.5979 A2.5,2.5 0 0 1 1914.13,196.0979" fill="#F0F0F0" style="stroke:#000000;stroke-width:1;"/><line style="stroke:#000000;stroke-width:1;" x1="1911.63" x2="2002.4366" y1="218.1965" y2="218.1965"/><text fill="#000000" font-family="Arial" font-size="14" font-weight="bold" lengthAdjust="spacing" textLength="77.8066" x="1915.63" y="211.2297">Data Stores</text></g><!--cluster Uses Commands--><g class="cluster" data-entity="Uses Commands" data-source-line="64" data-uid="ent0014" id="cluster_Uses Commands"><path d="M1137.13,208.6479 L1251.7228,208.6479 A3.75,3.75 0 0 1 1254.2228,211.1479 L1261.2228,230.7465 L1291.13,230.7465 A2.5,2.5 0 0 1 1293.63,233.2465 L1293.63,510.8379 A2.5,2.5 0 0 1 1291.13,513.3379 L1137.13,513.3379 A2.5,2.5 0 0 1 1134.63,510.8379 L1134.63,211.1479 A2.5,2.5 0 0 1 1137.13,208.6479" fill="#E6F3FF" style="stroke:#000000;stroke-width:1;"/><line style="stroke:#000000;stroke-width:1;" x1="1134.63" x2="1261.2228" y1="230.7465" y2="230.7465"/><text fill="#000000" font-family="Arial" font-size="14" font-weight="bold" lengthAdjust="spacing" textLength="113.5928" x="1138.63" y="223.7797">Uses Commands</text></g><!--entity home_hub--><g class="entity" data-entity="home_hub" data-source-line="58" data-uid="ent0012" id="entity_home_hub"><path d="M1927.66,241.0979 C1927.66,231.0979 2009.6288,231.0979 2009.6288,231.0979 C2009.6288,231.0979 2091.5975,231.0979 2091.5975,241.0979 L2091.5975,282.2951 C2091.5975,292.2951 2009.6288,292.2951 2009.6288,292.2951 C2009.6288,292.2951 1927.66,292.2951 1927.66,282.2951 L1927.66,241.0979" fill="#FFFFFF" style="stroke:#000000;stroke-width:1;"/><path d="M1927.66,241.0979 C1927.66,251.0979 2009.6288,251.0979 2009.6288,251.0979 C2009.6288,251.0979 2091.5975,251.0979 2091.5975,241.0979" fill="none" style="stroke:#000000;stroke-width:1;"/><text fill="#000000" font-family="Arial" font-size="14" lengthAdjust="spacing" textLength="66.165" x="1937.66" y="268.2297">home_hub</text><text fill="#000000" font-family="Arial" font-size="14" lengthAdjust="spacing" textLength="143.9375" x="1937.66" y="284.3283">$HOME/.maestro/repo/</text></g><!--entity repo_truth--><g class="entity" data-entity="repo_truth" data-source-line="59" data-uid="ent0013" id="entity_repo_truth"><path d="M2126.78,241.0979 C2126.78,231.0979 2184.6316,231.0979 2184.6316,231.0979 C2184.6316,231.0979 2242.4831,231.0979 2242.4831,241.0979 L2242.4831,282.2951 C2242.4831,292.2951 2184.6316,292.2951 2184.6316,292.2951 C2184.6316,292.2951 2126.78,292.2951 2126.78,282.2951 L2126.78,241.0979" fill="#FFFFFF" style="stroke:#000000;stroke-width:1;"/><path d="M2126.78,241.0979 C2126.78,251.0979 2184.6316,251.0979 2184.6316,251.0979 C2184.6316,251.0979 2242.4831,251.0979 2242.4831,241.0979" fill="none" style="stroke:#000000;stroke-width:1;"/><text fill="#000000" font-family="Arial" font-size="14" lengthAdjust="spacing" textLength="63.8203" x="2136.78" y="268.2297">repo_truth</text><text fill="#000000" font-family="Arial" font-size="14" lengthAdjust="spacing" textLength="95.7031" x="2136.78" y="284.3283">./docs/maestro/</text></g><!--entity uses_init--><g class="entity" data-entity="uses_init" data-source-line="65" data-uid="ent0015" id="entity_uses_init"><a href="../generated/svg/CMD-init.all_layers.lod0.svg" target="_top" title="../generated/svg/CMD-init.all_layers.lod0.svg" xlink:actuate="onRequest" xlink:href="../generated/svg/CMD-init.all_layers.lod0.svg" xlink:show="new" xlink:title="../generated/svg/CMD-init.all_layers.lod0.svg" xlink:type="simple"><rect fill="#FFFFFF" height="36.0986" rx="2.5" ry="2.5" style="stroke:#000000;stroke-width:1;" width="37.8965" x="1150.68" y="243.6479"/><text fill="#000000" font-family="Arial" font-size="14" lengthAdjust="spacing" textLength="17.8965" x="1160.68" y="266.7797">init</text></a></g><!--entity uses_make--><g class="entity" data-entity="uses_make" data-source-line="66" data-uid="ent0016" id="entity_uses_make"><a href="../generated/svg/CMD-make.all_layers.lod0.svg" target="_top" title="../generated/svg/CMD-make.all_layers.lod0.svg" xlink:actuate="onRequest" xlink:href="../generated/svg/CMD-make.all_layers.lod0.svg" xlink:show="new" xlink:title="../generated/svg/CMD-make.all_layers.lod0.svg" xlink:type="simple"><rect fill="#FFFFFF" height="36.0986" rx="2.5" ry="2.5" style="stroke:#000000;stroke-width:1;" width="54.2344" x="1223.51" y="243.6479"/><text fill="#000000" font-family="Arial" font-size="14" lengthAdjust="spacing" textLength="34.2344" x="1233.51" y="266.7797">make</text></a></g><!--entity uses_repo--><g class="entity" data-entity="uses_repo" data-source-line="67" data-uid="ent0017" id="entity_uses_repo"><a href="../generated/svg/CMD-repo.all_layers.lod0.svg" target="_top" title="../generated/svg/CMD-repo.all_layers.lod0.svg" xlink:actuate="onRequest" xlink:href="../generated/svg/CMD-repo.all_layers.lod0.svg" xlink:show="new" xlink:title="../generated/svg/CMD-repo.all_layers.lod0.svg" xlink:type="simple"><rect fill="#FFFFFF" height="36.0986" rx="2.5" ry="2.5" style="stroke:#000000;stroke-width:1;" width="48.0205" x="1150.62" y="461.2379"/><text fill="#000000" font-family="Arial" font-size="14" lengthAdjust="spacing" textLength="28.0205" x="1160.62" y="484.3697">repo</text></a></g><!--entity NOTE_ANCHOR--><g class="entity" data-entity="N1" data-source-line="17" data-uid="ent0006" id="entity_N1"><path d="M1312.38,219.3279 L1312.38,304.0715 L1502.878,304.0715 L1502.878,229.3279 L1492.878,219.3279 L1312.38,219.3279" fill="#FFFFCC" style="stroke:#CCCCCC;stroke-width:1;"/><path d="M1492.878,219.3279 L1492.878,229.3279 L1502.878,229.3279 L1492.878,219.3279" fill="#FFFFCC" style="stroke:#CCCCCC;stroke-width:1;"/><text fill="#000000" font-family="Arial" font-size="13" font-weight="bold" lengthAdjust="spacing" textLength="142.2891" x="1318.38" y="236.5217">Combined view (LOD0)</text><text fill="#000000" font-family="Arial" font-size="13" lengthAdjust="spacing" textLength="3.6118" x="1318.38" y="251.4704">&#160;</text><text fill="#000000" font-family="Arial" font-size="13" lengthAdjust="spacing" textLength="137.998" x="1318.38" y="266.4192">This diagram combines:</text><ellipse cx="1323.88" cy="276.6228" fill="#000000" rx="2.5" ry="2.5"/><text fill="#000000" font-family="Arial" font-size="13" lengthAdjust="spacing" textLength="157.498" x="1330.38" y="281.3679">Intent layer (workflow logic)</text><ellipse cx="1323.88" cy="291.5715" fill="#000000" rx="2.5" ry="2.5"/><text fill="#000000" font-family="Arial" font-size="13" lengthAdjust="spacing" textLength="124.2871" x="1330.38" y="296.3166">Command integration</text></g><g class="entity" data-entity="ACTIVITY_FLOW" data-source-line="38" data-uid="ent0010" id="entity_ACTIVITY_FLOW"><path d="M1538.13,122.1579 L1538.13,401.235 L1893.1437,401.235 L1893.1437,132.1579 L1883.1437,122.1579 L1538.13,122.1579" fill="#FFFFCC" style="stroke:#CCCCCC;stroke-width:1;"/><path d="M1883.1437,122.1579 L1883.1437,132.1579 L1893.1437,132.1579 L1883.1437,122.1579" fill="#FFFFCC" style="stroke:#CCCCCC;stroke-width:1;"/><text fill="#000000" font-family="Arial" font-size="13" lengthAdjust="spacing" textLength="334.0137" x="1544.13" y="139.3517">(*) --&gt; "User runs Maestro command in non-adopted repo"</text><text fill="#000000" font-family="Arial" font-size="13" lengthAdjust="spacing" textLength="144.3711" x="1544.13" y="154.3004">if "Read-only guard" then</text><text fill="#000000" font-family="Arial" font-size="13" lengthAdjust="spacing" textLength="58.1509" x="1551.3536" y="169.2492">--&gt;[yes] ...</text><text fill="#000000" font-family="Arial" font-size="13" lengthAdjust="spacing" textLength="52.3809" x="1551.3536" y="184.1979">--&gt;[no] ...</text><text fill="#000000" font-family="Arial" font-size="13" lengthAdjust="spacing" textLength="28.1899" x="1544.13" y="199.1466">endif</text><text fill="#000000" font-family="Arial" font-size="13" lengthAdjust="spacing" textLength="173.9893" x="1544.13" y="214.0954">if "Adopt this repository?" then</text><text fill="#000000" font-family="Arial" font-size="13" lengthAdjust="spacing" textLength="58.1509" x="1551.3536" y="229.0441">--&gt;[yes] ...</text><text fill="#000000" font-family="Arial" font-size="13" lengthAdjust="spacing" textLength="52.3809" x="1551.3536" y="243.9928">--&gt;[no] ...</text><text fill="#000000" font-family="Arial" font-size="13" lengthAdjust="spacing" textLength="28.1899" x="1544.13" y="258.9415">endif</text><text fill="#000000" font-family="Arial" font-size="13" lengthAdjust="spacing" textLength="178.3057" x="1544.13" y="273.8903">if "Decide import strategy" then</text><text fill="#000000" font-family="Arial" font-size="13" lengthAdjust="spacing" textLength="58.1509" x="1551.3536" y="288.839">--&gt;[yes] ...</text><text fill="#000000" font-family="Arial" font-size="13" lengthAdjust="spacing" textLength="52.3809" x="1551.3536" y="303.7877">--&gt;[no] ...</text><text fill="#000000" font-family="Arial" font-size="13" lengthAdjust="spacing" textLength="28.1899" x="1544.13" y="318.7365">endif</text><text fill="#000000" font-family="Arial" font-size="13" lengthAdjust="spacing" textLength="135.7065" x="1544.13" y="333.6852">if "RepoConf gate" then</text><text fill="#000000" font-family="Arial" font-size="13" lengthAdjust="spacing" textLength="58.1509" x="1551.3536" y="348.6339">--&gt;[yes] ...</text><text fill="#000000" font-family="Arial" font-size="13" lengthAdjust="spacing" textLength="52.3809" x="1551.3536" y="363.5827">--&gt;[no] ...</text><text fill="#000000" font-family="Arial" font-size="13" lengthAdjust="spacing" textLength="28.1899" x="1544.13" y="378.5314">endif</text><text fill="#000000" font-family="Arial" font-size="13" lengthAdjust="spacing" textLength="3.6118" x="1544.13" y="393.4801">&#160;</text></g><!--link NOTE_ANCHOR to GMN3--><!--SRC=[rLJBRjim4BphAxPgWTe6BCKrq4CEBLm_a02ENIHEWy8915ga9C8IAP2K3QF8jH_GJ-oNT4c_YnX8Scfb7qJjxd2ud9qt9cC5Wp8dN7XwpaL952bWHk9vgcGbQ5VcKi7RWNiECYXBI9MRWHHcH12XepZ93-8TfUHoKznspq5m90tx8XLbQfFHTS_V6K-Hm2pFS9Cpk1iqMsreGbSMCouOXI5PCQMXDXptpkgULsaM4yt09oBEfFA1Q1YD9_seC-fUZA-zZ5Dsz47Wdg1ucXcGoL44eD6uaPMAsNcZ0TCfbR4EbrBDarmkTRZu478LBfFGKGguC4oOO4MA79wT-V3WCK71Sl3MJ2pTbjjwTy85PylD-HeD3E5_ad4Db9FKTYrU9-fpMmQN3XrosnQeRKb0BbCUrrq60XS4TxKy4C1mAGvOlFd_jN7D26rAaQ_WzyzVqA6oD31JdAOCQfb4Qbar0oD1iLA2KPN9wkl-diDDYPsiU_-WAZhToUMtoydtQ30Sto6BMgCEpUOdy6yrNhIgX8OhmhHHqWfYSy688Ph4DW1rP8_hOoLFmD-tAAs8eZxWhGkCWSMShfX-W208TX-4tAwH64ys8ElE6gj5YwsvaMhr-NLOFHRRoUH5APK1F0P1SQvUXtMDPBfI990YoCiXziqlKMy4LUFtY25mWyTZsaVLdTaV_C1SYe6Pynihh0Y5TI_UNOol-c5Gh6yZjAq9dGzjKuxgR3Xo8hmNGUWqigrqHVkuz-YzjpUEDxz_sND47UZjR5kM_O-3zc3WM2eM6o9I716V2suSBXgbZkmADHm4OSe4ipsdeLwaOVUgrxInWEHvvAn41xcaPm46KPr7Y0MPipsYNPr2jB7d83gXxX3Tb9v0jB4JY8-RqSbPykGCznUeD-6csBdYTBfeXJfcWYWkerORzyN1mGc9Z8pS24Lh3maA2cEq1Yv83eiMRFEiev13hzcEkZlUIpOeAtIBhpaHvlPgkBFv10tlr5v7Zl47]--></g></svg>