<svg xmlns="http://www.w3.org/2000/svg" xmlns:xlink="http://www.w3.org/1999/xlink" contentStyleType="text/css" data-diagram-type="DESCRIPTION" height="179px" preserveAspectRatio="none" style="width:1892px;height:179px;background:#FFFFFF;" version="1.1" viewBox="0 0 1892 179" width="1892px" zoomAndPan="magnify"><title>WF-15 - Work &#8596; wsession Cookie Protocol (File-based Polling, Multi-process Safe) (LOD0: Spine)</title><defs/><g><g class="title" data-source-line="8"><text fill="#000000" font-family="Arial" font-size="22" font-weight="bold" lengthAdjust="spacing" textLength="1018.2305" x="432.4348" y="35.6357">WF-15 - Work &#8596; wsession Cookie Protocol (File-based Polling, Multi-process Safe) (LOD0: Spine)</text></g><!--cluster Data Stores--><g class="cluster" data-entity="Data Stores" data-source-line="24" data-uid="ent0007" id="cluster_Data Stores"><path d="M1041.6,57.2979 L1120.4066,57.2979 A3.75,3.75 0 0 1 1122.9066,59.7979 L1129.9066,79.3965 L1663.6,79.3965 A2.5,2.5 0 0 1 1666.1,81.8965 L1666.1,166.9979 A2.5,2.5 0 0 1 1663.6,169.4979 L1041.6,169.4979 A2.5,2.5 0 0 1 1039.1,166.9979 L1039.1,59.7979 A2.5,2.5 0 0 1 1041.6,57.2979" fill="#F0F0F0" style="stroke:#000000;stroke-width:1;"/><line style="stroke:#000000;stroke-width:1;" x1="1039.1" x2="1129.9066" y1="79.3965" y2="79.3965"/><text fill="#000000" font-family="Arial" font-size="14" font-weight="bold" lengthAdjust="spacing" textLength="77.8066" x="1043.1" y="72.4297">Data Stores</text></g><!--cluster Uses Commands--><g class="cluster" data-entity="Uses Commands" data-source-line="31" data-uid="ent0010" id="cluster_Uses Commands"><path d="M1692.6,69.8479 L1807.1928,69.8479 A3.75,3.75 0 0 1 1809.6928,72.3479 L1816.6928,91.9465 L1882.6,91.9465 A2.5,2.5 0 0 1 1885.1,94.4465 L1885.1,154.4479 A2.5,2.5 0 0 1 1882.6,156.9479 L1692.6,156.9479 A2.5,2.5 0 0 1 1690.1,154.4479 L1690.1,72.3479 A2.5,2.5 0 0 1 1692.6,69.8479" fill="#E6F3FF" style="stroke:#000000;stroke-width:1;"/><line style="stroke:#000000;stroke-width:1;" x1="1690.1" x2="1816.6928" y1="91.9465" y2="91.9465"/><text fill="#000000" font-family="Arial" font-size="14" font-weight="bold" lengthAdjust="spacing" textLength="113.5928" x="1694.1" y="84.9797">Uses Commands</text></g><!--entity session_store--><g class="entity" data-entity="session_store" data-source-line="25" data-uid="ent0008" id="entity_session_store"><path d="M1055.48,102.2979 C1055.48,92.2979 1193.107,92.2979 1193.107,92.2979 C1193.107,92.2979 1330.7339,92.2979 1330.7339,102.2979 L1330.7339,143.4951 C1330.7339,153.4951 1193.107,153.4951 1193.107,153.4951 C1193.107,153.4951 1055.48,153.4951 1055.48,143.4951 L1055.48,102.2979" fill="#FFFFFF" style="stroke:#000000;stroke-width:1;"/><path d="M1055.48,102.2979 C1055.48,112.2979 1193.107,112.2979 1193.107,112.2979 C1193.107,112.2979 1330.7339,112.2979 1330.7339,102.2979" fill="none" style="stroke:#000000;stroke-width:1;"/><text fill="#000000" font-family="Arial" font-size="14" lengthAdjust="spacing" textLength="86.3789" x="1065.48" y="129.4297">session_store</text><text fill="#000000" font-family="Arial" font-size="14" lengthAdjust="spacing" textLength="255.2539" x="1065.48" y="145.5283">docs/sessions/&lt;session_id&gt;/session.json</text></g><!--entity breadcrumb_store--><g class="entity" data-entity="breadcrumb_store" data-source-line="26" data-uid="ent0009" id="entity_breadcrumb_store"><path d="M1366.2,102.2979 C1366.2,92.2979 1508.1028,92.2979 1508.1028,92.2979 C1508.1028,92.2979 1650.0057,92.2979 1650.0057,102.2979 L1650.0057,143.4951 C1650.0057,153.4951 1508.1028,153.4951 1508.1028,153.4951 C1508.1028,153.4951 1366.2,153.4951 1366.2,143.4951 L1366.2,102.2979" fill="#FFFFFF" style="stroke:#000000;stroke-width:1;"/><path d="M1366.2,102.2979 C1366.2,112.2979 1508.1028,112.2979 1508.1028,112.2979 C1508.1028,112.2979 1650.0057,112.2979 1650.0057,102.2979" fill="none" style="stroke:#000000;stroke-width:1;"/><text fill="#000000" font-family="Arial" font-size="14" lengthAdjust="spacing" textLength="113.6133" x="1376.2" y="129.4297">breadcrumb_store</text><text fill="#000000" font-family="Arial" font-size="14" lengthAdjust="spacing" textLength="263.8057" x="1376.2" y="145.5283">docs/sessions/&lt;session_id&gt;/breadcrumbs/</text></g><!--entity uses_work--><g class="entity" data-entity="uses_work" data-source-line="32" data-uid="ent0011" id="entity_uses_work"><a href="../generated/svg/CMD-work.all_layers.lod0.svg" target="_top" title="../generated/svg/CMD-work.all_layers.lod0.svg" xlink:actuate="onRequest" xlink:href="../generated/svg/CMD-work.all_layers.lod0.svg" xlink:show="new" xlink:title="../generated/svg/CMD-work.all_layers.lod0.svg" xlink:type="simple"><rect fill="#FFFFFF" height="36.0986" rx="2.5" ry="2.5" style="stroke:#000000;stroke-width:1;" width="49.5586" x="1706.32" y="104.8479"/><text fill="#000000" font-family="Arial" font-size="14" lengthAdjust="spacing" textLength="29.5586" x="1716.32" y="127.9797">work</text></a></g><!--entity uses_wsession--><g class="entity" data-entity="uses_wsession" data-source-line="33" data-uid="ent0012" id="entity_uses_wsession"><a href="../generated/svg/CMD-wsession.all_layers.lod0.svg" target="_top" title="../generated/svg/CMD-wsession.all_layers.lod0.svg" xlink:actuate="onRequest" xlink:href="../generated/svg/CMD-wsession.all_layers.lod0.svg" xlink:show="new" xlink:title="../generated/svg/CMD-wsession.all_layers.lod0.svg" xlink:type="simple"><rect fill="#FFFFFF" height="36.0986" rx="2.5" ry="2.5" style="stroke:#000000;stroke-width:1;" width="77.5791" x="1791.31" y="104.8479"/><text fill="#000000" font-family="Arial" font-size="14" lengthAdjust="spacing" textLength="57.5791" x="1801.31" y="127.9797">wsession</text></a></g><!--entity NOTE_ANCHOR--><g class="entity" data-entity="ACTIVITY_FLOW" data-source-line="17" data-uid="ent0006" id="entity_ACTIVITY_FLOW"><path d="M735.66,73.0579 L735.66,172.7502 L1020.5384,172.7502 L1020.5384,83.0579 L1010.5384,73.0579 L735.66,73.0579" fill="#FFFFCC" style="stroke:#CCCCCC;stroke-width:1;"/><path d="M1010.5384,73.0579 L1010.5384,83.0579 L1020.5384,83.0579 L1010.5384,73.0579" fill="#FFFFCC" style="stroke:#CCCCCC;stroke-width:1;"/><text fill="#000000" font-family="Arial" font-size="13" lengthAdjust="spacing" textLength="263.8784" x="741.66" y="90.2517">(*) --&gt; "User initiates maestro work command"</text><text fill="#000000" font-family="Arial" font-size="13" lengthAdjust="spacing" textLength="224.5737" x="741.66" y="105.2004">if "Validate breadcrumb message" then</text><text fill="#000000" font-family="Arial" font-size="13" lengthAdjust="spacing" textLength="58.1509" x="748.8836" y="120.1492">--&gt;[yes] ...</text><text fill="#000000" font-family="Arial" font-size="13" lengthAdjust="spacing" textLength="52.3809" x="748.8836" y="135.0979">--&gt;[no] ...</text><text fill="#000000" font-family="Arial" font-size="13" lengthAdjust="spacing" textLength="28.1899" x="741.66" y="150.0466">endif</text><text fill="#000000" font-family="Arial" font-size="13" lengthAdjust="spacing" textLength="3.6118" x="741.66" y="164.9954">&#160;</text></g><!--SRC=[bLJRRjf047ttLqpTXoQesA5H-X1LaIY9rKe9H2KNLJIo1k_OR5dlejq555LvxHVq2_ib7MyXG9HAwVA0lNlcx9cPCtxb9rGJp1HA7Rcfr3EqMCCOYsbbpLoBdb76mkiih2s4e1BdocT6-puoGzTAL5ldNMlDSXLy6DRMOTzu-cYi8Bj2zC9wYdXE1ACYBxqYkCtQdIDemwsnK_ZzynSi7JadZOQUCLD9S6cDDuLHi9T9HUqnEX9mQPIIkdeB5wnUjcVM51m5Gonf7_RE1wS7np2SIKtxKJHtL70GnAYBYR4ne8F-uEeix_PxdmPVeeaKjBEXMJLOMKqyc7Bd1A3L6fgvBUYurOBHI9Z2fKjMNYgpTEdYNIfjkYpJa5GYjIVjatki5RmOUNSNaHRGQ8Z-Ac6vtTxLvvlFLr_px7nmoohsMllGRfz0VEt8WjJII_Jae4PotXfeBeB2r3Lg4JDUbX3Ve9A2KJ2sXAAmyteCDHSDAug1_QCP1mthw9xS7IH9yhYXpVgTfScI_pSQPznUfe3u53t2q1jBBkOc7pG_-C5OlXJ7eG6hpkQkGNtJeIQhFPT-M9zASRBUJRuxeqF3Ta9tI3Vfl81t0tPfu7qQ7Jr4RvhASeKt3viakTwEZHaAswHvzZuxpBAGfgN2ewxOqd5J_i3ErdDvQCPeb2HfHPeijq2aRb6blOlJTdEMe5AvmdkoBb5672Hyo2xOPLmbiSMw7fD_CQzB-3pxmyfSYifdNNwsuAdGmUVDEz-owAIk88rMchnp5B9w594NOLRpsMfMarh0W2T8QbImwC3Q-CqOp6ksEdgE2ad-D_LipkDqgL3xwujp41AhvajJyfU5JVnuq_OO_G40]--></g></svg>