<svg xmlns="http://www.w3.org/2000/svg" xmlns:xlink="http://www.w3.org/1999/xlink" contentStyleType="text/css" data-diagram-type="ACTIVITY" height="973px" preserveAspectRatio="none" style="width:398px;height:973px;background:#FFFFFF;" version="1.1" viewBox="0 0 398 973" width="398px" zoomAndPan="magnify"><defs/><g><ellipse cx="192.3984" cy="20" fill="#222222" rx="10" ry="10" style="stroke:#222222;stroke-width:1;"/><rect fill="#F1F1F1" height="33.7988" rx="12.5" ry="12.5" style="stroke:#181818;stroke-width:0.5;" width="207.377" x="88.71" y="50"/><text fill="#000000" font-family="sans-serif" font-size="12" lengthAdjust="spacing" textLength="187.377" x="98.71" y="71.2559">User invokes `maestro workflow ...`</text><rect fill="none" height="135.6963" style="stroke:#000000;stroke-width:1.5;" width="196.75" x="94.0234" y="93.7988"/><path d="M194.2852,93.7988 L194.2852,102.8975 L184.2852,112.8975 L94.0234,112.8975" fill="none" style="stroke:#000000;stroke-width:1.5;"/><text fill="#000000" font-family="sans-serif" font-size="14" lengthAdjust="spacing" textLength="90.2617" x="97.0234" y="107.9307">CLI / Argparse</text><rect fill="#F1F1F1" height="33.7988" rx="12.5" ry="12.5" style="stroke:#181818;stroke-width:0.5;" width="176.75" x="104.0234" y="129.8975"/><text fill="#000000" font-family="sans-serif" font-size="12" lengthAdjust="spacing" textLength="156.75" x="114.0234" y="151.1533">Parse args and subcommand</text><rect fill="#F1F1F1" height="33.7988" rx="12.5" ry="12.5" style="stroke:#181818;stroke-width:0.5;" width="173.4043" x="105.6963" y="183.6963"/><text fill="#000000" font-family="sans-serif" font-size="12" lengthAdjust="spacing" textLength="153.4043" x="115.6963" y="204.9521">Dispatch to workflow handler</text><rect fill="none" height="189.4951" style="stroke:#000000;stroke-width:1.5;" width="279.4434" x="52.6768" y="239.4951"/><path d="M200.3867,239.4951 L200.3867,248.5938 L190.3867,258.5938 L52.6768,258.5938" fill="none" style="stroke:#000000;stroke-width:1.5;"/><text fill="#000000" font-family="sans-serif" font-size="14" lengthAdjust="spacing" textLength="137.71" x="55.6768" y="253.627">Workflow Graph Store</text><rect fill="#F1F1F1" height="33.7988" rx="12.5" ry="12.5" style="stroke:#181818;stroke-width:0.5;" width="259.4434" x="62.6768" y="275.5938"/><text fill="#000000" font-family="sans-serif" font-size="12" lengthAdjust="spacing" textLength="239.4434" x="72.6768" y="296.8496">Read ./docs/maestro/workflows/&lt;name&gt;.json</text><rect fill="#F1F1F1" height="33.7988" rx="12.5" ry="12.5" style="stroke:#181818;stroke-width:0.5;" width="173.4277" x="105.6846" y="329.3926"/><text fill="#000000" font-family="sans-serif" font-size="12" lengthAdjust="spacing" textLength="153.4277" x="115.6846" y="350.6484">Apply graph edits / validation</text><rect fill="#F1F1F1" height="33.7988" rx="12.5" ry="12.5" style="stroke:#181818;stroke-width:0.5;" width="258.752" x="63.0225" y="383.1914"/><text fill="#000000" font-family="sans-serif" font-size="12" lengthAdjust="spacing" textLength="238.752" x="73.0225" y="404.4473">Write ./docs/maestro/workflows/&lt;name&gt;.json</text><rect fill="none" height="389.144" style="stroke:#000000;stroke-width:1.5;" width="376.7969" x="11" y="438.9902"/><path d="M119.0479,438.9902 L119.0479,448.0889 L109.0479,458.0889 L11,458.0889" fill="none" style="stroke:#000000;stroke-width:1.5;"/><text fill="#000000" font-family="sans-serif" font-size="14" lengthAdjust="spacing" textLength="98.0479" x="14" y="453.1221">Export / Render</text><rect fill="#F1F1F1" height="33.7988" rx="12.5" ry="12.5" style="stroke:#181818;stroke-width:0.5;" width="338.7969" x="23" y="523.4133"/><text fill="#000000" font-family="sans-serif" font-size="12" lengthAdjust="spacing" textLength="318.7969" x="33" y="544.6692">Export PlantUML to ./docs/maestro/workflows/&lt;name&gt;.puml</text><polygon fill="#F1F1F1" points="147.4531,475.0889,237.3438,475.0889,249.3438,487.0889,237.3438,499.0889,147.4531,499.0889,135.4531,487.0889,147.4531,475.0889" style="stroke:#181818;stroke-width:0.5;"/><text fill="#000000" font-family="sans-serif" font-size="11" lengthAdjust="spacing" textLength="17.1177" x="196.3984" y="509.4067">yes</text><text fill="#000000" font-family="sans-serif" font-size="11" lengthAdjust="spacing" textLength="89.8906" x="147.4531" y="491.0823">Export requested?</text><polygon fill="#F1F1F1" points="192.3984,577.2122,204.3984,589.2122,192.3984,601.2122,180.3984,589.2122,192.3984,577.2122" style="stroke:#181818;stroke-width:0.5;"/><rect fill="#F1F1F1" height="33.7988" rx="12.5" ry="12.5" style="stroke:#181818;stroke-width:0.5;" width="161.3867" x="111.7051" y="669.5366"/><text fill="#000000" font-family="sans-serif" font-size="12" lengthAdjust="spacing" textLength="141.3867" x="121.7051" y="690.7925">Call /usr/bin/plantuml -tsvg</text><rect fill="#F1F1F1" height="33.7988" rx="12.5" ry="12.5" style="stroke:#181818;stroke-width:0.5;" width="255.4121" x="64.6924" y="738.3354"/><text fill="#000000" font-family="sans-serif" font-size="12" lengthAdjust="spacing" textLength="235.4121" x="74.6924" y="759.5913">Write ./docs/maestro/workflows/&lt;name&gt;.svg</text><polygon fill="#F1F1F1" points="145.3101,621.2122,239.4868,621.2122,251.4868,633.2122,239.4868,645.2122,145.3101,645.2122,133.3101,633.2122,145.3101,621.2122" style="stroke:#181818;stroke-width:0.5;"/><text fill="#000000" font-family="sans-serif" font-size="11" lengthAdjust="spacing" textLength="17.1177" x="196.3984" y="655.53">yes</text><text fill="#000000" font-family="sans-serif" font-size="11" lengthAdjust="spacing" textLength="94.1768" x="145.3101" y="637.2056">Render requested?</text><polygon fill="#F1F1F1" points="192.3984,792.1343,204.3984,804.1343,192.3984,816.1343,180.3984,804.1343,192.3984,792.1343" style="stroke:#181818;stroke-width:0.5;"/><rect fill="none" height="81.8975" style="stroke:#000000;stroke-width:1.5;" width="146.043" x="119.377" y="838.1343"/><path d="M219.6387,838.1343 L219.6387,847.2329 L209.6387,857.2329 L119.377,857.2329" fill="none" style="stroke:#000000;stroke-width:1.5;"/><text fill="#000000" font-family="sans-serif" font-size="14" lengthAdjust="spacing" textLength="90.2617" x="122.377" y="852.2661">CLI / Argparse</text><rect fill="#F1F1F1" height="33.7988" rx="12.5" ry="12.5" style="stroke:#181818;stroke-width:0.5;" width="126.043" x="129.377" y="874.2329"/><text fill="#000000" font-family="sans-serif" font-size="12" lengthAdjust="spacing" textLength="106.043" x="139.377" y="895.4888">Emit result to stdout</text><ellipse cx="192.3984" cy="951.0317" fill="none" rx="11" ry="11" style="stroke:#222222;stroke-width:1;"/><ellipse cx="192.3984" cy="951.0317" fill="#222222" rx="6" ry="6" style="stroke:#222222;stroke-width:1;"/><line style="stroke:#181818;stroke-width:1;" x1="192.3984" x2="192.3984" y1="30" y2="50"/><polygon fill="#181818" points="188.3984,40,192.3984,50,196.3984,40,192.3984,44" style="stroke:#181818;stroke-width:1;"/><line style="stroke:#181818;stroke-width:1;" x1="192.3984" x2="192.3984" y1="163.6963" y2="183.6963"/><polygon fill="#181818" points="188.3984,173.6963,192.3984,183.6963,196.3984,173.6963,192.3984,177.6963" style="stroke:#181818;stroke-width:1;"/><line style="stroke:#181818;stroke-width:1;" x1="192.3984" x2="192.3984" y1="83.7988" y2="129.8975"/><polygon fill="#181818" points="188.3984,119.8975,192.3984,129.8975,196.3984,119.8975,192.3984,123.8975" style="stroke:#181818;stroke-width:1;"/><line style="stroke:#181818;stroke-width:1;" x1="192.3984" x2="192.3984" y1="309.3926" y2="329.3926"/><polygon fill="#181818" points="188.3984,319.3926,192.3984,329.3926,196.3984,319.3926,192.3984,323.3926" style="stroke:#181818;stroke-width:1;"/><line style="stroke:#181818;stroke-width:1;" x1="192.3984" x2="192.3984" y1="363.1914" y2="383.1914"/><polygon fill="#181818" points="188.3984,373.1914,192.3984,383.1914,196.3984,373.1914,192.3984,377.1914" style="stroke:#181818;stroke-width:1;"/><line style="stroke:#181818;stroke-width:1;" x1="192.3984" x2="192.3984" y1="217.4951" y2="275.5938"/><polygon fill="#181818" points="188.3984,265.5938,192.3984,275.5938,196.3984,265.5938,192.3984,269.5938" style="stroke:#181818;stroke-width:1;"/><line style="stroke:#181818;stroke-width:1;" x1="192.3984" x2="192.3984" y1="499.0889" y2="523.4133"/><polygon fill="#181818" points="188.3984,513.4133,192.3984,523.4133,196.3984,513.4133,192.3984,517.4133" style="stroke:#181818;stroke-width:1;"/><line style="stroke:#181818;stroke-width:1;" x1="249.3438" x2="371.7969" y1="487.0889" y2="487.0889"/><polygon fill="#181818" points="367.7969,530.3127,371.7969,540.3127,375.7969,530.3127,371.7969,534.3127" style="stroke:#181818;stroke-width:1;"/><line style="stroke:#181818;stroke-width:1;" x1="371.7969" x2="371.7969" y1="487.0889" y2="589.2122"/><line style="stroke:#181818;stroke-width:1;" x1="371.7969" x2="204.3984" y1="589.2122" y2="589.2122"/><polygon fill="#181818" points="214.3984,585.2122,204.3984,589.2122,214.3984,593.2122,210.3984,589.2122" style="stroke:#181818;stroke-width:1;"/><line style="stroke:#181818;stroke-width:1;" x1="192.3984" x2="192.3984" y1="557.2122" y2="577.2122"/><polygon fill="#181818" points="188.3984,567.2122,192.3984,577.2122,196.3984,567.2122,192.3984,571.2122" style="stroke:#181818;stroke-width:1;"/><line style="stroke:#181818;stroke-width:1;" x1="192.3984" x2="192.3984" y1="703.3354" y2="738.3354"/><polygon fill="#181818" points="188.3984,728.3354,192.3984,738.3354,196.3984,728.3354,192.3984,732.3354" style="stroke:#181818;stroke-width:1;"/><line style="stroke:#181818;stroke-width:1;" x1="192.3984" x2="192.3984" y1="645.2122" y2="669.5366"/><polygon fill="#181818" points="188.3984,659.5366,192.3984,669.5366,196.3984,659.5366,192.3984,663.5366" style="stroke:#181818;stroke-width:1;"/><line style="stroke:#181818;stroke-width:1;" x1="251.4868" x2="330.1045" y1="633.2122" y2="633.2122"/><polygon fill="#181818" points="326.1045,710.8354,330.1045,720.8354,334.1045,710.8354,330.1045,714.8354" style="stroke:#181818;stroke-width:1;"/><line style="stroke:#181818;stroke-width:1;" x1="330.1045" x2="330.1045" y1="633.2122" y2="804.1343"/><line style="stroke:#181818;stroke-width:1;" x1="330.1045" x2="204.3984" y1="804.1343" y2="804.1343"/><polygon fill="#181818" points="214.3984,800.1343,204.3984,804.1343,214.3984,808.1343,210.3984,804.1343" style="stroke:#181818;stroke-width:1;"/><line style="stroke:#181818;stroke-width:1;" x1="192.3984" x2="192.3984" y1="772.1343" y2="792.1343"/><polygon fill="#181818" points="188.3984,782.1343,192.3984,792.1343,196.3984,782.1343,192.3984,786.1343" style="stroke:#181818;stroke-width:1;"/><line style="stroke:#181818;stroke-width:1;" x1="192.3984" x2="192.3984" y1="601.2122" y2="621.2122"/><polygon fill="#181818" points="188.3984,611.2122,192.3984,621.2122,196.3984,611.2122,192.3984,615.2122" style="stroke:#181818;stroke-width:1;"/><line style="stroke:#181818;stroke-width:1;" x1="192.3984" x2="192.3984" y1="416.9902" y2="475.0889"/><polygon fill="#181818" points="188.3984,465.0889,192.3984,475.0889,196.3984,465.0889,192.3984,469.0889" style="stroke:#181818;stroke-width:1;"/><line style="stroke:#181818;stroke-width:1;" x1="192.3984" x2="192.3984" y1="816.1343" y2="874.2329"/><polygon fill="#181818" points="188.3984,864.2329,192.3984,874.2329,196.3984,864.2329,192.3984,868.2329" style="stroke:#181818;stroke-width:1;"/><line style="stroke:#181818;stroke-width:1;" x1="192.3984" x2="192.3984" y1="908.0317" y2="940.0317"/><polygon fill="#181818" points="188.3984,930.0317,192.3984,940.0317,196.3984,930.0317,192.3984,934.0317" style="stroke:#181818;stroke-width:1;"/><!--SRC=[ZP91Qm8n58Jl-oiUdlJGpTqjBMAb52o8HRmQpNCtDPkaUM-rKlplJTmLwgLw2vbXliaGOXau6ou80sYxTpiaMDKIYOE3WmkxhN47oFDyLMIPZrxDsbdeZQTl860KodX7s8EV360uIsUGeIIGLW4rwushwtWialgYoKlULC1_agke6Wn5ThgANrxqro1z1H_imWKoHwaW5yfjI7H5nIMEnAELDJxbd-Ji6JhotXoXFAUWqaonzLuQhMG2dItBe1dlJBnkEVdsBd1CdADL6Dg2UWlzJWZurSGuLCy3u0ejz8z8W-Y9rCuoCzBoudsQHhbLmJUrIOqZJ6yxKal-bpIMne1eA8Yrji8dO0o21wPzMRIM-oRe_2t-TFixJ6gTDg36S7eUiN8DdpSaTluN]--></g></svg>