<svg xmlns="http://www.w3.org/2000/svg" xmlns:xlink="http://www.w3.org/1999/xlink" contentStyleType="text/css" data-diagram-type="DESCRIPTION" height="270px" preserveAspectRatio="none" style="width:3669px;height:270px;background:#FFFFFF;" version="1.1" viewBox="0 0 3669 270" width="3669px" zoomAndPan="magnify"><title>maestro runbook - Command Surface</title><defs/><g><g class="title" data-source-line="5"><text fill="#000000" font-family="Arial" font-size="22" font-weight="bold" lengthAdjust="spacing" textLength="393.626" x="1633.6692" y="35.6357">maestro runbook - Command Surface</text></g><!--cluster CLI Commands--><g class="cluster" data-entity="CLI Commands" data-source-line="9" data-uid="ent0003" id="cluster_CLI Commands"><path d="M13.5,173.6679 L117.1758,173.6679 A3.75,3.75 0 0 1 119.6758,176.1679 L126.6758,195.7665 L1980.5,195.7665 A2.5,2.5 0 0 1 1983,198.2665 L1983,261.4279 A2.5,2.5 0 0 1 1980.5,263.9279 L13.5,263.9279 A2.5,2.5 0 0 1 11,261.4279 L11,176.1679 A2.5,2.5 0 0 1 13.5,173.6679" fill="#FFFFFF" style="stroke:#000000;stroke-width:1;"/><line style="stroke:#000000;stroke-width:1;" x1="11" x2="126.6758" y1="195.7665" y2="195.7665"/><text fill="#000000" font-family="Arial" font-size="14" font-weight="bold" lengthAdjust="spacing" textLength="102.6758" x="15" y="188.7997">CLI Commands</text></g><!--entity list--><g class="entity" data-entity="list" data-source-line="10" data-uid="ent0004" id="entity_list"><ellipse cx="81.0037" cy="228.3013" fill="#FFFFFF" rx="53.6237" ry="14.3835" style="stroke:#000000;stroke-width:1;"/><text fill="#000000" font-family="Arial" font-size="14" lengthAdjust="spacing" textLength="71.5928" x="45.2073" y="232.8506">runbook list</text></g><!--entity show--><g class="entity" data-entity="show" data-source-line="11" data-uid="ent0005" id="entity_show"><ellipse cx="232.003" cy="228.3025" fill="#FFFFFF" rx="62.323" ry="14.8646" style="stroke:#000000;stroke-width:1;"/><text fill="#000000" font-family="Arial" font-size="14" lengthAdjust="spacing" textLength="87.165" x="188.4205" y="232.8518">runbook show</text></g><!--entity add--><g class="entity" data-entity="add" data-source-line="12" data-uid="ent0006" id="entity_add"><ellipse cx="387.0018" cy="228.3013" fill="#FFFFFF" rx="58.0418" ry="14.3835" style="stroke:#000000;stroke-width:1;"/><text fill="#000000" font-family="Arial" font-size="14" lengthAdjust="spacing" textLength="77.8408" x="348.0814" y="232.8506">runbook add</text></g><!--entity edit--><g class="entity" data-entity="edit" data-source-line="13" data-uid="ent0007" id="entity_edit"><ellipse cx="1037.9959" cy="228.3013" fill="#FFFFFF" rx="57.4859" ry="14.3835" style="stroke:#000000;stroke-width:1;"/><text fill="#000000" font-family="Arial" font-size="14" lengthAdjust="spacing" textLength="77.0547" x="999.4685" y="232.8506">runbook edit</text></g><!--entity rm--><g class="entity" data-entity="rm" data-source-line="14" data-uid="ent0008" id="entity_rm"><ellipse cx="1183.9979" cy="228.3013" fill="#FFFFFF" rx="53.0679" ry="14.3835" style="stroke:#000000;stroke-width:1;"/><text fill="#000000" font-family="Arial" font-size="14" lengthAdjust="spacing" textLength="70.8066" x="1148.5945" y="232.8506">runbook rm</text></g><!--entity step_add--><g class="entity" data-entity="step_add" data-source-line="15" data-uid="ent0009" id="entity_step_add"><ellipse cx="1342.9957" cy="228.295" fill="#FFFFFF" rx="70.7357" ry="16.5471" style="stroke:#000000;stroke-width:1;"/><text fill="#000000" font-family="Arial" font-size="14" lengthAdjust="spacing" textLength="108.9648" x="1288.5133" y="232.8443">runbook step-add</text></g><!--entity step_edit--><g class="entity" data-entity="step_edit" data-source-line="16" data-uid="ent0010" id="entity_step_edit"><ellipse cx="1518.9999" cy="228.3018" fill="#FFFFFF" rx="70.4199" ry="16.484" style="stroke:#000000;stroke-width:1;"/><text fill="#000000" font-family="Arial" font-size="14" lengthAdjust="spacing" textLength="108.1787" x="1464.9106" y="232.8512">runbook step-edit</text></g><!--entity step_rm--><g class="entity" data-entity="step_rm" data-source-line="17" data-uid="ent0011" id="entity_step_rm"><ellipse cx="1692.0004" cy="228.2959" fill="#FFFFFF" rx="67.9404" ry="15.9881" style="stroke:#000000;stroke-width:1;"/><text fill="#000000" font-family="Arial" font-size="14" lengthAdjust="spacing" textLength="101.9307" x="1641.035" y="232.8452">runbook step-rm</text></g><!--entity step_renumber--><g class="entity" data-entity="step_renumber" data-source-line="18" data-uid="ent0012" id="entity_step_renumber"><ellipse cx="1881.0008" cy="228.298" fill="#FFFFFF" rx="86.1508" ry="19.6302" style="stroke:#000000;stroke-width:1;"/><text fill="#000000" font-family="Arial" font-size="14" lengthAdjust="spacing" textLength="145.5234" x="1808.2391" y="232.8473">runbook step-renumber</text></g><!--entity export--><g class="entity" data-entity="export" data-source-line="19" data-uid="ent0013" id="entity_export"><ellipse cx="544.9968" cy="228.2972" fill="#FFFFFF" rx="64.6468" ry="15.3294" style="stroke:#000000;stroke-width:1;"/><text fill="#000000" font-family="Arial" font-size="14" lengthAdjust="spacing" textLength="93.3926" x="498.3005" y="232.8465">runbook export</text></g><!--entity render--><g class="entity" data-entity="render" data-source-line="20" data-uid="ent0014" id="entity_render"><ellipse cx="709.9992" cy="228.2957" fill="#FFFFFF" rx="65.2392" ry="15.4478" style="stroke:#000000;stroke-width:1;"/><text fill="#000000" font-family="Arial" font-size="14" lengthAdjust="spacing" textLength="94.9512" x="662.5236" y="232.845">runbook render</text></g><!--entity discuss--><g class="entity" data-entity="discuss" data-source-line="21" data-uid="ent0015" id="entity_discuss"><ellipse cx="878.0004" cy="228.2959" fill="#FFFFFF" rx="67.6404" ry="15.9281" style="stroke:#000000;stroke-width:1;"/><text fill="#000000" font-family="Arial" font-size="14" lengthAdjust="spacing" textLength="101.165" x="827.4179" y="232.8452">runbook discuss</text></g><!--entity User--><g class="entity" data-entity="User" data-source-line="7" data-uid="ent0002" id="entity_User"><ellipse cx="957.9993" cy="65.2979" fill="#FFFFFF" rx="8" ry="8" style="stroke:#000000;stroke-width:1;"/><path d="M957.9993,73.2979 L957.9993,100.2979 M944.9993,81.2979 L970.9993,81.2979 M957.9993,100.2979 L944.9993,115.2979 M957.9993,100.2979 L970.9993,115.2979" fill="none" style="stroke:#000000;stroke-width:1;"/><text fill="#000000" font-family="Arial" font-size="14" lengthAdjust="spacing" textLength="29.5586" x="943.22" y="130.4297">User</text></g><g class="entity" data-entity="GMN28" data-source-line="38" data-uid="ent0029" id="entity_GMN28"><path d="M2002.45,208.3479 L2002.45,248.2453 L2231.5516,248.2453 L2231.5516,218.3479 L2221.5516,208.3479 L2002.45,208.3479" fill="#FFFFFF" style="stroke:#000000;stroke-width:1;"/><path d="M2221.5516,208.3479 L2221.5516,218.3479 L2231.5516,218.3479 L2221.5516,208.3479" fill="#FFFFFF" style="stroke:#000000;stroke-width:1;"/><text fill="#000000" font-family="Arial" font-size="13" lengthAdjust="spacing" textLength="208.1016" x="2008.45" y="225.5417">List all runbooks with optional filters:</text><text fill="#000000" font-family="Arial" font-size="13" lengthAdjust="spacing" text-decoration="line-through" textLength="38.2954" x="2008.45" y="240.4904">status,</text><text fill="#000000" font-family="Arial" font-size="13" lengthAdjust="spacing" textLength="68.6436" x="2050.3572" y="240.4904">scope, --tag</text></g><g class="entity" data-entity="GMN31" data-source-line="43" data-uid="ent0032" id="entity_GMN31"><path d="M2266.86,208.3479 L2266.86,248.2453 L2485.1388,248.2453 L2485.1388,218.3479 L2475.1388,208.3479 L2266.86,208.3479" fill="#FFFFFF" style="stroke:#000000;stroke-width:1;"/><path d="M2475.1388,208.3479 L2475.1388,218.3479 L2485.1388,218.3479 L2475.1388,208.3479" fill="#FFFFFF" style="stroke:#000000;stroke-width:1;"/><text fill="#000000" font-family="Arial" font-size="13" lengthAdjust="spacing" textLength="197.2788" x="2272.86" y="225.5417">Display detailed view of a runbook</text><text fill="#000000" font-family="Arial" font-size="13" lengthAdjust="spacing" textLength="185.7324" x="2272.86" y="240.4904">including all steps and metadata</text></g><g class="entity" data-entity="GMN34" data-source-line="48" data-uid="ent0035" id="entity_GMN34"><path d="M2519.72,193.3979 L2519.72,263.1928 L2716.2898,263.1928 L2716.2898,203.3979 L2706.2898,193.3979 L2519.72,193.3979" fill="#FFFFFF" style="stroke:#000000;stroke-width:1;"/><path d="M2706.2898,193.3979 L2706.2898,203.3979 L2716.2898,203.3979 L2706.2898,193.3979" fill="#FFFFFF" style="stroke:#000000;stroke-width:1;"/><text fill="#000000" font-family="Arial" font-size="13" lengthAdjust="spacing" textLength="147.4116" x="2525.72" y="210.5917">Create new runbook with:</text><text fill="#000000" font-family="Arial" font-size="13" lengthAdjust="spacing" textLength="88.8545" x="2525.72" y="225.5404">--title (required)</text><text fill="#000000" font-family="Arial" font-size="13" lengthAdjust="spacing" text-decoration="line-through" textLength="38.3018" x="2525.72" y="240.4892">scope,</text><text fill="#000000" font-family="Arial" font-size="13" lengthAdjust="spacing" textLength="75.8799" x="2567.6336" y="240.4892">tag (optional)</text><text fill="#000000" font-family="Arial" font-size="13" lengthAdjust="spacing" text-decoration="line-through" textLength="95.3672" x="2525.72" y="255.4379">source-program,</text><text fill="#000000" font-family="Arial" font-size="13" lengthAdjust="spacing" textLength="76.5908" x="2624.699" y="255.4379">target-project</text></g><g class="entity" data-entity="GMN37" data-source-line="55" data-uid="ent0038" id="entity_GMN37"><path d="M2750.93,208.3479 L2750.93,248.2453 L3045.076,248.2453 L3045.076,218.3479 L3035.076,208.3479 L2750.93,208.3479" fill="#FFFFFF" style="stroke:#000000;stroke-width:1;"/><path d="M3035.076,208.3479 L3035.076,218.3479 L3045.076,218.3479 L3035.076,208.3479" fill="#FFFFFF" style="stroke:#000000;stroke-width:1;"/><text fill="#000000" font-family="Arial" font-size="13" lengthAdjust="spacing" textLength="177.709" x="2756.93" y="225.5417">Export to MD or PUML formats</text><text fill="#000000" font-family="Arial" font-size="13" lengthAdjust="spacing" textLength="273.146" x="2756.93" y="240.4904">Default output: docs/maestro/runbooks/exports/</text></g><g class="entity" data-entity="GMN40" data-source-line="60" data-uid="ent0041" id="entity_GMN40"><path d="M3079.72,215.8279 L3079.72,240.7766 L3362.2879,240.7766 L3362.2879,225.8279 L3352.2879,215.8279 L3079.72,215.8279" fill="#FFFFFF" style="stroke:#000000;stroke-width:1;"/><path d="M3352.2879,215.8279 L3352.2879,225.8279 L3362.2879,225.8279 L3352.2879,215.8279" fill="#FFFFFF" style="stroke:#000000;stroke-width:1;"/><text fill="#000000" font-family="Arial" font-size="13" lengthAdjust="spacing" textLength="261.5679" x="3085.72" y="233.0217">Render PUML to SVG using /usr/bin/plantuml</text></g><g class="entity" data-entity="GMN43" data-source-line="64" data-uid="ent0044" id="entity_GMN43"><path d="M3397.04,208.3479 L3397.04,248.2453 L3662.9643,248.2453 L3662.9643,218.3479 L3652.9643,208.3479 L3397.04,208.3479" fill="#FFFFFF" style="stroke:#000000;stroke-width:1;"/><path d="M3652.9643,208.3479 L3652.9643,218.3479 L3662.9643,218.3479 L3652.9643,208.3479" fill="#FFFFFF" style="stroke:#000000;stroke-width:1;"/><text fill="#000000" font-family="Arial" font-size="13" lengthAdjust="spacing" textLength="167.6543" x="3403.04" y="225.5417">Placeholder for AI integration</text><text fill="#000000" font-family="Arial" font-size="13" lengthAdjust="spacing" textLength="244.9243" x="3403.04" y="240.4904">Will suggest CLI commands for refinement</text></g><!--link User to list--><g class="link" data-entity-1="User" data-entity-2="list" data-source-line="24" data-uid="lnk16" id="link_User_list"><path d="M942.99,95.8979 C845.58,96.3779 302.51,101.9179 152,165.6679 C127.05,176.2379 108.521,194.4663 95.821,209.1763" fill="none" id="User-to-list" style="stroke:#000000;stroke-width:1;"/><polygon fill="#000000" points="91.9,213.7179,100.8092,209.5195,95.1675,209.9332,94.7538,204.2915,91.9,213.7179" style="stroke:#000000;stroke-width:1;"/></g><!--link User to show--><g class="link" data-entity-1="User" data-entity-2="show" data-source-line="25" data-uid="lnk17" id="link_User_show"><path d="M942.78,96.3679 C856.78,99.4379 431.28,116.9279 311,165.6679 C284.56,176.3779 263.7995,194.4021 249.2595,209.0321" fill="none" id="User-to-show" style="stroke:#000000;stroke-width:1;"/><polygon fill="#000000" points="245.03,213.2879,254.2114,209.724,248.5546,209.7414,248.5372,204.0846,245.03,213.2879" style="stroke:#000000;stroke-width:1;"/></g><!--link User to add--><g class="link" data-entity-1="User" data-entity-2="add" data-source-line="26" data-uid="lnk18" id="link_User_add"><path d="M942.9,96.8879 C869.86,102.0779 552.91,126.5079 463,165.6679 C437.15,176.9279 417.022,195.1664 403.142,209.6464" fill="none" id="User-to-add" style="stroke:#000000;stroke-width:1;"/><polygon fill="#000000" points="398.99,213.9779,408.1055,210.2487,402.45,210.3683,402.3303,204.7127,398.99,213.9779" style="stroke:#000000;stroke-width:1;"/></g><!--link User to edit--><g class="link" data-entity-1="User" data-entity-2="edit" data-source-line="27" data-uid="lnk19" id="link_User_edit"><path d="M973.24,120.8879 C990.01,148.4479 1013.2394,186.6232 1026.5694,208.5132" fill="none" id="User-to-edit" style="stroke:#000000;stroke-width:1;"/><polygon fill="#000000" points="1029.69,213.6379,1028.4254,203.8705,1027.0895,209.3673,1021.5926,208.0314,1029.69,213.6379" style="stroke:#000000;stroke-width:1;"/></g><!--link User to rm--><g class="link" data-entity-1="User" data-entity-2="rm" data-source-line="28" data-uid="lnk20" id="link_User_rm"><path d="M973.27,101.0379 C1001.94,111.1279 1065.26,135.1379 1113,165.6679 C1135.28,179.9179 1153.5317,196.581 1167.0617,210.011" fill="none" id="User-to-rm" style="stroke:#000000;stroke-width:1;"/><polygon fill="#000000" points="1171.32,214.2379,1167.7504,205.0586,1167.7714,210.7155,1162.1146,210.7364,1171.32,214.2379" style="stroke:#000000;stroke-width:1;"/></g><!--link User to step_add--><g class="link" data-entity-1="User" data-entity-2="step_add" data-source-line="29" data-uid="lnk21" id="link_User_step_add"><path d="M973.17,97.3679 C1018.02,102.2679 1153.23,120.1079 1255,165.6679 C1281.56,177.5579 1303.8115,194.0078 1320.7415,208.0478" fill="none" id="User-to-step_add" style="stroke:#000000;stroke-width:1;"/><polygon fill="#000000" points="1325.36,211.8779,1320.9857,203.0537,1321.5113,208.6861,1315.8789,209.2117,1325.36,211.8779" style="stroke:#000000;stroke-width:1;"/></g><!--link User to step_edit--><g class="link" data-entity-1="User" data-entity-2="step_edit" data-source-line="30" data-uid="lnk22" id="link_User_step_edit"><path d="M972.95,95.5979 C1032.92,95.0979 1260.94,97.9879 1431,165.6679 C1458.38,176.5679 1480.9341,193.5719 1497.6741,207.9919" fill="none" id="User-to-step_edit" style="stroke:#000000;stroke-width:1;"/><polygon fill="#000000" points="1502.22,211.9079,1498.0117,203.0033,1498.4317,208.6446,1492.7905,209.0646,1502.22,211.9079" style="stroke:#000000;stroke-width:1;"/></g><!--link User to step_rm--><g class="link" data-entity-1="User" data-entity-2="step_rm" data-source-line="31" data-uid="lnk23" id="link_User_step_rm"><path d="M973.24,96.4279 C1059.36,99.8479 1485.5,118.9279 1607,165.6679 C1634.39,176.2079 1656.5282,193.8122 1672.4682,208.4322" fill="none" id="User-to-step_rm" style="stroke:#000000;stroke-width:1;"/><polygon fill="#000000" points="1676.89,212.4879,1672.9611,203.4566,1673.2052,209.1082,1667.5536,209.3523,1676.89,212.4879" style="stroke:#000000;stroke-width:1;"/></g><!--link User to step_renumber--><g class="link" data-entity-1="User" data-entity-2="step_renumber" data-source-line="32" data-uid="lnk24" id="link_User_step_renumber"><path d="M973.13,96.2179 C1071.28,98.7579 1618.85,115.0079 1777,165.6679 C1806.78,175.2079 1832.2568,191.0176 1852.4168,205.4976" fill="none" id="User-to-step_renumber" style="stroke:#000000;stroke-width:1;"/><polygon fill="#000000" points="1857.29,208.9979,1852.3136,200.4987,1853.229,206.081,1847.6467,206.9963,1857.29,208.9979" style="stroke:#000000;stroke-width:1;"/></g><!--link User to export--><g class="link" data-entity-1="User" data-entity-2="export" data-source-line="33" data-uid="lnk25" id="link_User_export"><path d="M942.76,96.7179 C894.41,99.9579 740.9,113.9479 627,165.6679 C600.89,177.5179 579.6129,194.7835 564.1329,208.9735" fill="none" id="User-to-export" style="stroke:#000000;stroke-width:1;"/><polygon fill="#000000" points="559.71,213.0279,569.0473,209.8949,563.3958,209.6492,563.6415,203.9977,559.71,213.0279" style="stroke:#000000;stroke-width:1;"/></g><!--link User to render--><g class="link" data-entity-1="User" data-entity-2="render" data-source-line="34" data-uid="lnk26" id="link_User_render"><path d="M942.87,100.8779 C913.13,111.0679 845.38,135.7079 793,165.6679 C768.54,179.6579 747.4861,195.847 731.2861,209.227" fill="none" id="User-to-render" style="stroke:#000000;stroke-width:1;"/><polygon fill="#000000" points="726.66,213.0479,736.1464,210.4007,730.5151,209.8638,731.052,204.2325,726.66,213.0479" style="stroke:#000000;stroke-width:1;"/></g><!--link User to discuss--><g class="link" data-entity-1="User" data-entity-2="discuss" data-source-line="35" data-uid="lnk27" id="link_User_discuss"><path d="M942.76,120.8879 C926.35,147.8479 903.8897,184.7527 890.3097,207.0627" fill="none" id="User-to-discuss" style="stroke:#000000;stroke-width:1;"/><polygon fill="#000000" points="887.19,212.1879,895.2863,206.5799,889.7897,207.9169,888.4527,202.4203,887.19,212.1879" style="stroke:#000000;stroke-width:1;"/></g><!--link list to GMN28--><g class="link" data-entity-1="list" data-entity-2="GMN28" data-source-line="38" data-uid="lnk30" id="link_list_GMN28"><path d="M91.61,213.7979 C106.52,194.8079 135.67,162.4079 169.5,149.5379 C216.13,131.7879 1917.04,137.6879 1965.5,149.5379 C2011.43,160.7579 2058.94,188.5679 2088.23,207.9479" fill="none" id="list-GMN28" style="stroke:#000000;stroke-width:1;stroke-dasharray:7,7;"/></g><!--link show to GMN31--><g class="link" data-entity-1="show" data-entity-2="GMN31" data-source-line="43" data-uid="lnk33" id="link_show_GMN31"><path d="M244.16,213.4479 C260.85,194.3779 292.85,162.2379 328.5,149.5379 C378.29,131.7879 2180.28,136.4779 2231.5,149.5379 C2275.66,160.7879 2320.89,188.5979 2348.71,207.9579" fill="none" id="show-GMN31" style="stroke:#000000;stroke-width:1;stroke-dasharray:7,7;"/></g><!--link add to GMN34--><g class="link" data-entity-1="add" data-entity-2="GMN34" data-source-line="48" data-uid="lnk36" id="link_add_GMN34"><path d="M398.41,213.7779 C414.38,194.7679 445.41,162.3479 480.5,149.5379 C532.82,130.4379 2431.8,134.7779 2485.5,149.5379 C2516.85,158.1479 2548.29,176.3279 2572.67,193.0479" fill="none" id="add-GMN34" style="stroke:#000000;stroke-width:1;stroke-dasharray:7,7;"/></g><!--link export to GMN37--><g class="link" data-entity-1="export" data-entity-2="GMN37" data-source-line="55" data-uid="lnk39" id="link_export_GMN37"><path d="M557.94,213.1079 C575.34,193.9879 608.29,162.1279 644.5,149.5379 C698.86,130.6179 2660.15,137.8379 2716.5,149.5379 C2770.14,160.6679 2827.4,188.5079 2862.94,207.9079" fill="none" id="export-GMN37" style="stroke:#000000;stroke-width:1;stroke-dasharray:7,7;"/></g><!--link render to GMN40--><g class="link" data-entity-1="render" data-entity-2="GMN40" data-source-line="60" data-uid="lnk42" id="link_render_GMN40"><path d="M723.41,212.7779 C741.1,193.6179 774.25,162.0479 810.5,149.5379 C869.19,129.2779 2984.79,136.5379 3045.5,149.5379 C3104.77,162.2279 3168.21,196.5079 3200.12,215.3979" fill="none" id="render-GMN40" style="stroke:#000000;stroke-width:1;stroke-dasharray:7,7;"/></g><!--link discuss to GMN43--><g class="link" data-entity-1="discuss" data-entity-2="GMN43" data-source-line="64" data-uid="lnk45" id="link_discuss_GMN43"><path d="M892.06,212.4379 C910.25,193.2379 943.95,161.9579 980.5,149.5379 C1043.15,128.2479 3297.92,135.1079 3362.5,149.5379 C3412.52,160.7079 3465.23,188.5379 3497.86,207.9279" fill="none" id="discuss-GMN43" style="stroke:#000000;stroke-width:1;stroke-dasharray:7,7;"/></g><!--SRC=[VLJ1Rjim3BthAxZiqW4pVEzXG96sGu5qA5PqEmwAnJXQPCcJg7N3i7yV9LbEMZZpnQJqnAT7Kdn3UnmGHYEr5U6WxIYz760hkqFlNRHgxOppyFOsVoS8XJiP3TqwIvyaHxZoMXeXI9D162G6yWvyj5ld3j30sWs3j0eUez_93eMG7N7Sfu1UY97PP8-mMc_kAZAiu8y0Y04x6NYhXZ8wq0faoCOI8EpTSmOaOmaWbShx_5_QHgKBGJAM07x8stvOP2SScygGd6zdQ39mvih8SuGPEh5cu7-eFTeuRD6VWAULHQs_HkSdjTbSr8jMJG6BkGHIEdGnX8oQRF5NY5HVQ9eFfLgpbqipUob3ivEJC7kiz7YePlFboii3DJ-l5ceEZZH5xf6eA9lzga5OHmXUzti2jwjDj-4VI6DgWmTurhG7Dv9sLXhOQKFemoL3coQGf1ZU9wjp8oQ3P2-O45BmrnHJsrxhm8_oDxypajgWWfyQdzE-hAGCqhOpKMdRvyiagTpM77VWGqgIF4jIcdBjKVAgvS2rZab7kNPvoHSUVqJjKRqhMauKm4NLE-svw3jiHkzw7X05v7kajF8TEpfxcRdrRh81vE3-6dWwF3pTRs3d_20ff9IKaGCkqXZf4fJhGZkDchPMeYtHGdkMRcxYpzaeBCpv-EKZztLAPXk3RxVQjbm1It4mPsFLDW5uC3pMziwaY7nbkBhZwX1oAbAE6F1LfnB5lkVxGXfqtJJeCjpZJbkUnFOaJVy0]--></g></svg>